<svg width="77" height="47" viewBox="0 0 77 47" fill="none" xmlns="http://www.w3.org/2000/svg">
<g clip-path="url(#clip0_282_11723)">
<path d="M35.494 7.8531C35.2753 7.67035 35.0217 7.51724 34.7632 7.38883C33.9826 7.00852 33.1871 6.67267 32.4164 6.2726C30.4973 5.2601 28.4488 4.57357 26.4004 3.88704C23.3526 2.87454 20.3794 1.63483 17.277 0.790257C15.9296 0.424768 14.6021 0.0395217 12.9265 0.0543389C12.5238 0.0839732 11.8476 0.103729 11.1864 0.207449C9.8539 0.400072 8.66561 0.973002 7.5519 1.6941C6.7912 2.18801 6.07524 2.76094 5.35432 3.30917C4.40468 4.03521 3.59426 4.87979 3.0026 5.92193C2.45569 6.89492 1.90381 7.86298 1.36187 8.84091C0.173584 10.9598 -0.159534 13.2564 0.0642018 15.642C0.282966 17.909 1.26243 19.9192 2.30156 21.8948C2.37614 22.038 2.47558 22.1665 2.57005 22.2998C3.80805 24.0038 5.43387 25.2583 7.29833 26.2264C8.08887 26.6314 8.92912 26.9425 9.70474 27.3722C12.5288 28.9379 15.4224 30.3505 18.4951 31.3729C20.2701 31.9606 22.0351 32.5879 23.8051 33.2052C23.9095 33.2448 24.0189 33.2843 24.1183 33.3435C24.4216 33.5411 25.1226 33.5362 25.4259 33.3188C26.4452 32.5928 27.3003 31.7087 28.0461 30.7011C29.657 28.5329 31.2679 26.3795 32.4164 23.9099C33.2418 22.1319 34.0224 20.339 34.4997 18.4375C34.8676 16.9459 35.1659 15.4296 35.4344 13.9133C35.6382 12.7279 35.8073 11.5278 35.9067 10.3325C35.9564 9.66573 35.8421 8.9792 35.7675 8.30749C35.7526 8.1445 35.6233 7.9667 35.494 7.8531Z" fill="#95C11F"/>
<path d="M76.9603 13.3651C76.836 11.9426 76.5576 10.5597 75.8864 9.29035C75.3693 8.31242 74.7926 7.36906 74.2755 6.39113C73.5844 5.08228 72.6348 4.00063 71.4316 3.13629C70.9393 2.79056 70.4024 2.49422 69.9599 2.09909C69.0202 1.25945 67.9015 0.750731 66.7281 0.419814C65.8034 0.162984 64.8139 0.108654 64.0483 -0.00494385C63.3373 0.0642029 62.8252 0.07902 62.323 0.167923C60.2398 0.543291 58.2212 1.20512 56.2175 1.88671C54.2586 2.54854 52.3344 3.30916 50.3705 3.96605C48.3917 4.62788 46.4427 5.33417 44.5783 6.26765C43.3701 6.87515 42.1072 7.35918 40.8841 7.92717C40.6355 8.04077 40.3472 8.21857 40.2179 8.44577C39.9544 8.94461 39.7306 9.48297 39.5815 10.0312C39.3677 10.861 39.3876 11.7302 39.5367 12.5649C39.7456 13.7355 40.0091 14.906 40.3074 16.0618C41.4758 20.5514 43.5391 24.6656 45.8212 28.6811C46.8305 30.4542 48.0835 32.0446 49.5999 33.4275C50.0722 33.8671 50.6241 34.0054 51.1959 33.8868C51.8174 33.7584 52.409 33.4868 53.0106 33.2694C53.9652 32.9237 54.9198 32.5681 55.8794 32.2224C57.8881 31.5013 59.9614 30.9135 61.9054 30.0442C64.6996 28.7996 67.4192 27.3821 70.1389 25.9794C71.8542 25.0953 73.3109 23.8556 74.4495 22.285C75.0859 21.4108 75.429 20.3884 75.8814 19.4203C76.7813 17.4793 77.1393 15.4642 76.9703 13.3502L76.9603 13.3651Z" fill="#95C11F"/>
<path d="M35.8823 30.9086C35.41 30.5826 34.8929 30.3554 34.2863 30.4591C34.1521 30.4838 34.0129 30.4739 33.8736 30.469C32.6307 30.4542 31.7655 31.0271 31.2037 32.1038C30.8905 32.7014 30.7214 33.3188 30.7314 33.9955C30.7314 34.193 30.7065 34.3857 30.7364 34.5832C30.9154 35.7488 31.3479 36.7515 32.5412 37.2355C33.3764 37.5812 34.2515 37.6701 35.1315 37.5417C35.7481 37.4578 36.4043 37.2503 36.7474 36.6922C37.1203 36.0847 37.4932 35.4179 37.6175 34.7314C37.9158 33.1114 37.2148 31.8421 35.8823 30.9135V30.9086Z" fill="#95C11F"/>
<path d="M39.6063 30.9283C40.8841 30.958 41.7989 30.2912 42.0624 29.1601C42.1519 28.77 42.1668 28.36 42.1817 27.9649C42.2066 27.2932 41.8685 26.74 41.4061 26.3251C40.5808 25.604 38.9997 25.3225 38.0004 26.2659C37.8015 26.4535 37.6175 26.6709 37.4684 26.8981C37.0656 27.5006 37.0109 28.1822 37.0159 28.8836C37.0209 29.3133 37.1452 29.6689 37.4186 29.9948C38.0153 30.7061 38.7959 30.9777 39.6013 30.9333L39.6063 30.9283Z" fill="#95C11F"/>
<path d="M11.5245 18.635C11.793 18.7634 12.156 18.9363 12.5587 19.124C12.4493 19.2919 12.3797 19.445 12.2653 19.5636C11.798 20.0921 11.3207 20.6008 10.8583 21.1342C10.7638 21.2478 10.734 21.4157 10.6843 21.5589C10.8434 21.5194 11.0273 21.5293 11.1467 21.4453C11.8527 20.9514 12.4742 20.3637 12.9564 19.6475C13.0857 19.4549 13.205 19.4302 13.4039 19.5339C13.6575 19.6722 13.926 19.7858 14.274 19.9488C13.9011 20.4081 13.558 20.8329 13.2001 21.2478C13.0161 21.4651 12.7874 21.6528 12.5985 21.8701C12.5438 21.9343 12.5438 22.0529 12.5139 22.1418C12.6183 22.1418 12.7426 22.1813 12.8222 22.1368C13.5531 21.6972 14.1895 21.149 14.627 20.4081C14.7513 20.2056 14.8557 20.1711 15.0645 20.2699C15.3529 20.4081 15.6612 20.5168 15.9744 20.6403C15.5617 21.5244 14.9701 22.2257 14.2889 22.853C14.1497 22.9863 13.8812 23.1147 14.0751 23.3419C14.1298 23.4062 14.458 23.3074 14.6021 23.2037C15.4225 22.6159 16.0887 21.8948 16.5064 20.9169C16.8246 21.0749 17.108 21.2083 17.4411 21.3713C17.2025 21.7071 17.0185 22.0479 16.76 22.3196C16.1882 22.9172 15.5816 23.4852 14.9701 24.0482C14.8855 24.1273 14.6867 24.1519 14.5773 24.1075C12.3449 23.179 10.1423 22.1714 8.07402 20.9169C6.80121 20.1513 6.01565 18.9758 5.45382 17.6522C4.70804 15.9037 4.43955 14.0763 4.59368 12.1846C4.63843 11.6216 4.65335 11.0585 4.65335 10.4955C4.65335 10.372 4.5738 10.1991 4.46939 10.1399C4.39978 10.1053 4.17107 10.1991 4.1313 10.288C3.9175 10.7523 3.71365 11.2265 3.5645 11.7154C3.46009 12.0661 3.39048 12.4415 3.39048 12.802C3.39048 13.5923 3.43026 14.3776 3.475 15.1678C3.54461 16.4174 3.95728 17.5682 4.47933 18.6943C4.55391 18.8523 4.51413 19.0647 4.59368 19.2228C4.78262 19.6031 4.94172 20.018 5.23009 20.3143C6.84596 21.9886 8.67065 23.3864 10.8483 24.2952C13.2746 25.3077 15.686 26.3745 18.1123 27.392C19.5492 27.9995 20.9662 28.6662 22.5075 28.9972C22.5671 29.007 22.6169 29.0367 22.6666 29.0614C23.7057 29.6392 24.7448 30.2122 25.7591 30.7703C24.9387 31.4766 24.7846 31.7186 23.6759 31.2592C22.7959 30.8987 21.9009 30.5826 20.9911 30.3208C19.4945 29.8862 18.1372 29.1305 16.7102 28.523C14.0204 27.3722 11.3455 26.2017 8.64082 25.0706C7.73593 24.6952 6.94043 24.1865 6.27419 23.4852C5.40908 22.5863 4.55888 21.6775 3.73354 20.7391C2.89329 19.7809 2.43587 18.6548 2.3066 17.3706C2.18728 16.2347 2.03315 15.1036 2.1127 13.9627C2.19225 12.8613 2.34141 11.7747 2.47565 10.6733C2.49554 10.5054 2.56514 10.3374 2.64469 10.1843C3.26121 9.02858 3.82801 7.83827 4.5191 6.72698C5.46874 5.19588 6.8211 4.05989 8.41708 3.22026C8.81484 3.00788 9.20762 2.78562 9.62526 2.61275C10.028 2.44482 10.4456 2.28184 10.8682 2.22751C11.8427 2.10403 12.8272 2.0497 13.8066 1.97068C14.627 1.90153 15.343 2.14354 15.9197 2.73129C16.3175 3.13135 16.6804 3.56105 17.0632 3.97593C17.0483 4.00556 17.0284 4.03026 17.0085 4.05989C16.7401 3.99569 16.4766 3.91172 16.1981 3.87715C15.4523 3.76355 14.7115 3.65489 13.9707 3.57587C13.5481 3.53635 13.1155 3.54623 12.6929 3.57093C12.5686 3.57587 12.4543 3.70922 12.335 3.78331C12.4394 3.89197 12.5289 4.06483 12.6482 4.09447C13.2746 4.24758 13.911 4.38093 14.5475 4.48959C16.0639 4.73654 17.5057 5.25514 18.9227 5.82313C21.8015 6.97393 24.6553 8.17906 27.5241 9.3348C29.1997 10.0065 30.8951 10.6239 32.5806 11.261C32.9584 11.3993 33.3512 11.4981 33.744 11.6068C33.9876 11.6759 34.0821 11.8043 34.0175 12.0612C33.9727 12.239 33.9528 12.4168 33.913 12.6193C33.5153 12.4168 33.1523 12.1945 32.7645 12.0463C30.9995 11.3845 29.2245 10.7375 27.4545 10.1004C26.3557 9.70523 25.242 9.34468 24.1432 8.94461C23.7654 8.80632 23.4223 8.56925 23.0494 8.43589C21.9854 8.06052 20.9115 7.68516 19.8326 7.35424C17.9184 6.76649 16.0142 6.16393 14.0751 5.64533C12.8968 5.32429 11.6836 5.12179 10.4506 5.12673C10.0876 5.12673 9.76944 5.22057 9.46119 5.46258C9.07338 5.76881 8.58613 5.94661 8.20826 6.26271C7.88012 6.53436 7.62655 6.90479 7.38293 7.26534C7.19399 7.55674 7.05478 7.89754 6.93048 8.22845C6.54764 9.22614 6.35374 10.2633 6.44821 11.3302C6.46312 11.4833 6.59736 11.6265 6.68189 11.7796C6.77635 11.6117 6.94043 11.4487 6.95037 11.2758C7.00009 10.2485 7.07964 9.23602 7.48734 8.2729C7.77571 7.58144 8.19335 7.04308 8.9093 6.76155C9.45621 6.54424 9.98324 6.25777 10.55 6.11948C11.0671 5.99106 11.6289 5.92192 12.156 5.98612C14.1248 6.23308 16.0042 6.87021 17.8836 7.47278C18.8531 7.78394 19.8525 7.99632 20.8021 8.34699C21.886 8.74705 22.9152 9.27553 23.9941 9.70029C26.8927 10.8313 29.7963 11.9327 32.7049 13.049C33.038 13.1724 33.386 13.2712 33.8186 13.4095C32.8988 16.289 32.3022 19.2623 31.2083 22.1467C31.0492 22.0874 30.9249 22.038 30.8056 21.9837C28.0512 20.7736 25.2967 19.5636 22.5423 18.3584C22.3534 18.2745 22.1843 18.1806 21.9655 18.3436C21.7219 18.5165 21.7418 18.6498 21.9655 18.7881C22.239 18.9659 22.5224 19.1191 22.8108 19.2623C25.3663 20.5415 27.9219 21.8158 30.4775 23.095C30.552 23.1345 30.6366 23.179 30.736 23.2432C30.4874 23.7963 30.2388 24.3396 29.9803 24.8977C29.3687 24.6755 28.787 24.473 28.2103 24.2557C26.7784 23.7223 25.3116 23.2728 23.9394 22.6307C21.9208 21.6923 19.9121 20.7687 17.8239 20.0031C15.512 19.1536 13.215 18.2597 10.9577 17.2768C9.69487 16.7236 8.72037 15.7309 7.88012 14.6443C7.60666 14.2887 7.37795 13.9034 7.10947 13.5379C7.04484 13.454 6.90562 13.4243 6.80121 13.3749C6.76144 13.4885 6.69183 13.6071 6.70177 13.7157C6.77138 14.4121 7.04484 15.0295 7.50225 15.5531C7.8304 15.9235 8.1834 16.2742 8.51155 16.6248C7.9895 17.1484 7.4575 17.6719 6.9454 18.2103C6.85093 18.3091 6.83104 18.4869 6.77635 18.6301C6.94043 18.6449 7.12936 18.7239 7.25863 18.6597C8.02927 18.3288 8.66071 17.83 8.97394 16.9755C9.17281 17.1336 9.35678 17.2768 9.59046 17.4645C8.93416 18.1955 8.28781 18.8968 7.66135 19.613C7.58677 19.7068 7.59175 19.8797 7.55694 20.013C7.70113 20.0427 7.88012 20.1365 7.9895 20.0921C9.00874 19.6574 9.62526 18.8573 10.033 17.8053C10.2617 17.9534 10.5202 18.1214 10.8434 18.3288C10.1374 19.1339 9.47113 19.9044 8.79495 20.6699C8.83472 20.7193 8.8745 20.7687 8.9093 20.8181C9.10321 20.7292 9.33689 20.6749 9.48604 20.5366C10.1523 19.9389 10.7937 19.3117 11.4848 18.6548L11.5245 18.635ZM4.56882 7.80369C4.69809 7.96668 4.79753 8.16918 4.9616 8.25809C5.0511 8.30748 5.29969 8.19388 5.38919 8.08522C5.6179 7.77406 5.83666 7.44314 6.00073 7.09247C6.07034 6.95418 6.09023 6.67759 6.00073 6.6035C5.89135 6.49978 5.63778 6.47509 5.47868 6.52448C5.08093 6.63808 4.62849 7.34436 4.56385 7.79875L4.56882 7.80369ZM6.87082 5.52679C6.88573 5.8182 7.12439 6.01082 7.35807 5.86759C7.59672 5.72435 7.82543 5.53173 7.99447 5.30453C8.17843 5.06252 8.01933 4.78593 7.73096 4.75136C7.33818 4.70197 6.8559 5.13167 6.87082 5.52679ZM7.63152 16.1062C7.63152 15.8296 7.45253 15.7111 7.2636 15.8889C6.95534 16.1704 6.662 16.4964 6.4134 16.8323C6.27419 17.0249 6.44821 17.2274 6.68189 17.1978C7.05975 17.1583 7.64147 16.4915 7.63152 16.1112V16.1062ZM20.1359 18.1658C20.2751 18.0769 20.4392 18.0226 20.4541 17.9436C20.4789 17.8201 20.4392 17.5978 20.3546 17.5534C20.0514 17.4003 19.7282 17.2867 19.4 17.1978C19.3155 17.178 19.1266 17.2768 19.1117 17.3558C19.0818 17.4595 19.1266 17.6571 19.2111 17.7015C19.4945 17.8794 19.8127 18.0127 20.1359 18.1658ZM6.00073 15.5234C6.30402 15.5284 6.75646 15.1579 6.81116 14.8616C6.8559 14.6245 6.65205 14.4171 6.44821 14.5307C6.17972 14.6789 5.93113 14.8863 5.74717 15.1184C5.58807 15.3259 5.73225 15.5185 6.00073 15.5284V15.5234ZM10.2915 4.19819C10.5749 3.99569 10.8583 3.80306 11.1268 3.59068C11.1666 3.56105 11.1715 3.42276 11.1317 3.3783C11.092 3.32891 10.9677 3.30422 10.913 3.33385C10.6395 3.47215 10.376 3.6302 10.1175 3.79812C10.0678 3.82776 10.0379 3.9463 10.0578 4.0105C10.0727 4.06483 10.1622 4.09447 10.2865 4.19325L10.2915 4.19819ZM14.9502 16.1112C15.1242 15.8988 15.3131 15.7654 15.2932 15.6716C15.2734 15.5481 15.0844 15.4 14.9601 15.3901C14.8607 15.3753 14.6618 15.5481 14.6568 15.6469C14.6519 15.7654 14.806 15.8939 14.9502 16.1112Z" fill="white"/>
<path d="M20.9766 22.8876C20.1214 23.8507 19.1817 24.6953 18.1177 25.4065C18.0332 25.4657 17.8741 25.4707 17.7697 25.4312C17.5211 25.3472 17.2874 25.2188 17.0388 25.1052C17.5161 24.799 17.9984 24.5224 18.4359 24.1915C18.8436 23.8902 19.2165 23.5445 19.5844 23.1987C19.6988 23.095 19.7435 22.9172 19.8181 22.774C19.7833 22.7443 19.7584 22.7048 19.7336 22.6752C19.5745 22.7295 19.3855 22.7493 19.2563 22.848C18.4309 23.4852 17.6255 24.1421 16.8101 24.7891C16.7405 24.8385 16.6261 24.9126 16.5615 24.8879C16.2234 24.7644 15.8853 24.6212 15.5273 24.473C15.8654 24.1717 16.2085 23.9198 16.477 23.6136C16.9791 23.0456 17.4465 22.448 17.9139 21.8553C18.0183 21.7219 18.073 21.6182 18.2669 21.7071C19.127 22.0825 19.9971 22.4381 20.8572 22.8036C20.897 22.8184 20.9318 22.848 20.9766 22.8876Z" fill="white"/>
<path d="M19.7286 26.3449C19.8231 26.2708 19.8877 26.2115 19.9673 26.1621C20.9169 25.5497 21.7323 24.7841 22.4532 23.9198C22.7018 23.6185 22.9206 23.5741 23.2338 23.747C23.3034 23.7865 23.373 23.8161 23.4774 23.8605C23.3979 23.9544 23.3332 24.0285 23.2587 24.0976C22.3587 24.9224 21.4588 25.7473 20.549 26.5622C20.4943 26.6116 20.36 26.6314 20.2805 26.6067C20.0965 26.5375 19.9275 26.4387 19.7236 26.335L19.7286 26.3449Z" fill="white"/>
<path d="M26.083 29.1552C27.2265 28.2859 27.9922 27.1944 28.748 26.0881C28.9369 25.8065 29.101 26.0288 29.3396 26.1029C29.1308 26.4387 28.9617 26.7647 28.743 27.0462C28.2458 27.6932 27.7138 28.3205 27.2116 28.9626C27.0923 29.1108 27.0376 29.3133 26.9332 29.5207C26.7144 29.4269 26.436 29.3083 26.083 29.1552Z" fill="white"/>
<path d="M19.5594 4.81557C19.5743 4.52417 19.6141 4.29697 19.5793 4.08459C19.5346 3.8574 19.4152 3.64502 19.2959 3.35855C19.803 3.55117 20.2604 3.69935 20.688 3.90679C20.8322 3.98087 20.8819 4.21795 20.9963 4.376C21.2896 4.78594 21.5979 5.186 21.9608 5.67003C21.0758 5.35887 20.2803 5.07734 19.5594 4.82051V4.81557Z" fill="white"/>
<path d="M22.0303 27.5056C22.1794 27.4018 22.3286 27.3129 22.4678 27.224C23.4274 26.582 24.2527 25.8016 24.9786 24.9224C25.2007 24.6492 25.4758 24.5981 25.804 24.7693C25.7791 24.8138 25.7592 24.8731 25.7194 24.9076C24.8344 25.7571 23.9345 26.6067 23.0495 27.4562C22.7363 27.7575 22.4081 27.7673 22.0303 27.5105V27.5056Z" fill="white"/>
<path d="M31.253 7.78394C31.3525 7.86297 31.4917 7.93211 31.5414 8.03089C31.785 8.56431 31.9988 9.10267 32.2673 9.73487C31.7652 9.54224 31.3525 9.36938 30.9299 9.22614C30.4277 9.04834 29.9454 8.90511 29.9206 8.2087C29.9057 7.87284 29.667 7.54687 29.5029 7.16162C29.8957 7.26534 30.204 7.33943 30.378 7.72467C30.5619 8.12968 30.8056 8.50998 31.0492 8.88041C31.1138 8.97919 31.2729 9.00883 31.3873 9.06809C31.4171 8.94462 31.4917 8.80632 31.4718 8.69273C31.4022 8.40626 31.2928 8.12474 31.1984 7.84321C31.2133 7.82345 31.2282 7.8037 31.2481 7.779L31.253 7.78394Z" fill="white"/>
<path d="M18.6348 25.7967C19.7684 25.0607 20.7876 24.2359 21.5732 23.1147C21.7372 23.1839 21.9013 23.253 22.1151 23.337C21.7522 23.742 21.434 24.1174 21.0859 24.4631C20.6186 24.9274 20.1313 25.367 19.6341 25.7967C19.1966 26.177 19.1817 26.1621 18.6348 25.7967Z" fill="white"/>
<path d="M24.5262 24.3199C23.8998 24.9619 23.2882 25.5892 22.6717 26.2115C22.4082 26.4782 22.0999 26.7104 21.8364 26.987C21.6276 27.2092 21.4387 27.2685 21.1901 27.0709C21.0956 26.9968 20.9763 26.9524 20.9365 26.9277C21.737 26.2807 22.5474 25.6386 23.338 24.9817C23.5567 24.794 23.7606 24.5816 23.9197 24.3495C24.0887 24.1124 24.2428 24.0877 24.5213 24.3199H24.5262Z" fill="white"/>
<path d="M25.0186 28.6514C25.5456 28.0587 26.0875 27.4463 26.6295 26.8338C26.9675 26.4585 27.3007 26.0782 27.6288 25.688C27.7531 25.5398 27.8525 25.4657 28.0464 25.6485C27.8724 25.9004 27.7084 26.1621 27.5194 26.4041C26.9924 27.0808 26.4554 27.7624 25.9036 28.4242C25.4859 28.9231 25.466 28.9033 25.0186 28.6465V28.6514Z" fill="white"/>
<path d="M19.2264 4.70196C18.7441 4.55379 18.2917 4.42043 17.8492 4.26732C17.7994 4.25251 17.7298 4.17348 17.7348 4.12903C17.7746 3.59067 17.3917 3.27458 17.0984 2.91402C16.984 2.77573 16.8597 2.63744 16.6758 2.43494C16.8448 2.45469 16.9492 2.45963 17.0487 2.48433C17.7845 2.66213 18.401 2.97329 18.6944 3.73391C18.8236 4.05494 19.0325 4.35129 19.2313 4.70196H19.2264Z" fill="white"/>
<path d="M23.4824 28.0192C24.6458 27.2191 25.5855 26.2165 26.5153 25.2089C26.5849 25.1299 26.749 25.1348 26.8633 25.1052C26.8882 25.1398 26.9031 25.1743 26.923 25.2089C26.8434 25.3126 26.7639 25.4262 26.6794 25.5201C25.9137 26.335 25.1331 27.1351 24.3873 27.9698C24.094 28.2909 23.8404 28.2761 23.4874 28.0192H23.4824Z" fill="white"/>
<path d="M29.5881 8.69767C29.2649 8.57419 29.0312 8.49023 28.7976 8.39638C28.7379 8.37169 28.6633 8.3223 28.6434 8.26797C28.3899 7.68022 28.1462 7.09741 27.8877 6.47015C28.3252 6.63314 28.7478 6.7418 28.9318 7.23077C29.1058 7.69998 29.3445 8.14943 29.5881 8.69273V8.69767Z" fill="white"/>
<path d="M25.1628 6.92948C23.9794 6.74673 23.885 5.6552 23.3828 4.92422C23.9347 5.05264 24.4717 5.17118 24.6755 5.82313C24.7799 6.15899 24.9987 6.45533 25.1578 6.77637C25.1777 6.81588 25.1578 6.88009 25.1578 6.92948H25.1628Z" fill="white"/>
<path d="M21.4338 4.17349C21.7818 4.30191 22.1249 4.42045 22.463 4.5538C22.5077 4.57356 22.5475 4.63282 22.5723 4.68221C22.811 5.16624 23.0447 5.64533 23.3181 6.21826C22.9353 6.07009 22.627 5.95155 22.3138 5.82807C22.274 5.81326 22.2193 5.76881 22.2193 5.73917C22.1945 5.10697 21.7271 4.72173 21.4189 4.24758C21.4139 4.24264 21.4189 4.22782 21.4338 4.17349Z" fill="white"/>
<path d="M26.2071 5.89722C26.6944 6.02069 27.117 6.04539 27.2711 6.59362C27.4103 7.06777 27.6738 7.50735 27.8976 8.01607C27.5147 7.91729 27.2363 7.83332 27.0722 7.49253C26.8286 6.96405 26.5204 6.46521 26.2021 5.89722H26.2071Z" fill="white"/>
<path d="M25.1581 6.92949C25.4564 6.90973 25.4962 6.71711 25.4216 6.49485C25.3172 6.16888 25.183 5.85278 25.0537 5.50211C25.4017 5.56137 25.6702 5.64534 25.8194 6.00095C26.0183 6.4751 26.2867 6.91961 26.5552 7.45303C26.0531 7.26041 25.6106 7.08754 25.1681 6.91961H25.1631L25.1581 6.92949Z" fill="white"/>
<path d="M33.5502 10.0559C33.0381 10.0658 32.9884 10.0115 32.9287 9.56695C32.8939 9.35457 32.8343 9.14713 32.7647 8.93969C32.705 8.74707 32.6205 8.56433 32.5459 8.37664C32.5658 8.35195 32.5857 8.33219 32.6155 8.3075C32.705 8.38652 32.8343 8.44579 32.879 8.54951C33.1177 9.03847 33.3265 9.5472 33.5552 10.051L33.5502 10.0559Z" fill="white"/>
<path d="M43.803 9.1817C44.0715 8.92487 43.982 8.45072 44.4792 8.30749C44.3648 8.61371 44.2803 8.8656 44.1759 9.11255C44.0964 9.32493 44.1411 9.46816 44.3201 9.62127C44.698 9.94725 45.0559 10.293 45.399 10.6486C45.5482 10.7968 45.6774 10.8412 45.8813 10.7573C47.7855 9.97195 49.6848 9.1817 51.599 8.42602C54.8208 7.14681 57.9581 5.64534 61.3191 4.73161C62.1842 4.49454 63.0841 4.37106 63.9741 4.18832C64.1381 4.15374 64.3122 4.11917 64.4663 4.04015C64.5508 4.00063 64.6353 3.87716 64.6353 3.77838C64.6353 3.71911 64.511 3.61539 64.4315 3.59069C64.2773 3.55118 64.1083 3.5413 63.9492 3.5413C62.6316 3.53636 61.334 3.62527 60.0761 4.04015C60.0463 4.04509 60.0065 4.04015 59.8474 4.04015C60.3396 3.52155 60.7622 3.06222 61.2047 2.6177C61.7268 2.0991 62.393 1.91636 63.1139 1.97562C64.2575 2.05959 65.396 2.16825 66.5396 2.26703C66.6191 2.27197 66.6987 2.29666 66.7683 2.33124C69.3487 3.43264 71.5861 4.94893 72.9533 7.4876C73.3759 8.26797 73.7737 9.05822 74.1963 9.83859C74.599 10.5794 74.6537 11.4043 74.7233 12.2143C74.8178 13.207 74.9073 14.2097 74.8626 15.2073C74.8079 16.3631 74.6587 17.5188 74.435 18.6597C74.3405 19.1536 74.0273 19.6377 73.7339 20.0674C72.6003 21.717 71.2331 23.1543 69.652 24.3742C69.1697 24.7496 68.5582 24.962 67.9864 25.2139C65.1524 26.4387 62.2886 27.5895 59.4944 28.8885C57.7343 29.7084 55.9096 30.311 54.0849 30.9432C53.7618 31.0567 53.4386 31.1753 53.1154 31.3037C53.0508 31.3235 53.0259 31.4222 52.9662 31.4618C52.8817 31.521 52.7823 31.6 52.6928 31.6C52.6381 31.6 52.5486 31.4568 52.5436 31.3679C52.4144 30.2171 52.3696 29.0515 52.1658 27.9155C51.9967 26.9326 51.6636 25.9893 51.4001 25.0212C51.1764 24.2013 50.9427 23.3864 50.7289 22.5665C49.8687 19.1932 48.2827 16.1507 46.4878 13.1971C45.8216 12.1056 45.0659 11.1178 44.156 10.2288C43.8875 9.96207 43.5942 9.72993 43.3357 9.45828C43.2412 9.3595 43.1517 9.157 43.1964 9.06316C43.2959 8.84584 43.4649 9.00389 43.5992 9.07798C43.6588 9.11255 43.7185 9.14712 43.7931 9.1817H43.803ZM68.4538 16.6742C68.9062 16.1507 69.3984 15.6914 69.7415 15.1431C70.0149 14.6986 70.1194 14.1504 70.2785 13.6367C70.3033 13.5626 70.2188 13.454 70.179 13.3651C70.0945 13.4046 69.9752 13.4145 69.9205 13.4787C69.7862 13.6318 69.657 13.8046 69.5525 13.9775C68.7073 15.3604 67.5787 16.5112 66.1468 17.1978C64.1182 18.1708 62.0102 18.9907 59.8772 19.7364C57.1625 20.6847 54.5573 21.8553 51.9818 23.1592C52.0962 23.5593 52.2851 23.9544 52.3298 24.3693C52.4442 25.4806 53.0955 26.1967 53.9606 26.7894C54.1993 26.9573 54.433 27.1253 54.6716 27.2981C54.7661 27.3673 54.8655 27.4265 54.9848 27.5006C54.5921 27.7723 54.2689 27.7426 53.9557 27.4414C53.7816 27.2734 53.5828 27.1351 53.3938 26.9771C53.2248 26.8388 53.0607 26.6956 52.837 26.5029C52.9016 27.15 52.8519 27.7426 53.6027 28.0143C53.4087 28.1032 53.2944 28.1279 53.2049 28.1921C53.1452 28.2415 53.0756 28.3353 53.0806 28.4045C53.1204 28.8243 53.18 29.2342 53.2397 29.6936C53.4237 29.5899 53.5828 29.5009 53.7419 29.4071C53.9805 29.2688 54.2092 29.0614 54.4628 29.007C56.0488 28.6514 57.5056 27.9698 58.9872 27.3475C61.3837 26.34 63.7603 25.2929 66.1567 24.2952C68.3394 23.3864 70.1591 21.9887 71.775 20.3094C72.0584 20.013 72.2225 19.5982 72.4064 19.2178C72.491 19.0598 72.4462 18.8474 72.5208 18.6894C73.0528 17.5534 73.4605 16.3878 73.5301 15.1234C73.5748 14.3479 73.6245 13.5725 73.6096 12.7971C73.6096 12.3526 73.5152 11.8982 73.3958 11.4685C73.2815 11.0734 73.1025 10.698 72.9136 10.3325C72.8539 10.2238 72.655 10.1843 72.5208 10.1152C72.4611 10.2535 72.3517 10.3918 72.3517 10.5301C72.3517 11.0783 72.3667 11.6315 72.4114 12.1846C72.5705 14.0763 72.297 15.8988 71.5513 17.6472C70.9944 18.961 70.2138 20.1266 68.9609 20.8922C66.8826 22.1615 64.6701 23.1641 62.4278 24.1026C62.3184 24.152 62.1146 24.1223 62.035 24.0433C61.4036 23.4556 60.7771 22.8579 60.1805 22.2356C59.9418 21.9936 59.7778 21.6824 59.564 21.3663C59.8921 21.2083 60.1855 21.0749 60.4987 20.9169C60.9213 21.8899 61.5776 22.6159 62.4029 23.2037C62.5471 23.3074 62.8802 23.4062 62.93 23.337C63.1239 23.1098 62.8554 22.9863 62.7162 22.853C62.035 22.2208 61.4434 21.5244 61.0307 20.6403C61.3489 20.5168 61.6522 20.4082 61.9406 20.2699C62.1543 20.1661 62.2637 20.2106 62.3781 20.4131C62.8156 21.154 63.452 21.7022 64.1879 22.1418C64.2624 22.1912 64.3917 22.1418 64.4961 22.1418C64.4663 22.0529 64.4663 21.9343 64.4116 21.8701C64.2227 21.6528 63.9989 21.4701 63.81 21.2478C63.452 20.8379 63.109 20.4082 62.7361 19.9488C63.0841 19.7858 63.3526 19.6673 63.6061 19.5339C63.805 19.4302 63.9194 19.4549 64.0536 19.6525C64.5359 20.3637 65.1623 20.9515 65.8684 21.4454C65.9877 21.5293 66.1716 21.5194 66.3258 21.559C66.2711 21.4157 66.2462 21.2478 66.1468 21.1342C65.6794 20.5909 65.1922 20.0723 64.7199 19.5339C64.6154 19.4203 64.5508 19.2771 64.4514 19.124C64.8541 18.9314 65.217 18.7635 65.4806 18.635C66.1766 19.2969 66.818 19.9192 67.4842 20.5218C67.6334 20.6551 67.8621 20.7094 68.056 20.7983C68.0958 20.749 68.1306 20.6996 68.1704 20.6502C67.4991 19.8797 66.8279 19.1092 66.1269 18.3041C66.4501 18.0967 66.7036 17.9288 66.9373 17.7806C67.35 18.8375 67.9615 19.6327 68.9858 20.0674C69.0951 20.1118 69.2691 20.018 69.4133 19.9883C69.3785 19.855 69.3885 19.6821 69.3089 19.5883C68.6825 18.8721 68.0411 18.1708 67.3798 17.4398C67.6185 17.2521 67.8024 17.1089 68.0212 16.9409C68.0461 17.0348 68.061 17.0842 68.0809 17.1336C68.4189 17.9189 69.0404 18.3831 69.8161 18.6746C69.9254 18.7141 70.0746 18.635 70.1989 18.6054C70.1641 18.4918 70.174 18.3387 70.1044 18.2696C69.5575 17.7213 69.0007 17.1928 68.4538 16.6644V16.6742ZM46.0553 11.3154C46.2243 11.5277 46.3884 11.7105 46.5227 11.9031C46.637 12.0661 46.7514 12.076 46.9303 12.0068C48.9937 11.2116 51.062 10.4412 53.1204 9.63115C54.1545 9.22121 55.1439 8.71249 56.1831 8.33218C57.1327 7.98645 58.137 7.76419 59.1066 7.45797C60.9909 6.85541 62.8703 6.23802 64.8342 5.96144C65.1723 5.91205 65.5253 5.91205 65.8634 5.96638C66.8627 6.11455 67.7676 6.53931 68.6228 7.05791C68.7869 7.16163 68.9857 7.28016 69.0603 7.43821C69.3388 8.06053 69.642 8.68779 69.8061 9.34963C69.9652 9.98676 69.9453 10.6733 70.0348 11.3302C70.0597 11.4833 70.2138 11.6166 70.3033 11.7648C70.3829 11.6364 70.4624 11.5129 70.532 11.3796C70.5569 11.3203 70.5569 11.2462 70.5569 11.1771C70.542 9.98676 70.4425 8.81127 69.8061 7.75431C69.7663 7.68517 69.7315 7.61602 69.7017 7.53205C69.4829 6.87022 69.0554 6.37632 68.4687 6.01577C68.1505 5.82808 67.7925 5.68485 67.5141 5.44778C67.2058 5.18107 66.8627 5.08229 66.4898 5.1218C65.3364 5.25515 64.158 5.33418 63.0294 5.60089C61.3688 6.00095 59.738 6.54425 58.0973 7.04309C56.8692 7.41352 55.6411 7.79383 54.428 8.20871C53.9209 8.38157 53.4634 8.70755 52.9563 8.88535C50.7736 9.66079 48.586 10.4115 46.4033 11.1721C46.2939 11.2116 46.1895 11.2561 46.0453 11.3154H46.0553ZM50.7438 19.9439C50.8681 20.2452 50.9725 20.4971 51.0819 20.7786C52.3895 20.1168 53.6573 19.4796 54.9252 18.8375C54.955 18.8227 54.9848 18.803 55.0097 18.7783C55.2136 18.6301 55.2782 18.4572 54.9998 18.3436C54.8605 18.2844 54.6666 18.2547 54.5324 18.3041C53.9407 18.5363 53.359 18.803 52.7773 19.0499C52.1111 19.3413 51.4448 19.6327 50.7388 19.9389L50.7438 19.9439ZM72.4561 7.78889C72.3716 7.37401 72.0385 6.78132 71.6606 6.59857C71.4817 6.50967 71.1784 6.4751 71.0342 6.57388C70.8055 6.71711 70.9248 6.98382 71.0491 7.18632C71.2082 7.43821 71.3822 7.68023 71.5314 7.942C71.6457 8.13462 71.78 8.37169 72.0186 8.27785C72.2026 8.19883 72.312 7.96175 72.4561 7.79382V7.78889ZM69.3686 4.74149C69.0156 4.73655 68.8267 5.02796 69.0355 5.31936C69.1747 5.52186 69.3785 5.68979 69.5874 5.82808C69.6769 5.88735 69.8807 5.90217 69.9652 5.8429C70.0696 5.76388 70.1343 5.59595 70.1343 5.46259C70.1343 5.11686 69.7216 4.74643 69.3686 4.74149ZM69.3835 16.0569C69.3835 16.4915 69.9453 17.1385 70.3133 17.183C70.4077 17.1928 70.5519 17.1583 70.5817 17.0941C70.6315 17.015 70.6315 16.8471 70.5817 16.7829C70.3381 16.4767 70.0796 16.1853 69.8011 15.9087C69.7415 15.8494 69.5774 15.8247 69.4929 15.8494C69.4233 15.8741 69.4034 16.0173 69.3885 16.0569H69.3835ZM56.8593 18.1708C57.2023 18.0028 57.5354 17.8497 57.8387 17.6719C57.9083 17.6324 57.9382 17.4595 57.9133 17.3657C57.8984 17.2966 57.7542 17.183 57.6995 17.1978C57.3316 17.3015 56.9686 17.425 56.6256 17.583C56.556 17.6127 56.5212 17.8201 56.551 17.9139C56.5858 18.0078 56.72 18.0621 56.8593 18.1708ZM70.9894 15.5185C71.2728 15.5234 71.4369 15.316 71.2629 15.0987C71.074 14.8665 70.8204 14.669 70.5519 14.5257C70.3431 14.4122 70.1492 14.6295 70.2039 14.8715C70.2635 15.1579 70.6961 15.5136 70.9845 15.5234L70.9894 15.5185ZM65.8336 3.40301C65.8534 3.49191 65.8534 3.52649 65.8684 3.56106C65.9479 3.77344 66.5744 4.14881 66.8081 4.11423C66.8677 4.10435 66.9522 4.05496 66.9572 4.02039C66.9721 3.95124 66.9522 3.83765 66.8976 3.80801C66.639 3.64008 66.3755 3.4771 66.102 3.34374C66.0374 3.30917 65.9181 3.38325 65.8286 3.41289L65.8336 3.40301ZM62.0251 16.1062C62.1941 15.8939 62.3582 15.7852 62.3632 15.6667C62.3632 15.5679 62.1792 15.3753 62.0847 15.3851C61.9555 15.3901 61.7616 15.5234 61.7268 15.642C61.7019 15.7259 61.8759 15.879 62.03 16.1062H62.0251Z" fill="white"/>
<path d="M50.1868 30.9876C50.0227 30.8789 49.8984 30.8147 49.794 30.7209C48.735 29.901 47.9345 28.8391 47.1141 27.792C46.9351 27.5648 46.8108 27.3129 46.6517 27.0709C46.3733 26.6659 46.0551 26.2856 45.8065 25.8609C44.6232 23.826 43.7034 21.6725 42.9278 19.4549C42.2267 17.4546 41.5108 15.4642 41.123 13.3799C40.9837 12.639 41.0732 11.8488 41.0732 11.0832C41.0732 10.9746 41.108 10.8461 41.1776 10.7622C41.287 10.6239 41.4312 10.4313 41.5655 10.4263C41.6898 10.4214 41.829 10.6338 41.9334 10.7721C42.2914 11.2363 42.172 11.8093 42.2566 12.3328C42.7885 15.6716 43.6835 18.9116 45.0259 22.0183C45.6176 23.3913 46.244 24.7545 46.8755 26.1127C47.5715 27.634 48.4615 29.0416 49.5752 30.3011C49.7641 30.5184 49.958 30.7258 50.1917 30.9876H50.1868Z" fill="white"/>
<path d="M57.5694 4.77607C56.7441 5.06748 55.9486 5.35394 55.0586 5.67004C55.3619 5.25022 55.6154 4.90943 55.864 4.55875C55.9883 4.38095 56.0878 4.18833 56.2021 4.01052C56.2369 3.96113 56.2867 3.90186 56.3463 3.8821C56.7739 3.71418 57.2065 3.55613 57.6788 3.37338C57.5943 3.85741 57.1021 4.27229 57.5644 4.78101L57.5694 4.77607Z" fill="white"/>
<path d="M47.5016 7.17151C47.3773 7.4481 47.2779 7.67529 47.1884 7.91237C47.1188 8.07042 46.9994 8.24822 47.0193 8.39639C47.084 8.88536 46.7459 8.96932 46.4028 9.0928C45.8758 9.28542 45.3587 9.4978 44.7969 9.71512C45.0156 8.78164 45.4731 7.92224 45.841 7.79877C45.7813 7.94694 45.7316 8.0556 45.6868 8.15932C45.6322 8.31737 45.5576 8.48036 45.5377 8.64828C45.5228 8.78164 45.5824 8.92487 45.6073 9.0681C45.7266 8.99896 45.8957 8.96438 45.9702 8.8656C46.189 8.54456 46.3879 8.20377 46.5718 7.85804C46.8403 7.33944 46.8354 7.3345 47.5016 7.17151Z" fill="white"/>
<path d="M60.2746 2.49423C60.0459 2.76094 59.7923 3.01283 59.5984 3.30424C59.4492 3.53637 59.3896 3.82284 59.2752 4.07967C59.2404 4.16363 59.1808 4.26241 59.1111 4.28711C58.6885 4.43528 58.256 4.55876 57.7588 4.71681C58.1267 4.09943 58.3703 3.46723 58.8079 3.02271C59.146 2.67698 59.7326 2.57326 60.205 2.37076C60.2298 2.41027 60.2547 2.44978 60.2746 2.49423Z" fill="white"/>
<path d="M47.4268 8.69768C47.6356 8.22847 47.8245 7.84816 47.9687 7.4481C48.1576 6.91468 48.5355 6.6134 49.1222 6.48499C49.0924 6.57883 49.0725 6.65291 49.0377 6.73194C48.8239 7.2209 48.6101 7.71481 48.3814 8.20378C48.3366 8.29762 48.2173 8.38158 48.1129 8.43097C47.919 8.52481 47.7102 8.58902 47.4268 8.69768Z" fill="white"/>
<path d="M51.8468 6.92948C51.8865 6.82082 51.9164 6.70228 51.9611 6.6035C52.0805 6.34173 52.2545 6.09972 52.334 5.82807C52.5279 5.17117 53.0748 5.05758 53.6367 4.88965C53.3632 5.44282 53.1096 5.9713 52.8262 6.47508C52.7666 6.58374 52.5776 6.61832 52.4434 6.68252C52.2445 6.76649 52.0407 6.85045 51.8418 6.92948H51.8468Z" fill="white"/>
<path d="M53.6816 6.2232C53.965 5.63545 54.1937 5.12179 54.4722 4.63776C54.5468 4.50935 54.7804 4.46984 54.9495 4.40069C55.1484 4.3266 55.3522 4.25746 55.6058 4.2377C55.5362 4.33154 55.4616 4.42045 55.392 4.50935C55.1235 4.86496 54.8252 5.21069 54.7904 5.68978C54.7854 5.74905 54.686 5.82808 54.6064 5.85277C54.333 5.97625 54.0545 6.07997 53.6816 6.2232Z" fill="white"/>
<path d="M50.7926 5.89722C50.4396 6.53929 50.1463 7.13198 49.7933 7.68021C49.6789 7.85308 49.4005 7.92223 49.2016 8.03583C49.1817 8.01113 49.1469 7.9815 49.1221 7.96174C49.2613 7.6654 49.3955 7.37399 49.5298 7.07765C49.5994 6.92948 49.6889 6.78625 49.7187 6.63314C49.8331 6.07502 50.2756 6.01082 50.7926 5.90216V5.89722Z" fill="white"/>
<path d="M51.8422 6.92948C51.4046 7.09741 50.9671 7.26533 50.46 7.4629C50.7732 6.85045 51.0317 6.28246 51.3499 5.74905C51.4444 5.60087 51.7228 5.5663 51.9714 5.45764C51.8173 5.87252 51.688 6.1985 51.5786 6.52942C51.509 6.74673 51.5637 6.9196 51.8422 6.92948Z" fill="white"/>
<path d="M47.9145 21.4157C48.1797 21.8174 48.1797 22.1928 47.9145 22.5418C47.7554 22.7542 47.6013 22.9666 47.4372 23.1789C47.0046 22.8579 46.9847 22.69 47.288 22.28C47.4919 22.0035 47.6908 21.7269 47.9145 21.4108V21.4157Z" fill="white"/>
<path d="M48.0242 24.4236C47.7524 24.0614 47.7341 23.719 47.9695 23.3963C48.1236 23.1839 48.2827 22.9764 48.4368 22.7641C48.8893 23.174 48.8943 23.3617 48.5462 23.7963C48.3821 23.9988 48.2131 24.2013 48.0242 24.4285V24.4236Z" fill="white"/>
<path d="M46.7953 22.2158C46.6312 21.8899 46.492 21.6083 46.3379 21.3021C46.7655 21.0996 47.1732 20.9119 47.5759 20.7193C47.7599 20.8773 47.7449 21.0206 47.6008 21.1934C47.3372 21.5145 47.0887 21.8454 46.7953 22.2158Z" fill="white"/>
<path d="M45.6765 19.9785C45.582 19.7957 45.5075 19.6525 45.418 19.4895C45.8654 19.3117 46.2881 19.1438 46.7554 18.9561C46.835 19.1043 46.9095 19.2475 47.014 19.4401C46.5615 19.6229 46.1389 19.7908 45.6765 19.9785Z" fill="white"/>
<path d="M44.3546 17.6176C44.8369 17.4645 45.2197 17.3608 45.5777 17.2274C45.8362 17.1237 45.9108 17.2324 45.9705 17.5089C45.5677 17.6472 45.17 17.8003 44.7623 17.8991C44.6678 17.9189 44.5236 17.7411 44.3496 17.6225L44.3546 17.6176Z" fill="white"/>
<path d="M47.4266 20.2946C47.0487 20.4526 46.7156 20.581 46.3924 20.7341C46.1438 20.8576 46.0295 20.7736 45.9648 20.4822C46.3775 20.3143 46.7902 20.1365 47.2377 19.9538C47.2973 20.0624 47.352 20.1563 47.4266 20.2946Z" fill="white"/>
<path d="M44.9258 18.7091C45.4528 18.4967 45.8903 18.3288 46.3477 18.1461C46.3975 18.2448 46.4422 18.3288 46.5168 18.4622C46.0942 18.64 45.6964 18.8227 45.2937 18.961C45.2241 18.9857 45.0799 18.8227 44.9258 18.714V18.7091Z" fill="white"/>
<path d="M45.1703 15.0937C44.8123 15.2468 44.4543 15.4098 44.0914 15.5481C44.0069 15.5778 43.8875 15.5136 43.7881 15.4889C43.8477 15.4098 43.8925 15.2962 43.972 15.2567C44.2554 15.1333 44.5438 15.0246 44.8372 14.9308C44.9267 14.9011 45.046 14.9308 45.1504 14.9357C45.1603 14.9851 45.1653 15.0394 45.1752 15.0937H45.1703Z" fill="white"/>
<path d="M44.0762 16.5557C44.4391 16.4125 44.7921 16.2593 45.165 16.1359C45.2147 16.121 45.3142 16.2297 45.3888 16.284C45.3838 16.3186 45.3738 16.3532 45.3689 16.3828C44.9562 16.4964 44.5435 16.61 44.1259 16.7187C44.106 16.6594 44.0961 16.6051 44.0762 16.5557Z" fill="white"/>
<path d="M49.2621 24.3545C49.2124 24.7792 48.8494 25.0163 48.6406 25.362C48.4915 25.1398 48.7848 24.6508 49.2621 24.3545Z" fill="white"/>
<path d="M49.575 25.4114C49.6844 25.7868 49.575 25.9794 49.1225 26.335C49.1076 25.9399 49.4457 25.7868 49.575 25.4114Z" fill="white"/>
<path d="M35.9818 35.7538C36.1061 35.2302 36.4044 34.7512 36.2254 34.2029C36.1956 34.198 36.1558 34.1832 36.126 34.1782C36.0812 34.2474 36.0315 34.3165 36.0017 34.3906C35.7431 35.008 35.5045 35.6254 35.226 36.2279C35.1664 36.3514 34.9625 36.4107 34.8233 36.4996C34.7985 36.4699 34.7835 36.4452 34.7636 36.4156C35.1515 35.7735 35.5393 35.1265 35.9718 34.4054C35.768 34.4054 35.6337 34.4054 35.4995 34.4054C35.1167 34.4054 34.7338 34.4351 34.356 34.3857C33.4113 34.2622 32.9439 33.4225 33.3019 32.5434C33.7096 31.526 34.9029 31.3235 35.6387 32.1433C35.7879 32.3063 35.932 32.4693 36.0812 32.6323C36.9065 33.5263 36.6977 34.8401 36.2204 35.4772C36.1508 35.571 36.0663 35.6599 35.9818 35.7538ZM36.2652 33.7386C36.2602 33.1954 35.6288 32.5039 35.1863 32.4644C35.1167 32.4594 35.0272 32.4891 34.9824 32.5335C34.9476 32.5632 34.9725 32.6718 35.0023 32.7212C35.0868 32.8299 35.2062 32.9089 35.2857 33.0225C35.4597 33.2546 35.6188 33.4966 35.7928 33.7337C35.8724 33.8374 35.9718 33.9362 36.0613 34.0399C36.1409 33.9115 36.2204 33.793 36.2602 33.7386H36.2652Z" fill="white"/>
<path d="M32.1133 33.2052C32.2972 32.899 32.4514 32.6422 32.6005 32.3804C32.6353 32.3903 32.6602 32.4002 32.6851 32.4051C32.6055 32.9583 32.4613 33.5065 32.7994 33.9708C32.5508 34.3313 32.3321 34.6573 32.1083 34.9783C32.0785 34.9734 32.0387 34.9635 32.0039 34.9586C32.0337 34.7116 32.0337 34.4597 32.1033 34.2177C32.168 34.0152 32.2972 33.8275 32.4066 33.6399C32.5906 33.3188 32.5657 33.2694 32.1033 33.2052H32.1133Z" fill="white"/>
<path d="M35.4145 34.761C34.4599 36.2329 34.2759 36.4354 34.0273 36.3909C34.2958 35.9217 34.5444 35.4377 34.8477 35.003C34.9521 34.8648 35.2206 34.8401 35.4145 34.766V34.761Z" fill="white"/>
<path d="M33.0734 34.3363C33.148 34.3857 33.2176 34.44 33.2971 34.4943C33.0237 34.9191 32.7651 35.3241 32.4967 35.7439C32.4121 35.5266 32.6259 35.0228 33.0734 34.3313V34.3363Z" fill="white"/>
<path d="M34.4757 34.8697C34.1276 35.3932 33.8989 35.9316 33.4763 36.3366C33.4465 36.3168 33.4117 36.2921 33.3818 36.2724C33.6553 35.8032 33.9337 35.334 34.2271 34.8746C34.242 34.845 34.3464 34.8746 34.4757 34.8746V34.8697Z" fill="white"/>
<path d="M32.8447 36.0551C33.0884 35.6007 33.327 35.1512 33.5855 34.7018C33.5955 34.682 33.6999 34.7215 33.8242 34.7462C33.5209 35.2253 33.2425 35.6698 32.9591 36.1143C32.9193 36.0946 32.8795 36.0748 32.8447 36.0551Z" fill="white"/>
<path d="M41.1027 28.281C40.705 28.2958 40.3122 28.365 39.9343 28.3205C39.1985 28.2366 38.8455 27.6883 39.114 26.9524C39.1388 26.8783 39.2084 26.7697 39.278 26.7598C40.2128 26.5622 41.1177 27.1105 41.1375 28.0736C41.1375 28.1378 41.1127 28.2069 41.0978 28.2859L41.1027 28.281Z" fill="white"/>
<path d="M41.138 28.5378C40.7303 28.9527 40.3375 29.3775 39.905 29.7726C39.8105 29.8566 39.6017 29.8368 39.4326 29.8319C39.8552 29.2194 40.3325 28.6959 41.138 28.5378Z" fill="white"/>
<path d="M38.8758 28.3205C39.0349 28.444 39.1144 28.5033 39.1989 28.5675C38.9603 28.7947 38.7316 29.012 38.483 29.254C38.3587 28.8193 38.8509 28.7107 38.8758 28.3156V28.3205Z" fill="white"/>
<path d="M39.7406 28.8045C39.4572 29.091 39.1738 29.3676 38.9053 29.6343C38.9898 29.2886 39.4969 28.7848 39.7406 28.8045Z" fill="white"/>
<path d="M38.4374 27.629C38.5567 27.8661 38.6313 28.0192 38.7208 28.197C38.6065 28.2711 38.4822 28.3501 38.2783 28.4736C38.338 28.1625 38.3778 27.9402 38.4374 27.629Z" fill="white"/>
<path d="M61.4581 24.4878C61.0753 24.6409 60.7024 24.7891 60.3344 24.9422C59.1014 23.7173 57.6695 22.69 57.1474 22.7542C57.2916 22.9814 57.3762 23.2185 57.5402 23.3419C58.2413 23.8852 58.9622 24.3989 59.6881 24.9175C59.7627 24.9768 59.8671 25.0113 60.0113 25.0854C59.703 25.2336 59.4494 25.367 59.1859 25.4608C59.1014 25.4954 58.9523 25.4608 58.8628 25.4114C57.8187 24.6952 56.8839 23.8556 56.0039 22.8826C56.163 22.8085 56.3022 22.7394 56.4414 22.6801C57.1872 22.369 57.928 22.0479 58.6838 21.7516C58.7782 21.7121 58.9672 21.7368 59.0219 21.801C59.3997 22.2652 59.7179 22.7789 60.1157 23.2234C60.5134 23.6679 60.9808 24.0532 61.4481 24.4977L61.4581 24.4878Z" fill="white"/>
<path d="M57.2859 26.3251C57.1964 26.3844 57.1467 26.419 57.102 26.4486C56.7738 26.6511 56.5302 26.6807 56.2021 26.3449C55.4314 25.5596 54.5713 24.8484 53.7459 24.1124C53.6763 24.0482 53.6067 23.9939 53.4824 23.8902C53.741 23.7865 53.9299 23.6976 54.1337 23.6333C54.1984 23.6185 54.3127 23.6729 54.3624 23.7371C55.2077 24.7199 56.1325 25.609 57.2859 26.3301V26.3251Z" fill="white"/>
<path d="M54.9395 23.3469C54.9842 23.3123 55.019 23.2777 55.0588 23.2679C55.1731 23.2185 55.2925 23.174 55.4267 23.1246C56.2073 24.2211 57.2216 25.0657 58.3452 25.7818C57.9673 26.1473 57.7884 26.1819 57.4503 25.8609C56.6249 25.0756 55.8245 24.2705 55.0091 23.4704C54.9842 23.4407 54.9643 23.3963 54.9395 23.3469Z" fill="white"/>
<path d="M56.1779 26.8734C55.9591 26.9919 55.7901 27.0907 55.6161 27.1648C55.5465 27.1944 55.4222 27.1944 55.3724 27.1549C54.3681 26.2609 53.3638 25.362 52.5186 24.2853C52.7373 24.1125 52.8765 24.1026 53.0704 24.3347C53.8858 25.3028 54.8404 26.1029 55.9442 26.74C56.0039 26.7697 56.0586 26.8092 56.1779 26.8783V26.8734Z" fill="white"/>
<path d="M45.2097 33.9609C44.7424 33.6349 44.2203 33.4077 43.6137 33.5164C43.4845 33.5411 43.3403 33.5263 43.2011 33.5263C41.9631 33.5065 41.0979 34.0844 40.5311 35.1611C40.2229 35.7538 40.0489 36.3761 40.0638 37.0478C40.0638 37.2454 40.0389 37.4479 40.0638 37.6356C40.2477 38.8012 40.6753 39.8038 41.8736 40.2928C42.7088 40.6286 43.5839 40.7175 44.4639 40.594C45.0804 40.5101 45.7367 40.2977 46.0798 39.7495C46.4527 39.137 46.8256 38.4703 46.9499 37.7837C47.2432 36.1637 46.5422 34.8944 45.2097 33.9609Z" fill="#95C11F"/>
<path d="M45.3144 38.8111C45.4387 38.2875 45.7371 37.8035 45.563 37.2602C45.5282 37.2454 45.4934 37.2404 45.4586 37.2306C45.4139 37.2997 45.3642 37.3689 45.3343 37.4479C45.0758 38.0603 44.8421 38.6826 44.5637 39.2852C44.504 39.4087 44.3002 39.4679 44.161 39.5569C44.146 39.5272 44.1212 39.4976 44.1013 39.4729C44.4841 38.8308 44.8769 38.1838 45.3095 37.4676H44.8322C44.4543 37.4627 44.0665 37.4923 43.6936 37.4429C42.7539 37.3244 42.2816 36.4798 42.6346 35.6007C43.0473 34.5832 44.2355 34.3857 44.9714 35.2006C45.1205 35.3636 45.2647 35.5315 45.4139 35.6896C46.2442 36.5786 46.0304 37.8973 45.5531 38.5345C45.4835 38.6333 45.394 38.7222 45.3194 38.8111H45.3144ZM45.5929 36.791C45.5879 36.2477 44.9565 35.5562 44.5189 35.5216C44.4493 35.5167 44.3549 35.5463 44.3101 35.5908C44.2902 35.6204 44.3101 35.734 44.34 35.7785C44.4245 35.8822 44.5388 35.9711 44.6184 36.0798C44.7974 36.3119 44.9565 36.5588 45.1305 36.791C45.215 36.9046 45.3045 36.9935 45.394 37.0972C45.4785 36.9737 45.5581 36.8503 45.5978 36.7959L45.5929 36.791Z" fill="white"/>
<path d="M41.4462 36.2674C41.6302 35.9563 41.7793 35.6995 41.9384 35.4377C41.9633 35.4476 41.9931 35.4525 42.018 35.4624C41.9384 36.0106 41.7942 36.5638 42.1373 37.0281C41.8887 37.3886 41.6699 37.7146 41.4462 38.0356C41.4064 38.0307 41.3766 38.0208 41.3418 38.0159C41.3716 37.7689 41.3716 37.5121 41.4462 37.275C41.5059 37.0725 41.6451 36.8898 41.7495 36.6971C41.9335 36.3761 41.9086 36.3218 41.4462 36.2625V36.2674Z" fill="white"/>
<path d="M44.7377 37.8183C43.7831 39.2901 43.6042 39.4926 43.3506 39.4432C43.6191 38.974 43.8627 38.4949 44.1709 38.0554C44.2754 37.9121 44.5488 37.8924 44.7377 37.8183Z" fill="white"/>
<path d="M42.4004 37.3886C42.4749 37.438 42.5396 37.4923 42.6241 37.5467C42.3507 37.9714 42.0871 38.3764 41.8187 38.8012C41.7341 38.5839 41.9529 38.0801 42.4004 37.3886Z" fill="white"/>
<path d="M43.8028 37.927C43.4548 38.4456 43.2261 38.9889 42.8084 39.3939C42.7786 39.3692 42.7438 39.3543 42.709 39.3247C42.9874 38.8555 43.2658 38.3863 43.5492 37.927C43.5691 37.9023 43.6785 37.927 43.8028 37.927Z" fill="white"/>
<path d="M42.167 39.1074C42.4106 38.6579 42.6542 38.2035 42.9078 37.7541C42.9227 37.7393 43.0271 37.7738 43.1514 37.8035C42.8432 38.2826 42.5647 38.7271 42.2863 39.1716C42.2465 39.1518 42.2068 39.1271 42.167 39.1074Z" fill="white"/>
<path d="M36.5189 45.5479C37.7967 45.5776 38.7115 44.9108 38.975 43.7748C39.0695 43.3846 39.0844 42.9796 39.0993 42.5796C39.1192 41.9078 38.7911 41.3547 38.3237 40.9447C37.4984 40.2236 35.9123 39.9421 34.9179 40.8855C34.7191 41.0731 34.5401 41.2855 34.3909 41.5127C33.9882 42.1153 33.9385 42.7969 33.9385 43.5032C33.9385 43.9279 34.0677 44.2885 34.3412 44.6095C34.9378 45.3158 35.7184 45.5924 36.5288 45.5479H36.5189Z" fill="#95C11F"/>
<path d="M38.0154 42.9006C37.6177 42.9204 37.2249 42.9895 36.847 42.9401C36.1112 42.8512 35.7631 42.3128 36.0316 41.572C36.0614 41.493 36.1261 41.3892 36.1957 41.3744C37.1304 41.1719 38.0353 41.73 38.0552 42.6882C38.0552 42.7574 38.0353 42.8265 38.0204 42.9006H38.0154Z" fill="white"/>
<path d="M38.0502 43.1624C37.6425 43.5772 37.2447 44.002 36.8172 44.3922C36.7177 44.486 36.5139 44.4613 36.3398 44.4564C36.7575 43.8439 37.2398 43.3204 38.0452 43.1624H38.0502Z" fill="white"/>
<path d="M35.7825 42.945C35.9416 43.0636 36.0212 43.1278 36.1106 43.192C35.872 43.4192 35.6433 43.6365 35.3897 43.8785C35.2704 43.4439 35.7626 43.3352 35.7825 42.9401V42.945Z" fill="white"/>
<path d="M36.6527 43.4291C36.3693 43.7106 36.0859 43.9921 35.8174 44.2588C35.9019 43.9131 36.409 43.4093 36.6527 43.4291Z" fill="white"/>
<path d="M35.3505 42.2486C35.4698 42.4906 35.5444 42.6388 35.6339 42.8117C35.5146 42.8858 35.3903 42.9697 35.1914 43.0932C35.2511 42.782 35.2958 42.5548 35.3505 42.2486Z" fill="white"/>
<path d="M29.2105 46.9951C30.4882 47.0247 31.4031 46.3579 31.6666 45.2219C31.7561 44.8318 31.776 44.4268 31.7859 44.0218C31.8108 43.35 31.4777 42.7969 31.0103 42.3869C30.185 41.6658 28.5989 41.3843 27.6045 42.3277C27.4057 42.5153 27.2217 42.7277 27.0725 42.9549C26.6698 43.5575 26.6151 44.2341 26.6251 44.9454C26.6251 45.3701 26.7543 45.7307 27.0278 46.0468C27.6244 46.758 28.405 47.0346 29.2105 46.9901V46.9951Z" fill="#95C11F"/>
<path d="M30.7068 44.3477C30.3091 44.3675 29.9163 44.4366 29.5384 44.3872C28.8026 44.3033 28.4545 43.76 28.723 43.0191C28.7479 42.945 28.8175 42.8364 28.8871 42.8265C29.8168 42.624 30.7267 43.1821 30.7466 44.1403C30.7466 44.2094 30.7217 44.2687 30.7118 44.3477H30.7068Z" fill="white"/>
<path d="M30.7415 44.6144C30.3388 45.0244 29.941 45.4491 29.5085 45.8443C29.409 45.9381 29.2052 45.9134 29.0361 45.9035C29.4587 45.2862 29.936 44.7676 30.7415 44.6144Z" fill="white"/>
<path d="M28.4741 44.3922C28.6332 44.5107 28.7127 44.5749 28.8022 44.6441C28.5636 44.8663 28.3349 45.0886 28.0813 45.3306C27.962 44.9009 28.4492 44.7873 28.4741 44.3922Z" fill="white"/>
<path d="M29.3441 44.8762C29.0557 45.1577 28.7773 45.4393 28.5088 45.7109C28.5933 45.3652 29.1054 44.8564 29.3441 44.8762Z" fill="white"/>
<path d="M28.0361 43.7007C28.1604 43.9378 28.235 44.086 28.3195 44.2638C28.2002 44.3379 28.0759 44.4218 27.8721 44.5453C27.9317 44.2341 27.9765 44.0119 28.0312 43.7057L28.0361 43.7007Z" fill="white"/>
</g>
<defs>
<clipPath id="clip0_282_11723">
<rect width="77" height="47" fill="white"/>
</clipPath>
</defs>
</svg>
