<svg width="72" height="50" viewBox="0 0 72 50" fill="none" xmlns="http://www.w3.org/2000/svg">
<path d="M32.1668 49.0863L1.32803 26.6819C0.725269 26.2433 0.381837 25.6349 0.381837 24.9982C0.381837 24.3616 0.721765 23.7532 1.32803 23.3146L32.1668 0.9102C33.3828 0.0259102 35.3067 0.0648201 36.4632 0.991555C37.6196 1.92183 37.5706 3.38975 36.3546 4.27404L12.3213 21.7334L67.8346 21.1038C69.7691 21.0826 71.3566 22.646 71.3776 24.6021C71.3776 24.6162 71.3776 24.6304 71.3776 24.641C71.3776 26.5758 69.8356 28.1569 67.9117 28.1781L13.0678 28.8007L36.351 45.7154C36.9783 46.1717 37.2972 46.7836 37.2972 47.3991C37.2972 47.9721 37.0204 48.5486 36.4597 48.9978C35.3032 49.9281 33.3793 49.9635 32.1633 49.0792L32.1668 49.0863Z" fill="white"/>
</svg>
