<svg width="158" height="70" viewBox="0 0 158 70" fill="none" xmlns="http://www.w3.org/2000/svg">
<g clip-path="url(#clip0_11_7515)">
<path d="M107.666 35.4713C105.184 38.5777 105.184 38.5511 101.481 42.308C101.481 42.308 97.555 38.3918 95.3095 35.4713C94.0095 33.7853 93.5892 32.6038 93.5892 30.971C93.5761 28.7408 95.4408 26.9486 97.7257 26.9486C100.247 26.9221 101.022 28.7806 101.481 30.1347C101.902 28.8071 102.703 26.9221 105.25 26.9486C107.522 26.9486 109.426 28.7408 109.387 30.971C109.334 32.6038 109.006 33.7853 107.666 35.4713Z" fill="white"/>
<path d="M11.1882 69.9336C8.82447 69.9336 7.98404 70.0398 5.62035 69.7876C4.76679 69.6416 3.38797 68.9513 2.78391 67.2919L0 60.3888C2.8627 60.9729 4.28092 61.2118 7.23554 61.2118C20.0783 61.2118 28.8634 55.1583 28.8634 46.3835C28.8634 43.1974 27.2876 40.33 24.7926 39.0688C23.046 38.2989 20.2753 37.9272 16.2045 37.9272C14.9963 37.9272 13.7094 37.9272 12.4094 38.0068H11.4902V27.2407L12.2124 27.3203C14.5367 27.5194 16.6641 27.6256 17.8328 27.6256C24.7006 27.6256 28.1149 25.1166 28.1149 20.019C28.1149 15.8771 25.633 12.8105 20.2621 12.8105C14.064 12.8105 9.34973 15.7975 6.59209 18.187L0.118185 10.0095C2.96775 7.71287 5.30519 6.34553 8.43052 4.92509C12.9741 3.00019 17.4782 1.93817 21.9299 1.93817C33.4726 1.93817 41.8768 9.06694 41.8768 18.6914C41.8768 23.882 39.6576 28.4089 35.7706 31.1037C34.5756 31.8737 34.0241 32.1657 32.3564 32.8295C39.303 35.2323 43.3607 40.7282 43.3607 47.4455C43.3607 60.7339 30.0058 69.9469 11.2013 69.9469" fill="white"/>
<path d="M70.5695 60.0967C64.831 60.0967 61.4167 55.2911 61.4167 47.1269C61.4167 45.587 61.5087 43.9408 61.6137 42.1221C61.7056 41.923 61.7056 41.7239 61.7056 41.3522C65.3956 39.1219 68.3503 38.1661 71.318 38.1661C76.4919 38.1661 79.7223 42.1221 79.7223 48.2818C79.7223 55.4902 76.1111 60.11 70.5826 60.11M72.9857 27.7849C69.02 27.7849 65.5926 28.847 63.1107 30.971C64.1219 27.5991 65.8815 24.2405 68.1007 21.3465C69.4008 19.5145 70.9503 17.8817 72.71 16.4347C76.3212 13.3548 80.9304 10.1555 87.877 8.13769L88.3104 8.00493L85.08 1.68595C84.4234 0.371708 83.8456 -0.318601 82.3092 0.225681C80.1819 0.955815 78.7374 1.5532 76.0323 2.97364C69.8473 5.96056 64.8441 9.42538 60.6945 13.4478C56.059 17.9746 52.3953 23.5502 50.3468 29.0461C48.771 33.1747 47.9437 38.1794 47.9437 42.8921C47.9437 58.7692 57.6348 70.0266 71.1342 70.0266C83.3072 70.0266 92.7226 60.5082 92.7226 48.096C92.7226 36.6262 84.1345 27.7849 72.9726 27.7849" fill="white"/>
<path d="M135.821 60.0967C130.095 60.0967 126.694 55.2911 126.694 47.1269C126.694 45.587 126.786 43.9408 126.852 42.1221C126.944 41.923 126.944 41.7239 126.944 41.3522C130.66 39.122 133.615 38.1661 136.569 38.1661C141.756 38.1661 144.973 42.1221 144.973 48.2818C144.973 55.4902 141.362 60.11 135.821 60.11M138.224 27.785C134.258 27.785 130.844 28.847 128.349 30.971C129.36 27.5991 131.106 24.2405 133.326 21.3465C134.639 19.5145 136.201 17.8817 137.961 16.4347C141.559 13.3548 146.09 10.1422 153.089 8.12442L153.548 8.00494L150.331 1.68596C149.727 0.345163 149.228 -0.345146 147.56 0.225686C145.433 0.955821 143.989 1.5532 141.27 2.97365C135.085 5.96056 130.095 9.42538 125.946 13.4478C121.323 17.9746 117.646 23.5502 115.598 29.0461C114.035 33.1747 113.208 38.1794 113.208 42.8921C113.208 58.7692 122.899 70.0266 136.412 70.0266C148.598 70.0266 158.013 60.5083 158.013 48.096C158.013 36.6262 149.399 27.785 138.237 27.785" fill="white"/>
</g>
<defs>
<clipPath id="clip0_11_7515">
<rect width="158" height="70" fill="white"/>
</clipPath>
</defs>
</svg>
