<svg width="118" height="82" viewBox="0 0 118 82" fill="none" xmlns="http://www.w3.org/2000/svg">
<g clip-path="url(#clip0_282_17330)">
<path d="M34.83 77.8094C32.6335 80.6017 29.8374 81.1495 26.4416 79.4529C27.2336 78.1597 28.0178 76.8743 28.9781 75.3082C27.7771 74.7956 26.7832 74.3628 25.7842 73.9429C17.8538 70.5968 9.91057 67.2841 2.01129 63.8684C1.16494 63.5026 0.132234 62.6217 0.00799877 61.8489C-0.0877657 61.2616 1.19858 60.5171 1.73176 59.7469C2.26494 58.9767 2.96376 58.1035 3.00258 57.2483C3.14235 54.1752 3.15787 51.084 2.94564 48.0161C2.88352 47.1068 1.94399 46.2413 1.35905 45.3886C1.02258 44.8992 0.587762 44.4742 0.19694 44.0208C0.688703 43.6576 1.13129 43.1141 1.68258 42.9647C4.20352 42.2795 6.7581 41.705 9.61551 41.0121C8.7381 39.1394 7.93057 37.4187 7.03246 35.5047L9.72163 34.173C9.96233 31.2441 10.0115 28.6914 6.4734 27.4008C4.36399 26.6332 4.6487 25.5127 6.6934 24.2685C7.33528 23.8769 7.93316 22.8852 7.97716 22.1356C8.17386 18.689 8.30586 15.2269 8.14798 11.7829C8.09881 10.6778 7.09198 9.61654 6.3181 8.1431C7.36375 7.98855 8.55175 7.69231 9.7501 7.65625C31.2402 7.03545 52.5801 4.70422 73.801 1.39671C78.3123 0.693483 82.4871 0.876375 86.7732 2.04585C94.9029 4.26631 103.064 6.37343 111.157 8.71496C112.216 9.0215 113.59 10.3584 113.722 11.3605C114.302 15.755 114.527 20.1985 114.78 24.6291C114.905 26.8187 113.994 28.22 111.504 28.1607C110.797 28.1453 110.083 28.4286 109.353 28.578C109.449 28.8691 109.459 29.1422 109.568 29.1885C114.848 31.4502 116.318 35.6619 116.481 41.0765C116.636 46.2207 118.577 51.1587 117.827 56.5347C116.714 64.5382 117.032 64.6747 108.934 66.2177C87.3168 70.3366 65.6947 74.4426 44.0338 78.3323C41.2359 78.8346 38.2025 78.0335 34.8275 77.8043L34.83 77.8094ZM38.482 71.1145C37.69 71.318 36.8955 71.519 36.1035 71.7225C36.7013 72.3922 37.1983 73.2114 37.9204 73.6931C38.7098 74.2186 39.7063 74.4349 40.6122 74.7878C40.8632 74.5792 41.1143 74.3705 41.3627 74.1645C40.8347 73.3067 40.3067 72.4463 39.7813 71.5885C40.3585 70.9986 40.9357 70.4062 41.5103 69.8163C40.519 69.1749 39.5924 68.263 38.5079 68.0002C37.8712 67.8457 36.9835 68.7266 35.7903 69.3629C37.1491 70.249 37.8143 70.6844 38.4795 71.1197L38.482 71.1145ZM32.8371 65.7463C35.7049 66.4907 38.5726 67.2352 41.4404 67.977C41.6578 67.771 41.8726 67.5649 42.09 67.3588C41.5025 66.6891 41.0392 65.6999 40.299 65.4088C38.482 64.6979 36.515 64.3733 34.6489 63.7757C30.6086 62.4774 26.5943 61.1044 22.5696 59.7624L22.7741 59.1648C29.0454 61.1379 35.3192 63.1111 42.1314 65.2543C41.8597 62.8046 41.7613 60.9602 41.3912 59.1699C41.2773 58.6212 40.5009 57.9669 39.903 57.7969C33.4402 55.9757 26.9463 54.2499 20.4705 52.4725C19.4844 52.202 18.519 51.8414 17.5769 51.4447C13.1666 49.5926 8.76657 47.7147 3.77129 45.5947C4.00681 48.9434 4.80399 51.5091 4.22164 53.7115C2.66352 59.6078 6.01269 61.4651 10.6404 63.0802C16.9635 65.2878 23.1442 67.8946 29.6846 70.4474C30.0625 68.3866 30.3628 66.7432 30.6941 64.9271C31.059 65.0714 31.9623 65.4243 32.8733 65.7875C32.2315 67.2609 31.4136 68.6854 30.9865 70.2181C30.1868 73.098 29.6173 76.0397 28.903 79.1644C31.3282 80.6326 32.7543 80.187 33.9319 76.4854C34.8533 73.59 35.2028 70.5169 35.8032 67.534C34.7886 66.9209 33.8103 66.331 32.8319 65.7411L32.8371 65.7463ZM116.582 48.7116C112.366 48.8584 108.444 49.0001 104.526 49.1263C96.9916 49.371 89.4106 49.1727 81.9333 49.9687C73.977 50.8136 66.0933 52.4596 58.2302 54.0129C52.8571 55.0742 47.5719 56.5785 42.1004 57.918C43.8267 64.4016 43.4023 70.4628 41.8286 76.7327C39.5587 75.8182 37.7444 75.0841 35.9326 74.3525L35.4667 74.9785C35.7644 75.4267 35.9922 76.1866 36.37 76.2716C38.3397 76.7095 40.4258 77.49 42.3281 77.2041C48.4286 76.2819 54.4566 74.8934 60.5312 73.7755C77.8257 70.5916 95.1306 67.467 112.417 64.2548C113.414 64.0693 114.995 63.4769 115.138 62.8277C116.165 58.0494 117.397 53.2427 116.584 48.7142L116.582 48.7116ZM19.2127 37.7123C19.6113 42.6169 19.9607 46.9265 20.2894 50.9578C26.5762 50.9578 32.6559 51.1793 38.715 50.914C53.8846 50.252 69.0413 49.3195 84.2057 48.5905C93.7537 48.132 103.307 47.8074 112.86 47.5112C114.863 47.4494 115.469 46.6122 115.327 44.7524C115.164 42.6143 115.176 40.4634 115.086 38.3202C114.91 34.1781 114.457 34.003 110.194 34.276C100.566 34.8891 90.917 35.1931 81.2862 35.7855C68.3916 36.5815 55.5074 37.5423 42.618 38.4053C40.7674 38.5289 38.9039 38.6062 37.0533 38.534C31.1237 38.3022 25.1967 37.9931 19.2127 37.7098V37.7123ZM41.5983 37.259C42.0072 37.259 42.7552 37.3568 43.4644 37.2435C52.2514 35.8396 61.0333 34.3971 69.8177 32.9829C78.1415 31.6434 86.4756 30.358 94.7838 28.9309C95.5007 28.8073 96.6085 27.7975 96.6085 27.1973C96.6137 22.8363 96.3704 18.4752 96.2332 14.1141C96.1737 12.2569 95.348 11.8679 93.5104 12.1126C83.6622 13.4264 73.7881 14.534 63.9347 15.822C57.4305 16.672 50.9392 17.638 44.4738 18.7328C43.4307 18.9105 41.7536 20.0002 41.7225 20.724C41.487 26.1103 41.5957 31.512 41.5957 37.2564L41.5983 37.259ZM107.329 9.3538L107.319 8.55783C98.164 6.26524 89.0121 3.9675 79.8497 1.70325C79.3321 1.57445 78.7342 1.70325 78.1829 1.77538C62.8632 3.78204 47.5641 5.95613 32.2185 7.73868C25.0232 8.57328 17.7374 8.65314 10.2134 9.09362C10.6275 9.4285 10.7932 9.66548 11.0106 9.72731C20.2014 12.3135 29.3844 14.9281 38.6011 17.4165C40.079 17.8158 41.7484 17.893 43.2703 17.6895C58.0335 15.7035 72.7787 13.5732 87.5419 11.5974C94.1186 10.7165 100.732 10.0931 107.326 9.3538H107.329ZM9.75269 12.7231C9.57927 13.1301 9.45245 13.2976 9.44469 13.4701C9.30751 17.0069 9.0668 20.5463 9.14445 24.0804C9.16257 24.8687 10.1435 26.0021 10.951 26.3395C13.5315 27.4214 16.2543 28.171 18.8969 29.1138C25.8075 31.5764 32.7077 34.0725 39.7969 36.6227V31.9087C33.831 30.0463 27.4769 28.0603 21.1228 26.0768C21.1797 25.881 21.2341 25.6853 21.291 25.4895C27.5597 27.3133 33.8258 29.1344 40.0945 30.9582C40.255 30.7186 40.418 30.4817 40.5785 30.2421C40.1204 29.4796 39.6623 28.7197 39.2249 27.9933C41.1169 27.2669 41.3783 24.2608 39.5691 22.4138C39.9314 22.1743 40.3042 21.9244 40.8839 21.5406C39.991 21.0099 39.3853 20.6519 38.7124 20.25C39.2922 20.0388 39.7503 19.8714 40.9874 19.4206C30.0133 16.2599 19.7743 13.313 9.53527 10.3636L9.19104 11.5408C12.3487 12.3805 15.5037 13.2203 18.6614 14.06L18.5527 14.5443C15.5995 13.9338 12.6489 13.3233 9.7501 12.7257L9.75269 12.7231ZM69.7608 34.1189L69.8824 34.9149C83.9883 34.4228 98.0942 33.9283 112.197 33.4363C112.208 33.1581 112.221 32.8799 112.231 32.6017C109.146 30.4327 106.426 27.2566 101.85 29.7115C100.703 30.3271 99.1916 30.3168 97.8327 30.4791C94.8511 30.8371 91.8539 31.0561 88.8801 31.4579C85.9372 31.8546 83.0229 32.4626 80.0801 32.8696C76.6481 33.3461 73.2006 33.7067 69.7608 34.1163V34.1189ZM66.1657 50.9733C53.7397 50.6822 41.5957 53.3637 29.1929 52.8331C32.9199 54.4585 36.6625 55.7491 40.4336 56.9417C40.9823 57.1143 41.6966 56.8747 42.31 56.7253C47.3027 55.494 52.2825 54.2164 57.2778 52.998C60.2283 52.2793 63.2022 51.6456 66.1657 50.9733ZM107.482 10.9406C107.87 16.2985 108.261 21.708 108.652 27.1123C113.398 26.8728 113.427 26.8728 113.548 22.6328C113.605 20.6776 113.678 18.7045 113.466 16.7699C113.22 14.5314 112.663 12.3264 112.267 10.2322C110.373 10.513 109.063 10.7062 107.484 10.938L107.482 10.9406ZM98.252 28.2535C101.027 28.1916 101.322 28.1839 101.329 25.8089C101.345 22.0274 100.83 18.2434 100.747 14.4567C100.682 11.4583 99.3132 11.0333 97.1391 11.9194C97.5118 17.3933 97.8742 22.7281 98.252 28.2509V28.2535ZM1.3927 61.5758C4.79622 64.3141 26.7651 73.2835 29.3922 73.0826C28.7115 71.367 3.40893 60.7773 1.3927 61.5758ZM18.2317 46.8054C18.5423 46.6895 18.8555 46.5761 19.1661 46.4602C18.1748 43.4747 17.1835 40.4866 16.3294 37.9158C16.539 38.0833 17.124 38.5547 17.7089 39.0235C17.8849 38.8457 18.0609 38.668 18.2395 38.4903C15.8713 35.8911 13.503 33.2946 10.7052 30.2241C10.0943 37.7304 15.3303 41.7153 18.2317 46.8054ZM101.754 11.4583C102.077 17.0636 102.388 22.4061 102.699 27.7924C104.704 28.2483 105.735 27.5219 105.52 25.1984C105.15 21.2108 104.857 17.2181 104.549 13.228C104.402 11.3115 103.397 10.8684 101.754 11.4609V11.4583ZM30.2929 36.8159C30.3395 36.5532 30.3861 36.2904 30.4352 36.0251C24.7075 34.3765 18.9797 32.7305 13.1484 31.0535C14.3468 32.4291 15.4287 33.8433 16.6969 35.0668C17.4578 35.801 18.4828 36.6845 19.4301 36.736C23.0407 36.9318 26.6719 36.8159 30.2929 36.8159ZM14.0673 48.1217L14.3571 47.7095C13.371 46.5323 12.3823 45.3577 11.3988 44.1779C10.8863 43.5623 10.3195 42.3671 9.88727 42.4134C7.29128 42.7019 4.72634 43.2764 2.14846 43.7529L2.20023 44.3943C6.15505 45.6359 10.1099 46.8775 14.0647 48.1191L14.0673 48.1217ZM35.4797 36.8133L35.7747 36.2183C25.9731 32.6609 16.1689 29.1035 6.36728 25.5462C6.23269 25.9274 6.0981 26.3086 5.96093 26.6873C15.8014 30.0618 25.6392 33.4363 35.4797 36.8107V36.8133ZM18.1437 51.0299C18.519 50.7878 18.8943 50.5482 19.2696 50.3061C16.1741 45.5921 13.0967 40.8653 9.94939 36.1874C9.71904 35.8473 8.97104 35.8525 8.46375 35.6979C8.2981 35.9066 8.13245 36.1127 7.96681 36.3213C11.36 41.2233 14.7506 46.1253 18.1437 51.0274V51.0299ZM106.547 11.1904C106.25 11.2368 105.952 11.2832 105.654 11.3295L106.819 27.0866L107.684 27.0196C107.306 21.7441 106.928 16.466 106.55 11.1904H106.547Z" fill="#95C11F"/>
</g>
<defs>
<clipPath id="clip0_282_17330">
<rect width="118" height="80.2096" fill="white" transform="translate(0 0.984589)"/>
</clipPath>
</defs>
</svg>
