<svg width="75" height="220" viewBox="0 0 75 220" fill="none" xmlns="http://www.w3.org/2000/svg">
<path d="M45.1133 0.00451579C52.2802 -0.142763 57.1477 2.80039 58.9394 10.0122C60.116 14.7517 60.3992 18.634 56.7107 22.2942C56.1542 22.8471 56.2103 24.4841 56.574 25.3847C58.5049 30.1579 60.7751 34.796 62.6254 39.5982C63.9509 43.0412 64.5563 46.7593 65.9159 50.1878C68.2374 56.0379 71.1593 61.6634 73.3001 67.569C74.2497 70.1911 74.1301 73.2743 74.0886 76.1426C74.0397 79.3392 73.6516 82.5504 73.178 85.7205C72.7484 88.5936 70.427 88.3546 68.9428 87.1764C64.2926 83.4896 59.2226 80.3171 57.2624 73.9503C55.4145 67.9384 52.3315 62.3008 49.8538 56.4725C49.4071 55.4198 49.2851 54.2343 48.9653 53.1237C48.8042 52.5708 48.5869 51.6147 48.3013 51.5785C45.0669 51.1777 45.2915 48.2345 44.4054 46.2885C42.3549 41.7857 40.7316 37.0945 38.7056 32.582C38.2491 31.5679 36.9187 30.3849 35.8764 30.269C28.5654 29.4602 26.3441 23.8684 24.6012 18.2839C23.0145 13.204 25.4946 8.98849 29.3832 5.69042C33.8845 1.87085 39.2108 0.110749 45.1133 0.00451579ZM37.5558 24.8487C44.7423 24.1413 51.2892 22.2097 55.251 15.744C58.4439 10.5313 56.7571 5.58902 51.277 2.86558C44.6642 -0.422833 32.8373 3.04907 28.1627 9.65245C23.8371 15.7585 26.2049 22.2967 33.4573 24.1678C34.8048 24.5155 36.2132 24.6338 37.5558 24.8511V24.8487ZM47.7545 49.8353C52.6537 47.614 57.3552 45.4821 62.1445 43.3092C59.3446 36.7879 56.8572 30.9981 54.4552 25.404C49.5902 27.2848 44.8619 29.1149 40.0603 30.9692C42.5038 36.9641 44.9961 43.075 47.7521 49.8353H47.7545ZM58.1241 15.5412C51.0621 25.1794 41.8667 28.7769 29.3978 25.165C34.939 29.5906 40.4094 29.2767 45.7895 27.181C51.4039 24.9935 56.4154 21.8645 58.1241 15.5412ZM55.9638 64.8722L56.6473 65.9393C60.2405 63.5901 63.8362 61.2409 67.4294 58.8917C67.2121 58.5537 66.9924 58.2181 66.7752 57.8801C63.1722 60.21 59.5668 62.5423 55.9638 64.8722ZM62.5961 47.5585C59.474 47.6672 52.2168 52.8291 51.6822 55.0142C55.4951 52.409 59.0444 49.9826 62.5961 47.5585ZM53.0565 58.2277C53.3396 58.5923 53.6228 58.9569 53.9035 59.3215C57.3478 56.9022 60.7897 54.483 64.234 52.0638C64.0314 51.791 63.8288 51.5181 63.6287 51.2453C60.1038 53.5728 56.5814 55.9027 53.0565 58.2301V58.2277ZM71.9795 70.5001C71.7842 70.1959 71.5889 69.8917 71.3936 69.5899C67.881 71.8812 64.3683 74.1724 60.8581 76.4661C61.0802 76.7969 61.3023 77.1301 61.5245 77.4608C65.0103 75.1406 68.4961 72.8228 71.9819 70.5025L71.9795 70.5001ZM69.0502 63.6239C68.8745 63.2907 68.6987 62.9575 68.523 62.6219L57.9288 69.4933C58.1339 69.8096 58.3365 70.1259 58.5415 70.4446C62.0444 68.1702 65.5473 65.8983 69.0502 63.6239ZM70.073 65.8162C69.8753 65.524 69.6776 65.2295 69.4799 64.9373C65.9623 67.3131 62.4448 69.6889 58.9296 72.0647C59.1445 72.3761 59.3617 72.6852 59.5765 72.9966C63.0745 70.6039 66.575 68.2089 70.073 65.8162ZM66.265 56.7767C66.0477 56.4918 65.828 56.2069 65.6108 55.922C62.1006 58.2205 58.5903 60.5166 55.0777 62.8151C55.2803 63.1072 55.4804 63.3994 55.683 63.6939C59.2104 61.3882 62.7377 59.0824 66.265 56.7767ZM59.8597 74.31C60.0891 74.6022 60.3186 74.8919 60.5505 75.1841C64.0314 72.8397 67.5099 70.4953 70.9909 68.1509C70.759 67.8322 70.5246 67.5111 70.2927 67.1924C66.8167 69.5633 63.3382 71.9367 59.8621 74.3076L59.8597 74.31ZM54.2038 60.5262C54.4137 60.8015 54.6236 61.0791 54.836 61.3544C58.2901 59.0245 61.7417 56.6922 65.1958 54.3623C64.9786 54.0581 64.7613 53.7539 64.5441 53.4496L54.2062 60.5262H54.2038ZM52.2241 56.0355C52.4657 56.3493 52.7074 56.6632 52.9515 56.9771C56.4251 54.6303 59.8987 52.2835 63.3724 49.9367C63.1697 49.6518 62.9696 49.3669 62.767 49.082C59.2519 51.3998 55.7392 53.7176 52.2241 56.0355ZM68.1714 61.3568C67.9981 61.0719 67.8224 60.787 67.6491 60.4997C64.1291 62.7306 60.6066 64.9639 57.0867 67.1948L57.692 68.1244L68.1714 61.3544V61.3568ZM71.8794 73.4215C71.6695 73.1125 71.4595 72.8059 71.2496 72.4968C68.3838 74.4428 65.518 76.3864 62.6498 78.3324L63.2552 79.2089C66.1307 77.2798 69.0038 75.3507 71.8794 73.4215ZM64.3683 80.078C64.5904 80.3702 64.8126 80.6623 65.0347 80.9545C67.2439 79.3368 69.453 77.7168 71.6646 76.0991C71.4644 75.8311 71.2667 75.5607 71.0665 75.2927C68.8354 76.8886 66.6019 78.4821 64.3707 80.078H64.3683ZM50.9254 52.4453C52.0727 51.7209 52.9955 51.1487 53.9084 50.5548C54.8092 49.9705 55.7001 49.3645 56.5936 48.7681C50.8473 50.0333 50.5251 50.2457 50.9254 52.4453Z" fill="#95C11F"/>
<path d="M37.0165 8.11226H31.883C32.7667 5.80168 34.4656 5.64716 36.2769 6.03105C37.9344 6.38114 39.0329 6.09624 40.0117 4.54137C41.1346 2.75713 42.8946 1.83241 44.8133 2.46015C43.5122 3.61907 42.1012 4.87455 40.5243 6.27973C44.7351 8.02776 48.0281 9.39431 51.697 10.9154C50.5595 12.463 49.937 13.308 49.2267 14.2762C47.1054 12.8517 45.0842 11.4659 43.0313 10.1259C40.8807 8.7231 39.1403 8.87038 38.1516 11.5166C37.2582 13.9068 36.3672 16.2971 35.4421 18.7742C33.3647 18.8274 32.4908 17.765 33.3745 15.6935C34.4144 13.2573 35.6593 10.9081 37.0141 8.10985L37.0165 8.11226Z" fill="#95C11F"/>
<path d="M11.8426 84.1102C12.8634 83.9162 13.6552 83.5754 14.3713 83.6905C14.9403 83.7828 15.8686 84.449 15.8574 84.8385C15.8008 86.8504 16.7549 86.8007 18.2221 86.3374C20.3948 85.6518 21.2735 86.3988 20.9878 88.5619C24.3093 87.7865 25.1578 88.2394 25.25 91.0991C25.9502 90.974 26.608 90.8032 27.2742 90.7497C28.5965 90.6462 29.9814 90.4188 30.079 92.4804C30.0951 92.8097 31.0588 93.4257 31.4843 93.3497C34.2625 92.8541 34.2269 92.8129 35.1431 95.2872C35.2723 95.6352 35.7636 95.8946 36.1401 96.0957C37.3492 96.7432 38.6144 97.2917 39.8014 97.9734C41.5039 98.9513 43.0731 99.8329 45.1476 98.6047C45.8504 98.1884 47.1665 98.5951 48.1244 98.8851C49.0449 99.1631 49.9016 99.7174 50.7197 100.25C53.5076 102.064 56.0523 103.362 59.3513 100.727C61.2869 99.1815 64.0258 99.244 66.3165 101.011C67.1349 101.642 68.1097 102.091 69.0518 102.537C72.82 104.316 74.4868 107.417 74.2761 111.411C73.9327 117.921 71.3735 123.317 65.5474 126.72C63.0652 128.171 60.4347 128.182 57.8495 126.814C56.81 126.265 55.8019 125.623 54.708 125.212C50.5366 123.649 49.1632 120.463 49.5727 116.334C49.7066 114.98 49.2674 114.344 48.1192 113.773C46.2481 112.843 44.5084 111.645 42.6296 110.729C40.6792 109.779 39.907 108.284 39.7594 106.202C39.7098 105.505 39.2263 104.545 38.6541 104.232C37.149 103.408 35.3998 103.026 33.9113 102.178C32.5548 101.405 31.5108 100.077 30.1489 99.3209C28.7927 98.5683 27.1848 98.2831 25.7381 97.6718C24.7922 97.2711 23.9214 96.6763 23.0444 96.1268C22.1868 95.5916 21.3589 95.0076 20.5245 94.4371C20.1267 94.164 19.7477 93.8647 19.3498 93.5916C18.2555 92.8443 17.1579 92.1004 16.0559 91.3634C15.6125 91.0661 15.1702 90.7587 14.6983 90.5137C14.0091 90.1557 13.2739 89.884 12.5914 89.5145C11.7769 89.0747 10.9943 88.5769 10.203 88.095C9.70993 87.7939 9.22568 87.4769 8.7359 87.1679C7.74375 86.5376 6.68509 85.9896 5.77277 85.2611C3.96983 83.8208 2.23116 82.2983 0.514784 80.7574C0.332969 80.5941 0.314091 79.915 0.480106 79.767C0.77756 79.4998 1.28931 79.3006 1.68267 79.3424C3.31486 79.5155 4.94248 79.762 6.55829 80.0505C6.89209 80.1101 7.42285 80.4433 7.43756 80.6801C7.55497 82.3939 8.49739 82.2416 9.75258 81.9438C11.3924 81.5548 12.0041 82.485 11.8414 84.1091L11.8426 84.1102ZM59.693 106.935C56.2865 110.484 54.3123 115.519 54.7576 119.529C55.4354 125.646 60.656 128.273 65.8701 125.085C70.224 122.422 72.1557 118.19 72.9983 113.415C73.7689 109.044 72.2157 105.368 69.3478 104.035C66.3287 102.63 62.8127 103.685 59.693 106.937L59.693 106.935ZM49.1826 112.858C50.9507 109.643 52.6055 106.63 54.3242 103.505C52.3143 102.427 50.3144 101.178 48.1672 100.277C47.1373 99.846 45.7296 99.7465 44.6678 100.072C41.9004 100.918 41.3846 103.403 41.153 105.881C40.9626 107.923 42.1498 109.088 43.9081 109.935C45.7242 110.81 47.4451 111.886 49.1826 112.858ZM65.4046 102.097C63.4769 100.228 61.5384 100.874 59.7909 101.706C54.2999 104.32 52.0718 109.282 50.9877 114.839C50.6495 116.572 50.9301 118.487 51.2324 120.269C51.4842 121.751 52.4874 122.837 54.1804 123.234C51.4186 115.907 56.9875 104.191 65.4046 102.097ZM32.9176 95.8392C32.1309 98.7927 34.2702 100.931 39.9 103.138C40.4953 102.239 41.0894 101.339 41.7719 100.306C38.717 98.7642 35.8406 97.3132 32.9176 95.837L32.9176 95.8392ZM33.5741 101.105C30.8116 97.3105 31.0559 95.3252 34.1792 94.5042C32.759 93.696 31.7907 93.8543 31.1786 94.9928C30.0093 97.165 30.9544 99.841 33.5752 101.104L33.5741 101.105ZM27.8163 97.931C27.3965 96.8446 26.6791 95.707 26.5602 94.5102C26.403 92.9312 27.5275 92.1861 29.1675 92.1955C27.7666 91.2415 26.6593 91.4672 25.9472 92.8689C24.9147 94.9027 25.9032 97.2247 27.8163 97.931ZM27.7912 93.4814C27.5611 93.6449 27.3299 93.8096 27.1009 93.9743C27.6899 95.1362 28.2778 96.297 28.8669 97.459C29.069 97.3884 29.2723 97.3189 29.4744 97.2483C29.7201 96.3679 29.9658 95.4875 30.2297 94.5447C29.2938 94.136 28.5431 93.8092 27.7935 93.4813L27.7912 93.4814ZM24.1507 89.1476C23.3648 89.2785 22.143 89.1503 21.8819 89.5908C21.3058 90.5662 20.9047 91.8608 21.0234 92.9595C21.1134 93.7945 22.1172 94.5318 22.712 95.3122L23.1284 94.9936C20.8504 92.1595 21.236 90.1936 24.1496 89.1465L24.1507 89.1476ZM20.6737 87.3689C18.2827 86.7812 17.1131 87.3779 16.7017 88.9717C16.2744 90.6323 17.1087 91.977 18.8812 92.4844C16.1989 89.3976 17.3502 87.6996 20.6737 87.3689ZM22.9035 91.084L22.354 91.4823C22.8932 92.4734 23.4301 93.4646 24.1722 94.8286C24.6649 93.6275 24.9472 92.943 25.2612 92.1778C24.3772 91.7684 23.6398 91.4256 22.9035 91.084ZM15.4023 89.1754C16.3217 87.4366 16.1666 87.2526 13.4005 86.8655C14.0111 87.57 14.6218 88.2746 15.4023 89.1754Z" fill="#95C11F"/>
<path d="M64.1578 108.723C65.4663 107.434 66.4758 108.019 67.078 109.616C67.7611 111.426 68.2937 113.291 68.9577 115.341L71.8133 112.402C72.3514 114.564 72.1707 114.865 69.1314 117.04C69.4135 119.065 70.1783 121.294 67.5916 122.695C67.6351 121.177 67.6763 119.742 67.717 118.349C64.9634 119.52 62.4418 120.592 59.632 121.787C59.458 120.367 59.358 119.547 59.2608 118.754C61.3953 118.238 63.4191 117.784 65.4225 117.252C66.811 116.883 67.366 116.012 66.7405 114.595C65.9038 112.7 65.0716 110.804 64.1578 108.723Z" fill="#95C11F"/>
<path d="M50.7389 196.49C52.3318 198.767 53.3219 203.087 53.0813 205.413C52.7306 208.79 52.7444 212.208 52.2951 215.568C52.0912 217.096 51.1469 218.525 50.5396 219.998C49.3409 219.408 48.0024 218.998 46.9711 218.195C44.2529 216.078 41.4545 213.992 39.1076 211.497C37.6179 209.912 36.6851 207.696 35.8394 205.626C32.8874 198.414 30.0523 191.154 27.2402 183.887C26.6328 182.318 27.1095 180.037 24.2607 180.228C23.9651 180.248 23.5204 179.03 23.2546 178.342C21.2973 173.275 19.3675 168.196 17.6097 163.597C12.9915 162.885 8.70336 162.243 4.4244 161.544C4.01644 161.477 3.45263 161.137 3.32429 160.789C2.18522 157.715 1.05073 154.634 0.133975 151.489C-0.0172897 150.971 0.805499 150.044 1.35097 149.47C5.45346 145.158 9.85618 141.412 15.9251 139.955C19.4546 139.106 22.6999 136.849 26.2386 136.321C30.5222 135.681 34.9776 136.188 39.3597 136.248C39.6324 136.253 39.9556 136.638 40.155 136.916C40.3681 137.214 40.4575 137.599 40.6088 137.943C44.2162 146.137 44.2621 146.179 37.4162 153.847C36.2886 155.109 36.119 155.99 36.7951 157.497C38.4475 161.179 39.951 164.932 41.3834 168.708C41.9816 170.283 43.3132 171.598 42.1146 173.812C41.5828 174.791 43.2101 176.936 43.8449 178.558C45.6624 183.187 47.4845 187.814 49.2859 192.45C49.8039 193.783 50.2599 195.141 50.7435 196.487C49.2928 195.801 48.0735 196.107 46.7373 197.015C43.8839 198.956 40.8884 200.683 37.9777 202.541C37.4804 202.858 37.1182 203.385 36.6942 203.816C36.8478 203.995 37.0036 204.172 37.1572 204.351C37.9158 203.897 38.6698 203.431 39.4376 202.988C43.2009 200.821 46.9711 198.657 50.7367 196.494L50.7389 196.49ZM34.7943 155.627C29.0416 157.974 23.6236 160.183 18.1735 162.406C20.2476 167.751 22.1636 172.853 24.2538 177.881C24.5128 178.507 25.9109 179.287 26.4151 179.085C31.5123 177.039 36.5338 174.803 41.7754 172.534C39.3001 166.54 37.0861 161.176 34.7943 155.625V155.627ZM38.1817 137.613C30.568 135.266 24.5174 137.923 18.2101 140.029C11.8089 142.166 6.05393 144.86 1.82081 150.73C15.9159 151.757 26.9972 145.472 38.1817 137.613ZM12.4735 152.035C13.7134 155.331 14.9167 158.529 16.1772 161.885C22.7687 159.165 29.1264 156.54 35.5597 153.886C34.0998 150.516 32.7682 147.445 31.4091 144.302C25.0262 146.908 18.8198 149.443 12.4735 152.033V152.035ZM1.30742 152.108C2.04083 154.276 2.75361 156.589 3.62911 158.837C3.89726 159.525 4.53441 160.452 5.13259 160.562C8.21977 161.133 11.3482 161.472 14.6898 161.924C13.663 158.866 12.7761 156.036 11.7241 153.269C11.5293 152.755 10.6904 152.184 10.1289 152.161C7.25488 152.049 4.37398 152.111 1.30513 152.111L1.30742 152.108ZM36.5659 152.875C42.825 146.05 43.2605 143.006 38.8669 138.118C36.7309 139.928 34.5926 141.737 32.3855 143.607C33.7721 146.679 35.1105 149.649 36.5659 152.875ZM43.4989 181.609C43.3247 181.331 43.1482 181.051 42.974 180.774C38.8326 183.322 34.6911 185.869 30.5474 188.417C30.7743 188.78 31.0012 189.144 31.2281 189.507C35.3168 186.873 39.4078 184.242 43.4966 181.609H43.4989ZM46.5723 189.082C43.0542 189.25 34.3886 194.911 33.9348 196.909C38.3421 194.18 42.4583 191.631 46.5723 189.082ZM50.4502 199.07C46.6823 199.456 38.4407 205.119 38.1977 206.794C42.3506 204.177 46.4004 201.623 50.4502 199.07ZM38.585 208.274C38.7913 208.606 38.9976 208.939 39.2016 209.271C43.2972 206.73 47.3951 204.186 51.4907 201.644C51.3096 201.35 51.1263 201.057 50.9452 200.763C46.8244 203.266 42.7059 205.771 38.585 208.274ZM41.7341 176.58C38.789 176.663 29.7383 182.62 29.0462 184.756C33.4787 181.9 37.6064 179.241 41.7341 176.58ZM42.6967 179.306C42.4836 178.996 42.2704 178.684 42.0573 178.374C37.9456 180.943 33.834 183.515 29.7223 186.084C29.9102 186.373 30.0959 186.665 30.2838 186.954C34.423 184.403 38.5598 181.854 42.699 179.303L42.6967 179.306ZM47.6082 191.675C47.4363 191.386 47.2644 191.097 47.0925 190.807C42.9076 193.303 38.7203 195.801 34.5353 198.297C34.7186 198.602 34.8997 198.91 35.083 199.215L47.6082 191.672V191.675ZM31.6979 190.95C31.8652 191.22 32.0348 191.493 32.2021 191.764C36.2932 189.206 40.3842 186.651 44.4729 184.093C44.2781 183.781 44.0856 183.467 43.8908 183.155C39.8272 185.754 35.7614 188.351 31.6979 190.95ZM48.3898 194.184C48.2041 193.861 48.0162 193.54 47.8305 193.216C43.7556 195.691 39.6783 198.164 35.6033 200.639C35.7844 200.933 35.9654 201.227 36.1488 201.518C40.2283 199.073 44.3102 196.63 48.3898 194.184ZM45.5684 186.727C45.3874 186.44 45.2063 186.153 45.0253 185.869L32.7774 193.388C32.947 193.659 33.1189 193.93 33.2885 194.203L45.5684 186.727ZM39.7997 210.678C42.7609 210.623 50.3975 205.737 51.03 203.681C47.3194 205.993 43.8128 208.177 39.7997 210.678ZM27.6436 181.423C27.9255 181.583 28.2074 181.746 28.4893 181.907C31.4137 180.145 34.3405 178.386 37.2649 176.624C34.3038 177.452 31.4573 178.498 28.6864 179.709C28.1844 179.93 27.9828 180.836 27.6436 181.423ZM42.3896 212.272C42.5706 212.538 42.7494 212.804 42.9305 213.07C45.6441 211.226 48.3554 209.379 51.069 207.535C50.8971 207.283 50.7275 207.03 50.5556 206.778C47.8328 208.609 45.1101 210.441 42.3896 212.272Z" fill="#95C11F"/>
</svg>
