<svg width="127" height="104" viewBox="0 0 127 104" fill="none" xmlns="http://www.w3.org/2000/svg">
<g clip-path="url(#clip0_282_17506)">
<path d="M127 37.2684C125.637 35.7386 124.238 34.2373 122.918 32.672C121.749 31.2913 120.666 29.8396 119.239 28.033C123.187 29.8431 124.086 34.0278 127 36.2072V37.272V37.2684Z" fill="#95C11F"/>
<path d="M76.7256 0C78.7579 1.30617 80.7901 2.60878 82.8223 3.91495L82.5532 4.33023C80.3865 3.05246 77.7311 2.5307 76.3716 0H76.7256Z" fill="#95C11F"/>
<path d="M91.2695 75.928C89.124 74.8916 86.982 73.8552 85.1587 72.9714C84.4966 74.4195 84.1107 76.0664 83.13 77.188C82.1528 78.3061 80.5808 78.8988 79.2709 79.7187L79.0089 79.3248C79.501 78.8811 79.9931 78.4339 80.6729 77.8198C80.0073 77.724 79.5081 77.653 78.6938 77.5359C79.7382 76.8934 80.5525 76.4604 81.2889 75.9209C84.3833 73.6458 83.9053 70.8169 81.0553 68.3714C78.8637 66.4902 77.005 64.6517 73.9566 64.6836C73.5884 64.6872 73.2202 64.3926 72.852 64.2364L73.2769 63.7998C74.3461 64.1086 75.4153 64.4139 76.4845 64.7227C76.5837 64.4884 76.6793 64.2506 76.7784 64.0163C73.6734 62.5398 70.5684 61.0633 67.4634 59.5867C70.4976 65.1202 69.9028 70.3981 67.3997 75.5482C64.7125 81.0746 60.294 84.4962 54.1867 85.7314C43.6255 87.8681 33.3015 79.7507 33.1634 68.9464C33.1351 66.6322 33.7547 64.3038 34.1654 61.9967C34.399 60.6799 34.8062 59.3951 35.2558 57.6168C34.091 58.2167 33.3581 58.5929 32.6076 58.9762C32.4235 58.2948 32.2535 57.663 32.08 57.0347L31.5879 57.0631C31.5313 57.8795 31.4711 58.6958 31.4144 59.5122L31.8074 59.9559C24.776 63.7501 17.8155 67.6793 10.685 71.2712C7.57293 72.8401 4.31217 74.0149 1.98608 76.8082C1.52228 77.3655 0.711513 77.6388 -0.0107422 77.905C1.10096 75.3246 3.20046 73.6635 9.07055 70.5081C8.6811 70.2242 8.33413 69.9757 7.88095 69.6456C9.86715 69.1736 11.7224 68.7334 13.8962 68.2188C12.7491 67.303 11.91 66.6322 10.6956 65.6632C12.4517 65.6632 13.7758 65.6845 15.1 65.6561C16.3639 65.6313 17.8651 66.2134 18.3891 64.499C19.3237 64.6588 20.1593 64.8007 20.9948 64.9427L21.0125 64.6304C19.168 63.5727 17.2313 62.6463 15.5036 61.4217C13.1244 59.7358 11.4533 57.4713 11.0638 54.4579C10.7027 51.6929 12.6464 49.5988 15.5531 49.8721C14.3742 50.8127 13.2589 51.5758 12.3172 52.5164C11.8958 52.9388 11.4604 53.8793 11.6515 54.3053C13.3156 57.9789 15.4115 61.3756 19.6495 62.4369C21.0479 62.7882 22.6057 62.4937 24.0927 62.4937L24.1919 61.8867C22.8996 61.5602 21.6109 61.2372 20.0743 60.8503L21.6144 60.1085C18.4103 58.1812 16.6719 55.4624 16.9976 51.6113C18.0917 56.0338 20.6904 59.0188 25.169 60.0978C25.9975 60.2966 26.9357 60.0339 27.8244 59.9842C27.7111 58.9727 27.8138 57.8688 27.4279 56.9744C26.8472 55.6256 25.9302 54.4188 25.0203 53.4144C26.3268 54.7205 27.6332 56.0303 28.9396 57.3364L29.3043 56.8111C29.0104 57.8546 28.7166 58.8981 28.4227 59.9417C28.6989 59.9913 28.975 60.0446 29.2512 60.0943C30.5399 56.7188 30.9117 53.2298 29.8814 49.5775L30.4195 49.3787C30.7382 49.9466 31.1701 50.4826 31.3472 51.0931C31.5737 51.8739 31.4994 52.7471 31.7366 53.5244C32.0269 54.4721 31.8393 55.9486 33.6485 55.6292C33.868 55.5901 34.2078 56.2397 34.7106 56.8182C34.8628 55.6789 34.9761 54.8306 35.0894 53.9823L35.5532 53.9113L36.1409 57.7481C37.1146 57.1873 37.3943 56.2929 36.9977 54.2804C36.3675 51.0966 35.6524 47.9306 35.0788 44.7362C34.8982 43.7281 35.0505 42.6598 35.0505 41.6198L35.5815 41.6021C36.2188 45.0201 36.8526 48.4382 37.4899 51.8526L37.9997 51.8172C39.1468 48.1471 39.6814 44.3812 39.4265 40.5195C39.4053 40.2178 38.6051 39.6712 38.2581 39.7387C34.0875 40.5231 30.1222 41.9144 26.3693 43.8985C27.3004 46.5179 28.1784 48.9954 29.06 51.4693L28.667 51.6361L25.3142 44.4061C22.3013 46.1169 19.3768 47.778 16.4984 49.4107C16.3002 48.3281 16.679 47.7673 18.2439 46.8693C20.4284 45.6129 22.5987 44.3315 24.9177 42.9757C23.6502 42.1806 22.6659 41.563 21.5507 40.8638C21.9401 40.626 22.0853 40.5124 22.103 40.5302C24.3193 42.6456 26.525 42.5107 29.191 41.1052C31.2799 40.0049 33.7547 39.6109 36.0843 39.0146C37.9643 38.5354 39.7735 38.0563 40.6834 35.9089C40.8108 36.5123 40.9383 37.1192 41.1259 38.0137H56.9801L56.9943 38.8016H40.8675C40.3683 42.7982 40.9135 46.3689 42.0146 49.865C42.2553 50.6281 42.7085 51.3983 43.2679 51.9591C43.7813 52.4667 44.5743 52.6938 45.2399 53.0452L45.509 52.6726C44.7018 50.9334 43.891 49.1942 43.0838 47.4585L43.2962 47.3059C43.9831 48.1187 44.6735 48.9315 45.5126 49.9253V41.9854L42.2589 41.5062C46.9429 40.1078 51.6234 39.1246 56.3605 40.1965L56.3959 41.3252H46.4402V54.5182C45.3355 54.6496 44.3548 54.7667 43.1475 54.9122C42.3226 52.9494 41.4446 50.8659 40.5311 48.6937C39.5681 52.0834 42.3686 56.2645 45.4559 56.2184C46.6455 56.2006 47.2828 55.8634 47.3996 54.3798C47.6687 50.9192 48.2564 47.4798 48.7344 44.0369C48.7804 43.7139 48.9716 43.4087 49.315 43.1354C49.184 45.6803 49.0212 48.2252 48.9362 50.7736C48.9008 51.881 48.8795 53.0239 49.1061 54.0994C49.446 55.7215 50.4586 56.1545 51.9314 55.6718C51.4605 54.8803 50.6356 54.0781 50.579 53.2298C50.5223 52.3567 50.9897 51.1925 51.6305 50.5784C54.8027 47.5402 56.2118 43.6749 57.32 39.5754C58.0316 36.9382 59.0442 34.3827 59.9187 31.7916L60.5985 31.9868C60.0108 34.6986 59.423 37.4138 58.8601 40.0191C59.5363 40.4272 60.2409 40.8567 60.9454 41.2826L60.687 41.6873C58.6371 41.3714 57.7272 41.8718 57.0332 43.9411C56.5482 45.3893 56.3641 46.9474 55.8259 48.3707C55.1462 50.1667 54.2221 51.8668 53.4361 53.6238C53.1812 54.1917 53.036 54.8057 52.8378 55.3985C53.0891 55.5227 53.3405 55.6434 53.5954 55.7676C53.7795 55.3807 53.9636 54.9974 54.1477 54.6105C54.254 54.3904 54.3071 54.1207 54.4664 53.9503C58.9557 49.1161 61.2464 43.2916 62.2554 36.8601C62.4501 35.6214 62.1067 34.0881 64.1283 33.041C63.5477 35.6036 63.0591 37.7617 62.5705 39.9161L62.875 40.0333C63.4521 38.7803 64.0292 37.531 64.7585 35.9408C65.4914 38.2763 63.8769 39.838 63.7318 41.5062C64.9355 41.7689 66.1676 42.0386 67.3997 42.3084L67.2829 42.9366C65.9127 43.7672 64.7656 42.5285 63.5194 42.3581C61.7774 46.0317 59.9647 49.723 58.2901 53.4783C57.9467 54.2485 58.1201 55.2494 58.0564 56.1438L58.6477 56.2929C59.3133 55.835 59.9789 55.3772 60.7613 54.8377C60.255 54.3904 59.8125 53.9965 59.2177 53.4676C65.6684 51.5048 66.8615 45.7264 68.9044 40.6118C69.5983 38.8726 70.0374 37.034 70.5897 35.2381L71.0712 35.3268C70.7348 37.247 70.5224 39.2027 70.0232 41.0803C69.4992 43.0538 68.6955 44.9527 67.9626 47.0397C69.2726 45.2366 70.5012 43.5507 71.7262 41.8612C70.5436 45.1585 69.6373 48.5943 66.6314 50.8837C65.803 51.5155 65.0559 52.3389 64.5036 53.2192C64.1142 53.8403 64.1142 54.7063 63.9407 55.4659L64.5071 55.6505C65.541 54.0887 66.5712 52.5235 67.605 50.9618L67.7821 51.0576C67.5165 52.0905 67.2475 53.1198 66.9819 54.1526L67.7467 54.3869C69.5169 50.0354 71.2871 45.6838 73.1954 40.988C72.4767 41.4246 72.0731 41.666 71.673 41.9109C73.2415 39.4405 74.8099 36.9702 76.3783 34.4998L76.8209 34.7092L74.1089 41.9677C75.5357 42.9437 76.8067 42.7521 78.0955 41.2826C78.7929 40.4876 79.3346 39.5541 80.0073 38.7342C80.3968 38.2621 80.9137 37.8965 81.3739 37.4813L81.7421 37.8078C80.4534 39.5718 79.1611 41.3359 77.8724 43.1035C81.3137 46.1169 86.6209 46.5641 89.3364 51.5119C88.1256 51.2209 87.3856 51.0434 86.5288 50.8375C86.1146 51.9875 85.6862 53.1766 85.1056 54.7844C84.925 53.8474 84.8365 53.3682 84.8011 53.1872C83.0167 54.9051 81.1402 56.7082 79.193 58.5822C79.8763 58.4829 80.772 58.5964 81.3739 58.2273C83.6752 56.8182 86.281 55.8173 87.8778 53.4144C89.609 50.8056 91.967 48.9599 94.8843 47.8632C91.9174 51.0398 88.9718 54.1917 86.0261 57.3471L86.3376 58.0569C87.6016 57.9363 88.9186 58.0037 90.1189 57.6594C92.9796 56.8395 95.0932 55.0684 96.2403 52.2253C96.6439 51.228 97.2069 50.298 97.699 49.3361L98.3752 49.6804C97.2777 51.8775 96.1801 54.0781 95.0897 56.2539C96.2757 56.4562 97.6813 56.6975 99.0869 56.9389L99.0939 57.5174C92.9583 56.6798 89.74 61.5353 85.4844 64.6481C86.3376 64.5239 87.2015 64.4458 88.0442 64.2648C94.0523 62.987 98.8992 59.8707 102.627 54.9761C103.01 54.4721 103.619 54.142 104.121 53.7303C104.334 53.9432 104.546 54.1597 104.759 54.3727C101.912 57.7872 99.0692 61.1981 96.3395 64.4742C97.7344 64.6339 97.9114 64.5487 100.5 62.1494C100.195 63.097 99.9897 63.7466 99.7277 64.5594C104.553 63.4236 108.635 61.0562 112.303 57.8617L112.654 58.1812C112.056 58.8981 111.595 59.8742 110.834 60.293C108.062 61.8157 105.272 63.3561 102.337 64.5061C99.0798 65.7804 96.0314 67.2817 93.1212 69.2658C91.0748 70.6607 88.515 71.2961 86.1748 72.2757C86.8369 73.0743 87.8353 72.6945 88.9293 72.3822C90.4198 71.9598 91.9634 71.47 93.4894 71.4558C100.107 71.399 105.977 69.3581 111.114 65.1912C111.379 64.9747 111.663 64.7794 112.017 64.5132C111.086 67.2498 107.818 69.1239 99.3064 72.3183C101.031 72.0556 102.758 71.7894 104.483 71.5268L104.656 71.8391L97.915 74.8348L97.6565 74.3414C98.0743 74.0681 98.4956 73.7984 98.9134 73.5251L98.8142 73.1098C96.2545 73.8055 93.6983 74.5012 91.0394 75.2217C91.0252 75.1649 91.1208 75.5518 91.2164 75.9422L91.2554 75.9103L91.2695 75.928ZM57.9325 74.9768C57.32 75.3104 56.7889 75.7541 56.1906 75.8854C55.5214 76.0309 54.654 76.1481 54.1123 75.8428C50.4232 73.7629 46.6172 73.2127 42.5386 74.4834C41.8694 74.6928 40.9666 74.6857 40.347 74.3982C38.2121 73.4115 37.2774 69.8089 38.5378 67.8567L38.1342 67.5728L36.7499 69.5391C36.148 68.1549 35.6205 66.9375 35.0859 65.7094C33.8503 69.5427 36.2649 76.9183 39.3946 78.7356C39.8336 77.8695 40.2727 76.9999 40.9666 75.6299C41.1542 76.9964 41.3879 77.8411 41.3525 78.6752C41.31 79.6406 41.0551 80.7019 42.3722 80.8332C43.0165 80.8971 43.7175 80.4215 44.6664 80.0985C44.8859 80.2511 45.4417 80.6416 46.0755 81.0852C45.1727 81.323 44.4575 81.5112 43.6042 81.7348C43.8627 82.2104 44.022 82.757 44.1884 82.7605C47.5483 82.8102 50.9082 82.7996 54.3389 82.7996C54.4274 82.3311 54.5514 81.6957 54.6717 81.0604L55.1249 81.0462C55.3196 81.9477 55.5179 82.8528 55.7126 83.7544L56.0844 83.8573C56.3853 83.0054 56.6863 82.1536 57.1005 80.9823C57.5041 81.7099 57.7661 82.182 57.9785 82.5618H60.2267L59.8089 80.6416C61.2181 79.8997 62.6307 79.1828 64.0186 78.4197C66.2738 77.1809 67.2191 74.9129 67.2545 72.6697C67.2687 71.58 67.5024 70.8276 67.9131 70.1532C66.4544 69.1203 65.0878 68.1513 63.5406 67.0546L63.353 69.202C62.089 70.178 60.8817 71.0228 59.7842 71.9918C58.8778 72.7939 58.4282 73.7203 59.3841 74.92C59.6779 75.2891 59.4868 76.0522 59.5151 76.6343L58.8849 76.7444L57.9396 74.9626L57.9325 74.9768ZM79.2638 48.5659C78.6902 49.7088 78.1981 50.9298 77.5006 52.0124C76.7713 53.1411 75.8402 54.1349 74.9975 55.1855L75.2879 55.6824C78.8531 53.8119 82.4219 51.9449 86.3483 49.8863C83.0379 47.7744 80.1879 45.9536 77.2847 44.1008C76.8988 44.7823 76.5412 45.4141 76.3535 45.7477C78.6124 47.2136 80.765 48.6156 82.9211 50.0141L82.4396 50.7488C81.4943 50.0993 80.5525 49.4497 79.2673 48.5659H79.2638ZM78.5699 48.5127C76.9165 46.7629 75.2489 46.3973 74.5585 47.7673C72.9582 50.9263 70.9968 53.7622 67.9379 56.2255C69.4921 56.1438 70.6498 56.261 71.7049 55.9806C72.721 55.7108 73.9035 55.2565 74.5231 54.4827C76.0278 52.6087 77.2493 50.5074 78.5734 48.5127H78.5699ZM51.942 61.3295L51.8217 61.1981C50.9047 60.6196 50.0479 59.7145 49.0601 59.5406C47.8103 59.3205 46.7553 60.9603 46.9323 62.4049C47.1376 64.0838 48.876 65.2941 50.5294 64.9108C52.0447 64.5594 53.1245 63.0828 52.7139 61.8264C52.6395 61.5992 52.2076 61.4927 51.942 61.3295ZM84.5816 61.9329C86.8156 60.9568 88.7275 60.1227 90.6393 59.2886C86.3058 58.2947 83.2999 60.2646 80.7048 63.097C82.9423 63.7182 84.6418 63.3632 86.0615 61.9329H84.5816ZM82.7689 53.5244C79.2178 54.9441 75.7729 56.3213 71.9775 57.8369C75.9181 58.7455 80.4746 56.804 82.7689 53.5244ZM97.4582 61.4111C95.0684 62.8024 92.76 64.3819 90.2534 65.5177C88.6354 66.2524 86.6067 66.1743 86.1642 68.6553C86.7271 68.5347 87.283 68.5347 87.7078 68.304C89.1028 67.5409 90.4021 66.5967 91.8254 65.901C94.0382 64.8185 96.1801 63.6898 97.4547 61.4111H97.4582ZM72.5086 44.2677C71.3579 47.455 70.3454 50.2554 69.3328 53.0523C71.496 50.3761 73.5283 47.6112 75.4507 44.7717C75.603 44.5481 75.0117 43.8133 74.7639 43.3164L74.378 43.5542C74.1762 44.4735 73.9708 45.3893 73.6805 46.7025C73.2238 45.7584 72.9795 45.2473 72.5086 44.2677ZM44.9036 66.3128C44.9886 65.358 44.6628 64.6126 43.1935 64.5558C41.4339 64.4848 41.5295 65.7484 41.4693 66.7742C41.4021 67.9206 41.9615 68.9925 43.2148 68.9854C44.6274 68.9783 44.9001 67.7929 44.9036 66.3128ZM88.8903 68.9535C89.0036 69.1984 89.1205 69.4433 89.2337 69.6882C92.2007 69.4185 94.5197 67.8461 96.7325 66.0572L96.3784 65.3296C93.8824 66.5364 91.3864 67.7432 88.8903 68.9535ZM59.816 56.7224L59.7983 57.2867C62.4643 56.985 64.5567 59.9133 67.5059 58.3799C66.9324 57.1838 65.9163 57.166 64.8364 57.2761C63.7247 57.3897 62.7157 57.3151 62.7228 55.686C61.6429 56.0728 60.7295 56.3994 59.8196 56.7259L59.816 56.7224ZM50.4798 70.3732C50.3488 71.7717 50.9719 72.549 52.3102 72.7158C53.6698 72.8862 54.6965 71.9279 55.047 70.0254C54.038 69.9686 53.0537 69.9154 52.0305 69.8586C52.1403 70.5898 52.2147 71.0902 52.3563 72.0556C51.549 71.3316 51.0605 70.895 50.4798 70.3732ZM79.9471 60.4244C79.9684 60.0765 79.9896 59.7251 80.0108 59.3773C78.361 59.3028 76.7111 59.2282 75.0613 59.1572L75.0117 60.0162L79.9471 60.4244ZM39.5469 51.4338L38.86 51.3628C38.7396 52.2537 38.4068 53.1908 38.5768 54.0178C38.6972 54.5892 39.5185 55.0151 40.0284 55.5085L40.3187 55.1713C40.0602 53.9255 39.8053 52.6797 39.5469 51.4338ZM54.7107 48.825C53.3087 50.55 52.1545 51.9733 50.9967 53.3931C52.7599 53.1517 54.3885 51.0469 54.7107 48.825ZM77.8972 61.9612C80.3649 62.1849 81.8873 61.3224 82.7158 59.3276C81.119 60.2008 79.6108 61.0242 77.8972 61.9612ZM95.2242 73.4434V72.9394H90.8092V73.4434H95.2242ZM57.4581 56.8395C57.5112 56.5023 57.5608 56.1651 57.6139 55.8279L54.6399 55.544C54.6045 55.8315 54.5691 56.1154 54.5372 56.4029C55.5108 56.5485 56.4844 56.694 57.4581 56.8395Z" fill="#95C11F"/>
<path d="M115.196 22.755C114.028 21.9102 112.856 21.069 111.687 20.2243C111.574 20.3485 111.464 20.4692 111.351 20.5934C113.011 22.4497 114.672 24.306 116.336 26.1624C116.23 26.2866 116.124 26.4108 116.017 26.5315C115.692 26.3931 115.341 26.2972 115.047 26.1091C104.737 19.4576 93.4221 16.5968 81.2464 17.5055C76.095 17.8888 70.9932 18.9642 65.8596 19.6386C62.6483 20.061 59.4265 20.3875 56.1976 20.6395C53.4785 20.849 50.8267 21.1897 48.3342 22.4071C47.3606 22.8827 46.2666 23.1206 45.116 23.1702C46.0825 22.6449 47.0526 22.1196 48.0191 21.5943L47.9483 21.2145C44.1742 21.8925 40.3965 22.5739 36.6224 23.2519L36.4524 22.7869C37.4402 22.4071 38.3962 21.8605 39.4158 21.6724C43.5829 20.9093 47.7713 20.2562 51.9526 19.557C52.2111 19.5144 52.4589 19.4115 52.8342 19.3014C50.9082 18.336 22.9881 22.5917 19.437 24.2883L19.1785 23.8411C21.2957 22.6698 23.4094 21.502 25.5443 20.3201C21.2001 18.95 19.1856 23.4826 15.7478 24.4161C15.703 23.5997 16.8371 22.3835 19.1502 20.7673C20.6407 19.7238 22.1242 18.6732 23.466 17.3386C21.0196 18.3928 18.5696 19.4434 16.1231 20.4976L16.0098 20.3556C17.0153 19.4647 18.0173 18.5774 19.0227 17.6865L18.7076 17.2109C15.0468 19.5392 11.3895 21.8676 7.52686 24.3238C8.08979 23.6246 8.52881 22.9857 9.0528 22.4355C11.8781 19.4683 15.415 17.5267 19.129 16.0325C20.6726 15.4113 22.6092 15.8372 24.3441 15.6136C25.7178 15.4362 27.0561 14.989 28.3448 14.3146H15.5637L15.4575 14.0058C16.7073 13.7112 17.95 13.2285 19.2139 13.1539C25.9125 12.7564 32.6146 12.4618 39.3167 12.1246C40.347 12.0714 41.1861 12.2133 42.2092 12.7635C43.9936 13.7254 45.7108 12.4724 47.4137 11.6916C45.0416 11.3579 42.8253 10.9178 40.5913 10.783C39.4087 10.712 38.1979 11.1805 36.8136 11.4396C35.7514 8.83435 32.2889 10.5593 30.4761 8.62139C33.7369 8.72787 36.8631 9.15024 39.915 8.84145C43.4519 8.48296 46.9216 7.48914 50.4196 6.75797C52.0801 6.41368 53.7476 6.10489 55.3798 5.65057C56.0312 5.46955 56.5587 4.68514 57.1889 4.6248C61.2357 4.22372 65.2931 3.92202 69.3504 3.65582C69.7788 3.62743 70.232 4.01076 71.0003 4.3444C73.1635 3.57064 74.2257 3.69132 76.1835 5.18205L72.0872 4.86616C74.8382 6.17587 77.3307 7.4004 79.8621 8.53975C80.4286 8.79531 81.1189 8.79176 81.7562 8.85919C83.1689 9.01182 84.9356 8.36583 85.4171 10.5842C85.4489 10.7297 86.1145 10.7333 86.6492 10.8362C86.4898 10.137 86.3801 9.6436 86.1287 8.53265C87.6759 9.60456 88.8938 10.3109 89.9382 11.2124C91.0429 12.1672 92.1404 12.366 93.9885 11.6667C92.8166 10.9001 92.0413 10.2292 91.142 9.83172C86.8899 7.95411 82.6024 6.15458 78.3291 4.3231C78.021 4.19178 77.7236 4.0356 77.4227 3.89008L77.6033 3.35413C78.5415 3.68067 79.5895 3.84749 80.4002 4.37279C81.6713 5.20335 82.8856 5.86353 84.4824 5.70026C85.0701 5.63992 85.7711 5.90612 86.3057 6.21847C91.2376 9.08635 96.1411 12.0004 100.977 15.1487C99.7064 14.8186 98.4354 14.492 97.1679 14.1619C99.278 16.1957 101.781 16.3768 104.872 15.7911C101.898 14.0058 99.193 12.4512 96.5589 10.7794C93.8752 9.07571 91.535 6.99223 89.8214 4.19533C93.5354 6.93189 97.1679 9.61166 100.804 12.2914L101.176 11.8087C99.4975 10.318 97.8158 8.8308 96.1376 7.34007L96.4775 6.93899C102.645 12.295 110.13 16.036 115.522 22.3432L115.196 22.755ZM47.1553 9.41999C49.361 10.6055 51.3366 10.5309 53.344 9.78203C56.6154 8.5575 59.8974 8.61429 63.2113 9.60456C63.8698 9.80333 64.7478 10.1476 65.24 9.88496C67.474 8.68528 69.7434 8.8521 72.0766 9.31351C72.2359 9.34546 72.4271 9.22123 73.0821 9.02601C69.7824 8.15287 66.9854 7.41105 64.1884 6.67278L64.3088 6.15458C69.5487 6.35334 74.4133 8.29839 79.4302 9.74299C76.2296 7.95056 73.0254 5.88837 69.5522 5.21045C66.341 4.58221 62.8395 5.43406 59.3876 5.63637C59.6425 6.09779 59.7735 6.33559 59.7062 6.21137C57.6386 6.91414 55.6984 7.70565 53.6839 8.22031C51.6375 8.74561 49.5203 8.99762 47.1553 9.41999ZM111.291 21.8321L111.68 21.4559C111.025 20.9554 110.416 20.3733 109.705 19.9652C107.931 18.95 106.033 17.1008 104.334 17.2534C101.416 17.5161 99.1328 16.4087 96.6581 15.5107C96.2828 15.3723 95.6561 15.0919 95.6561 14.8789C95.6596 13.3207 94.47 13.7715 93.6628 13.5976C88.1114 12.405 83.0591 15.3261 77.6635 15.4078L77.7095 16.0289L89.1275 14.6482L89.2089 15.2303L84.578 15.8976L84.5992 16.2454C88.0901 16.5294 91.5775 16.8169 95.0684 17.1008L95.3198 16.8808C93.8823 16.0822 92.4484 15.28 91.011 14.4814L91.1562 14.0697C92.0342 14.4388 92.937 14.7618 93.7867 15.1877C95.6738 16.1354 97.4546 17.3599 99.4196 18.0663C103.325 19.4683 107.329 20.5934 111.294 21.8357L111.291 21.8321ZM80.294 13.7751L80.4392 13.3633C79.5611 13.0474 78.7044 12.5967 77.798 12.4476C75.7233 12.1069 73.5565 12.2098 71.7615 10.7901C71.4322 10.5309 70.8587 10.499 70.3984 10.4955C66.4897 10.46 62.5846 10.4529 58.7786 10.4387C58.3219 10.7155 57.8333 11.2337 57.2845 11.3083C54.8381 11.6419 52.3633 11.7981 49.9168 12.1353C49.0494 12.2559 48.2316 12.7174 47.3925 13.0262L47.5483 13.6153H54.4097L54.4522 13.3456L52.9546 12.9339L52.99 12.4405C56.3994 12.6251 59.8089 12.8096 63.2184 12.9978L63.2077 12.6322L59.8266 11.4822C63.4272 11.4076 66.9252 11.5532 70.4161 11.7945C71.0534 11.8371 71.6624 12.2772 72.4484 12.6002C74.9161 12.9694 77.6068 13.374 80.294 13.7786V13.7751ZM76.3075 17.296L76.2791 16.4158C74.4558 16.5613 72.6325 16.7068 70.8091 16.8488C68.9362 16.9943 66.6385 17.8781 65.3037 17.1008C63.6432 16.1318 62.3722 16.6891 60.9241 16.6997C60.2833 16.7033 59.4973 17.0476 59.0229 16.7885C56.8207 15.5959 54.877 16.5897 52.5616 17.3422C53.652 17.5019 54.7071 17.9988 55.1992 17.6652C56.5375 16.7601 57.628 17.2712 58.8707 17.6758C59.5115 17.8817 60.2515 17.8142 60.9454 17.8071C61.8234 17.8 62.8856 17.3919 63.5476 17.7504C65.5657 18.8436 67.5696 18.2792 69.5841 18.0911C71.8323 17.8781 74.0699 17.5622 76.311 17.2925L76.3075 17.296ZM70.5188 13.7289L70.402 13.1291C66.0472 13.6579 61.6924 14.1868 57.3377 14.7156C61.9084 15.9863 66.1711 14.4565 70.5188 13.7289ZM54.3707 15.6456L54.3884 14.9996C52.1686 14.9996 49.9452 15.0102 47.7253 14.9889C47.2686 14.9854 46.7446 14.9712 46.3764 14.7511C45.0841 13.988 44.985 13.9632 43.6856 15.0812C47.2686 16.3732 50.7984 16.6323 54.3707 15.6491V15.6456ZM37.4048 17.8249L37.1959 17.2251C33.8148 18.4105 30.4337 19.5925 27.0561 20.778L27.2826 21.4382C30.6567 20.2349 34.0308 19.0281 37.4084 17.8249H37.4048ZM27.6686 16.8453L27.8881 17.4771L34.6716 15.2126C32.0304 14.7653 29.7468 15.4752 27.6686 16.8417V16.8453ZM24.3228 18.9784C26.178 20.1462 27.3818 19.9865 29.1201 18.3467C27.4526 18.2544 25.6753 16.7885 24.3228 18.9784ZM44.6734 18.5845C42.673 17.1825 40.7612 17.4345 38.5873 19.344C40.4886 19.1062 42.3863 18.872 44.6734 18.5845ZM77.7201 10.9782C79.901 12.941 81.6075 11.4289 83.4096 11.0421L83.3247 10.2967L77.7201 10.9782ZM40.4815 13.1752C38.9237 13.4308 37.1535 12.4831 35.5107 13.988C37.5181 14.5879 39.1361 14.7547 40.4815 13.1752Z" fill="#95C11F"/>
<path d="M66.7804 93.2241L67.5381 94.903C65.9803 93.5578 64.6278 92.39 63.2789 91.2258C64.1782 94.5622 65.0173 97.7709 65.1801 101.093C64.9146 101.139 64.6491 101.185 64.3835 101.232C64.1251 99.3716 64.1853 97.384 63.5161 95.6909C62.8541 94.0192 61.4485 92.6456 60.3687 91.1371C60.6377 91.2081 61.052 91.3181 61.6149 91.4707C61.5228 90.9987 61.4414 90.5941 61.321 89.9836C64.4898 90.3882 66.7096 92.5001 69.4712 94.1505C68.664 91.4175 66.8477 90.3101 64.3765 89.8948C66.614 88.326 68.5223 89.0678 69.28 91.414C69.9987 93.6465 71.0927 95.7584 71.8893 97.9696C72.4806 99.6165 72.863 101.338 73.1887 103.081C70.6218 100.167 71.2202 95.3325 66.784 93.2241H66.7804Z" fill="#95C11F"/>
<path d="M90.0728 87.2895C88.1822 86.3916 86.1181 85.4155 83.9124 84.3684C84.3549 82.9735 83.4379 82.2317 81.7739 82.0507L81.7916 81.5538C84.8435 81.1137 87.8918 80.3825 90.9543 80.3221C93.7053 80.2654 95.8579 82.6931 96.1447 85.8769C95.5676 84.9789 95.1427 83.907 94.3744 83.222C93.4929 82.434 92.3705 81.7419 91.2411 81.4615C90.1507 81.1917 88.8938 81.3763 87.7573 81.5964C86.6456 81.8129 85.5941 82.324 84.4328 82.7393C85.3463 85.6213 89.7577 84.4713 90.0728 87.2895Z" fill="#95C11F"/>
<path d="M25.9163 12.3128C25.371 12.3128 24.7585 12.4796 24.2912 12.2879C20.8215 10.8575 17.5714 11.5425 14.3673 13.1433C11.9987 14.3252 9.56994 15.383 7.20845 16.5791C6.28793 17.0441 5.48071 17.7397 4.52832 18.3964C4.60975 17.0476 5.21871 16.1532 6.44017 15.6172C8.46178 14.7263 10.5648 13.9703 12.4625 12.8558C16.7535 10.3393 21.8731 9.88499 25.9163 12.3128Z" fill="#95C11F"/>
<path d="M77.0194 88.8762L77.816 88.1982L77.7346 87.783C76.4813 87.9107 75.2315 88.0421 73.8896 88.1805C75.1996 85.8663 76.2795 85.9905 78.2621 87.5629C82.1991 90.6899 82.7975 94.9101 82.7727 99.4355C82.7691 100.163 82.5107 100.891 82.2345 101.622C81.8345 96.8693 82.493 91.7263 77.023 88.8762H77.0194Z" fill="#95C11F"/>
<path d="M125.619 32.175C121.859 28.363 119.221 23.8411 116.885 19.1239L117.54 18.6874C118.085 19.5428 118.595 20.423 119.179 21.2465C121.169 24.0576 123.212 26.8296 125.169 29.6585C125.633 30.3258 125.849 31.167 126.178 31.9265L125.619 32.1679V32.175Z" fill="#95C11F"/>
<path d="M70.1509 88.1272C71.475 87.3747 72.7319 87.8362 73.8117 88.6915C77.0548 91.2648 79.9084 94.0866 79.0056 98.9244C78.0107 95.2082 77.1681 91.3713 72.9585 90.3775C72.9691 88.1059 70.2571 89.8948 70.1544 88.1307L70.1509 88.1272Z" fill="#95C11F"/>
<path d="M84.5251 96.3653C85.212 94.1505 85.3642 91.9428 84.3304 89.8239C83.4418 87.9959 82.2734 86.491 79.8553 86.8779C79.4163 86.9489 78.9206 86.6614 78.4497 86.5371L78.4709 86.0402C79.4694 85.9444 80.4713 85.845 81.6007 85.735L81.3352 84.5708C85.2899 86.0544 87.1274 92.784 84.5216 96.3583L84.5251 96.3653Z" fill="#95C11F"/>
<path d="M47.9095 92.39C48.5928 93.643 49.2761 94.8994 49.9594 96.1524C50.7631 94.037 49.3257 92.4255 48.7061 90.5195C50.4551 91.3998 51.5739 93.9695 51.3013 95.5561C51.1101 96.6528 51.1561 97.8596 51.4004 98.9457C51.7686 100.578 51.6801 102.183 50.533 104C50.9366 99.5846 49.5948 96.0104 47.2793 92.7308C47.4882 92.6172 47.7006 92.5036 47.9095 92.39Z" fill="#95C11F"/>
<path d="M91.2345 75.96C94.3288 78.7747 97.2993 77.0249 100.624 75.3212C96.6691 79.9176 90.5441 80.0205 88.4092 75.6797C89.6377 76.5102 90.6786 77.2165 92.0134 78.1181C91.7054 77.2094 91.4894 76.567 91.2734 75.9281L91.2345 75.96Z" fill="#95C11F"/>
<path d="M58.2549 103.24V90.8141C58.4992 92.5178 59.795 93.1957 61.0589 94.0334C61.8732 94.5729 62.3901 95.556 62.7725 96.5925C61.6502 95.5951 60.5279 94.5977 59.4055 93.6003L58.8851 93.7778V103.319C58.6762 103.294 58.4638 103.269 58.2549 103.244V103.24Z" fill="#95C11F"/>
<path d="M40.3509 97.8276C40.8466 95.6661 41.3422 93.5045 41.8379 91.3465L41.5192 91.027C40.5881 92.4361 39.657 93.8417 38.7258 95.2508C38.4072 94.9313 38.0921 94.6119 37.7734 94.2925C38.7825 91.9889 41.0271 90.9809 43.3886 89.2878C42.4469 92.5 41.6467 95.2224 40.8501 97.9448L40.3509 97.8276Z" fill="#95C11F"/>
<path d="M97.3027 3.76941C100.847 6.98868 104.387 10.2115 107.931 13.4308C107.758 13.6189 107.588 13.8106 107.414 13.9987C103.87 10.7688 100.326 7.53884 96.7822 4.30891C96.9557 4.1279 97.1292 3.94688 97.2991 3.76941H97.3027Z" fill="#95C11F"/>
<path d="M55.3198 100.738C55.6562 97.4479 55.9961 94.1435 56.3643 90.5551C57.8442 93.5507 57.1007 99.5527 55.3198 100.738Z" fill="#95C11F"/>
<path d="M52.7636 99.8047C51.4218 96.6493 53.3195 93.8062 53.3478 90.8354C53.5461 90.7928 53.7479 90.7538 53.9461 90.7112C54.0913 91.4246 54.4631 92.1806 54.3427 92.8479C53.9178 95.1479 53.3195 97.4159 52.7636 99.8047Z" fill="#95C11F"/>
<path d="M109.34 62.9586C106.748 65.3899 104.252 67.9526 100.942 69.4149L100.669 69.0458L108.975 62.4937L109.34 62.9551V62.9586Z" fill="#95C11F"/>
<path d="M116.655 68.2578C113.706 70.7246 106.713 73.4328 104.543 73.1027C108.459 71.5374 112.332 69.9864 116.655 68.2578Z" fill="#95C11F"/>
<path d="M26.5923 93.9482C28.051 92.2126 29.5096 90.4805 30.9683 88.7449L31.2303 88.8443C30.9471 89.831 30.4089 90.8284 30.4549 91.7973C30.501 92.8373 31.0993 93.856 31.6197 95.3573C30.639 94.0583 30.108 92.674 29.2901 92.4753C28.5926 92.3049 27.5659 93.4939 26.6808 94.0831L26.5958 93.9482H26.5923Z" fill="#95C11F"/>
<path d="M34.5478 88.8904C34.0203 91.2223 33.56 93.2632 33.1068 95.265C32.2076 93.3555 32.4554 91.3252 33.2874 89.3624C33.4326 89.0253 34.2752 88.9862 34.5443 88.8939L34.5478 88.8904Z" fill="#95C11F"/>
<path d="M27.4773 59.0331C24.4042 58.5397 21.9152 57.3081 21.2319 54.4722C23.1048 55.8387 25.2893 57.4359 27.4773 59.0331Z" fill="#95C11F"/>
<path d="M101.693 62.3269C102.882 61.216 104.185 60.2044 105.223 58.9657C106.179 57.8263 106.851 56.4456 107.775 55.2672C106.855 58.5291 104.773 60.8788 102.029 62.7031L101.693 62.3304V62.3269Z" fill="#95C11F"/>
<path d="M45.0098 91.7582L44.0893 99.0451L43.5122 98.9741C43.6821 96.5321 43.8486 94.0902 44.0185 91.6482C44.3478 91.6837 44.677 91.7227 45.0098 91.7582Z" fill="#95C11F"/>
<path d="M33.2201 43.0823C33.8857 45.7443 34.5867 48.5483 35.2877 51.3559C33.7087 49.9503 32.5085 44.6972 33.2201 43.0823Z" fill="#95C11F"/>
<path d="M86.543 4.11731C88.4442 5.35959 90.349 6.59832 92.2502 7.8406L91.8466 8.47238C89.9383 7.2443 88.0265 6.01267 86.1182 4.78459L86.543 4.11731Z" fill="#95C11F"/>
<path d="M41.2925 89.1565C38.8708 89.8557 36.5943 90.7679 35.21 93.075C35.6738 90.5337 37.6564 89.2026 41.2925 89.1565Z" fill="#95C11F"/>
<path d="M66.6384 20.3805C68.8087 20.6857 70.9826 20.991 73.1529 21.2962L73.0325 22.0664C70.8622 21.7364 68.6884 21.4027 66.5181 21.0726L66.6384 20.384V20.3805Z" fill="#95C11F"/>
<path d="M18.4388 82.9913H11.8394C13.2378 81.6425 16.3322 81.6212 18.4388 82.9913Z" fill="#95C11F"/>
<path d="M20.145 25.8323C22.0462 24.9592 23.9475 24.0825 25.8452 23.2094L26.178 23.9334C24.252 24.8066 22.3259 25.6833 20.3999 26.5564L20.145 25.8323Z" fill="#95C11F"/>
<path d="M45.7393 98.857V90.8035C47.2263 93.3839 46.7518 95.9181 45.7393 98.857Z" fill="#95C11F"/>
<path d="M93.2734 70.0929C95.1357 69.0956 96.998 68.0982 98.8603 67.1008C98.9594 67.2712 99.0621 67.4416 99.1612 67.6119C97.3343 68.7016 95.5075 69.7948 93.6806 70.8845C93.5461 70.6218 93.408 70.3556 93.2734 70.0929Z" fill="#95C11F"/>
<path d="M35.1959 99.0238C35.6349 96.9474 36.074 94.8711 36.513 92.7947L37.0901 92.9154C36.6829 94.9917 36.2758 97.0717 35.8651 99.148L35.1924 99.0274L35.1959 99.0238Z" fill="#95C11F"/>
<path d="M68.7026 100.688C67.6157 98.9031 66.5252 97.1214 65.4489 95.3289C65.4065 95.2579 65.4808 95.1195 65.6189 94.4167C66.9961 96.6422 68.1326 98.4879 69.2726 100.33L68.7062 100.685L68.7026 100.688Z" fill="#95C11F"/>
<path d="M28.9646 86.2993C28.129 87.712 27.2864 89.1353 26.3057 90.7964C26.3588 87.9356 27.1306 86.743 28.9646 86.2993Z" fill="#95C11F"/>
<path d="M28.8018 10.9355H34.1408C32.5865 12.1388 31.7651 12.153 28.8018 10.9355Z" fill="#95C11F"/>
<path d="M28.9644 43.7281C29.2972 45.4283 29.5592 46.77 29.892 48.4808C28.3378 47.0468 28.0156 45.4602 28.9644 43.7281Z" fill="#95C11F"/>
<path d="M23.9264 85.6675C22.712 86.3277 21.5047 86.9843 20.3293 87.6232C20.2514 85.8521 21.2746 85.2664 23.9264 85.6675Z" fill="#95C11F"/>
<path d="M84.7199 3.47126C83.6613 2.63006 82.5991 1.78886 81.5405 0.94766L81.9264 0.425903C83.024 1.21741 84.1215 2.00892 85.2226 2.80043L84.7234 3.46771L84.7199 3.47126Z" fill="#95C11F"/>
<path d="M18.8496 85.27C19.7737 84.0242 20.8464 83.222 22.468 84.0845C21.2607 84.4785 20.0569 84.876 18.8496 85.27Z" fill="#95C11F"/>
<path d="M51.542 92.3616C51.2694 91.5452 50.9968 90.7324 50.6108 89.5789C51.2764 89.9089 52.0093 90.0367 52.1403 90.3881C52.3598 90.9809 52.2005 91.7156 52.2005 92.3935L51.542 92.3651V92.3616Z" fill="#95C11F"/>
<path d="M49.2301 77.8412C50.0267 79.0054 50.8693 80.2335 51.7969 81.5929C50.7064 81.7277 49.4814 81.8768 48.6069 81.9868C48.8441 80.4109 49.0707 78.9095 49.2301 77.8447V77.8412Z" fill="#95C11F"/>
<path d="M45.2083 77.1846C46.2598 77.5537 47.3113 77.9193 48.3628 78.2884L48.2318 78.8918C47.1378 78.6398 46.0403 78.3878 44.9463 78.1358L45.2083 77.181V77.1846Z" fill="#95C11F"/>
</g>
<defs>
<clipPath id="clip0_282_17506">
<rect width="127" height="104" fill="white"/>
</clipPath>
</defs>
</svg>
