<svg width="105" height="88" viewBox="0 0 105 88" fill="none" xmlns="http://www.w3.org/2000/svg">
<g clip-path="url(#clip0_282_17169)">
<path d="M52.2082 41.7171C53.5537 41.489 53.7776 43.3919 55.2088 43.0096C59.4627 40.3029 63.9954 39.7034 68.899 42.2276C73.2056 38.5586 77.5846 34.8265 81.8429 31.201C81.2568 28.7854 81.3293 26.6739 81.7419 24.3995C82.1875 21.9578 83.5945 20.435 85.1376 18.7971C86.718 17.1201 88.9942 16.766 91.1738 15.6777C88.6211 14.1527 87.8594 11.7285 87.4753 9.38019C87.135 7.30564 88.3116 5.33537 89.3871 3.50629C90.6185 1.41219 95.577 -0.603711 97.8708 0.169629C98.9661 0.53892 100.274 0.399893 101.128 1.3796C102.14 2.53744 103.446 3.40202 104.181 4.84877C105.193 6.84077 104.893 8.92401 104.969 10.8356C103.848 13.8899 101.567 15.6647 98.898 17.1483C103.295 19.842 105.545 23.7782 104.886 28.7854C104.256 33.5731 101.269 36.8815 96.2355 38.7128C91.9948 38.7794 89.033 38.4688 87.3502 37.7809C85.1222 39.6121 82.925 41.3999 80.7498 43.2138C78.647 44.9647 76.5683 46.7416 74.3382 48.625C75.203 50.8516 75.8879 53.3346 74.6499 55.9652C77.0798 56.3628 78.8094 57.5793 80.2252 59.3019C80.4271 60.0187 80.504 60.8377 80.8749 61.4894C81.9241 63.3315 81.0242 64.9933 80.482 66.6617C80.1001 67.8369 79.6084 68.9752 78.3024 69.5943C77.1807 70.1243 76.3444 71.2713 74.8935 71.0584C73.4404 72.2944 71.9149 71.1996 70.5628 70.9346C69.3643 70.7021 68.0056 69.9614 67.2374 68.7579C66.6974 67.9129 66.2716 66.9984 65.7689 66.1316C65.5384 65.7341 65.2421 65.3735 64.8909 64.8739C64.4717 65.2127 64.171 65.456 64.0151 65.582C63.5871 67.4936 63.1964 69.2423 62.8123 70.9585C63.7912 72.5377 64.7768 74.1235 65.7755 75.731C65.7755 76.8845 65.635 78.0576 65.8084 79.185C66.0477 80.7338 65.455 82.0937 64.6934 83.2037C63.8 84.505 63.113 86.2515 61.1287 86.4709C60.1497 87.5353 58.5496 87.103 57.474 87.9524C57.3708 88.0328 57.136 88.0024 56.9823 87.9567C54.8225 87.3333 52.5199 87.166 50.6388 85.6932C48.7796 84.2378 47.6492 82.2262 47.2892 80.1191C46.8502 77.5514 47.1882 74.9077 49.2011 72.7463C51.1305 70.6761 52.1116 69.8767 54.2166 69.427C54.7654 67.3155 55.3317 65.141 55.8695 63.0752C51.7099 58.6784 50.5773 59.013 50.63 49.8676C45.4718 46.5331 40.3223 43.203 35.0104 39.7685C33.2698 40.9742 31.2811 42.1711 28.7766 42.2384C26.3972 42.3036 24.1451 42.0538 22.0665 40.6353C19.9307 42.1646 18.572 44.5541 16.0961 45.7424C16.6887 46.5483 16.6229 47.4237 16.5153 48.2383C16.0566 51.7292 14.0701 54.1079 10.8588 55.5112C10.5076 55.6655 10.0598 55.6264 9.65595 55.6307C8.40041 55.6437 7.14487 55.635 5.88714 55.635C0.166967 53.0761 -0.221548 49.3202 0.0703865 46.355C0.166966 45.3731 1.47519 42.7902 2.19734 42.2884C3.52751 41.363 4.70623 40.0097 6.60051 40.2269C8.13701 38.9257 9.67351 40.4811 11.2078 40.2269C12.9133 38.7063 14.3993 36.9467 16.5 35.2176C16.3858 34.4399 16.4034 33.1452 15.9775 32.0156C15.499 30.7448 15.6044 29.6782 15.96 28.4117C16.2344 27.4299 16.1795 26.3763 17.0531 25.5334L15.6263 24.3474C14.0525 24.0215 12.2592 24.5255 10.4352 24.078C8.63527 23.637 7.24145 22.5921 6.05176 21.4691C4.85549 20.3395 4.08943 18.7015 3.58678 17.0354C3.50995 15.3345 3.139 13.4728 4.01041 11.8588C4.84012 10.3208 5.61496 8.80019 7.28096 7.69449C8.82843 6.66699 10.4396 6.34549 12.0946 5.93492C13.9164 5.48308 15.4705 6.70392 17.2748 6.96459C22.8303 11.0594 22.5296 14.8913 21.566 18.1715C21.9765 18.4778 22.433 18.821 23.0937 19.3163C24.4415 19.1382 26.1119 18.9188 27.9952 18.6711C28.32 17.8152 28.7239 16.7465 29.141 15.6408C28.6251 14.446 27.8876 13.2903 27.6484 12.0413C27.3872 10.6814 27.5891 9.23465 27.5891 7.67711C27.9754 7.14055 28.59 6.56489 28.8578 5.86106C29.7556 3.50411 32.0779 3.18913 33.9656 2.51789C35.715 1.89444 37.7717 2.44186 39.2467 3.49542C40.893 4.67281 42.5348 5.97185 42.7675 8.4461C42.8992 9.85158 43.2175 11.092 42.8004 12.567C42.0366 15.2758 40.2213 16.9181 37.7717 17.7631C36.6479 18.152 36.1035 18.3996 36.0662 19.6052C36.0508 20.0744 35.5284 20.5306 35.1509 21.1302C36.5644 22.3249 37.8332 23.7413 38.5597 25.503C39.1524 26.9411 39.8262 28.3726 39.6704 30.0301C39.554 31.264 39.6484 32.5174 39.6484 33.7599C39.306 33.584 38.9636 33.408 38.6343 33.2386C38.1185 33.5014 37.3217 33.6492 37.2076 34.0098C36.7905 35.3305 35.1553 35.8736 35.1267 37.5702L35.8445 38.2675L35.9872 37.946C36.5337 38.0915 37.0825 38.2371 37.6817 38.3978L37.1505 39.0321C37.9385 39.2819 38.957 39.2928 39.3609 39.7924C40.4255 41.1045 42.0585 41.4955 43.3009 42.4991C43.9023 42.9857 44.5938 43.4115 45.1798 43.9546C45.2676 44.0349 45.4059 44.0632 45.5135 44.111L45.9239 43.7048C46.0864 44.0458 46.2422 44.3716 46.4354 44.7757C46.8085 44.7757 47.2036 44.7757 47.1224 44.7757C48.3692 45.7532 49.2823 46.4701 50.2217 47.2087C50.2152 47.1978 50.1822 47.1674 50.1493 47.1348C50.0132 47.25 49.8749 47.3651 49.7388 47.4824L49.8969 47.6388C50.0132 47.5041 50.1295 47.3673 50.2217 47.2108C50.6344 47.2999 51.0734 47.4107 51.609 47.5476C51.9733 47.0414 52.4365 46.4049 52.8931 45.7598C53.3825 45.0646 53.8632 44.3651 54.2627 43.7895C53.4879 43.0096 52.847 42.3623 52.206 41.7171H52.2082ZM14.5245 39.2298L14.1074 39.3927C14.2457 39.5035 14.3862 39.6143 14.5245 39.7273C13.855 40.3898 13.1855 41.0524 12.4699 41.7692L12.5687 41.6715C12.4524 41.5368 12.336 41.3999 12.2175 41.2653L12.0595 41.4217C12.1956 41.5368 12.3338 41.6519 12.516 41.7171C12.189 42.8315 11.0564 42.7598 10.3847 43.3094C9.91935 42.8706 9.56157 42.5339 9.05891 42.0625C7.79679 42.4622 6.45564 42.8662 5.13206 43.3137C4.21894 43.6222 4.71062 44.6367 4.24089 45.1754C4.02358 45.4252 3.77116 45.6468 3.52971 45.8857V47.9864C3.8831 48.3361 4.17723 48.6272 4.56136 49.0073V50.176H6.24492L7.24145 51.1623C8.0536 51.1623 8.90965 51.2817 9.71521 51.134C10.9093 50.9168 12.1934 50.415 12.437 49.1703C12.6038 48.3274 13.1811 47.9668 13.5104 47.3564C13.574 47.2391 13.4906 47.0436 13.4731 46.8459C13.1965 46.746 12.9067 46.6395 12.5073 46.4962C12.5358 45.9162 12.5665 45.3036 12.5972 44.6975H13.8243C14.6452 43.5744 15.4815 42.4296 16.3924 41.1827C17.1607 40.9915 18.0694 40.7678 18.9386 40.5506C19.1076 40.1813 19.2679 39.8315 19.4456 39.4427C18.9364 38.7584 18.3723 38.0025 17.8345 37.2791L17.0399 38.2305C16.8731 38.0655 16.7041 37.8982 16.4912 37.7852L16.59 37.6875L16.2388 37.2812L16.0807 37.4377C16.2168 37.5528 16.3551 37.6679 16.5373 37.7331C16.7041 37.8982 16.8731 38.0655 17.0399 38.2305C16.5307 38.8801 15.8876 39.2646 15.0293 39.2255L14.8647 38.8127L14.5267 39.2255L14.5245 39.2298ZM61.2516 82.9887C61.3899 82.9344 61.5304 82.8801 61.6687 82.8258L61.2516 82.4912C62.0813 81.8699 62.911 81.2465 63.5673 80.7556C63.8176 80.1799 63.912 79.6868 64.1995 79.3609C64.7065 78.7896 63.8088 78.5789 63.9471 77.9555C64.0963 77.2842 63.8966 76.4783 64.4058 75.7049C63.8176 75.5985 63.361 75.516 63.3347 75.5116C62.4589 74.684 61.8552 74.1127 61.2494 73.5413V72.3792C60.6787 72.6225 60.3429 72.7658 60.1344 72.8549C59.0851 72.503 58.0733 72.1641 57.373 71.9295C56.2777 72.6985 55.4985 73.2459 54.7193 73.7955C54.8225 75.164 53.2025 74.8187 52.7548 75.8418V79.9453C53.3299 80.5926 53.8325 81.5093 54.6095 81.9329C55.3975 82.3631 55.9661 83.3971 57.1075 83.1147C58.0469 84.2964 58.8481 82.6802 59.7436 82.9887L59.9083 83.4014C60.0202 83.2646 60.1322 83.1255 60.2463 82.9887H60.749C60.8038 83.1255 60.8587 83.2646 60.9136 83.4014L61.2516 82.9887ZM77.33 67.0766C77.4683 67.0223 77.6087 66.9679 77.747 66.9136L77.33 66.5791C79.9815 65.0064 79.8301 61.4959 78.4955 59.0086C78.1707 59.1976 77.8524 59.3823 77.5319 59.5669C76.5134 58.6763 75.2886 58.2766 74.5818 58.6068L74.0155 58.1441C75.0955 60.9203 74.1648 62.9188 71.8754 64.6697H70.2643C70.8481 65.1063 71.3157 65.4582 71.8074 65.8275C71.5352 66.0969 71.4189 66.212 71.2784 66.351C72.9027 66.9071 74.505 67.5154 76.1513 66.7616C76.4059 66.8811 76.6166 66.9788 76.8273 67.0766C76.8822 67.2134 76.9371 67.3524 76.992 67.4893L77.33 67.0766ZM81.349 39.2298C81.5158 39.0647 81.6849 38.8974 81.8517 38.7324C82.2095 38.6607 82.6485 38.9387 82.8811 38.3544C83.0238 37.9981 83.4123 37.7396 83.8316 37.2878C83.8579 37.114 83.9238 36.6882 84.0006 36.1821C84.3167 36.4406 84.4857 36.5774 84.8259 36.8533C84.9664 35.5651 83.9479 35.3131 83.6099 34.7549H82.3368C81.428 35.387 80.6532 35.9388 79.863 36.4666C79.3911 36.7816 79.2594 37.2117 79.3384 37.7374C79.1716 37.7374 79.0026 37.7374 78.7897 37.7896L78.8884 37.6918C78.7721 37.5571 78.6558 37.4203 78.5372 37.2856L78.3792 37.442C78.5153 37.5571 78.6536 37.6723 78.8358 37.7374C78.7919 38.4804 78.2124 38.1589 77.7843 38.287L77.8831 38.1893C77.7668 38.0546 77.6505 37.9177 77.5319 37.7831L77.3739 37.9395C77.51 38.0546 77.6483 38.1697 77.8304 38.2349C77.5758 39.5144 77.1127 39.9727 75.8198 40.2247C75.765 40.0879 75.7101 39.9488 75.6552 39.812C75.5433 39.9488 75.4313 40.0879 75.3172 40.2247C74.8123 40.6396 74.3075 41.0545 73.7895 41.4803C74.077 41.7388 74.1977 41.8496 74.4414 42.069C73.1858 42.2797 72.5405 43.4723 71.2059 43.3528C71.4803 44.0415 71.6691 44.5128 71.9786 45.2884C71.3706 44.9777 71.0567 44.817 70.723 44.6454C70.4421 44.8409 70.1962 45.0364 69.9263 45.1906C69.7002 45.3188 69.4455 45.3948 69.0746 45.5469C69.6672 46.4288 70.126 47.1131 70.5913 47.8082C71.1159 47.5367 71.4562 47.3607 71.7986 47.1848C71.8535 47.3216 71.9083 47.4607 71.9632 47.5975L72.3012 47.1848C72.6195 47.1283 72.9378 47.074 73.368 46.998C73.1046 46.7373 72.9883 46.6222 72.9488 46.5831C73.7258 45.8119 74.5006 45.0385 75.3281 44.2174C75.5893 44.1848 75.9647 44.137 76.3181 44.0936V43.2073C76.7 43.1334 77.2795 43.4549 77.3234 42.7098C78.3287 41.88 79.334 41.0524 80.3371 40.2226C80.673 40.2226 81.0066 40.2225 81.3885 40.1704L81.2898 40.2682L81.641 40.6744L81.799 40.518C81.6629 40.4029 81.5246 40.2877 81.3424 40.2226C81.3424 39.8902 81.3424 39.56 81.3424 39.2276L81.349 39.2298ZM103.396 5.11379C102.443 3.96681 101.556 2.90239 101.021 2.25938C99.8309 1.87271 99.1658 1.48822 98.4986 1.48387C97.7391 1.47953 96.9774 1.81406 95.915 2.07474C95.1819 3.12613 94.2929 4.40345 93.404 5.67859C93.4259 7.65104 94.8592 8.78498 96.2223 10.1818C95.4278 10.3382 94.9097 10.4403 94.4159 10.538C94.6376 11.4678 94.8351 12.2976 95.0085 13.0318C94.4027 13.6314 93.9286 14.1006 93.483 14.5416C93.6849 14.9587 93.8803 15.3605 94.1173 15.8537H95.8141C96.8874 16.3207 97.5657 16.614 98.0596 16.829C98.3098 15.8884 98.571 15.1151 98.7137 14.32C98.8805 13.3837 98.9441 12.4323 99.0385 11.6046C100.018 11.2223 100.922 10.8682 101.824 10.5163L102.195 10.8834C103.18 9.11517 103.729 7.2622 103.393 5.11379H103.396ZM35.6513 12.6234C36.2901 11.6785 37.0056 13.0514 37.7015 12.5757C38.5092 12.0217 39.2994 12.5213 40.2477 12.719C40.0567 12.2607 39.9008 11.8827 39.7428 11.5047C40.0874 11.3874 40.3794 11.2896 40.6098 11.2114C40.4123 10.84 40.2345 10.5076 39.9996 10.0645C40.6537 9.92979 41.1432 9.82986 41.8303 9.68866L40.3025 9.00004C40.8908 8.61554 41.231 8.39397 41.6547 8.11591L40.0216 6.93635C40.263 6.61485 40.443 6.37373 40.6252 6.1326L39.8262 5.34188H38.946L37.9078 3.86906C35.0411 4.05153 32.2666 4.19925 31.235 7.06017C31.4325 8.3049 31.5774 9.2303 31.7552 10.3512C32.2403 10.7227 32.89 11.2201 33.6473 11.798C32.3808 12.2346 31.8891 13.3121 31.1669 14.1766C31.2855 14.2939 31.404 14.4112 31.5203 14.5286C30.8487 15.8754 30.1792 17.2222 29.5119 18.5603C31.0813 19.1143 32.5257 19.6248 33.9941 20.1418C34.1565 19.8094 34.4572 19.3445 34.6043 18.8362C34.7141 18.4539 34.6263 18.0151 34.6263 17.6002C35.4911 16.6313 35.9938 15.8102 36.0706 14.6415C36.1145 13.979 35.805 13.2947 35.6557 12.6234H35.6513ZM7.15804 13.9507C8.61113 15.3888 10.062 16.8247 11.491 18.2388C14.7286 19.2077 16.6887 17.2374 18.6445 14.9065C18.5216 13.5445 18.3855 12.05 18.2406 10.4338L18.6269 9.94065L17.2792 9.86462C17.0838 9.5366 16.9455 9.16948 16.6975 8.90446C15.7778 7.92475 14.2852 8.88274 13.3326 7.96168L11.1903 8.81974L10.6503 8.32228C10.1213 8.57861 9.56596 8.84581 9.00403 9.11517L9.47157 9.63435L7.96141 10.6032V13.1578L7.16243 13.9485L7.15804 13.9507ZM57.7594 65.2323L58.2357 65.9904C56.6289 66.527 57.6979 68.1258 56.8265 68.8665C58.4574 69.2641 59.9741 69.6355 61.605 70.0331C61.9299 69.1728 62.2789 68.2496 62.6498 67.2612C62.5467 67.12 62.3711 66.8767 62.224 66.6747C62.9352 64.8891 63.6134 63.1838 64.2829 61.4981C63.3039 59.9145 61.5984 59.6647 60.0575 59.1194L59.4495 60.6509C59.5022 60.8942 59.5549 61.1375 59.6229 61.4568C59.4649 61.509 59.1773 61.6045 58.9381 61.6849C58.5408 62.8753 58.1523 64.0375 57.755 65.2301L57.7594 65.2323ZM64.2653 50.4063C64.5266 52.2549 64.5353 52.2593 66.7413 51.9247C66.8028 51.0537 67.0135 50.1196 65.8392 49.6438C65.3497 49.8806 64.8053 50.1456 64.2653 50.4063ZM27.5145 27.3929C27.7032 28.5595 28.3508 28.8636 29.3736 28.781C29.6304 28.4769 29.9268 28.125 30.2648 27.7253L29.1124 26.663C28.6383 26.8803 28.0764 27.1366 27.5145 27.3951V27.3929ZM6.82001 41.7171H6.65319V42.2146H6.82001V41.7171ZM42.66 10.223V10.058H42.1573V10.223H42.66ZM13.1833 40.2247H13.3501V39.7273H13.1833V40.2247Z" fill="#95C11F"/>
<path d="M41.1538 34.7547C41.7399 34.9198 42.4137 34.9545 42.8922 35.276C44.5275 36.373 46.0926 37.5722 47.6861 38.7322C47.2779 38.7322 46.7137 38.9038 46.4855 38.7039C45.1399 37.52 43.5288 36.7727 42.0318 35.8365C41.6587 35.604 41.4435 35.1218 41.156 34.7525L41.1538 34.7547Z" fill="#95C11F"/>
<path d="M49.1924 39.7271C49.9716 39.6467 50.5028 39.9356 50.7003 40.722C49.9211 40.8024 49.3899 40.5134 49.1924 39.7271Z" fill="#95C11F"/>
<path d="M50.7002 40.722C51.4794 40.6416 52.0106 40.9305 52.2082 41.7169C51.4289 41.7973 50.8977 41.5084 50.7002 40.722Z" fill="#95C11F"/>
<path d="M39.646 33.7598C40.4252 33.6794 40.9564 33.9683 41.154 34.7547C40.3747 34.835 39.8435 34.5461 39.646 33.7598Z" fill="#95C11F"/>
<path d="M48.187 39.2296C48.5689 39.3035 49.1484 38.982 49.1923 39.7271C48.8104 39.6532 48.2309 39.9747 48.187 39.2296Z" fill="#95C11F"/>
<path d="M39.1436 10.5552H39.6462V10.7203H39.1436V10.5552Z" fill="#95C11F"/>
<path d="M61.3042 73.5868L60.953 73.993L60.7949 73.8366L61.2054 73.489L61.3042 73.5868Z" fill="#95C11F"/>
<path d="M60.2463 82.9885H59.7437C59.8556 82.8516 59.9675 82.7126 60.0817 82.5758C60.1366 82.7126 60.1914 82.8516 60.2463 82.9885Z" fill="#95C11F"/>
<path d="M61.2517 82.9885H60.749L61.2517 82.491V82.9885Z" fill="#95C11F"/>
<path d="M100.998 2.4786L100.647 2.88482L100.489 2.72841C100.625 2.61328 100.764 2.49815 100.9 2.38084L100.998 2.4786Z" fill="#95C11F"/>
<path d="M14.5771 41.2651C14.4608 41.3998 14.3444 41.5366 14.2259 41.6713L14.0679 41.5149L14.4783 41.1673L14.5771 41.2651Z" fill="#95C11F"/>
<path d="M14.5244 39.7271V39.2296H15.0271L14.5244 39.7271Z" fill="#95C11F"/>
<path d="M18.3743 39.2296V39.7271H18.2075V39.2296H18.3743Z" fill="#95C11F"/>
<path d="M14.4717 41.1738L14.8229 40.7676L14.9809 40.924L14.5705 41.2716L14.4717 41.1738Z" fill="#95C11F"/>
<path d="M77.33 42.7118H76.3247C76.5332 42.5467 76.7418 42.3795 76.9503 42.2144L77.33 42.7118Z" fill="#95C11F"/>
<path d="M75.2752 41.769L74.8647 41.4215L75.0228 41.2651L75.374 41.6713L75.2752 41.769Z" fill="#95C11F"/>
<path d="M75.3654 41.6648C75.5015 41.7799 75.6398 41.895 75.7758 42.0123L75.6178 42.1687L75.2666 41.7625L75.3654 41.6648Z" fill="#95C11F"/>
<path d="M76.3248 42.7118V43.2093C76.1865 43.0985 76.046 42.9877 75.9077 42.8747C76.046 42.8204 76.1865 42.7661 76.3248 42.7118Z" fill="#95C11F"/>
<path d="M72.3054 47.1868H71.8027L72.1408 46.774L72.3054 47.1868Z" fill="#95C11F"/>
<path d="M79.3844 37.6873L79.7949 38.0349L79.6368 38.1913C79.5205 38.0566 79.4042 37.9197 79.2856 37.785L79.3844 37.6873Z" fill="#95C11F"/>
<path d="M81.8513 38.7322H81.3486L81.6867 38.3194L81.8513 38.7322Z" fill="#95C11F"/>
<path d="M81.3487 38.7322V39.2296L80.9316 38.8951C81.0699 38.8408 81.2104 38.7865 81.3487 38.7322Z" fill="#95C11F"/>
<path d="M80.2996 40.2767L79.8892 39.9291L80.0472 39.7727L80.3984 40.1789L80.2996 40.2767Z" fill="#95C11F"/>
<path d="M75.3193 40.2245H75.822C75.71 40.3614 75.5981 40.5004 75.484 40.6373C75.4291 40.5004 75.3742 40.3614 75.3193 40.2245Z" fill="#95C11F"/>
<path d="M77.3298 67.0764H76.8271L77.3298 66.5789V67.0764Z" fill="#95C11F"/>
</g>
<defs>
<clipPath id="clip0_282_17169">
<rect width="105" height="88" fill="white"/>
</clipPath>
</defs>
</svg>
