<svg width="90" height="112" viewBox="0 0 90 112" fill="none" xmlns="http://www.w3.org/2000/svg">
<g clip-path="url(#clip0_282_17332)">
<path d="M83.6626 111.19C81.7169 110.7 80.0412 109.972 78.2272 109.554C76.4856 109.156 74.6452 109.103 72.9892 108.323C72.9431 108.303 72.8871 108.307 72.8345 108.303C71.6196 108.195 70.4015 108.079 69.1867 107.974C67.8072 107.859 66.4278 107.708 65.045 107.655C63.6195 107.599 62.1939 107.642 60.7651 107.642C59.3363 107.642 57.9107 107.655 56.4852 107.642C53.9996 107.612 51.5435 108.208 49.0513 107.974C47.7575 108.488 46.3714 108.096 45.0842 108.353C44.0734 108.553 43.0496 108.445 42.0948 108.675C41.0874 108.919 40.0536 108.767 39.1055 109.008C38.0947 109.265 37.061 109.09 36.1161 109.337C35.1021 109.6 34.0782 109.426 33.1235 109.666C32.2214 109.893 31.2995 109.762 30.4633 109.995C29.6139 110.232 28.7942 110.229 27.9546 110.288C27.5003 110.321 27.0591 110.509 26.6081 110.601C26.1538 110.693 25.6501 110.427 25.2319 110.894C25.1101 111.032 24.7118 110.924 24.4385 110.933C23.757 110.957 23.092 110.874 22.4171 111.23C21.8903 111.51 21.1166 110.973 20.5899 111.589C20.5668 111.615 20.4845 111.592 20.4286 111.592C17.9989 111.565 15.5824 112.253 13.1626 111.895C10.8284 111.549 8.59954 110.831 6.60774 109.452C3.55583 107.339 1.66279 104.393 0.517092 100.972C0.128607 99.8072 0.0561779 98.5004 0.00679428 97.2165C-0.078804 94.9781 0.596105 92.9965 1.71876 91.1662C2.53524 89.8331 3.79287 88.8554 5.09001 87.9962C5.53118 87.7033 6.16658 87.5881 6.71638 87.5881C7.82587 87.5881 8.93206 87.4366 10.0481 87.858C10.9469 88.2003 11.9082 88.4275 12.8828 88.5954C13.7815 88.7501 14.7034 89.0101 15.5561 89.2866C16.682 89.6553 17.9034 89.6026 18.9734 90.1655C19.1874 90.2775 19.51 90.1952 19.78 90.1952C21.3175 90.1952 22.8517 90.2248 24.3891 90.182C24.9488 90.1655 25.5019 89.9121 26.0649 89.8857C26.6015 89.8594 27.1052 89.8067 27.655 89.2735C28.0896 88.1411 28.0304 86.7059 28.0501 85.2706C28.0567 84.8197 28.3003 84.3785 28.3497 83.9243C28.4057 83.4371 28.3332 82.9367 28.3662 82.4463C28.488 80.774 27.7768 79.1611 28.0304 77.4822C27.1974 74.1707 26.5818 70.7834 24.7315 67.8241C24.3167 67.1625 23.7932 66.5699 23.3488 65.9248C22.3249 64.4467 20.9619 63.2847 19.7438 61.9845C16.7083 58.7519 13.8935 55.3614 11.5165 51.5857C10.3938 49.8015 9.37651 47.9581 8.31312 46.1477C6.76906 43.5175 5.34023 40.8051 4.076 38.0334C3.43073 36.6179 2.79861 35.1662 2.30478 33.6619C2.02494 32.8093 1.56402 31.9304 1.42904 31.0811C1.17225 29.4813 0.536845 27.9342 0.684996 26.2619C0.727795 25.7715 0.50063 25.2546 0.375525 24.7543C0.148361 23.8227 0.668535 22.9932 0.724503 22.0945C0.777179 21.2584 0.698165 20.4486 0.948375 19.5697C1.24138 18.5525 1.29077 17.4268 1.7023 16.4162C2.42988 14.6287 3.12455 12.8413 4.1221 11.1559C5.01759 9.64495 6.08098 8.25582 6.98635 6.76134C7.3452 6.16882 7.97073 5.73759 8.47444 5.23395C9.97241 3.74935 11.4078 2.19562 13.1099 0.931574C13.528 0.622145 13.9692 0.342342 14.4795 -0.0032959C15.0293 0.15471 15.7009 -0.187636 16.4054 0.28309C16.9125 0.622145 17.7849 0.0822907 18.3775 0.658355C19.3026 0.474014 20.1487 0.911823 21.0376 0.990826C21.4492 1.02704 21.9265 0.816361 22.2327 1.2838C23.6978 1.35292 25.1036 1.8829 26.5554 1.93228C27.2205 1.95532 27.7505 2.31413 28.3925 2.31742C29.0147 2.31742 29.6929 2.09687 30.2296 2.63343C31.2107 2.40959 32.0963 2.98236 33.0543 2.96919C33.6798 2.95932 34.2889 2.91982 34.9111 3.25887C35.4346 3.54526 36.205 3.00211 36.7449 3.60122C36.7943 3.65718 36.9523 3.61439 37.061 3.62097C38.605 3.7296 40.1524 3.82177 41.6964 3.95673C42.3681 4.01599 43.0298 4.2102 43.7014 4.26616C44.3566 4.32212 45.0842 4.09828 45.6603 4.31554C46.7204 4.71714 47.8003 4.42088 48.8242 4.63484C50.5888 5.00023 52.3995 4.67434 54.1115 5.00023C56.0638 5.3722 57.9832 5.23066 59.9124 5.24053C62.7273 5.2537 65.5092 5.74747 68.334 5.62238C71.1258 5.49729 73.9308 5.64542 76.7259 5.5763C78.3259 5.53679 79.9194 5.30966 81.4305 5.1714C82.3425 6.08323 83.1787 6.87655 83.9655 7.71925C84.545 8.33811 85.1244 8.97343 85.5886 9.68116C86.6652 11.3205 87.4059 13.7827 87.6265 15.9125C87.6858 16.4754 88.0117 16.9692 87.9689 17.5881C87.9162 18.3287 87.4685 18.9673 87.5936 19.7573C87.7187 20.5441 87.1393 21.2288 87.0109 21.9596C86.8792 22.7167 86.5071 23.3224 86.1878 23.9313C85.2462 25.7352 83.6956 27.4503 81.6511 28.6649C80.6371 29.2673 79.5869 29.7776 78.5597 30.3405C78.0132 30.64 77.6181 30.6433 77.0847 30.4656C76.4033 30.2351 75.6954 30.0903 74.9942 29.9059C74.0987 30.7388 73.8715 31.881 73.4764 32.9179C73.0946 33.9154 72.6402 34.9457 72.5744 35.9859C72.4361 38.2111 72.3242 40.4726 72.5908 42.6748C72.8015 44.4096 73.6509 46.0456 74.4279 47.6553C75.1522 49.1531 76.1926 50.4336 77.0749 51.8227C78.0197 53.3073 79.07 54.7228 80.0346 56.1942C80.7095 57.2213 81.312 58.2977 81.9507 59.3477C82.191 59.7428 82.5301 60.1049 82.6585 60.5328C83.0602 61.8594 83.8207 63.0115 84.3507 64.2756C84.8577 65.4902 85.3153 66.728 85.875 67.9262C86.4512 69.1606 86.7771 70.5135 87.182 71.8269C87.3631 72.4129 87.4619 73.0284 87.6199 73.621C87.7648 74.1608 87.9459 74.6875 88.173 75.1977C88.4265 75.7146 88.1006 76.3005 88.5516 76.8667C88.8743 77.2749 88.5977 77.9299 88.871 78.5356C89.243 79.3586 89.1475 80.3922 89.2693 81.3304C89.3681 82.1105 89.4899 82.8841 89.5953 83.6642C89.694 84.3884 89.3582 85.162 89.9047 85.8467C90.0397 86.0146 89.9245 86.38 89.9245 86.6532C89.9245 87.3115 89.8718 87.9732 89.9344 88.6283C90.1582 90.9621 89.7533 93.2697 89.5195 95.5608C89.3385 97.312 88.9072 99.0896 88.3936 100.824C87.8701 102.589 87.1623 104.264 86.5203 105.976C85.8059 107.875 84.4956 109.409 83.6626 111.184V111.19ZM18.7824 1.68539L18.8483 1.61956C18.7726 1.53068 18.6968 1.4418 18.6178 1.34963L18.5125 1.45497C18.6014 1.53068 18.6903 1.60639 18.608 1.64589C19.2664 2.03103 19.8195 2.27792 20.2738 2.64331C20.8236 3.0877 21.2747 3.65718 21.8014 4.13778C23.1447 5.36233 23.813 7.00823 24.5735 8.585C25.1628 9.80954 25.1529 11.1987 25.3966 12.5187C25.6468 13.8716 24.9587 15.1488 25.0575 16.4952C25.0673 16.617 24.85 16.7421 24.8237 16.8836C24.557 18.3188 23.836 19.5401 23.1183 20.7877C22.3743 22.0781 21.3734 23.0722 20.1652 23.9215C20.2936 23.9675 20.3891 24.0301 20.4845 24.0301C23.7735 24.0367 27.0657 24.0334 30.3547 24.0334C33.6436 24.0334 36.8272 23.9906 40.0602 24.0466C43.3064 24.1025 46.5492 24.2572 49.7954 24.3626C50.2332 24.3757 50.7666 24.2046 51.0925 24.3955C51.9189 24.8794 52.7715 24.5963 53.6078 24.695C54.4967 24.8004 55.379 24.9386 56.2679 25.0176C57.7 25.146 59.1387 25.2415 60.5742 25.3501C60.6301 25.3534 60.7091 25.3271 60.7355 25.3534C61.2194 25.8636 61.8483 25.6036 62.4112 25.6826C63.0269 25.7715 63.6392 25.8932 64.2483 26.0085C64.808 26.1138 65.371 26.2027 65.9208 26.3409C67.264 26.68 68.6895 26.5911 69.9933 27.2396C70.4476 27.4667 71.0863 27.5951 71.6295 27.6247C72.8411 27.6939 73.9374 28.158 75.0864 28.4378C76.0345 28.6682 76.9432 29.162 77.9506 28.8657C78.507 28.6156 79.1885 28.553 79.6362 28.1975C81.5128 26.6997 83.7845 25.5805 84.7326 23.1446C86.2635 21.446 86.3261 19.2735 86.6224 17.1897C86.7244 16.4688 86.5104 15.7479 86.359 15.0172C85.9508 13.0487 85.7861 12.3969 84.6701 10.6062C83.9787 9.50011 83.4585 8.27227 82.3885 7.44274C81.8914 7.0576 81.3778 6.68892 80.8083 6.26099H80.2453C77.4502 6.26099 74.6518 6.31037 71.8567 6.24782C69.0517 6.18198 66.25 6.40912 63.4318 5.98448C61.0482 5.62567 58.5922 6.11615 56.1659 5.63884C54.658 5.34258 53.081 5.76393 51.5271 5.31954C50.6645 5.07265 49.6735 5.31954 48.7451 5.26357C47.8562 5.21091 46.9739 5.01669 46.085 4.95415C44.1031 4.81918 42.1179 4.72701 40.1359 4.61838C40.0273 4.6118 39.8725 4.66447 39.8133 4.6118C39.2108 4.05219 38.4733 4.38796 37.805 4.2892C37.1367 4.19045 36.4684 4.07524 35.8033 3.96332C35.0297 3.83164 34.2659 4.08182 33.4461 3.69339C32.7383 3.35763 31.8164 3.56172 30.9637 3.36421C29.1793 2.95274 27.3159 2.90665 25.4953 2.63014C24.5537 2.48859 23.6352 2.2055 22.6673 2.31742C22.1339 1.7644 21.3866 2.20221 20.8434 1.95532C20.1685 1.64918 19.51 1.67552 18.7956 1.69527L18.7824 1.68539ZM11.4078 110.203C12.4185 110.371 13.2153 110.183 13.9758 110.571C14.3544 110.762 15.0392 110.736 15.3849 110.506C15.8194 110.219 16.2079 110.328 16.6162 110.282C17.4491 110.183 18.2722 110.249 19.1347 110.035C19.9084 109.844 20.771 109.63 21.6105 109.636C22.4665 109.643 23.2796 109.446 24.1126 109.33C24.9422 109.215 25.7752 109.186 26.6114 108.998C27.418 108.817 28.2674 108.942 29.1135 108.682C29.8905 108.445 30.7629 108.583 31.6057 108.346C32.3959 108.126 33.2551 108.205 34.1012 108.027C35.5531 107.727 37.0708 107.754 38.5622 107.648C38.7795 107.632 39.0659 107.734 39.2108 107.632C39.8429 107.178 40.554 107.253 41.2224 107.342C41.9565 107.438 42.536 106.993 43.2273 106.977C44.6134 106.944 45.9797 106.993 47.3821 106.72C48.9361 106.417 50.5657 106.578 52.1789 106.391C54.9609 106.065 57.7988 106.592 60.5972 106.025C61.282 105.887 62.0195 106.025 62.7306 105.999C63.4812 105.966 64.1265 106.371 64.8969 106.374C66.6055 106.381 68.3175 106.15 70.0394 106.621C71.2509 106.954 72.5711 106.885 73.8419 106.993C73.9999 107.006 74.2435 106.954 74.3061 107.039C74.6419 107.484 75.1094 107.25 75.5144 107.329C75.9127 107.408 76.2979 107.566 76.6963 107.648C78.0033 107.908 79.3301 108.02 80.5811 108.609C81.2593 108.929 82.0955 108.916 82.7606 109.034C83.3334 108.073 83.8997 107.273 84.3178 106.401C85.4635 104.011 86.7277 101.657 86.9648 98.9415C87.5804 98.4576 87.2216 97.6708 87.5738 97.0487C87.9096 96.4562 87.8405 95.6299 87.9524 94.909C88.0578 94.2408 88.2191 93.5758 88.2685 92.9043C88.3245 92.1406 88.2817 91.3703 88.2817 90.6033C88.2817 90.4947 88.2817 90.3828 88.2817 90.2742C88.2389 87.0087 88.5022 83.7268 87.643 80.5041C87.4026 79.5989 87.5343 78.585 87.2578 77.6962C86.9615 76.7482 86.9483 75.7573 86.6257 74.8356C86.1384 73.4399 85.7433 72.008 85.3812 70.5892C85.1013 69.4865 84.6273 68.4693 84.2783 67.4126C83.6166 65.3981 82.7145 63.4526 81.7959 61.5368C81.1112 60.1082 80.2716 58.7585 79.4189 57.4155C78.1712 55.4503 77.0913 53.383 75.5341 51.6252C75.3464 50.5323 74.3324 49.9563 73.8979 49.0115C73.4534 48.0437 72.9168 47.1154 72.4822 46.1411C71.7908 44.5873 71.2707 42.9414 71.1949 41.2593C71.0896 39.0045 70.9513 36.72 71.4978 34.4881C71.7744 33.3492 72.0114 32.1674 72.5283 31.1371C72.9201 30.3569 73.1209 29.5504 73.5291 28.7637C72.6303 28.6551 71.939 28.1185 71.1126 28.3226C68.9002 27.4305 66.4903 27.3713 64.2121 26.7228C63.4911 26.5187 62.668 26.4792 61.8911 26.3706C61.0614 26.2553 60.2318 26.2883 59.3857 26.0611C58.4869 25.8208 57.5124 26.0611 56.5576 25.7352C55.8695 25.5015 55.0333 25.7352 54.2695 25.676C53.5419 25.6233 52.8275 25.4225 52.0999 25.3699C50.118 25.225 48.1394 25.4653 46.1377 25.0901C44.5475 24.7938 42.8553 25.0736 41.2125 25.0176C39.5565 24.9617 37.9038 24.7345 36.2478 24.7148C32.2444 24.6687 28.2411 24.6983 24.2344 24.6983H19.9545C19.296 24.6983 18.6343 24.6555 17.9824 24.7115C17.3141 24.7675 16.5832 24.4284 15.9906 25.0012C15.4178 24.3626 14.6375 24.9024 14.0943 24.6917C13.6992 24.4482 13.4095 24.2276 13.0836 24.0762C11.128 23.1808 9.74854 21.7686 9.05058 19.7113C8.38555 17.7428 8.33287 15.7282 8.98144 13.7926C9.40614 12.5286 10.1436 11.3402 11.5198 10.7576C12.9585 10.1453 14.3149 9.68775 15.9972 10.1025C17.2351 10.4054 18.4927 10.8168 19.803 10.8925C20.2014 10.9156 20.5866 11.1197 20.985 11.202C21.3899 11.2876 21.7948 11.1263 22.2228 11.4192C22.4895 11.6003 23.0163 11.4423 23.4146 11.3731C23.7603 11.3172 24.0895 11.1756 24.4122 11.0769C24.4879 9.73054 23.7471 8.71008 23.329 7.65342C23.0261 7.75546 22.7858 7.90689 22.5488 7.9003C21.6006 7.87726 20.6162 8.1011 19.724 7.58429C17.8902 7.71925 16.0795 7.44274 14.2655 7.25511C14.0219 7.22878 13.7782 7.19915 13.4885 7.16623C13.5708 6.8996 13.6136 6.75476 13.6597 6.59675C14.789 6.59675 15.882 6.58688 16.975 6.59675C17.9824 6.60992 18.9767 6.72842 19.9742 6.84034C20.985 6.95556 22.0056 7.43616 23.1743 7.19257C22.3282 6.23136 22.1109 4.90148 20.8203 4.48342C20.3759 3.13708 19.0919 2.72231 18.0516 2.0837C17.0639 1.47801 15.9577 1.06983 14.9206 0.582643C14.3346 1.0007 13.7947 1.3233 13.3272 1.72819C12.7873 2.19233 12.3264 2.74535 11.8029 3.22595C11.3058 3.68351 10.7395 4.06865 10.2654 4.54267C9.78475 5.02327 9.39297 5.58946 8.93535 6.0964C7.46701 7.72913 6.20608 9.50011 5.20524 11.462C4.76408 12.3278 3.91139 13.0882 3.76983 13.977C3.54925 15.3727 2.52865 16.5149 2.65376 17.9765C1.85703 19.7343 2.00189 21.6567 1.69571 23.5034C1.54427 24.4185 1.96897 25.2777 2.00189 26.1632C2.05786 27.6412 2.60437 28.9875 2.91384 30.3964C3.29904 32.1575 4.1616 33.7277 4.72787 35.4131C5.07685 36.4533 5.58385 37.51 6.14682 38.4317C7.02915 39.8768 7.71393 41.4206 8.58308 42.869C10.1337 45.4597 11.5165 48.1425 13.1955 50.6673C14.3478 52.3988 15.4836 54.1632 16.8466 55.7037C17.7684 56.7505 18.3874 58.1627 19.7965 58.7585C20.2903 59.9666 21.4492 60.5855 22.2426 61.5269C22.9932 62.419 23.7932 63.2716 24.5406 64.1702C25.0772 64.8154 25.6698 65.4442 26.0418 66.1815C27.3357 68.7228 28.7151 71.218 29.074 74.1509C29.2156 75.3162 29.6995 76.4552 29.6798 77.6699C29.66 78.8977 30.1901 80.063 30.0287 81.3205C29.9267 82.1303 30.0518 82.9664 29.9958 83.786C29.9431 84.5662 29.7687 85.3398 29.6831 86.1199C29.5547 87.2786 29.4592 88.4406 29.3505 89.6026C28.7053 90.1227 29.0608 90.9029 28.8962 91.5448C28.5802 92.7891 28.0567 93.9478 27.6945 95.1691C27.046 97.3581 26.1044 99.1916 24.5406 101.43C23.5397 102.862 22.687 104.409 21.199 105.459C20.3759 106.039 19.7339 106.914 18.8615 107.388C17.4886 108.139 16.1684 108.995 14.5717 109.36C13.5873 109.587 12.5074 109.548 11.4078 110.213V110.203ZM3.66777 101.226C3.77641 100.001 2.75582 98.7769 3.66777 97.549C3.64143 96.1599 4.504 95.1822 5.19207 94.0038C6.81844 94.7313 8.34275 95.4159 9.81438 96.0743C10.6341 96.2521 11.421 95.992 12.2177 96.4035C12.6358 96.6207 13.4227 96.6932 13.877 95.9163C13.877 95.6398 13.877 95.2612 13.877 94.886C13.8671 92.9273 13.0836 91.3144 11.5955 90.0832C10.8119 89.4348 9.90327 88.9179 8.89255 88.6809C7.57237 88.3748 6.31802 88.5032 5.10977 89.2307C3.89164 89.9647 3.02249 91.0016 2.22906 92.134C1.1492 93.6746 1.07348 95.5114 0.708042 97.2626C1.20517 98.2074 1.00764 99.2904 1.34015 100.288C2.14346 102.688 3.28257 104.837 5.09989 106.638C6.1995 107.727 7.4308 108.58 8.97157 109.327C11.5099 109.228 14.1371 108.774 16.5668 107.431C18.6244 106.295 19.757 105.393 20.5932 104.139C19.9907 104.205 19.3224 104.36 18.6606 104.337C16.5108 104.261 14.3511 104.59 12.2078 104.047C11.1938 103.79 10.0448 103.975 9.09667 103.603C8.43164 103.343 7.74356 103.639 7.24643 103.326C6.63408 102.944 6.00526 103.152 5.42253 102.977C4.82993 102.385 4.2472 101.802 3.66447 101.223L3.66777 101.226ZM21.5315 103.333C22.3117 102.237 23.0229 101.282 23.6879 100.294C24.3727 99.2772 24.8237 98.1317 25.3735 97.0421C25.8937 96.0085 26.3184 94.8893 26.5719 93.7602C26.832 92.5883 27.3456 91.4493 27.3324 90.1787C26.055 90.4651 24.9258 90.8733 23.7076 90.8667C23.0854 90.8667 22.4401 90.6955 21.8475 91.1597C21.6566 91.3078 21.1035 91.2782 20.929 91.107C20.5339 90.7251 20.1125 90.8996 19.701 90.8601C18.4302 90.7416 17.1594 90.6428 15.8886 90.521C15.747 90.5079 15.6219 90.3433 15.4803 90.3268C14.6243 90.2412 13.8309 89.6586 12.8367 89.9779C14.9997 91.9003 15.0754 94.4087 14.8087 96.9005C14.7067 97.8486 14.3741 98.902 13.7256 99.7216C12.998 100.643 12.2144 101.526 11.4835 102.388C10.9239 102.345 10.4564 102.332 10.3378 103.036C10.8877 103.036 11.5132 102.862 11.9445 103.079C12.5206 103.369 13.0737 103.418 13.6367 103.346C14.3116 103.26 14.8614 103.705 15.477 103.682C17.5182 103.599 19.5858 104.011 21.5348 103.333H21.5315ZM18.4829 13.7663C18.3446 13.5062 18.259 13.3186 18.1536 13.1441C17.6466 12.3146 17.0639 11.5641 16.1157 11.1954C15.2104 10.8432 14.2523 10.6786 13.3272 10.9452C12.1617 11.2843 11.1082 11.9262 10.3774 12.9071C9.59051 13.9638 9.39627 15.2937 9.32055 16.5478C9.27775 17.2819 9.61355 18.0687 9.62343 18.8719C9.63002 19.2932 9.91315 19.731 10.1403 20.1227C10.4761 20.7021 10.8119 21.2979 11.2531 21.7884C11.7371 22.3249 12.3329 22.7595 12.9025 23.2137C13.0967 23.3684 13.3437 23.4639 13.5741 23.5659C14.3215 23.8853 17.0573 24.3362 17.6269 23.9939C18.3512 23.5528 19.2598 23.7931 19.9084 23.1248C21.2747 21.7225 22.7397 20.4157 23.4179 18.4966C23.6122 17.9501 23.8196 17.407 24.0467 16.7914C23.0426 16.7914 22.1175 16.7947 21.1957 16.7914C20.287 16.7849 19.3751 16.8145 18.4796 16.7717V13.7696L18.4829 13.7663ZM24.3562 15.7776V11.8472C22.2623 11.8768 20.2113 11.9525 18.1997 11.2283C19.2499 12.601 19.487 14.214 19.8952 15.7776H24.3595H24.3562Z" fill="#95C11F"/>
<path d="M25.4194 57.8862C26.7133 57.3003 27.747 57.4254 28.7051 57.2278C29.9331 56.9744 31.1874 57.1785 32.3529 56.9085C34.618 56.3851 36.8764 56.6649 39.1316 56.6551C40.9654 56.6485 42.7399 56.1053 44.5869 56.2699C45.8906 56.3851 47.2898 56.0296 48.5112 56.3654C49.8182 56.7242 51.0726 56.53 52.3401 56.6057C53.6504 56.6814 55.0035 56.4444 56.2776 56.6715C57.5583 56.902 58.8653 56.7275 60.0834 57.0106C61.2423 57.2772 62.3979 57.1719 63.56 57.3299V57.8862H25.4194Z" fill="#95C11F"/>
<path d="M69.9964 104.116C69.7231 104.297 69.677 104.353 69.6342 104.35C65.1206 104.113 60.6333 104.83 56.1229 104.702C55.2965 104.679 54.4636 104.946 53.6274 104.998C52.7549 105.054 51.8265 104.834 51.01 105.054C49.894 105.351 48.6989 105.054 47.7079 105.41C46.526 105.834 45.2618 105.288 44.1622 105.976C43.935 106.118 43.5399 105.996 43.1284 105.785L43.7803 105.627C44.7087 105.258 45.8346 105.123 46.9211 104.748C47.3129 104.613 47.7836 104.735 48.2083 104.669C48.61 104.61 48.9886 104.403 49.3903 104.36C50.7105 104.221 52.0734 104.281 53.3541 103.988C55.7772 103.431 58.2036 103.78 60.6234 103.708C63.0333 103.636 65.4465 103.665 67.8564 103.708C68.5116 103.721 69.1635 103.948 69.9931 104.113L69.9964 104.116Z" fill="#95C11F"/>
<path d="M47.721 49.6238C45.3704 49.7621 43.0197 49.9958 40.669 50.0188C35.0821 50.0781 29.4985 50.0089 23.9115 50.0682C23.0358 50.0781 22.2786 49.6567 21.4193 49.6995C20.56 49.7423 19.7008 49.7094 18.7822 49.7094C18.8645 49.5349 18.8777 49.4888 18.904 49.4592C18.9403 49.423 18.9896 49.3835 19.0324 49.3835C28.4515 49.3802 37.8706 49.3802 47.2897 49.3835C47.4412 49.3835 47.5926 49.423 47.7408 49.446C47.7342 49.5053 47.7243 49.5645 47.7177 49.6271L47.721 49.6238Z" fill="#95C11F"/>
<path d="M82.0162 83.1408C81.6672 83.2989 81.2985 83.6247 80.9726 83.5852C79.5042 83.4075 78.1182 84.0066 76.6663 83.9473C74.5132 83.8585 72.3963 84.3456 70.23 84.3193C68.0242 84.293 65.8743 83.6544 63.5303 84C64.1295 83.3021 64.7484 83.2561 65.4101 83.2791C66.2859 83.3087 67.1616 83.2857 68.0406 83.2857C70.1773 83.2857 72.3535 83.5359 74.4408 83.2166C76.5544 82.8907 78.6351 83.0849 80.7256 82.9598C81.1471 82.9335 81.5685 82.9565 81.9899 82.9565L82.0195 83.1408H82.0162Z" fill="#95C11F"/>
<path d="M71.1356 30.4656C70.5562 30.4656 69.9768 30.8935 69.4401 30.3931C69.3446 30.3043 69.1471 30.2977 68.9924 30.2911C67.8796 30.2549 66.7438 30.4425 65.6738 29.9586C63.3989 30.2121 61.17 29.5801 58.8984 29.5965C56.6531 29.613 54.4045 29.3496 52.1328 29.2081C52.574 28.7538 53.0974 28.6287 53.7164 28.6353C55.909 28.6584 58.1049 28.6189 60.2976 28.6584C61.0219 28.6715 61.7429 28.8624 62.4672 28.9711C63.1355 29.0731 63.8664 28.7242 64.4853 29.2838C64.6071 29.3924 64.91 29.3101 65.1306 29.297C66.8919 29.2015 68.538 29.9619 70.2895 29.9817C70.5759 29.9817 70.8591 30.2944 71.1422 30.4656H71.1356Z" fill="#95C11F"/>
<path d="M6.19263 10.537V10.8662H6.08398V10.537H6.19263Z" fill="#95C11F"/>
<path d="M29.3472 103.803H29.6764V103.912H29.3472V103.803Z" fill="#95C11F"/>
<path d="M23.6414 103.695V104.024H23.5327V103.695H23.6414Z" fill="#95C11F"/>
<path d="M41.5908 8.01222C42.3151 8.00564 43.0657 7.64683 43.7374 8.2229C43.8328 8.30519 44.0567 8.23277 44.2213 8.23607C45.0115 8.24923 45.7785 8.23607 46.5687 8.52904C47.2337 8.77263 48.0601 8.36774 48.7284 8.88784C48.7975 8.94051 48.9424 8.88784 49.051 8.89442C50.8157 9.00305 52.6198 8.92734 54.3351 9.26969C56.6067 9.72396 58.8915 9.24994 61.1105 9.60545C63.1089 9.92476 65.0843 9.83588 67.0728 9.87538C69.0481 9.91488 71.0235 9.85234 72.9955 9.89842C73.7758 9.91488 74.5462 10.1453 75.3297 10.2013C76.1297 10.2572 76.9396 10.2144 77.7396 10.2934C76.5215 10.7609 75.2869 10.8991 74.0095 10.8893C69.621 10.8498 65.2324 10.8432 60.8438 10.9024C59.9681 10.9156 59.201 10.5173 58.345 10.5403C57.4693 10.5634 56.5244 10.7444 55.731 10.4909C54.9277 10.2342 54.0882 10.4514 53.4001 10.1683C52.5968 9.83588 51.8001 10.0696 51.0527 9.8655C49.3441 9.39807 47.5465 9.50341 45.8477 8.93722C45.1827 8.71338 44.4057 8.76934 43.6814 8.63766C42.9604 8.50928 42.2921 8.21961 41.5908 8.0221V8.01222Z" fill="#95C11F"/>
<path d="M56.9656 23.4046C56.9853 23.612 56.9952 23.7174 57.0149 23.928C56.8339 23.961 56.5935 24.0893 56.4651 24.0169C55.7211 23.5923 54.9145 23.7009 54.1276 23.7075C51.9745 23.724 49.8543 23.1413 47.688 23.375C46.5094 22.8615 45.2123 23.2927 44.0567 22.9965C42.6048 22.6245 41.1463 22.9668 39.7504 22.6805C37.8706 22.2953 35.9578 22.6739 34.1404 22.3216C32.626 22.0287 31.1478 22.1966 29.663 22.055C28.9914 21.9892 28.3329 21.8015 27.6613 21.7456C27.0259 21.6896 26.3806 21.7324 25.7354 21.4954C25.9197 21.4658 26.1041 21.4098 26.2884 21.4098C30.3972 21.4032 34.5125 21.2782 38.6146 21.4691C40.2607 21.5448 41.9464 21.5349 43.5661 21.795C44.7941 21.9925 46.0287 21.874 47.2106 22.1143C48.1061 22.2953 49.0082 22.2492 49.8708 22.4303C50.707 22.608 51.586 22.5554 52.3531 22.7825C53.1564 23.0228 53.9927 22.8154 54.6807 23.1018C55.4248 23.4112 56.1359 23.3125 56.9688 23.4112L56.9656 23.4046Z" fill="#95C11F"/>
<path d="M19.4703 104.903H19.1411V104.794H19.4703V104.903Z" fill="#95C11F"/>
<path d="M26.44 92.7002C22.9304 94.1289 19.4472 94.2375 15.9048 93.0656C16.4085 92.901 17.7649 92.6574 17.9591 92.8516C18.4793 93.3849 19.0851 93.1051 19.6448 93.1512C20.2407 93.1973 20.8497 93.2072 21.4423 93.1512C22.0119 93.0919 22.5683 93.2927 23.1741 92.98C23.6514 92.7331 24.3263 92.8385 24.9124 92.8451C25.4095 92.8483 25.8013 92.1505 26.44 92.7035V92.7002Z" fill="#95C11F"/>
<path d="M25.067 96.3442H24.7378V96.2356H25.067V96.3442Z" fill="#95C11F"/>
</g>
<defs>
<clipPath id="clip0_282_17332">
<rect width="90" height="112" fill="white"/>
</clipPath>
</defs>
</svg>
