<svg width="60" height="132" viewBox="0 0 60 132" fill="none" xmlns="http://www.w3.org/2000/svg">
<g clip-path="url(#clip0_282_17349)">
<path fill-rule="evenodd" clip-rule="evenodd" d="M33.869 128.74C33.2232 128.624 32.9294 128.603 32.5396 128.218C32.8363 127.803 33.965 127.07 34.4595 126.792C35.8354 126.021 35.3438 126.091 36.8419 126.27C36.4434 126.541 36.4725 126.6 36.1787 126.836C35.5591 127.33 35.6958 126.903 34.2704 128.308C34.0639 128.51 34.1046 128.527 33.869 128.74ZM9.524 125.367C8.51168 125.341 8.68622 125.186 8.50587 125.028C8.52332 124.111 9.37273 124.856 9.524 125.367ZM7.49937 124.517C7.92117 124.795 8.01716 124.801 8.16552 125.326L6.84195 124.97L7.49646 124.517H7.49937ZM47.3025 123.848C47.7825 124.514 47.6545 127.523 47.6138 128.539C45.7521 129.059 43.9921 129.281 41.633 129.033C41.8599 128.714 42.2293 128.18 42.6104 127.911C43.6256 127.193 42.9856 128.077 43.8176 126.93L44.4227 127.239C44.2394 126.62 44.2918 126.55 44.7165 126.159C45.8219 125.145 46.4735 125.332 46.7935 124.859C47.0465 124.488 46.776 124.403 47.0291 124.062C47.1629 123.886 47.1542 123.945 47.2967 123.848H47.3025ZM16.1506 127.286C16.4531 127.006 18.8995 126.194 19.173 126.378C18.757 126.772 17.832 126.804 18.6465 127.292C19.2835 127.674 19.9177 127.225 20.3133 126.938C20.9824 126.454 22.3932 125.703 23.1466 125.545C22.6928 126.871 21.5438 126.547 21.3285 127.832C22.7946 128.039 22.9866 127.295 23.6499 126.912C24.4644 126.445 25.6425 125.989 26.6315 126.048C26.2941 126.518 25.401 127.084 24.9822 127.555C25.0665 127.634 24.9065 127.712 25.3778 127.829C25.8287 127.943 25.8374 127.853 26.9719 127.21C27.6526 126.825 27.4286 126.547 28.3682 126.255C28.4205 126.237 28.5893 126.208 28.6416 126.191C28.9761 126.08 28.7696 126.197 28.9994 126.042C29.2758 125.855 29.3863 125.487 29.715 125.239C30.0874 124.958 30.1543 125.043 30.6866 124.707C31.5593 124.155 31.6146 123.822 32.7927 124.284C31.8822 125.353 29.9506 126.115 29.0285 127.038C29.0169 127.049 28.9849 127.084 28.9703 127.096L28.1965 127.759C28.182 127.771 27.7369 128.08 27.6904 128.101C26.5472 128.586 26.1457 127.727 24.9589 128.238L25.2032 128.329C25.2352 128.334 25.2963 128.355 25.337 128.364L27.5682 128.635C25.8316 128.986 24.0804 128.586 22.4456 128.571C21.314 128.559 14.635 128.688 16.1506 127.286ZM11.0308 124.015C11.6621 123.647 11.3857 124.003 11.4032 124.015C11.3712 124.035 11.3246 124.082 11.3101 124.088C11.1297 124.14 11.217 124.14 11.0308 124.015ZM19.7199 124.859C20.5576 124.234 21.6165 123.781 22.9604 123.618C22.7539 123.907 23.0652 123.697 22.6114 124.009C22.4194 124.14 22.4746 124.067 22.2623 124.164C21.7241 124.403 20.6624 124.967 20.0515 124.967C19.5511 124.967 19.845 124.92 19.7199 124.859ZM24.4964 124.485C25.2731 123.606 25.9945 123.816 26.9573 123.364C26.8817 124.152 27.1231 123.46 25.9363 124.313C25.372 124.722 25.2498 124.806 24.4964 124.485ZM40.2483 129.076L38.5291 129.015C38.7008 128.378 39.6084 127.8 40.4985 127.125L43.7652 124.841C44.2976 124.459 44.3267 124.438 44.8968 124.123C45.6532 123.705 46.5956 122.896 47.4683 122.838C47.4654 124.094 47.3433 123.358 45.7404 124.462C44.9666 124.996 44.6845 125.423 43.9281 126.018C43.5383 126.325 40.7748 128.933 40.2512 129.076H40.2483ZM6.37942 123.784C6.07689 123.483 5.31475 123.732 5.27111 123.22C6.06816 123.18 6.71686 123.285 6.37942 123.784ZM27.5973 122.435C28.2373 122.149 28.5311 122 29.5085 121.985C29.0634 122.867 28.3653 123.031 27.5973 122.435ZM7.23756 122.756C6.88267 122.438 6.87976 122.569 6.91467 122.09C7.61864 121.93 7.58664 122.283 7.23756 122.756ZM46.2902 122.017C47.8552 121.781 47 121.816 47.3113 121.991C47.1105 122.376 46.8516 122.52 45.7753 122.826C45.9848 122.376 46.0255 122.508 46.2902 122.017ZM37.9823 125.367C38.2179 124.622 38.4448 124.599 38.9946 124.269C40.356 123.445 40.2658 123.393 41.3508 122.607C41.4992 122.499 41.8279 122.248 41.9501 122.175C42.43 121.877 42.0082 121.909 42.7267 122.029C42.334 122.613 41.1821 123.311 40.513 123.775C39.9312 124.178 38.6426 125.227 37.9823 125.37V125.367ZM30.5033 128.399L29.3223 128.264C29.5288 127.636 30.0961 127.42 30.5993 127.137C32.0422 126.334 31.7076 126.784 32.1847 127.046C32.7723 125.931 32.7171 125.747 33.5723 125.233C33.9883 124.982 34.2064 124.803 34.5788 124.564C35.3817 124.044 35.1373 124.386 35.8209 124.123C36.4027 123.901 36.0362 123.913 36.6092 123.399C37.3452 122.739 39.1895 121.813 39.9458 121.652C39.6811 121.97 36.0042 124.666 35.3351 125.157C34.7388 125.592 30.899 128.402 30.5033 128.402V128.399ZM32.3534 123.34C32.9934 122.417 34.3897 122.119 34.9424 121.895C35.4049 121.708 35.0122 121.83 35.3846 121.658C35.9314 121.407 36.0565 121.48 36.7867 121.486C36.4841 121.97 35.1984 122.727 34.6457 123.115C34.2733 123.375 33.9068 123.746 33.5636 123.746C33.3628 123.746 32.5076 123.416 32.3534 123.34ZM28.8132 124.348C27.0242 124.777 27.6642 124.999 26.9777 124.687C27.382 123.711 30.8146 122.365 31.184 122.143C32.2022 121.535 30.5615 121.512 33.7206 121.474C33.4996 121.97 33.4967 121.883 33.0225 122.154C32.6763 122.353 32.5018 122.444 32.1818 122.657C31.1899 123.314 30.0234 124.056 28.8132 124.345V124.348ZM10.6818 121.824C11.0628 121.275 10.5596 121.515 11.1937 121.31C11.0628 121.81 11.3625 121.64 10.6818 121.824ZM6.2747 120.942L5.40492 121.334C5.2333 121.141 5.31766 121.363 5.29148 121.027C5.29148 121.01 5.33511 120.975 5.33511 120.925C5.33511 120.869 5.38165 120.858 5.40492 120.823C5.55328 121.042 6.24561 120.598 6.2747 120.939V120.942ZM11.5254 121.138C11.6853 120.715 11.729 120.758 12.1944 120.639C12.0344 121.264 12.1886 121.091 11.5254 121.138ZM37.7379 120.791C37.8077 120.472 37.607 120.452 38.0957 120.326C38.7793 120.148 38.5262 120.452 38.5728 120.487L37.7379 120.791ZM39.9487 120.761C40.3327 120.268 39.8672 120.776 40.4839 120.37C41.1385 119.941 41.0163 119.862 42.0315 120.019C41.6824 120.314 40.5014 121.091 39.9487 120.761ZM11.0163 119.961C11.1879 119.853 11.1705 119.733 11.5195 119.961C11.3217 120.116 11.5661 120.06 11.2199 120.093C10.452 120.166 11.5079 120.338 11.0163 119.961ZM34.0261 119.961C34.2646 119.532 34.6399 119.354 35.0355 119.126L35.4456 119.97L34.0261 119.961ZM9.16911 119.961C9.26219 119.412 9.16329 119.771 9.3611 119.307C9.89343 119.587 9.58218 119.295 9.93998 119.719C9.58799 120.049 10.004 119.938 9.17201 119.961H9.16911ZM12.5435 120.294C12.814 119.719 13.2911 119.257 13.8554 119.137C13.838 119.882 13.3434 120.195 12.5435 120.294ZM5.23621 118.971C4.69805 118.524 5.23039 118.574 5.23621 118.562C5.34384 118.784 5.40492 118.714 5.23621 118.971ZM11.889 119.424C12.206 118.845 12.3719 118.542 13.0089 118.299C12.91 119.032 12.4882 119.161 11.889 119.424ZM10.8592 119.292C10.5247 119.275 10.4694 119.359 10.2978 119.19C9.90216 118.802 10.3269 119.015 10.3385 118.965L10.4112 118.79C10.417 118.583 10.2367 118.416 10.1727 118.276C10.7574 118.472 10.833 118.571 10.8592 119.292ZM14.1085 119.222C14.1696 118.863 13.9921 118.997 14.6059 118.664C14.8968 118.507 15.1063 118.399 15.3826 118.282C15.1615 118.769 14.6787 119.105 14.1085 119.222ZM13.3813 118.267C13.454 117.42 13.2707 118.071 13.6314 117.695C13.966 117.344 14.5274 116.839 14.9637 116.848C15.0103 117.049 15.2924 116.547 14.9696 117.175C14.8503 117.406 14.5623 117.444 14.2743 117.663C13.8205 118.01 14.0212 118.031 13.3813 118.267ZM10.385 117.058C10.3618 117.02 10.2891 116.886 10.2629 116.845C10.1523 116.655 10.1058 116.57 10.0127 116.421C10.2338 116.12 10.3763 115.957 10.7632 115.837C11.185 116.123 11.0774 116.004 11.3595 116.421C11.1792 116.851 10.8999 117.108 10.5189 117.26C10.4956 117.227 10.4665 117.181 10.452 117.16C10.4403 117.14 10.4025 117.084 10.388 117.058H10.385ZM12.4155 117.265C12.206 116.614 12.1566 117.005 12.3893 116.605C12.6657 116.129 13.4249 115.609 14.3732 115.922C14.3209 116.734 13.4074 117.33 12.8722 117.517C12.0286 117.812 12.9275 117.966 11.3566 118.781C10.9232 118.483 10.929 118.512 10.6818 117.94C11.0861 117.362 11.6504 117.035 12.4155 117.268V117.265ZM11.1879 115.408C11.4294 115.043 11.5486 115.025 11.8861 114.762C12.2002 114.517 12.177 114.464 12.558 114.196L13.198 114.733C13.07 115.481 12.7297 115.668 12.1944 115.84L12.0082 115.887C11.5864 116.015 12.1217 116.17 11.5777 115.998C11.2577 115.896 11.2665 115.729 11.1879 115.411V115.408ZM6.46087 114.733C6.46087 114.359 6.35324 114.66 6.65868 114.666L6.74304 114.713C6.8274 115.019 6.46087 114.996 6.46087 114.73V114.733ZM9.47745 114.316C9.61417 114.348 9.48327 114.213 9.78871 114.505C9.556 114.719 9.69563 114.619 9.30583 114.745L9.47745 114.316ZM8.76767 113.638C8.67458 113.91 8.61059 113.793 8.46514 113.886C8.23824 113.302 8.27024 113.544 8.66877 113.209C8.7124 113.282 8.99457 112.963 8.76767 113.638ZM9.6869 113.749C10.0767 112.779 10.1465 112.595 10.6265 112.379L10.9087 112.251C10.9232 112.204 10.9814 112.213 11.0192 112.201C11.3305 112.654 11.633 112.896 11.9559 113.308C11.6243 113.986 11.9937 113.396 11.5864 113.784C10.8941 114.45 11.2781 114.295 11.0861 114.66C10.7487 115.294 10.8999 114.71 10.8534 114.675C10.6236 114.403 11.1879 113.796 11.1588 112.931C10.4316 113.769 10.7574 113.67 10.1785 113.974L9.6869 113.743V113.749ZM13.3696 114.564C12.942 113.921 12.782 114 13.4365 113.296C14.315 112.35 13.6227 112.616 14.3238 112.143C14.8008 111.818 15.3303 111.78 15.915 111.994C16.1855 112.093 17.2124 112.455 17.3287 112.537C16.8109 113.103 15.7055 113.956 14.9434 113.974C13.5325 114.009 14.5623 114.5 13.3696 114.564ZM19.0072 114.996C19.7955 114.447 20.2406 114.137 21.1278 113.577C21.6747 113.232 21.6049 113.176 22.2536 112.852C24.3364 111.804 23.9291 112.178 26.8061 112.204C26.6054 112.776 24.3015 114.137 23.8098 114.418C22.7714 115.008 19.2719 117.625 17.8436 118.542C15.8073 119.847 15.6182 120.522 14.7485 119.789C15.0714 119.222 15.0743 119.418 15.6822 119.085C16.1506 118.828 16.1564 118.705 16.6015 118.451C16.424 117.373 15.8655 117.978 16.5869 117.277C17.3578 116.529 16.8836 116.76 16.7324 116.415L19.0101 114.996H19.0072ZM19.2515 112.54C21.0056 112.54 20.2667 112.376 22.1081 112.37C21.6456 113.068 16.0051 116.743 15.2372 116.737C15.3943 115.481 15.7811 116.696 15.8917 115.408C14.9463 115.484 15.5455 115.636 14.9085 115.811C14.3849 115.954 14.3267 115.793 14.5012 115.396L17.2705 113.08C17.9832 112.619 18.1723 112.54 19.2486 112.537L19.2515 112.54ZM6.98739 112.543C7.00194 112.277 6.96412 111.997 7.07466 111.783C7.3161 111.325 7.06593 111.672 7.49355 111.526C7.44119 112.195 7.38301 112.227 6.98739 112.543ZM18.2858 111.693C18.2596 111.742 18.4079 112.438 17.1891 111.918C16.6946 111.707 17.0902 111.853 16.8633 111.693H18.2887H18.2858ZM9.1022 112.952C8.75894 111.962 9.45418 111.401 9.87307 110.878C10.3356 111.284 10.3472 111.065 10.5218 111.696C10.1203 111.83 10.2454 111.751 10.0505 112.073C9.97779 112.195 9.85853 112.949 9.1022 112.952ZM5.81509 112.09C5.94599 111.453 5.86454 111.664 6.32124 111.357C6.22234 112.005 6.32124 111.859 5.81509 112.09ZM8.52332 111.004C8.63677 110.352 8.72113 110.098 9.05566 109.739C9.74799 110.361 8.98875 110.519 8.52332 111.004ZM45.9586 108.831C45.7084 108.124 46.0284 107.397 46.3484 107.309L46.9622 107.481C46.8284 108.138 46.4793 108.568 45.9586 108.831ZM59.0518 105.355L59.0605 112.709C57.6409 115.51 58.7463 115.866 58.4438 119.21C58.31 120.688 58.0773 123.545 57.0679 124.371C56.3755 124.935 53.6411 126.451 52.9255 126.778C50.0224 128.113 48.9344 130.735 48.9228 127.181C48.9112 123.907 48.5592 125.119 49.7111 124.581C50.098 124.4 49.9497 124.4 50.3482 124.196C51.6834 123.515 52.6812 124.006 53.8593 123.942C54.4585 123.91 54.4818 123.875 54.7785 124.1C54.8745 124.173 55.0025 124.333 55.0054 124.336C55.4534 124.149 55.7821 123.927 56.201 123.735L55.4854 123.381C55.3574 123.343 54.9414 123.264 54.796 123.235C54.1153 123.095 53.9029 122.993 53.4666 122.888C52.3321 122.616 51.7387 122.704 50.6653 123.004L51.2296 123.568C50.8631 123.79 49.4348 124.243 48.9839 124.351C48.9257 123.13 48.7919 122.26 48.8094 120.992C48.8326 119.062 48.9635 110.674 48.8239 110.022C53.2804 110.709 58.1209 107.572 59.0576 105.358L59.0518 105.355ZM6.03617 103.833C5.86454 104.076 5.94599 103.906 5.64928 103.942C5.66964 103.387 5.754 103.527 6.02162 103.547C6.05362 103.647 6.37651 103.354 6.03326 103.833H6.03617ZM5.98962 101.579C5.94017 102.283 5.91399 102.294 5.48637 102.583C5.41365 102.44 5.40783 102.548 5.38165 102.256C5.31184 101.43 5.75109 101.602 5.98962 101.576V101.579ZM5.37293 100.174C5.29147 99.6687 5.28566 99.692 5.48347 99.3094C6.00126 99.4263 6.05362 99.2685 5.87617 99.7534C5.73654 100.133 5.66091 100.051 5.37293 100.174ZM5.14894 89.6042C5.13148 90.5447 5.20712 89.5984 4.98022 90.0131C4.50315 89.0814 4.98022 89.0668 4.98022 89.0639C5.11112 89.2946 5.16639 88.6988 5.14894 89.6042ZM5.80345 83.3687C5.79181 82.9102 5.99253 83.1 6.07107 83.3746C6.17871 83.7513 5.80927 83.6053 5.80345 83.3687ZM4.47406 74.2623C4.4537 73.7891 4.54969 73.9351 4.8115 73.757C4.81441 73.7628 5.60855 74.1688 4.49733 74.9077L4.47406 74.2623ZM44.2801 72.7435C44.2627 71.4205 45.5601 70.2289 46.1331 69.9748C46.4764 70.8831 46.0953 70.851 45.4612 71.5578C45.0074 72.063 44.8416 72.3697 44.283 72.7435H44.2801ZM5.55328 70.4362C5.54746 70.4158 5.50674 70.4947 5.41074 70.5385L5.30602 69.8697H5.66091C5.65218 70.1296 5.66964 70.0829 5.61146 70.3311C5.60564 70.3574 5.5591 70.4567 5.55328 70.4362ZM6.31833 70.3866C6.35906 69.8229 6.40269 69.855 6.67614 69.5571C6.8594 69.3585 6.98448 69.1921 7.33065 69.0344C7.22302 69.8025 6.94376 70.2143 6.31543 70.3866H6.31833ZM5.4951 68.6897C5.2013 68.0501 5.16057 68.1553 5.65218 67.8515C5.78018 68.056 5.92272 67.4893 5.76563 68.2954C5.73654 68.4473 5.54746 68.6284 5.49219 68.6897H5.4951ZM6.0798 56.7269C6.34742 56.0259 6.3067 56.1019 6.77213 55.7719C6.86231 56.5604 6.8274 56.6626 6.0798 56.7269ZM19.109 46.7559C19.141 46.1543 18.9025 46.3996 19.6064 46.2419C19.3068 46.753 19.6093 46.4522 19.109 46.7559ZM23.9495 46.0842C24.5313 45.7483 23.2921 46.2623 24.1473 46.0229C24.1618 46.017 24.2346 46.0696 24.2462 46.0345C24.2578 45.9995 24.3131 46.0521 24.3451 46.0608C24.412 46.569 24.1037 46.6566 23.6644 46.4025C23.7604 46.2273 23.7662 46.1922 23.9524 46.0842H23.9495ZM22.4368 46.1134C22.5823 45.5672 22.5241 45.7921 22.879 45.3453C23.1932 44.951 22.9866 45.1145 23.4084 44.8137L23.4201 45.5614L22.4368 46.1134ZM15.5455 127.537C15.2372 127.844 14.4838 128.197 14.0183 128.171L11.0047 128.013C10.9668 128.013 10.9203 128.013 10.8825 128.013L8.34005 127.888C4.8755 127.905 1.94036 128.305 1.95782 124.178L2.14108 124.079C2.41452 123.682 1.56511 76.2249 1.86764 63.1376L2.05381 60.5675C2.17308 59.8636 2.02182 60.2404 2.05381 59.5161C2.15854 56.9518 6.33288 49.7408 8.68622 48.6456C9.09638 48.4557 9.30583 48.4791 9.60545 48.2192C9.89343 47.9709 9.90216 47.8132 10.3821 47.489C10.9959 47.0743 11.6068 46.6917 12.2031 46.2945C12.7209 46.4317 12.4359 46.1543 12.7064 46.7793C12.7238 46.7501 12.7326 46.6595 12.7384 46.6829C12.7471 46.7384 12.8082 46.4113 13.1805 46.201L15.6822 44.8867C15.947 44.7261 16.0575 44.6823 16.3455 44.5246L18.6174 43.4381C20.0166 42.8014 19.1584 42.5415 21.2732 42.5678C21.4071 42.7897 21.3634 42.5152 21.3634 42.889C21.3634 43.0205 21.3169 43.2015 21.2645 43.4878L22.5037 43.038C22.2536 43.5929 22.0907 43.5666 21.7794 44.0836L22.2419 44.3055C22.5648 44.6356 22.4688 43.7711 22.4485 44.9276C21.7765 44.9422 21.631 45.0386 21.1656 45.3277C20.7264 45.5994 20.5198 45.7133 20.0951 45.9381C20.5489 44.7378 19.5861 46.9049 20.3569 45.5234C20.5256 45.2197 20.5198 45.4212 20.5984 44.9276C20.2406 45.0094 20.1795 45.1145 19.8915 45.2343C19.557 45.3716 19.9409 45.281 19.5715 45.3365C19.1904 45.392 19.3999 45.3219 19.2137 45.3307C18.4312 45.3716 18.5563 45.8126 17.925 45.8009L15.2255 45.7746C15.5193 46.5894 15.2983 45.6315 15.5281 46.4142C14.5739 46.7734 13.2707 46.8552 12.462 47.5503C11.8861 48.0468 11.8395 48.4878 10.9843 49.1041C10.0505 49.7758 9.71017 50.7659 8.48841 51.169C8.68913 50.5352 8.83458 50.7367 9.01493 49.989C8.31096 50.3454 7.95316 51.0346 7.42664 51.7677L6.69359 52.7169C6.15834 53.5463 3.69155 58.1142 3.59847 59.1101C4.13953 59.4109 3.67701 58.8706 4.07844 59.446C3.58974 60.401 3.5781 60.5763 3.51992 61.1224C3.45011 61.7591 3.39193 61.286 3.31339 61.8643C3.16794 62.9303 3.79337 62.0804 3.45593 63.1931C3.22612 63.9466 3.10976 63.4355 3.32793 64.4139C3.89809 66.9666 3.53156 69.119 3.32503 71.7447C3.28139 72.3025 3.28139 73.0327 3.29594 73.5964C3.60138 79.7442 3.45011 85.9097 3.48211 92.0663C3.53156 102.353 3.27266 118.007 3.88354 118.445C3.49956 118.603 3.36866 118.743 3.04867 119.137C4.73877 120.551 3.41229 122.058 3.86609 123.215C4.14244 123.837 4.27916 123.428 4.66605 124.1C5.16639 124.97 4.59333 124.903 5.07039 125.525C5.68418 126.176 7.83099 125.826 8.50877 125.688C8.37787 126.202 8.38369 126.071 8.09279 126.541C9.00039 126.334 8.49714 125.975 9.34655 126.369C9.53272 126.027 9.33201 126.071 9.68108 125.694C10.3938 125.884 10.5509 126.115 11.0163 126.544C11.6068 126.162 11.2345 126.112 12.1101 126.033L11.8512 125.916C11.6126 125.753 11.5108 125.983 11.3945 125.361C11.8337 125.104 12.3922 125.496 12.8344 125.735C14.2074 126.48 13.0933 126.211 15.2284 126.202C14.923 127.438 14.9463 126.816 15.5484 127.54L15.5455 127.537ZM23.708 36.6681C23.9524 35.6518 24.8949 35.6371 25.7239 35.0706C26.3988 34.6091 25.5087 34.7814 26.4744 34.6587C26.1341 35.237 26.3959 34.7551 25.8752 35.2195C25.6919 35.3831 25.4825 35.6518 25.2731 35.7978C24.9676 36.011 24.8542 35.9993 24.5313 36.2271C24.0571 36.563 24.4033 36.49 23.7109 36.6681H23.708ZM49.365 46.6303C53.6411 49.8226 57.2744 55.5966 56.6868 61.4408C56.6432 61.8496 56.5006 62.2556 56.3901 62.6411C56.0846 63.7013 56.9486 67.8252 56.8264 69.1629C56.7043 70.4801 56.5326 69.7207 56.5414 71.9199C56.5443 72.7757 56.7944 76.2775 56.9632 77.0456C57.3006 78.5672 57.3849 83.9967 57.2831 85.419C57.0882 88.1264 57.4315 88.7251 57.3704 90.2877L57.3209 94.727C57.3006 95.9741 57.382 98.9064 57.2744 99.4409C57.2017 99.7913 57.4489 101.202 57.4751 101.754C57.5042 102.388 57.3879 103.22 57.3849 104.12C58.1791 106.053 51.442 109.911 49.557 109.581C48.8006 109.537 48.7803 109.593 48.6465 109.006C48.2072 107.058 48.3148 94.9986 48.3148 92.6534C48.3148 90.1679 47.9919 87.8519 47.9803 85.5767C47.9687 83.1643 48.0181 80.6672 47.7912 78.3394C47.5731 76.073 47.4771 73.646 47.4742 71.2394C47.8 71.0554 47.6051 71.4585 47.9774 71.2394C47.9774 70.2961 47.4596 67.1418 47.2705 66.213C46.8865 64.3322 47.384 65.2288 46.5026 61.7562C46.1971 60.5558 46.6073 60.6055 46.2728 59.4723L45.7462 57.2906C45.5048 56.3793 45.4263 57.0628 45.2721 56.3151C45.1354 55.6492 45.5921 56.1574 45.1528 55.6813C44.8386 55.3396 44.9201 55.6813 44.539 54.9541C44.3732 54.6387 44.2452 54.2911 44.1172 54.0428C44.3965 53.266 44.1376 54.037 44.3121 53.7829C44.3296 53.7566 44.3587 53.8939 44.4547 53.5347C42.8257 52.5125 43.9921 52.1824 42.5988 51.3559C41.9064 50.947 41.0425 50.1205 40.7632 49.2618C42.3631 49.8605 44.0416 51.9721 44.7892 52.1999C44.126 51.0843 42.2671 49.77 41.1763 48.9026C40.4985 48.3652 37.8775 46.4142 37.5546 45.7775C36.9554 44.5947 38.1597 45.2752 37.6448 43.8061C37.383 43.0613 37.7379 43.6805 38.343 42.2611C37.7117 42.4042 37.6972 42.5444 37.319 42.9913L36.3445 44.2033C35.9954 44.7203 36.3707 44.361 35.3351 44.84C34.285 45.8272 33.549 46.201 33.5897 47.0743C34.4857 47.1648 34.1133 47.1882 34.3839 46.6362C35.2275 44.9247 35.5358 45.8681 35.8064 45.0152C36.3387 45.9498 36.1176 44.7816 37.0659 45.9411C37.5139 46.4872 37.7524 46.7384 38.1917 47.1736C38.6484 47.6263 39.0207 47.8628 39.5909 48.298C40.5858 49.0574 39.8847 48.6835 40.3327 49.5597C40.5974 50.0796 41.9675 51.8612 42.3922 52.3985C43.1195 53.3244 43.7478 54.2006 43.9863 55.5557L43.6722 55.4886C43.6518 55.4886 43.5994 55.4827 43.5762 55.4856C43.2067 55.509 43.4336 55.398 43.1573 55.6287C43.3638 55.8653 44.4663 58.453 44.7136 59.0079C45.1499 59.9834 45.4233 60.8742 45.7084 61.8847L46.2931 63.8503C46.392 65.1061 45.7026 63.6487 45.9179 66.6278C46.011 67.9099 46.2466 67.4426 45.4437 68.1786C45.0045 68.5817 44.7921 68.9672 44.1347 69.195C44.126 68.0151 44.9725 67.9304 45.2924 66.952C44.4518 67.3375 43.8874 68.3801 43.4423 69.046C43.6082 69.4491 43.486 69.1512 43.7507 69.417C44.6583 70.3165 43.454 68.9438 44.0358 69.6448C43.8991 69.8317 43.5645 70.1617 43.4889 70.299C43.2096 70.7896 43.4249 70.8919 43.4482 70.9357C44.0649 70.6933 43.7682 70.7604 44.0794 70.188C44.3645 69.6623 44.219 69.8667 44.7019 69.4695C45.9557 68.4415 45.0365 68.4444 46.0255 68.202C46.2495 70.2552 45.9091 69.3585 44.5099 71.1314C44.2045 71.5198 42.7937 73.1349 44.2889 72.7581C44.0358 73.8037 43.8001 73.1057 43.7827 74.2827C44.1812 74.2477 44.2481 74.2243 44.4838 74.1396C44.2569 73.7424 44.4023 74.1513 44.2889 73.6051C44.5885 73.1583 44.8299 73.0093 45.2023 72.4982C45.5484 72.0251 45.6182 71.7505 46.136 71.5169C46.6364 71.8411 46.2902 71.33 46.5287 72.0163L46.6393 73.941C46.6858 76.5199 46.8022 75.0537 46.1128 76.3038C46.1419 76.3184 46.1942 76.3184 46.2088 76.3213L46.8051 76.4732C46.9913 78.6928 46.9331 77.7407 46.1215 78.6519L45.8219 79.0258C44.9346 79.9107 45.7404 78.871 44.7223 80.2816C44.3907 80.7431 44.2307 80.708 43.8816 81.1169C43.3347 81.7624 43.742 81.8471 42.9944 82.5977C42.7238 82.8693 42.4562 83.0445 42.4359 83.8915C43.1602 83.7046 42.8867 83.6812 43.2504 83.1117C43.8525 83.9032 42.8751 83.6725 43.614 83.8974C43.7594 83.3716 44.0271 83.211 44.3616 82.7817C44.6408 82.4254 44.8648 82.1596 45.1266 81.8617C44.5652 82.0165 44.6292 82.0983 44.2307 82.5013C43.5063 83.2315 43.1165 83.2198 43.6925 82.3085C43.8787 82.0136 43.9572 81.923 44.0998 81.6777C44.4808 81.0176 45.3274 79.9049 45.8335 79.3733C46.2582 78.9294 46.424 78.5848 46.8022 78.246C47.2065 79.6712 47.128 81.5433 47.1862 83.2198C47.2036 83.7104 47.2734 84.02 47.2705 84.4026C47.256 85.5125 46.6596 85.3606 46.1244 85.898C45.9935 86.0294 45.7317 86.3565 45.5455 86.5843C46.4502 86.3302 46.2728 85.9564 47.1454 85.7432C47.1396 86.669 47.0902 86.5814 46.8865 87.3495C46.6306 88.3162 46.9273 87.9804 46.1331 88.4506C46.1709 88.474 46.2291 88.4886 46.2553 88.5002L46.5986 88.6696C46.8807 88.877 46.6364 88.5411 46.84 88.9237C47.0058 89.2333 46.8807 90.3928 46.9564 91.3186C47.0145 92.0313 47.1076 92.6387 47.1251 93.0856C47.1716 94.3882 46.9942 93.8858 46.8051 94.7299C47.224 94.8263 47.032 94.5751 47.1367 95.022V96.5348C46.7702 96.7626 46.5986 96.824 46.3018 97.1569L47.1425 97.046C47.1309 97.3993 47.1513 97.6914 47.0873 98.0302C46.9651 98.6873 46.8138 98.2989 47.0145 99.0144L47.096 99.2627C47.1513 99.5256 47.1542 99.8059 47.1571 100.078C47.1774 102.215 46.6916 101.585 45.9033 102.651C46.616 102.42 46.2379 102.353 46.9738 102.274C46.9796 102.776 47.0407 103.115 46.9418 103.611C46.8138 104.242 46.8371 103.79 46.7964 104.067C46.7382 104.45 46.8633 104.21 46.9535 104.8L46.9622 106.482C44.9957 107.56 45.1964 108.308 43.9776 108.007L43.9514 108.889L44.3063 108.539C44.6117 108.34 45.1237 108.337 45.3855 108.591C45.3593 109.035 44.667 109.689 44.3703 109.707C43.0613 109.789 44.411 109.964 42.7006 110.627L42.3544 110.785C42.337 110.752 42.2788 110.822 42.2468 110.846C41.8802 110.013 41.5748 110.414 41.0977 110.23C41.0774 110.259 41.0716 110.314 41.0686 110.332C40.7225 111.602 39.7974 111.287 38.4273 111.766C38.6368 111.918 38.7386 112.035 38.916 112.221C41.0454 111.155 40.1756 111.556 42.2788 111.55C42.0926 112.116 42.4068 111.655 41.8337 112.122C41.633 112.286 41.4555 112.376 41.2752 112.502C41.2752 112.502 41.2955 112.94 42.2642 112.575C44.0794 111.891 45.9353 109.686 47.3491 108.755C47.3025 112.703 47.6923 117.23 47.4509 121.129L46.5811 121.781C46.3891 121.932 46.4066 121.921 46.3048 122.026C44.3936 122.806 45.2837 123.177 42.7064 123.781C41.9617 123.956 39.8178 125.694 39.588 126.045C40.449 126.065 40.0476 125.899 40.4665 126.384C39.6927 127.298 37.7874 127.964 37.1532 128.889L36.9612 129.155C36.9554 129.135 36.9234 129.199 36.9001 129.211C36.1962 128.878 36.0391 129.292 35.4166 128.913C35.5504 128.34 35.4369 128.84 35.6173 128.752C36.0274 128.556 35.4573 129.181 35.8005 128.67C36.042 128.311 35.5184 128.717 36.0682 128.095C36.5336 127.569 37.0281 127.581 37.511 127.166C38.3255 126.462 37.4237 126.565 38.5931 125.723C39.1371 125.332 39.4164 125.212 39.972 124.751C40.8999 123.977 41.8628 123.478 42.8547 122.759C43.5354 122.268 45.0539 121.515 45.4001 120.703C45.115 120.484 44.507 120.312 43.9107 120.586C42.1682 121.381 42.081 121.918 40.9057 122.49C40.5392 122.668 39.556 123.153 39.2476 123.226C39.4571 122.56 39.6782 122.706 40.3414 122.251C41.7872 121.261 43.4336 120.612 43.6227 119.64C41.1297 119.64 42.1333 119.628 42.6104 118.574C42.2555 118.711 41.9181 118.997 41.7115 119.026C40.9348 119.137 41.6999 118.778 40.8563 118.901C40.0912 119.012 40.0971 119.485 38.9131 119.45C38.7589 119.126 38.9858 119.202 39.0091 118.956C39.0149 118.904 39.0469 118.886 39.0586 118.851C36.8798 118.837 38.7764 119.634 35.5649 119.85C36.2892 118.583 37.2783 118.533 37.8193 117.546C37.2201 117.151 37.639 117.122 36.9787 117.192C36.0769 117.286 34.826 118.358 34.3781 118.498C34.3839 118.918 35.0151 118.282 34.3548 119.082C34.2326 119.231 32.5454 120.291 31.6 120.239C31.6931 119.83 31.7309 120.075 32.1934 119.643C30.8408 119.92 31.5331 120.317 29.5056 120.317C29.6481 119.932 29.6016 120.078 29.8721 119.841L33.4327 117.341C34.3752 116.617 35.4078 116.602 35.53 115.44C34.7126 115.349 33.5519 115.972 33.5781 116.17L33.8166 116.553C33.3338 116.792 33.3599 116.915 32.8567 117.271C32.56 117.481 32.2865 117.613 31.9316 117.861C31.5826 118.106 31.376 118.346 30.995 118.603C30.6255 118.854 30.4888 118.875 30.067 119.199C29.6859 119.491 28.502 120.338 28.1122 120.44C27.3733 120.639 25.6978 120.63 25.1305 120.317C25.2992 119.765 25.3429 119.882 25.7938 119.631C26.1341 119.444 26.1894 119.403 26.5326 119.193L29.4067 117.362C29.9099 117.026 30.2183 116.71 30.7855 116.38L35.21 113.74C36.4871 112.993 36.3212 113.229 36.3852 112.56C35.5882 112.7 30.4743 116.135 29.2699 117.046C28.4234 117.686 24.9007 120.101 23.7982 120.157C22.9895 120.198 21.7532 120.218 21.1103 120.008C21.4594 119.38 24.4673 117.613 25.0985 117.07C25.5843 116.655 25.2643 117.084 25.4563 116.594C24.8629 116.769 23.8738 117.566 23.3037 117.975C18.9315 121.121 19.6442 119.771 17.9076 119.789L17.2734 119.955C17.2182 119.964 17.0175 120.119 16.456 120.09C17.3578 119.178 18.4341 118.723 19.3737 117.908C20.1388 117.245 25.3458 113.825 26.8497 112.765C27.6177 112.224 27.6933 112.221 28.8278 112.219C29.4707 112.119 28.7929 112.122 28.7405 111.815C28.7318 111.757 28.6736 111.754 28.6562 111.713C29.3863 111.713 30.4946 111.842 30.9804 111.544C30.5673 111.275 29.9885 111.377 29.3281 111.38C29.8517 110.487 35.6609 107.359 36.2049 106.482C35.6464 106.205 35.0646 106.456 34.669 106.792C34.0203 107.347 34.8668 107.189 33.5839 107.893L31.0648 109.584C30.6517 109.882 30.1921 110.177 29.7645 110.463C29.4794 110.656 28.8772 111.12 28.5369 111.255C28.3507 111.328 25.625 111.649 24.9356 111.208C25.3807 110.668 27.6002 109.327 28.4264 108.796L35.6231 104.207C36.0158 103.947 36.1991 103.886 36.5569 103.629C37.9183 102.648 38.8549 102.493 38.6164 101.684C37.6739 101.903 37.8106 101.944 37.2899 102.513C35.9925 103.933 29.1972 107.937 27.1115 109.321C25.2934 110.53 24.0746 111.681 21.887 111.412C21.7387 111.395 21.3285 111.456 21.0958 111.211C20.9009 111.006 20.9038 110.966 20.7962 110.738C21.3751 110.311 22.7626 109.549 23.1175 109.006C22.6725 109.114 21.4449 109.908 21.0696 110.168L19.6064 111.065C19.3417 111.266 19.7926 111.053 19.2428 111.415L16.1331 111.126C16.2466 110.647 17.1978 110.449 17.2996 110.303C17.3054 110.294 17.3171 110.25 17.3229 110.238L17.3723 110.084C17.3811 110.066 17.4014 110.019 17.4131 110.005C17.4945 109.888 17.448 109.943 17.6371 109.777C17.6778 109.739 18.5243 109.219 18.9868 108.509C18.4108 108.787 18.4137 108.819 17.9425 109.225C17.5178 109.59 17.0611 109.718 16.5607 110.037C15.819 110.51 15.6735 110.741 15.6299 110.776C15.2401 111.1 15.8917 110.858 15.2139 111.044L13.3667 111.015L14.3761 111.716C13.9194 112.134 13.9369 112.154 13.3405 112.528C12.91 112.797 12.718 112.993 12.3602 113.229C11.3654 112.493 11.1094 111.667 10.5974 110.96C10.3152 110.571 10.3036 110.936 10.1872 110.142C10.6207 110.019 10.8243 109.867 11.0832 109.599C11.7901 108.863 12.5958 109.809 14.0765 110.028C13.422 109.517 12.3399 109.365 11.8541 108.679C13.4511 106.81 23.6528 101.269 24.5953 98.553C24.3218 98.7078 12.6046 107.49 12.3515 107.659C11.8802 107.978 12.1217 108.01 11.6243 108.445L10.7254 108.051C10.865 108.907 10.8388 108.086 11.1763 108.845L10.9174 108.915C10.7778 108.997 10.7807 109.114 10.5101 109.692C9.53272 109.213 10.0069 110.122 9.38728 109.447C8.91312 108.933 9.57927 108.252 9.86434 107.843C10.1174 107.481 10.7225 106.751 10.5363 106.456C10.0214 105.633 9.19819 107.16 8.67458 107.487C9.02366 106.293 9.57927 105.837 9.85562 104.984C10.6149 105.244 9.71017 105.019 10.4869 105.288L10.8272 104.797C10.0942 104.438 11.4555 104.978 10.4927 104.751C10.0563 104.645 10.5305 104.891 10.1814 104.642C10.5887 104.193 10.7021 104.166 10.2716 103.687C9.70144 104.117 9.43091 104.771 8.77058 105.095C8.63968 105.159 8.43605 105.244 8.32551 105.121C8.10152 104.873 8.67167 103.682 8.80258 103.425C9.09638 102.855 9.45418 102.525 9.48909 101.763C8.86076 101.374 9.10802 101.783 8.66004 101.593C8.91312 100.489 9.396 100.586 9.50363 99.397C8.17715 99.508 8.8753 100.402 7.64772 100.752C7.93862 99.7943 8.93348 97.7732 8.99457 97.043C8.4215 97.1599 8.46805 97.3147 8.35751 96.6546C8.22951 95.8777 8.63095 95.8251 8.98293 95.3374C9.47454 94.6569 8.99748 94.2801 9.83235 94.8555C9.62581 94.175 9.96325 94.1078 9.66654 93.5033C8.67749 93.6084 8.69786 94.2042 7.98516 94.6832C8.05207 93.0739 9.58799 92.6212 8.82003 91.4734L8.29642 92.2941C7.97353 92.63 7.94735 92.6563 7.32774 92.6446L8.04625 90.016C8.53205 89.3385 9.02075 88.6463 9.11965 87.8081C7.66518 87.6562 8.70949 88.0329 7.65063 88.5032L7.62154 87.9132C7.8019 87.3524 8.13643 87.1947 8.40405 86.6661C8.87239 85.7461 9.16329 85.8396 9.16329 84.5633C9.00911 84.5633 8.82585 84.572 8.67458 84.5457C8.32842 84.4873 8.50877 84.5078 8.33133 84.3939C8.53495 84.0843 8.66295 83.9587 8.82585 83.4943C8.49714 83.4155 8.39242 83.4855 8.03752 83.6666C7.9008 82.3523 9.26219 82.8868 8.54077 81.593C7.94444 82.0077 7.87171 82.367 7.23465 82.697C7.42955 81.8938 8.25279 81.2425 8.62804 80.4569C8.76185 80.1736 8.73858 79.9808 8.62804 79.7968C8.39532 79.864 8.10152 80.4978 7.91244 80.784C7.15611 81.9201 7.1532 81.5054 6.97867 81.2951C6.58014 80.8132 8.31387 78.5877 8.47968 78.0795C7.53428 78.2547 8.04625 78.4095 7.24338 78.8243C7.68263 78.0328 8.28769 77.2384 8.3226 76.3008C7.63027 76.4469 7.78445 76.5725 7.13866 76.9054C7.34229 75.5269 8.24988 75.8335 8.52623 74.3586C8.24697 74.4988 8.16843 74.5718 7.92698 74.639C7.36265 74.7967 7.25793 74.8551 6.67614 75.2465C6.6645 74.163 7.42374 73.1816 7.97644 72.5917C7.79608 72.0747 7.67391 72.3843 7.44992 71.917C7.74663 71.219 8.13934 70.9678 8.31096 70.2318C7.49937 70.6378 7.58082 71.3913 6.68486 71.3592C6.97576 70.4713 7.70881 69.7645 8.00262 68.8825L7.1852 68.6459C7.15902 68.6313 7.05139 68.5437 7.00776 68.5057L7.543 67.7785C7.73499 67.4193 7.81353 67.2703 7.95026 67.0016L7.15029 67.3492C7.20556 66.3854 8.14515 65.3573 8.41569 64.4899C7.71754 64.6739 7.87462 64.9572 7.3481 65.4712C7.33356 64.3117 8.01716 64.1803 8.48259 63.3158C7.40337 63.5173 7.95898 64.2329 6.97285 64.4928C7.14157 63.7539 7.575 63.1668 7.92989 62.5272C7.58664 62.9361 7.71754 62.9536 6.96994 62.9799C7.19102 61.5576 8.20333 60.4857 8.65131 59.2707C8.17134 59.4285 8.2557 59.481 7.97062 59.9279C7.76699 60.2492 7.65645 60.4945 7.30738 60.658C7.08048 60.2346 7.08339 60.7106 7.2492 60.0652C7.36556 59.6095 7.82808 58.8881 8.06661 58.5143C8.55241 57.7491 9.11093 57.4716 9.492 56.7415L8.93348 56.8437C8.91603 56.8087 8.86367 56.8934 8.82294 56.908C9.08184 55.9296 9.05275 56.5575 8.78803 55.8974C8.76767 55.544 10.1291 53.2864 10.3298 52.8629C10.9697 51.5224 10.993 52.0831 11.4206 51.7326C11.4352 51.721 11.473 51.6859 11.4904 51.6684C11.985 51.1398 11.7755 50.801 12.4126 50.3979L14.7834 48.8997C15.5193 48.5083 16.0982 47.8278 16.9564 47.5094L17.5672 47.4569C17.6167 47.6555 17.925 47.3459 17.32 47.8804C16.8371 48.3068 16.1971 48.5141 15.8713 48.9873C16.6335 48.8091 17.4422 48.0205 18.4312 47.673C19.8915 47.159 20.4238 46.5924 20.9125 46.7822C20.6304 47.8628 20.4442 46.788 20.0486 47.8015C20.3249 47.9738 19.5948 48.1082 20.5024 47.8862C20.9853 47.7694 20.5344 47.895 20.7875 47.7022C22.5386 46.3792 21.5496 47.8774 24.6709 47.0188C25.4738 46.7968 25.4156 46.6449 25.9508 46.2857L26.2825 47.1239C27.3268 47.048 26.4134 46.8085 27.5653 46.864C28.2315 46.8961 28.1529 46.9399 28.6387 46.6187C28.6678 47.1385 28.6387 47.3517 29.1361 47.4218C30.0728 47.5562 31.2102 46.8815 31.6989 46.1338L31.9171 45.5001C31.9869 45.0561 31.5942 45.4592 32.2051 44.8196C32.752 44.2471 33.1621 44.4749 33.3396 43.5374C32.1847 43.7623 32.7752 43.6951 31.9869 43.4147C31.8095 43.5637 31.5273 43.7711 31.2655 43.8733C30.7128 44.0894 31.0386 43.8645 30.6284 43.8616C29.843 43.8558 28.9092 45.0795 27.7486 45.3862C27.4868 45.4562 26.937 45.5731 26.7886 45.5614C26.4715 45.5409 26.3145 45.4212 26.1225 45.2664C26.6577 44.2617 28.1064 43.5316 29.0721 43.0029C29.4561 42.7927 29.2089 42.9708 29.4794 42.7372C29.3369 42.302 29.7499 42.6028 29.2292 42.375C28.7114 42.1472 29.2263 42.2786 28.918 42.486C28.1267 43.0205 27.5973 43.4439 26.6373 43.8061C26.809 43.1548 26.3901 43.7126 27.0533 43.1606C27.065 43.149 27.5275 42.8773 27.574 42.8511C28.118 42.5356 28.1645 42.5298 28.47 42.0654C27.382 42.1034 26.5734 43.2921 25.4505 43.4264C25.881 42.4393 27.3122 42.4947 27.6438 41.3908C26.6606 41.4813 26.0497 42.4801 24.8949 42.7488C25.212 42.0479 25.6949 41.8464 26.2563 41.5251C26.6664 41.2885 28.0424 40.1991 26.9864 40.5876L25.8228 41.2593C25.372 41.5222 24.7494 41.9866 24.1531 42.0187C24.4789 41.1221 25.6134 40.9614 26.2563 40.3364C26.9893 39.6238 26.2679 39.7932 26.7566 39.2879C26.9661 39.0718 26.7915 39.323 27.0242 39.0893C27.2482 38.8644 27.254 38.6629 27.2773 38.5402C27.4606 37.5677 29.0401 38.1255 29.1478 36.8375C27.5653 36.9689 25.5378 39.1565 23.9437 39.5303C24.0833 39.028 24.2578 39.1273 24.6302 38.882L25.7996 38.035C26.3319 37.6962 27.4286 37.1091 27.7573 36.7119C26.9922 36.1804 25.1625 38.3854 23.2455 38.9228C23.3997 38.0642 23.7953 37.9532 24.3509 37.5794L27.0795 35.7686C27.6846 35.3947 28.0947 35.3977 28.3071 34.8077C27.606 34.8223 27.8591 34.8223 27.3268 34.9975C27.574 34.6938 27.5828 34.7259 27.5653 34.2294C27.5304 33.2393 27.7951 33.7563 27.3006 33.6307C26.6752 33.8001 27.2831 33.6015 26.8439 33.8468C25.753 34.4601 25.2207 35.2137 23.8913 35.4794C24.4644 34.3842 26.6083 33.914 27.3064 32.7837C25.9537 33.1429 25.1101 34.1768 23.7662 34.6412C23.6266 33.3883 24.1095 34.3375 24.4876 33.2919C24.4353 33.3036 24.1037 33.3766 24.0629 33.3795C23.7139 33.3941 23.9902 33.4175 23.7808 33.2919C23.932 32.7049 23.8302 32.8976 24.2927 32.626C24.6244 32.4303 24.6884 32.3836 25.1218 32.3164C25.1392 32.369 24.9996 32.7516 25.1218 32.9677C25.404 32.7603 25.6803 32.5413 26.009 32.3339C26.4105 32.0798 26.6548 32.0127 26.8002 31.6067C26.0963 31.6943 26.2708 31.852 25.593 32.0828C25.7268 31.2884 26.4483 31.6651 26.9224 30.7626C26.1923 30.3976 26.7712 30.9291 26.3494 30.4735C25.9276 30.0179 25.721 30.6341 24.7727 30.4647C24.2695 30.3742 23.9175 30.3216 23.7109 29.9215C23.4957 29.5039 23.9902 29.4834 23.0099 29.2322C22.3234 29.057 22.591 29.4893 22.1023 28.689C23.0535 28.8029 23.0419 28.9606 23.8942 29.1359C29.2787 29.4863 31.6378 29.6294 35.4515 28.689C35.3991 28.9986 35.3438 29.1797 35.274 29.4279C35.1344 29.9127 35.1897 29.5564 35.1664 29.8456L35.7191 33.8556C36.2194 37.775 37.2608 40.4416 39.0324 41.5981C41.7377 43.3622 46.4764 44.4778 49.3562 46.6274L49.365 46.6303ZM24.5167 26.6037C25.0985 27.3864 24.8251 26.7439 25.9043 26.9717C26.6955 27.1382 25.9421 27.1937 26.617 27.1382C26.7624 27.1265 26.8293 27.0681 26.9515 27.0389C27.6758 26.8636 27.5915 27.0914 28.0569 26.9483C28.3071 26.8724 28.5893 26.3554 30.2706 26.6884C30.8379 26.7994 30.0903 27.0038 31.0939 26.8198C31.3731 26.7672 31.4778 26.6621 31.8735 26.5716C32.4552 26.4372 31.7484 26.2386 32.3098 26.1101C33.1534 25.9174 32.7316 25.6662 33.8166 25.7012C34.5264 25.7246 34.5264 25.8239 34.8668 24.9828C37.3539 25.4354 37.9735 24.9828 38.9131 24.9828C40.2629 24.9828 39.9196 26.1598 38.8986 26.7789C38.8666 26.7994 39.0498 26.7439 39.0178 26.7643C37.703 27.5529 36.6121 27.3514 35.2595 27.7252C32.4727 28.4963 30.6022 28.4116 27.321 28.4116C24.1764 28.4116 24.1589 28.0436 21.9918 27.5237C21.3082 27.3601 20.9329 27.3631 20.7875 26.741C21.7299 26.9542 21.7358 27.106 22.3001 26.2328C22.5968 26.738 22.271 26.4927 22.687 26.8257C23.7255 27.658 24.2607 26.849 24.5196 26.6066L24.5167 26.6037ZM20.0486 26.3846C19.874 26.0751 19.7024 25.9962 19.8566 25.4939C20.0544 24.8426 20.4238 24.8951 20.5082 24.8689C20.7758 25.8064 20.6653 26.0371 20.0486 26.3817V26.3846ZM30.4772 25.5406C30.6721 25.4033 30.5121 25.342 30.992 25.3537C31.7862 25.377 31.027 25.3069 31.3237 25.5406C30.7332 26.0225 30.9048 26.0429 30.4772 25.5406ZM29.0227 25.2018C28.8307 25.9115 28.8394 25.7742 28.2925 25.5318C28.5223 25.2923 28.6445 25.2865 29.0227 25.2018ZM26.1457 25.5406C25.753 25.8064 25.433 26.0897 24.988 26.116C23.4113 26.2094 24.7553 26.2269 23.6237 26.4197C23.7895 25.8034 23.8098 26.1247 23.9553 25.5406C23.0477 25.6078 22.8557 26.2153 23.0186 25.2661L24.6331 25.2076C25.1305 25.1843 25.7705 25.2427 26.1457 25.5406ZM28.0046 25.3712C27.9231 25.4588 28.278 25.4968 27.6148 25.6779C27.1551 25.8005 26.7799 25.4705 26.5152 25.231C27.1406 25.1843 27.4955 25.0967 28.0046 25.3712ZM27.6555 21.1568C27.3937 21.3057 27.1493 21.367 26.8904 21.4517L26.9922 20.6369L28.1296 20.6106C27.9551 21.1013 28.3391 20.7654 27.6555 21.1568ZM30.1426 20.9494C30.1281 20.4149 30.5266 20.412 30.9281 20.5639C30.6052 20.818 30.6168 20.8384 30.1426 20.9494ZM20.8165 19.8191C21.3082 19.6556 21.2238 19.9505 21.2558 19.9739C20.9824 20.1608 20.7613 20.2514 20.4267 20.4003C20.4413 19.9827 20.4936 19.9272 20.8165 19.8162V19.8191ZM29.3019 18.829C28.8365 19.7782 29.1187 19.825 27.9696 19.7753L23.2862 19.4453C22.3554 19.4599 22.1197 19.0598 21.4391 18.7969C22.2041 18.1047 21.698 18.4815 22.1139 17.8185C22.5619 17.9324 22.2012 17.8185 22.4921 18.0813C24.7465 20.1083 27.9231 18.0813 29.3019 18.8261V18.829ZM28.4962 18.1252C28.726 17.2402 29.1187 16.9043 29.6743 16.6035C29.5347 17.3424 29.206 17.9441 28.4962 18.1252ZM27.4955 18.1164C27.1871 17.4943 27.4722 17.4739 28.6591 15.923C29.1507 15.2805 29.9506 14.4919 30.8495 14.4101C30.6226 15.2484 29.6976 15.7682 29.2089 16.3085C28.6765 16.8927 28.054 17.9266 27.4955 18.1193V18.1164ZM33.965 12.6753C34.1919 12.4708 34.157 11.8166 34.5526 12.6753H33.965ZM23.9582 11.0397C24.1269 11.3931 24.0106 11.1157 24.1153 11.5333L23.6266 11.5421C23.6528 11.0982 23.6964 11.2354 23.9582 11.0397ZM21.7707 11.3756C21.7736 11.1128 21.6369 11.1887 22.0121 11.3347C22.1925 11.4048 21.7619 11.8429 21.7707 11.3756ZM25.2934 11.2004C25.3545 10.5199 25.3865 10.5666 25.977 10.2804C25.8316 10.9375 25.8083 10.8733 25.2934 11.2004ZM26.7072 5.02913C26.2534 5.58112 25.433 6.64423 24.956 6.93337C24.6738 6.48359 24.7407 6.4427 25.3749 5.72131C25.7618 5.2803 26.0963 5.02913 26.3086 4.45669C25.9392 4.70494 25.7123 4.86849 25.2731 5.27154C24.7349 5.76512 24.9182 5.95788 24.2927 6.14772C24.4062 5.40881 24.3626 5.70671 24.8949 5.23941L26.9341 2.82115C26.169 2.94965 25.625 3.63892 25.18 4.17339L23.7837 5.97541C23.4346 5.45554 23.3328 5.35624 23.2862 4.76335C23.8506 4.17923 24.4091 3.9339 24.7989 3.11321C23.8884 3.41403 23.7284 4.08869 22.9517 4.29605C23.1117 3.68273 23.0768 4.0478 23.2979 3.62723C23.7691 2.73937 24.2142 2.24286 24.2986 1.93328C23.7459 2.08223 23.8157 2.16985 23.3822 2.53785L22.8004 2.92921C22.8848 2.50864 23.135 2.03842 23.4462 1.76096C23.7575 1.4835 26.2679 1.30243 29.046 1.19144C32.0509 1.0717 35.3671 1.03081 36.5656 1.03081C40.1 1.70547 40.3356 4.37491 40.3909 6.5128C40.5799 8.23012 40.7574 11.8546 39.3902 12.5526C37.9503 13.2886 35.9722 13.0345 35.2188 12.503C35.4137 12.0678 35.8674 11.6677 36.2252 11.4924C36.2427 12.4066 36.1293 12.3307 37.0659 12.3394C37.1852 12.0795 37.1939 11.7728 37.1997 11.4048C37.2143 10.7185 37.415 10.9638 36.9059 10.6396C36.2136 10.2015 35.4689 10.6484 35.0297 10.9667C34.6457 10.6046 33.1621 10.0351 33.1505 10.0438C33.3076 11.0368 31.3586 11.7173 31.8298 9.5444C31.3993 9.83938 31.5709 9.86566 31.0124 10.0555L30.9484 9.68458C30.9222 9.52979 30.931 9.4889 30.8961 9.40421C30.2794 9.73424 30.1281 9.59405 29.4241 10.1168C28.982 10.4439 28.6242 10.7973 28.1616 11.0456C28.2111 10.3709 28.4176 10.3213 28.7231 9.91823L30.5644 7.16118C29.5667 7.71609 29.2409 9.16472 27.99 9.39837C28.0802 8.7938 27.9464 8.75875 28.0627 8.39952C28.1936 7.99647 29.9739 6.07179 30.2503 5.47598C29.395 5.90823 28.2344 7.59051 27.5798 8.46377C27.2744 8.86973 27.0591 9.39837 26.9835 8.5105C25.7763 8.65361 26.9835 8.77043 26.0294 8.96319C26.2417 8.41412 26.4134 8.21844 26.7741 7.79787L29.2699 4.6991C28.5747 4.83053 27.6788 6.10683 27.193 6.69388C26.0207 8.11914 25.9334 8.74707 25.0403 8.6098C25.4476 7.72485 24.8105 7.92053 25.4767 7.00346C26.0061 6.27623 25.721 6.96842 26.5414 5.70671C27.0679 4.8977 27.8504 4.57935 28.7667 3.34978C28.3856 3.4666 27.0475 4.62316 26.713 5.03205L26.7072 5.02913ZM22.1081 2.5028C22.1081 1.98293 22.0354 1.64998 22.0063 1.31995C22.6288 1.22065 22.7364 1.37836 23.2833 1.42217C22.9284 1.94496 22.9226 2.27791 22.1081 2.49988V2.5028ZM22.1081 28.689L21.6049 28.8847C21.6165 29.6557 21.6892 29.8543 21.6747 30.6984C21.663 31.2767 21.6572 31.7031 21.7387 32.3018C22.0267 34.4747 22.0732 36.3585 21.3343 38.4176L21.2412 38.6629C21.2267 38.7038 21.2092 38.7447 21.1947 38.7856C20.5809 40.573 20.0835 41.1308 18.5912 41.7266C17.7534 42.0625 18.2508 42.1326 16.6917 42.854C15.7113 43.3096 14.9317 43.7126 14.0009 44.2033C12.9682 44.7495 12.2177 45.0941 11.2316 45.6402C6.57141 48.4732 2.76942 50.1672 1.00368 55.9442C0.352078 58.0791 0.43062 61.6598 0.226993 66.2481C-0.593331 84.7268 1.08513 118.144 0.747695 125.683C0.424802 129.249 1.7251 128.603 4.5846 128.965C5.90817 129.132 7.35101 129.365 9.35237 129.4C20.0951 129.599 32.0596 130.998 42.7151 131.673C46.3135 131.901 47.6981 132.692 50.642 130.394C50.9038 130.189 51.0871 130.134 51.3954 129.967C53.7895 128.644 56.0905 127.236 57.5304 126.159C58.8801 125.151 59.4387 124.511 59.5928 122.201C59.8517 119.339 59.6336 117.353 59.7325 114.558L59.8896 105.297C59.7354 103.13 59.747 97.5016 60.0001 95.2965L59.907 85.2175C59.8896 84.2887 59.7267 83.7484 59.7325 82.697V77.4662C59.6772 76.6075 59.4096 76.3271 59.3921 75.2815L59.0896 66.1546C58.9441 64.4373 58.7143 63.3538 58.726 61.6189C58.7347 60.0418 58.5107 58.1171 58.2634 56.8466C57.1231 51.0025 53.8215 47.8365 49.5599 45.1671C47.1309 43.6455 41.6388 41.9778 40.0272 40.2926C38.66 38.8644 37.6012 36.4578 37.6012 34.2732L37.7641 29.5185C37.7146 28.4758 37.6361 29.1709 37.3946 28.3444C38.0375 28.2947 38.375 28.1399 38.8753 27.9355C39.2447 27.7865 39.4047 27.7281 39.6927 27.5704C40.4199 27.1674 39.9312 27.5909 40.2454 27.106C40.5683 26.6125 40.6119 25.9086 40.4403 25.3128C40.2134 24.5155 40.1785 24.5447 40.1407 23.6948C41.2141 23.318 41.8192 23.1486 42.017 21.7993C42.2904 20.1462 42.1508 18.3296 40.5538 17.2665C39.9283 16.8518 38.6833 16.6356 38.0957 17.0416C38.5757 18.3092 39.7974 17.211 40.0302 18.6333C39.2215 18.6742 39.5909 18.61 38.8928 18.572C38.5466 18.5545 38.439 18.572 38.151 18.5925C37.7757 18.6217 37.8339 18.6129 37.5372 18.6275L33.005 19.5095C31.9724 19.492 31.1491 19.5621 29.971 19.5913C30.0757 18.8612 30.1863 18.1573 30.5993 17.6929L32.112 16.0106C32.5803 15.5375 32.6821 15.6368 33.0283 15.0322C31.4866 15.6163 30.6604 17.5732 29.5027 18.4493C29.5812 17.1818 31.0764 15.8588 31.728 15.079C31.5738 14.6993 31.1288 14.8015 31.3731 14.5328C31.8706 13.9837 32.3913 14.3663 33.0429 14.3663C34.9017 14.3663 33.6741 13.9049 34.5991 13.569C35.2013 13.35 36.1409 13.5807 36.4143 13.8173C36.8536 14.2962 36.4521 15.6397 36.4609 16.2472C36.4696 17.065 36.3678 17.874 37.2346 18.058L37.5546 15.8734C37.6245 15.2571 37.7175 13.9487 38.2411 13.8406C39.332 13.6187 40.0854 13.9107 40.8941 12.1875C41.6126 10.6542 41.4526 4.38367 40.7778 2.9146C40.0185 1.26446 38.6542 1.04249 37.7321 0.186752C35.018 -0.0673408 32.24 -0.0468965 29.1303 0.069928C27.1959 0.142943 24.9473 0.435005 23.0681 0.163388C20.2929 -0.239657 19.4144 0.592717 18.9635 3.95726C18.7541 5.51395 18.8035 11.0514 19.3766 13.0813C20.706 14.6409 22.3263 14.1006 22.4543 14.7372C22.4543 15.4353 22.6346 16.3085 22.4892 16.7028C20.5664 17.0708 18.245 16.2706 16.8022 19.3635C16.1564 20.7479 17.9803 22.9734 18.9519 23.4085C19.4959 23.6539 19.8362 23.3355 19.938 22.8303C19.333 22.0096 18.5476 22.1906 17.9716 21.3437C16.9418 19.8279 18.0792 20.0002 18.7686 20.8267C19.1643 21.3028 19.3213 21.0516 19.9235 21.478C20.4966 21.884 20.0457 21.7526 20.6071 22.1614C21.3169 21.8694 22.1227 21.0779 22.7364 21.0312C22.4223 21.4663 22.4368 21.2648 22.2826 21.8197L22.9575 22.6638C23.615 22.5061 24.0717 22.5616 24.7523 22.4272C25.2876 22.3221 24.9094 22.2812 25.3632 22.3425C25.7559 22.3922 25.3981 22.8624 26.3523 22.693C27.1871 22.547 28.3333 22.6404 28.9732 21.7818L29.1681 22.0972C29.3427 22.3162 29.1652 22.1731 29.4736 22.363C30.291 22.1556 30.6808 22.2783 31.1317 22.1001C31.8676 21.808 31.0706 21.8869 31.9985 21.773C32.9381 21.6562 32.464 21.9599 33.2872 21.3349C35.2246 20.4587 32.8887 20.044 38.0812 19.5679C40.6236 19.565 43.0409 20.7508 40.0243 22.9967C38.2644 23.5195 39.6462 23.4348 34.9889 23.8642C34.701 23.8233 32.0131 24.0803 29.2118 24.1183C24.7465 24.1825 23.1262 23.5254 21.4507 23.28C20.6158 23.0814 19.97 22.7368 19.077 25.1784C18.3381 27.1966 21.1743 28.1954 22.1227 28.6773L22.1081 28.689Z" fill="#95C11F"/>
<path fill-rule="evenodd" clip-rule="evenodd" d="M30.986 111.538L30.9627 111.944C30.2762 112.111 30.5409 111.824 30.3373 112.429C30.9075 112.324 30.8871 112.213 31.5154 112.219C31.178 112.759 29.2901 114.027 28.5192 114.424C27.8211 114.783 26.1222 115.978 25.4619 116.588C26.1368 116.497 27.3993 115.531 28.2487 114.999C29.1388 114.441 30.029 113.828 30.9046 113.291C33.5662 111.652 34.0433 112.014 38.2438 111.862C37.5486 111.345 37.7668 111.915 37.057 111.036L36.3996 111.296C35.6229 111.532 35.5065 111.547 34.3749 111.541C34.6367 110.291 35.7392 110.957 35.4658 109.771C35.1633 109.771 33.5924 110.428 33.2695 110.607C32.9466 110.785 32.9001 110.992 32.3678 111.217C31.9605 111.389 31.5096 111.509 30.986 111.538Z" fill="#95C11F"/>
<path fill-rule="evenodd" clip-rule="evenodd" d="M34.7794 44.9774C34.9539 44.3115 35.2477 44.5043 35.5357 43.9085C35.6463 43.6777 35.5939 43.5113 35.8557 43.1988C35.8732 43.1783 35.9168 43.1491 35.9313 43.1316L36.0768 43.0352C36.2222 42.8921 36.1408 42.9914 36.2746 42.6292C36.612 41.7151 36.8448 41.9517 37.3742 40.9908C36.423 41.0258 36.3648 41.5953 35.4485 42.7782L34.6369 43.8209C33.962 45.0271 34.8085 44.1042 32.8275 45.3775C32.4202 45.6375 32.2602 45.6492 31.917 45.8156L32.0915 46.8349C32.7984 46.7707 33.0253 46.3618 33.418 45.9675C34.0754 45.3074 33.7845 45.3951 34.7794 44.9803V44.9774Z" fill="#95C11F"/>
<path fill-rule="evenodd" clip-rule="evenodd" d="M18.021 65.521C18.661 65.375 19.7751 64.4492 20.3249 64.0607L33.0254 54.8842C33.421 54.6739 33.9388 54.5249 33.9853 53.9233C33.3832 54.0372 32.7956 54.4461 32.3272 54.8579C32.1294 55.0302 32.0887 55.1237 31.8181 55.3515L22.3466 62.2207C21.3867 62.9363 18.5621 64.8026 18.021 65.524V65.521Z" fill="#95C11F"/>
<path fill-rule="evenodd" clip-rule="evenodd" d="M44.4781 74.1368C44.3326 74.794 44.5014 74.3121 44.1988 74.6976C42.7996 76.4821 43.7828 76.0703 43.6112 76.8063C43.4018 77.1188 42.1567 78.3922 43.5007 78.2111C44.0359 77.9687 43.2331 77.846 44.609 76.2893L45.0424 75.7023C45.502 75.1415 45.5079 75.492 45.6242 74.7852C45.4497 74.8991 45.4293 74.9079 45.2315 75.0627C45.2053 75.0831 45.1646 75.1123 45.1384 75.1357C44.3763 75.7665 44.7428 75.9243 43.9545 76.1229C44.2948 74.096 45.217 74.9955 45.7028 73.0942C45.0541 73.4271 45.3275 73.3249 44.8359 73.8331L44.4781 74.1368Z" fill="#95C11F"/>
<path fill-rule="evenodd" clip-rule="evenodd" d="M29.5024 104.812C29.9911 104.71 32.0769 103.346 32.6965 102.946C33.0688 102.703 33.2608 102.514 33.7088 102.265L37.7348 99.92C37.7697 99.9025 37.822 99.882 37.854 99.8674L38.0751 99.7389C37.8919 99.0467 37.7668 98.9883 36.161 100.352C35.1633 101.202 29.9737 104.006 29.5024 104.812Z" fill="#95C11F"/>
<path fill-rule="evenodd" clip-rule="evenodd" d="M30.4829 81.5055C31.4341 81.2865 31.437 81.0557 32.077 80.5709C32.5308 80.2292 33.1039 79.9693 33.6391 79.6188C33.9097 79.4436 34.0929 79.2975 34.3373 79.1311L41.8831 74.7239C42.462 74.4522 42.4154 74.6888 42.5231 73.9703C41.5224 74.3091 34.8725 78.3892 33.8166 79.1019L33.5169 79.318C33.4879 79.3384 33.45 79.3676 33.4209 79.3881C32.5832 79.9488 31.1869 80.7199 30.4829 81.5055Z" fill="#95C11F"/>
<path fill-rule="evenodd" clip-rule="evenodd" d="M19.2021 69.6332C19.464 69.5602 33.9447 58.7539 34.2763 58.4882C35.0617 57.8515 35.4603 57.8048 36.205 57.0542C36.5366 56.7183 36.5191 56.8234 36.5337 56.2597C35.3526 56.2101 35.9082 56.5401 35.405 57.2644L19.8363 68.9965C19.7461 69.0637 19.5803 69.1659 19.5367 69.2068C19.2051 69.5047 19.4058 69.2798 19.2021 69.6332Z" fill="#95C11F"/>
<path fill-rule="evenodd" clip-rule="evenodd" d="M31.6871 18.8175C32.7198 18.3911 31.8908 17.8303 33.4616 16.3642L34.5379 15.0908C33.578 15.1872 33.1038 16.1977 32.6093 16.8607C31.1984 18.7474 30.9395 18.2275 31.6871 18.8175Z" fill="#95C11F"/>
<path fill-rule="evenodd" clip-rule="evenodd" d="M30.791 91.6459C31.3844 91.4619 32.2309 90.8515 33.0949 90.3696L42.3774 84.7357C42.3163 84.6949 42.5752 84.3853 41.813 84.651L31.9342 90.7142C31.3815 91.0793 31.1023 91.2224 30.791 91.6459Z" fill="#95C11F"/>
<path fill-rule="evenodd" clip-rule="evenodd" d="M35.5445 41.8056C35.786 41.1251 35.8151 41.1836 36.2892 40.5877C36.8536 39.881 36.2311 40.246 36.6063 39.3144C36.2485 39.4224 36.551 39.2589 36.3241 39.4721C35.6754 40.0854 35.3584 40.3804 35.1286 41.3267C34.9511 42.0597 35.1809 41.6947 35.5445 41.8056Z" fill="#95C11F"/>
<path fill-rule="evenodd" clip-rule="evenodd" d="M23.3267 108.804C24.1237 108.758 25.3484 107.552 26.7621 106.76C27.2625 106.48 27.6639 106.448 27.8617 105.843C26.8988 106.284 24.1412 108.039 23.3267 108.804Z" fill="#95C11F"/>
<path fill-rule="evenodd" clip-rule="evenodd" d="M37.3481 67.1945C37.7234 67.0105 44.9725 61.9053 45.1732 61.33C44.3064 61.5256 37.6623 66.6542 37.3481 67.1945Z" fill="#95C11F"/>
<path fill-rule="evenodd" clip-rule="evenodd" d="M44.5941 66.1577L44.117 66.1782C44.2246 65.705 44.3526 65.4539 44.5999 65.1676L44.0879 64.9048L44.6755 63.9819C43.8523 64.233 44.2101 64.3528 43.6312 64.8493C44.085 65.7459 43.8785 65.4042 43.6108 66.406L44.4428 66.7097C44.597 66.4381 44.5446 66.5053 44.597 66.1577H44.5941Z" fill="#95C11F"/>
<path fill-rule="evenodd" clip-rule="evenodd" d="M43.9482 78.9938C44.4079 78.8828 44.1228 79.1369 44.5533 78.5966C44.7569 78.3425 44.8587 78.1819 45.0653 77.9132C45.4609 77.3992 45.7605 77.1392 45.9641 76.6194C45.2631 76.8384 45.6849 76.8618 44.8355 77.6912C44.0791 78.4301 44.2362 77.7555 43.9511 78.9938H43.9482Z" fill="#95C11F"/>
<path fill-rule="evenodd" clip-rule="evenodd" d="M41.2429 92.8229L40.8647 93.6524C42.072 93.2523 45.7111 90.7931 46.6506 89.9315C45.9758 89.9841 43.2094 92.2972 41.2429 92.8229Z" fill="#95C11F"/>
<path fill-rule="evenodd" clip-rule="evenodd" d="M32.7808 94.5607C33.5225 94.3416 40.3062 90.6237 40.5651 89.8439L33.1589 94.1313C32.5713 94.5607 33.0484 94.1751 32.7808 94.5607Z" fill="#95C11F"/>
<path fill-rule="evenodd" clip-rule="evenodd" d="M34.7065 73.8448L43.2327 68.6256C42.3484 68.503 36.0447 72.7671 35.4396 73.1351C34.8316 73.5031 35.0236 73.2227 34.7065 73.8448Z" fill="#95C11F"/>
<path fill-rule="evenodd" clip-rule="evenodd" d="M23.2773 89.6278C23.4024 89.5956 35.143 82.63 35.5531 82.189C34.5583 82.2737 23.6904 88.9911 23.2773 89.6278Z" fill="#95C11F"/>
<path fill-rule="evenodd" clip-rule="evenodd" d="M41.2549 95.3551C41.38 95.3259 46.4212 91.8562 46.4212 91.8533C46.1274 91.9438 41.9356 94.07 41.697 94.2715C41.0367 94.8294 41.2403 95.1419 41.252 95.3551H41.2549Z" fill="#95C11F"/>
<path fill-rule="evenodd" clip-rule="evenodd" d="M25.1479 104.105C25.8141 103.91 38.2993 96.0736 38.6455 95.4894C37.927 95.7231 25.4621 103.615 25.1479 104.105Z" fill="#95C11F"/>
<path fill-rule="evenodd" clip-rule="evenodd" d="M37.1733 61.6308C37.7522 61.4409 39.3987 60.4099 39.5849 59.928C38.6249 60.1851 37.6766 60.9999 37.1733 61.6308Z" fill="#95C11F"/>
<path fill-rule="evenodd" clip-rule="evenodd" d="M7.97949 66.9989C8.58164 66.6922 8.83763 66.2775 9.01217 65.5006C8.41583 65.6232 8.66019 65.597 8.36347 66.0409C7.96786 66.6309 8.04349 66.1256 7.97949 67.0018V66.9989Z" fill="#95C11F"/>
<path fill-rule="evenodd" clip-rule="evenodd" d="M35.5737 117.079C35.9693 116.997 36.9555 116.048 37.2289 115.586C36.8362 115.756 36.5628 115.902 36.269 116.144C35.8704 116.474 35.6726 116.603 35.5737 117.079Z" fill="#95C11F"/>
<path fill-rule="evenodd" clip-rule="evenodd" d="M43.4424 80.5125L43.5559 80.2906C43.7333 79.5925 43.5442 79.8349 43.806 79.3034C43.2301 79.207 43.6984 79.3589 43.2708 79.1603C43.1632 79.7444 42.8054 80.1883 43.4424 80.5154V80.5125Z" fill="#95C11F"/>
<path fill-rule="evenodd" clip-rule="evenodd" d="M38.6133 105.425C39.5238 105.46 45.4813 101.246 46.0369 100.595C45.3475 100.709 38.6976 104.783 38.6133 105.425Z" fill="#95C11F"/>
<path fill-rule="evenodd" clip-rule="evenodd" d="M44.1113 88.0448C44.7484 87.9805 44.4895 87.9659 44.8938 87.5278C45.3738 87.0109 45.2429 87.411 45.4785 86.6604C44.9956 86.897 44.2597 87.6213 44.1084 88.0419L44.1113 88.0448Z" fill="#95C11F"/>
<path fill-rule="evenodd" clip-rule="evenodd" d="M32.522 75.3109C33.4936 75.1386 33.7379 74.7239 34.2004 74.1164C33.7263 74.2916 33.735 74.3822 33.3656 74.6071C32.8216 74.9371 32.8536 74.7765 32.522 75.308V75.3109Z" fill="#95C11F"/>
<path fill-rule="evenodd" clip-rule="evenodd" d="M43.9453 115.615C44.5213 115.458 45.3416 115.058 45.6296 114.573C44.9809 114.617 44.2798 115.133 43.9453 115.615Z" fill="#95C11F"/>
<path fill-rule="evenodd" clip-rule="evenodd" d="M13.1138 66.295C13.6752 66.0292 13.3261 66.2307 13.7654 65.9007C14.2948 65.5035 25.5932 58.1815 25.7619 57.5799C25.2237 57.7201 13.233 65.7138 13.1138 66.2979V66.295Z" fill="#95C11F"/>
<path fill-rule="evenodd" clip-rule="evenodd" d="M22.5356 81.3011C22.8702 81.1346 28.6473 78.1118 28.9499 77.9366C29.1622 77.8139 29.2088 77.8226 29.3717 77.6854C29.7498 77.367 29.5695 77.4868 29.7324 77.2473C29.3484 77.4079 29.0837 77.478 28.8161 77.6328C28.1761 78.0008 22.6404 81.0791 22.5356 81.304V81.3011Z" fill="#95C11F"/>
<path fill-rule="evenodd" clip-rule="evenodd" d="M41.9819 107.444C42.5346 107.341 46.674 104.593 47.0202 104.199L42.7237 106.526C42.3746 106.687 42.1972 107.038 41.979 107.441L41.9819 107.444Z" fill="#95C11F"/>
<path fill-rule="evenodd" clip-rule="evenodd" d="M39.0757 100.749C39.736 100.595 45.5655 96.9497 45.6965 96.2546C45.1147 96.4416 39.1862 100.031 39.0757 100.749Z" fill="#95C11F"/>
<path fill-rule="evenodd" clip-rule="evenodd" d="M21.4624 106.801C21.9511 106.617 21.7969 106.637 22.1896 106.383C22.8354 105.963 22.5504 106.383 22.8296 105.796C22.2129 106.004 21.698 106.17 21.4624 106.801Z" fill="#95C11F"/>
<path fill-rule="evenodd" clip-rule="evenodd" d="M12.709 89.6161C13.1744 89.5022 12.9562 89.6278 13.349 89.2539C13.5962 89.0203 23.7775 81.8531 23.9492 81.5873C23.2917 81.8677 12.8719 88.9356 12.709 89.6161Z" fill="#95C11F"/>
<path fill-rule="evenodd" clip-rule="evenodd" d="M38.9043 98.8978C39.5763 98.5561 43.5412 96.2634 43.8495 95.5215C43.1601 95.6208 38.977 98.1939 38.9043 98.8978Z" fill="#95C11F"/>
<path fill-rule="evenodd" clip-rule="evenodd" d="M42.7646 109.526C43.3493 109.646 43.5995 109.283 43.5442 108.74C43.2126 108.898 42.9625 108.927 42.7646 109.526Z" fill="#95C11F"/>
<path fill-rule="evenodd" clip-rule="evenodd" d="M44.5942 66.1577C45.0393 65.9679 45.4902 65.5473 45.6298 64.9924C45.1062 65.2903 44.7833 65.5736 44.5942 66.1577Z" fill="#95C11F"/>
<path fill-rule="evenodd" clip-rule="evenodd" d="M39.7422 101.845C39.8295 102.005 39.6549 102.315 40.3094 102.011C40.6643 101.848 46.2291 98.4685 46.2641 98.3341C45.5194 98.4392 40.5131 101.64 39.7422 101.842V101.845Z" fill="#95C11F"/>
<path fill-rule="evenodd" clip-rule="evenodd" d="M13.8755 93.1996C14.53 93.0536 26.7301 85.2848 26.9396 84.7153C26.3694 84.8555 14.1053 92.7236 13.8755 93.1996Z" fill="#95C11F"/>
<path fill-rule="evenodd" clip-rule="evenodd" d="M10.9985 104.643C11.6152 104.491 11.5571 104.462 11.8538 103.959C11.144 104.199 11.1876 103.98 10.9985 104.643Z" fill="#95C11F"/>
<path fill-rule="evenodd" clip-rule="evenodd" d="M37.7203 111.033C38.2177 111.313 37.9676 111.243 38.4126 111.039C38.4039 111.027 38.4068 110.723 38.0432 110.726C37.2898 110.732 37.9356 110.814 37.7203 111.03V111.033Z" fill="#95C11F"/>
<path fill-rule="evenodd" clip-rule="evenodd" d="M43.0205 87.1715C43.5238 87.081 43.4656 86.9145 43.6401 86.5553C43.102 86.6925 43.0321 86.602 43.0205 87.1715Z" fill="#95C11F"/>
<path fill-rule="evenodd" clip-rule="evenodd" d="M27.0386 3.76174C27.6611 3.61279 27.4575 3.66536 27.6611 3.09C27.0386 3.3032 27.2917 3.19806 27.0386 3.76174Z" fill="#95C11F"/>
<path fill-rule="evenodd" clip-rule="evenodd" d="M40.8389 91.6985C41.6941 91.8591 41.4585 91.2107 41.2607 91.1173L40.8389 91.6985Z" fill="#95C11F"/>
<path fill-rule="evenodd" clip-rule="evenodd" d="M36.5103 67.878C37.0775 67.6735 37.0484 67.6969 37.3306 67.1682C36.743 67.4369 36.8011 67.288 36.5103 67.878Z" fill="#95C11F"/>
<path fill-rule="evenodd" clip-rule="evenodd" d="M41.1037 89.4496C41.5575 89.2656 41.2753 89.7416 41.54 89.0027C41.0571 88.9852 41.0542 88.8246 41.1037 89.4496Z" fill="#95C11F"/>
<path fill-rule="evenodd" clip-rule="evenodd" d="M17.0493 66.6893C17.5875 66.5608 17.4478 66.7301 17.5817 66.1752C17.2239 66.3037 17.093 66.2512 17.0493 66.6893Z" fill="#95C11F"/>
<path fill-rule="evenodd" clip-rule="evenodd" d="M15.5485 72.9394C16.3077 72.7642 10.3647 76.7596 10.5276 76.1433C9.81784 76.5522 15.819 72.6006 15.5485 72.9394Z" fill="#95C11F"/>
<path fill-rule="evenodd" clip-rule="evenodd" d="M38.5317 109.05C38.555 109.05 38.5928 109.026 38.5986 109.047C38.6045 109.067 38.6568 109.038 38.6655 109.035L39.0786 108.842L38.5317 109.05Z" fill="#95C11F"/>
</g>
<defs>
<clipPath id="clip0_282_17349">
<rect width="60" height="132" fill="white"/>
</clipPath>
</defs>
</svg>
