<svg width="108" height="96" viewBox="0 0 108 96" fill="none" xmlns="http://www.w3.org/2000/svg">
<g clip-path="url(#clip0_282_17347)">
<path fill-rule="evenodd" clip-rule="evenodd" d="M95.6263 91.3772C95.7503 91.0015 95.9684 90.8126 96.3661 90.7236C96.2827 91.2729 96.4431 90.9907 96.1245 91.21C95.9727 91.3142 95.8359 91.3468 95.6242 91.3772H95.6263ZM30.3846 27.6131C30.361 27.9388 30.6561 27.6305 30.5492 27.5871C30.2776 27.4785 30.3995 27.4155 30.3846 27.6131ZM24.4061 28.5273C24.2457 28.1234 24.4595 28.423 24.1046 28.2558C24.2478 28.6315 23.8993 28.4556 24.4061 28.5273ZM4.78135 53.8431C4.98448 53.7693 4.87543 53.9148 5.11064 53.6976C5.26673 53.5521 5.19403 53.6281 5.28384 53.3871C4.96524 53.4892 4.92889 53.4892 4.77921 53.8431H4.78135ZM84.6443 64.5631C85.1832 64.5044 84.7983 64.6564 85.0592 64.4089C84.7235 63.9985 84.7427 64.0984 84.6443 64.5631ZM94.8459 69.9176C95.2115 70.4779 95.4553 70.0675 95.4681 70.0631L95.1751 69.9502C94.8352 69.8568 95.0062 69.8547 94.848 69.9176H94.8459ZM45.0678 50.3754C45.2324 50.5101 45.3308 50.7315 45.891 50.1388L45.0678 50.3754ZM45.5168 65.3556C46.0407 65.2905 46.0685 65.2623 46.3165 64.9213C45.8183 64.9431 46.139 64.8866 45.8611 65.0386C45.7007 65.1255 45.6216 65.1971 45.5168 65.3556C44.6915 65.3426 45.1683 65.5771 44.4605 65.1884C43.8533 66.0114 42.5618 66.285 41.8989 66.8517C41.6445 67.071 41.7535 67.0362 41.5483 67.3229C41.529 67.3489 41.467 67.4228 41.4478 67.4488C41.3131 67.629 41.3622 67.4358 41.2917 67.6725C42.3266 67.2404 41.9652 67.8722 42.8184 66.906C43.509 66.1265 45.2944 65.6922 45.5168 65.3556ZM3.60532 54.8354C3.75714 54.7355 3.8277 54.6943 4.00731 54.551C4.46489 54.184 4.13774 54.5748 4.38364 54.1189C3.94317 54.2491 3.7272 54.4185 3.60532 54.8376V54.8354ZM36.8035 64.3785C37.2996 64.3611 37.4792 64.2526 37.6353 63.8313C37.383 63.8748 37.1499 64.0246 36.9682 64.1853C36.827 64.3112 36.9254 64.1809 36.8035 64.3785ZM42.9745 56.4987C43.1861 56.7831 42.6174 56.7375 43.2524 56.7375C43.3273 56.6789 43.5881 56.5291 43.5988 56.5204C43.8148 56.338 43.8789 56.4183 43.5903 56.288L42.9745 56.4987ZM50.082 60.5265C50.5117 60.7024 50.7491 60.3376 50.9757 60.0293C50.501 60.0771 50.3193 60.2052 50.082 60.5265ZM50.5609 57.3238C50.0114 57.3781 49.9879 57.4237 49.5453 57.6777C49.8489 57.9839 50.1098 57.8753 50.5609 57.3238C50.9886 57.3107 51.6343 56.9612 51.9593 56.7983C52.3421 56.6051 52.7184 56.2707 53.0562 56.0926C52.3399 55.9602 51.8781 56.642 51.1147 56.9546C50.268 57.3042 50.6935 57.1045 50.5609 57.3238ZM41.0821 71.5635C41.715 71.5136 41.1955 71.6851 41.5419 71.3355C41.6979 71.177 41.807 71.0598 41.9396 70.8948C41.3986 71.0033 41.1506 71.0055 41.08 71.5635H41.0821ZM51.2644 71.9587C51.7091 71.8936 51.8503 71.7785 52.2394 71.6287C52.6414 71.4745 52.7013 71.4463 52.9579 71.1575C52.4875 71.1966 52.7547 71.1575 52.3977 71.3138L51.2644 71.9587ZM42.5297 69.4117L43.5817 68.8385C43.8405 68.6821 43.7827 68.6821 43.8682 68.5519C44.1997 68.5301 45.7606 67.8288 46.0621 67.6051C45.6494 67.7202 44.5397 67.8809 44.0671 68.2848C43.7485 68.5562 43.9816 68.3543 43.8682 68.5519C43.3551 68.5627 42.7179 69.0165 42.5297 69.4117C41.4863 71.0402 41.2981 69.4834 42.5297 69.4117ZM70.6004 68.0828C70.8463 67.8853 71.2761 67.0667 71.3788 66.7257C71.0773 66.9212 71.0708 66.919 70.8421 67.2838C70.624 67.6312 70.6325 67.5943 70.6004 68.0828C70.2519 68.3608 70.4144 68.1588 70.2455 68.5757C69.82 69.6245 69.8371 68.9014 69.8756 69.5225C69.8905 69.7613 69.8734 69.7005 69.8328 70.0783C70.2711 69.6506 69.8606 69.6918 70.3225 69.4009C70.6261 69.7917 70.7758 70.1109 70.7052 70.8057L70.9896 70.999C71.5434 71.4875 71.3296 72.2562 71.0602 72.8946C70.8378 73.4222 70.331 73.8 70.1899 72.4147C70.068 71.8914 70.207 72.4104 69.9205 72.178C69.279 71.6569 69.7494 70.9425 69.805 70.7449C69.3453 70.5343 69.4116 70.8535 69.2063 70.4344C68.9668 69.9437 69.2127 69.8308 68.815 69.7005C68.6161 70.0631 69.0951 70.6429 68.9091 71.1336C68.7017 71.683 68.7979 71.4028 68.6931 72.4625C67.8443 72.3257 68.4451 71.6308 68.4558 71.5744C67.8571 71.7481 67.6625 70.7558 67.3076 69.5854L67.6903 69.1533L67.1365 69.2728C66.6255 69.5311 66.9654 69.8221 67.0403 69.9676C67.5663 71.0098 67.5086 71.1271 67.81 71.8328C67.9747 72.2193 67.9447 71.9978 68.1671 72.3973C68.2976 72.6318 68.381 72.7925 68.2911 73.0943C68.1885 73.4352 68.1457 73.2224 67.9683 73.6328L67.3781 73.6849C67.222 73.3288 67.1964 73.229 67.0745 72.8446C66.9291 72.3908 66.8393 72.4842 66.6511 72.1281C66.3967 71.6439 66.2898 70.8274 66.0652 70.4844C66.0652 70.4844 65.6825 70.4366 65.9947 71.2769C66.0289 71.3725 66.2149 71.7872 66.2769 71.9175L67.19 73.8652C67.4914 74.5491 68.3147 74.8705 67.3182 75.5241C67.6753 75.3612 67.5043 75.3591 68.0003 75.3417L67.9383 76.6206C67.0574 76.562 67.5192 76.3188 67.1515 75.6783C67.0317 75.4698 66.9718 75.4959 66.7901 75.2309C66.3282 74.5535 66.8714 74.8119 66.3154 74.2365C65.5478 73.4396 66.6276 73.7544 65.6184 72.8251C65.5777 73.8456 66.634 75.1702 66.7409 75.6587L66.232 76.1929C66.572 76.093 66.4715 76.0626 66.8222 75.9909L67.16 76.4599C67.3204 76.7118 67.3054 76.6184 67.3546 76.9485C67.0296 76.9919 67.0146 76.9072 66.8179 77.0896C66.4373 77.4457 66.5143 77.7432 65.86 77.2243L65.9455 77.6998C65.5478 78.0711 65.4345 77.7953 65.2099 78.3468C64.9063 78.4294 65.0111 78.4402 64.6497 78.4576C64.1986 77.6021 64.577 77.8301 64.1537 77.3611C63.7645 76.9311 63.8329 77.0136 63.5036 76.397C63.2064 75.8368 62.8386 74.6599 62.4174 74.3928C62.1416 74.953 62.5094 74.7793 62.5414 75.4524C62.7275 75.6196 62.5821 75.4698 62.7232 75.6609C63.0482 76.1038 63.9441 77.8127 63.9741 77.8561C64.1986 78.1818 64.9534 78.5618 63.6918 79.337C63.2043 78.8137 63.4031 78.5488 63.277 78.2079L62.9755 77.6781C62.8857 77.4566 62.828 77.2525 62.7595 77.0375C62.4687 77.5521 62.7039 78.1471 63.1979 79.248C64.1216 81.3042 63.7902 80.3293 63.3903 81.2109C63.0952 81.1479 63.0845 81.1197 62.9049 80.9438C62.9242 81.4323 62.9584 81.3086 62.7873 81.6365C63.6041 81.7429 63.5485 83.1564 64.3525 83.9837C64.2413 83.1455 63.7688 83.1282 63.8094 82.3812L64.7075 82.3052C64.8251 82.9566 64.5899 82.8915 64.9598 83.1781C65.2613 83.4083 65.0539 83.1303 65.3532 83.4886C65.783 84.0011 66.1273 85.1236 66.7473 85.3082C66.6704 84.8674 66.3903 84.6003 66.1422 84.2117C65.8728 83.7904 65.845 83.6667 65.6419 83.2237C65.8878 82.8633 66.3218 82.6288 66.7644 82.518C67.0638 83.6254 66.6169 82.9414 66.3411 83.7818C66.7238 84.2833 66.7815 83.8643 66.974 84.5786C67.0103 84.1161 66.8906 83.9598 67.3247 83.8903C67.7373 83.8252 68.3681 85.191 68.3489 85.6209C68.0645 85.7273 63.3668 86.8672 63.277 86.8629C62.0924 84.596 62.488 85.5145 62.6612 84.431C62.2164 84.1921 62.225 84.3333 61.746 84.3919C61.6519 83.9468 61.4424 83.6515 61.2564 83.2845L60.3433 81.0133C60.3027 80.8265 60.2792 80.5225 60.3326 80.2685C60.3904 79.9927 60.4417 79.9471 60.5743 79.793C60.8608 80.1056 61.0746 80.8396 61.282 81.2543C62.2164 83.1151 61.8422 82.3921 62.8622 84.0249C63.5293 85.0911 63.2556 85.1193 63.7795 85.3039C63.664 84.8327 62.875 83.6493 62.5607 83.0761C62.3875 82.7612 62.3511 82.5984 62.1822 82.3117C62.3896 81.6538 62.3212 82.2944 62.5521 81.745C61.9598 81.8536 61.9449 82.2879 61.374 80.718C60.8693 79.3283 60.5529 79.0721 61.0233 77.3654L61.2179 77.6325C61.6113 78.2643 61.7375 79.0525 62.2122 79.4C62.1437 78.9548 61.9684 78.64 61.8273 78.2926C60.9356 76.1038 61.2307 76.6575 61.4745 74.94C61.5643 73.8152 63.5186 65.3969 64.3718 63.9204C65.2099 62.4655 66.3582 61.1302 67.5021 60.533C67.917 60.3159 68.0709 60.0727 68.4002 59.823C68.9369 59.417 69.418 59.6862 69.9868 59.0239C70.2647 58.6982 70.16 59.1629 70.2113 58.5571C69.5955 58.1337 67.4594 59.0652 66.835 59.43C65.5777 60.1661 64.1173 61.4884 63.5977 63.206C63.4587 63.662 58.9364 80.8613 58.6755 83.7448C58.7076 85.6209 59.8836 85.2974 61.3119 85.7381C61.6412 85.3147 61.3397 85.3647 61.6477 85.2431C62.1822 85.0303 62.6398 86.6892 62.6975 87.0258C62.0026 87.1256 61.6926 87.5295 60.9121 87.4622C60.2492 87.4036 60.4374 87.7575 59.6527 87.6294C57.0825 88.1809 53.8645 86.9346 52.0748 84.8609C51.7776 84.5178 51.568 84.7111 51.4568 84.2681C52.8232 84.3637 53.8795 85.1584 55.0427 85.4841C54.6834 84.8761 53.6827 84.6047 53.0391 84.2204C51.4162 83.2541 51.0548 84.0488 49.2224 82.4789C48.2495 81.6451 48.9765 82.0099 47.3835 80.6724C47.809 79.4455 48.8653 59.6949 48.6087 57.4975C49.2352 57.1392 49.7206 56.7571 50.3514 56.4921C50.7854 56.3098 51.8631 55.8929 52.0085 55.4586C51.2943 55.5845 50.345 56.2772 49.8681 56.3901C49.6308 56.4466 49.7634 56.3944 49.6479 56.401C49.6265 56.401 49.5923 56.401 49.5688 56.401C49.5453 56.401 49.511 56.4009 49.4875 56.4053C48.9743 56.4748 49.1497 56.6116 48.6215 56.6441C48.7969 52.3014 48.9679 47.329 45.3714 44.2739C44.9694 43.933 44.6124 43.692 44.2446 43.3077C43.4171 42.4456 42.4976 42.2676 42.7649 41.1255C43.1006 39.6837 45.5232 39.5078 46.6907 39.1343C47.6037 38.8412 48.6771 38.3266 49.5538 38.1616C49.3165 37.6556 49.1882 37.7903 48.6066 37.9596L46.5197 38.6935C46.0835 38.8238 45.8269 38.7543 45.4334 38.9541C44.1099 39.6207 42.859 39.7054 42.4848 40.3134C42.3907 40.4654 42.3415 40.6 42.2582 40.7889C42.1063 41.1363 42.2282 41.3252 41.7899 41.208L41.296 40.9214C39.9959 39.9356 38.1699 38.4612 37.5156 37.0715C37.1628 36.3203 36.872 34.4985 36.9083 33.3976C36.9318 32.6637 36.9725 31.9146 37.0067 31.1807C37.0922 29.3024 37.4664 28.9485 38.0052 28.1885C40.1413 25.876 42.2282 22.8253 37.1414 20.6735C37.368 18.8213 37.6888 9.68206 38.0223 8.66803C38.1805 8.18382 37.9453 8.78963 38.0865 8.08177C38.4329 6.3512 37.6396 6.26217 36.9789 5.22209C36.3631 4.25584 37.9988 3.98659 35.4265 2.65989C34.8428 2.35807 34.9497 2.13225 34.5007 1.72838L33.8848 1.30062C32.0545 0.330025 32.6489 0.992289 31.8257 1.29194C31.381 1.45479 31.2398 1.19422 30.7203 1.29194C29.4587 1.52427 30.2798 0.462478 28.7638 0.549332C28.2549 0.57756 28.1351 0.618816 27.684 0.473335C26.8992 0.219286 27.2927 0.43425 26.6426 0.521105C26.1017 0.592759 25.6975 0.421222 25.287 0.410365C24.8551 0.399509 24.4253 0.484191 24.096 0.455964C23.2429 0.38648 23.4823 0.243171 22.9307 0.0868333C22.3705 -0.0716757 22.7468 0.0586056 22.4474 0.132432C21.9792 0.247514 20.9998 0.227971 19.8709 0.573217C17.6663 1.24417 18.0961 0.27357 17.8802 1.42222C17.7027 2.37979 15.8339 1.97808 15.5474 1.72186C15.4212 2.06928 15.233 2.11488 14.9166 2.38847C14.8781 2.42104 14.7305 2.58389 14.6835 2.62949L14.0848 2.94434C13.8111 3.1137 13.5545 3.52626 13.3257 3.79117C12.5196 4.72268 12.8254 4.32532 12.8874 5.40448C12.9024 5.66722 12.851 5.93212 12.8874 6.19269C12.9686 6.78112 13.221 6.6009 13.114 7.52373L13.0841 8.66586C13.3984 11.7535 13.3856 14.496 13.5502 17.4772C13.5845 18.1199 13.5374 18.9168 13.2145 19.3077C12.2588 20.4694 10.7021 20.8168 10.2809 22.8839C10.1676 23.6851 10.4348 24.6818 10.747 25.4656C11.4997 27.3591 12.1155 27.4372 12.7292 28.3231C13.0285 28.7552 12.8724 28.4426 12.881 28.8312C12.9237 30.5358 13.4711 32.7332 13.067 35.2172C12.8339 36.6525 10.4156 39.1256 9.40421 39.5643C8.5254 39.9464 7.82406 40.5435 6.96449 40.9974L5.04649 42.0418C4.38578 42.3718 3.81059 42.7735 3.27176 43.2447C2.5469 43.8809 1.94178 44.5171 1.44999 45.364C0.54979 46.9165 0.466399 50.2777 0.528407 52.017C0.716572 57.289 0.329552 65.5054 0.167046 70.8796C0.128558 72.1411 -0.162242 73.3093 0.139249 74.4623C0.462122 75.7 0.79141 77.0744 1.37729 78.2253C1.52696 78.5184 1.53765 78.5965 1.64243 78.8658C2.54904 81.2217 7.66583 88.9474 9.22888 90.0049C9.50471 90.1916 9.65438 90.3458 9.81261 90.463L10.978 91.2816C13.3471 92.9101 16.8495 93.7656 19.7041 93.8091C21.1859 93.783 23.8052 94.1391 27.2435 93.3314C28.5991 93.0122 46.5154 84.4201 46.5945 84.2594C46.9323 83.5733 46.8767 81.9035 47.2595 82.2053C48.3692 83.0739 49.3977 84.3202 50.7042 85.3929C53.8174 88.3546 56.5116 89.1819 60.6234 88.4198C62.565 88.2178 71.1264 85.9509 72.3003 85.8684C73.4956 88.4979 76.3886 91.4814 79.1384 92.3564C82.3351 93.3748 85.2537 93.6375 88.2066 92.5475C88.7476 92.8515 89.5024 93.4443 90.069 93.7874C90.4304 94.0045 90.5908 93.9936 90.8388 94.2976C91.1617 94.695 90.8388 94.5712 91.4076 94.8817C92.064 95.2378 93.1331 95.5006 93.7554 95.7155C95.3911 96.2866 96.0839 95.9652 97.6085 95.303C98.0147 95.1271 98.3975 94.9881 98.7545 94.7493C99.3468 94.3519 99.6761 94.1956 100.311 93.9133C100.889 93.6571 101.087 93.1707 101.581 92.7625C101.819 92.5649 102 92.3608 102.293 92.2131C104.393 91.147 102.796 92.2414 104.305 90.5455C104.735 90.0635 104.874 89.5011 105.054 88.8063C105.197 88.2461 105.129 88.3069 105.522 88.0246C105.543 88.0094 105.65 87.9442 105.67 87.929L105.845 87.7401C105.86 87.7271 105.883 87.701 105.898 87.6858C106.3 87.3276 106.409 87.5425 106.463 86.8173C106.518 86.0356 106.621 86.5285 106.811 86.0421C106.863 85.9118 106.876 85.3082 106.897 85.1388C106.961 84.6069 107.017 84.8131 107.209 84.3724L107.656 82.6483C107.724 82.2987 107.654 82.1489 107.739 81.7689C107.917 80.9807 107.804 81.7559 107.712 81.276C107.966 80.6984 108.188 80.0818 107.795 79.565C107.573 79.274 107.528 79.324 107.38 78.8267C107.322 78.6335 107.327 78.5662 107.263 78.3772C107.263 78.3707 107.156 78.1427 107.124 78.0624C107.314 77.6629 107.278 77.9929 107.483 77.4957L107.094 76.7487C106.724 76.1625 105.941 75.5697 105.424 75.0681L105.013 74.5513C104.481 73.5264 104.476 73.9955 103.448 73.6654C103.033 73.533 102.045 72.5645 101.607 72.2562C99.9626 71.1054 99.937 71.3616 98.87 70.7905C98.2606 70.4648 98.128 70.1196 97.4695 69.9024L96.9178 70.4909C97.23 70.6972 97.8244 70.7601 98.4445 71.1792C99.257 71.7286 98.7289 71.4463 99.6227 71.8545C100.407 72.2128 101.571 72.8273 102.009 73.5981C101.553 73.6307 100.961 73.4895 100.608 73.3896L99.2463 72.8837C99.7317 72.2063 99.0325 72.3496 98.498 72.3539C98.0104 72.3582 97.4588 72.1997 97.1487 72.5993C97.3497 72.9945 97.5122 72.9119 97.865 72.8924C98.1665 72.875 98.5749 72.9141 98.808 72.8446C98.7717 73.1768 98.5236 73.2268 98.2178 73.4157C97.6555 73.7653 96.1823 74.4493 96.4239 75.2462C96.6826 75.3504 96.6634 75.3981 96.9456 75.1854C97.1487 75.0312 96.9841 75.1072 97.1723 74.9443C97.4117 74.7381 98.0254 74.4775 98.3611 74.3038C98.962 73.9911 99.1245 73.9846 99.5115 74.3125C99.7873 74.547 100.243 74.9769 100.407 74.2625C100.606 74.2712 101.027 74.2669 101.199 74.3103C101.665 74.421 101.397 74.4167 101.71 74.6273C102.191 74.9552 102.058 74.6186 102.8 74.5991C104.436 74.5513 104.874 75.5501 105.826 76.3709C106.482 76.9376 106.39 77.6086 106.557 78.3555C107.068 80.6593 107.735 80.0492 106.871 81.6907C106.672 82.0664 106.717 81.6929 106.824 82.2336C107.092 83.5798 106.482 84.2443 106.14 85.2626C106.018 85.6252 105.941 86.1029 105.813 86.4851C105.659 86.9519 104.917 87.9312 104.429 88.0398C104.656 87.5816 104.878 87.0344 104.684 86.5741C104.218 86.5937 104.323 86.6089 104.134 86.9411C103.835 87.4622 103.666 88.1874 103.223 88.4871C102.573 88.0029 102.815 87.4427 102.845 86.611C102.452 86.2918 102.496 86.1377 101.838 86.0921C101.821 86.8607 102 86.4221 101.998 86.9194C101.998 87.2038 101.864 87.2668 101.769 87.6055C101.958 87.9204 102.231 88.1266 102.419 88.4502C102.347 88.6478 102.182 89.0169 102.092 89.1819C101.804 89.7139 101.992 89.449 101.491 89.6227C100.826 89.8529 100.974 90.1894 100.243 90.3306C100.435 89.7465 100.874 89.7269 100.683 89.1841C100.298 89.2753 100.264 89.7682 99.1972 90.7236C98.8144 91.0667 97.9805 91.7072 97.3583 91.7007C97.664 91.236 98.1002 91.084 98.4359 90.7214C98.6883 90.4456 98.6305 90.3371 98.8059 90.0418C99.0261 89.6705 99.0817 89.8941 99.1715 89.3491C98.344 89.3817 98.7524 89.6618 98.3611 90.0331C98.0896 90.2915 97.2792 90.9385 96.9435 90.9733C97.106 90.7627 97.2428 90.6367 97.3775 90.4326C96.9755 90.1395 97.215 90.4565 96.9541 90.0635C97.1829 89.3947 97.4075 89.9506 97.4652 89.0386C97.0012 89.1841 96.7574 89.4142 96.2934 89.5684C96.4902 89.2644 96.5928 89.3057 96.6334 88.9322C96.1053 89.2427 95.0383 90.3219 94.6449 90.5195C94.5294 90.4543 94.245 90.285 94.2151 90.1286C94.2065 90.0874 94.183 90.0787 94.1894 90.0895L93.7318 90.3827C93.8195 89.6987 95.0853 88.9148 95.5793 88.4046C95.7011 88.2765 95.7674 88.2678 95.8294 88.0658C96.0219 87.4405 95.8743 87.827 95.761 87.6815C95.5429 87.9204 95.6391 87.9008 95.4553 88.1397C95.1174 88.5826 94.6491 88.8497 94.2258 89.221C93.4966 89.8594 93.3748 89.6792 92.8423 90.1373C92.6584 90.2958 92.7269 90.2459 92.5237 90.3892C92.5857 89.703 93.6613 88.9127 94.1573 88.4176C94.7218 87.8531 95.6733 87.4057 95.853 86.4634C95.575 86.6588 95.6113 86.6783 95.3654 86.9541C94.9271 87.4448 92.5922 89.6097 92.3848 89.7421C92.1196 89.6162 91.6043 89.3035 91.4012 89.1124C91.9699 88.2157 93.7383 86.9932 94.0226 86.3288C93.6228 86.4047 93.3983 86.7283 93.1053 86.9997L91.4674 88.6C91.1724 88.9257 90.9906 89.2123 90.5715 89.3078C90.6036 88.5283 90.8816 88.0854 91.2664 87.6424C91.6599 87.1864 92.0041 86.9215 92.4125 86.4742C92.9086 85.927 94.4631 84.7545 94.585 84.1335C94.3198 84.2464 94.0675 84.5396 93.7447 84.7827C93.3812 85.0563 93.3534 85.1931 93.0048 85.5492L91.5316 87.0887C90.5416 88.2243 90.362 87.9008 90.0455 88.6065C89.868 89.0039 89.5452 89.1211 89.481 89.5662C89.4105 90.0461 89.6521 89.7769 89.9172 89.7551C90.1631 89.7356 89.8937 89.6596 90.1182 89.7595C90.2444 90.1981 89.2351 90.9711 90.2679 90.7127C90.5138 90.6519 90.8367 90.4391 91.0954 90.7301C91.3156 90.9776 91.1232 91.1036 91.1488 91.312L91.7283 91.5878C91.5573 91.9851 91.5252 91.7919 91.4503 92.2652C92.1004 92.2935 92.2607 91.9656 92.9813 91.8722C92.729 92.5084 92.4275 92.3087 92.25 92.8884C93.2956 93.3379 92.3441 92.6713 93.2507 92.8472C94.1638 93.023 93.3298 93.466 95.0233 92.4237C95.3312 92.2348 95.4446 92.0676 95.7332 91.8701C95.6456 92.5844 95.3997 92.3564 95.2329 92.9058C95.7952 92.9948 96.1202 92.63 96.6933 92.5497C97.6769 92.4129 96.5885 92.6192 97.3262 92.8537C97.6918 92.9709 97.8458 92.7343 98.0511 92.617C98.359 92.4411 98.3761 92.604 98.7738 92.5649C99.4281 92.5019 100.037 91.7311 100.576 91.401C100.799 91.5661 100.713 91.514 100.944 91.6182L101.361 91.781C100.172 93.3205 99.4837 93.3379 97.741 93.2467C96.8259 94.4171 96.5308 94.8209 94.662 94.4366C93.6335 94.226 93.6805 93.9372 93.0112 93.8026C90.5737 93.3097 90.8495 92.7256 90.2529 91.8375C89.7847 91.1383 87.9821 90.6454 88.6792 89.1493C88.784 88.9257 88.7733 89.0364 88.8096 88.7846C88.8823 88.2743 89.0341 88.2135 89.2693 87.6164C88.8567 87.7857 88.7583 88.1245 88.5723 88.5197C88.2195 88.4979 88.1617 88.4806 87.9308 88.372C87.8496 88.0572 87.9223 87.8986 87.8667 87.5881C87.8602 87.5556 87.8538 87.5252 87.8453 87.4948C87.8389 87.4644 87.826 87.4361 87.8175 87.4057C87.5438 86.4352 87.9543 86.42 88.352 85.6339C88.4739 85.3951 88.506 85.1497 88.5894 84.9087C89.1389 83.341 88.9636 84.4614 88.816 83.5885C88.6578 82.6461 89.1646 82.1511 89.6115 81.6625C90.7918 80.3792 89.7376 80.0535 90.672 79.1806C91.4225 78.4771 91.1553 79.1806 91.8288 78.8853C92.1217 78.3316 91.955 77.7888 91.3071 78.0407C90.8174 78.2318 90.6143 78.4684 90.3064 78.7789C89.975 79.1112 89.6371 79.185 89.2993 79.489C89.0641 79.6996 88.7433 80.0145 88.4761 80.3771L87.5288 80.2055C87.6336 79.413 87.8196 80.0839 87.9158 79.2892C87.2851 79.2784 87.5096 79.3305 87.1055 79.6106C86.7548 79.8516 86.7462 79.7865 86.3827 79.9059C85.0634 80.338 83.1861 81.6386 81.8518 81.58C81.9181 81.0502 81.8967 81.2912 82.1554 80.9438C82.3329 80.7049 82.489 80.5768 82.8311 80.4748C83.3678 80.3119 83.6479 80.1208 84.1654 79.8777C84.9822 79.4933 86.1454 79.4629 86.7933 78.7703C86.34 78.5596 85.4162 79.1459 84.8881 79.3413C83.6629 79.7995 82.7948 80.4617 83.1091 79.6931C83.2759 79.2849 83.6201 79.0352 83.9986 78.8419C84.5888 78.5423 85.1639 78.5553 85.6515 78.2339C85.3842 78.0841 85.211 78.1645 84.9245 78.2752C83.2181 78.9375 83.804 78.4619 82.6836 78.3555C81.9267 79.3999 82.7477 79.3283 80.8896 79.7886L80.4812 78.8397L81.7556 78.3034C82.211 78.1341 82.5275 77.9408 83.0086 77.7367L84.3193 77.246C84.7021 77.0332 85.1939 76.8443 85.4783 76.6358C84.1098 76.549 81.9908 78.4511 80.7421 78.2622C80.5753 77.4436 80.7592 77.6368 81.4734 77.2568C82.2666 76.8356 83.3144 76.4513 84.1504 76.0865C84.5374 75.9171 85.1383 75.7282 85.4355 75.4524C84.8881 75.4155 83.4769 76.1234 82.9081 76.4078C82.3821 76.6706 81.0393 77.4023 80.494 77.2677C80.6843 77.0419 80.6074 77.0983 80.8896 76.8768C80.7848 76.803 80.8297 76.8703 80.6459 76.8269C80.4513 76.7813 80.4705 76.8226 80.3508 76.7357C80.7335 76.0778 81.6743 75.9953 82.4013 75.7238C83.0343 75.4872 83.0172 75.3525 83.4127 75.1441C83.7976 74.9422 83.9708 75.0638 84.4177 74.7446C83.3913 74.5622 83.4149 75.3482 82.69 75.0051C82.2816 73.8109 85.0485 73.5178 85.6793 72.862C85.4163 72.773 84.2466 73.1226 83.9409 73.2854C84.1183 72.6384 83.9858 73.0943 83.9601 72.4712C84.097 72.3691 84.129 72.3713 84.2424 72.2757L84.4818 72.0282C84.2787 71.9196 83.9558 72.3213 83.9302 71.8827C83.9045 71.4332 84.7577 71.1488 85.1019 71.0402C85.5339 70.9056 85.5403 70.9751 85.8161 70.7015C85.0763 70.8296 84.1975 71.4094 83.479 71.3703C83.5603 71.1184 83.804 70.9686 84.0392 70.8405C85.0036 70.3172 86.0705 70.4431 86.1625 69.6592C85.9743 69.6462 85.861 69.6332 85.7113 69.5225C86.1753 68.9145 87.037 68.8341 87.4903 68.2044C87.2573 67.9374 87.1161 67.9395 86.8232 67.7311C87.9971 66.7388 87.7384 67.7398 89.1282 67.0927C89.8894 66.7388 90.9949 66.5586 91.7925 66.8821C92.3334 67.1014 94.8608 68.2305 95.3141 68.6322C95.6306 68.9123 96.0882 69.5268 96.2785 68.9449C96.4217 68.5106 96.0112 68.2348 95.7888 68.0785C95.7674 68.0633 95.7396 68.0459 95.7183 68.0329L95.5878 67.9352C95.2821 67.6855 94.9784 67.3945 94.6855 67.0992C93.7254 66.133 92.0362 66.2502 90.749 66.0765C89.913 65.9636 86.7035 65.7508 86.109 65.4968C86.0107 65.2492 86.31 64.8758 85.938 64.7976C85.7691 64.7628 85.3756 65.0473 85.1917 65.1602C83.6907 66.0787 82.2923 66.45 80.8896 67.705C79.3372 69.0947 78.1227 70.8535 77.0942 72.634C77.0151 72.773 76.9638 72.8273 76.8697 72.9945C76.1556 74.2495 76.0487 75.2548 75.7236 76.6011C75.2425 78.59 75.11 80.807 75.8733 82.7873C77.4577 86.902 78.0479 84.7762 79.5019 85.5536C79.333 84.6199 79.2517 84.9955 78.5183 84.457L78.8946 84.2703C79.3137 84.1335 79.7114 84.0597 80.1455 84.0575C81.251 84.0467 81.5076 84.8305 82.3864 85.888C82.6087 86.155 83.1519 86.687 83.0172 87.004C82.9979 87.0084 82.9658 86.9954 82.9573 86.9954L82.7349 86.9476C82.6601 86.9432 82.5296 87.0931 82.179 86.9867L81.5931 86.8347C81.097 86.6827 80.4983 85.7751 80.0728 86.0443C80.4106 86.8629 79.6922 86.5893 80.8297 87.1061C82.8439 88.0224 82.7028 87.4057 83.665 87.5273C84.0392 87.5751 84.2359 88.0745 84.5161 88.3698C85.1148 88.9974 85.6664 89.5641 86.2758 90.1938C86.65 90.5803 87.424 91.5965 87.5352 91.7007C86.3122 93.1881 82.504 92.7212 79.3137 91.4814C76.1556 90.2524 73.1749 86.5567 72.45 83.215C72.3495 82.7482 72.435 82.214 72.3666 81.8058C72.1656 80.6159 72.2362 79.2024 72.3816 78.0125C72.5398 76.7162 73.1193 74.814 73.44 73.5785C73.5726 73.0726 73.9831 72.3648 74.0045 72.0087C74.0387 71.3855 74.0772 71.8371 73.8826 71.6048C72.9503 72.6796 72.0993 76.1147 72.0609 77.2937C71.8855 77.0419 71.9497 77.3871 71.9518 76.8247C71.9539 76.3839 72.1357 76.1407 72.2234 75.6305L72.6767 73.229C72.8007 72.6427 72.6788 72.9575 72.8969 72.4885C73.3117 71.5961 73.5491 70.4583 74.0751 69.7787C74.9197 68.6865 75.142 67.5074 76.3052 66.2763C77.4727 65.0408 78.9673 63.5947 80.4791 62.737C81.8048 61.9857 83.1369 61.5579 84.6101 61.23C84.9202 61.1606 84.9715 61.128 85.3692 61.0802C85.7797 61.0303 85.7284 60.8957 86.0214 61.1975C84.7085 61.6339 83.3978 62.0486 82.1426 62.6436C81.5589 62.9194 80.9024 63.2081 80.4042 63.6381L79.5853 64.1896C79.3116 64.3568 79.0058 64.5652 78.7749 64.7542C78.065 65.3361 77.3573 66.1264 76.6858 66.8213C76.3886 67.1274 76.3651 67.3381 76.0957 67.6421C75.8455 67.9222 75.6638 68.0611 75.4328 68.3608L74.3359 70.0675C74.1135 70.454 73.966 70.5082 73.9339 71.0902C74.3979 70.9794 74.3937 70.7145 74.6481 70.2955C75.2746 69.2641 75.7386 68.7842 76.4528 67.9091C76.6452 67.6746 76.8505 67.3598 77.0451 67.1057L78.3751 65.6509C79.256 64.613 81.3814 63.5404 82.5874 62.8977C83.2609 62.5394 83.9665 62.5133 84.593 62.192C85.2751 61.8424 85.8973 61.7946 86.8446 61.7642C87.3898 61.7468 87.5566 61.5319 88.0228 61.4906C88.5509 61.4428 88.7754 61.5623 89.2886 61.4472C91.7967 60.887 98.6754 65.2384 99.0796 68.1306L99.225 69.1208C99.3361 69.7157 99.3768 69.7526 99.9776 69.8286C99.0838 64.6152 94.2343 61.0325 89.2929 60.9456C88.0056 60.9239 88.5359 60.7545 87.9158 60.5591C87.6379 60.4722 87.3193 60.5113 87.0221 60.494C87.2487 59.4995 87.2701 60.0401 87.8517 59.8404C88.0035 56.7896 87.9372 58.5593 87.6806 57.428C87.5908 57.0306 87.7897 56.6832 87.8624 56.1882C87.9073 55.8863 87.8153 55.1655 87.7127 54.4272C87.253 51.1311 86.3485 49.7718 82.7221 47.5353C80.8212 46.7862 74.1456 42.2698 72.435 40.6955C71.6824 40.0029 70.8527 39.5165 70.0231 38.915C69.3025 38.3939 68.9882 38.1095 68.2676 37.7555C67.6711 37.4624 67.0531 36.7828 66.3646 37.0585C66.5506 37.4038 66.788 37.3647 67.1622 37.5601C67.5984 37.7859 67.562 37.9053 67.8571 38.1355C68.2505 38.4395 68.8834 38.6849 69.3923 39.0562C69.8692 39.4058 70.4337 39.6989 70.9575 40.0593C71.475 40.4154 71.8064 40.7867 72.2854 41.1689C75.3302 43.4857 77.9966 45.1121 81.0778 47.2791C84.4711 49.3223 85.8995 50.6121 86.65 54.59C86.7484 55.1199 86.8232 55.6236 86.8745 56.0644C85.8931 56.0036 85.1361 55.7278 84.1355 55.945C83.4191 56.1013 82.6045 56.2207 81.901 56.5204C81.5888 56.6528 81.8368 56.5312 81.6786 56.642C81.8604 56.7723 81.6166 56.7332 81.9972 56.7375C82.2624 56.7397 82.0357 56.7375 82.2538 56.6876C83.5346 56.3792 85.4312 55.9927 86.6158 56.6333C86.4298 57.2282 86.2095 56.9481 86.1197 57.5648L86.8125 57.4541C86.7334 58.7656 87.6614 57.897 87.1012 59.4886C86.9344 59.9598 86.7869 60.0032 86.6778 60.3615C85.97 60.3354 85.7755 60.4484 85.1768 60.52C84.6892 60.5808 84.3086 60.6177 83.8147 60.7198C82.2944 61.0346 80.5283 61.9292 79.2902 62.7674C78.3323 63.4144 76.0337 65.449 75.3986 66.3762C74.6396 67.4857 74.3979 67.5292 73.7223 68.9123C73.4764 69.4161 73.3481 69.4226 73.1193 69.948C72.7814 70.7254 72.3388 71.4528 72.1571 72.2909C71.877 72.1585 71.7422 72.3235 72.1207 71.2791C72.4521 70.3628 72.2276 70.1326 72.7878 69.0838C73.1791 68.3543 73.1449 68.4759 72.9824 68.2674C72.6104 68.7951 71.9882 70.7753 71.5199 71.1054C71.2932 70.9034 71.2205 70.8079 71.1842 70.4475C71.0815 69.4313 70.5534 69.6875 70.6068 68.1067L70.6004 68.0828ZM42.442 74.649L43.0151 74.6621L43.3316 73.9911C42.8312 74.1648 42.6666 74.091 42.442 74.6512V74.649ZM44.7235 69.5507C45.0314 69.4877 45.2175 69.4182 45.4527 69.3357C45.906 69.1772 45.8055 69.2879 45.9937 68.984C45.7242 68.8276 45.6665 68.9536 45.3458 69.0838C44.8775 69.2749 44.9673 69.136 44.7214 69.5507H44.7235ZM50.9009 75.1528C51.1682 75.1224 52.3998 74.3928 52.6093 74.1344C52.1389 74.2148 51.9101 74.2973 51.6044 74.5795C50.9501 75.1788 51.2259 74.7467 50.9009 75.155V75.1528ZM50.2894 72.4212C50.7256 72.2649 50.5224 72.4538 50.8068 72.1237C50.3578 72.1954 49.9194 72.3539 49.7249 72.7665C50.0392 72.9749 50.129 72.9206 50.4626 72.9228C50.3642 72.6362 50.3834 72.7122 50.2894 72.4212ZM51.3585 59.8795C51.769 59.7796 53.0113 59.126 53.2294 58.9089C52.8595 58.7851 53.1845 58.7981 52.7783 59.0478C52.5088 59.2129 52.4832 59.1803 52.2202 59.2889C51.4055 59.6298 51.4461 59.5559 51.3563 59.8795H51.3585ZM26.9869 35.6884C27.3782 35.645 26.8607 35.9967 27.6562 35.0652C27.9234 34.7525 28.0731 34.6266 28.2121 34.138C27.5236 34.4029 28.0753 34.2119 27.5193 34.9197C27.267 35.2411 27.0083 35.2085 26.9848 35.6906L26.9869 35.6884ZM44.4712 56.0926C44.8262 55.9992 46.5603 55.2979 46.8404 54.9418C46.1711 54.8962 46.1177 55.2784 45.613 55.4781C45.0678 55.6931 44.8796 55.5172 44.4712 56.0926ZM49.2994 39.6164C49.7997 39.6164 51.2323 39.1191 51.5509 38.9085C51.0826 38.6653 49.7334 39.3363 49.2994 39.6164ZM42.0743 72.0521C42.5917 72.0087 42.6302 71.8089 43.4641 71.3942C43.9474 71.1531 44.3002 71.0098 44.7492 70.7254C44.2595 70.695 42.6323 71.5635 42.2432 71.874C42.0828 72.0021 42.1256 71.9913 42.0721 72.0543C41.6766 72.1693 41.4948 72.4125 41.2639 72.7252C41.5846 72.9206 41.3815 72.8533 41.869 72.8772C41.7771 73.2333 41.6894 73.2463 41.8006 73.4591C42.4314 73.381 41.9353 73.4678 42.2197 73.192C43.0023 72.4386 44.5568 72.0239 45.5575 71.6439C45.3287 71.4637 45.69 71.5853 45.0272 71.5223C44.6679 71.4875 45.0443 71.5918 44.6765 71.4354C44.6594 71.4289 44.6188 71.4072 44.6059 71.4007C44.4242 71.3182 43.4342 72.0108 43.2503 72.1324C42.3565 72.7165 42.7713 72.6427 41.7364 72.5124L42.0721 72.0521H42.0743ZM13.4583 60.203C14.2238 60.1009 14.2559 59.5733 15.3399 59.5559C14.9422 58.822 13.6443 59.7036 13.4583 60.203ZM35.0438 12.2899C34.7915 12.8935 35.249 13.1845 35.8413 13.2974L35.9611 12.596C35.6596 12.4006 35.3666 12.2551 35.0459 12.2899H35.0438ZM6.80412 54.7529C7.29378 54.6443 7.653 54.2795 8.16404 53.9104C8.32868 53.791 8.34151 53.804 8.51685 53.6954L8.65797 53.6042C8.69646 53.5782 8.76916 53.5217 8.85682 53.4653C9.27592 53.2004 9.28875 53.3632 9.32296 52.7574C8.88676 53.018 8.01864 53.8279 7.41566 54.1797C7.03719 54.4011 7.03933 54.2643 6.80198 54.7551L6.80412 54.7529ZM6.26529 57.4997C5.83978 57.6082 5.86757 57.6973 5.56181 57.9774C5.35654 58.1641 5.10209 58.4268 4.90537 58.5919C4.63809 58.8155 4.48628 58.9436 4.24038 59.1955C4.1463 59.2932 4.02656 59.3953 3.99234 59.5451C3.89612 59.9489 4.01373 59.8664 4.18265 60.0249C4.57394 59.3866 4.19975 59.7296 5.07643 58.6526C5.32874 58.3421 5.40999 58.5028 5.72217 58.1467L6.26315 57.4997C6.90248 57.3477 7.25743 56.7592 7.82833 56.4704C9.09844 55.8277 8.05926 56.0731 9.4705 55.3696C10.623 54.7942 11.0507 54.3338 11.953 53.8453C12.3037 53.6564 12.541 53.6108 12.6394 53.1352C12.0706 53.1635 11.6643 53.5999 10.9694 54.1015C10.4455 54.4793 9.81903 54.8267 9.30585 55.1872C8.52967 55.7322 7.72356 56.249 6.98373 56.8765C6.55395 57.2413 6.5347 57.1414 6.26315 57.504L6.26529 57.4997ZM89.5494 65.2492C89.7911 65.7812 90.9158 65.6878 91.7069 65.677C90.7469 64.9062 91.5423 65.3122 90.3064 65.1884C89.2373 65.082 89.7355 65.1407 89.5494 65.2492ZM41.7706 54.577L41.5718 55.0395C42.2774 55.0156 42.3736 54.6639 43.075 54.3772C43.3679 54.2578 43.3422 54.3642 43.5668 54.1927C43.9944 54.1058 44.931 53.8431 45.1918 53.5565C44.7193 53.5695 43.122 54.1341 42.6409 54.3903C42.3415 54.5488 42.2325 54.5987 41.7706 54.577ZM3.24824 57.8471L3.3915 57.6299C3.46634 57.5301 3.4364 57.5496 3.54973 57.441C3.86191 57.137 4.25749 56.9416 4.7001 56.3966C5.34371 55.6041 5.57464 56.0557 6.35723 55.0135C5.72004 55.2241 3.31239 57.1609 3.19265 57.5496C3.03442 58.0664 3.16912 57.7016 3.24824 57.8449V57.8471ZM96.086 83.1412C95.8914 82.8546 95.7845 83.0978 95.6263 82.9175C95.4638 82.7308 95.6049 82.5289 95.4595 82.1749C95.0768 82.1945 94.7646 82.34 94.7475 82.7308C94.7176 83.4213 95.5579 83.4908 96.086 83.1412ZM42.0144 58.201L41.7557 58.5332L42.1149 58.5636C42.5361 58.4203 42.3116 58.5137 42.6302 58.2705L43.9196 57.6473C44.7214 57.3086 45.5211 57.2608 45.7649 56.8569C44.762 57.0393 43.9046 57.4193 43.0065 57.8492C42.6516 58.0186 42.3437 58.1098 42.0165 58.2032L42.0144 58.201ZM93.3512 69.9567C93.3298 70.1304 93.4132 70.6733 93.9072 70.7992C94.523 70.9556 94.7218 70.9382 94.8138 70.5017C94.4353 70.2412 94.5508 70.4648 94.2664 70.3476C93.8109 70.163 94.2429 70.4757 93.9884 69.9394C93.7981 69.5377 93.4132 69.4443 93.3491 69.9567H93.3512ZM97.0696 87.2646C97.1616 86.5046 97.3412 86.7717 97.0119 86.0986C96.674 86.0834 96.3811 86.1681 96.225 86.5828C96.0732 86.9888 96.2485 87.117 96.4303 87.3341L97.0718 87.2646H97.0696ZM43.9987 61.3256C43.988 61.3473 43.973 61.3582 43.9666 61.3886C43.9367 61.5145 43.4598 61.7794 43.3294 61.8597C43.0493 62.0335 42.7671 62.1898 42.5383 62.4004C42.6751 62.4699 42.6537 62.4721 42.7179 62.4655C42.9103 62.4438 43.3487 62.1181 43.5881 62.0074C43.8212 61.7099 44.514 61.4776 44.8754 61.3842C45.4655 61.2322 45.8846 61.0889 46.0386 60.6004C45.8547 60.6655 45.7456 60.6894 45.551 60.7914C45.1148 61.0173 44.4306 61.2496 43.9987 61.3256ZM2.08932 63.2755C2.64526 63.041 2.09787 62.9085 2.81845 62.3765C3.43854 61.9184 3.24396 61.8749 3.65664 61.6057L4.59746 60.9282C4.98876 60.6329 5.2261 60.596 5.47842 60.1552C5.05718 60.2399 4.92675 60.4136 4.44779 60.7741C3.20761 61.7099 3.37012 61.4949 2.21333 62.6827C1.68733 63.2234 2.05724 63.2212 2.08718 63.2776L2.08932 63.2755ZM99.7595 84.1009C100.497 84.0879 100.018 83.7362 100.784 83.7058C100.807 83.1586 100.839 82.8611 100.371 82.6374C99.9733 82.8785 100.091 82.8937 99.8771 83.3171C99.6932 83.684 99.5842 83.6558 99.7595 84.1009ZM24.8444 36.355C25.3041 36.1639 25.0817 35.8882 25.7809 35.1738C26.2107 34.7352 26.3433 34.5897 26.6213 34.1294C26.1893 34.0707 25.89 34.5093 25.3554 35.0674C24.5343 35.9272 24.5536 36.0814 24.8444 36.355ZM11.0015 59.6037C11.829 59.5972 12.1411 58.9132 12.8746 58.5332C13.3129 58.3074 13.3599 58.3074 13.794 57.9622C14.1554 57.6755 14.243 57.7038 14.6878 57.4823C14.0378 57.3498 14.0934 57.3346 13.3813 57.871C12.5987 58.4616 11.7071 58.8958 10.9993 59.6037H11.0015ZM41.5568 68.5475C41.9203 68.4324 43.37 67.1926 44.5268 66.8452C44.9523 66.7171 45.3116 66.5846 45.5339 66.298C45.2282 66.0939 45.5425 66.1004 45.0956 66.3588C44.4456 66.7344 44.0136 66.5911 42.4121 67.6725C42.1983 67.8179 42.1277 67.8201 41.8989 67.9504C41.5782 68.1328 41.5825 68.0785 41.5568 68.5475ZM102.422 77.8322C102.473 77.3285 102.475 77.3654 102.796 77.1526C103.369 77.4153 102.618 77.2547 103.454 77.88C103.85 77.2785 103.587 76.9116 103.05 76.5794C102.481 76.6402 102.133 76.9224 101.994 77.4653C102.191 77.8018 101.998 77.6976 102.422 77.8344V77.8322ZM8.04002 58.4138C8.30944 58.3704 9.23529 57.8275 9.53678 57.6299L11.5296 56.4335C11.9979 56.1491 12.3122 56.1578 12.5902 55.7474C12.0471 55.654 11.1276 56.4248 10.2253 56.9329C9.70356 57.2261 8.28805 58.0273 8.04002 58.416V58.4138ZM42.3822 59.1673L42.0336 59.4365C41.9011 59.5082 41.9438 59.4691 41.8027 59.5516C41.5782 59.6819 41.7193 59.6015 41.5889 59.6992L41.7022 59.9772C41.7236 59.9576 41.7535 59.9272 41.7685 59.9142C41.7835 59.9012 41.8155 59.8686 41.8348 59.8534C42.4378 59.3627 44.7962 58.3465 45.3864 58.1684C45.7499 58.0577 45.7392 58.0382 46.0279 57.9079C46.4833 57.7059 46.3743 57.9752 46.5218 57.4693C46.1412 57.5648 45.983 57.7255 45.5553 57.8644C45.1597 57.9926 44.8967 58.099 44.5867 58.2618C43.8148 58.6635 43.1926 58.4485 42.8141 59.1716H42.3822V59.1673ZM5.72217 74.6121L6.15837 74.8944C6.41496 74.382 6.1712 74.23 6.65658 73.7023C6.85758 73.483 7.21466 73.1226 7.47125 72.9011C8.0336 72.419 8.12341 72.1954 8.72639 71.7307C9.05568 71.4745 8.9616 71.6634 9.08348 71.2422C8.73281 71.3985 8.58313 71.6178 8.14907 71.9544L6.42779 73.572C6.05788 73.9151 5.82909 73.9759 5.72217 74.6143V74.6121ZM89.8488 68.8754C89.5601 69.0165 89.3592 69.0361 89.1988 69.3943C88.7775 70.3367 89.9129 70.2781 90.1995 69.998C90.3064 69.8938 90.4881 69.4074 90.563 69.2228L89.8488 68.8754ZM24.8872 48.4538C25.4581 48.4321 25.2785 48.3474 25.642 47.9479L27.2713 46.4735C27.5963 46.1674 27.4317 46.5734 27.5172 46.0088C27.1088 46.0588 26.9634 46.2064 26.7025 46.4475C26.2364 46.8796 24.9385 47.8545 24.885 48.4516L24.8872 48.4538ZM3.50269 67.5378C4.18265 67.3055 3.38295 67.4857 4.38578 66.5455C5.06574 65.9072 5.73928 65.2623 6.5176 64.7672C6.87468 64.5392 7.41779 64.2309 7.59099 63.8487C7.26812 63.9508 6.67369 64.372 6.36578 64.5978C4.99731 65.5945 5.40358 65.1841 4.22114 66.361C3.83839 66.7388 3.25465 66.8582 3.50483 67.5378H3.50269ZM10.9117 73.1095C11.6494 72.8967 14.7412 70.454 15.9536 69.8851C16.2444 69.7483 16.1332 69.8959 16.2701 69.618C15.2694 69.5529 15.4062 69.8199 14.7819 70.2803C14.5488 70.4518 14.3948 70.53 14.1789 70.7145C13.9009 70.9512 13.8389 71.012 13.5224 71.2031C13.0029 71.5158 12.6672 71.8892 12.2716 72.1324C11.4056 72.6622 11.1447 72.5993 10.9138 73.1117L10.9117 73.1095ZM49.7505 62.3895C50.2551 62.383 50.0798 62.3288 50.4283 62.053C50.5866 61.9292 50.7983 61.7968 50.9779 61.6925C51.8631 61.1823 54.1275 60.2399 54.4397 60.051C54.7561 59.8599 54.5851 59.9555 54.7219 59.797C54.4354 59.8556 54.1425 59.9555 53.8901 60.0423L52.9579 60.4744C51.9358 60.8653 52.8189 60.3919 52.0448 60.9195L50.7063 61.508C50.3856 61.6317 50.3022 61.5927 49.9622 61.9097C49.6992 62.1529 49.7762 62.053 49.7505 62.3874V62.3895ZM87.7319 75.1832C87.7662 74.5426 87.9287 74.3277 87.7747 73.9216C87.0135 73.9216 87.099 74.3385 87.0178 74.5187C86.9814 74.6013 85.6365 76.0669 86.9429 75.6761C87.6849 75.4546 86.7206 75.6935 87.7298 75.1832H87.7319ZM19.8366 40.8041C20.2814 40.663 20.7155 40.296 21.1581 40.0485C22.3705 39.3688 22.7168 38.8759 23.3262 39.0692C23.1915 38.6023 23.4118 38.6458 23.7753 38.4395C23.8822 38.3787 24.1495 38.205 24.1922 38.1659C24.4253 37.9618 24.3611 38.0921 24.4189 37.7403C23.7945 37.6991 23.6919 38.0725 23.2813 38.3787L22.131 39.1734C21.6114 39.5686 20.0419 40.1636 19.8345 40.8019C19.208 40.7477 18.5665 41.4229 18.0662 41.7356L14.6963 43.9678C14.2067 44.3065 13.3578 44.6756 13.1996 45.3618C13.9244 45.327 13.2167 45.4313 14.0271 44.8037L16.4925 43.0363C17.1639 42.5716 19.5095 41.1103 19.8324 40.8019L19.8366 40.8041ZM32.5891 14.1985C32.5356 15.5382 32.9633 14.6762 32.8606 15.8422C33.2819 15.7727 32.9568 15.8682 33.269 15.6902C33.4337 15.5968 33.5427 15.5121 33.6603 15.3884C33.9319 15.1039 33.934 14.9063 33.9618 14.3765C33.4786 14.2245 33.1194 14.0443 32.5891 14.2006V14.1985ZM49.4298 64.2504C50.33 64.296 49.5303 64.207 50.2167 63.7749L52.419 62.5567C53.3556 62.2158 54.4546 61.6014 55.2479 61.3169L55.5943 61.1931C55.6114 61.1562 55.6499 61.1649 55.6777 61.1497C55.528 61.052 55.5152 60.9651 55.1367 61.0542C54.8181 61.128 54.4461 61.4472 53.9714 61.5992L52.7419 62.1833C51.3136 62.889 51.4333 62.7934 50.005 63.6598C49.6244 63.8921 49.5559 63.7966 49.4319 64.2482L49.4298 64.2504ZM19.8495 4.05824C19.9093 3.57403 19.8046 3.89539 20.012 3.64351C20.2835 3.31781 21.017 3.45895 20.5679 2.7272C20.1574 2.75109 20.337 2.70983 20.0847 2.99645C19.4881 3.67174 18.7697 4.23847 19.193 4.54246C19.5865 4.82473 20.3028 4.5772 20.5615 4.36006C20.7924 4.16681 20.709 4.55331 20.7411 4.09516C20.7732 3.6522 20.6299 4.04956 19.8495 4.05607V4.05824ZM9.79551 70.7341C10.1569 70.6016 10.8176 69.9546 11.504 69.5724L14.6322 67.312C15.0342 67.0971 15 67.3272 15.4233 66.9472C14.5552 66.7648 12.5303 68.4476 11.7883 69.0361C11.4569 69.2988 11.2837 69.3118 11.01 69.5116C10.809 69.6593 10.6487 69.8677 10.407 70.0588L9.79551 70.7362V70.7341ZM5.01014 64.4437C5.51263 64.2591 5.24535 64.2265 5.49125 63.8682C5.64306 63.6468 5.9082 63.51 6.10492 63.3298C7.25315 62.2853 6.94524 62.7305 8.12341 61.7881C8.24743 61.6904 8.06568 61.8033 8.31371 61.6317C8.88248 61.2387 8.56175 61.5297 9.30585 60.9109C9.81048 60.4918 9.71853 60.7024 9.94091 60.342C9.28233 60.4636 8.94663 60.9304 8.49974 61.2366C7.58671 61.8619 6.66086 62.4981 5.79487 63.232C5.48269 63.4969 5.43138 63.4796 5.11705 63.7097C4.67658 64.0311 4.70651 64.1288 5.00801 64.4437H5.01014ZM42.1833 60.8848C41.9588 61.3191 41.5247 61.1888 41.0479 61.8858C41.3195 62.0009 41.3729 62.0508 41.6701 61.8489C42.2154 61.4754 42.0593 61.3212 42.8954 61.0064C42.9231 60.9955 42.9552 60.989 42.9809 60.976C43.0065 60.9651 43.0365 60.9499 43.0621 60.9391C43.5112 60.7371 43.1797 60.7393 43.6245 60.7762C44.0714 60.1769 46.1818 59.8773 46.5475 59.1195C46.231 59.3258 46.3614 59.2129 46.0065 59.3323L44.3643 60.0749C43.4427 60.444 44.0072 60.342 43.3038 60.4332C42.7756 60.5026 42.8654 60.7849 42.1833 60.8805V60.8848ZM49.6372 71.3638C49.8553 70.7384 49.6137 70.9664 50.176 70.6798C51.0634 70.2281 51.4141 69.9394 52.5174 69.4899C53.5117 69.086 54.4162 68.5996 55.3099 68.0872C55.5516 67.9482 55.4789 68.0676 55.5772 67.7984C55.2565 67.9395 54.97 67.9547 54.677 68.1132C53.0113 69.0165 51.521 69.6592 49.8061 70.6342C49.3934 70.8687 49.387 70.7536 49.2416 71.2291C49.5324 71.3855 49.2331 71.2617 49.6351 71.3638H49.6372ZM100.463 78.6747C100.358 78.7833 100.123 79.185 99.8579 78.6465C99.9049 78.5987 100.078 78.5509 100.215 78.5596C100.79 78.5922 100.236 78.5271 100.463 78.6769V78.6747ZM100.989 78.6943C101.017 77.9864 100.961 79.1242 100.948 78.425L100.722 78.184C100.572 78.1058 100.709 78.1406 100.45 78.0906C99.8215 77.9734 99.4901 78.1471 99.287 78.6204C99.4623 78.9092 99.3618 78.8354 99.6954 79.0243C100.782 79.6388 100.491 79.8559 101.19 79.7539C100.965 78.8245 100.931 80.1773 100.989 78.6921V78.6943ZM32.557 22.0045C33.331 21.9024 32.8799 21.3032 33.6967 21.5333C34.0559 22.2238 33.3011 22.3649 33.1215 22.9621C34.4835 23.4094 34.9155 20.4628 33.1343 21.0165C32.6297 21.1729 32.4373 21.5159 32.557 22.0045ZM25.9563 24.1411C25.5179 23.8436 25.7147 23.9631 25.6505 23.557C25.5243 23.62 25.4794 23.607 25.3319 23.7003C25.302 23.7199 25.2079 23.7828 25.1801 23.8067C24.9427 24.0065 25.1801 23.7351 24.9684 24.0434C25.7146 24.4733 25.2806 24.5993 26.3903 24.6362C26.4887 24.5233 26.54 24.4603 26.664 24.3322C27.7887 23.151 27.1088 22.2716 26.4652 23.2595C26.2727 23.5548 26.1808 23.8762 25.9563 24.1433V24.1411ZM21.2158 48.2909C21.9 48.2931 21.7012 48.0629 22.3469 47.5852C23.3091 46.873 23.9934 46.5473 24.5493 46.1304C25.4089 45.4877 25.4367 45.7982 25.6035 45.1989C24.761 45.39 23.895 46.1174 23.2813 46.5473L21.8808 47.4289C21.3291 47.8458 21.265 47.7807 21.2179 48.2888L21.2158 48.2909ZM28.3789 8.17948C28.396 8.8222 28.8172 8.91991 28.1244 9.1175C28.0004 9.15225 27.5899 9.21956 27.4423 9.1631C27.0532 9.01979 27.2328 9.06539 27.2093 8.15342L26.6448 8.32062C26.6961 9.39978 26.9741 9.61257 28.1073 9.48012C29.1251 9.36287 29.0524 9.00676 29.2363 8.52255C29.3946 8.10565 29.3432 8.60072 29.4181 7.99491C29.0011 7.98188 28.6889 8.06005 28.3789 8.17731V8.17948ZM34.8043 8.12302C34.6974 8.69192 34.7166 8.51604 34.4066 8.54209L33.6389 8.53775C33.5876 9.91873 35.0395 9.02196 35.1485 8.86563C35.418 8.47913 35.4842 7.83206 34.8748 7.50201C33.8677 6.957 33.2819 7.57584 34.5541 8.0188C34.7743 8.09479 34.6738 8.02748 34.8043 8.12519V8.12302ZM24.8016 4.80302C25.4025 5.01147 25.2314 4.68794 25.7318 4.77479C26.1637 4.85079 25.5757 4.86599 26.0161 4.86599C26.5443 4.86599 26.4438 4.18852 26.2214 3.83242C25.6077 2.85097 24.3505 3.74123 24.8016 4.80302ZM10.7855 84.7697C11.134 84.646 11.0186 84.6308 11.2944 84.3398C12.3892 83.189 13.8068 82.4941 15.0855 81.606C15.0919 81.6017 15.233 81.5887 15.4105 81.2912C14.66 81.3954 14.4996 81.6213 13.9971 81.9774C13.6379 82.2314 12.7484 82.5115 11.4933 83.5863C11.3821 83.6819 10.7898 84.19 10.7299 84.3463C10.5332 84.8587 10.7385 84.6937 10.7834 84.7697H10.7855ZM26.1231 16.8193C26.2813 16.7498 26.2492 16.7194 26.3882 16.8323C26.3647 16.8454 26.3326 16.8758 26.3219 16.8779C26.1958 16.9062 26.2556 16.9127 26.1231 16.8193ZM25.148 16.4111C25.1608 16.8584 25.2742 16.9908 25.4538 17.2623C25.8857 17.1233 25.6548 17.082 26.153 17.0451C26.0546 17.4121 25.9926 17.3882 25.8921 17.7617L26.2321 17.9571L26.5464 17.6184C26.5614 17.5988 26.5828 17.5706 26.5977 17.5511C27.1558 16.8432 26.8223 17.1559 27.0959 16.5153C26.8116 16.3025 26.6854 16.157 26.2492 16.1766C25.7082 16.2026 25.5051 16.2396 25.1502 16.4111H25.148ZM55.6585 66.2785C55.3377 66.2307 55.3527 66.1959 55.017 66.2936C55.0149 66.2936 54.7989 66.3935 54.7775 66.4L54.6086 66.4543C53.4817 66.8235 52.419 67.4445 51.3285 68.0503C50.8517 68.3152 49.1197 69.1815 49.4148 69.5094C49.618 69.7374 49.8767 69.225 50.0584 69.0838L51.97 67.9026L52.218 67.8136C52.8446 67.6247 52.6286 67.7224 53.2679 67.4141C53.7725 67.1709 55.4233 66.6041 55.6563 66.2785H55.6585ZM43.5689 62.9302C43.4598 63.193 43.3166 63.2082 43.0514 63.3797L39.5704 65.2514C38.5954 65.9202 38.482 65.6792 38.3537 66.1742C38.6125 66.0678 38.6274 66.1178 38.9011 65.9636C39.1791 65.8073 39.2112 65.7248 39.4058 65.5489L42.4271 64.0267C42.7435 63.84 42.72 63.8248 43.0493 63.7879C43.1862 63.6207 43.0707 63.7249 43.2311 63.5838C43.2503 63.5664 43.2781 63.5469 43.2973 63.5317L44.3707 62.8955C44.9032 62.6175 45.3885 62.3374 45.3843 61.8945C44.9395 62.0508 44.9138 62.1485 44.514 62.4417C44.1206 62.7305 44.1377 62.852 43.571 62.9324L43.5689 62.9302ZM91.9678 72.8186C92.0341 72.0347 92.3398 72.0651 91.5444 71.7503C91.4846 71.8697 91.4375 72.013 91.3584 72.1411C91.1959 72.4082 91.2579 72.2388 91.1595 72.4212C90.6399 73.3983 91.6043 73.3506 91.9742 73.483L92.2222 73.5872C92.8252 73.8 93.0369 72.9771 92.9471 72.799C92.7205 72.3517 92.2543 72.7513 91.9678 72.8207V72.8186ZM19.9863 47.6504C20.4311 47.5831 20.3648 47.5548 20.6834 47.2053C21.5109 46.2955 22.0583 46.0848 23.0205 45.5268C23.0504 45.5094 23.1338 45.4595 23.1616 45.4421C23.183 45.4291 23.2108 45.4095 23.23 45.3965C23.6128 45.1425 23.0034 45.5572 23.3669 45.301C24.2307 44.6887 25.1608 44.376 25.3255 43.7702C24.5215 44.0546 24.3975 44.0829 23.8202 44.5866C23.0312 45.2771 22.2529 45.5203 21.7333 45.9242C21.4403 46.1522 21.312 46.2086 21.0597 46.4019C20.0419 47.1857 20.0248 47.0489 19.9863 47.6482V47.6504ZM18.4874 6.10149C18.2159 5.81921 18.1368 5.75407 17.6834 5.92561C17.5145 5.98858 17.6343 6.02983 17.2772 6.11452C16.6165 6.27086 16.8795 6.11235 16.7747 6.02332C16.9736 5.54779 17.119 5.88001 17.352 5.26117C17.0185 4.90724 16.8217 4.82908 16.4454 5.29157C16.4283 5.31112 16.4091 5.33934 16.392 5.36106C15.372 6.82455 18.2095 7.30659 18.4896 6.10149H18.4874ZM104.797 83.1759C105.295 83.1477 105.471 82.9805 105.759 82.7699C105.67 82.214 105.377 81.8775 105.112 81.4627C104.795 80.9698 104.75 80.6333 104.012 80.5833V81.4845C104.65 81.2934 105.071 81.9339 105.082 82.6114C104.577 82.5462 104.457 82.34 103.933 82.5528C104.023 82.9849 104.218 83.2063 104.797 83.1738V83.1759ZM43.4812 63.9182C43.1348 64.2026 43.0579 64.118 42.6644 64.283C42.7393 64.9452 42.812 64.5653 42.6131 65.2232C43.323 65.208 42.8398 65.1884 43.7806 64.6716L45.1704 64.0202C45.5831 63.7966 46.8874 63.1213 47.2167 63.0952C47.1462 62.763 47.3108 62.8694 47.1312 62.7478C46.6159 62.9888 46.1989 63.3124 45.6066 63.5339C45.1234 63.7141 44.3536 64.0745 44.0457 64.118C44.0179 63.5404 44.1762 63.9225 43.8618 63.6663C43.7421 63.7401 43.633 63.8074 43.4812 63.916V63.9182ZM82.4227 50.1127C81.9822 49.2007 82.3992 49.4874 81.8689 49.4005C81.8518 50.3146 82.241 50.0649 82.2624 50.851C81.8262 51.2831 80.6459 51.6674 79.983 51.9497L79.7328 52.0365C79.2068 52.1864 77.1712 52.638 76.9296 52.7943C77.7186 52.8312 77.9089 52.7704 78.5739 52.575C78.8839 52.4838 79.0422 52.5055 79.3736 52.3687C80.8276 51.7716 79.9253 52.1929 80.8426 51.9236C82.6879 51.3786 83.0492 51.409 82.4227 50.1127ZM23.106 8.05788C22.3448 7.54544 21.4874 9.0719 21.6841 8.38141C21.7568 8.12519 21.9578 8.22508 22.0797 7.89503C21.3249 6.74855 20.4696 8.22508 21.2928 8.84826C21.6841 9.14573 22.9563 9.27818 23.1424 8.35319C23.1894 8.11868 23.1873 8.20553 23.106 8.05571V8.05788ZM96.1908 78.6009C96.2293 77.7714 96.255 77.9213 96.5864 77.4544C97.9121 77.5196 97.3005 77.5239 98.0404 78.0928C98.22 77.8062 98.158 78.2274 98.1794 77.7606C98.2371 76.4339 94.5486 76.8378 95.9385 79.0547C96.411 79.0699 97.0269 78.9288 97.23 78.5336C96.9477 78.3512 96.7703 78.5879 96.1929 78.6031L96.1908 78.6009ZM9.83186 82.9588C10.4113 82.9849 10.1462 82.5636 10.1783 82.429C10.2552 82.1033 11.2645 81.428 11.4591 81.2282C11.8525 80.8244 11.7135 80.9134 12.1989 80.5855C12.8297 80.1599 12.0471 80.5399 13.3493 79.7865C13.5951 79.6453 13.5609 79.641 13.7577 79.5064C14.3072 79.1307 14.6814 78.6508 15.4533 78.551C15.047 77.9061 14.0527 78.8463 13.7213 79.096L10.5995 81.4888C10.4391 81.5995 8.80978 82.9089 9.834 82.9545L9.83186 82.9588ZM71.1756 58.5919C71.6033 58.9067 74.1349 58.2401 74.7764 58.1207L78.544 57.5453C76.9275 57.3867 76.0123 57.4823 74.584 57.7776C73.9168 57.9166 71.5241 58.2271 71.1756 58.5919ZM49.3314 65.6726C49.7805 65.8615 49.5388 65.766 49.7569 65.5923C49.8831 65.4924 49.9045 65.4121 50.1183 65.2579C51.0741 64.5718 52.5302 64.0658 53.5566 63.5816C53.8987 63.4188 54.027 63.3145 54.3926 63.1669C54.6385 63.067 55.0255 62.9215 55.2821 62.8151C56.1096 62.4742 55.9022 62.5155 55.9471 62.2115C54.5701 62.4938 52.8189 63.6012 51.4996 64.2178L49.7805 64.9995C49.4576 65.1645 49.2309 65.2731 49.3314 65.6726ZM31.676 4.02133C32.7452 4.75959 31.5627 3.25701 32.8392 5.0549C32.974 5.2438 32.9376 5.12004 33.0146 5.32414C33.3417 4.82473 33.9191 5.3958 33.8143 4.3796C33.7801 4.0539 33.6603 3.87585 33.4187 3.72385C32.9825 3.45026 33.4679 3.86716 32.7238 3.25267C32.0695 3.36992 31.6675 3.2049 31.6739 4.02133H31.676ZM17.151 46.9382C17.5637 46.9556 17.2173 46.7145 18.342 45.9372L19.7554 45.0752C19.8965 44.9861 20.012 44.9253 20.1788 44.8146L22.039 43.7137C22.2657 43.5834 22.3598 43.5726 22.5693 43.4401C23.2835 42.995 24.1046 42.6107 24.3526 42.2546C23.7646 42.3631 23.3647 42.6715 22.7917 42.9603L22.2614 43.2317C21.8359 43.4445 21.7461 43.5965 21.2842 43.844L18.342 45.5811C18.1004 45.7331 18.1368 45.7548 17.8566 45.8981C17.6107 46.0262 17.5765 46.0219 17.3435 46.1847C17.0997 46.3563 16.548 46.9121 17.1468 46.9382H17.151ZM29.726 55.7799C29.6682 57.0871 30.0146 60.7067 30.0232 62.0856C30.0275 62.5893 30.051 63.8378 30.1665 64.1853L30.2456 64.0354C30.4359 63.3102 30.0895 58.6157 30.1237 57.2C30.1322 56.8504 30.2734 55.2653 30.1066 54.9744C29.8692 55.1763 29.7345 55.5802 29.726 55.7778V55.7799ZM21.8509 16.1397C21.93 15.8031 21.9941 15.5165 22.3961 15.4361C22.6805 15.3797 22.8644 15.4166 22.7254 15.7988C22.7147 15.8313 22.5351 16.0398 22.5137 16.0593C22.2144 16.3329 22.2379 16.2895 21.853 16.1397H21.8509ZM21.126 16.0094C21.3227 16.6651 21.4767 16.2461 21.7568 16.9344C21.9471 16.854 22.6955 16.9539 23.2942 16.0637C23.5807 15.6381 23.4845 15.3211 23.1146 14.9693C23.0975 14.9519 23.0739 14.9281 23.0547 14.9129C22.3191 14.294 21.4703 15.4231 21.126 16.0094ZM50.2487 67.388C50.1547 67.1318 50.1183 67.3815 50.1867 67.1101C50.2274 66.9472 50.377 66.8929 50.5267 66.8126L53.2444 65.4294L56.6506 64.0897C56.9799 63.9117 56.7917 64.1266 56.9649 63.7727C56.3619 63.7553 55.2522 64.2482 54.6171 64.511C52.6371 65.3274 52.2245 65.5728 50.4647 66.4934C50.253 66.6042 49.665 66.8886 49.5731 67.1123C49.2908 67.7941 50.0093 67.6095 50.3236 67.5552L50.2466 67.388H50.2487ZM27.7738 76.7813C28.195 76.8008 28.2805 76.8204 28.5499 77.0506C28.0389 77.3393 27.4894 77.1504 26.9591 76.9811C27.0639 76.9203 27.483 76.7683 27.7738 76.7813ZM25.4901 76.5338C25.674 77.2069 25.7767 77.0223 26.4994 77.0658C27.3376 77.1179 26.9078 77.322 28.0924 77.3784C28.0924 77.3784 29.8692 77.2264 30.0531 77.1179C29.9868 76.892 30.2563 76.8812 29.2149 76.5576C28.7467 76.4122 28.5777 76.3383 28.0261 76.3166C27.4252 76.2927 25.9071 76.3709 25.4923 76.5316L25.4901 76.5338ZM15.4661 45.8156C15.9536 45.8199 15.9087 45.7331 16.1632 45.4747C16.5181 45.1142 17.4846 44.4346 17.94 44.148C19.6827 43.0493 19.7554 42.9016 21.8167 41.7486C22.1053 41.588 22.2165 41.5315 22.4624 41.3687L24.4488 40.2765C24.9727 39.9985 25.4944 39.8921 25.6035 39.3167C25.2229 39.3298 25.302 39.4166 24.9492 39.6099L21.7162 41.5098C21.4275 41.6857 21.3334 41.8094 21.1132 41.9397C20.5294 42.2893 20.198 42.3935 19.084 43.1036C18.8659 43.2425 18.6628 43.3316 18.4404 43.4814L16.6186 44.7538C15.5324 45.7374 15.6094 45.1164 15.4682 45.8134L15.4661 45.8156ZM5.02083 69.694C5.29667 69.6093 5.10636 69.6875 5.30308 69.5159C5.89109 69.0057 6.40855 68.2131 8.09775 66.8843L13.1076 62.813C13.3557 62.6002 13.4711 62.585 13.5011 62.1529C12.8703 62.1702 12.9644 62.5459 11.8696 63.3884L9.10058 65.6792C8.61734 66.1677 7.48194 67.0211 6.92386 67.5313C6.11775 68.2674 5.53829 68.5367 5.0187 69.6918L5.02083 69.694ZM4.70865 71.6591C5.04435 70.4474 6.19686 69.9654 6.92814 69.3661C8.59382 67.996 10.4755 66.9993 12.2523 65.766C13.5545 64.8627 13.0071 65.3904 14.1383 64.3264C14.4697 64.0137 14.5851 64.0354 14.6963 63.7206C13.9993 63.7076 14.1468 63.9052 13.3022 64.6152C12.3528 65.4142 9.44056 67.1427 7.8155 68.3999C7.02008 69.0144 5.93814 69.7222 5.20045 70.3758C4.68086 70.8361 3.89612 71.392 4.71079 71.6591H4.70865ZM32.5955 70.7167C32.6767 71.0771 33.2412 71.0272 33.8998 71.5462L35.403 72.4864L38.7194 75.0963C39.3416 75.6696 41.2767 77.2243 42.0336 77.702C42.6131 78.0667 43.0814 78.2774 43.6993 78.5531C43.5454 77.7215 42.3437 77.3849 41.6851 77.0267L38.2725 74.3971C37.7893 74.015 37.4172 73.8673 36.9575 73.3875L35.9974 72.6014C35.3859 72.1237 34.8898 71.7937 34.1414 71.4224C33.8699 71.2878 33.6325 71.1727 33.3824 71.0163C33.098 70.8383 32.9226 70.5821 32.5955 70.7167ZM91.6064 83.7535C91.7925 84.0032 91.5979 83.5147 91.7732 84.0401C91.8652 84.3181 91.8203 84.4332 91.6791 84.6872C91.3071 84.6394 91.2493 84.5743 91.0013 84.4266C91.136 83.9381 91.1253 83.81 91.6064 83.7535ZM89.4062 87.3688C89.7825 87.219 90.3064 86.4894 90.5416 86.231C90.9008 85.8337 90.9479 86.0009 91.2707 85.8185C91.7326 85.5557 91.3798 85.5579 91.6535 85.0238C91.8395 84.659 93.0647 83.6124 93.7254 82.568C93.2122 82.7352 92.7098 83.5538 92.2885 83.8968L91.8972 83.1455C91.7048 82.7829 91.878 82.6722 91.7796 82.4594L91.2258 83.0847C91.2087 83.1021 91.1831 83.1238 91.166 83.1412C90.8238 83.4799 90.6057 83.7665 90.3641 84.1986C90.146 84.5873 90.0049 84.8327 89.7676 85.2431C89.1261 86.3613 89.4874 86.2332 89.5879 86.3418C89.8509 85.7338 89.7462 85.3929 90.2871 85.1084C90.5566 85.4103 90.5052 85.2778 90.6677 85.6317C90.4539 86.0117 90.3214 86.1702 90.0434 86.5242C89.7868 86.8499 89.6157 87.0149 89.4083 87.3688H89.4062ZM69.929 54.8853C70.3032 54.9027 70.934 54.5097 71.336 54.4207C71.8577 54.3034 72.2447 54.2144 72.7643 54.0515C73.5405 53.8062 74.8961 53.6412 75.4692 53.2221C74.7465 53.0245 72.8456 53.7172 72.187 53.8996L68.8599 54.4793C66.897 54.9331 65.5029 54.3469 63.803 53.9213C62.9263 53.702 63.076 53.2742 62.6056 53.2612C62.5286 53.6585 62.5928 53.5087 63.061 53.8279C63.4074 54.0667 63.3946 54.1666 63.7517 54.3099C66.5292 55.6193 67.7651 55.1741 69.9312 54.8875L69.929 54.8853ZM20.4867 11.3844C22.2379 11.1 21.7995 11.291 22.5052 12.0771L22.6805 12.2551C22.6955 12.2703 22.7275 12.3007 22.7404 12.3137C22.7532 12.3268 22.781 12.3528 22.8002 12.3745C23.3989 11.975 23.6299 12.0727 24.3141 12.1835C25.1074 12.3116 25.3533 12.0119 26.1423 12.0445C26.694 12.9934 27.1601 13.3147 28.21 12.7567C28.5478 12.5786 28.6932 12.583 28.768 12.1726C27.2392 12.2616 27.5407 13.2322 26.5079 11.4778C25.1245 11.4235 24.9278 11.9902 23.647 11.3518C22.4389 12.2399 22.9456 10.5745 21.0448 10.7699C20.6257 10.8133 20.4097 10.8958 20.4845 11.3866L20.4867 11.3844ZM49.0043 40.8019C50.4005 39.9594 52.1796 39.6033 52.4062 39.4969C52.945 39.2472 52.4789 39.1387 53.3492 38.8412C55.7119 38.0335 56.7917 38.3526 58.6541 38.0986C58.5515 38.0378 58.7054 38.0595 58.374 37.9922C58.1217 37.9401 58.4382 37.9792 58.173 37.9683C57.8587 37.9553 57.9549 37.9922 57.7753 38.0117C56.8751 38.1095 55.8039 37.8445 55.0341 38.0269C54.3285 38.1941 52.4062 38.4764 51.9315 38.7326C51.8417 39.1517 51.9978 38.5915 52.1453 39.0887C51.5381 39.0952 49.3977 40.0354 49.0642 40.3025C48.2794 40.9322 48.9786 41.3144 49.1048 41.7986C49.1753 42.0657 49.0257 42.7996 49.8981 43.2208C49.201 41.7313 49.4448 42.1547 49.7356 41.7877C49.7463 41.7747 49.7826 41.7638 49.7912 41.7248C49.7997 41.6878 49.8361 41.6878 49.8467 41.6618C49.4683 41.2514 49.5795 41.4403 49.3079 41.2775C49.0021 41.0951 49.1646 41.5728 49.0021 40.8019H49.0043ZM54.831 36.4549L51.6258 37.1823C50.9116 37.2518 50.8496 37.2865 50.2787 37.5123C50.253 37.5232 50.2209 37.5319 50.1953 37.5427C50.1696 37.5536 50.1354 37.5601 50.1097 37.571C50.0841 37.5818 50.052 37.5883 50.0285 37.6014C49.5153 37.8424 49.8125 37.5145 49.6928 37.9292C50.1824 38.2571 52.7569 37.204 52.9707 37.1845C53.8367 37.1085 53.1375 37.2431 53.548 37.3516C53.8367 37.4276 54.1895 37.1736 54.7005 37.0455C57.0633 36.444 58.0683 36.4657 60.3476 36.2464C61.7781 36.1075 63.3796 36.2225 64.2606 36.7893C65.0047 37.267 64.8849 36.5157 64.3696 36.1075C64.1301 35.9164 63.5122 35.9728 63.0268 35.8968C62.6206 35.8339 61.9085 35.7101 61.5878 35.6906C60.2236 35.6037 56.7447 35.7818 54.8331 36.457L54.831 36.4549ZM22.5843 51.2635C20.9721 51.1919 20.5808 50.8206 19.5009 50.7098C18.5537 50.6121 17.7882 49.8565 17.0185 50.3125C17.2943 50.7011 18.1752 50.7142 18.7012 50.8531C19.4133 51.0442 18.7911 51.0334 20.2707 51.7586C21.2179 52.2233 20.3819 51.5567 21.4574 51.8563C22.0155 52.0105 21.3163 51.9605 21.8722 51.9779C22.1973 51.9888 22.3149 51.7825 23.8287 51.8997C25.2079 52.0061 25.7232 51.3656 27.4723 50.7098C28.1137 50.4688 28.5457 50.2647 29.1893 50.0519C29.7987 49.85 30.2199 49.5851 30.8058 49.2138C30.1793 49.1421 27.9021 50.1257 26.9035 50.4428C26.2962 50.636 23.1744 51.2896 22.5886 51.2635H22.5843ZM56.0968 56.0362C56.4774 56.1447 56.7105 56.2837 56.9222 56.6745C56.4539 56.516 56.2871 56.3749 56.0968 56.0362ZM49.5559 50.9704C49.7185 51.2657 49.5004 51.0247 49.7762 51.3308C49.789 51.3439 49.99 51.5219 50.0221 51.5501C50.2252 51.726 50.3321 51.802 50.5502 51.9497L50.4112 52.2102C50.3642 52.549 52.7419 54.2882 53.0798 54.5075C54.1018 55.1676 55.3548 56.0188 56.1952 56.8591C56.6292 57.2934 56.7725 57.3585 57.2065 57.6973C58.0276 58.3335 57.6064 58.5745 58.0961 58.3812C58.3013 57.8905 58.002 58.1663 57.6898 57.8036C57.337 57.3933 57.6941 57.7016 57.7817 57.0567C56.8067 55.8733 55.5965 55.3326 54.6471 54.729C54.4204 54.5857 54.3328 54.5097 54.1788 54.273C53.5694 53.3393 53.5438 53.7215 52.7312 53.0527C52.248 52.6532 52.4019 52.5468 51.7861 52.2558C51.382 52.0648 51.0399 51.8411 50.6785 51.6109C49.9815 51.1658 50.516 51.0225 49.5559 50.9769V50.9704ZM30.2156 52.4817C30.7374 52.5946 33.9533 51.155 34.8919 50.9031C36.2861 50.5274 35.4436 50.8423 36.904 50.2082L38.837 49.5503C39.8591 49.229 40.0002 49.3527 41.9652 48.6362C42.3715 48.4885 43.5325 48.1889 44.0265 48.1346C45.5981 47.9587 45.0336 48.5124 45.7627 48.8229C45.7563 46.3715 42.3629 47.9457 41.1634 48.3561C40.1285 48.71 37.9624 49.2094 37.0024 49.5851L34.0367 50.6859C33.3353 50.9878 32.6746 51.0703 32.0139 51.3678C31.5285 51.5871 31.5862 51.6522 31.0773 51.789C30.1066 52.0496 30.2456 52.0061 30.2178 52.4838L30.2156 52.4817ZM41.7086 53.6433C42.4292 53.2069 42.5276 53.4674 43.2011 53.1765C43.648 52.9832 43.896 52.7596 44.3964 52.5511C45.1918 52.2189 46.5197 51.8455 46.9067 51.32C46.3572 51.2983 46.648 51.2939 46.3572 51.4372L43.5732 52.74C43.6501 52.2319 43.601 52.5207 43.8618 52.3383C45.2667 51.3526 46.3465 51.2983 47.3493 50.7142C47.3386 50.4775 47.3685 50.5752 47.2958 50.345C46.5218 50.4992 46.2631 50.8206 44.9801 50.7619L44.9395 50.636C44.9395 50.636 44.9288 50.5882 44.9267 50.5795C44.8305 50.0649 44.9972 50.7945 44.9138 50.4471C44.6594 50.5318 44.452 50.5665 44.1334 50.6773C43.7827 50.7989 43.7228 50.8249 43.4085 50.9682L42.3287 51.4807C42.0058 51.7 42.2026 51.4307 42.0636 51.7933C42.6751 52.1277 43.8704 51.4937 44.2146 51.3678C44.4584 51.2787 44.7492 51.2353 44.9245 51.3417L43.8405 51.8129C43.5668 51.9258 43.4962 51.9692 43.2888 52.0561C41.5568 52.7922 42.9787 52.3861 42.0871 53.0288C41.9096 53.1569 41.1591 53.5391 41.0501 53.5413C40.7186 52.6358 41.8113 50.9009 40.9859 50.23C40.2055 50.4058 40.8191 50.8314 40.5861 52.3405C40.3658 53.7584 40.8191 53.8692 39.6901 54.5227C39.3544 54.716 39.1085 54.8615 38.822 55.0243C38.5334 55.1872 38.2255 55.4694 37.9347 55.6193C36.9275 56.1404 36.1749 56.0991 36.5534 57.0241C37.0366 56.8656 36.9831 56.5877 37.368 56.2142C37.9988 55.5997 38.0715 55.8994 38.8348 55.2805C39.1235 55.046 39.7222 54.8159 40.4407 54.4185C40.4685 56.4552 40.3273 58.6939 40.4385 60.8957C40.6438 60.4375 40.6652 57.606 40.693 56.8591C40.725 56.0687 40.864 55.6757 40.8918 54.8853C40.9196 54.1406 41.0821 53.6976 41.7065 53.6455L41.7086 53.6433ZM60.1124 63.8335C60.3027 63.1387 60.0761 62.4482 60.0376 62.1181C59.9756 61.5883 59.7232 60.7133 59.5543 60.3159L58.9064 58.7352C58.1816 59.0196 58.6883 59.6819 58.868 60.1748C59.2058 61.0976 59.2058 62.3157 59.1032 63.4665C58.7568 67.3706 56.7276 77.0223 54.7048 79.6171C53.5887 81.048 52.5858 80.351 51.7327 79.958C51.1532 79.6909 50.454 79.6692 49.9943 79.4564C49.5046 79.2306 49.5453 78.8245 48.8033 78.551C48.7883 79.4065 48.784 78.8354 48.9508 79.0981C49.1369 79.3913 49.5282 79.7343 49.866 79.9081C50.2701 80.1143 50.2551 80.0709 50.7705 80.186C52.1988 80.5073 52.8937 81.5626 54.1874 80.744C54.8417 80.3315 55.2415 79.8624 55.5152 79.3891C57.5786 75.8216 58.868 68.3782 60.1124 63.8335ZM6.8084 76.182C7.1719 75.7238 7.68721 75.6457 7.99512 75.1484C6.9709 75.422 6.84902 76.1733 6.15624 76.4426C5.38006 76.7444 5.61312 76.7835 5.01656 77.3697C4.80915 77.5717 4.67872 77.6433 4.46489 77.8539C4.04794 78.2643 3.64809 78.4467 3.74003 79.1329L4.16982 79.1785C4.38792 78.5748 3.6545 78.9678 4.50338 78.1471C4.67872 77.9777 4.81129 77.8344 4.97379 77.6868C5.53615 77.1743 7.98443 77.1656 8.86965 77.2047C8.70073 77.5847 7.71073 78.2187 7.34082 78.4858C6.48339 79.1046 6.31233 78.6378 5.97662 79.8885C6.25459 79.9602 6.08781 79.8407 6.16907 80.1122C6.78488 80.123 6.76136 80.0014 7.15051 79.73C7.49049 79.4911 7.82406 79.4065 8.13624 79.248C8.58741 79.0178 9.71639 78.4315 10.2959 78.4337C9.96871 78.8397 9.86393 78.9288 9.44484 79.2328C9.07492 79.4998 8.88462 79.7018 8.57458 79.9732C8.2068 80.2946 6.93455 81.0502 6.91317 81.5431C6.89393 81.9991 6.86185 81.5995 7.04574 81.8644C7.29591 81.4953 7.46697 81.1761 7.78557 80.9286C9.71639 79.413 9.69501 79.1481 11.9337 77.8474C12.6907 77.4088 15.2822 76.8399 15.5345 75.9909C15.3057 75.7716 15.3335 75.7846 14.9743 75.6739C15.1667 75.1984 15.1069 75.3851 15.5196 75.1094C14.8503 74.9031 14.5231 75.4676 13.3279 76.2233L12.6479 76.6901C12.4255 76.8312 9.5881 77.7085 9.17328 77.6607C9.5154 77.1678 10.2552 76.6163 10.9544 76.5164C12.1433 76.3492 11.3799 76.334 11.9829 76.0713C12.5538 75.8237 12.7783 76.2037 13.2509 75.7716L13.0862 75.6935C13.0649 75.6869 13.0242 75.6696 12.9964 75.6652C12.2588 75.5219 12.3143 75.954 11.8867 75.4785C12.216 75.1267 14.7049 73.7305 14.8802 73.4895C13.4946 72.9836 12.6843 75.7542 9.09844 76.0409C8.59168 76.0821 8.28592 76.1342 7.78557 76.1777C7.51188 76.2015 6.95594 76.2732 6.81267 76.182H6.8084ZM13.1119 52.3644C13.8111 52.7596 14.3328 52.9094 14.8567 53.424C15.1625 53.7237 15.3314 53.8366 15.5816 54.0863C15.9408 54.4446 15.6778 54.3577 16.2123 54.7247C16.8645 55.172 17.0505 55.6432 17.1831 56.4987C18.3206 65.8876 17.908 77.1287 16.2829 86.2202C16.1482 86.8694 15.96 87.4231 15.6735 87.8639C14.0827 90.3088 12.6885 88.6217 11.5403 88.385C11.5638 88.9452 11.4377 88.5696 11.7199 88.8996C12.0321 89.2623 12.5923 89.5228 13.0841 89.6509C15.65 90.3284 16.5609 87.9052 17.0377 85.4732C17.7604 82.0577 19.6421 57.0024 17.012 54.5379C16.0199 53.6086 15.1518 52.7314 13.9437 52.1451C13.1247 51.7499 12.1091 51.0746 11.335 50.5535L7.03505 47.8502C5.1363 46.8057 3.94744 46.3693 2.53407 48.2823C2.37584 48.4972 2.08718 48.8946 2.59608 48.938C2.81845 48.9575 2.96813 48.7882 3.11139 48.558C4.27245 46.6972 5.38647 47.6504 6.96235 48.532C7.72998 48.9619 8.43345 49.4157 8.81406 49.6632C9.51968 50.1171 10.6807 50.6577 11.4035 51.2657C11.968 51.7412 12.5004 52.0126 13.1119 52.3601V52.3644ZM25.225 61.6361C25.272 60.6047 25.473 59.8252 25.6484 58.9349C25.7638 58.3465 25.8045 58.2336 25.9905 57.7211C26.2492 57.0024 25.905 57.2391 26.0803 56.4987C26.153 56.186 26.88 54.6031 27.0425 54.3838C27.5172 53.7367 28.2078 53.665 28.8087 53.2959C28.7445 52.9572 28.7381 53.0267 28.5927 52.714C27.7182 52.6684 26.4352 53.8757 25.9883 54.4315C25.2271 55.3717 24.9342 56.3684 24.6691 57.4845C23.7411 61.3886 22.2336 82.6874 23.7475 86.3288C24.188 87.3862 25.5072 90.7149 26.7153 90.6541C27.3269 90.6237 26.803 90.7019 27.0575 90.4999C26.9185 90.2589 26.262 89.753 25.7104 89.0647C25.1095 88.3134 25.9605 88.6912 25.5415 87.9117C25.4752 87.7901 24.8914 87.156 24.7418 86.8542C22.905 83.1911 24.5899 67.7854 24.9192 63.4883C24.9663 62.8803 25.2058 62.2158 25.2314 61.6404L25.225 61.6361ZM87.4561 89.6379C87.6336 89.8615 87.5994 89.7855 87.6593 90.1026C87.4069 90.0114 87.501 90.2654 87.3749 89.9223C87.2124 89.475 87.4711 89.9897 87.4561 89.6379ZM87.4861 88.8084C87.6379 89.2101 87.7277 89.1298 87.2466 89.1385L87.4861 88.8084ZM101.829 91.2078C102.494 90.3067 102.321 90.9255 102.907 90.3327C103.241 89.994 103.679 89.5619 103.852 89.1841C103.927 89.0234 103.974 88.8171 104.047 88.6738C104.179 88.4111 104.271 88.3633 104.423 88.2634C104.231 89.5337 104.239 89.6944 103.632 90.526C103.285 90.9993 102.956 91.2881 102.34 91.312C102.045 91.325 101.979 91.3185 101.829 91.2078ZM86.6628 86.446C86.7655 86.0769 86.7099 86.2267 86.9772 86.0421C87.0819 86.1876 87.0434 86.1312 87.1097 86.3374C86.8382 86.4873 87.1268 86.4243 86.6607 86.446H86.6628ZM84.6657 87.5187C84.1868 87.4796 84.3343 87.4448 84.0221 87.1148C83.9174 87.004 83.8703 86.9715 83.7848 86.889L83.5025 86.598C83.1027 86.2137 82.8418 86.0899 82.69 85.5644C83.5603 85.5992 83.3978 85.4754 83.8297 86.737L84.3664 86.5719C84.5203 86.9194 84.6807 87.0062 84.6657 87.5187ZM77.6972 84.8435C77.291 84.6503 77.1263 84.6242 77.0173 84.1444C77.3166 84.3202 77.6309 84.355 77.6972 84.8435ZM68.4729 82.7026C69.2555 83.354 68.5135 83.506 68.0645 84.1835C67.6753 83.9077 67.9875 84.2638 67.748 83.7752L68.0003 83.4995C67.9768 83.4799 67.9405 83.4582 67.9234 83.4495L67.5513 83.2476C67.5684 83.2281 67.5919 83.1977 67.6026 83.189L68.4729 82.7048V82.7026ZM77.9089 83.3649C78.0757 83.2802 79.7435 83.0239 80.2439 83.354C80.2032 83.4886 80.3572 83.6015 79.6665 83.6688C78.3023 83.8056 78.1099 84.0293 77.9089 83.3649ZM60.8608 84.1878C60.446 84.0119 60.632 84.4332 60.5465 84.0944C60.5422 84.0749 60.5101 84.0944 60.493 84.0901C60.0803 83.8273 60.5336 83.6037 59.7339 83.126L59.7446 82.8915C59.7446 82.8915 59.8836 81.8123 60.0525 81.5214C60.3647 81.9057 60.5978 82.4399 60.818 82.9002C61.0725 83.43 61.2542 83.8273 61.4851 84.3289C60.8929 84.381 61.1901 84.3246 60.8629 84.1856L60.8608 84.1878ZM69.3282 82.5549C69.4693 81.96 69.4159 81.9904 69.8029 81.745C70.0424 82.1619 69.9889 82.1901 69.9632 82.7721C69.4137 82.8828 69.6318 83.05 69.0117 83.0913L68.8321 82.3704C69.1528 82.3248 69.2234 82.2206 69.3282 82.5549ZM70.825 83.5103C70.532 83.2324 70.6667 83.3019 70.2134 83.2476C70.4251 82.6223 70.4144 82.8958 70.284 82.5766C70.1835 82.3313 69.9547 82.4724 70.1963 82.0251C70.9532 82.6483 71.537 84.0662 71.6717 85.065C71.5519 85.1497 70.5833 85.4884 70.361 85.5188C69.8414 85.5862 70.3332 85.4168 69.6211 85.3234C69.2341 85.2713 69.0481 85.382 68.6995 85.3972C68.5007 85.0585 68.2676 84.887 68.1693 84.4397C68.2869 84.368 69.2191 84.1031 69.3303 84.1422C69.7558 84.494 69.8692 85.1714 70.5277 85.2279C70.4657 84.8349 70.0167 84.4158 69.7216 83.9663C69.9632 83.7318 69.9504 83.7731 70.2412 83.6319C70.4294 83.9316 70.2797 83.7318 70.3695 83.9511C70.3781 83.9728 70.3973 84.0141 70.4037 84.0315L70.4764 84.1943C70.7822 83.9924 70.8164 84.0206 70.8271 83.5125L70.825 83.5103ZM82.8675 84.1726C82.3393 83.8534 80.8597 82.8589 80.648 82.4095C81.5396 82.2879 81.236 82.5897 81.6294 82.8698C81.7663 82.9675 82.6622 83.3931 82.8696 84.1726H82.8675ZM76.6431 82.1402C77.0429 82.1598 77.3337 82.2401 77.6716 82.1663C78.2639 82.0382 78.5996 81.8948 79.2945 81.91C79.4741 82.2466 79.6601 82.3117 79.6687 82.6939C79.1277 82.9827 78.2746 82.8741 77.5732 82.9067C76.7799 82.9436 77.462 83.3475 76.9766 82.9414C76.8205 82.8133 76.6666 82.4203 76.6452 82.138L76.6431 82.1402ZM64.8336 81.9556C65.1458 81.5257 65.4345 81.3737 65.8942 81.0871C66.123 81.326 66.2491 81.4041 66.3347 81.7928L65.7787 82.1511C65.5927 82.2857 65.5093 82.3856 65.2955 82.5397C64.9534 82.3226 65.0325 82.3226 64.8336 81.9578V81.9556ZM67.0189 81.821C67.299 81.6451 67.5299 81.4541 67.9576 81.3976C67.979 81.7537 68.0324 81.5822 67.9319 81.7667C67.9234 81.7819 67.8956 81.808 67.887 81.821L67.7673 81.9491C67.7587 81.9274 67.7181 81.9947 67.6967 82.0186C68.1137 82.0772 67.9533 81.9817 68.0217 82.3725C67.7309 82.6374 67.5919 82.7742 67.0895 82.759C67.1686 81.6669 67.1921 82.492 67.0168 81.8232L67.0189 81.821ZM63.386 81.2044C63.664 81.1653 63.7645 81.098 63.9634 80.9829L64.1622 81.5757C63.9291 81.9014 63.9612 81.871 63.5678 82.0121C63.2706 81.6278 63.2684 81.6408 63.386 81.2044ZM84.6743 82.2727C84.5011 82.5419 84.6978 82.3769 84.3749 82.5506C84.0499 82.7265 84.2146 82.6309 83.9173 82.7069C83.8532 82.0034 84.3664 81.8167 84.6764 82.2727H84.6743ZM70.7587 80.8526C70.9276 81.1045 71.0281 81.5735 71.0238 81.9079C71.0153 82.5549 71.0773 81.9991 70.9041 82.2119C70.733 81.9014 70.6967 81.2803 70.7587 80.8526ZM68.5798 81.6147C68.7338 80.9112 68.443 80.9698 69.0203 80.7462C69.4608 81.808 68.9112 81.884 68.3895 81.8883C68.0281 81.0415 68.2227 81.4389 68.3724 81.276L68.5798 81.6147ZM80.4342 82.0816C80.1327 81.8623 80.1968 82.0164 80.1027 81.593C80.3893 81.7146 80.37 81.5713 80.4342 82.0816ZM70.5534 81.5974C69.9996 81.4845 70.0915 81.0111 70.3973 80.6897C70.4486 80.9568 70.4764 81.3129 70.5534 81.5974ZM66.912 81.0285C66.9825 80.516 66.912 80.6203 67.1985 80.3401C67.4038 80.4661 67.6433 80.6963 67.6283 81.0328C67.6133 81.3563 67.4145 81.1457 66.5656 81.6929C66.386 81.4193 66.3111 81.2717 66.2598 80.8092C66.7687 80.6507 66.7153 80.6507 66.912 81.0285ZM82.8311 82.3052C82.4676 82.2879 82.6515 81.9926 82.7392 81.8579C82.8482 81.6907 82.9829 81.58 83.1797 81.4736C83.4918 81.3064 83.9473 81.1978 84.3707 81.2087C84.3771 81.9535 84.3835 81.7277 83.7463 81.9839C83.5474 82.0642 83.0364 82.3139 82.829 82.3052H82.8311ZM64.3119 80.7657C64.5065 80.5095 64.4402 80.5768 64.7481 80.3923C64.84 80.338 64.9747 80.2642 65.0389 80.2294C65.1479 80.1686 65.0581 80.2034 65.2591 80.1078C65.5435 80.3098 65.6077 80.325 65.6932 80.7093C65.4794 81.0024 64.9833 81.3021 64.515 81.3563C64.3996 81.1457 64.3397 81.0697 64.3119 80.7636V80.7657ZM84.4049 82.8416C85.0356 82.5788 85.7969 82.3834 86.4169 82.0143C86.7462 81.8167 86.9087 81.6625 87.3749 81.4888C87.6678 81.3802 87.7213 81.365 88.1233 81.504C88.4611 81.6212 88.2259 81.5214 88.367 81.6213C88.0506 82.0642 87.9415 81.9513 87.4283 82.1619L84.3942 83.4148L84.4049 82.8394V82.8416ZM67.9041 79.9949C68.304 80.6919 67.8742 80.7875 67.8678 80.794C67.2477 80.0123 67.7972 80.0275 67.9041 79.9949ZM68.5584 80.2772C68.5691 80.1534 68.5777 79.8885 68.5948 79.7886C68.6889 79.2284 68.6012 79.641 68.7316 79.4499C69.7238 80.2316 68.4793 80.5573 68.0517 80.5877L68.1415 79.7734C68.599 79.9233 68.3895 79.8842 68.5584 80.2794V80.2772ZM65.6141 79.8929C65.6226 79.6887 66.3261 79.2784 66.6746 79.2414C67.0403 80.1165 66.773 80.3423 66.0417 80.6051C65.8856 80.4769 65.6034 80.1469 65.6141 79.8907V79.8929ZM63.788 79.8103C64.0083 79.476 64.2841 79.1025 64.6219 78.9331C64.8465 79.1589 65.0132 79.515 65.1437 79.7561C64.9192 80.0666 64.4445 80.325 64.1002 80.5225L63.788 79.8103ZM84.9373 81.0567C85.1083 80.4965 84.8753 80.9177 85.8524 80.414C86.9216 79.8624 87.1204 80.6007 85.9059 81.0893C85.459 81.2673 85.3093 81.3672 84.9373 81.0567ZM85.8503 81.5083C86.5538 80.8135 87.5844 80.8265 88.151 80.4878C88.0976 80.7679 88.0484 80.7875 87.8004 80.9894C87.5737 81.174 87.4925 81.1957 87.2166 81.3238C86.9344 81.4562 86.5688 81.6647 86.1839 81.6365C85.5232 81.5887 86.0877 81.6755 85.8503 81.5062V81.5083ZM69.7836 78.9831C70.0808 79.3978 69.9953 79.4238 69.9611 80.0839C69.7131 80.0123 69.6981 79.984 69.3966 79.9471C69.3795 79.3196 69.202 79.2328 69.7836 78.9831ZM76.6089 80.0405C76.3587 79.6084 76.4613 79.9949 76.2988 79.5585C76.7158 79.5758 78.0757 79.5368 78.3088 79.8321C78.4264 79.984 78.6145 80.427 78.5547 80.5204C78.4093 80.7505 78.0073 80.6767 77.6288 80.6702C77.1477 79.9059 77.5454 80.4683 77.0044 80.173L77.0237 80.9612C77.4022 80.9047 77.8213 80.8808 78.2681 80.9785C79.2603 81.1978 78.8797 80.9764 79.0935 81.3173C78.8006 81.6495 79.0657 81.3911 78.7685 81.4931L78.3772 81.6104C76.7692 82.062 77.2846 81.669 76.8783 81.6886L76.6837 81.7819C76.5084 81.7385 76.4164 81.2217 76.3523 81.0741C77.028 80.7961 76.3844 81.2369 76.9488 80.9872L76.8505 80.8483C76.5148 80.4444 76.3587 80.5312 76.3074 80.0253C76.6281 79.9645 76.2774 80.173 76.6153 80.0383L76.6089 80.0405ZM67.2584 78.5401C67.5962 78.4815 67.6732 78.4207 67.9875 78.3664L67.9212 79.6475C67.6582 79.7018 67.6133 79.7387 67.3033 79.7734C66.8478 78.7442 67.0146 79.2784 67.2562 78.5401H67.2584ZM81.1184 80.0123C81.3686 79.7821 81.5974 79.7495 82.0785 79.6106C82.4826 79.4912 82.5938 79.5715 82.5104 79.9667C82.4078 80.4465 82.5788 80.2099 82.2217 80.4162C82.0785 80.4987 81.2275 80.8504 81.1205 80.0123H81.1184ZM68.1992 78.4923C68.242 78.5575 68.3339 78.5271 68.3788 78.8984C68.428 79.3022 68.3788 79.1242 68.2783 79.2892C68.1864 79.2328 68.0859 79.4304 68.0795 78.9744C68.0795 78.8072 68.1522 78.716 68.1971 78.4902L68.1992 78.4923ZM65.2057 78.3382C65.6205 78.2882 65.2484 78.4076 65.6996 78.1579C65.8643 78.0667 65.8664 78.0429 66.0439 77.9538C66.2256 78.0819 66.2427 78.0754 66.4052 78.1536C66.3817 78.5835 66.4352 78.5792 66.5763 78.8853C66.2149 79.0981 65.8108 79.4412 65.4024 79.5346C65.1565 79.3457 64.917 78.9809 64.9042 78.881C64.8999 78.8419 64.8764 78.8311 64.8614 78.8072L65.2078 78.3403L65.2057 78.3382ZM79.7991 79.3174C79.7927 79.2805 79.7692 79.2697 79.7521 79.248C79.936 78.944 79.844 79.1155 80.0578 78.9678C80.2118 79.096 80.3358 79.096 80.323 79.3913C80.323 79.4065 80.199 79.6171 80.1968 79.6193C80.0621 79.5758 79.8248 79.4608 79.797 79.3174H79.7991ZM70.8164 78.9939C70.6004 78.7551 70.4978 78.5596 70.6411 77.9126C70.7202 77.5543 70.656 77.8301 70.7587 77.6824C70.9319 77.956 70.9169 78.8137 70.8164 78.9939ZM69.403 77.7541C69.7601 77.9777 69.7922 78.0711 69.9226 78.4554C69.728 78.5835 70.0979 78.4554 69.619 78.6139C69.3923 78.6899 69.5121 78.6356 69.3346 78.6573L69.403 77.7541ZM66.4052 78.1536C66.4095 77.7193 66.3432 77.9821 66.5121 77.7324C66.8671 77.9017 66.7409 77.8691 66.711 78.425C66.5934 78.3273 66.4758 78.2274 66.4052 78.1536ZM69.1015 78.8875C68.5841 78.7876 68.1906 78.0146 69.0395 77.665L69.1315 77.8453C69.2555 78.1927 69.1764 78.0906 69.1635 78.2253C69.1379 78.4619 69.1144 78.6378 69.1037 78.8897L69.1015 78.8875ZM77.2739 78.1341C77.6374 78.1558 77.8298 78.1862 77.9731 78.5792C78.3173 79.5172 77.3808 79.2957 76.6581 79.2045C76.3651 78.7138 76.3779 78.7833 76.2475 78.1623C76.5554 78.1623 77.1178 78.1254 77.2739 78.1341ZM67.2562 78.5423L66.9334 78.5596C66.9654 77.8062 66.6917 77.2351 67.6133 77.1895C67.7459 77.4935 67.8122 77.5239 67.8806 77.9017C67.6967 78.1666 67.4594 78.349 67.2562 78.5444V78.5423ZM80.3786 77.9994C80.9195 78.4467 80.4833 78.4598 80.4769 78.4706C80.37 78.3056 80.3679 78.2795 80.3786 77.9994ZM69.0288 77.3437C68.8343 77.4023 68.475 77.6064 68.4836 76.9963C68.4921 76.4621 68.567 76.7335 68.6226 76.6532C68.7316 76.6098 68.691 76.347 68.9604 76.7704C69.0737 76.9507 69.0609 77.0506 69.0288 77.3437ZM79.1127 79.0395C78.9609 79.3609 79.0422 79.1481 78.9502 79.2718C78.8946 79.0352 78.8455 78.9092 78.8198 78.6595C78.7557 78.0146 78.8112 78.6248 78.9288 78.2231C79.1063 77.6173 78.6145 77.817 78.9566 77.3915C79.2239 77.9169 79.3308 78.577 79.1127 79.0395ZM76.5298 76.892C78.1505 77.0549 78.1976 77.1222 77.8234 77.8409C77.5882 77.8691 77.1862 77.9234 76.9745 77.7997C76.534 77.5413 76.8655 77.8344 76.9788 77.1483C76.7286 77.2091 76.9061 77.12 76.735 77.2416C76.5062 77.4045 76.5789 77.6021 76.5789 77.6042C76.5276 77.8149 76.596 77.6802 76.4913 77.8192C76.2475 77.398 76.4464 77.5152 76.5319 76.892H76.5298ZM68.3104 75.8237C68.5007 76.3383 68.351 76.2015 68.2954 76.2862C67.9319 75.8606 68.2847 75.8541 68.3104 75.8237ZM69.6896 75.8845C69.7772 76.03 69.7687 76.03 69.7451 76.1798C69.7409 76.2102 69.6382 76.4426 69.6233 76.4903C69.8863 76.5077 70.2156 76.3166 70.0402 77.285C69.9846 77.5934 70.0017 77.4913 69.8392 77.6498C69.82 77.5977 69.7601 77.4067 69.7516 77.3849L69.4244 76.8052L69.6896 75.8845ZM71.1072 76.8464C70.9276 76.8312 70.9297 77.1439 70.81 76.6293C70.7736 76.473 70.8292 76.3492 70.8549 76.2233C70.9832 75.5762 70.9853 75.6717 71.1991 75.5436C71.1542 75.9822 70.9383 76.423 71.1072 76.8486V76.8464ZM78.73 76.6293C78.606 76.3557 78.6552 76.4317 78.7043 76.1516C78.7621 75.8194 78.7578 75.7846 78.8797 75.6109C78.9631 75.7542 78.9588 75.4611 78.9759 75.9518C78.9994 76.664 78.8968 76.5164 78.7279 76.6293H78.73ZM68.8022 76.0409C68.7402 75.8085 68.4023 74.421 69.0866 74.7619C69.2277 74.8314 69.078 74.8314 69.3816 75.0182L69.3966 75.5588L68.8022 76.0387V76.0409ZM76.7757 76.5555C76.6324 75.7542 76.9724 75.9019 77.028 75.4655C77.0322 75.4372 77.0429 75.422 77.0558 75.4025C77.4428 75.4199 77.5647 75.3786 77.9346 75.4807C77.956 75.4872 77.9987 75.5458 78.0137 75.5197C78.0287 75.4937 78.065 75.548 78.0885 75.5653C78.2019 75.9084 78.0201 76.2341 77.9196 76.6098C77.338 76.5815 77.2012 76.6836 77.2803 76.1082C77.261 76.1255 77.229 76.1473 77.2161 76.156C77.2054 76.1625 77.1669 76.1885 77.1541 76.1972L76.7735 76.5555H76.7757ZM80.4876 75.561C80.6993 75.0095 81.375 74.7229 82.0122 74.7011C82.1191 74.9465 82.1276 75.0985 82.2175 75.4068C81.8411 75.5154 81.6701 75.6522 81.3001 75.739C80.9003 75.8324 80.8148 75.7499 80.4855 75.561H80.4876ZM69.7601 74.2538C70.053 74.041 69.9504 74.0172 70.3503 73.9347C70.3567 74.6642 70.2113 74.9226 69.8371 75.2396C69.7687 74.801 69.7366 74.8119 69.7622 74.2538H69.7601ZM67.9661 73.6328C68.1457 73.7718 68.0923 73.7436 68.1757 73.8348L68.1265 74.636C67.8186 74.4167 67.7865 74.3646 67.6368 73.9998C67.7908 73.8065 67.7972 73.7892 67.9661 73.6328ZM70.0188 73.6003C69.6382 73.4635 69.9996 73.3831 70.0295 73.3375C70.2669 73.7935 70.0252 73.5894 70.0188 73.6003ZM68.8984 73.2854C69.1272 72.9945 69.2918 72.8381 69.681 72.7665C69.7045 73.305 69.527 73.6198 69.3624 74.0063C69.1186 73.8478 69.2255 73.9998 69.0438 73.6893C68.9412 73.5112 68.9412 73.42 68.8984 73.2854ZM71.3702 74.193C71.2077 73.7544 71.5455 73.1399 71.7316 72.7534C71.9988 73.0987 71.9069 73.0748 71.738 73.5177C71.522 74.0845 71.5947 73.9846 71.3702 74.193ZM78.219 75.1072C77.6502 74.9465 76.9873 74.9617 77.199 74.649L77.323 74.4862C77.9773 73.3723 77.7828 73.8152 78.1099 73.2789C78.5162 73.9716 78.2361 73.4352 78.5204 73.3636L79.0807 73.4048L78.219 75.105V75.1072ZM83.216 73.5829L83.2267 73.3506L83.571 73.3658L83.5603 73.5981L83.2181 73.5829H83.216ZM81.3814 74.2821C81.3579 73.787 81.3173 74.0411 81.5033 73.7544C81.7 73.4483 82.2303 73.1291 82.6323 73.1226C82.4612 73.7892 82.1726 74.3689 81.3814 74.2842V74.2821ZM69.0331 72.5884C69.1357 72.3886 69.1721 72.2215 69.264 72.0173C69.5698 72.2345 69.5292 72.1607 69.604 72.6275L69.0331 72.5884ZM81.3279 71.8653C81.3258 71.6439 81.4541 71.6851 81.5097 71.8979C81.5845 72.1845 81.3301 72.0412 81.3279 71.8653ZM79.5447 70.9729C79.5489 70.9838 79.5425 71.0055 79.5425 71.0098C79.5382 71.1922 79.5254 71.1401 79.7221 71.4115C80.1669 70.9773 80.0514 71.062 80.7271 71.2552C80.3465 72.089 79.72 72.2236 79.333 73.0791L78.7706 72.8902C78.7321 72.5233 78.5333 73.1052 78.313 72.5276C78.204 72.241 79.2111 71.101 79.5425 70.9751L79.5447 70.9729ZM82.7413 70.7884C82.6879 71.0163 82.8333 70.9512 82.5895 71.0685C82.273 71.2226 82.3008 70.9794 82.2966 70.9773C82.536 70.6711 82.273 70.7688 82.7413 70.7884ZM82.7413 70.7884C82.9166 70.391 82.9808 70.239 83.3807 70.0848C83.2908 70.3497 83.3272 70.3237 83.1176 70.5408C82.938 70.7297 83.0022 70.6733 82.7413 70.7884ZM80.5282 69.4877C80.8939 69.5159 80.9987 69.6354 81.0115 69.6354C81.3066 69.6636 80.864 69.6962 81.1783 69.5984C81.2895 69.5659 81.514 69.4378 81.7663 69.4834C82.1405 69.5529 82.0699 69.631 82.1362 69.6875C81.978 70.1608 81.3643 70.8188 80.8148 70.7949C79.8718 70.7514 80.9559 70.6863 79.9039 70.6385C79.6623 70.6277 79.6922 70.5712 79.504 70.454C79.9445 70.0392 79.5981 70.5929 80.184 69.8503L80.5282 69.4877ZM84.794 69.5529C84.8967 69.0752 85.1041 68.9883 85.6023 68.9123C85.551 69.2271 85.5445 69.2879 85.2986 69.4313C85.0977 69.5507 84.995 69.5355 84.7919 69.5529H84.794ZM83.37 68.756L83.1882 68.9166C83.1561 68.9449 82.9637 69.099 82.9295 69.1186C82.4227 69.4161 81.0436 69.1186 80.8896 69.0491C81.1569 68.4476 80.5988 69.479 81.035 68.8624C81.3386 68.4346 81.0051 68.4389 81.4734 68.2457C81.5738 68.2044 81.7043 68.1936 81.839 68.1719L82.2624 68.6344C82.7456 68.3933 82.8953 68.2891 83.4277 68.6995C83.4106 68.7191 83.3828 68.7451 83.37 68.756ZM86.3934 66.6215C86.0684 66.4608 85.8909 66.5043 85.4526 66.4261C85.0549 66.3544 85.2473 66.3957 84.8603 66.0374C85.243 65.7573 85.2388 65.5771 85.7691 65.7421C86.6201 66.0049 86.0684 65.766 86.8788 65.8355C87.7127 65.905 88.5937 66.1395 89.5131 66.1829C89.2159 66.4847 88.3777 66.7149 87.7683 66.6867C86.6372 66.6367 86.8852 66.3132 86.526 66.7214C86.8467 66.9537 86.8189 66.8756 87.3428 66.8995L87.2915 67.1318C86.7248 67.2078 86.6265 67.4293 86.0641 67.6008C85.5894 67.7441 85.3628 67.8874 84.933 68.0481C84.0863 68.3651 82.6622 68.2761 82.2132 67.9504C82.3821 67.4054 82.1918 67.9091 82.3821 67.6638C82.5339 67.4705 82.891 67.1123 83.1283 67.0515C83.4341 66.9733 82.8717 66.932 83.2716 67.0449C83.2866 67.0493 83.5389 67.249 83.571 67.2708C83.5538 67.0319 83.4897 66.9689 83.5624 66.6519L83.8724 66.6606C83.8874 66.6606 83.9195 66.6519 83.9323 66.6498C83.958 66.6454 84.0157 66.6259 84.0392 66.6215L84.2039 66.5824C84.4134 66.5586 84.5524 66.5955 84.8154 66.5976L86.0534 66.7127C86.0791 66.7127 86.1176 66.7062 86.1411 66.7019L86.3998 66.628L86.3934 66.6215ZM11.5104 39.5729C11.5724 38.9802 11.8311 39.0041 12.2267 38.7869C14.5231 37.5319 13.856 36.5895 14.7156 36.0662C14.8973 35.9555 15.0042 35.9055 15.1496 35.8143C15.4747 35.6146 15.7227 35.443 16.0734 35.2585C16.3877 35.0934 16.8068 34.8285 17.0976 34.8502L18.1239 35.215C17.8075 35.6493 16.2658 36.5786 15.7013 36.9152C15.4062 37.0911 15.2288 37.2713 14.9209 37.5058L13.2701 38.6067C12.3272 39.1821 12.0471 39.5729 11.5082 39.5729H11.5104ZM22.1759 35.4691C22.2208 35.1021 22.2464 35.1455 22.6057 35.0695C22.503 35.443 22.565 35.4908 22.1759 35.4691ZM19.3171 35.5581C19.0476 35.113 19.3662 34.8394 19.9949 34.6157C20.6641 34.3791 20.352 35.139 21.049 34.3117C21.2693 34.6179 21.1624 34.5159 21.3954 34.6309L21.7931 34.7981C20.8758 36.0184 20.3905 35.2541 19.9093 35.3822C19.4838 35.4951 19.7704 35.6493 19.3171 35.5581ZM19.0498 32.3402C19.1845 31.958 19.2444 31.7734 19.5501 31.6584L19.7682 31.793C19.6528 32.1556 19.486 32.2989 19.0498 32.3402ZM15.9536 31.7561C15.9044 31.4043 16.2957 31.3587 16.5545 31.5302C16.4133 31.7235 16.5331 31.6888 16.2295 31.7778C15.9023 31.8733 15.9771 31.7647 15.9536 31.7561ZM17.8267 31.7105C17.5167 31.5216 17.615 31.641 17.5017 31.2393C17.9571 31.3478 17.8203 31.2328 17.8267 31.7105ZM34.1885 30.97C33.4486 33.035 33.7373 33.7211 33.6069 34.3313L33.4551 34.6657C33.4422 34.6874 33.423 34.7156 33.4102 34.7373C33.3973 34.759 33.3781 34.7894 33.3652 34.8112C33.1429 35.1912 32.8371 35.5972 32.6703 36.0315C32.1593 35.9294 31.5563 35.671 31.0175 35.8686C30.3867 36.0988 30.9597 36.2291 29.7923 36.3441C29.5057 36.3724 29.3325 36.4332 29.1722 36.4701C26.5956 37.0737 28.3575 35.5451 26.5742 36.5526C26.324 36.6937 26.2941 36.7415 25.8429 36.6633C25.1266 36.5396 24.4082 36.6112 23.7282 36.4918C23.7453 35.9859 24.776 34.8828 25.1459 34.5919C25.3854 34.4029 25.4281 34.4898 25.6783 34.2054C25.9883 33.8536 26.5785 33.2 26.726 32.8005C26.1231 32.9525 25.9199 33.4324 25.4281 33.808C24.081 34.8329 24.9599 34.4898 23.9912 35.139C23.0568 35.7644 23.4588 36.431 22.6292 36.5439C22.3042 36.5873 22.1545 36.6242 21.8787 36.4375C22.27 35.5559 22.3149 36.722 22.9328 35.6688C23.1445 35.3106 23.3925 35.0196 23.7069 34.7004C24.0875 34.3161 23.8715 34.6309 24.2542 34.0903C24.2692 34.0707 24.2885 34.0425 24.3034 34.0208L24.56 33.6951C24.8551 33.3455 25.178 33.174 25.2464 32.6268C24.8444 32.718 25.0005 32.7875 24.6327 32.8396C24.2799 32.8895 24.5065 32.6724 24.1195 32.9525C23.9014 33.1088 23.7774 33.5496 23.1274 33.6973C23.3305 33.1392 23.4802 33.4432 23.6106 32.9199C23.3369 32.9568 23.0098 33.0762 22.6997 33.1544C22.5479 32.9112 22.7682 32.9677 22.4816 32.8808C22.1609 33.061 21.3591 33.4367 21.079 33.4888C20.9956 33.3238 21.0576 33.4389 21.0127 33.289L20.9378 32.896C20.9678 32.6398 21.0768 32.6246 21.2436 32.3336C20.7262 32.4031 20.3627 32.8331 19.734 32.9547C19.8452 32.5638 20.1574 31.7951 20.6941 31.806C26.2214 32.4314 30.5471 32.4444 34.1949 30.9765L34.1885 30.97ZM14.4355 35.6319C14.4547 34.9697 14.3628 34.6179 14.3948 33.884C14.4868 31.819 14.7498 32.82 14.2323 31.5845C14.0035 31.0395 13.9437 30.0602 13.8282 29.4696C15.5003 30.6422 15.0385 29.7519 15.3613 31.7626C15.7099 33.9274 16.2081 32.3054 16.5566 34.3465C15.96 34.5484 15.464 35.3388 14.4333 35.6319H14.4355ZM48.0827 53.348C47.963 56.794 47.9501 56.8027 48.0314 59.9945C48.0955 62.5003 47.0606 78.9114 46.7805 80.1578C46.5368 81.2347 46.7976 81.5322 46.0321 82.5007C46.0214 82.5137 45.9979 82.5462 45.9787 82.5658C45.2089 81.2087 42.782 80.1317 40.7079 80.0492C39.2775 79.9906 37.8342 79.565 36.4208 79.4238C36.1727 79.3978 36.0851 79.3761 35.8028 79.3565L35.1999 79.413C35.1806 79.4173 35.1443 79.4304 35.1186 79.4456C35.2426 79.5433 35.4907 79.5867 35.6767 79.6019L37.7123 79.9363C39.3395 80.2099 41.1142 80.6702 42.7136 81.1957C43.4449 81.4367 44.591 82.6722 45.2816 83.0001C45.2324 83.1716 45.6644 83.6384 45.6045 83.7774C45.5981 83.7926 27.6797 91.7202 26.9741 91.8614C24.8679 92.2848 22.178 92.4455 19.888 92.326C18.4767 92.2522 12.34 91.008 11.0271 89.9918C10.5546 89.6249 10.1889 89.4251 9.69073 89.1168C9.20108 88.8128 8.89745 88.4741 8.45056 88.1462C6.61382 86.7913 2.39508 79.1785 1.84984 77.4783C2.33949 77.7237 1.98454 77.8822 2.58325 78.2057C2.52765 77.778 1.51413 76.1234 1.24899 73.3115C1.19126 72.7035 1.31528 72.4733 1.09076 72C0.913289 71.6265 0.949639 72.0933 0.896183 71.5158C0.278234 64.9474 1.04158 56.6572 1.62532 50.0888C1.68733 48.9358 1.77072 47.9327 2.16629 46.9968C2.9382 45.1642 3.28031 45.2272 3.89399 44.2935C4.10567 43.9699 3.94103 44.1306 4.24038 43.8201C4.89682 43.1405 5.77563 42.6476 6.55609 42.1199L9.66721 40.4589C10.1526 40.2634 10.4263 40.1701 10.8518 40.0181C10.7663 40.3438 10.6016 40.3915 10.7919 40.5978C11.0057 40.8302 11.6258 40.0181 12.1219 39.6424L14.0998 38.3027C14.444 38.1029 14.7712 37.9336 15.0898 37.6882C15.5089 37.3668 15.6372 37.2409 16.0819 36.9651C16.3962 36.7697 16.7298 36.57 17.0634 36.3528C17.4098 36.1292 17.7754 35.9576 18.0683 35.6797C18.5409 35.8534 19.1332 36.0705 19.409 36.3702C18.62 37.0976 15.5174 38.5893 15.1924 39.282C15.7847 39.0149 16.1995 38.6914 16.7747 38.3418C17.8139 37.7099 18.9129 36.874 20.0676 36.3811C20.6363 36.1379 21.4104 36.6916 21.7055 37.115C20.4375 38.0378 18.1902 39.3688 16.7661 40.2917L13.0307 43.0949C12.8297 43.2599 12.5645 43.3294 12.4576 43.5661C12.2502 44.0242 12.4063 43.8027 12.5132 43.9374C12.6821 44.0915 13.3792 43.0992 13.7726 42.8213C15.0684 41.9093 16.3577 40.8606 17.6877 39.9746L20.9806 37.901C21.2457 37.7251 22.4538 37.0824 22.7532 37.0824L23.9078 37.128C24.4574 37.0933 24.7482 37.2322 25.1395 37.2366C25.8686 37.2474 25.9948 37.6578 26.6234 37.2192L27.0425 36.9174C27.0596 36.9065 27.0959 36.887 27.1173 36.8653C28.381 37.6296 28.5991 37.3191 29.897 36.9499C30.438 36.7958 30.6091 36.3963 31.2206 36.3637C31.6718 36.3398 32.2705 36.6394 32.743 36.6981C32.959 36.4223 33.0616 36.4049 33.2733 36.0662C33.3674 35.9142 33.4123 35.7926 33.4786 35.6819C34.1329 34.5832 34.1307 36.1487 34.2676 33.2717C34.2997 32.5985 34.4087 31.1112 34.9369 30.6791C35.1378 30.514 35.6895 30.0733 35.9995 30.1449C36.2262 31.9884 35.0951 34.4377 36.4443 37.0607C36.9553 38.0552 37.2975 38.0291 37.785 38.598C38.3302 39.2364 38.5269 39.5947 39.2967 40.0919L42.6067 42.7084C46.5197 45.8047 48.258 48.2345 48.0784 53.3524L48.0827 53.348ZM25.503 30.4576C27.9769 30.5705 29.2663 30.5054 31.5413 29.9886C34.0388 29.4219 36.0273 29.0983 37.9282 27.3243C38.2319 27.042 38.4628 26.8032 38.7322 26.7142C38.5141 27.1832 37.0088 28.8942 36.6346 29.0592C35.5462 29.9799 29.0824 31.8255 26.7752 31.5932C25.3768 31.515 25.3725 31.5824 24.8914 31.5563C22.6548 31.4304 22.007 31.3934 20.1638 31.1459C18.7355 31.2067 13.7812 29.1309 12.5902 27.7434C12.3764 27.4959 12.1112 26.9356 12.0428 26.6186C13.5738 27.6001 14.9166 28.5663 18.4532 29.5587C20.0184 30.0863 23.5892 30.4424 25.5008 30.4576H25.503ZM38.7857 26.7185C38.9075 26.3668 38.9247 26.2777 39.2988 26.0975C39.2475 26.2712 39.2368 26.4167 39.1107 26.56C38.8712 26.8336 39.1577 26.6121 38.7857 26.7163V26.7185ZM18.9065 25.3462C19.0134 25.0965 19.0027 25.1291 19.2251 24.9706C19.5394 24.7469 19.27 24.8772 19.6271 24.7947C19.7105 25.0639 19.8131 25.5091 19.7917 25.8435C19.5523 25.7783 19.5309 25.7696 19.3064 25.6415L18.9065 25.344V25.3462ZM18.0897 24.8425C18.2565 24.7469 18.2565 24.6905 18.4575 24.8598C18.3185 24.9423 18.4575 24.9185 18.2415 24.925L18.0897 24.8446V24.8425ZM17.94 23.6743C18.0876 23.2422 17.9571 23.3725 18.4233 23.329C18.3078 23.6178 18.4511 23.6156 17.94 23.6743ZM20.9207 24.6992C20.9507 24.406 21.0875 24.2475 21.2479 24.0477C21.5579 23.6656 22.58 22.9621 23.1445 22.8557C23.0846 23.3138 23.0419 23.2313 22.7596 23.5288C22.3063 24.0108 21.5921 24.786 20.9207 24.697V24.6992ZM19.9072 23.9804C19.9949 23.3942 20.3199 23.1814 20.7796 22.9143C21.2436 22.6451 21.4083 22.3628 22.0198 22.3411C22.0433 23.164 21.1987 23.4637 20.5166 23.7242C20.2985 23.8067 20.0761 23.9088 19.9072 23.9804ZM21.0747 22.3172C21.2757 21.985 21.2372 22.0566 21.5686 21.8677C21.5173 22.3172 21.6092 22.163 21.0747 22.3172ZM16.1567 22.5452C16.2765 22.0219 16.8645 21.5355 17.3584 21.4334C17.3093 21.8156 17.4867 21.6354 16.8709 22.1131C16.7127 22.2347 16.4433 22.4236 16.1567 22.5473V22.5452ZM25.1715 27.3243C26.9955 27.4872 31.8257 26.7077 33.656 25.6828C36.1172 24.406 36.9254 24 37.105 21.3792C39.5597 22.378 40.2226 24.1303 39.1278 25.7805C38.5056 26.7185 36.0102 28.119 34.9625 28.4209C34.5712 28.5316 34.3916 28.6402 33.9618 28.777C31.0581 29.702 27.9256 30.0776 24.7204 29.8409C20.1274 29.4067 17.9336 29.4609 13.6401 27.0876C12.2801 26.2756 11.0913 24.545 11.0742 22.936C11.0699 22.5539 11.2538 22.8752 11.7819 22.9295C11.6921 22.2803 11.5018 22.4388 11.69 21.8612C11.938 21.0969 12.7805 20.541 13.4198 20.2348C13.3984 21.1338 13.3963 22.1869 13.7277 22.7927C13.933 23.1705 14.2537 23.6308 14.6472 23.8502C16.4775 25.2485 18.5088 26.9791 25.1694 27.3243H25.1715ZM15.6628 22.0588C15.9173 21.6897 16.3214 21.4074 16.6956 21.2793C16.4561 21.6853 16.1204 21.9676 15.6628 22.0588ZM21.0768 22.3172C20.6257 22.4713 20.5701 22.3758 20.1446 22.6928C19.858 22.9078 19.7297 23.0815 19.3449 23.1553C19.5181 22.6841 19.6848 22.7949 19.8473 22.48C20.0654 22.0566 19.8602 22.3107 19.7533 21.77L20.9143 21.1099C21.1324 20.9709 21.4767 20.7147 21.8573 20.7408C22.1352 20.7603 21.9321 20.7125 22.0882 20.8298C21.9193 21.251 22.1331 20.7885 21.5002 21.5181C21.2906 21.7591 21.0982 21.948 20.8523 22.1717C20.9763 22.3606 20.5701 22.3584 21.0768 22.3172ZM20.724 20.6583C21.2308 20.4759 21.3291 20.1697 21.9022 19.8896L21.8594 20.4542C21.6499 20.5562 21.049 20.7755 20.8758 20.8928C20.6791 20.7625 20.6941 21.0795 20.724 20.6583ZM16.4796 19.7267C16.2744 19.8831 14.3499 21.3683 15.0876 20.1502L16.3193 18.9299C16.4647 19.2838 16.3577 19.4141 16.4796 19.7267ZM14.9593 18.526C15.0385 18.0526 15.0577 18.0505 15.4426 17.9528C15.3848 18.4326 15.3699 18.4348 14.9593 18.526ZM15.7804 18.0982C15.8146 17.4251 15.9942 17.1928 16.5181 17.082L16.4882 17.664C16.2808 17.8854 16.1097 18.0266 15.7804 18.1004V18.0982ZM16.8966 16.9496C17.0142 16.5327 16.9522 16.5218 17.4354 16.5609C17.2793 16.8671 17.2195 16.9192 16.8966 16.9496ZM15.0427 16.5978C15.1112 16.2287 15.1475 16.1527 15.4768 16.0376C15.511 16.4741 15.4704 16.5045 15.0427 16.5978ZM17.2494 16.068C17.181 15.9442 17.1639 16.068 17.151 15.8161C17.1296 15.3905 17.4376 15.3102 17.5145 15.2581C17.5808 15.3775 17.6043 15.2516 17.6065 15.5013C17.6065 15.7814 17.5167 15.8205 17.2494 16.068ZM15.1154 15.371C15.1539 14.9454 15.2095 14.4525 15.6051 14.2289C15.5858 14.9215 15.6756 15.1712 15.1154 15.371ZM16.8089 14.6892C16.779 15.1691 16.6721 15.6033 16.2765 15.8574C16.0477 16.0029 16.129 16.1223 15.9536 15.929C15.7034 15.6555 16.4497 14.7978 16.8089 14.6892ZM16.0648 14.2658C16.1097 13.4776 16.5609 13.0107 17.2665 12.9261C17.2088 13.4646 17.1018 13.4342 16.8025 13.7403C16.4689 14.0812 16.5887 14.2006 16.0648 14.2658ZM14.3884 13.4863C14.4825 12.9955 14.7733 12.7545 15.0876 12.609C15.0876 13.1085 15.3079 12.8957 14.3884 13.4863ZM15.4575 12.4267C15.4276 12.3203 15.3784 12.3897 15.4362 12.216C15.5452 11.8838 15.4404 12.1639 15.5751 12.0249C15.5837 12.0163 15.8852 11.7861 15.9066 11.7687C17.3413 10.6722 16.1974 12.6612 15.4597 12.4267H15.4575ZM15.6201 11.5212C16.0563 11.1542 16.362 10.6505 16.4604 11.1347C16.3962 11.202 16.3962 11.2237 16.2679 11.3171C16.2401 11.3388 16.0498 11.443 16.0456 11.4452C15.866 11.5234 15.8638 11.5277 15.6201 11.5212ZM14.4932 11.3953C14.9551 10.7417 15.1047 10.7525 15.9985 10.5919C15.9109 10.911 15.6863 11.1759 15.4383 11.443C15.1945 11.7036 15.449 11.3887 15.3036 11.5342C15.0513 11.7861 15.186 11.8838 15.0085 12.1248C14.568 11.7036 14.7049 12.0467 14.4911 11.3974L14.4932 11.3953ZM13.7641 9.2543C13.9886 9.83188 13.8004 9.6408 13.7384 9.732C13.4134 9.23041 13.7427 9.2847 13.7641 9.2543ZM20.7219 20.6539C20.3862 20.7972 20.3712 20.8341 20.1082 21.0708C19.161 21.922 18.8017 21.0838 19.5416 20.5171C19.0712 20.6517 18.7504 20.7647 18.1859 20.7668C18.2544 20.2175 18.9749 19.9678 18.6906 19.4727C18.3591 19.6377 18.2864 20.0525 18.0812 20.1806C17.491 20.2804 18.5409 20.1806 17.9571 20.1154C17.6728 20.0829 18.3827 20.0329 17.6899 20.3065C17.6663 20.3152 17.4482 20.3456 17.4012 20.3608C17.3969 20.3782 17.4098 20.4064 17.4098 20.4151C17.4611 20.8341 17.1917 20.9058 16.9073 21.162L16.9137 21.0556C16.9458 20.693 17.0783 20.9709 16.9287 20.7125C16.3684 20.6279 16.3342 20.7777 16.0263 21.0513C15.8253 21.2293 15.6372 21.3379 15.4447 21.5355C15.4276 20.921 16.0926 20.5888 16.4689 20.2066C16.8752 19.7984 17.3691 19.5661 17.5338 18.9255C17.0741 18.9885 17.0591 19.3446 16.8196 19.3533C15.9151 19.3837 17.8395 17.4794 17.8973 17.3795C17.1831 17.6509 17.5316 17.8811 16.9372 17.918C17.0398 17.5836 17.2002 17.462 17.4226 17.2449C18.3228 16.3698 18.3698 16.1809 18.7782 15.0887C18.5259 14.9476 18.3698 14.9606 18.1154 14.813C18.3185 14.0291 19.1268 13.762 19.548 13.2605L19.1374 13.0715C18.6221 12.7046 18.62 12.9261 17.9956 13.0281C18.2308 12.5352 18.3869 12.2551 19.1332 12.2812C19.8987 12.3094 19.8751 12.4701 19.796 12.9369L19.7853 13.0433C20.6235 12.4418 20.5294 11.6688 19.5886 11.6536C19.5223 11.6536 19.2422 11.6536 19.2401 11.6536C19.0968 11.645 19.0797 11.6515 19.0049 11.6167C19.0092 11.2411 19.0605 11.2932 18.9664 10.7851C17.7839 10.8611 18.8787 11.0609 17.3627 10.7373C16.9821 10.6548 17.0912 10.733 16.7939 10.5701C16.8923 10.3226 16.8474 10.4703 16.9842 10.2879L17.4204 9.41932C16.7939 9.11316 16.9115 9.41932 16.5267 8.7918L15.4939 8.87865C15.4789 8.85477 15.4661 8.81568 15.4597 8.80048C15.3293 8.52689 15.1625 8.33799 14.9551 8.15342C14.645 7.87332 14.4547 7.40647 14.1554 7.11334C13.8753 6.83758 13.5053 6.60524 13.4861 6.19269C13.4626 5.71499 13.5289 5.96904 13.4134 5.35454C13.3001 4.75308 13.5909 4.00179 14.119 3.6978C14.3884 3.54363 14.8225 3.71083 15.047 3.50238C15.1732 3.38512 15.1945 3.05725 15.2886 2.91611C15.3571 2.81406 15.5024 2.69029 15.6671 2.61212C16.9757 1.98026 17.7369 3.13542 18.4789 1.33971C19.5694 1.33971 20.3413 0.968404 21.2735 0.781667C23.2151 0.395166 22.5565 0.88155 24.096 1.00097C24.6327 1.04223 25.2827 1.06394 25.8237 1.0748C26.7816 1.09 29.0909 0.586245 29.6255 1.94551C30.4188 1.98026 30.8143 1.86083 31.5264 1.92163C32.6853 2.01934 32.0481 1.85432 32.7986 1.5069C33.5 1.60027 34.0452 2.27556 34.4964 2.71852C35.4671 3.66306 36.0701 3.21793 36.2262 4.13424C36.2839 4.47514 36.1749 4.7813 36.2048 5.14826C36.2989 6.3056 38.3003 6.34034 37.1285 8.60941C36.9404 8.97202 36.8805 8.883 36.7351 9.27818C36.7223 9.31293 36.6966 9.42801 36.6838 9.46492C36.3908 10.3443 36.1236 10.2575 35.0523 10.2314C35.001 9.87531 35.0459 9.98387 34.8428 9.75588C34.8257 9.77977 34.8086 9.81451 34.7979 9.82971L34.7059 9.97302C34.691 9.99256 34.6717 10.023 34.6567 10.0425C34.4344 10.3183 34.1585 10.5397 33.8186 10.3313C33.748 11.1694 32.4886 11.2215 31.7915 11.2389C31.0025 11.2585 30.0553 11.5299 30.0211 12.4484C30.9234 12.4679 30.8165 11.8773 31.5862 11.7579C32.0887 11.6797 33.2027 11.7405 33.4593 11.6319C33.9768 11.4126 34.3681 10.9349 34.939 10.8394C35.9546 10.6722 36.1214 10.9697 37.0815 10.3487C37.1435 12.6242 36.8955 20.0394 36.2198 21.922C36.5234 23.2053 34.9967 24.3539 33.0082 25.1986C30.5342 26.2473 27.344 26.8271 26.0739 26.6056C25.0668 26.5861 24.4424 26.6946 24.0041 26.4145C24.7375 26.3646 25.4153 26.1692 26.0311 25.8261C26.6597 25.4765 27.2392 25.7262 27.9021 25.1703C27.3418 25.1877 26.8329 25.4092 26.23 25.4266C25.5372 25.4483 25.163 25.5959 24.5194 25.5894C24.3825 25.2984 24.4467 24.9836 24.0276 24.8511C23.7902 24.7752 23.6299 24.8577 23.198 24.5819C23.4845 24.2475 23.9805 24.1389 24.1602 23.7155C23.5871 23.8154 23.431 24.2106 22.6933 24.2323C22.858 23.4159 23.833 23.3681 23.972 22.3085C23.461 22.2846 23.4631 22.3389 23.044 22.3823C23.1915 21.8395 23.2728 21.9632 23.5379 21.5898C23.3348 21.0339 23.5572 21.6788 23.2792 21.2706C22.7553 20.5063 23.4695 20.4194 22.2229 19.7919C21.776 19.5682 22.0476 19.8657 21.9514 19.3055C21.6413 19.3533 21.5622 19.375 21.3356 19.5378C20.8694 19.8679 21.2393 19.5313 21.2222 19.8114C21.1773 20.5584 21.0362 19.8787 20.7176 20.6517L20.7219 20.6539Z" fill="#95C11F"/>
</g>
<defs>
<clipPath id="clip0_282_17347">
<rect width="108" height="96" fill="white"/>
</clipPath>
</defs>
</svg>
