<svg width="89" height="160" viewBox="0 0 89 160" fill="none" xmlns="http://www.w3.org/2000/svg">
<g clip-path="url(#clip0_282_17400)">
<path d="M64.9782 158.39C43.6365 160.444 17.7647 159.296 3.53783 154.632C1.90024 154.277 0.645497 152.704 0.729333 151.061C0.908182 149.862 0.927744 149.611 1.86391 150.407C8.01186 153.554 24.5582 153.967 17.3009 152.936C-4.08284 150.237 2.4787 149.222 3.79213 146.484C16.292 128.631 32.4779 82.7203 36.6054 53.5839C37.9887 44.6169 36.421 44.7762 38.4722 44.8125C55.1918 45.0417 51.0196 43.5076 51.8579 48.297C54.7307 75.4215 72.0679 130.439 87.4322 149.261C83.2963 151.033 78.554 151.813 74.1387 152.866C55.7703 156.876 35.0321 155.51 39.3021 156.303C72.4592 157.854 87.6977 148.44 88.1728 150.318C88.5109 151.466 90.319 155.951 64.981 158.39H64.9782ZM34.2133 43.9798C34.0959 37.1142 33.9143 39.0115 35.7112 38.7237C58.263 38.76 54.5407 38.0782 54.8118 40.336C54.7223 41.627 54.9515 42.9878 54.6804 44.1223C32.3997 44.399 34.2217 44.0609 34.2161 43.9798H34.2133ZM88.0442 148.862C71.5314 128.868 52.7354 66.5579 52.3749 45.3686C52.0927 44.2313 54.6804 45.1199 55.2924 44.7427C55.6836 44.2118 55.3511 43.2952 55.4573 42.5659C55.3651 37.279 56.2928 38.1453 52.8807 38.0754C46.4282 38.1145 40.1992 37.9804 33.769 38.1034C33.4812 38.38 33.5035 38.366 33.5063 38.9053C33.5538 40.8642 33.4448 42.5743 33.579 44.5918C34.4201 45.5502 37.2174 43.6445 36.6585 46.0281C35.7307 60.6647 31.8016 74.7006 27.7244 88.6945C8.73005 149.303 -1.65719 147.828 0.215141 152.254C0.706977 154.464 2.70786 155.155 4.70594 155.708C28.2694 162.945 76.5643 159.913 86.6945 154.819C88.8742 153.774 89.8746 150.625 88.0414 148.862H88.0442Z" fill="#95C11F"/>
<path d="M49.1026 146.604C49.1026 146.604 49.0998 146.604 49.1278 146.638C49.1194 146.626 49.111 146.615 49.1026 146.604Z" fill="#95C11F"/>
<path d="M56.2566 150.089C56.2454 150.069 56.4326 149.996 56.3069 149.968C56.3097 149.974 56.2538 150.008 56.2566 150.089Z" fill="#95C11F"/>
<path d="M84.2803 148.454V148.459C84.3669 148.39 84.3948 148.278 84.2803 148.454Z" fill="#95C11F"/>
<path d="M62.5727 131.808C62.5727 131.808 62.5669 131.817 62.561 131.823L62.5727 131.808Z" fill="#95C11F"/>
<path d="M40.5627 154.613C39.2939 154.283 41.7168 153.839 41.9487 154.613C41.3815 154.613 40.9707 154.613 40.5627 154.613ZM39.6852 153.833C39.4253 153.816 39.171 153.568 38.8943 153.126C39.3135 153.143 39.8892 152.956 40.3559 153.176C41.2948 153.914 40.7024 153.76 39.6852 153.833ZM39.5035 154.582C39.1961 154.582 38.5478 154.808 38.3047 154.361C38.5478 154.369 39.5259 154.079 39.5035 154.582ZM36.9577 153.207C37.6424 153.079 38.2711 153.112 38.777 153.78C38.0085 154.101 37.634 153.984 36.9577 153.207ZM36.6783 154.356C37.0471 154.372 37.4048 154.188 37.7206 154.599C37.3294 154.579 36.9745 154.758 36.6783 154.356ZM31.7431 149.957C32.5647 149.398 33.9676 151.195 34.3951 151.779C34.7948 152.011 35.8399 152.553 35.4487 153.056C37.3126 152.978 38.2488 156.792 31.7403 149.954L31.7431 149.957ZM22.1775 150.58C22.2278 148.982 30.4409 149.854 35.7253 147.582C35.8706 146.92 34.8423 148.124 23.9408 149.231C23.3456 149.197 22.3032 149.723 22.8789 148.717C23.4406 148.37 28.0069 148.753 27.244 148.018C24.2203 148.077 25.2598 148.387 25.9669 145.964C27.1378 145.542 28.6664 145.81 30.0021 145.629C30.5387 146.04 30.8405 146.858 31.6761 146.126C31.8773 145.872 31.8745 145.528 32.3104 145.531C34.4007 145.422 43.8434 145.28 46.107 145.403C40.3 147.92 25.4666 150.513 22.1775 150.58ZM30.9271 150.6C29.4656 150.362 31.0836 149.535 31.5727 150.457C31.3184 150.513 31.1228 150.558 30.9271 150.6ZM28.7139 150.382C29.0939 150.326 29.7758 150.058 30.0105 150.653C29.1834 150.891 29.1442 150.882 28.7139 150.382ZM27.61 150.972C26.2463 150.681 28.1689 150.069 28.4177 150.863C28.1438 150.899 27.8783 150.938 27.61 150.972ZM25.0698 150.804C25.5533 150.849 26.3525 150.343 26.7158 151.005C26.115 151.148 25.2515 151.391 25.0698 150.804ZM23.734 150.941C24.0973 150.888 24.4466 150.754 24.6758 151.254C24.2846 151.301 23.9352 151.41 23.734 150.941ZM22.2669 151.069C22.5519 151.072 23.1863 150.837 23.34 151.394C22.7867 151.424 22.3228 151.556 22.2669 151.069ZM23.0661 148.253C23.8682 145.724 23.4769 145.984 25.5533 145.869C25.2319 146.573 25.2878 147.719 24.7261 148.155C24.4187 148.107 22.8314 148.585 23.0689 148.253H23.0661ZM31.0752 145.179C31.609 145.154 31.5224 146.042 30.9299 145.925C30.5946 145.771 30.6728 145.299 31.0752 145.179ZM46.638 145.827C46.8531 146.956 46.7078 147.18 45.9142 146.16C46.0846 145.989 46.2691 145.95 46.638 145.827ZM46.7721 150.01C46.0623 149.759 43.5668 146.973 43.7736 146.85C44.7796 146.503 45.3888 145.908 46.1321 147.048C47.099 147.761 46.6659 148.912 46.7721 150.01ZM46.828 151.145C47.2695 151.326 50.9611 154.291 50.2038 154.179C49.8461 154.241 49.5163 153.699 49.0804 153.635C49.0245 154.012 49.1782 154.417 48.4879 153.774C46.1377 151.662 43.9245 149.778 41.7475 147.521C42.3735 147.445 43.0582 146.666 43.5388 147.456C44.5057 148.764 46.0623 149.781 46.828 151.148V151.145ZM49.2536 154.308C49.0133 154.305 49.1838 153.908 49.3989 154.196C49.3542 154.238 49.3458 154.308 49.2536 154.308ZM46.9733 153.981C47.5015 154.839 46.4591 154.319 46.1014 153.827C47.4316 153.503 47.4651 153.33 48.3789 154.28C47.7865 154.551 46.9901 153.978 46.9733 153.981ZM45.3106 154.523C42.8206 154.288 45.3609 153.213 46.0036 154.417C45.7661 154.546 45.5285 154.476 45.3106 154.523ZM42.8514 152.835C43.536 152.724 44.6566 152.539 44.8075 153.459C44.0055 153.542 43.4466 153.755 42.8514 152.835ZM42.2394 154.174C42.8067 154.057 43.6087 153.794 43.9273 154.587C42.7033 154.587 42.5999 154.685 42.2394 154.174ZM41.0992 153.014C41.8006 152.905 42.3512 152.866 42.8849 153.601C42.2841 153.724 41.1048 153.836 41.0992 153.014ZM39.4616 151.793C39.9842 150.972 41.0014 151.88 41.6637 152.514C40.7108 152.696 40.1407 152.578 39.4616 151.793ZM37.3909 151.88C38.531 151.673 38.8552 151.561 39.6908 152.698C38.6959 152.76 38.0811 152.757 37.3909 151.88ZM36.3765 151.88C38.8245 152.726 36.4603 153.545 35.471 151.883C35.8343 151.883 36.1054 151.891 36.3765 151.88ZM36.0663 151.304C36.125 151.343 36.2116 151.578 35.9657 151.553C34.6578 151.849 34.0458 150.561 33.1376 149.832C33.7803 148.691 35.4068 150.849 36.0663 151.304ZM36.5972 150.03C35.8259 150.329 35.2586 150.164 34.6159 149.432C35.3062 148.923 36.2926 149.242 36.5972 150.03ZM36.9996 150.385C37.0919 150.329 38.4444 151.209 37.9554 151.34C37.145 151.648 36.4771 151.257 35.8595 150.488C36.2954 150.449 36.6475 150.416 36.9996 150.382V150.385ZM38.3829 149.756C37.5641 149.957 37.3322 150.153 36.6503 149.303C37.43 149.01 37.6759 149.069 38.3829 149.756ZM39.3051 148.507C38.8468 148.563 38.3969 148.697 37.9134 148.605C38.1957 148.624 39.3862 147.934 39.3051 148.507ZM40.0345 148.982C40.9231 149.477 39.3414 149.79 38.8971 149.577C37.7989 148.949 39.5175 148.809 40.0345 148.982ZM43.2174 151.251C42.9827 151.117 43.4578 150.667 42.9715 150.642C41.8398 150.653 40.7862 148.655 40.0065 148.342C39.4421 148.116 41.1132 147.509 41.415 147.836C43.1448 149.703 45.3106 151.357 47.0571 153.227C45.1932 153.816 44.4331 152.156 43.2147 151.254L43.2174 151.251ZM41.8034 151.282C42.6278 150.963 43.061 151.726 43.6506 152.293C42.8933 152.441 42.4937 152.494 42.2142 152.341C41.8817 152.101 40.4984 151.259 41.8006 151.279L41.8034 151.282ZM39.8193 151.092C39.0173 151.368 38.4919 151.078 37.8548 150.39C38.5757 149.974 39.4644 150.295 39.8193 151.092ZM39.5063 150.097C40.9679 149.451 40.9511 149.753 41.8928 150.687C41.9208 151.014 41.4541 150.821 41.1132 150.935C40.4118 151.148 40.1099 150.525 39.5063 150.097ZM21.409 151.371C21.3699 151.715 20.2045 151.508 20.7159 151.201C20.9144 151.254 21.4509 150.969 21.409 151.371ZM20.9619 152.704C20.8389 153.305 20.361 152.338 20.0788 152.078C20.4281 151.913 21.2106 152.134 20.9619 152.704ZM19.3019 151.363C19.6186 151.318 19.8655 151.378 20.0425 151.542C19.749 151.637 19.4892 151.701 19.3019 151.363ZM47.1969 145.654C48.0017 145.098 48.3734 145.335 48.8931 146.14C48.2923 146.364 47.753 146.573 47.1186 146.699C47.1242 146.386 46.9956 145.981 47.1969 145.654ZM47.222 144.276C50.9639 143.005 53.6215 140.985 53.4175 142.281C53.56 142.815 51.6094 143.231 51.098 143.575C50.2429 143.857 46.4815 145.847 47.222 144.279V144.276ZM52.621 132.286C52.6909 132.292 53.655 132.166 53.764 132.339C53.9708 133.655 54.0071 134.879 54.362 136.184C55.002 135.385 53.2889 131.805 54.9014 132.205C58.3917 132.149 67.826 131.138 67.8624 131.484C66.7669 131.914 65.4758 131.663 64.3413 132.197C64.7241 132.605 69.4161 131.573 67.826 132.328C67.0995 132.599 65.8419 132.445 65.4255 132.943C65.8475 132.856 66.2164 133.228 66.0795 133.859C67.1302 135.933 68.4744 138.283 69.6536 140.454C68.0356 140.923 67.921 140.675 67.2001 139.381C66.0934 137.173 64.4698 135.335 64.9477 133.985C63.6762 134.756 62.712 136.556 61.3735 137.537C61.2142 136.821 61.0102 136.382 61.7815 135.902C62.4354 135.156 64.073 134.027 63.4386 133.65C63.0167 133.767 60.3674 137.162 61.3511 134.843C61.4713 134.65 62.0693 134.34 61.8038 133.971C60.6413 134.647 61.2226 133.977 61.0102 132.842C60.3898 131.724 60.7671 134.67 60.5547 134.924C58.9059 136.721 56.6116 137.713 54.8343 139.319C57.6316 138.643 61.6725 133.968 60.5295 136.382C58.4532 138.017 56.2232 139.901 53.7081 140.873C53.5656 140.18 52.2885 132.35 52.6238 132.286H52.621ZM52.3416 130.841C53.5795 130.595 53.8562 130.805 53.6829 131.747C53.0039 131.934 52.1655 132.034 52.3416 130.841ZM53.6298 129.827C53.5125 130.023 53.3755 130.4 53.0654 130.31C53.043 130.148 53.3057 129.967 53.6298 129.827ZM52.2549 130.084C52.2354 129.942 53.574 128.584 53.5348 129.134C53.3811 129.268 52.4506 130.445 52.2549 130.084ZM52.1236 128.863C52.0705 127.276 55.1892 127.477 52.1655 129.405C52.146 129.134 52.1515 128.994 52.1236 128.863ZM52.0118 127.309C51.6904 126.2 52.6937 126.41 53.4286 126.586C53.8283 127.765 52.7747 127.301 52.0118 127.309ZM42.924 131.953C42.829 130.956 43.0135 127.284 43.9748 127.614C44.6231 127.592 43.7065 128.265 43.5248 128.62C43.5584 129.218 45.0199 127.432 45.4615 127.608C45.6627 127.631 46.1796 127.544 45.9812 127.913C45.5453 128.234 45.277 128.997 46.1349 128.354C46.5793 127.944 46.9034 127.449 47.6356 127.714C47.5518 127.879 47.3366 128.083 47.1186 128.271C46.1601 129.553 48.5913 127.334 48.9937 127.751C48.0771 128.815 46.6938 129.807 45.5425 130.766C45.1093 131.026 44.5169 130.699 44.1033 131.04C50.4832 131.252 52.0705 129.983 51.9392 131.811C48.9071 131.937 45.9002 131.979 42.9212 131.951L42.924 131.953ZM28.5881 127.938C46.8084 127.223 40.0541 127.446 39.6824 129.483C40.5124 129.148 41.2082 128.34 42.0493 127.726C43.8574 127.234 41.1691 128.614 41.0992 129.232C41.5659 129.399 42.5747 128.069 42.7116 128.572C42.2617 130.956 42.9632 132.208 41.387 131.951C38.9949 132.149 10.6892 130.998 16.4878 128.639C23.7061 126.678 31.0976 126.809 38.5254 126.468C39.9199 126.647 43.5779 125.778 42.8821 127.061C39.6377 127.457 27.6492 126.865 28.5853 127.938H28.5881ZM43.3739 126.89C43.3879 126.183 43.6841 126.407 44.3744 126.368C46.8168 126.465 49.181 126.178 51.4781 126.583C51.506 126.873 51.7799 127.415 51.1343 127.295C47.7781 127.072 43.2286 127.466 43.3739 126.89ZM47.1773 130.498C46.9537 130.69 46.7358 130.797 46.4367 130.71C50.5643 126.636 51.9895 126.809 47.1773 130.498ZM51.5479 128.265C50.3826 129.098 49.0748 130.981 47.8452 130.567C48.3147 130.095 52.0761 126.474 51.5479 128.265ZM49.8069 130.344C50.3435 129.824 50.9443 129.321 51.6401 128.827C52.0565 130.246 50.5587 130.875 49.8069 130.344ZM67.0883 129.235C67.1525 129.184 67.2252 129.145 67.2979 129.098C67.5019 129.201 67.0436 129.578 67.0883 129.235ZM66.8619 129.441L66.8899 129.405L66.9066 129.447L66.8591 129.441H66.8619ZM55.2842 130.051C56.3014 129.388 57.313 127.815 58.1514 128.173C57.3522 128.913 55.2367 131.129 55.2842 130.051ZM56.6312 130.173C57.6651 129.402 58.4839 127.952 59.3558 128.181C59.177 128.43 57.3298 130.316 56.6312 130.173ZM60.5072 128.561C60.0405 128.994 58.143 130.984 58.0284 129.956C58.3386 129.64 61.1192 127.309 60.5072 128.561ZM62.3991 128.62C61.6557 129.195 61.0521 130.341 59.8672 130.148C59.761 130.123 59.5207 130.252 59.6241 129.964C60.4094 129.405 61.0437 128.081 62.1503 128.282C62.3655 128.268 62.7316 128.354 62.3991 128.617V128.62ZM62.3683 129.969C61.2309 130.361 61.6893 129.779 62.3292 129.271C62.8574 128.821 63.1089 128.192 63.9891 128.502C63.3995 129.036 62.8909 129.511 62.3655 129.969H62.3683ZM64.685 129.855C64.7381 129.796 64.7772 129.768 64.685 129.855C64.3273 130.064 64.7073 129.464 64.685 129.855ZM63.8103 129.869C61.9296 130.78 64.6263 128.078 65.188 128.628C64.685 129.081 64.2462 129.475 63.8103 129.869ZM65.9649 129.352C67.2392 128.106 66.4595 129.603 65.5373 129.724C65.6072 129.629 65.7665 129.497 65.9649 129.352ZM65.7609 128.885C65.5597 129.003 65.0231 129.726 64.8638 129.522C64.8275 129.494 66.1968 128.293 65.7609 128.885ZM55.5022 128.036C55.7844 127.871 55.681 128.257 55.4156 128.229C55.3764 128.176 55.3988 128.111 55.5022 128.036ZM54.1217 130.104C54.9964 129.439 56.117 127.904 56.8994 128.039C56.5585 128.441 53.9345 130.942 54.1217 130.104ZM54.0854 129.358C54.0993 129.201 54.5381 129.14 54.1888 129.419C54.1999 129.405 54.0854 129.483 54.0854 129.358ZM54.8231 128.036C54.6331 128.114 54.3313 128.698 54.0155 128.623C53.9372 128.508 54.7281 127.681 54.8231 128.036ZM54.4766 129.089C54.4347 128.966 54.5045 128.947 54.6051 128.961C54.6163 129.056 54.566 129.092 54.4766 129.089ZM54.3425 129.226C54.2782 129.081 54.3592 129.075 54.471 129.098C54.471 129.184 54.4263 129.223 54.3425 129.226ZM54.6135 128.952C54.5912 128.846 54.6471 128.815 54.7421 128.824C54.7588 128.927 54.7057 128.961 54.6135 128.952ZM54.879 128.687C54.9069 128.801 54.8483 128.829 54.7505 128.815C54.7365 128.718 54.7896 128.681 54.879 128.687ZM55.0131 128.55C55.0746 128.69 54.9908 128.695 54.8874 128.679C54.8818 128.589 54.9293 128.55 55.0131 128.55ZM55.1585 128.405C55.1501 128.368 55.3121 128.215 55.2954 128.405C55.2702 128.433 55.2479 128.458 55.1585 128.405ZM55.1529 128.41C55.0606 128.449 55.0942 128.438 55.1529 128.41C54.9684 128.704 55.2674 128.466 55.1529 128.41ZM66.1242 130.872C66.7837 130.615 73.4961 129.908 71.1431 128.5C70.8357 128.354 69.3211 128.122 70.0896 128.743C72.2861 128.955 70.0644 129.698 69.3658 129.682C69.4916 129.156 69.1423 128.461 68.5889 128.952C69.0752 129.567 68.4408 129.17 68.2089 129.693C68.2368 129.866 68.329 129.989 68.0831 130.039C66.5126 130.268 61.9184 130.878 65.8028 130.934C62.0693 131.328 58.2045 131.629 54.3844 131.733C54.1273 131.789 53.9512 130.847 54.2977 130.757C55.6279 130.64 72.5292 130.911 66.6747 128.332C66.7054 128.053 69.4217 129.033 68.5219 128.153C63.6063 126.96 67.1777 128.514 64.6459 128.075C60.0461 127.376 53.2135 128.047 53.9233 126.806C53.9289 126.055 87.1474 128.285 66.127 130.872H66.1242ZM73.2474 130.31C73.2195 130.598 72.5097 130.489 72.7081 130.101C72.9707 129.81 73.2027 129.88 73.2474 130.31ZM73.4598 130.883C73.7448 131.048 72.9121 131.45 73.0937 130.961C73.1608 130.9 73.2726 130.852 73.4598 130.883ZM73.5464 129.517C73.6973 129.26 74.0746 130.028 73.9293 130.171C73.675 130.285 73.4318 129.88 73.5464 129.517ZM74.1668 130.604C74.5469 130.707 73.9824 131.191 73.9516 130.699C73.9768 130.657 73.9991 130.615 74.1668 130.604ZM74.572 131.341C74.804 131.585 75.0443 132.515 74.3904 131.937C74.2562 131.733 74.0746 131.154 74.572 131.341ZM75.2539 132.803C75.2036 133.054 74.6503 132.996 74.7481 132.577C74.9018 132.417 75.2008 132.482 75.2539 132.803ZM75.5724 133.426C79.6329 141.745 80.2225 141.831 79.6916 141.823C79.0488 141.144 73.8818 132.138 75.5724 133.426ZM80.0213 142.245C80.189 142.178 80.5858 142.698 80.407 142.793C80.2505 142.916 79.8229 142.502 80.0213 142.245ZM80.611 143.223C80.7786 143.203 81.7008 144.184 81.033 144.265C80.2142 144.494 80.2169 144.796 79.6888 143.952C79.3311 143.631 79.8425 143.31 80.2309 143.427C80.4964 143.698 80.4573 143.483 80.611 143.223ZM82.2011 145.433C82.6063 146.112 84.4702 148.233 83.8722 148.012C82.0222 146.121 83.8834 149.158 82.4917 147.535C81.7847 146.626 80.9463 145.922 80.516 144.919C81.5304 144.411 81.6645 144.573 82.1983 145.43L82.2011 145.433ZM84.1936 148.147C84.2802 148.2 84.16 148.387 84.0957 148.163C84.1041 148.155 84.1181 148.149 84.1936 148.147ZM84.3053 149.197C84.1237 149.303 84.0147 149.292 83.6458 148.867C82.7628 147.797 84.1377 148.644 84.3053 149.197ZM82.8689 149.764C82.3408 149.474 81.5667 148.521 81.5863 147.825C81.1252 147.887 80.0437 146.791 80.6138 146.255C80.1471 146.392 79.074 145.562 79.6133 145.193C80.2169 144.852 81.5192 147.359 81.9943 147.624C82.4889 148.46 84.3417 149.586 82.8689 149.762V149.764ZM82.1508 149.946C81.9356 150.117 81.7623 149.996 81.4996 149.622C81.2537 149.239 80.2114 148.353 81.1308 148.457C81.4298 148.876 82.0697 149.407 82.1536 149.946H82.1508ZM81.2314 150.217C80.8625 150.329 80.5858 149.792 80.6138 149.412C80.298 149.563 79.4596 148.731 80.1918 148.733C80.3818 149.06 81.318 149.818 81.2286 150.214L81.2314 150.217ZM80.2114 150.53C79.2696 150.611 80.0241 149.471 80.5243 150.43C80.3734 150.477 80.2868 150.494 80.2114 150.53ZM78.8281 149.18C79.264 148.887 79.5099 149.077 79.8313 149.605C79.4345 149.832 79.3451 149.968 78.8281 149.18ZM79.2221 150.821C78.9678 150.86 78.6911 150.133 79.2892 150.466C79.4065 150.58 79.482 150.745 79.2221 150.821ZM78.557 150.049C78.4368 149.994 77.7606 149.44 78.2552 149.362C78.4732 149.443 79.0097 149.938 78.557 150.049ZM77.9059 148.943C77.5845 149.158 77.333 148.568 77.0647 148.256C76.19 146.967 77.9506 148.448 77.9059 148.943ZM77.8612 150.228C77.6711 150.421 76.9306 149.834 77.2743 149.622C77.4839 149.496 78.0093 149.949 77.8612 150.228ZM77.2072 151.849C77.0508 151.888 77.0452 151.883 77.0815 151.72C77.1569 151.729 77.1989 151.771 77.2072 151.849ZM77.3442 151.986C77.3023 151.899 77.3134 151.93 77.3442 151.986C77.0703 151.799 77.2771 152.095 77.3442 151.986ZM77.4979 152.112C77.4755 152.159 77.2855 152.173 77.3554 151.994C77.3945 152.003 77.428 152.011 77.4979 152.112ZM77.4979 152.263C77.428 152.198 77.4839 152.165 77.5063 152.12C77.5454 152.159 77.5873 152.198 77.6292 152.235C77.5929 152.263 77.5705 152.324 77.5007 152.26L77.4979 152.263ZM76.939 151.584C77.02 151.589 77.0591 151.631 77.0647 151.709C76.911 151.748 76.9054 151.74 76.939 151.584ZM76.802 151.447C76.8831 151.449 76.9222 151.494 76.9278 151.572C76.7713 151.606 76.7657 151.6 76.802 151.447ZM76.6679 151.307C76.7517 151.307 76.7909 151.354 76.7937 151.435C76.6595 151.486 76.6288 151.433 76.6679 151.307ZM76.4863 151.257C76.5002 151.178 76.6232 151.136 76.6595 151.307C76.5785 151.402 76.5338 151.307 76.4863 151.257ZM76.2264 149.915C76.4108 149.661 77.0927 150.133 77.0116 150.477C76.7797 150.715 76.1928 150.309 76.2264 149.915ZM75.9944 149.488C75.5389 149.58 75.103 148.756 74.8012 148.351C75.0834 147.973 76.3465 149.259 75.9944 149.488ZM75.4271 150.128C75.7317 150.119 75.7541 150.139 76.0838 150.703C75.8677 150.608 75.6488 150.416 75.4271 150.128ZM75.3517 150.91C75.1281 151.128 74.6223 150.673 74.5273 150.318C74.762 150.058 75.3461 150.566 75.3517 150.91ZM74.1612 151.136C74.1081 151.019 73.2167 150.491 73.8706 150.443C74.0746 150.466 74.8403 151.326 74.1612 151.136ZM72.9037 151.217C72.0765 150.407 73.172 150.491 73.6191 151.254C73.3135 151.405 73.0751 151.393 72.9037 151.217ZM71.9004 150.167C70.7882 149.234 71.7439 149.035 72.546 150.156C72.2861 150.351 72.0905 150.376 71.9004 150.167ZM72.5152 151.533C72.1911 151.746 71.8585 151.245 71.6266 150.935C71.9815 150.689 72.3839 151.095 72.5152 151.533ZM71.2773 151.824C69.9499 151.592 70.5591 150.231 71.6853 151.693C71.4896 151.757 71.3835 151.796 71.2773 151.824ZM70.2992 150.681C69.0081 150.661 69.3686 148.971 70.6094 150.575C70.4669 150.625 70.3802 150.647 70.2992 150.681ZM70.3579 151.961C69.7431 152.235 69.4133 151.849 69.0584 151.391C69.5922 151.097 70.3383 151.396 70.3579 151.961ZM69.0361 152.193C68.7231 152.439 67.8596 151.919 68.0664 151.489C68.4213 151.326 68.9494 151.788 69.0361 152.193ZM69.2401 150.53C69.7067 151.19 68.0915 150.991 67.9462 150.245C68.3318 150.175 68.7985 149.896 69.2401 150.53ZM67.2559 152.223C67.1218 152.075 66.9569 151.952 66.7921 151.804C67.6304 151.142 68.4464 153.042 67.2559 152.223ZM66.8116 152.52C66.5098 152.718 66.194 152.268 65.9118 151.975C65.8671 151.542 66.8116 152.137 66.8116 152.52ZM64.685 152.073C65.2271 151.718 65.4786 152.14 65.8699 152.576C65.3585 152.81 65.4982 152.835 64.685 152.073ZM63.2039 152.243C64.1177 151.975 64.0953 152.036 64.7045 152.774C63.7851 153.106 63.6398 152.844 63.2039 152.243ZM61.8513 152.355C62.5164 152.204 62.5164 152.126 63.1228 152.925C62.3571 153.07 62.2565 153.023 61.8513 152.355ZM60.3171 152.45C60.9627 152.268 61.3986 152.478 61.6948 153.017C60.9459 153.221 60.8453 153.182 60.3171 152.45ZM60.2333 153.09C59.3055 153.867 57.0727 150.67 56.4495 150.354C55.7257 149.488 53.5348 148.256 55.5609 147.518C56.1114 147.297 56.0583 147.244 56.212 147.403C55.7313 147.423 55.8375 147.364 56.0583 147.244C57.7071 148.954 59.1546 150.452 60.6525 152.005C59.8868 152.671 59.4005 151.313 58.755 151.125C58.9618 151.776 59.9315 152.391 60.2305 153.092L60.2333 153.09ZM57.8831 153.087C54.6051 149.859 55.5469 151.31 57.5086 153.347C56.1198 153.724 52.9759 149.664 52.2549 149.178C52.7999 148.999 53.5879 148.174 54.1161 148.677C55.6754 150.27 57.1649 151.625 58.7103 153.185C58.3722 153.378 58.129 153.327 57.8859 153.09L57.8831 153.087ZM50.1674 146.836C50.5112 146.705 52.3723 145.813 51.9783 146.73C51.7827 146.878 51.1679 146.797 51.0812 147.208C51.4222 147.649 52.227 146.797 52.7077 147.188C52.8614 147.495 53.7891 147.996 53.2722 148.202C52.7747 148.286 52.2829 148.971 51.8022 148.7C51.1232 148.052 50.4525 147.291 50.1702 146.836H50.1674ZM53.3923 144.117C52.7607 144.525 50.718 145.626 50.8717 144.153C51.7883 143.913 52.9508 142.656 53.3923 144.117ZM53.5488 143.399C53.3141 143.435 53.2861 142.818 53.574 143.231C53.5823 143.273 53.5963 143.315 53.5488 143.399ZM53.7808 144.704C53.6522 144.927 53.3169 145.022 52.9172 144.944C53.0737 144.858 53.7528 144.134 53.7808 144.704ZM60.6748 138.19C59.7582 138.939 52.5456 144.008 53.9149 141.384C56.5222 140.082 58.5398 138.57 60.7475 136.827C60.7335 137.268 61.1108 137.805 60.6748 138.188V138.19ZM60.8844 139.423C60.496 139.571 59.2664 140.853 59.2971 139.805C59.7527 139.434 61.5775 137.816 60.8844 139.423ZM60.9655 140.652C60.619 140.784 60.0097 141.502 59.8449 140.649C60.1355 140.306 60.6357 140.091 61.1136 139.769C61.1192 140.079 61.3344 140.403 60.9627 140.652H60.9655ZM61.4098 142.849C60.823 141.91 59.8365 141.496 61.2701 140.96C61.5104 142.781 61.5356 142.709 61.4098 142.849ZM61.4657 138.112C62.1615 137.57 62.6645 136.243 63.1424 137.785C63.1592 137.894 61.3427 139.632 61.4657 138.112ZM67.3398 140.814C65.0371 141.147 66.1046 141.502 64.7996 139.635C63.3408 137.162 63.6566 138.473 64.6654 136.813C64.3161 136.997 63.9808 137.469 63.5532 137.511C63.4191 137.254 62.9664 136.774 63.1871 136.38C63.5784 136.092 64.2854 134.804 64.5145 135.279C65.1852 137.265 66.7697 139.015 67.3398 140.814ZM68.0803 141.823C67.3565 141.834 66.3058 142.488 65.9285 141.418C66.6747 141.474 67.9797 140.733 68.0803 141.823ZM68.8852 142.862C67.9769 143.064 66.8982 143.648 66.7976 142.502C68.4129 142.203 68.3318 141.988 68.8852 142.862ZM69.9247 140.845C70.0309 141.015 70.1287 141.191 70.2433 141.39C69.6313 141.499 68.6476 142.094 68.329 141.172C68.8432 141.116 69.4608 140.588 69.9247 140.845ZM68.7678 133.8C69.7738 134.591 68.072 134.136 68.1362 134.689C68.438 134.806 68.8572 134.594 69.2708 134.734C69.4804 135.083 69.8325 135.502 69.6453 136.025C70.6513 137.081 71.104 138.92 71.9983 140.211C72.5125 141.225 73.1999 142.03 73.6498 143.039C72.8925 143.312 71.9675 143.69 71.5902 142.631C71.7356 142.544 72.518 142.357 72.1631 142.136C71.607 142.189 71.3555 142.373 71.2326 142.102C69.5195 139.364 68.1278 136.894 66.7921 134.086C67.4851 133.985 68.1278 133.89 68.7678 133.8ZM68.5079 132.864C68.5694 133.007 68.6281 133.152 68.7063 133.337C67.8037 133.373 66.5573 134.306 66.1493 132.982C66.8368 132.999 67.9071 132.451 68.5079 132.864ZM69.2037 131.319C69.05 131.378 68.7929 131.445 68.4883 131.431C67.8093 131.163 69.595 130.562 69.2037 131.319ZM69.4357 132.043C69.3127 132.074 69.1283 132.116 68.8516 132.174C68.0971 131.981 69.6369 131.498 69.4357 132.043ZM69.8437 132.811C70.1595 133.932 67.8232 132.512 69.6313 132.518C69.7263 132.535 69.757 132.605 69.8437 132.811ZM69.9387 131.219C69.4021 131.151 69.9415 130.436 70.2098 131.012C70.2181 131.082 70.1706 131.179 69.9387 131.219ZM70.4333 131.853C69.9583 132.143 69.6984 131.548 70.3998 131.646C70.3942 131.671 70.5283 131.68 70.4333 131.853ZM70.7631 132.445C71.1152 132.772 70.587 133.457 70.2629 132.691C70.0784 132.389 70.601 132.163 70.7631 132.445ZM71.4869 131.646C71.3304 131.839 70.4669 131.632 71.2745 131.425C71.3471 131.462 71.6014 131.358 71.4869 131.646ZM71.8977 132.417C72.3001 133.13 70.8106 132.845 71.3304 132.155C71.593 132.068 71.7775 132.102 71.8977 132.417ZM72.3112 130.607C72.2749 130.811 71.4338 130.936 71.6881 130.428C71.8082 130.322 72.3727 130.179 72.3112 130.607ZM72.5795 131.383C72.4705 131.462 71.6825 131.671 72.1352 131.205C72.2721 131.157 72.6969 131.045 72.5795 131.383ZM72.6717 132.641C71.7384 132.384 72.7612 131.054 73.1189 132.51C72.926 132.568 72.8003 132.61 72.6717 132.641ZM73.4179 133.242C73.4905 133.8 72.0486 133.298 73.063 132.985C73.1999 132.959 73.4011 132.982 73.4179 133.242ZM73.9712 132.241C73.7085 132.769 72.9149 131.663 73.6358 131.576C73.8259 131.654 73.9572 131.889 73.9712 132.241ZM74.1333 133.239C73.6778 133.256 73.7085 132.551 74.2674 132.817C74.396 132.968 74.4099 133.216 74.1333 133.239ZM74.8179 134.396C74.5525 134.661 73.8762 133.856 74.3736 133.619C74.6307 133.499 75.0974 134.147 74.8179 134.396ZM75.2623 135.757C74.966 135.843 74.354 134.605 75.1784 134.801C75.3377 135.016 75.8715 135.709 75.2623 135.757ZM75.8826 136.807C74.6978 136.327 75.8407 135.237 76.6903 137.598C76.3186 137.715 75.6451 138.014 75.8826 136.807ZM77.2072 139.585C76.5366 139.632 77.1262 139.09 76.9529 138.78C76.2711 138.864 76.0587 138.151 76.7573 137.819C76.9949 138.313 78.0819 139.445 77.2072 139.585ZM78.9622 142.088C78.4033 142.348 78.054 141.513 77.864 141.015C77.9562 140.904 78.4061 140.647 78.0819 140.524C77.4196 140.719 76.9138 140.035 77.8276 139.733C78.0484 140.317 79.4121 141.879 78.9622 142.091V142.088ZM79.0768 143.044C79.0013 142.91 78.9147 142.781 78.8113 142.617C79.8173 141.884 80.1499 143.684 79.0768 143.044ZM78.9259 144.698C77.9506 143.502 79.1914 143.581 79.6441 144.679C79.4848 144.782 79.0935 145.036 78.9259 144.698ZM79.4792 146.476C79.0544 146.738 78.7945 146.006 78.4871 145.648C78.9203 145.224 79.4149 146.028 79.4792 146.476ZM79.4932 147.043C79.8648 146.406 80.4042 147.641 80.7339 147.959C80.1862 148.499 79.9263 147.451 79.4932 147.043ZM78.5514 147.297C79.1886 146.85 79.2249 147.565 79.6553 147.993C79.9599 148.205 79.7195 148.647 79.3674 148.303C79.1634 148.057 78.8476 147.663 78.5514 147.297ZM77.7745 147.459C78.0708 147.236 79.6329 148.912 78.4871 148.756C78.2971 148.588 77.2687 147.624 77.7745 147.459ZM76.598 146.325C76.8244 145.643 77.4587 146.607 77.7382 146.998C77.2464 147.4 76.9194 146.808 76.598 146.325ZM76.6148 147.356C76.2878 147.47 75.9777 146.786 75.7848 146.456C76.0783 146.23 76.6875 146.976 76.6148 147.356ZM74.7034 146.783C75.2734 146.258 75.6088 147.012 75.9805 147.565C75.4579 148.01 74.8375 147.364 74.7034 146.783ZM74.4267 147.97C74.3289 147.769 73.2306 146.833 74.1305 146.97C74.2646 147.199 75.4104 148.222 74.4267 147.97ZM74.0075 148.666C74.0718 147.982 75.0107 149.326 75.1672 149.608C74.7732 149.804 74.3764 148.962 74.0075 148.666ZM72.0206 147.596C71.8949 146.545 74.0327 149.463 74.2674 149.619C74.5022 150.759 72.2162 147.739 72.0206 147.596ZM71.0677 147.97C70.6233 147.61 71.0565 147.468 71.5875 147.504C72.233 148.286 72.9512 149.141 73.4849 150.016C72.8394 150.34 71.5763 148.309 71.0677 147.97ZM69.2596 143.413C70.2293 144.992 71.3583 145.213 69.05 145.475C68.4073 145.109 68.0636 144.31 67.5466 143.662C68.0412 143.639 68.7734 143.142 69.2624 143.413H69.2596ZM69.6844 142.675C69.3183 142.754 69.1954 142.558 68.983 142.164C69.3826 142.091 70.1287 141.572 70.506 141.815C71.2521 142.591 70.2684 142.477 69.6872 142.675H69.6844ZM70.2992 143.804C70.0449 143.849 69.8437 143.469 69.6816 143.134C70.4724 142.994 71.1292 142.368 71.5511 143.452C71.1459 143.656 70.7072 143.684 70.2964 143.804H70.2992ZM72.4761 144.791C71.2633 145.19 70.9335 145.226 70.3551 144.092C71.6741 143.908 71.8082 143.597 72.4761 144.791ZM74.1528 143.662C74.3205 143.815 74.9465 144.872 74.1864 144.232C73.9293 144.651 72.9428 145.039 72.5823 144.156C71.9787 143.687 73.8929 143.379 74.1528 143.662ZM70.5535 136.069C71.4338 135.519 71.5176 136.986 72.0933 137.38C72.2777 137.327 72.0681 137.073 72.1855 136.939C72.5851 136.572 73.3117 137.319 72.7723 137.506C72.5711 137.659 72.043 137.548 71.9535 137.964C72.1575 138.207 72.7584 137.838 73.1775 137.877C73.2837 137.97 73.756 138.383 73.3424 138.596C73.2782 138.693 72.7863 138.802 73.0853 139.023C73.9516 138.85 74.0662 139.082 73.9628 139.867C74.6279 139.94 74.667 140.68 75.0527 141.186C75.3265 141.775 76.436 142.944 75.3517 142.754C74.871 142.203 74.463 141.482 73.9069 140.851C72.7779 139.945 75.2064 142.874 74.6 142.902C73.9237 143.528 70.2293 136.142 70.5563 136.072L70.5535 136.069ZM70.9447 133.923C70.179 133.7 71.2186 132.912 71.2968 133.868C71.1627 133.89 71.0565 133.921 70.9447 133.923ZM71.9004 135.159C71.4589 135.698 71.1375 135.027 71.0341 134.463C71.431 133.935 71.7495 134.737 71.9004 135.159ZM72.1547 133.697C71.9983 133.787 71.6853 133.747 71.6433 133.407C71.7216 132.985 72.7751 133.395 72.1547 133.697ZM71.92 136.6C71.8529 136.349 71.3276 135.765 71.9535 135.703C72.2581 135.653 72.845 136.62 71.92 136.6ZM72.5963 135.077C72.2386 135.186 72.1939 134.594 71.9955 134.248C72.627 133.753 73.2642 134.943 72.5963 135.077ZM73.2223 135.547C73.2921 135.695 73.3843 135.899 73.4821 136.19C72.8394 136.732 72.2525 134.996 73.2223 135.547ZM73.9153 134.664C73.756 134.703 73.376 134.96 73.2614 134.53C73.2446 134.329 72.8366 133.951 73.3033 133.909C73.6722 133.703 74.0941 134.259 73.9153 134.664ZM73.6638 135.466C73.7309 134.723 74.5133 135.195 74.6391 135.893C73.8762 136.187 73.988 136.173 73.6638 135.466ZM74.7397 136.98C74.3261 137.215 73.8929 136.444 74.6167 136.371C74.8235 136.265 75.3154 136.944 74.7397 136.98ZM75.4858 137.917C75.2511 138.238 74.1864 137.718 74.871 137.372C75.1645 137.184 75.6507 137.509 75.4858 137.917ZM75.7709 139.045C74.5888 139.191 75.6088 137.416 76.0922 138.936C75.9805 138.976 75.8771 139.015 75.7709 139.045ZM76.028 139.94C75.5026 139.744 75.7681 139.272 76.3633 139.431C76.6763 139.68 76.4108 139.912 76.028 139.94ZM76.8495 140.792C75.5752 141.027 76.6875 139.437 77.0675 140.708C76.9725 140.744 76.9138 140.772 76.8495 140.792ZM77.5594 142.41C77.1653 142.329 76.2767 140.697 77.4308 141.261C77.5258 141.521 78.4368 142.393 77.5594 142.41ZM78.1099 143.444C77.9841 143.284 77.8751 143.111 77.7131 142.876C78.4536 142.281 79.1662 143.787 78.1099 143.444ZM78.0791 145.07C77.9338 144.86 77.7745 144.62 77.5482 144.288C78.1378 143.673 79.046 145.573 78.0791 145.07ZM77.5985 145.892C78.0987 145.542 78.3111 146.252 78.6185 146.64C78.4257 147.16 77.5985 146.403 77.5985 145.892ZM76.5254 144.567C77.0535 144.031 77.4308 144.849 77.6823 145.372C77.1234 145.735 76.8635 145.036 76.5254 144.567ZM76.0224 143.164C76.2878 143.064 77.1178 144.081 76.3158 144.056C76.0531 143.991 75.374 143.164 76.0224 143.164ZM77.0619 142.966C77.2995 142.893 78.0568 143.927 77.2603 143.773C77.1318 143.65 76.4751 143.044 77.0619 142.966ZM75.891 141.468C76.3745 141.214 76.6148 142.063 76.9278 142.471C76.3745 142.862 75.8491 141.91 75.891 141.468ZM75.3573 140.655C75.5054 140.406 76.0978 140.753 75.8854 141.069C75.6814 141.314 75.3601 141.024 75.3573 140.655ZM74.899 139.764C75.0387 139.484 75.7429 140.043 75.2371 140.23C75.0191 140.303 74.8207 139.982 74.899 139.764ZM74.382 138.735C74.5664 138.542 75.0694 139.012 74.8347 139.263C74.6167 139.459 74.2339 139.065 74.382 138.735ZM73.3145 137.014C72.9875 136.394 74.3149 136.709 73.7392 137.215C73.4961 137.299 73.4514 137.271 73.3145 137.014ZM73.8678 137.651C74.041 137.467 74.6726 138.056 74.2898 138.288C74.0243 138.456 73.5883 137.917 73.8678 137.651ZM75.5445 144.88C75.6479 143.924 77.4112 146.026 76.1984 145.752C75.9218 145.539 75.81 145.21 75.5445 144.88ZM74.667 143.419C75.17 143.145 75.388 143.684 75.6786 144.12C75.2846 144.606 74.6475 143.938 74.667 143.419ZM74.7537 145.039C74.7704 144.48 75.6311 145.662 75.6758 145.933C75.3545 146.294 75.0219 145.321 74.7537 145.039ZM73.3508 145.221C74.2451 144.567 74.8095 145.408 74.9521 146.21C74.0215 146.724 73.9516 145.855 73.3508 145.221ZM71.9871 147.02C70.1902 147.73 70.2573 147.065 69.3239 145.878C71.213 145.252 71.0816 145.973 71.9871 147.02ZM73.9907 148.068C73.9572 148.842 73.0574 147.582 72.7835 147.272C73.348 146.853 73.6386 147.576 73.9907 148.068ZM73.6973 146.543C73.3005 147.018 72.6522 145.581 73.0546 146.749C72.4146 147.199 71.8893 146.193 71.5204 145.66C71.4282 145.321 72.5655 145.238 72.8729 145.33C73.1077 145.696 73.5911 146.065 73.6973 146.54V146.543ZM69.4357 133.876C69.349 133.518 70.5367 133.479 70.1958 134.052C69.9527 134.15 69.5391 134.317 69.4357 133.876ZM69.8884 134.594C70.6904 134.317 70.6569 134.731 70.9224 135.477C70.369 136.069 69.7151 135.147 69.8884 134.594ZM69.4944 149.44C69.1311 149.597 68.8078 149.501 68.5247 149.153C68.901 149.015 69.2242 149.111 69.4944 149.44ZM66.2499 149.63C66.2779 149.37 66.8759 149.678 66.7445 149.946C66.5741 150.035 66.3505 149.893 66.2499 149.63ZM66.1828 150.511C66.507 150.466 66.6551 150.854 66.9318 151.162C66.4399 151.665 65.1908 150.474 66.1828 150.511ZM64.9281 149.776C65.2551 149.625 65.8866 149.477 66.0068 150.063C65.596 150.131 65.1852 150.36 64.9281 149.776ZM64.7968 150.709C65.1125 150.547 65.3641 150.988 65.6659 151.276C65.691 151.709 64.7856 151.072 64.7968 150.709ZM64.5313 149.368C63.9388 148.697 63.0614 147.962 62.5975 147.085C62.5528 146.336 62.1308 145.408 62.3767 144.785C63.2514 145.827 64.2546 147.02 65.1545 148.093C65.0455 148.214 64.8499 148.208 65.0175 148.507C65.5345 149.32 65.5178 149.22 64.5313 149.368ZM63.4526 151.008C64.0031 150.631 64.3748 150.812 64.7409 151.368C64.6682 151.992 63.8159 151.296 63.4526 151.008ZM63.4582 149.588C62.9021 149.108 63.5392 150.038 63.7768 150.307C63.7125 150.477 63.4274 150.538 63.3296 150.779C62.6869 150.203 62.9412 148.988 62.7707 148.194C63.5057 148.717 65.8447 151.595 63.4582 149.591V149.588ZM55.6251 145.998C55.3904 145.313 57.0308 145.576 57.0336 145.539C58.85 145.461 56.8547 146.221 56.3629 146.573C56.0667 146.705 55.8878 146.252 55.6251 145.998ZM54.6359 146.191C55.1696 145.841 55.3736 146.442 55.79 146.872C55.3764 147.124 55.0411 147.345 54.6303 147.476C54.6638 147.129 54.2418 146.523 54.6331 146.191H54.6359ZM54.4878 145.467C54.8902 145.503 54.3928 146.048 54.3536 145.584C54.3592 145.545 54.362 145.506 54.4878 145.467ZM56.089 142.527C55.8208 142.611 55.7649 142.441 55.4938 142.047C55.9912 141.896 56.6619 141.127 57.2096 141.267C57.8188 141.826 56.511 142.15 56.089 142.527ZM57.5673 142.114C58.8472 142.03 56.3098 143.846 56.2958 142.971C56.592 142.645 57.123 142.435 57.5673 142.114ZM57.9725 141.306C56.9246 141.147 58.266 140.359 58.7746 140.174C59.6465 140.535 58.3554 141.024 57.9725 141.306ZM59.6017 141.468C59.2943 141.608 58.1989 142.605 58.2101 141.731C58.4895 141.465 59.803 140.434 59.6017 141.468ZM59.3447 143.265C59.0624 143.111 58.9618 142.815 58.7243 142.611C59.6968 141.862 59.9343 141.432 60.619 142.468C60.183 142.826 59.7638 143.041 59.3447 143.265ZM61.8038 140.113C61.6138 140.373 61.4098 139.593 61.7172 139.713C61.8038 139.825 61.9547 139.898 61.8038 140.113ZM58.8137 145.688C59.3838 145.729 60.4373 145.391 60.9431 145.992C61.3902 146.626 62.033 147.048 62.3516 147.806C62.3208 148.362 62.9216 149.703 62.5584 149.999C61.0549 148.412 58.4364 146.028 58.8165 145.688H58.8137ZM60.3563 145.391C60.1411 145.411 59.9231 145.355 59.5654 145.28C59.7666 144.925 60.0852 144.698 60.3563 145.391ZM57.7993 144.634C58.6404 144.215 59.2832 143.338 59.6828 144.603C59.3782 145.112 57.7238 145.559 57.7993 144.634ZM56.933 144.533C56.4914 144.953 54.9517 145.347 54.77 144.813C55.4072 144.441 56.4104 143.393 56.933 144.533ZM56.8184 143.712C57.4807 143.12 58.8612 142.309 58.7354 143.648C57.7993 144.058 57.4332 144.746 56.8184 143.712ZM62.019 140.339C62.7624 140.929 63.338 142.139 64.0422 142.904C64.1904 143.265 65.1209 143.793 64.3776 143.941C63.5756 144.005 62.631 144.732 62.1476 143.74C61.8988 142.74 61.4126 140.507 62.019 140.339ZM64.3496 142.267C63.3911 141.742 62.6478 140.149 61.9994 139.272C61.9659 138.978 62.3767 138.956 62.6394 138.677C63.9109 138.302 62.3124 136.774 65.8028 142.102C65.2579 142.239 64.8051 142.259 64.3496 142.267ZM65.2159 143.65C63.8606 142.301 64.9812 142.742 66.0543 142.569C67.2867 143.419 66.2164 143.684 65.2159 143.65ZM66.7781 146.713C66.1801 146.724 65.3752 146.967 64.7269 146.847C64.1624 146.182 63.447 145.481 62.9943 144.701C63.5308 144.497 64.6431 144.156 65.2523 144.433C65.6267 145.059 67.4041 146.621 66.7753 146.713H66.7781ZM66.0068 149.055C65.9202 149.192 65.4423 148.935 65.6491 148.705C65.7413 148.719 65.9649 148.887 66.0068 149.055ZM65.1852 147.347C66.4707 147.339 67.3062 146.389 67.8009 147.563C65.6463 148.228 65.9258 148.398 65.1852 147.347ZM61.4126 142.857L61.4322 142.849L61.421 142.868L61.4126 142.857ZM61.6865 143.916C61.8625 144.673 61.9855 145.682 62.1448 146.548C62.1336 146.531 60.0936 144.883 60.591 144.411C60.7279 144.262 61.1974 143.919 60.9291 143.807C60.7475 143.902 60.3619 144.447 60.0517 144.218C59.9455 143.986 59.3447 143.695 59.7499 143.463C61.027 142.264 60.918 143.002 61.6865 143.919V143.916ZM54.2167 144.293C54.281 144.109 55.8375 142.966 56.0108 143.396C56.1337 143.623 55.6419 143.773 55.3149 143.975C54.9377 144.067 54.5744 144.668 54.2167 144.293ZM54.1273 146.459C54.6471 148.163 53.9708 148.161 53.0178 146.872C53.4175 146.705 53.7416 146.557 54.1273 146.459ZM54.5995 142.485C54.8706 142.111 55.6615 142.544 55.4379 142.899C55.0718 143.083 53.9875 144.237 53.9708 143.145C53.8814 142.726 54.0239 142.798 54.5995 142.482V142.485ZM51.8274 145.581C51.7547 145.428 52.0509 145.341 52.2969 145.5C52.1404 145.548 52.0146 145.738 51.8274 145.581ZM53.2833 145.534C55.1892 145.098 52.853 147.322 52.2605 146.02C52.6322 145.844 52.962 145.696 53.2833 145.534ZM62.114 151.832C61.2673 152.372 60.7307 151.287 60.0964 150.77C58.8277 149.468 57.6651 148.401 56.5585 146.984C57.1845 146.83 57.9865 145.615 58.551 146.406C60.2082 148.244 61.7144 149.963 63.5923 151.584C62.3544 152.486 60.9571 149.664 60.169 149.083C60.1858 149.935 61.5244 150.986 62.114 151.832ZM67.7953 148.538C67.3063 148.124 67.6276 148.395 67.6025 148.814C67.3733 148.828 66.8955 149.044 66.5797 148.926C66.3868 148.851 66.0795 148.443 66.507 148.404C67.3677 148.286 68.1921 147.417 68.7147 148.568C68.2564 148.784 68.234 148.784 67.7981 148.541L67.7953 148.538ZM67.8763 151.014C67.636 151.335 67.1274 150.865 66.9737 150.424C67.2699 150.262 67.7226 150.647 67.8763 151.014ZM67.5019 149.823C65.9649 149.002 69.3183 149.141 68.1223 149.787C67.9183 149.84 67.7645 149.834 67.5019 149.823ZM71.1347 149.767C71.6238 150.178 71.7467 150.801 70.9643 150.326C70.5842 150.055 70.302 149.379 71.1347 149.767ZM71.09 149.22C70.6457 149.329 69.5195 149.566 69.7822 148.605C68.5386 148.278 67.7841 146.462 66.8256 145.612C65.9537 144.469 64.9141 144.05 66.9961 143.824C67.513 144.29 67.8987 145.006 68.4157 145.612C68.0887 145.721 67.351 146.037 68.2843 145.978C68.7985 145.752 70.0477 147.342 69.8996 147.713C70.2377 147.652 72.001 149.275 71.0928 149.22H71.09ZM76.9837 149.253C76.4527 149.362 76.1034 148.513 75.6367 148.099C76.1341 147.979 76.2487 147.828 76.6036 148.404C76.7014 148.691 77.2855 148.962 76.9837 149.25V149.253ZM71.2326 130.785C71.3387 131.314 69.9946 130.889 70.8972 130.607C71.1459 130.576 71.1934 130.676 71.2326 130.785ZM49.8572 146.45C49.3822 146.397 51.3188 145.495 51.3635 145.816C51.1455 146.132 50.3211 146.286 49.8572 146.45ZM49.2397 144.894C49.6365 144.707 50.3239 144.114 50.4776 144.835C50.2345 145.048 49.7455 144.877 49.2397 144.894ZM48.9965 145.584C48.9658 145.168 50.1926 145.456 50.6481 145.391C50.0864 145.679 49.3654 146.311 48.9965 145.584ZM15.1409 129.729C15.1604 129.743 15.1828 129.64 15.2666 129.729C15.1576 129.788 15.1912 129.782 15.1409 129.729ZM50.1898 42.728C50.187 42.932 50.1758 42.9487 49.9467 43.2645C49.9467 43.013 50.1032 42.8845 50.1898 42.728ZM49.6113 42.1412C49.371 41.94 49.8992 41.5376 50.1563 41.7192C50.2904 41.9484 49.8964 42.2558 49.6113 42.1412ZM49.4101 43.1583C48.6863 43.7982 48.6444 42.443 49.7091 42.6414C49.589 42.8509 49.494 43.0018 49.4101 43.1583ZM49.5331 43.9743C49.4073 43.8234 49.8209 43.8485 49.5331 43.9743V43.9743ZM49.452 44.0972C49.4912 44.0693 49.5135 44.0553 49.452 44.0972C49.357 44.0749 49.5582 43.8597 49.452 44.0972ZM49.4492 56.0206C49.7203 56.6297 49.2592 57.0517 48.7646 56.7387C48.5522 56.2497 48.7925 55.593 49.4492 56.0206ZM48.9518 58.1722C48.8652 58.0409 48.7702 57.3954 48.9295 57.2752C50.2066 57.0601 49.7622 58.5662 48.9518 58.1722ZM49.2816 44.3068C49.2816 44.2761 49.4129 44.2202 49.3514 44.3571C49.3291 44.3403 49.3039 44.3236 49.2816 44.3068ZM48.5969 55.3164C48.3985 54.6374 48.8009 54.3272 49.262 54.5787C49.5471 55.0817 49.3486 55.9619 48.5969 55.3164ZM48.4516 53.8326C48.4795 52.7428 50.1814 54.1484 48.6276 54.1009C48.5215 54.0813 48.474 54.0226 48.4516 53.8326ZM48.4264 52.9245C48.0855 52.1085 49.1949 51.477 49.1335 52.7345C49.2564 52.9133 48.731 53.2654 48.4264 52.9245ZM48.3538 51.5469C48.4041 51.4211 48.1582 50.9684 48.4767 50.8287C48.5634 50.8343 48.9853 50.6303 49.0301 50.9405C49.1307 51.2926 49.0915 51.9884 48.3538 51.5469ZM48.8317 49.3645C48.7897 49.1298 48.4292 49.3533 48.3063 49.113C48.1749 48.6687 48.5801 48.7777 48.7171 48.3725C48.3594 48.1769 47.9346 47.5119 48.7981 47.551C48.935 47.6181 49.0552 47.4197 49.0133 47.7913C48.9881 48.6492 49.0664 49.4567 48.9798 50.3202C48.6137 50.6499 47.9793 50.1888 48.432 49.6998C48.569 49.6104 48.8121 49.6579 48.8317 49.3645ZM48.3678 45.9051C48.3929 45.6928 49.1446 45.6313 48.9462 46.0532C48.8344 46.0979 48.4795 46.1874 48.3678 45.9051ZM48.6947 46.545C49.0301 46.45 49.0915 47.0033 48.8847 47.1318C48.2923 47.3666 48.0492 46.5367 48.6947 46.545ZM48.242 44.4102C47.9402 44.1727 48.9406 43.3092 48.9239 43.9715C48.8736 44.209 48.5019 44.4353 48.6444 44.7259C49.5275 44.8964 48.6165 45.757 48.365 45.1088C48.3147 44.8964 48.4795 44.6421 48.2448 44.4102H48.242ZM47.8089 43.2673C47.8144 43.0186 48.2895 42.1831 48.5746 42.7084C48.4237 42.9543 48.3007 43.435 47.8089 43.2673ZM47.8843 45.2429C46.311 45.9051 47.0264 43.3707 47.9318 43.7759C46.9202 45.2429 48.2867 44.2341 47.8843 45.2429ZM47.25 45.7515C47.5378 45.6369 48.4684 45.9946 47.44 46.0924C47.3338 46.1566 46.7246 45.894 47.25 45.7515ZM47.8955 46.9279C47.8619 47.1235 47.7166 47.1514 47.4204 47.1346V47.1402C46.2858 47.0396 47.8536 45.9526 47.8955 46.9279ZM47.5518 48.3502C46.9733 48.6156 46.7413 47.4197 47.5322 47.5594C47.9653 47.3889 48.0883 48.3697 47.5518 48.3502ZM47.8843 51.6419C47.1214 52.1001 46.9621 51.3652 47.1913 50.8623C47.7921 50.6946 47.9626 50.9237 47.8843 51.6419ZM47.0851 49.8898C47.3869 49.5405 48.0548 49.6691 47.8116 50.4068C47.3953 50.4962 46.9621 50.6387 47.0851 49.8898ZM47.0683 49.0991C47.0124 48.7162 47.4987 48.6883 47.8256 48.8504C48.1833 49.3002 47.032 49.6495 47.0683 49.0991ZM45.6347 45.0836C45.5704 44.7231 46.4116 43.435 46.909 43.7591C46.2635 45.0165 46.8168 45.7095 45.6347 45.0836ZM45.6878 45.9387C45.5704 45.5363 47.0152 45.6956 46.3697 46.1147C46.2272 46.07 45.7437 46.2908 45.6878 45.9387ZM46.3222 47.2129C45.6571 47.5203 45.5341 46.9307 45.78 46.5702C46.2803 46.3522 47.0096 46.8468 46.3222 47.2129ZM45.2966 44.3934C44.9724 44.4661 45.5565 45.6509 44.4834 45.1171C44.3939 44.5527 45.0339 43.3735 45.8192 43.7563C45.6934 44.0134 45.6375 44.3096 45.2966 44.3934ZM45.0087 46.1762C44.6846 46.3411 44.1005 45.7067 44.8411 45.6732C45.0982 45.581 45.4084 46.0337 45.0087 46.1762ZM44.3995 44.0553C43.849 44.5946 44.2375 45.7319 43.3236 45.0249C43.2566 44.6225 43.5416 43.9715 43.9776 43.692C44.2319 43.6278 44.7013 43.6082 44.3995 44.0525V44.0553ZM45.6655 42.7531C45.7158 42.3256 46.7777 42.0993 46.4339 42.7448C46.3445 43.3344 45.0954 43.4992 45.6655 42.7531ZM46.9481 42.7168C47.4819 42.0685 47.8731 42.714 47.1577 43.2477C46.6743 43.3958 46.6603 43.0801 46.9481 42.7168ZM48.5662 41.8925C48.6193 41.7919 48.7227 41.6606 48.9323 41.6773C49.5023 41.7695 48.46 42.51 48.5662 41.8925ZM48.9826 41.233C48.9658 41.0766 49.6588 40.3025 49.6812 40.8893C49.6253 41.1464 49.1558 41.6717 48.9826 41.233ZM49.5974 40.2019C49.6588 40.093 49.7566 39.9281 49.9047 39.6878C49.9662 39.4056 50.4329 39.5425 50.2988 39.8834C50.2121 40.1656 49.6281 40.6071 49.5974 40.2019ZM50.7152 40.7887C50.8661 41.0039 50.3435 41.5069 50.0529 41.1967C50.1004 40.9536 50.3407 40.6043 50.7152 40.7887ZM50.9136 39.7381C51.0505 39.6263 51.2126 39.7045 51.4725 39.7017C51.3272 40.4059 50.1786 40.6099 50.9136 39.7381ZM52.0873 41.6801C51.9606 42.0527 51.6821 42.2092 51.2517 42.1496C51.397 41.6941 51.5144 41.5432 52.0873 41.6801ZM51.8302 40.0063C51.7547 40.1572 51.7771 40.1041 51.8302 40.0063C51.8469 40.35 51.8609 40.0203 51.8302 40.0063ZM52.0006 39.8163C51.9559 39.8107 51.8106 40.051 51.9028 39.861C52.0202 39.7995 52.0062 40.0706 52.0006 39.8163ZM52.6015 40.7831C52.8697 41.0235 51.9336 41.5181 51.8665 41.043C51.9559 40.7356 52.2046 40.6853 52.6015 40.7831ZM52.7691 39.7157C53.3728 39.5704 53.4761 40.0622 52.8418 40.364C52.1571 40.4786 52.3919 39.875 52.7691 39.7157ZM53.2274 41.5209C53.2777 41.859 52.9424 42.348 52.5009 42.1803C52.6462 41.6857 52.6462 41.6829 53.2274 41.5209ZM53.3588 42.6777C53.4789 42.8314 53.1576 43.6194 52.7412 43.3819C52.8641 43.2198 52.9787 42.6693 53.3588 42.6777ZM52.5372 42.7951C52.3667 43.0186 52.227 43.6222 51.7156 43.3763C51.7044 43.1136 52.2689 42.2697 52.5372 42.7951ZM51.397 40.8139C51.4417 40.9312 51.4082 40.9955 51.2182 41.1744C51.1148 41.057 51.2797 40.9117 51.397 40.8139ZM50.7822 41.9512C50.7459 42.021 50.7235 42.1216 50.6201 42.0378C50.6593 41.9763 50.6704 41.8506 50.7822 41.9512ZM50.7822 41.9456C50.8353 41.8953 50.8605 41.6829 50.8605 41.8478C50.771 41.9428 50.6956 41.7891 50.785 41.9456H50.7822ZM51.3467 43.0214C50.3631 44.2649 50.3323 42.2921 51.5256 42.6833C51.4501 42.823 51.3942 42.9208 51.3467 43.0214ZM50.2764 42.7531C50.2876 42.7755 50.1032 42.7196 50.3072 42.6693C50.2988 42.6973 50.296 42.7392 50.2764 42.7531ZM43.2119 43.896C42.6586 44.3208 43.2594 45.4329 42.136 45.173C41.4821 45.0249 43.1783 42.9348 43.2119 43.896ZM41.8062 44.318C41.5128 44.494 41.7755 45.282 41.1998 45.187V45.1954C40.2329 45.1926 41.4737 44.2677 41.633 43.8373C42.0605 43.4741 42.2897 43.8094 41.8062 44.318ZM40.7499 44.3599C40.2441 44.5331 40.5738 44.9746 40.2301 45.2149C39.987 45.2624 39.6293 45.3742 39.6572 44.8908C40.0065 44.5778 40.3084 44.2537 40.6297 43.7619C41.3479 43.4601 41.088 44.1084 40.7499 44.3627V44.3599ZM53.5376 42.0853C53.6829 41.7723 54.6303 40.3305 54.8706 40.146C54.6862 40.5345 53.8143 42.6358 53.5376 42.0853ZM44.4275 156.158C44.0586 155.803 43.6646 155.535 43.2342 155.026C45.5062 154.638 45.2994 156.585 46.6044 156.163C46.2188 155.767 45.7521 155.482 45.3469 155.012C47.4176 154.456 47.5434 156.613 48.6696 156.2C48.3035 155.716 47.739 155.429 47.3813 154.9C48.1218 154.646 48.7031 156.267 49.4297 155.99C49.6784 155.633 47.5937 154.481 49.1418 154.962C49.4269 155.211 51.1902 156.901 50.9639 155.965C50.6816 155.621 49.9215 155.239 49.7455 154.761C50.0333 154.375 52.1907 157.133 51.8134 155.747C49.5219 153.744 51.316 154.666 52.4897 155.781C52.8111 156.018 53.0234 156.328 53.4957 156.054C50.609 153.336 46.4284 151.192 47.0795 149.032C47.1214 148.803 46.9286 147.951 47.3925 148.373C56.5166 157.653 56.5278 155.915 55.8347 155.395C53.0933 153.14 50.5279 150.941 48.0436 148.401C46.0427 146.769 47.834 147.001 49.1055 146.612C49.1223 146.582 49.1139 146.54 49.2145 146.585C49.1866 146.604 49.1586 146.626 49.1335 146.646C49.1363 146.652 49.1418 146.657 49.1446 146.66C49.0999 146.693 49.1307 146.953 49.2592 147.02C50.6677 147.602 51.5256 149.365 52.7608 150.337C53.1296 151.036 57.218 153.819 55.4742 153.523C54.6778 153.271 54.2698 152.447 53.5069 151.952C52.3024 151.368 54.7169 153.447 54.7169 153.76C55.0802 153.858 57.8775 156.801 57.3046 155.426C57.0643 155.001 54.8678 153.663 56.2735 153.822C57.1258 154.051 57.6065 154.889 58.3889 155.423C60.6525 156.183 56.3154 153.612 57.6596 153.791C58.5817 153.799 59.054 155.297 60.0461 155.49C60.4038 155.06 59.0149 154.3 58.7746 153.892C59.2524 152.97 60.8733 155.655 61.5104 155.417C62.2034 155.387 60.1495 154.017 60.0908 153.78C60.415 152.603 63.3268 156.557 62.6142 154.752C62.4354 154.425 60.8621 153.464 62.047 153.506C63.0418 153.604 63.5336 155.364 64.4894 155.088C64.2015 154.532 63.5169 154.121 63.0222 153.526C64.0395 153.028 64.4922 154.646 65.4311 154.884C66.0292 154.579 64.5508 153.766 64.3496 153.405C65.7106 152.517 66.5154 155.306 67.3118 154.557C67.1889 154.068 65.9425 153.651 66.0822 153.109C66.7026 152.897 67.5102 154.867 68.0412 154.166C67.8763 153.735 67.2839 153.52 67.01 153.003C67.9686 152.875 68.1139 154.168 69.0836 154.325C69.8018 154.241 68.2284 153.263 68.0216 152.897C68.8265 152.643 69.0025 153.587 69.7039 153.917C70.6988 154.241 69.3379 152.984 69.0361 152.743C70.0141 152.14 70.3914 153.939 71.3583 153.889C71.4338 153.813 71.5791 153.777 71.3052 153.54C71.1711 153.26 69.9918 152.64 70.4697 152.411C71.2018 152.235 71.5316 153.338 72.1743 153.595C72.8282 153.489 71.7104 152.626 71.4813 152.31C72.3224 151.447 73.5185 154.314 73.8231 153.148C73.8175 153.067 72.0821 151.704 73.0825 152.061C73.3843 152.24 74.0802 153.651 74.5664 153.126C74.5217 152.665 73.851 152.366 73.5716 151.88C73.8874 151.679 74.1528 151.684 74.4463 152.059C74.6978 152.358 75.8826 153.562 75.7206 152.687C75.6591 152.567 74.1389 151.335 75.0331 151.637C76.3801 153.062 76.9446 153.037 75.5669 151.368C76.0615 151.128 76.6288 152.182 77.0591 152.481C77.2296 152.654 77.3665 152.707 77.6572 152.399C77.4588 151.888 78.0372 152.961 78.3195 152.5C78.5319 152.106 76.7154 151.117 77.2883 150.891C77.7689 150.653 79.1746 153.137 79.1578 151.916C79.0628 151.718 77.5342 150.516 78.367 150.659C78.5849 150.854 80.2225 152.877 79.9431 151.695C78.9734 150.661 80.0102 151.164 80.5243 151.818C81.1839 151.902 80.6836 151.329 80.3762 150.988C80.9938 150.555 81.0497 151.268 81.631 151.262C81.8853 151.136 81.4074 150.835 81.5471 150.639C81.8853 150.586 82.0166 151.109 82.3995 151.329C82.623 151.357 82.9612 151.304 82.556 150.893C82.4945 150.756 82.0781 150.516 82.4358 150.36C82.7991 150.267 83.0981 151.38 83.5173 150.921C83.5648 150.639 83.2602 150.502 83.1372 150.22C83.576 149.977 83.8442 149.859 84.0315 150.005C84.3249 150.144 84.4199 150.594 84.8335 150.603C84.9732 150.547 85.18 150.466 84.8838 150.203C84.8028 150.027 84.2746 149.778 84.6491 149.574C87.0076 151.511 85.1856 149.08 84.2858 148.457C84.283 148.457 84.2802 148.462 84.2746 148.465C84.2746 148.392 84.2774 148.462 84.2047 148.289C84.3417 148.239 84.459 148.507 84.758 148.437C84.9313 148.306 84.9062 148.214 84.6742 147.934C70.2964 129.173 56.6395 82.072 53.0039 64.7193C49.1894 46.6373 50.785 45.391 49.969 44.2761C50.0165 44.0944 50.0892 43.9743 50.2736 43.8625C51.1818 43.6809 50.5028 44.1978 50.4161 44.6365C51.1036 45.0501 51.0477 43.5439 51.8162 43.9156C51.5591 44.1643 51.2489 45.1171 52.0342 44.4549C52.0984 44.3291 52.5847 43.4992 52.6797 44.0553C52.4925 44.3152 52.308 44.8852 52.9005 44.5639C53.0821 44.4241 53.1464 43.9435 53.4454 43.9212C53.7556 44.0777 53.0542 44.4633 53.4119 44.6337C53.9233 44.8014 53.8255 43.9882 54.3676 43.924C54.5604 43.8541 55.1836 44.1252 55.2395 43.6809C54.5213 43.2897 54.4878 43.3511 54.594 43.1611C55.2088 43.393 54.7924 43.5048 54.4878 43.3511C55.1808 42.4765 55.7453 40.3109 54.6694 42.1384C54.2977 42.5436 54.1748 43.5411 53.655 43.34C54.1608 42.116 55.4211 40.8251 55.2702 39.7856C55.1612 39.5788 55.0355 40.2019 54.8762 39.9449C55.0271 39.5229 55.5497 39.0619 55.3708 38.4359C54.5157 39.0842 54.0658 40.8642 53.2358 41.5013C52.839 40.4981 54.4766 39.4139 54.5884 38.4052C54.0127 38.0727 53.9903 39.1597 53.4873 39.2966C52.1935 39.5509 54.2726 37.796 52.758 38.5309C51.942 37.7653 52.1571 39.6235 51.1707 39.2323C51.288 39.0311 51.9867 37.9581 51.1232 38.4303C50.8968 38.6958 50.5531 39.685 50.1255 39.3385C50.6956 38.7237 50.6956 37.5781 49.8768 38.8411C48.949 40.0678 48.2224 42.4514 47.3813 41.9791C47.7418 41.4258 50.6872 36.4799 48.6249 38.9557C47.8452 39.984 47.5322 41.4342 46.5485 42.0713C45.3022 42.3312 48.1386 39.3497 48.2672 38.3158C47.5294 37.7876 46.3473 41.6298 44.6594 43.1946C44.3101 43.2086 44.2263 43.1052 44.5253 42.7056C44.9724 41.7388 48.0967 37.8491 46.9174 38.2599C45.7186 39.4475 43.9412 43.6809 43.2063 43.1192C43.427 42.3061 44.4415 41.4454 44.5337 40.5708C43.645 41.0682 42.8709 43.4601 42.1583 43.1108C42.3008 42.6665 42.7899 42.2194 42.8318 41.6522C42.0521 41.9176 41.9124 43.4713 40.9092 43.1863C41.0517 42.9376 41.8537 41.4398 41.0964 42.1971C40.613 42.8398 40.4229 43.4741 39.4504 43.2924C39.3023 43.2533 39.4979 42.8901 39.2129 42.9599C39.1067 43.4713 37.8799 43.502 38.0755 43.829C38.7658 43.8653 38.4416 43.9212 38.1957 44.4968C37.8324 46.1902 40.8086 52.5305 30.1642 87.1549C30.0692 87.915 29.3119 89.1556 29.6836 89.4434C30.276 88.267 30.6002 86.9677 31.0585 85.6571C43.0302 49.2136 36.2675 42.9096 40.001 43.815C39.8277 44.5918 39.2185 44.1447 39.2436 44.8768C39.2129 45.6592 39.1319 54.3608 39.6516 51.9912C39.9031 50.0463 39.1794 45.0473 40.1491 45.5782C40.8421 45.866 39.8948 49.5014 40.5962 49.5154C41.0042 48.4619 40.3139 44.5918 41.5575 45.7598C41.6358 45.9359 41.496 47.7522 41.9096 47.4588C42.2561 46.8859 41.4485 45.0948 42.8374 45.6844C42.7703 46.288 43.1923 47.66 43.2733 46.084C43.1727 45.6313 43.768 45.3798 44.0502 45.7934C44.1788 46.1091 44.0027 46.7881 44.4331 47.0229C44.4582 46.6736 44.6818 46.2433 45.1569 46.5478C45.5062 48.6715 45.0171 50.8483 45.7772 53.1089C46.2244 53.4358 45.6962 50.2978 45.7968 49.996C45.9505 49.0655 45.0982 47.3302 46.3948 47.5845C46.5597 47.6097 46.5709 47.6963 46.5932 47.9646C46.515 49.44 46.8727 58.3091 47.4931 57.1355C47.5098 56.2469 46.5485 50.8986 47.8871 52.279C48.2839 53.5253 46.638 53.0977 47.9793 53.637C48.0352 53.8131 48.0324 53.9695 47.929 54.14C47.8033 54.2266 47.1493 54.4697 47.7837 54.5452C48.4264 54.6597 48.0855 55.5539 47.8284 55.9172C48.5243 56.1547 48.6249 61.8719 49.2872 61.5338C49.3822 60.321 48.3314 58.2924 49.7231 58.5858C50.2401 59.5386 49.1083 59.2843 49.3403 59.7957C49.9187 59.7398 50.3295 60.1254 49.8097 60.7709C50.4776 61.2907 51.6877 70.2716 53.4622 75.0136C53.0793 70.4896 51.3411 65.9376 50.6537 61.3717C50.391 60.8045 51.1958 61.0392 51.2042 60.5558C51.0729 60.3071 50.7012 60.5837 50.5168 60.3518C50.4832 60.1701 50.3966 59.8795 50.609 59.6923C50.8046 59.5917 50.88 59.3794 50.5279 59.3123C49.9159 59.1754 50.6704 58.2756 50.3407 58.094C49.3347 54.1791 49.4604 49.018 49.4744 44.8517C53.4706 84.2376 72.451 126.147 73.0714 128.282C69.3295 126.01 74.4407 137.129 55.2646 81.108C54.8818 80.4737 54.9908 79.7304 54.4486 79.1967C54.2055 79.3085 54.2977 79.7416 54.4039 80.1216C60.1048 95.9766 64.2211 112.119 70.7994 127.58C50.8214 124.42 54.2866 128.491 53.7919 122.794C53.8311 122.657 53.6215 122.274 53.4035 122.685C53.0626 125.144 54.281 126.396 52.1208 126.007C51.7128 125.898 51.928 125.275 51.8246 124.733C49.6728 92.9392 51.112 124.381 51.2992 123.582C51.1623 124.97 52.2773 126.242 50.1618 125.954C46.9062 125.817 43.4159 126.169 43.4997 125.694C43.7792 121.232 44.651 113.961 44.0754 114.422C43.237 118.264 43.5947 121.925 43.019 125.8C39.8361 126.242 24.7401 125.677 15.7389 128.329C18.7207 121.654 22.7532 114.112 22.5044 112.606C1.10398 159.198 14.9089 129.981 15.1213 129.922C15.1521 129.969 14.4953 131.78 15.18 130.78C15.3952 130.587 15.4091 130.028 15.7948 130.028C15.901 130.129 15.8339 130.308 15.6942 130.498C15.3812 130.861 13.4558 134.189 14.5428 132.993C14.9453 132.613 16.6834 129.355 16.4934 130.607C16.1721 131.562 12.7152 138.364 14.6742 135.36C16.0407 133.446 16.8176 129.807 17.4743 130.637C17.5022 131.42 16.5046 132.3 16.5661 133.147C17.4464 132.635 17.642 130.363 18.4831 130.797C19.7574 131.255 22.3647 130.875 21.6409 131.928C20.3694 136.832 12.3966 151.184 15.0934 147.236C24.8267 129.665 20.2632 131.316 24.2622 131.59C30.2956 132.297 36.4994 132.09 42.2366 132.54C41.9208 135.969 41.3898 139.342 41.1271 142.832C41.0824 146.297 42.435 134.602 42.4406 134.767C43.564 131.121 39.8193 132.853 51.7044 132.269C52.1236 132.286 52.0146 132.568 52.1208 133.169C53.3364 143.301 54.2474 140.496 49.8265 142.706C45.5565 144.718 47.7893 143.888 46.9342 141.069C46.4479 141.583 46.9565 144.151 46.5457 144.827C46.5318 144.827 32.0198 145.185 31.1004 144.662C30.4297 144.86 30.1419 145.243 29.3119 145.162C24.6395 145.632 26.481 145.344 27.2132 142.074C27.4927 140.716 28.63 138.827 28.1298 138.45C26.9673 140.378 26.6264 143.201 25.6511 145.33C25.5505 145.416 24.2343 145.495 24.1225 145.358C24.1756 144.754 27.3362 135.907 26.2323 136.313C25.2738 139.375 24.1169 145.587 22.9683 145.576C21.613 145.763 16.2168 146.163 17.3485 146.495C24.3935 146.336 23.7899 144.631 22.0853 149.303C19.4724 149.901 16.6136 149.639 13.8889 150.01C10.9016 150.756 21.7304 149.932 21.6018 149.907C22.1859 149.865 21.5934 150.837 21.1351 150.72C7.74656 151.751 -2.51493 150.175 8.36974 151.544C9.07396 151.653 9.39254 152.221 10.1387 152.5C11.5806 152.743 9.94306 151.964 9.55462 151.609C10.4964 151.399 10.9435 152.944 12.0529 152.718C11.7958 152.26 11.1866 152.095 10.8149 151.592C11.9523 151.486 12.2793 153.062 13.4614 152.866C13.0282 152.391 12.4777 152.095 12.0501 151.625C13.5228 151.17 13.8582 153.291 15.1437 152.964C14.786 152.5 12.7152 151.285 14.4087 151.581C15.2275 151.93 15.9317 153.498 16.7952 153.115C15.9066 152.215 14.473 151.285 15.7864 151.572C16.513 152.019 17.0328 153.07 17.9522 153.299C18.5558 153.051 15.5237 151.343 16.9433 151.435C17.8236 151.533 18.1813 152.752 19.0728 152.858C18.9694 152.394 18.3043 151.964 17.9075 151.469C19.1287 151.022 19.5255 152.956 20.7495 152.9C20.7467 152.897 20.7439 152.891 20.7411 152.889C20.9311 152.897 20.5399 153.76 20.9283 153.433C21.1603 153.28 21.1407 152.458 21.5292 152.768C21.8533 152.925 22.3703 153.579 22.6553 153.213C22.225 152.665 20.6405 151.732 22.429 151.964C22.9739 152.209 23.8933 153.565 24.3125 153.079C24.3237 152.785 22.5631 151.852 23.4155 151.813C24.4886 151.659 25.1061 153.319 26.1904 153.386C25.9417 152.81 25.0447 152.352 24.645 151.734C25.9613 151.438 27.2356 153.987 28.4204 153.841C27.719 153 26.7354 152.469 25.9026 151.572C26.4391 151.567 26.9673 151.231 27.4675 151.617C27.8699 151.986 30.8349 154.587 30.3291 153.595C30.1475 153.182 26.9198 151.148 28.44 151.248C29.4181 150.994 32.4613 154.66 32.4278 153.682C32.0897 153.067 28.4065 150.829 30.2257 151C31.5559 151.684 32.5005 153.048 33.8139 153.953C36.7621 155.582 30.0664 150.681 31.2317 150.768C32.1707 150.332 33.3388 152.26 34.0039 152.629C34.5069 153.174 35.0742 153.408 35.4431 154.043C35.3425 154.263 34.9065 154.02 34.8199 154.297C35.0546 154.512 35.7505 154.166 36.0076 154.506C32.9029 154.898 28.5937 154.009 27.6603 154.724C32.235 155.057 36.4631 154.738 37.4915 155.512C37.7709 155.493 37.1841 154.923 38.151 155.09C38.9167 155.102 39.1011 156.264 39.9982 156.046C40.3698 155.803 38.4193 154.998 39.7802 155.082C40.9148 154.987 40.9595 156.493 42.1136 156.13C41.7475 155.797 41.401 155.482 41.0098 155.121C43.631 154.691 43.2007 156.686 44.4191 156.138L44.4275 156.158Z" fill="#95C11F"/>
<path d="M86.0152 153.126C72.4115 157.667 57.7961 157.496 43.6167 158.877C48.032 159.382 67.0404 157.703 77.3075 155.895C78.6125 155.722 87.9434 153.665 86.0152 153.126Z" fill="#95C11F"/>
<path d="M37.6672 97.4547C38.676 90.7791 41.9708 59.5861 40.2382 62.9365C40.4925 72.4483 36.2001 105.941 37.6672 97.4547Z" fill="#95C11F"/>
<path d="M87.4406 150.689C73.6245 155.51 66.7416 154.8 63.2261 156.216C70.3465 155.904 87.0634 152.31 87.4406 150.689Z" fill="#95C11F"/>
<path d="M48.7031 71.4787C48.1554 68.581 48.2281 64.3504 47.6692 64.6802C47.0767 67.8014 50.5084 83.3602 50.8605 85.0535C51.0952 85.5453 51.1679 85.0368 51.0505 84.5981C50.4804 80.1467 49.2425 75.9441 48.7059 71.4815L48.7031 71.4787Z" fill="#95C11F"/>
<path d="M37.9917 156.828C32.1427 156.113 26.0786 156.258 20.2297 154.987C19.9306 154.926 19.0588 154.688 19.422 155.241C24.2119 156.541 39.551 157.466 37.9917 156.828Z" fill="#95C11F"/>
<path d="M64.7799 117.691C63.4022 112.083 61.4489 106.321 59.652 100.883C59.3669 100.707 59.3334 100.953 59.5067 101.562C60.7586 105.972 64.4642 117.535 64.7799 117.691Z" fill="#95C11F"/>
<path d="M4.46291 149.781C4.62778 149.781 5.17831 149.547 5.08329 149.887C4.94077 149.664 4.99946 149.695 5.13639 149.697C5.01343 150.832 5.96916 149.105 6.46938 149.424C6.22066 149.745 5.82943 150.731 6.69853 149.885C7.05902 149.387 7.38318 148.907 8.15168 148.979C8.05667 149.245 6.8159 150.53 7.42231 150.508C8.18521 150.178 8.38642 148.828 9.23316 148.672C9.56291 148.496 9.06269 149.147 8.92856 149.415C7.48658 152.196 10.5829 148.119 10.6025 147.356C10.337 146.805 9.92341 148.001 9.59645 148.275C8.84752 148.499 9.76412 147.406 9.12417 147.638C7.55924 149.75 7.83869 147.571 7.28258 148.342C6.66779 149.197 6.88855 148.596 6.31009 148.476C6.10888 149.192 3.50718 149.245 4.4657 149.781H4.46291Z" fill="#95C11F"/>
<path d="M0.692871 149.996C0.754351 152.162 10.9516 154.646 12.0023 153.989C9.02055 152.933 6.27633 153.702 0.692871 149.996Z" fill="#95C11F"/>
<path d="M86.8736 151.863C85.4875 152.237 83.8415 152.908 82.3409 153.227C80.9017 153.716 76.8021 154.302 77.2716 154.772C79.2529 154.532 88.2233 152.5 86.8708 151.863H86.8736Z" fill="#95C11F"/>
<path d="M50.7764 76.6398C49.3372 72.9681 52.2687 86.0371 52.7968 85.6906C52.3329 82.7454 51.3353 79.6521 50.7764 76.6398Z" fill="#95C11F"/>
<path d="M54.0403 82.4045C54.1241 82.7063 54.1884 83.0165 54.4035 83.3518C52.5647 71.6101 50.6701 71.0428 54.0403 82.4045Z" fill="#95C11F"/>
<path d="M12.1869 150.158C12.4663 150.793 13.8133 147.722 14.0033 147.495C14.8556 145.548 16.2222 143.731 16.007 142.787C15.6605 142.804 15.6409 143.1 15.4229 143.547C14.389 145.889 13.2404 147.834 12.1841 150.158H12.1869Z" fill="#95C11F"/>
<path d="M8.34999 153.992C6.29602 153.187 3.82007 153.006 1.87787 151.715C-0.536595 151.821 8.90331 155.048 8.34999 153.992Z" fill="#95C11F"/>
<path d="M40.3527 88.5157C39.7323 88.5744 39.7966 94.9706 39.8357 95.5882C40.3918 94.6297 40.1431 93.2409 40.3108 92.1148C40.2521 90.8602 40.73 89.5832 40.3527 88.5129V88.5157Z" fill="#95C11F"/>
<path d="M59.3276 107.028C59.4199 108.735 60.9568 113.215 61.485 113.653C60.7249 111.15 60.0738 107.408 59.3276 107.028Z" fill="#95C11F"/>
<path d="M10.8677 150.147C11.0549 151.29 13.7991 145.671 14.0003 145.386C13.9025 143.983 11.0549 149.968 10.8677 150.147Z" fill="#95C11F"/>
<path d="M44.5253 54.6485C44.9612 55.1347 44.5588 52.7791 44.6147 52.4829C44.3939 51.1332 44.7628 49.4287 44.1899 48.2467C43.5444 49.4594 44.4722 53.6649 44.5253 54.6485Z" fill="#95C11F"/>
<path d="M3.72207 153.956C3.78355 153.931 3.7612 153.9 3.89254 153.967C3.78076 154.04 3.82267 154.04 3.72207 153.956ZM5.40438 154.043C4.83429 153.855 1.4641 152.271 2.5875 153.38C2.84739 153.562 3.01785 153.54 3.10728 153.73C2.86415 154.708 6.67309 155.493 4.04903 154.079C4.54366 153.998 5.20317 154.487 5.84591 154.353C5.83753 154.138 5.60558 154.079 5.40438 154.045V154.043Z" fill="#95C11F"/>
<path d="M38.1089 42.359C38.1648 42.7111 38.6901 42.0908 38.8662 41.8477C44.1982 35.1301 39.7129 39.1372 38.1089 42.359Z" fill="#95C11F"/>
<path d="M33.5648 157.127C33.3329 157.085 29.5323 156.907 29.0293 157.317C29.1606 157.829 34.174 157.544 33.5648 157.127Z" fill="#95C11F"/>
<path d="M37.3042 133.87C37.1253 134.164 36.1305 133.909 36.5524 133.387C36.8039 133.163 37.6171 133.348 37.3042 133.87ZM37.4187 132.982C36.463 132.417 35.362 133.583 36.4071 134.301C37.293 134.941 38.5002 133.661 37.4187 132.982Z" fill="#95C11F"/>
<path d="M39.9227 41.4845C38.4276 44.0441 43.6673 37.7233 42.4294 38.1872C41.3926 38.9444 40.7946 40.4115 39.9227 41.4845Z" fill="#95C11F"/>
<path d="M54.2669 155.283C53.2301 154.529 52.1821 153.456 51.0559 152.796C50.3406 152.83 55.9631 157.466 54.2669 155.283Z" fill="#95C11F"/>
<path d="M12.075 146.83C11.5915 146.844 11.3819 147.744 11.027 148.166C10.6917 148.937 9.97348 149.443 9.93994 150.267C10.4765 150.253 12.4802 146.925 12.075 146.83Z" fill="#95C11F"/>
<path d="M18.4998 144.246C18.5473 143.935 19.3269 144 19.1341 144.444C18.9748 144.69 18.5193 144.553 18.4998 144.246ZM19.6539 144.287C19.5756 143.43 18.075 143.329 18.0303 144.287C18.0806 145.249 19.6595 145.235 19.6539 144.287Z" fill="#95C11F"/>
<path d="M56.9354 157.521C63.5724 157.083 59.1347 156.32 56.125 157.421C56.438 157.549 56.6895 157.519 56.9354 157.521Z" fill="#95C11F"/>
<path d="M74.5662 155.392C75.2005 154.682 70.5672 155.66 70.6929 155.965C71.9086 156.013 73.3757 155.795 74.5662 155.392Z" fill="#95C11F"/>
<path d="M38.2961 141.191C38.542 141.203 38.5253 141.826 38.1284 141.63C37.9747 141.507 38.0194 141.253 38.2961 141.191ZM37.5835 141.443C37.5807 142.304 38.7851 142.343 38.964 141.535C39.1317 140.571 37.5863 140.451 37.5835 141.443Z" fill="#95C11F"/>
<path d="M42.0464 40.6546C42.0911 40.9927 42.5662 40.4031 42.8065 40.1153C45.9587 36.3513 42.6668 38.8271 42.0464 40.6546Z" fill="#95C11F"/>
<path d="M23.7198 134.608C24.2759 134.647 24.6979 133.638 23.8651 133.569C23.1441 133.454 22.8227 134.608 23.7198 134.608Z" fill="#95C11F"/>
<path d="M36.5298 39.8107C36.8987 39.4726 37.2983 38.8439 37.7399 38.4862C37.9355 36.9577 35.3925 40.4897 36.5298 39.8107Z" fill="#95C11F"/>
<path d="M37.6147 38.623C37.6147 38.623 37.606 38.623 37.606 38.6407L37.6147 38.623Z" fill="#95C11F"/>
<path d="M49.2673 136.628C49.312 136.131 48.5799 135.748 48.3256 136.357C48.0657 136.994 49.1723 137.408 49.2673 136.628Z" fill="#95C11F"/>
<path d="M37.779 38.5337C37.779 38.5337 37.7874 38.5002 37.7427 38.489C37.7483 38.5142 37.7427 38.4974 37.779 38.5337Z" fill="#95C11F"/>
<path d="M37.6983 38.6818C37.7681 38.8215 36.79 40.0315 37.5977 39.6179C38.0839 39.073 39.442 37.5864 37.7793 38.5309C37.838 38.6259 37.7458 38.6902 37.6983 38.679V38.6818Z" fill="#95C11F"/>
<path d="M37.6145 38.623C37.6145 38.6538 37.6061 38.6286 37.6983 38.6817C37.6787 38.6594 37.6424 38.6426 37.6145 38.623Z" fill="#95C11F"/>
<path d="M31.3798 157.999C30.5974 158.48 33.2605 158.608 33.4645 158.195C32.7435 157.952 32.0589 157.991 31.3798 157.999Z" fill="#95C11F"/>
<path d="M14.0592 139.509C14.1012 138.95 13.1063 138.71 13.0197 139.439C13.0057 139.965 13.9838 140.183 14.0592 139.509Z" fill="#95C11F"/>
<path d="M44.0332 39.3887C44.335 39.6374 45.0281 38.5169 45.2572 38.1816C44.5334 38.0028 44.2875 38.8187 44.0332 39.3887Z" fill="#95C11F"/>
<path d="M57.4415 156.907C58.3329 156.728 57.6231 156.278 56.8966 156.513C55.2338 156.84 56.2734 157.083 57.4415 156.907Z" fill="#95C11F"/>
<path d="M20.7631 148.493C20.7771 148.079 19.9918 147.942 19.9275 148.493C19.9107 148.948 20.6876 149.015 20.7631 148.493Z" fill="#95C11F"/>
<path d="M53.0291 151.611C52.7552 151.441 52.7608 151.771 53.1073 151.841C53.1604 151.799 53.1772 151.715 53.0291 151.611Z" fill="#95C11F"/>
<path d="M27.0314 128.181C26.4781 127.673 22.9123 128.192 22.7949 128.639C23.9882 128.614 26.3551 128.589 27.0314 128.181Z" fill="#95C11F"/>
<path d="M27.1766 128.681C26.0616 129.19 31.2398 128.74 30.9492 128.393C29.946 127.997 28.3056 128.452 27.1766 128.681Z" fill="#95C11F"/>
<path d="M41.5939 131.137C43.1812 130.394 37.7989 130.763 37.6396 131.054C38.8189 131.291 40.3224 131.07 41.5939 131.137Z" fill="#95C11F"/>
<path d="M34.1799 130.185C37.0918 131.123 35.6302 128.421 34.2888 129.732C34.096 129.774 33.8697 129.95 34.1799 130.185Z" fill="#95C11F"/>
<path d="M30.4184 129.391C31.8855 128.692 27.0873 129.148 27.5875 129.746C28.3979 129.821 29.5129 129.486 30.4184 129.391Z" fill="#95C11F"/>
<path d="M21.4283 129.651C21.392 129.645 21.3613 129.606 21.3277 129.584C21.364 129.374 21.9509 129.623 21.4283 129.651ZM20.956 129.268C19.9416 130.19 21.5988 130.394 22.1717 129.855C22.4008 129.167 21.4283 128.709 20.956 129.268Z" fill="#95C11F"/>
<path d="M30.7008 129.936C30.1391 129.967 27.9146 129.93 28.3031 130.467C28.5238 130.461 31.989 130.481 30.7008 129.936Z" fill="#95C11F"/>
<path d="M56.1614 137.447C56.807 137.148 59.7328 135.175 58.7743 134.991C58.4278 135.326 54.7027 138.042 56.1614 137.447Z" fill="#95C11F"/>
<path d="M62.8906 132.353C63.3684 132.339 63.3461 133.239 62.7257 132.859C62.5552 132.68 62.5496 132.437 62.8906 132.353ZM62.3624 132.093C61.8706 132.674 62.34 133.563 63.1672 133.409C64.2263 133.012 63.578 131.705 62.5804 131.844C62.6055 131.998 62.4295 132.009 62.3624 132.093Z" fill="#95C11F"/>
<path d="M62.5719 131.808C62.5719 131.808 62.5496 131.822 62.5775 131.844C62.5775 131.833 62.5775 131.822 62.5719 131.808Z" fill="#95C11F"/>
<path d="M56.6898 149.463C56.7765 149.25 57.3074 149.552 56.8268 149.65C56.7737 149.639 56.6871 149.572 56.6898 149.463ZM57.2068 150.021C57.8524 149.602 57.2935 148.605 56.5054 149.004C55.8431 149.457 56.3629 150.396 57.2068 150.021Z" fill="#95C11F"/>
<path d="M80.6053 143.642C80.6445 143.631 80.6333 143.29 80.4209 143.572C80.4768 143.617 80.5271 143.723 80.6053 143.642Z" fill="#95C11F"/>
<path d="M50.3015 29.0721C50.1702 29.0469 50.0304 29.0609 49.9186 28.9659C49.9354 28.9212 49.941 28.8848 49.927 28.8513C49.9131 28.882 49.927 28.9295 49.9131 28.9603C49.9131 28.9631 49.9159 28.9771 49.9159 28.9771C47.915 28.488 46.1181 26.0626 46.881 23.4024C48.0072 19.4764 53.7248 19.8368 54.6805 24.3301C55.2478 26.9987 53.1351 29.6086 50.3015 29.0721ZM46.4758 22.5445C45.3915 24.8582 46.188 28.0046 49.0048 29.3766C52.607 31.1315 55.8626 27.8454 55.3428 24.1038C54.7727 19.9793 48.3397 18.5626 46.4758 22.5445Z" fill="#95C11F"/>
<path d="M38.3772 111.122C38.3772 111.122 38.3604 111.138 38.3521 111.15C38.3521 111.15 38.3716 111.133 38.3744 111.122H38.3772Z" fill="#95C11F"/>
<path d="M41.4454 110.149C41.4258 110.244 41.4314 110.233 41.5376 110.281H41.5488C41.5488 110.194 41.5152 110.144 41.4454 110.149Z" fill="#95C11F"/>
<path d="M38.9415 111.753C38.8409 111.683 38.6704 111.56 38.7179 111.449C38.8297 111.178 39.629 112.086 41.0765 111.597C41.7248 111.379 41.2749 111.074 41.3113 110.932C41.4929 110.803 41.6773 110.675 41.8646 110.543C41.8897 110.473 41.9344 110.423 42.0127 110.409C42.0462 110.339 42.0602 110.241 42.1776 110.292C42.1105 110.152 42.2055 110.079 42.2865 110.004C42.3033 109.87 42.3313 109.736 42.3313 109.602C42.3313 109.336 42.0043 109.342 41.9736 109.512C41.9149 109.814 41.6801 110.015 41.5572 110.275C41.5572 110.275 41.5572 110.281 41.5572 110.283L41.546 110.278C41.314 110.345 41.3783 110.325 41.2749 110.278C41.3392 110.216 41.3616 110.152 41.4538 110.144C41.641 109.277 41.1883 109.744 40.6993 110.138C40.3667 110.406 40.7412 110.445 41.1324 110.445C40.8585 110.714 39.6848 110.909 40.8362 111.211C38.5614 111.641 38.5782 109.822 37.8684 110.342C36.0408 105.759 43.1528 103.787 43.7118 108.439C44.0639 111.365 41.0681 113.209 38.9471 111.748L38.9415 111.753ZM38.6313 111.393C38.5223 111.477 38.5139 111.351 38.4832 111.287C38.3994 111.281 38.3602 111.231 38.3546 111.152C38.3546 111.152 38.3546 111.15 38.3546 111.147C38.296 111.124 38.2568 111.091 38.2904 111.024C38.3071 110.99 38.4189 111.052 38.3798 111.124C38.4636 111.055 38.5139 111.166 38.5754 111.208C38.6341 111.259 38.7291 111.32 38.6341 111.393H38.6313ZM39.4473 105.287C34.4423 107.327 37.6476 115.014 42.2474 112.538C43.9353 111.63 44.3238 109.956 44.3741 108.174C44.4299 106.24 41.6522 104.387 39.4473 105.287Z" fill="#95C11F"/>
<path d="M41.1466 12.7533C41.7558 12.7366 42.4293 13.0942 42.8653 13.6279C42.4601 13.8655 42.6529 14.4355 42.2421 14.7066C42.2421 14.5026 42.2421 14.184 42.0409 14.3405C41.3702 14.8658 41.3367 14.9189 41.8089 15.1257C41.4345 15.5672 40.8756 15.2431 40.7805 15.2375C40.2552 15.2039 40.8336 16.2686 41.9962 15.584C42.4181 15.3353 42.7032 14.958 42.9742 14.5557C43.1084 15.6902 41.345 16.4139 40.2691 15.6734C39.3078 15.0139 39.4224 12.8036 41.1466 12.7533ZM43.7511 14.3824C43.8182 13.0747 42.8736 12.4711 41.6105 12.1218C40.1574 11.7194 38.788 13.111 38.9166 14.6004C39.1849 17.7077 43.6589 17.255 43.7511 14.3824Z" fill="#95C11F"/>
<path d="M45.9839 33.7079C46.0873 35.8064 42.882 35.4264 42.9211 33.2301C42.9378 32.3778 45.8833 31.6988 45.9839 33.7079ZM44.6956 35.7841C47.4063 35.8763 47.3504 31.6429 44.4134 31.2796C41.6216 30.9331 41.6496 35.9042 44.6956 35.7841Z" fill="#95C11F"/>
<path d="M57.4078 113.57C57.4385 111.957 59.9033 111.982 59.9005 113.612C59.9005 114.324 57.377 115.241 57.4078 113.57ZM56.7203 113.653C56.7734 116.182 60.5935 116.146 60.5935 113.589C60.5935 111.415 56.6644 111.052 56.7203 113.653Z" fill="#95C11F"/>
<path d="M45.0924 61.3186C45.1343 59.8068 47.5181 59.913 47.4454 61.5561C47.4203 62.1652 45.0505 62.8247 45.0924 61.3186ZM44.4133 61.3102C44.377 63.7915 48.144 64.0207 48.144 61.5281C48.144 59.2871 44.4525 58.8176 44.4133 61.3102Z" fill="#95C11F"/>
<path d="M26.9057 122.799C26.7213 122.383 26.7409 121.614 27.378 121.07C27.8167 120.695 28.3729 120.818 28.6327 121.332C29.2923 122.634 27.5149 124.185 26.9029 122.799H26.9057ZM26.1205 122.221C26.168 122.998 26.3496 123.596 27.1013 123.914C28.2918 124.417 29.7673 123.059 29.4012 121.45C29.0855 120.064 26.2295 119.91 26.1177 122.221H26.1205Z" fill="#95C11F"/>
<path d="M39.1904 77.0338C37.7763 77.0198 38.0111 74.8039 39.3301 74.857C39.9533 74.8822 40.5513 77.0478 39.1904 77.0338ZM37.5304 75.9887C37.5053 78.4142 41.0822 78.1795 40.9761 75.9133C40.9761 73.5772 37.5556 73.5101 37.5304 75.9887Z" fill="#95C11F"/>
<path d="M50.5024 37.564C50.6785 37.7149 50.3459 38.1173 50.8741 38.1313C51.2122 38.1425 51.2569 38.0977 51.2541 37.7401C51.2318 34.9793 47.2105 34.8955 47.0148 37.6227C46.959 38.3856 47.216 38.3911 47.7414 38.1676C47.5961 36.1641 49.5551 35.798 50.3375 36.966C50.6645 37.4523 50.0693 37.1812 49.9519 37.7289C49.9351 37.8127 49.896 37.8938 49.7954 37.9385C49.2449 36.804 48.9934 38.8159 49.5131 38.3772C49.6082 38.2961 49.6696 38.1844 49.8513 38.2626C50.5667 38.5728 50.209 37.3125 50.4996 37.5612L50.5024 37.564Z" fill="#95C11F"/>
<path d="M39.0226 34.4345C39.6989 34.7279 39.629 35.6584 39.3272 35.7701C39.3132 35.8568 39.2741 35.9071 39.1763 35.8931C39.0729 35.8065 39.1763 35.7478 39.2154 35.6807C39.2769 35.4712 39.3831 35.2336 39.1819 35.1302C39.0058 35.0408 38.9807 35.1554 38.7934 35.4823C38.7236 35.6053 38.5307 35.7087 38.6816 35.8791C38.7906 36.0021 38.9276 35.9294 39.0533 35.8847C39.0869 35.8735 39.1288 35.8875 39.1679 35.8959C38.9304 36.2564 38.3687 36.1837 38.0501 35.8735C37.7511 35.5829 38.1507 34.0572 39.0198 34.4345H39.0226ZM40.2466 35.2029C40.1572 33.0932 36.8652 33.2525 37.0972 35.2588C37.3794 37.6815 40.3332 37.2232 40.2466 35.2029Z" fill="#95C11F"/>
<path d="M54.3453 2.18239C53.7053 2.21593 53.2247 1.41396 53.7333 0.919361C54.2782 0.394029 55.2144 0.706993 55.2507 1.37204C55.2675 1.70177 54.9573 2.18239 54.3453 2.18239ZM52.8642 1.11217C52.4478 3.09893 55.4519 3.52367 55.9242 1.69618C56.3853 -0.0921828 53.2554 -0.740465 52.8642 1.11217Z" fill="#95C11F"/>
<path d="M50.8267 92.6624C50.4019 92.1594 50.8937 91.3966 51.4163 91.5838C51.6706 91.676 51.8411 91.9275 51.8467 92.2712C51.6399 93.0648 51.067 92.9446 50.8267 92.6624ZM49.9855 92.2461C49.9073 93.9562 52.5453 94.0652 52.5453 92.1902C52.5453 90.7763 49.8793 90.508 49.9855 92.2461Z" fill="#95C11F"/>
<path d="M37.5222 118.745C37.5278 117.901 38.7295 117.904 38.7127 118.686C38.7043 119.032 37.5166 119.586 37.5222 118.745ZM36.8292 118.764C36.8487 120.581 39.5594 120.315 39.4057 118.666C39.2548 117.026 36.8124 117.076 36.8292 118.764Z" fill="#95C11F"/>
<path d="M63.5894 124.065C63.6202 123.336 64.7547 123.352 64.696 124.11C64.6737 124.42 63.5587 124.747 63.5894 124.065ZM62.8936 124.071C62.8852 125.683 65.3947 125.73 65.3947 124.034C65.3947 122.553 62.9048 122.444 62.8936 124.071Z" fill="#95C11F"/>
<path d="M50.29 12.0268C50.2537 12.5885 49.5327 12.5521 49.5103 12.2056C49.4936 11.9318 50.3208 11.5574 50.29 12.0268ZM50.997 11.9989C51.0054 10.5598 48.8341 10.7917 48.7977 12.1889C48.7642 13.4994 51.0138 13.3932 50.997 11.9989Z" fill="#95C11F"/>
<path d="M48.7782 38.3604C48.9124 38.3241 48.904 38.2682 48.9682 38.0893C48.9403 37.9999 48.9124 37.8909 48.8704 37.7903C48.672 37.3321 48.3395 38.475 48.7782 38.3604Z" fill="#95C11F"/>
<path d="M52.0063 28.4908C53.4259 27.8761 54.3034 26.3783 54.0686 24.9001C54.0351 24.6822 53.7808 23.3018 53.4343 23.2627C52.8167 23.1956 54.3481 25.1432 53.2191 26.8925C52.3724 28.203 51.2713 28.3567 49.9691 28.3707C49.6477 28.3735 49.6561 28.6417 49.8377 28.7591C49.8824 28.787 49.9104 28.8178 49.9244 28.8513C49.9747 28.7395 50.7879 29.0162 52.0063 28.4908Z" fill="#95C11F"/>
<path d="M52.8417 24.2463C52.8473 24.6319 52.9563 25.2886 52.8138 25.8055C52.2074 27.9935 49.6196 27.5827 50.363 28.0494C50.8939 28.3819 53.3084 27.4598 53.3252 25.1656C53.3112 24.8555 53.3196 24.5062 53.1212 24.2044C53.0345 24.0731 52.8361 24.0703 52.8389 24.2463H52.8417Z" fill="#95C11F"/>
<path d="M48.8985 23.3158C48.5576 23.6008 48.239 22.9246 48.7392 22.4021C49.0634 22.0611 49.4406 21.9661 49.3177 21.7258C49.1277 21.357 47.9568 22.1366 48.0629 23.1565C48.1719 24.1988 49.572 24.1765 49.8375 22.1841C49.8235 22.1059 49.8151 22.036 49.7956 21.9717C49.5217 21.072 49.4658 22.8408 48.8985 23.3158Z" fill="#95C11F"/>
<path d="M52.1149 25.7636C52.1149 25.7636 52.0925 25.7413 52.0814 25.7301L52.0674 25.7469C52.0841 25.7553 52.1009 25.7608 52.1177 25.7636H52.1149Z" fill="#95C11F"/>
<path d="M52.0061 26.5908C52.5147 26.5992 52.9982 25.0819 52.5846 24.9002C52.4365 24.836 52.4169 25.0316 52.2129 25.6966C52.1934 25.7581 52.1598 25.7748 52.1151 25.7665C52.3023 25.9453 51.3494 26.5824 52.0061 26.5936V26.5908Z" fill="#95C11F"/>
<path d="M51.855 25.853C51.9221 25.8083 51.9668 25.7245 52.059 25.7301C51.9863 25.5177 52.2909 25.0874 51.9779 24.9393C51.8215 24.8667 51.7991 25.0706 51.5671 25.5764C51.5168 25.6854 51.6733 25.9788 51.855 25.853Z" fill="#95C11F"/>
<path d="M52.0795 25.7329C52.0795 25.7329 52.0649 25.7329 52.0591 25.7329C52.0591 25.7388 52.0591 25.7446 52.0649 25.7505L52.0795 25.7329Z" fill="#95C11F"/>
<path d="M38.8241 108.14C38.5111 107.847 39.8525 106.654 40.1012 106.922C40.3471 107.187 39.1427 108.059 38.8241 108.14ZM38.4608 108.353C38.7766 109.152 40.2996 107.785 40.5874 107.123C40.8557 106.503 37.8488 106.81 38.4608 108.353Z" fill="#95C11F"/>
<path d="M42.6698 107.861C43.2342 109.205 42.3679 110.306 42.1919 110.32C42.1947 110.406 42.1611 110.462 42.0689 110.471C42.0829 110.549 42.0494 110.608 41.9907 110.655C41.9096 111.479 43.9133 109.875 43.1141 107.774C43.0666 107.648 42.4294 107.288 42.6698 107.861Z" fill="#95C11F"/>
<path d="M45.4447 34.5071C45.8051 34.1466 45.8527 33.4173 45.5369 33.3195C45.249 33.2301 45.5033 33.7163 44.9919 33.5906C44.8215 33.5487 44.4526 33.9902 44.6622 34.1662C44.7293 34.2221 44.8047 34.264 44.8857 34.3227C44.6035 34.4959 44.2095 34.2444 44.2095 34.5965C44.2095 34.6859 45.0367 34.9151 45.4419 34.5099L45.4447 34.5071Z" fill="#95C11F"/>
<path d="M59.0708 113.318C58.9115 113.838 58.9869 113.86 58.4252 113.877C57.9278 113.894 58.0983 114.305 58.5286 114.338C59.1378 114.383 59.5346 113.846 59.476 113.338C59.4033 112.966 59.1658 113.008 59.0708 113.318Z" fill="#95C11F"/>
<path d="M58.8051 113.38C58.7995 113.103 58.3523 113.254 58.3272 113.561C58.3216 113.645 58.8162 113.785 58.8051 113.38Z" fill="#95C11F"/>
<path d="M46.4393 61.5421C46.3806 61.8579 45.7295 61.4779 45.6792 61.8244C45.6456 62.0647 46.0592 62.2044 46.3163 62.1541C47.1379 61.9892 47.2916 61.0392 46.9898 61.0112C46.8193 60.9945 46.769 61.5785 46.4393 61.5421Z" fill="#95C11F"/>
<path d="M46.4282 61.543C46.4282 61.543 46.437 61.543 46.4428 61.543V61.5254L46.4282 61.543Z" fill="#95C11F"/>
<path d="M46.4458 61.5255C46.4458 61.5255 46.437 61.5255 46.4312 61.5226V61.5431L46.4458 61.5255Z" fill="#95C11F"/>
<path d="M46.4311 61.5225C46.5708 60.7876 45.9504 61.162 45.9616 61.366C45.9728 61.5979 46.2298 61.461 46.4311 61.5225Z" fill="#95C11F"/>
<path d="M28.1438 122.14C27.9706 122.453 27.7861 122.727 27.3502 122.598C27.2719 122.576 27.1797 122.802 27.2468 122.872C27.6967 123.361 28.5323 122.78 28.4904 122.151C28.4848 122.089 28.2389 121.969 28.1438 122.14Z" fill="#95C11F"/>
<path d="M39.54 75.9021C39.3443 76.2598 39.2912 76.3073 38.9252 76.2458C37.8213 76.0586 39.3415 77.548 39.9032 76.1257C39.9955 75.8938 39.7859 75.4467 39.54 75.9021Z" fill="#95C11F"/>
<path d="M80.5437 94.3866C80.661 94.2357 80.6638 94.1993 80.6499 94.3083C80.5353 94.3977 80.4822 94.1379 80.6666 94.1993C80.6415 94.3418 80.6387 94.3782 80.5465 94.3866H80.5437ZM80.4151 94.9342C80.4151 94.8923 80.3424 94.6157 80.4961 94.6185C80.5185 94.6939 80.5269 94.8029 80.4151 94.9342Z" fill="#95C11F"/>
</g>
<defs>
<clipPath id="clip0_282_17400">
<rect width="89" height="160" fill="white"/>
</clipPath>
</defs>
</svg>
