<svg width="112" height="41" viewBox="0 0 112 41" fill="none" xmlns="http://www.w3.org/2000/svg">
<g clip-path="url(#clip0_282_2779)">
<path d="M112.001 15.5459C109.227 20.7725 103.625 24.681 96.6233 21.1713C92.8945 19.3022 89.4769 16.8183 85.9792 14.5231C84.0625 13.2659 81.9885 12.718 79.742 12.648C79.2458 12.6328 78.7466 12.7119 78.2628 12.7484C78.044 17.4423 82.198 23.9596 86.4569 25.7343C86.836 25.8925 87.2212 26.0295 87.6002 26.1787C90.7065 27.3932 90.9068 27.8986 90.8205 31.1435C90.7712 32.9851 91.1934 34.842 91.4061 36.6927C91.5047 37.539 91.8344 38.4431 91.6372 39.2162C91.4954 39.7672 90.7188 40.3821 90.1087 40.5495C88.99 40.857 87.7851 40.857 86.4908 41C86.4477 40.8722 86.3614 40.6135 86.2535 40.2999C85.8529 40.4186 85.4461 40.5404 84.7065 40.7565C85.1164 39.7733 85.4153 39.0093 85.7697 38.2696C85.8313 38.1417 86.1303 38.1082 86.3275 38.0686C88.7712 37.5633 88.8421 37.3229 87.9145 34.9363C87.141 32.9425 85.8714 31.7432 83.7235 31.1496C79.7266 30.0446 75.7789 28.7539 71.856 27.4085C70.4785 26.9366 69.2335 26.0782 67.4769 25.1589C70.7127 22.2062 73.6865 19.491 76.6603 16.7757L76.5648 16.6813C74.4384 18.3038 72.2967 19.908 70.1857 21.5518C66.3984 24.4984 64.0039 28.1847 64.1888 33.1221C64.2658 35.1525 63.5263 36.4005 61.5016 37.0763C58.2813 38.1539 55.1287 39.4293 51.7235 40.7017C51.5663 39.6485 51.4708 39.0032 51.3753 38.3609L51.138 38.3457C51.0732 38.9058 51.0085 39.4659 50.9284 40.1386C50.5524 40.2238 50.0686 40.3304 49.5139 40.4552V37.9347L49.3105 37.8556C49.1472 38.507 48.9839 39.1554 48.8051 39.8646H47.5571C47.6988 37.2681 47.9823 37.0063 50.799 36.8906C51.2088 36.8723 51.631 36.8754 52.0224 36.7719C58.5247 35.0277 58.4508 34.0292 57.4369 28.7844C56.7096 25.0341 55.4739 21.3661 54.2628 17.7285C53.8991 16.6387 52.8544 15.7712 52.0471 14.9219C53.0239 16.9431 54.0008 18.9613 54.9777 20.9825L54.5863 21.29C52.4631 20.0693 50.3275 20.5472 48.2258 21.1895C44.9038 22.2032 41.6033 23.2777 38.044 24.404C37.6187 28.1786 37.3814 32.215 38.1395 36.2301C38.3275 37.2346 38.2319 37.7642 37.2951 38.1295C36.4415 38.4644 35.6187 38.8784 34.7466 39.1523C34.5185 39.2254 34.1642 38.9058 33.6865 38.6805C33.3937 38.7901 32.7836 39.0153 32.0563 39.2863L31.8067 37.9986C30.9839 39.3411 30.0809 38.8966 28.7589 37.8586C30.0686 37.2955 31.1318 36.5953 32.2813 36.4036C33.8313 36.1448 34.6326 35.7704 34.3244 34.2454C33.9515 32.4128 33.1164 30.6504 32.3059 28.9396C31.9299 28.1482 31.1349 27.5515 30.4168 26.7388C31.631 25.9078 32.8483 25.0189 34.1179 24.2153C38.1919 21.64 37.8375 17.4849 36.3244 14.7514C35.8375 13.8747 35.2027 13.0741 34.3768 12.3771C34.8113 13.3146 35.289 14.2339 35.6711 15.1928C37.3383 19.3661 36.3799 22.1758 32.5124 24.4771C30.0964 25.9169 27.6649 27.3324 25.2335 28.7478C23.8406 29.5576 23.3352 30.5377 24.1241 32.1389C24.6141 33.1373 24.685 34.3367 24.9777 35.5939H22.9469L24.3059 36.7445L21.7974 37.0611L22.9931 37.7551L22.5648 38.3274C21.8313 37.8647 21.0794 37.4233 20.3645 36.9332C18.5463 35.6913 18.6172 33.6 18.0378 31.801C17.9793 31.6153 17.9947 31.3961 18.0162 31.1983C18.5617 26.6292 23.1934 21.3448 27.631 20.2641C28.5648 20.0358 29.5324 19.9415 30.4846 19.7862L30.4292 19.3601C28.497 19.6127 26.5679 19.8623 24.5401 20.1272C24.7589 19.5792 25.0239 18.9187 25.2859 18.2581L25.0609 18.1211C24.574 18.8882 24.084 19.6584 23.4924 20.5868C20.8729 20.0237 18.1272 19.4362 15.0887 18.7817C15.6279 21.3783 14.3768 22.6111 12.5925 23.2655C10.9746 23.8591 10.1981 24.9428 9.63103 26.4435C8.76816 28.7357 8.21654 29.1101 6.04705 28.9396C5.46153 28.894 4.92532 28.3399 4.34905 28.0477C3.8868 27.8133 3.3999 27.6185 2.95614 27.4206C3.60637 26.9488 4.21038 26.5074 4.89759 26.0082C4.60175 25.8591 4.51854 25.7738 4.45383 25.789C3.7019 25.9382 2.95306 26.1026 2.20421 26.2609C2.09636 25.4603 1.91454 24.6597 1.89605 23.8561C1.87139 22.8089 1.97309 21.7557 2.0224 20.7147C2.01315 20.7147 2.25352 20.7755 2.49389 20.8395L2.58942 20.6538C2.3244 20.465 2.07787 20.2367 1.78511 20.0967C1.08249 19.7588 0.943814 19.3631 1.36908 18.6538C1.78203 17.9659 2.07787 17.1958 2.32132 16.4287C3.27047 13.4425 3.08865 13.0194 0.00390625 11.1838C1.07941 11.2812 1.9207 11.1534 2.54628 11.4578C3.82825 12.0787 4.92841 11.6617 6.0717 11.2264C11.7266 9.07125 16.7404 5.82327 21.5879 2.30133C22.3306 1.7595 23.064 1.20549 23.8098 0.666692C24.9623 -0.167371 26.0686 -0.231296 27.3537 0.547975C30.6973 2.56921 34.3737 2.0365 38.0008 1.6834C48.6757 0.645384 59.3259 0.246616 69.7543 3.36979C72.3891 4.15819 75.2335 4.94051 77.3598 6.53558C79.9084 8.44418 83.0609 8.87643 85.5478 10.7181C88.0532 12.5749 90.5679 14.4257 93.1873 16.1121C95.1934 17.4028 97.289 18.6204 99.4862 19.5427C102.639 20.8638 105.388 19.7588 107.791 17.5702C109.893 15.6585 109.773 13.3024 109.172 10.7333C111.036 10.9494 111.418 12.4319 112.001 13.7195V15.5459ZM8.72502 12.9798L12.0132 16.3313C11.6002 14.3465 10.1981 13.3481 8.3244 12.2614L7.79127 14.8305L8.09019 14.9067L8.7281 12.9798H8.72502Z" fill="#95C11F"/>
</g>
<defs>
<clipPath id="clip0_282_2779">
<rect width="112" height="41" fill="white"/>
</clipPath>
</defs>
</svg>
