<svg width="54" height="66" viewBox="0 0 54 66" fill="none" xmlns="http://www.w3.org/2000/svg">
<mask id="path-1-inside-1_2011_2" fill="white">
<path d="M51.5426 62.2217C51.2124 61.5303 51.1538 60.8225 51.3914 60.0895C51.4205 60.0012 51.419 59.901 51.4135 59.8109C51.3247 58.6353 51.2183 57.4656 51.1505 56.2876C51.0215 54.0667 51.0312 51.8465 51.1902 49.624C51.2856 48.2511 51.4366 46.8778 51.4245 45.506C51.4048 43.4431 50.9156 41.4651 50.0005 39.5987C49.9506 39.4958 49.9453 39.3366 49.9857 39.2318C50.3246 38.3591 50.5266 37.4514 50.6291 36.5245C50.84 34.6225 50.7278 32.7307 50.3928 30.8509C50.358 30.6625 50.4082 30.5685 50.5435 30.4412C51.0515 29.968 51.5895 29.5172 52.0244 28.9848C53.4999 27.1793 54.005 25.1655 53.1696 22.9166C52.9788 22.4055 52.7168 21.9284 52.2851 21.5734C52.2021 21.5032 52.0389 21.4426 51.9573 21.4761C51.8826 21.51 51.8563 21.6744 51.8259 21.7867C51.7376 22.1342 51.7272 22.517 51.5649 22.8225C51.3052 23.323 50.984 23.8063 50.6272 24.2428C49.9401 25.0758 49.1347 25.7849 48.1923 26.3346C47.7982 26.5653 47.4085 26.5856 47.0376 26.3237C46.6667 26.0617 46.2893 25.7925 45.9666 25.4745C45.4429 24.9591 44.8357 24.5772 44.1719 24.2786C42.7391 23.6378 41.2083 23.3957 39.6646 23.2634C36.75 23.0117 33.8406 23.1747 30.9709 23.6921C29.0263 24.0423 27.1236 24.0045 25.2109 23.5758C23.2021 23.1281 21.2874 22.4162 19.3743 21.6767C18.3787 21.291 17.6937 20.6804 17.2553 19.7448C17.156 19.5287 17.0497 19.3157 16.9646 19.0935C16.6109 18.197 16.4568 17.2665 16.5125 16.3059C16.5201 16.1647 16.5171 16.0298 16.7238 15.9927C18.8436 15.6106 20.7452 14.7124 22.5043 13.4991C23.0415 13.1277 23.547 12.6993 24.0224 12.252C24.187 12.0951 24.2756 11.8064 24.2954 11.5691C24.3247 11.2219 24.058 11.0865 23.7411 11.2351C23.6057 11.3002 23.4631 11.3719 23.3157 11.4019C21.6528 11.7397 19.9933 12.0778 18.3277 12.4017C17.8752 12.4911 17.4121 12.5211 16.9929 12.5743C16.8551 12.0453 16.7637 11.5568 16.5943 11.0986C16.4491 10.7074 16.4023 10.356 16.6573 10.0038C16.6685 9.99054 16.6594 9.96587 16.6579 9.99342C16.4077 9.61717 16.1194 9.30448 15.9532 8.91552L16.0361 8.85787C16.2616 9.17751 16.4838 9.49352 16.7479 9.87052C16.93 9.45561 16.4348 9.31126 16.504 8.93166C16.6661 9.14079 16.796 9.30327 16.9158 9.46175C17.3263 9.18704 16.795 9.00274 16.9038 8.72545L17.2129 9.03927C17.2702 8.94223 17.2634 8.87624 17.2531 8.81006C17.2141 8.56963 17.3364 8.36215 17.5684 8.3713C17.8278 8.38541 17.9033 8.20992 18.0188 8.06423C17.8175 7.7459 17.9221 7.54437 18.3615 7.44047L18.0963 7.85086L18.2032 7.92575C18.398 7.72566 18.586 7.52175 18.7906 7.33256C18.8893 7.24121 19.0175 7.17911 19.1356 7.11301C19.175 7.09097 19.2142 7.07238 19.2568 7.05397C19.2994 7.03557 19.3386 7.01698 19.3813 6.99857C19.3626 6.95956 19.3539 6.92801 19.3554 6.90046C19.3569 6.87291 19.3686 6.84937 19.3833 6.8329C19.4353 6.77011 19.5446 6.73806 19.5801 6.66055C19.6274 6.55606 19.7053 6.46359 19.781 6.34682L19.8294 6.34945L20.0184 6.3839C20.014 6.52872 20.0168 6.60486 20.0568 6.63466C20.0968 6.66447 20.1744 6.64106 20.3121 6.59674C21.9665 6.03393 23.6055 6.07124 25.237 6.69527C25.3968 6.75577 25.5639 6.80975 25.7332 6.82241C25.8266 6.82749 25.9216 6.7394 26.0178 6.69283C25.9629 6.61731 25.9237 6.50812 25.8495 6.46954C24.4639 5.72763 23.0175 5.14474 21.447 4.93156C17.9064 4.4524 15.1671 5.76095 13.1439 8.6419C12.982 8.87486 12.8001 9.03075 12.5353 9.05089C12.2463 9.06971 11.9365 9.08741 11.6595 9.01363C11.0439 8.84892 10.8733 8.60479 10.8557 7.9718C10.8157 6.60193 10.6037 5.26762 9.99835 4.02243C9.26806 2.52179 8.19967 1.36886 6.56354 0.830913C6.3011 0.744115 6.02146 0.71855 5.75865 0.638639C5.61869 0.596492 5.49743 0.465564 5.35654 0.440634C4.72835 0.316682 4.10147 0.168624 3.46842 0.134205C3.0533 0.111635 2.62359 0.229875 2.21173 0.338725C1.97584 0.401882 1.77219 0.573859 1.67634 0.869124C1.77759 0.857361 1.84426 0.843716 1.90671 0.843658C2.64 0.82136 3.37207 0.75755 4.10237 0.790349C4.55918 0.811733 5.05835 0.883772 5.45279 1.09517C6.53132 1.67879 7.32719 2.54751 7.7599 3.71423C8.32899 5.2441 8.42696 6.82434 8.27726 8.4291C8.26837 8.52878 8.19646 8.63884 8.1197 8.71065C7.86369 8.95231 7.60114 9.18671 7.32222 9.40295C7.22087 9.48032 7.05781 9.54399 6.94113 9.52038C6.44654 9.42786 5.94504 9.33498 5.46785 9.17779C4.00552 8.69764 2.69823 7.91854 1.44862 7.03552C1.1947 6.85593 0.948075 6.66983 0.651055 6.45337C0.643565 6.59111 0.6358 6.67012 0.634766 6.75296C0.638172 7.51988 0.963679 8.16961 1.39942 8.77008C2.10627 9.74448 3.00022 10.5322 3.99085 11.2008C4.53292 11.5688 5.10471 11.9003 5.69334 12.1775C5.9641 12.3028 6.09788 12.4586 6.10824 12.7147C6.11169 12.8427 6.00407 12.9715 5.96217 13.104C5.83723 13.4874 5.41807 13.8584 5.90562 14.2717C5.91543 14.2826 5.91758 14.3069 5.91646 14.3276C5.93084 14.5736 6.00347 14.8331 5.95268 15.0652C5.80987 15.7136 5.92801 16.3486 5.99042 16.9875C6.03237 17.4284 6.0947 17.8773 6.06035 18.3176C5.99625 19.1775 5.91794 20.0436 5.76772 20.892C5.55232 22.1098 5.86274 23.2284 6.32014 24.324C6.54711 24.8716 6.93303 25.3036 7.55542 25.4065C7.88218 25.4588 7.99736 25.6378 8.02389 25.9155C8.08219 26.5024 8.15452 27.0865 8.17458 27.6748C8.21861 29.0345 8.18308 30.3899 7.87792 31.7272C7.83228 31.9285 7.85161 32.1471 7.84038 32.3537L7.91499 32.3854C8.02085 31.9698 8.25527 31.6786 8.65787 31.5485C8.68366 31.7123 8.706 31.8758 8.73487 32.0466L8.76319 32.2277C8.61827 32.3407 8.39069 32.4423 8.37346 32.7592C8.83974 32.5427 9.27395 32.3419 9.69413 32.1437C9.72723 32.1731 9.74069 32.1807 9.7405 32.1842C9.75741 32.4476 9.77066 32.7142 9.79449 32.978C9.96938 34.8664 10.5847 36.568 11.9604 37.938C12.0263 38.0037 12.0691 38.1096 12.0882 38.2039C12.1955 38.7831 12.2502 39.3732 12.3999 39.9374C12.8518 41.6439 13.5767 43.2445 14.3548 44.8237C14.4139 44.9478 14.4581 45.0918 14.4647 45.2268C14.5329 46.7157 14.5698 48.2062 14.6659 49.6931C14.7562 51.0968 14.9229 52.4977 15.3072 53.8518C15.7995 55.5813 15.8245 57.2922 15.2768 59.0066C15.2435 59.1084 15.234 59.2184 15.2148 59.3175C15.6416 59.4443 15.6132 59.0732 15.7889 58.9032C15.8003 59.0765 15.8097 59.2877 15.7114 59.3721C15.5696 59.4922 15.3461 59.5181 15.0808 59.6107C15.0269 59.7736 14.905 60.0363 14.8484 60.313C14.7121 60.9687 14.3279 61.4624 13.8462 61.899C13.6821 62.0455 13.5149 62.185 13.3541 62.3351C13.2883 62.3971 13.2217 62.473 13.1859 62.5574C13.0116 62.9554 12.8338 63.3533 12.6866 63.7632C12.6252 63.936 12.6316 64.1367 12.6075 64.3253C12.7918 64.3181 12.9844 64.3492 13.1536 64.2997C13.478 64.2034 13.7878 64.0579 14.1389 63.9181C14.0835 64.1707 14.0469 64.3967 13.9798 64.6106C13.9044 64.8483 13.9995 64.9501 14.2195 64.9241C14.7394 64.8695 15.2597 64.808 15.7746 64.7185C16.7168 64.5556 17.22 63.9786 17.3061 63.0335C17.3447 62.6419 17.3868 62.2504 17.4337 61.8351C17.6039 61.8961 17.7502 61.949 17.9546 62.0188C18.0109 61.8112 18.0973 61.6259 18.1005 61.4396C18.1121 60.9084 18.0856 60.375 18.0762 59.8461C18.0429 57.8411 18.0129 55.8398 17.9728 53.8344C17.96 53.2396 17.8884 52.6417 17.9035 52.045C17.9282 51.1449 17.984 50.2465 18.0744 49.35C18.1688 48.4434 18.3114 47.5428 18.454 46.6422C18.5064 46.3169 18.758 46.2201 19.0586 46.3711C19.4572 46.569 19.7236 47.0946 19.6824 47.5966C19.6616 47.8511 19.6199 48.1078 19.6234 48.3636C19.6674 50.2345 19.7081 52.1017 19.7765 53.9704C19.7982 54.5277 19.8965 55.0822 19.9634 55.6384C20.0035 55.986 20.106 56.3335 20.0873 56.6778C20.0305 57.7212 19.9254 58.762 19.855 59.8012C19.7768 60.985 19.3426 62.0148 18.5157 62.8644C18.1886 63.2024 17.8052 63.4889 17.4302 63.8139L17.5739 64.1705C17.2259 64.3174 17.0618 64.5917 17.0217 64.9452C17.0014 65.1272 17.0408 65.2329 17.2633 65.2243C17.4962 65.2162 17.7305 65.2462 18.0072 65.2613C17.9543 65.3413 17.9217 65.3672 17.9165 65.398C17.887 65.5587 17.8223 65.7279 17.8559 65.8747C17.8699 65.9377 18.0888 65.9945 18.2139 65.9909C19.2985 65.9532 20.3235 65.6704 21.2618 65.1309C21.4659 65.0142 21.6659 64.7833 21.7366 64.5661C21.879 64.1179 21.9327 63.6408 22.0239 63.176C22.0429 63.0804 22.0553 62.9809 22.0722 62.8609C22.3204 62.9538 22.5277 63.0342 22.7758 63.1306C22.7642 62.8329 22.7504 62.5766 22.7502 62.3244C22.7524 61.0709 22.7685 59.818 22.7567 58.5671C22.7462 57.5477 22.7066 56.5543 22.9841 55.5333C23.496 53.6477 23.5334 51.6846 23.6182 49.7412C23.6326 49.4139 23.6174 49.0539 23.7475 48.7674C24.268 47.618 24.8494 46.496 25.3868 45.3544C25.4966 45.1221 25.6493 45.0579 25.881 45.0083C26.4318 44.8966 26.9766 44.7674 27.5127 44.6066C27.7843 44.5246 28.0278 44.2581 28.2845 44.2583C28.5518 44.2555 28.8166 44.491 29.0919 44.5957C30.4142 45.0993 31.8045 45.1818 33.1989 45.2507C33.749 45.2807 34.3015 45.328 34.8495 45.3958C35.3492 45.4575 35.7046 45.7496 35.9337 46.1938C36.2573 46.8158 36.3357 47.4797 36.2327 48.1614C36.0271 49.5179 36.0207 50.8473 36.5927 52.1321C36.6546 52.2702 36.6518 52.4496 36.6363 52.6076C36.4652 54.3494 36.167 56.0704 35.697 57.7579C35.4556 58.6255 35.1899 59.4918 34.6667 60.2439C34.5426 60.4202 34.3445 60.5545 34.2543 60.7464C34.0192 61.2414 33.8145 61.7517 33.6235 62.2663C33.5216 62.544 33.5978 62.6103 33.9 62.5404C34.1459 62.4847 34.386 62.4079 34.615 62.3444C34.5722 62.5562 34.5168 62.7466 34.5026 62.9427C34.4769 63.2245 34.6032 63.3903 34.9082 63.3965C35.2132 63.4027 35.5192 63.4539 35.8216 63.4427C36.7015 63.4042 37.5191 62.9168 37.7382 62.0134C37.8146 61.6929 37.9291 61.3745 38.0566 61.0706C38.1164 60.9288 38.2448 60.8011 38.3682 60.7007C38.5605 60.5454 38.7817 60.4331 38.9773 60.2814C39.1367 60.1588 39.166 60.0015 39.0729 59.7996C39.0078 59.6579 38.9754 59.4869 38.9804 59.3318C39.0007 58.8942 39.0451 58.4615 39.0827 58.0249C39.1317 57.506 39.1844 56.9839 39.2334 56.4651C39.2691 56.0629 38.9719 55.7221 39.1292 55.2541C39.2532 54.8878 39.1886 54.418 39.2566 53.9969C39.3847 53.1715 39.4512 52.3324 39.6341 51.5204C39.9455 50.1316 40.3256 48.757 40.6814 47.381C40.7302 47.1868 40.8131 47.0013 40.8822 46.8151L40.9718 46.8269C40.9878 46.9141 41.0145 46.9985 41.02 47.0886C41.0725 47.6544 41.1039 48.226 41.1739 48.7893C41.2413 49.3352 41.3403 49.8759 41.4429 50.4134C41.4621 50.5077 41.5723 50.5862 41.6407 50.6693C41.7243 50.5979 41.8417 50.5456 41.8846 50.4581C42.0793 50.068 42.2536 49.67 42.4348 49.2723C42.6436 48.8139 42.832 48.3476 43.0678 47.9045C43.1373 47.7736 43.3475 47.6089 43.4646 47.6256C43.75 47.6722 43.9394 47.572 44.079 47.3654C44.26 47.099 44.4347 46.8218 44.5616 46.5282C44.6689 46.2785 44.8161 46.2519 44.9959 46.3895C45.2424 46.579 45.5344 46.7607 45.68 47.0173C46.1289 47.8222 46.5275 48.659 46.9229 49.4921C47.0162 49.6906 47.0205 49.9292 47.0816 50.1466C47.6337 52.052 47.9897 53.9917 48.0902 55.9727C48.2126 58.3797 47.8007 60.7231 47.1377 63.0253C46.9754 63.5863 46.7855 64.1424 46.5971 64.7366C46.9764 64.7157 47.3265 64.721 47.6726 64.6742C47.9592 64.6345 48.0676 64.7474 48.1089 65.0087C48.1349 65.169 48.1924 65.3241 48.2443 65.5169C48.8863 65.0683 49.4785 64.6411 50.0839 64.2285C50.2676 64.1038 50.3761 63.9577 50.4333 63.7363C50.5565 63.2561 50.7142 62.7811 50.8582 62.3019C51.1274 62.3926 51.3487 62.4702 51.5736 62.5446L51.6224 62.4782C51.5888 62.3935 51.5658 62.3059 51.5251 62.2242L51.5426 62.2217Z"/>
</mask>
<path d="M51.5426 62.2217C51.2124 61.5303 51.1538 60.8225 51.3914 60.0895C51.4205 60.0012 51.419 59.901 51.4135 59.8109C51.3247 58.6353 51.2183 57.4656 51.1505 56.2876C51.0215 54.0667 51.0312 51.8465 51.1902 49.624C51.2856 48.2511 51.4366 46.8778 51.4245 45.506C51.4048 43.4431 50.9156 41.4651 50.0005 39.5987C49.9506 39.4958 49.9453 39.3366 49.9857 39.2318C50.3246 38.3591 50.5266 37.4514 50.6291 36.5245C50.84 34.6225 50.7278 32.7307 50.3928 30.8509C50.358 30.6625 50.4082 30.5685 50.5435 30.4412C51.0515 29.968 51.5895 29.5172 52.0244 28.9848C53.4999 27.1793 54.005 25.1655 53.1696 22.9166C52.9788 22.4055 52.7168 21.9284 52.2851 21.5734C52.2021 21.5032 52.0389 21.4426 51.9573 21.4761C51.8826 21.51 51.8563 21.6744 51.8259 21.7867C51.7376 22.1342 51.7272 22.517 51.5649 22.8225C51.3052 23.323 50.984 23.8063 50.6272 24.2428C49.9401 25.0758 49.1347 25.7849 48.1923 26.3346C47.7982 26.5653 47.4085 26.5856 47.0376 26.3237C46.6667 26.0617 46.2893 25.7925 45.9666 25.4745C45.4429 24.9591 44.8357 24.5772 44.1719 24.2786C42.7391 23.6378 41.2083 23.3957 39.6646 23.2634C36.75 23.0117 33.8406 23.1747 30.9709 23.6921C29.0263 24.0423 27.1236 24.0045 25.2109 23.5758C23.2021 23.1281 21.2874 22.4162 19.3743 21.6767C18.3787 21.291 17.6937 20.6804 17.2553 19.7448C17.156 19.5287 17.0497 19.3157 16.9646 19.0935C16.6109 18.197 16.4568 17.2665 16.5125 16.3059C16.5201 16.1647 16.5171 16.0298 16.7238 15.9927C18.8436 15.6106 20.7452 14.7124 22.5043 13.4991C23.0415 13.1277 23.547 12.6993 24.0224 12.252C24.187 12.0951 24.2756 11.8064 24.2954 11.5691C24.3247 11.2219 24.058 11.0865 23.7411 11.2351C23.6057 11.3002 23.4631 11.3719 23.3157 11.4019C21.6528 11.7397 19.9933 12.0778 18.3277 12.4017C17.8752 12.4911 17.4121 12.5211 16.9929 12.5743C16.8551 12.0453 16.7637 11.5568 16.5943 11.0986C16.4491 10.7074 16.4023 10.356 16.6573 10.0038C16.6685 9.99054 16.6594 9.96587 16.6579 9.99342C16.4077 9.61717 16.1194 9.30448 15.9532 8.91552L16.0361 8.85787C16.2616 9.17751 16.4838 9.49352 16.7479 9.87052C16.93 9.45561 16.4348 9.31126 16.504 8.93166C16.6661 9.14079 16.796 9.30327 16.9158 9.46175C17.3263 9.18704 16.795 9.00274 16.9038 8.72545L17.2129 9.03927C17.2702 8.94223 17.2634 8.87624 17.2531 8.81006C17.2141 8.56963 17.3364 8.36215 17.5684 8.3713C17.8278 8.38541 17.9033 8.20992 18.0188 8.06423C17.8175 7.7459 17.9221 7.54437 18.3615 7.44047L18.0963 7.85086L18.2032 7.92575C18.398 7.72566 18.586 7.52175 18.7906 7.33256C18.8893 7.24121 19.0175 7.17911 19.1356 7.11301C19.175 7.09097 19.2142 7.07238 19.2568 7.05397C19.2994 7.03557 19.3386 7.01698 19.3813 6.99857C19.3626 6.95956 19.3539 6.92801 19.3554 6.90046C19.3569 6.87291 19.3686 6.84937 19.3833 6.8329C19.4353 6.77011 19.5446 6.73806 19.5801 6.66055C19.6274 6.55606 19.7053 6.46359 19.781 6.34682L19.8294 6.34945L20.0184 6.3839C20.014 6.52872 20.0168 6.60486 20.0568 6.63466C20.0968 6.66447 20.1744 6.64106 20.3121 6.59674C21.9665 6.03393 23.6055 6.07124 25.237 6.69527C25.3968 6.75577 25.5639 6.80975 25.7332 6.82241C25.8266 6.82749 25.9216 6.7394 26.0178 6.69283C25.9629 6.61731 25.9237 6.50812 25.8495 6.46954C24.4639 5.72763 23.0175 5.14474 21.447 4.93156C17.9064 4.4524 15.1671 5.76095 13.1439 8.6419C12.982 8.87486 12.8001 9.03075 12.5353 9.05089C12.2463 9.06971 11.9365 9.08741 11.6595 9.01363C11.0439 8.84892 10.8733 8.60479 10.8557 7.9718C10.8157 6.60193 10.6037 5.26762 9.99835 4.02243C9.26806 2.52179 8.19967 1.36886 6.56354 0.830913C6.3011 0.744115 6.02146 0.71855 5.75865 0.638639C5.61869 0.596492 5.49743 0.465564 5.35654 0.440634C4.72835 0.316682 4.10147 0.168624 3.46842 0.134205C3.0533 0.111635 2.62359 0.229875 2.21173 0.338725C1.97584 0.401882 1.77219 0.573859 1.67634 0.869124C1.77759 0.857361 1.84426 0.843716 1.90671 0.843658C2.64 0.82136 3.37207 0.75755 4.10237 0.790349C4.55918 0.811733 5.05835 0.883772 5.45279 1.09517C6.53132 1.67879 7.32719 2.54751 7.7599 3.71423C8.32899 5.2441 8.42696 6.82434 8.27726 8.4291C8.26837 8.52878 8.19646 8.63884 8.1197 8.71065C7.86369 8.95231 7.60114 9.18671 7.32222 9.40295C7.22087 9.48032 7.05781 9.54399 6.94113 9.52038C6.44654 9.42786 5.94504 9.33498 5.46785 9.17779C4.00552 8.69764 2.69823 7.91854 1.44862 7.03552C1.1947 6.85593 0.948075 6.66983 0.651055 6.45337C0.643565 6.59111 0.6358 6.67012 0.634766 6.75296C0.638172 7.51988 0.963679 8.16961 1.39942 8.77008C2.10627 9.74448 3.00022 10.5322 3.99085 11.2008C4.53292 11.5688 5.10471 11.9003 5.69334 12.1775C5.9641 12.3028 6.09788 12.4586 6.10824 12.7147C6.11169 12.8427 6.00407 12.9715 5.96217 13.104C5.83723 13.4874 5.41807 13.8584 5.90562 14.2717C5.91543 14.2826 5.91758 14.3069 5.91646 14.3276C5.93084 14.5736 6.00347 14.8331 5.95268 15.0652C5.80987 15.7136 5.92801 16.3486 5.99042 16.9875C6.03237 17.4284 6.0947 17.8773 6.06035 18.3176C5.99625 19.1775 5.91794 20.0436 5.76772 20.892C5.55232 22.1098 5.86274 23.2284 6.32014 24.324C6.54711 24.8716 6.93303 25.3036 7.55542 25.4065C7.88218 25.4588 7.99736 25.6378 8.02389 25.9155C8.08219 26.5024 8.15452 27.0865 8.17458 27.6748C8.21861 29.0345 8.18308 30.3899 7.87792 31.7272C7.83228 31.9285 7.85161 32.1471 7.84038 32.3537L7.91499 32.3854C8.02085 31.9698 8.25527 31.6786 8.65787 31.5485C8.68366 31.7123 8.706 31.8758 8.73487 32.0466L8.76319 32.2277C8.61827 32.3407 8.39069 32.4423 8.37346 32.7592C8.83974 32.5427 9.27395 32.3419 9.69413 32.1437C9.72723 32.1731 9.74069 32.1807 9.7405 32.1842C9.75741 32.4476 9.77066 32.7142 9.79449 32.978C9.96938 34.8664 10.5847 36.568 11.9604 37.938C12.0263 38.0037 12.0691 38.1096 12.0882 38.2039C12.1955 38.7831 12.2502 39.3732 12.3999 39.9374C12.8518 41.6439 13.5767 43.2445 14.3548 44.8237C14.4139 44.9478 14.4581 45.0918 14.4647 45.2268C14.5329 46.7157 14.5698 48.2062 14.6659 49.6931C14.7562 51.0968 14.9229 52.4977 15.3072 53.8518C15.7995 55.5813 15.8245 57.2922 15.2768 59.0066C15.2435 59.1084 15.234 59.2184 15.2148 59.3175C15.6416 59.4443 15.6132 59.0732 15.7889 58.9032C15.8003 59.0765 15.8097 59.2877 15.7114 59.3721C15.5696 59.4922 15.3461 59.5181 15.0808 59.6107C15.0269 59.7736 14.905 60.0363 14.8484 60.313C14.7121 60.9687 14.3279 61.4624 13.8462 61.899C13.6821 62.0455 13.5149 62.185 13.3541 62.3351C13.2883 62.3971 13.2217 62.473 13.1859 62.5574C13.0116 62.9554 12.8338 63.3533 12.6866 63.7632C12.6252 63.936 12.6316 64.1367 12.6075 64.3253C12.7918 64.3181 12.9844 64.3492 13.1536 64.2997C13.478 64.2034 13.7878 64.0579 14.1389 63.9181C14.0835 64.1707 14.0469 64.3967 13.9798 64.6106C13.9044 64.8483 13.9995 64.9501 14.2195 64.9241C14.7394 64.8695 15.2597 64.808 15.7746 64.7185C16.7168 64.5556 17.22 63.9786 17.3061 63.0335C17.3447 62.6419 17.3868 62.2504 17.4337 61.8351C17.6039 61.8961 17.7502 61.949 17.9546 62.0188C18.0109 61.8112 18.0973 61.6259 18.1005 61.4396C18.1121 60.9084 18.0856 60.375 18.0762 59.8461C18.0429 57.8411 18.0129 55.8398 17.9728 53.8344C17.96 53.2396 17.8884 52.6417 17.9035 52.045C17.9282 51.1449 17.984 50.2465 18.0744 49.35C18.1688 48.4434 18.3114 47.5428 18.454 46.6422C18.5064 46.3169 18.758 46.2201 19.0586 46.3711C19.4572 46.569 19.7236 47.0946 19.6824 47.5966C19.6616 47.8511 19.6199 48.1078 19.6234 48.3636C19.6674 50.2345 19.7081 52.1017 19.7765 53.9704C19.7982 54.5277 19.8965 55.0822 19.9634 55.6384C20.0035 55.986 20.106 56.3335 20.0873 56.6778C20.0305 57.7212 19.9254 58.762 19.855 59.8012C19.7768 60.985 19.3426 62.0148 18.5157 62.8644C18.1886 63.2024 17.8052 63.4889 17.4302 63.8139L17.5739 64.1705C17.2259 64.3174 17.0618 64.5917 17.0217 64.9452C17.0014 65.1272 17.0408 65.2329 17.2633 65.2243C17.4962 65.2162 17.7305 65.2462 18.0072 65.2613C17.9543 65.3413 17.9217 65.3672 17.9165 65.398C17.887 65.5587 17.8223 65.7279 17.8559 65.8747C17.8699 65.9377 18.0888 65.9945 18.2139 65.9909C19.2985 65.9532 20.3235 65.6704 21.2618 65.1309C21.4659 65.0142 21.6659 64.7833 21.7366 64.5661C21.879 64.1179 21.9327 63.6408 22.0239 63.176C22.0429 63.0804 22.0553 62.9809 22.0722 62.8609C22.3204 62.9538 22.5277 63.0342 22.7758 63.1306C22.7642 62.8329 22.7504 62.5766 22.7502 62.3244C22.7524 61.0709 22.7685 59.818 22.7567 58.5671C22.7462 57.5477 22.7066 56.5543 22.9841 55.5333C23.496 53.6477 23.5334 51.6846 23.6182 49.7412C23.6326 49.4139 23.6174 49.0539 23.7475 48.7674C24.268 47.618 24.8494 46.496 25.3868 45.3544C25.4966 45.1221 25.6493 45.0579 25.881 45.0083C26.4318 44.8966 26.9766 44.7674 27.5127 44.6066C27.7843 44.5246 28.0278 44.2581 28.2845 44.2583C28.5518 44.2555 28.8166 44.491 29.0919 44.5957C30.4142 45.0993 31.8045 45.1818 33.1989 45.2507C33.749 45.2807 34.3015 45.328 34.8495 45.3958C35.3492 45.4575 35.7046 45.7496 35.9337 46.1938C36.2573 46.8158 36.3357 47.4797 36.2327 48.1614C36.0271 49.5179 36.0207 50.8473 36.5927 52.1321C36.6546 52.2702 36.6518 52.4496 36.6363 52.6076C36.4652 54.3494 36.167 56.0704 35.697 57.7579C35.4556 58.6255 35.1899 59.4918 34.6667 60.2439C34.5426 60.4202 34.3445 60.5545 34.2543 60.7464C34.0192 61.2414 33.8145 61.7517 33.6235 62.2663C33.5216 62.544 33.5978 62.6103 33.9 62.5404C34.1459 62.4847 34.386 62.4079 34.615 62.3444C34.5722 62.5562 34.5168 62.7466 34.5026 62.9427C34.4769 63.2245 34.6032 63.3903 34.9082 63.3965C35.2132 63.4027 35.5192 63.4539 35.8216 63.4427C36.7015 63.4042 37.5191 62.9168 37.7382 62.0134C37.8146 61.6929 37.9291 61.3745 38.0566 61.0706C38.1164 60.9288 38.2448 60.8011 38.3682 60.7007C38.5605 60.5454 38.7817 60.4331 38.9773 60.2814C39.1367 60.1588 39.166 60.0015 39.0729 59.7996C39.0078 59.6579 38.9754 59.4869 38.9804 59.3318C39.0007 58.8942 39.0451 58.4615 39.0827 58.0249C39.1317 57.506 39.1844 56.9839 39.2334 56.4651C39.2691 56.0629 38.9719 55.7221 39.1292 55.2541C39.2532 54.8878 39.1886 54.418 39.2566 53.9969C39.3847 53.1715 39.4512 52.3324 39.6341 51.5204C39.9455 50.1316 40.3256 48.757 40.6814 47.381C40.7302 47.1868 40.8131 47.0013 40.8822 46.8151L40.9718 46.8269C40.9878 46.9141 41.0145 46.9985 41.02 47.0886C41.0725 47.6544 41.1039 48.226 41.1739 48.7893C41.2413 49.3352 41.3403 49.8759 41.4429 50.4134C41.4621 50.5077 41.5723 50.5862 41.6407 50.6693C41.7243 50.5979 41.8417 50.5456 41.8846 50.4581C42.0793 50.068 42.2536 49.67 42.4348 49.2723C42.6436 48.8139 42.832 48.3476 43.0678 47.9045C43.1373 47.7736 43.3475 47.6089 43.4646 47.6256C43.75 47.6722 43.9394 47.572 44.079 47.3654C44.26 47.099 44.4347 46.8218 44.5616 46.5282C44.6689 46.2785 44.8161 46.2519 44.9959 46.3895C45.2424 46.579 45.5344 46.7607 45.68 47.0173C46.1289 47.8222 46.5275 48.659 46.9229 49.4921C47.0162 49.6906 47.0205 49.9292 47.0816 50.1466C47.6337 52.052 47.9897 53.9917 48.0902 55.9727C48.2126 58.3797 47.8007 60.7231 47.1377 63.0253C46.9754 63.5863 46.7855 64.1424 46.5971 64.7366C46.9764 64.7157 47.3265 64.721 47.6726 64.6742C47.9592 64.6345 48.0676 64.7474 48.1089 65.0087C48.1349 65.169 48.1924 65.3241 48.2443 65.5169C48.8863 65.0683 49.4785 64.6411 50.0839 64.2285C50.2676 64.1038 50.3761 63.9577 50.4333 63.7363C50.5565 63.2561 50.7142 62.7811 50.8582 62.3019C51.1274 62.3926 51.3487 62.4702 51.5736 62.5446L51.6224 62.4782C51.5888 62.3935 51.5658 62.3059 51.5251 62.2242L51.5426 62.2217Z" fill="white" stroke="#95C11F" stroke-width="3" mask="url(#path-1-inside-1_2011_2)"/>
</svg>
