<svg width="71" height="97" viewBox="0 0 71 97" fill="none" xmlns="http://www.w3.org/2000/svg">
<g clip-path="url(#clip0_282_2803)">
<path d="M44.7272 93.393C43.4214 94.595 42.1155 95.798 40.8108 97C40.7387 96.9319 40.6656 96.8627 40.5935 96.7946C41.5315 95.7256 42.4694 94.6555 43.4074 93.5865C43.3461 93.5292 43.2858 93.473 43.2245 93.4157C42.6845 93.9356 42.1435 94.4545 41.653 94.9268C39.847 93.8059 38.1098 92.7282 36.3737 91.6495C36.349 91.6733 36.3253 91.696 36.3006 91.7197C36.7879 92.1845 37.2762 92.6482 37.7635 93.113C37.7323 93.1476 37.7011 93.1822 37.6699 93.2168C36.9298 92.6201 36.1898 92.0235 35.4487 91.4257C35.4175 91.4484 35.3874 91.4711 35.3562 91.4938L35.8693 92.2591C33.5308 90.4929 31.6721 88.3419 30.5567 85.4991C30.9944 86.006 31.3957 86.4687 31.7958 86.9324L31.9152 86.8351C31.1676 85.618 30.42 84.4009 29.6725 83.1838C29.7241 83.1459 29.7757 83.1081 29.8274 83.0703C30.5104 83.9177 31.1945 84.7652 31.8775 85.6126L31.9819 85.5283C30.9235 83.9069 29.865 82.2855 28.8066 80.6642C28.8485 80.6382 28.8894 80.6123 28.9314 80.5853C30.0823 81.9515 31.2343 83.3178 32.3853 84.6841L32.538 84.5555C31.514 83.0984 30.3587 81.7137 29.5015 80.1637C28.6635 78.6494 28.2903 76.9307 28.3925 75.1191C29.0669 76.4497 29.7306 77.7565 30.3932 79.0633C30.4545 79.0363 30.5147 79.0093 30.576 78.9834C30.0672 77.7057 29.5574 76.427 29.0486 75.1494L29.1497 75.1029C29.5122 75.8465 29.8747 76.5913 30.2383 77.335C30.2791 77.3209 30.3211 77.3058 30.362 77.2917C29.8414 75.812 29.3197 74.3322 28.7991 72.8524C28.9034 72.8016 29.0077 72.7497 29.1131 72.6989L30.5889 75.5688C30.6384 75.5482 30.6879 75.5277 30.7374 75.5071C30.5007 74.8564 30.263 74.2068 30.0264 73.5561C30.0672 73.5345 30.107 73.5118 30.1479 73.4902C30.3534 73.7863 30.5588 74.0814 30.7632 74.3776L30.8707 74.3311C30.7686 73.9031 30.6664 73.4739 30.5448 72.967C31.2989 74.1938 32.0045 75.3407 32.709 76.4886L32.8381 76.4183L31.3978 72.5681C31.4946 72.5281 31.5925 72.4882 31.6893 72.4482C31.8818 72.8643 32.0744 73.2805 32.2659 73.6966L32.4143 73.6545C32.3024 73.194 32.1906 72.7324 32.0217 72.0396C32.4014 72.4546 32.6262 72.7011 32.9102 73.0124C32.7424 72.272 32.5961 71.6234 32.4487 70.9738C32.5294 70.9522 32.6111 70.9306 32.6918 70.9079C32.8499 71.3067 33.0091 71.7045 33.1672 72.1033C33.1963 72.0979 33.2264 72.0915 33.2554 72.0861C33.2167 71.7456 33.1791 71.404 33.1393 71.0473C33.6739 71.9974 34.1913 72.9162 34.799 73.9982C34.7603 73.6588 34.7409 73.4837 34.7355 73.4426C35.6208 73.9085 36.5695 74.4089 37.5193 74.9094C37.5537 74.8813 37.5881 74.8532 37.6236 74.8251C37.3978 74.5192 37.1708 74.2122 36.9449 73.9063C37.9431 75.2088 39.4028 74.8856 40.8 75.0888C40.3741 74.7224 40.0255 74.4219 39.676 74.1203C39.7093 74.0663 39.7427 74.0112 39.776 73.9571C40.0449 74.0447 40.3138 74.1322 40.7269 74.2673C40.6806 73.8631 40.6462 73.555 40.6085 73.2243C42.079 73.3302 43.1352 72.4071 44.3389 71.6029C44.4002 71.8482 44.4475 72.0428 44.5088 72.2882C44.7154 72.2212 44.9186 72.1552 45.1209 72.0904C45.2413 72.3974 45.3597 72.6978 45.5092 73.0783C45.6963 72.6946 45.8437 72.3909 45.9943 72.0806C46.317 72.3487 46.6322 72.6092 47.0742 72.9756C47.5357 72.7876 48.1875 72.5227 49.1051 72.1498C48.7738 72.5962 48.5823 72.8535 48.3629 73.1497C50.1355 72.6395 50.7056 71.297 50.9046 69.6821C50.9293 69.4843 50.9369 69.2822 50.9283 69.0822C50.8971 68.3731 50.796 67.6651 51.6178 67.2511C51.8254 67.1463 51.9093 66.7939 52.0867 66.4923C53.9379 68.4812 53.5744 70.937 53.811 73.2729C53.8196 73.1843 53.8314 73.0967 53.8347 73.0081C53.839 72.8946 53.8347 72.7811 53.8347 72.66C55.5234 75.4542 56.5012 78.9531 55.2717 83.2919V79.526L55.2147 79.513C55.0813 80.3269 54.949 81.1398 54.8156 81.9537L54.7178 81.9418V79.3325L54.621 79.3163C54.2058 81.5959 53.7895 83.8756 53.3743 86.1563C53.3001 86.1444 53.2258 86.1314 53.1516 86.1195C53.2495 85.4807 53.3474 84.8419 53.4453 84.2031C53.4098 84.1955 53.3743 84.1879 53.3388 84.1815C52.7117 86.1952 52.0857 88.2089 51.4586 90.2227L51.2736 90.1686C51.5435 89.2001 51.8135 88.2316 52.0835 87.2631L51.9448 87.2134C51.65 87.9495 51.3564 88.6856 51.0466 89.4606C50.8734 89.3374 50.7519 89.2509 50.612 89.1515C50.0721 90.1027 49.5471 91.0258 49.0233 91.9478C48.9824 91.9273 48.9426 91.9067 48.9018 91.8862C48.9867 91.6063 49.0717 91.3252 49.2201 90.8334C47.981 92.632 46.872 94.2426 45.762 95.8532C45.677 95.8121 45.592 95.771 45.507 95.7288C45.635 95.3419 45.762 94.9549 45.8975 94.5463C45.762 94.5734 45.6404 94.5982 45.2381 94.6793C45.8986 93.3757 46.4837 92.2213 47.0689 91.068L47.0075 91.0258C45.6253 92.605 44.2431 94.1853 42.862 95.7645C42.7867 95.7051 42.7114 95.6445 42.6361 95.5851C43.2772 94.7885 43.9183 93.9918 44.5594 93.1952C44.6153 93.2611 44.6723 93.326 44.7283 93.3919L44.7272 93.393ZM50.313 86.1974C52.2266 83.5437 53.1011 80.9009 52.6203 79.019C51.835 81.4608 51.0724 83.8345 50.313 86.1974Z" fill="#95C11F"/>
<path d="M68.2735 14.789C68.7898 16.231 69.262 17.6924 69.8364 19.1116C70.4786 20.7006 71.266 22.2311 70.9132 24.0417C70.5894 25.7019 69.5955 26.932 68.422 28.0389C66.4783 29.8721 64.0269 30.8384 61.6831 32.0047C59.2704 33.2056 56.8233 34.3925 54.5967 35.8928C53.1962 36.8364 52.1356 38.3129 50.9965 39.6154C50.3415 40.3656 50.3081 41.3211 50.6803 42.3869C49.5606 42.0043 48.5882 41.6724 47.5254 41.3092C48.0708 39.837 48.4924 38.5799 49.0066 37.3639C49.2465 36.7964 49.6294 36.2754 50.0134 35.7847C51.2149 34.252 51.8764 32.5376 51.7732 30.5444C51.7151 30.7552 51.6484 30.9627 51.6032 31.1757C51.5494 31.4265 51.5752 31.7129 51.4612 31.928C50.8373 33.1029 50.3135 34.3644 49.5035 35.3988C48.2741 36.9704 47.3501 38.6772 46.566 40.491C46.4401 40.7828 46.069 40.9687 45.6484 41.3514C46.1744 40.4002 46.5412 39.6738 46.965 38.982C47.8105 37.6017 48.586 36.1608 49.5745 34.8897C50.8191 33.2889 51.5053 31.5497 51.5569 29.537C51.614 27.3082 51.6548 25.0782 51.7441 22.8505C51.7613 22.4106 51.9689 21.9793 52.2766 21.5707C52.8671 25.69 53.7964 29.7662 52.6272 33.8953C55.1367 31.9593 57.2138 29.2981 57.8527 27.1904C57.9269 26.945 58.0764 26.6758 58.0345 26.4478C57.6935 24.6297 58.2238 22.8116 58.0119 20.9913C57.9495 20.4595 58.1345 19.8996 58.2066 19.3527L58.468 19.3213C58.5486 19.4997 58.6734 19.6704 58.7024 19.8564C58.9337 21.3221 59.2091 22.7846 59.3511 24.2589C59.5985 26.8358 59.1176 29.2095 57.1675 31.0989C56.7007 31.5508 56.2747 32.0458 55.8671 32.5711C58.327 30.3607 61.6906 30.2158 64.4453 28.7188C65.6328 28.0735 66.787 27.2963 67.7841 26.3883C69.1405 25.1539 69.489 23.5379 69.062 21.5447C69.0125 21.7588 68.9695 21.8474 68.977 21.9306C69.1781 24.3454 67.9498 26.0803 66.0211 27.1309C63.9505 28.2594 61.668 28.9944 59.4769 29.9013C59.435 29.791 59.3941 29.6819 59.3521 29.5716C60.5956 29.1446 61.8369 28.7134 63.0825 28.2918C64.7164 27.7384 66.2567 27.0379 67.3969 25.6609C68.6575 24.1389 69.0803 22.4581 68.4284 20.5481C68.1993 19.878 67.9992 19.1992 67.7852 18.5247C67.7067 18.5225 67.6271 18.5214 67.5485 18.5193C67.4883 19.0749 67.4109 19.6294 67.37 20.186C67.2646 21.6366 67.2097 23.0915 67.0548 24.5367C67.0129 24.9248 66.7289 25.316 66.4772 25.6457C65.2499 27.2563 63.4084 27.8216 61.5357 28.5253C61.9444 27.4606 62.3575 26.4824 62.6985 25.4793C63.7644 22.3425 63.516 19.3591 61.9401 16.3866C60.6096 13.8757 59.5414 11.222 58.412 8.60731C57.7042 6.96756 56.8975 5.41321 55.6229 4.13665C55.2959 3.80914 55.041 3.40812 54.7527 3.04169C54.8075 2.96602 54.8635 2.89144 54.9183 2.81578C55.2292 2.94765 55.5637 3.04277 55.8477 3.21788C58.4357 4.81546 60.1567 7.15456 61.4378 9.86441C61.8885 10.8178 62.3198 11.783 62.8092 12.7159C63.0588 13.1915 63.3826 13.639 63.7322 14.0486C64.5292 14.9858 65.0412 15.0647 66.4342 14.5134C66.7999 15.6754 67.1667 16.8374 67.5324 17.9994C67.6174 17.9799 67.7024 17.9615 67.7884 17.9421C66.5794 14.4129 65.4747 10.8729 66.6816 7.05836C66.7601 7.32967 66.8623 7.59773 66.9139 7.87445C67.3334 10.086 67.7411 12.3008 68.1584 14.5123C68.1789 14.6183 68.2509 14.7134 68.2993 14.8139L68.2767 14.7869L68.2735 14.789Z" fill="#95C11F"/>
<path d="M14.346 2.67742C14.0717 3.2503 13.8684 3.87291 13.5113 4.3885C12.1 6.42602 10.7286 8.50138 9.17751 10.4286C6.99395 13.1417 5.88604 16.1272 6.28188 19.6261C6.29156 19.7083 6.27112 19.7926 6.24746 20.1136C5.44933 17.701 6.16463 15.6516 6.75624 13.5849C5.5214 15.4743 4.91689 17.5508 5.3493 19.771C5.80967 22.1328 6.49163 24.4502 7.12949 27.0012C5.57948 25.4058 4.40165 23.7812 3.74766 21.8669C3.2733 20.4779 3.12809 18.9787 2.73225 17.5583C2.36008 16.2223 2.0632 14.7966 1.36188 13.6368C-0.364523 10.781 -0.329027 7.87661 0.793945 4.92464C1.31348 3.55836 2.15786 2.31315 2.89468 1.03551C3.0657 0.739343 3.39593 0.537212 3.65408 0.290764L3.85738 0.398855C3.67667 0.944716 3.55082 1.51652 3.30772 2.03211C2.40956 3.93776 1.70286 5.91151 1.83087 8.0355C1.89648 9.11533 2.19766 10.2373 2.64513 11.2253C3.34537 12.771 4.62324 12.905 5.74191 11.6166C7.70495 9.35746 9.62068 7.05728 11.5418 4.7625C12.285 3.87399 13.009 2.97467 14.0835 2.48718L14.3471 2.67526L14.346 2.67742Z" fill="#95C11F"/>
<path d="M21.4853 34.8843C22.4899 36.0452 23.501 37.1996 24.4949 38.3702C24.7111 38.6253 24.8649 38.9345 25.0521 39.2242C24.965 39.2609 24.9015 39.3117 24.8735 39.2966C20.7818 36.9975 16.6761 34.7211 12.6091 32.3798C10.3986 31.1076 8.48504 29.4765 7.57075 26.9871C6.64247 24.46 6.61665 21.8355 7.03938 19.2046C7.50298 16.3142 8.32155 13.5276 9.60156 10.8902C9.71881 10.6481 9.88338 10.4297 10.0264 10.1995L10.2437 10.2525C10.2437 10.5032 10.2771 10.7594 10.2383 11.0048C9.81669 13.7125 9.34018 16.4126 8.97231 19.1278C8.80451 20.3676 8.78945 21.6377 8.80128 22.8926C8.8228 25.2728 10.0372 27.0379 11.9379 28.2875C13.6696 29.4268 15.495 30.4266 17.315 31.4254C18.3207 31.9777 19.2867 32.5084 19.9751 33.4964C20.3698 34.0639 20.9916 34.4735 21.51 34.9535L21.4863 34.8864L21.4853 34.8843Z" fill="#95C11F"/>
<path d="M49.9517 46.9116C49.9151 47.2067 49.8785 47.5018 49.8248 47.9309C50.3023 47.611 50.6595 47.371 51.0176 47.1321C51.0886 47.1862 51.1607 47.2391 51.2317 47.2932C51.0542 47.5893 50.8907 47.8963 50.696 48.1806C49.9624 49.2496 49.6957 50.3705 49.9033 51.7C50.013 52.4048 49.6322 53.1874 49.4773 53.9138C49.7 54.3018 49.9571 54.7039 50.169 55.1298C50.6971 56.1934 51.8502 56.8927 51.9459 58.2071C53.3593 58.7822 52.9032 59.9766 52.8807 61.0326C52.8764 61.2348 52.9441 61.4391 52.9785 61.6423C52.8979 61.6769 52.8183 61.7104 52.7376 61.745C52.53 61.372 52.2665 61.0197 52.1245 60.623C51.662 59.3237 51.0252 58.205 49.8968 57.3154C49.1019 56.6885 48.5878 55.7146 47.8821 54.9568C46.7022 53.6911 45.3802 52.5475 44.2916 51.2104C43.6086 50.3705 42.8761 50.283 41.9758 50.4181C41.7972 50.4451 41.5488 50.5251 41.4778 50.658C40.926 51.6849 40.3354 52.7021 39.9062 53.7808C39.5007 54.8001 39.2748 55.8918 38.9597 56.9889C37.6065 56.3534 37.2182 57.9575 36.1501 58.4601C36.1942 57.8483 36.2275 57.3781 36.263 56.896C36.163 56.9392 36.0415 56.9922 35.7725 57.11C36.0694 56.5923 36.3018 56.1858 36.6191 55.6313C36.2157 55.694 35.935 55.7383 35.5112 55.8043C36.0027 55.3092 36.4179 54.8898 36.9074 54.3969C36.5922 54.318 36.348 54.2564 36.0705 54.1872C36.2889 53.8392 36.4975 53.5052 36.7363 53.1236C36.4319 53.1495 36.1609 53.1733 35.8898 53.1971L35.8468 53.1096C36.1544 52.9669 36.4631 52.8253 36.903 52.621C36.5707 52.3918 36.3061 52.2113 35.9726 51.9811C36.2232 52.0027 36.4147 52.0189 36.7503 52.047C36.4696 51.7995 36.2932 51.6438 36.0415 51.4223C36.2996 51.3174 36.4879 51.2417 36.7374 51.1401C36.3104 50.6851 35.8973 50.2462 35.4854 49.8063L35.6467 49.6269C36.4448 50.0754 37.4871 49.2031 38.2498 50.1976C38.3358 49.9436 38.4122 49.7155 38.4789 49.5188C39.633 49.3599 40.7861 48.3525 41.9994 49.535C42.0425 49.2734 42.0747 49.0713 42.1156 48.8248C42.8546 48.9318 43.572 49.0345 44.3476 49.1469C44.3357 48.8962 44.325 48.6929 44.3089 48.3492C44.7348 48.7427 45.0629 49.0464 45.2511 49.2204C45.7868 49.1848 46.1579 49.1599 46.5042 49.1361C46.7151 49.3772 46.9517 49.6485 47.1432 49.8668C48.0327 48.8227 48.9094 47.7925 49.7871 46.7635L49.956 46.9116H49.9517Z" fill="#95C11F"/>
<path d="M21.4851 34.8843L21.5087 34.9513C20.7547 33.8509 19.8845 32.8111 19.2714 31.6372C18.1914 29.5705 18.0495 27.3384 18.4539 25.0426C18.7056 23.6158 18.8185 22.1652 19.0057 20.7265C19.0294 20.5417 19.1187 20.3644 19.3983 20.1104C19.5339 20.372 19.7716 20.627 19.7888 20.8951C19.8587 22.0041 19.8684 23.1164 19.8834 24.2286C19.8877 24.5129 19.8404 24.7983 19.8038 25.0815C19.2811 29.0884 20.8569 32.0155 24.3086 34.0077C25.3176 34.5903 26.2814 35.254 27.2537 35.9003C27.5388 36.0895 27.7797 36.3468 28.04 36.5727C27.9744 36.6473 27.9088 36.7208 27.8432 36.7953C26.233 35.8441 24.6227 34.894 23.0125 33.9428C22.9705 33.985 22.9286 34.0282 22.8856 34.0704C23.3083 34.4325 23.7224 34.8054 24.1548 35.1567C25.0143 35.856 25.9597 36.47 26.7181 37.2655C27.1193 37.686 27.2785 38.3951 27.4108 39.0036C27.6033 39.8911 27.641 40.812 27.8109 41.7059C27.8733 42.0313 28.125 42.321 28.3541 42.5912C27.613 40.3072 27.5549 38.1378 28.5542 35.8625C29.0705 34.6865 28.9909 33.2478 29.2017 31.9323C29.5008 30.0753 29.8095 28.2194 30.1418 26.3678C30.1881 26.1084 30.3925 25.877 30.5237 25.6338L30.7894 25.6868C30.826 25.9992 30.8969 26.3116 30.8937 26.624C30.8615 29.1641 30.8937 31.7096 30.7399 34.2433C30.6571 35.6182 30.2838 36.9802 29.9687 38.3313C29.8794 38.7118 29.561 38.8556 30.0999 39.2868C30.613 39.6976 30.7528 40.5785 31.0572 41.2541C30.954 41.2692 30.8152 41.3341 30.7507 41.2898C29.8095 40.6488 29.3007 39.1323 29.6524 38.0135C29.9041 37.2126 30.1795 36.4192 30.4441 35.6225C28.4692 38.2719 28.381 40.6607 30.2344 42.535C30.5183 42.0734 30.7765 41.653 31.0357 41.2314C31.0884 41.2509 31.1476 41.2617 31.1938 41.2919C31.4746 41.4757 31.7521 41.6638 32.0307 41.8497C31.7091 42.0724 31.4057 42.3307 31.0615 42.5101C29.7492 43.1976 28.025 42.963 27.0504 44.4104L26.8342 44.3131C26.8837 44.0234 26.9547 43.7359 26.9773 43.444C27.0096 43.0322 27.1591 42.5361 26.9934 42.2161C25.8307 39.9721 24.7453 37.6622 22.8318 35.9198C22.4155 35.5404 21.9368 35.2291 21.4861 34.8875L21.4851 34.8843Z" fill="#95C11F"/>
<path d="M50.5366 63.7198C51.0099 64.1911 51.6391 64.6202 50.9324 65.3822C50.5431 65.8027 50.173 66.2416 49.7621 66.7085C50.102 66.8761 50.2677 66.9582 50.4839 67.0641C50.3667 67.1538 50.3086 67.2371 50.2462 67.2403C49.3168 67.2933 48.3875 67.3398 47.4581 67.3787C46.7224 67.41 45.9834 67.3938 45.252 67.463C44.414 67.5419 43.4094 66.996 42.9641 66.2232C42.8016 65.9421 42.494 65.7443 42.2455 65.5152C42.082 65.3639 41.868 65.2504 41.7475 65.072C41.5776 64.8202 41.5259 64.4764 41.328 64.2592C41.1376 64.0505 40.8246 63.9533 40.5977 63.6484C40.859 63.6614 41.1452 63.6085 41.3764 63.6982C42.3918 64.0905 42.6736 64.0008 43.1383 63.0161C43.2588 62.761 43.3621 62.493 43.4288 62.2195C43.5729 61.625 43.4621 61.2359 42.7178 61.1948C42.437 61.1796 42.1444 60.8997 41.9164 60.6792C41.8443 60.61 41.9013 60.263 42.0067 60.1755C42.4198 59.8372 42.8414 59.4599 43.3276 59.2772C43.7149 59.1313 44.2 59.2481 44.6464 59.3561C45.523 59.1875 46.3567 58.6146 47.3301 59.1497C47.4721 59.2275 47.6732 59.2762 47.8271 59.2437C48.9371 59.0049 49.9375 58.9303 50.4925 60.2609C50.5818 60.4749 51.1626 60.4825 51.6424 60.6219C49.4362 61.8271 49.1877 62.6562 50.5549 63.7836L50.5366 63.7198ZM49.7245 66.9096C48.8425 66.047 47.8206 65.8795 46.8289 65.8568C46.4696 65.8481 46.0996 66.4275 45.7274 66.7291C45.6198 66.8155 45.4875 66.8717 45.3671 66.942C46.7869 66.5323 48.2078 67.7019 49.7245 66.9096Z" fill="#95C11F"/>
<path d="M20.5132 40.705C17.8553 39.0361 15.433 37.5152 13.0106 35.9944C12.9482 36.07 12.8858 36.1457 12.8224 36.2214C13.1332 36.6645 13.4452 37.1077 13.7141 37.4904H11.2294C10.7572 38.2827 11.3079 39.0685 11.5886 39.7322C11.878 40.4186 12.3502 41.0109 12.3211 41.8151C12.3168 41.9416 12.4405 42.0691 12.4943 42.201C12.6589 42.602 13.1989 42.8387 12.7761 43.4948C12.6169 43.7424 13.1397 44.4525 13.3817 44.9368C13.5205 45.2156 13.8453 45.434 13.4387 45.7766C13.3785 45.8274 13.5323 46.2976 13.699 46.4328C15.362 47.7644 17.0593 49.0507 18.7212 50.3824C19.458 50.9726 20.1368 51.6363 20.7983 52.3594C19.827 52.3659 18.846 52.514 18.0898 51.6979C18.0522 51.6579 18.0016 51.6168 17.95 51.6049C16.415 51.2623 15.6255 49.7933 14.282 49.1458C13.9249 48.974 13.6377 48.5794 13.4065 48.2281C11.3843 45.1616 9.98269 41.8562 9.7568 38.1378C9.71055 37.3758 9.80951 36.5964 9.91492 35.8355C10.0128 35.121 10.4743 34.7503 11.2089 34.7243C12.4814 34.68 13.656 35.0648 14.6596 35.7804C15.8794 36.6494 16.9797 37.686 18.1522 38.6242C18.6707 39.0382 19.259 39.3625 19.7775 39.7754C20.0238 39.9711 20.1809 40.2791 20.51 40.7061L20.5132 40.705Z" fill="#95C11F"/>
<path d="M55.1128 50.6332C55.6807 50.1878 56.1863 49.7901 56.7456 49.3501C56.6585 49.2712 56.5499 49.1718 56.4219 49.0561C56.8435 48.9243 57.2609 48.7945 57.6782 48.6638C57.675 48.6227 57.6728 48.5816 57.6696 48.5405C57.4437 48.5038 57.2189 48.467 56.9403 48.4216C57.0296 48.3622 57.0823 48.32 57.1404 48.2898C57.7191 47.9882 58.3817 47.7861 58.8571 47.3677C59.6133 46.7008 60.1457 45.8534 60.5147 44.8676C60.9396 43.7315 61.6452 42.7014 62.0797 41.5686C62.7305 39.8749 63.0467 38.1195 62.6595 36.283C62.3637 34.8832 61.7366 34.5805 60.4835 35.2734C59.424 35.8593 58.3107 36.3489 57.2662 36.9596C56.6908 37.2969 56.2336 37.8319 55.6764 38.2092C55.1892 38.5388 54.6363 38.7712 54.1114 39.0469C54.0511 38.968 53.9909 38.8891 53.9307 38.8102C54.2243 38.4524 54.4588 38.0092 54.8224 37.7498C56.6671 36.4343 58.5452 35.1664 60.4146 33.8866C60.5534 33.7915 60.7147 33.7201 60.8739 33.6639C62.14 33.2186 62.9381 33.678 63.1597 35.0107C63.505 37.0807 63.2382 39.1193 62.7283 41.1244C62.1507 43.3932 61.3989 45.5637 60.1533 47.6099C58.9776 49.5415 56.8618 50.952 55.1106 50.6332H55.1128Z" fill="#95C11F"/>
<path d="M26.7401 76.3946C26.667 75.2391 26.5949 74.0836 26.5218 72.9281L26.2679 72.941V78.3748C25.117 75.2131 25.2687 66.1475 27.7975 63.3858C27.6684 62.7816 27.4264 62.2746 27.4888 61.8087C27.6232 60.8121 27.3145 60.0793 26.824 59.1983C26.2475 58.1639 26.1711 56.8365 25.9517 55.6227C25.9216 55.4573 26.3153 55.213 26.6444 54.8682C27.2521 56.4788 27.8126 57.9239 28.331 59.3842C28.4063 59.5972 28.2546 59.8826 28.245 60.1355C28.2127 60.9721 27.8265 61.8228 28.4515 62.6389C28.5752 62.7999 28.3192 63.242 28.259 63.5587C28.1439 64.164 27.9599 64.7715 27.9578 65.379C27.9535 66.5302 28.0567 67.6813 28.1159 68.8325C28.032 68.8401 27.947 68.8487 27.8631 68.8563C27.7448 68.1796 27.6275 67.5019 27.506 66.8069C27.3608 67.2727 27.2123 67.7527 27.0628 68.2326C27.0241 68.225 26.9854 68.2185 26.9456 68.211C27.0908 67.3916 27.2371 66.5723 27.3823 65.7541C27.321 65.7303 27.2608 65.7054 27.1994 65.6816C27.0112 66.3442 26.6638 67.0068 26.667 67.6684C26.6735 69.3686 26.8606 71.0668 26.9262 72.7681C26.9714 73.9582 26.9348 75.1515 26.9348 76.3438C26.8692 76.3611 26.8047 76.3784 26.7391 76.3956L26.7401 76.3946Z" fill="#95C11F"/>
<path d="M68.2956 14.8161C67.9471 13.0682 69.0852 11.6252 69.2734 9.96926C69.5671 7.37831 68.7302 5.16892 67.0425 3.39406C66.068 2.36936 65.9217 1.1155 65.3193 0C67.7094 1.77486 69.0529 4.29122 70.0651 6.9708C71.2117 10.0049 70.1285 12.7829 68.7334 15.5305C68.5602 15.2528 68.4172 15.0214 68.273 14.7901L68.2946 14.8161H68.2956Z" fill="#95C11F"/>
<path d="M27.609 54.0705C27.8833 53.7884 28.1554 53.5052 28.4319 53.2263C29.0374 52.6145 30.2271 52.5626 31.2092 53.1895C31.6201 53.4522 32.0428 53.8208 32.2568 54.2456C32.7689 55.2616 32.6129 55.5373 31.576 55.961C31.05 56.1761 30.538 56.4269 30.012 56.642C29.1977 56.9738 28.5867 56.8084 28.1404 56.0226C27.8048 55.4324 27.2874 54.8487 27.6197 54.0629L27.609 54.0705ZM28.2275 54.8552C28.3437 55.534 28.6298 56.0215 29.387 56.0226C30.0174 56.0248 30.353 55.7459 30.4476 55.0671C29.6086 55.7232 28.86 55.7599 28.2286 54.8541L28.2275 54.8552Z" fill="#95C11F"/>
<path d="M32.2479 64.9866C31.9381 64.9585 31.7284 64.9391 31.51 64.9196C31.4132 65.286 31.3271 65.6103 31.2411 65.9335L31.1464 65.9259C31.1238 65.4979 31.1023 65.0709 31.0797 64.6429C31.0356 64.6407 30.9915 64.6375 30.9464 64.6353C30.87 65.1196 30.7947 65.6027 30.7183 66.087L30.6011 66.0794C30.514 65.4763 30.4258 64.872 30.3225 64.1532C30.2246 64.3748 30.1816 64.4743 30.1386 64.5726L29.9277 64.5348C30.0955 63.5803 30.2633 62.627 30.4322 61.6725C30.5161 61.6801 30.6 61.6866 30.6839 61.6942C30.7872 61.8498 30.8915 62.0065 31.0109 62.1849C31.1636 61.8801 31.3013 61.6055 31.439 61.3299L31.5304 61.3602C31.4551 61.7277 31.3799 62.0963 31.2949 62.5124C31.7251 62.0011 32.1113 61.5417 32.5383 61.0348C32.4878 61.4791 32.4415 61.8898 32.3953 62.2995C32.4641 62.3578 32.5319 62.4162 32.6007 62.4746C32.9858 62.2195 33.3698 61.9655 33.8603 61.6401C33.9098 61.6466 33.6118 62.6064 34.1841 61.8779C34.3013 63.0637 34.4648 64.2408 33.2171 64.9726C33.2429 64.6969 33.2687 64.4127 33.3182 63.8808C33.0826 64.2851 32.9697 64.4797 32.861 64.6656L32.718 64.1046C32.5028 64.5078 32.3555 64.7856 32.2479 64.9845V64.9866Z" fill="#95C11F"/>
<path d="M40.8291 42.6787C41.9209 42.6787 42.7922 43.2019 43.2579 44.0083C43.6957 44.7681 43.7484 45.7507 44.0248 46.8543C43.5182 46.4219 43.2063 46.155 42.8943 45.888C42.8459 45.9247 42.7975 45.9615 42.7481 45.9971C42.832 46.2468 42.9159 46.4965 43.0213 46.81C42.4802 46.81 41.9983 46.8597 41.5401 46.7786C41.4089 46.7549 41.2712 46.3506 41.2669 46.1193C41.2594 45.7096 41.3529 45.2978 41.2733 44.9033C41.4508 44.5076 41.8381 44.0591 41.7542 43.7315C41.6509 43.3273 41.155 43.0246 40.8291 42.6787Z" fill="#95C11F"/>
<path d="M19.1305 42.7674C18.9584 42.7793 18.6777 42.7976 18.1538 42.8322C18.8831 43.1608 19.4059 43.3976 19.9856 43.6591C19.3768 44.1369 19.4564 44.8449 20.0997 45.5075C18.9498 45.3648 17.8828 45.0913 17.019 44.1066C17.4934 44.2245 17.8623 44.3163 18.2313 44.4071L18.3023 44.2666L16.493 42.856C16.5167 42.816 16.5404 42.7771 16.564 42.7371C16.9878 42.9522 17.4105 43.1673 17.8343 43.3824L17.8924 43.256C16.9211 42.5015 15.9498 41.747 14.9785 40.9925C15.0172 40.9352 15.057 40.8779 15.0958 40.8196C16.4704 41.4833 17.844 42.1459 19.1294 42.7663L19.1305 42.7674Z" fill="#95C11F"/>
<path d="M31.7345 43.7888C32.9306 43.8656 33.9632 44.0018 34.9904 43.9726C35.6014 43.9553 36.2199 43.7207 36.8083 43.5089C37.8205 43.1446 38.5272 43.3673 39.1478 44.2839C39.2963 44.5033 39.5426 44.6557 39.6706 45.0308C38.0345 44.7487 36.3995 44.4579 34.7603 44.1953C34.5774 44.1661 34.3494 44.259 34.1762 44.3574C33.5953 44.6871 32.2153 44.4925 31.7334 43.7899L31.7345 43.7888Z" fill="#95C11F"/>
<path d="M33.3286 66.4837C33.6825 66.7582 33.9912 67.0047 34.3075 67.2403C34.5151 67.3949 34.8916 67.5084 34.9206 67.6857C35.0185 68.2866 35.0174 68.9082 35.0131 69.5221C35.0088 70.0172 34.9636 70.5155 34.9002 71.0073C34.8647 71.2851 34.755 71.5532 34.4828 71.7877C34.3494 71.4461 34.2107 71.1057 34.0816 70.7619C33.8514 70.1458 33.9407 69.4475 33.2189 68.9611C32.9393 68.7731 33.1361 67.8348 33.1576 67.2403C33.1684 66.9625 33.2792 66.6891 33.3276 66.4826L33.3286 66.4837Z" fill="#95C11F"/>
<path d="M27.6082 54.0705L27.619 54.0629C26.6154 55.0206 25.5613 54.1299 24.52 54.1191C24.3813 53.6533 24.2361 53.1647 24.1436 52.8523C24.7868 52.8199 25.3397 52.821 25.8796 52.7399C25.984 52.7237 26.0797 52.3918 26.1109 52.194C26.2163 51.539 26.6509 50.9856 27.2952 50.6883C27.0521 51.5909 26.7972 52.5399 26.5412 53.49L26.7348 53.6014C27.0973 53.3614 27.4598 53.1225 27.7782 52.9117C27.7211 53.2987 27.6652 53.6846 27.6082 54.0705Z" fill="#95C11F"/>
<path d="M21.498 40.1451C22.1563 40.8823 22.8372 41.6011 23.4654 42.3642C23.9688 42.9749 24.37 43.5943 24.1678 44.5206C24.0602 45.0113 24.3969 45.6048 24.5485 46.1474C24.6195 46.4014 24.7292 46.6446 24.7411 46.9256C22.8985 45.0816 22.7726 42.3588 21.1592 40.4045L21.498 40.1462V40.1451Z" fill="#95C11F"/>
<path d="M53.343 47.3764C53.4774 47.518 53.6442 47.6931 53.7862 47.8423C54.6036 47.7461 55.3975 46.8067 56.1902 47.9925C55.8686 48.1752 55.5481 48.3298 55.2566 48.5286C54.9349 48.7481 54.4735 48.9491 54.3659 49.2604C54.0325 50.2257 53.4452 50.0192 52.7632 49.7414C53.0321 48.9761 51.6628 47.8682 53.3419 47.3764H53.343Z" fill="#95C11F"/>
<path d="M55.6911 43.069C55.8395 42.8214 55.988 42.575 56.1805 42.254H54.7402C55.1501 41.9718 55.419 41.8486 55.6029 41.6476C56.2235 40.9698 56.8065 40.2564 57.424 39.5744C57.5735 39.409 57.7865 39.2804 57.9951 39.1928C58.4286 39.0123 58.8782 38.8696 59.4042 38.6826C58.1662 40.2618 57.012 41.734 55.8578 43.2052L55.6922 43.0679L55.6911 43.069Z" fill="#95C11F"/>
<path d="M53.095 52.3962C52.9778 53.1982 52.8616 54.0013 52.739 54.8433C52.7347 54.8433 52.9649 54.8433 53.2112 54.8433C53.2263 54.9049 53.2876 55.0336 53.2596 55.0584C53.1413 55.1611 52.9778 55.3233 52.8627 55.3006C51.2578 54.9828 50.6587 53.3971 51.573 51.9292L51.5526 51.9022C51.7537 52.0524 51.9344 52.2675 52.1603 52.3367C52.4604 52.4297 52.796 52.4091 53.1155 52.4372L53.095 52.3962Z" fill="#95C11F"/>
<path d="M38.9317 68.6423C39.6911 68.1288 40.4494 67.6143 41.3572 67.0004C40.7215 68.3353 40.1945 69.4411 39.6437 70.5955C39.2748 70.2928 38.9198 69.9999 38.4648 69.6259C38.4648 69.6194 38.4864 69.4259 38.5068 69.2324C38.6488 69.0357 38.7897 68.8401 38.9317 68.6433V68.6423Z" fill="#95C11F"/>
<path d="M53.0458 39.8684C52.736 41.2995 52.3348 42.7198 52.1616 44.1682C52.0938 44.7346 52.1476 45.153 51.4 45.3486C51.229 43.2484 51.7421 41.4227 53.0468 39.8684H53.0458Z" fill="#95C11F"/>
<path d="M44.8995 42.2064C42.8633 40.8715 40.5163 41.7232 38.3467 41.1687C40.1462 41.0974 41.9458 41.0055 43.7453 40.9655C44.4413 40.9504 45.0695 41.132 44.8995 42.2064Z" fill="#95C11F"/>
<path d="M30.1416 48.3643C32.7888 48.4054 33.3588 48.9621 33.6966 50.9434C32.6124 50.1565 31.4496 49.3134 30.1416 48.3643Z" fill="#95C11F"/>
<path d="M26.0188 81.8672C25.8338 81.0338 25.6391 80.2015 25.466 79.366C25.3562 78.8363 25.2261 78.3024 25.196 77.7662C25.1669 77.2582 25.2562 76.7437 25.3638 76.2249C25.8166 78.6342 26.2684 81.0436 26.7643 83.6832C26.4513 82.9287 26.2254 82.3871 26.0006 81.8445L26.0188 81.8672Z" fill="#95C11F"/>
<path d="M51.5732 51.9292C51.8765 51.686 52.1981 51.2244 52.4789 51.2482C52.9317 51.2871 53.3932 51.5952 53.7793 51.887C54.0031 52.0567 54.0848 52.4156 54.3666 52.9452C53.8019 52.701 53.448 52.5486 53.0952 52.3951L53.1156 52.4361C52.8134 51.6114 52.2411 51.5844 51.5527 51.9011L51.5732 51.9281V51.9292Z" fill="#95C11F"/>
<path d="M35.7988 62.6216C36.0914 62.8864 36.1979 62.9815 36.2334 63.015C36.6776 62.7156 37.1154 62.4205 37.5532 62.1244C37.621 62.1881 37.6887 62.2508 37.7576 62.3146C37.5779 62.8475 37.3983 63.3815 37.2187 63.9143C37.1412 63.9046 37.0627 63.8949 36.9853 63.8841C36.9358 63.7209 36.8874 63.5587 36.8067 63.2896C36.5604 63.415 36.3313 63.5306 36.0699 63.6636C36.0054 63.416 35.9344 63.1404 35.7988 62.6216Z" fill="#95C11F"/>
<path d="M44.4258 67.7635C45.7101 67.8943 46.8782 68.0132 48.0464 68.1321C48.0496 68.1796 48.0518 68.2261 48.055 68.2737C47.4311 68.2737 46.7782 68.1569 46.1909 68.3039C45.481 68.4812 44.9561 68.4088 44.4269 67.7635H44.4258Z" fill="#95C11F"/>
<path d="M20.4854 50.5305L23.3229 50.7888C23.3229 50.9077 23.3229 51.0266 23.3229 51.1455C22.827 51.1455 22.3204 51.2061 21.8364 51.1282C21.376 51.0537 20.9393 50.8342 20.4918 50.6775L20.4854 50.5305Z" fill="#95C11F"/>
<path d="M38.9319 68.6423C38.7899 68.839 38.649 69.0346 38.5071 69.2314C37.7283 68.8584 38.0284 68.2769 38.1005 67.7386C38.194 67.6965 38.2876 67.6532 38.3823 67.6111C38.5651 67.9548 38.7491 68.2985 38.9319 68.6423Z" fill="#95C11F"/>
<path d="M26.0004 81.8445V82.7211C25.9596 82.7374 25.9176 82.7547 25.8767 82.7709C25.5842 81.8186 25.2916 80.8663 24.999 79.914C25.084 79.887 25.1679 79.86 25.2529 79.8329C25.5067 80.5096 25.7606 81.1852 26.0166 81.864C26.0187 81.8672 26.0004 81.8434 26.0004 81.8434V81.8445Z" fill="#95C11F"/>
<path d="M50.5366 63.7198L50.5549 63.7836C50.2408 62.8961 51.2024 63.4744 51.3347 63.0993C51.4487 63.2334 51.5638 63.3674 51.6778 63.5014C51.4283 63.6236 51.1863 63.7738 50.9238 63.8549C50.8184 63.8873 50.6667 63.7684 50.5366 63.7187V63.7198Z" fill="#95C11F"/>
<path d="M26.9041 82.2855L28.1218 85.4948C28.0712 85.5142 28.0207 85.5348 27.9701 85.5542C27.5549 84.4874 27.1408 83.4216 26.7256 82.3547C26.7847 82.332 26.8439 82.3082 26.9031 82.2855H26.9041Z" fill="#95C11F"/>
<path d="M28.9453 61.0024V59.3961C29.709 60.1636 29.7079 60.2003 28.9453 61.0024Z" fill="#95C11F"/>
</g>
<defs>
<clipPath id="clip0_282_2803">
<rect width="71" height="97" fill="white"/>
</clipPath>
</defs>
</svg>
