<svg width="68" height="108" viewBox="0 0 68 108" fill="none" xmlns="http://www.w3.org/2000/svg">
<path d="M5.76917 100.987C5.14119 100.653 4.50327 100.328 3.882 99.9771C2.8106 99.3718 1.81894 98.6654 0.924945 97.8142C0.737019 97.6351 0.723023 97.4827 0.819275 97.2481C1.16848 96.3968 1.75569 95.7578 2.53433 95.274C2.55195 95.2621 2.57728 95.2469 2.60037 95.2373C3.9475 94.7507 4.66594 93.6365 5.39109 92.5059C6.31282 91.067 7.1552 89.5574 8.42506 88.3888C9.10085 87.7671 9.56381 87.0581 9.88545 86.2274C10.9377 83.5224 12.063 80.841 13.0443 78.1069C14.039 75.3401 14.895 72.5227 15.8166 69.7322C16.6368 67.2508 17.4275 64.7637 18.2882 62.2925C19.1971 59.6881 20.2065 57.1186 21.4428 54.6485C22.3035 52.9232 23.2188 51.2203 24.1235 49.4812C23.9116 49.4071 23.6561 49.315 23.4006 49.2229C19.9635 47.9661 16.5364 46.7005 13.0903 45.4655C9.72295 44.2563 6.28979 43.3007 2.75704 42.7122C2.67393 42.6973 2.59529 42.6714 2.44445 42.635C2.58532 41.9341 2.67035 41.2295 2.87768 40.5686C3.53604 38.4352 4.26436 36.3178 4.91726 34.1821C5.32422 32.8636 5.65479 31.5138 6.00494 30.1784C6.03558 30.057 6.01486 29.921 6.02367 29.7908C6.04158 29.7471 6.05949 29.7035 6.07963 29.6543C6.87623 30.1214 7.66513 30.5916 8.4662 31.0477C10.7647 32.3603 13.0444 33.7034 15.3708 34.9637C17.912 36.3376 20.472 37.681 23.0689 38.9502C25.5207 40.1536 28.0303 41.2468 30.5166 42.3814C30.7905 42.5065 31.0733 42.6097 31.4171 42.7508C31.3411 42.5475 31.2725 42.3727 31.2094 42.2002C29.6026 38.0666 27.9881 33.9362 26.4044 29.7929C25.9173 28.5093 25.5126 27.1958 25.0793 25.8896C25.0345 25.7501 25.0272 25.5814 25.045 25.4293C25.2499 23.6709 25.492 21.915 25.6597 20.1541C25.8653 17.9433 26.0041 15.7243 26.6002 13.5718C27.074 11.8727 27.838 10.3054 28.7744 8.81517C30.2586 6.44036 32.1809 4.44289 34.0739 2.40792C34.8501 1.57241 35.8142 1.30483 36.808 1.01123C40.0904 0.0498033 43.4467 -0.0971465 46.8386 0.0574324C48.1602 0.115012 49.4826 0.0773057 50.8032 0.121733C52.9647 0.198718 54.9253 0.951953 56.8331 1.84931C61.9272 4.25765 64.9723 8.38194 66.5777 13.6689C66.8374 14.5277 67.0324 15.4046 67.2482 16.2773C67.445 17.072 67.2224 17.8478 67.0733 18.6154C66.5223 21.373 65.4799 23.9609 64.2474 26.4836C62.7261 29.6018 60.7899 32.4414 58.4127 34.9727C56.0378 37.4985 53.366 39.6603 50.4741 41.5661C48.0162 43.1908 45.4396 44.6075 42.7768 45.8613C42.6031 45.9431 42.4347 46.027 42.2972 46.0981C43.0012 46.3869 43.7138 46.6856 44.4254 46.9711C46.2352 47.688 48.0552 48.3644 49.8471 49.1249C53.3108 50.5967 56.908 51.4475 60.6649 51.7071C62.2708 51.8176 63.8561 52.1491 65.4442 52.4117C65.897 52.489 66.3269 52.6845 66.7672 52.8077C66.9781 52.8687 67.0482 52.9931 67.0716 53.2003C67.1519 54.0302 67.0648 54.8487 66.6718 55.5737C66.0282 56.7696 65.3072 57.9211 64.6277 59.0959C64.3374 59.6016 64.0471 60.1073 63.7927 60.6341C63.342 61.5776 63.2974 62.5411 63.6622 63.5323C63.9233 64.2323 64.1428 64.9407 63.7983 65.7493C63.2957 65.6069 62.7777 65.4709 62.261 65.3163C58.7847 64.2793 55.4319 62.9103 52.1641 61.334C49.999 60.2865 47.8541 59.1899 45.6801 58.1643C43.7254 57.2413 41.7383 56.3816 39.7188 55.4767C39.7009 56.0176 39.7067 56.4854 39.673 56.9561C39.5399 58.897 39.1093 60.7859 38.4483 62.5995C37.473 65.2723 36.4159 67.9115 35.3315 70.5396C34.1406 73.4427 32.832 76.2911 31.6684 79.2055C30.6996 81.6451 29.864 84.1329 28.9934 86.6128C28.0013 89.4508 27.4191 92.3932 26.7374 95.314C26.2503 97.4029 26.0007 99.5191 25.9327 101.659C25.9084 102.433 25.9793 103.208 26.0054 103.984C26.0372 104.979 25.9509 105.95 25.3672 106.814C25.1719 107.104 24.9437 107.271 24.5851 107.322C23.1538 107.532 21.7928 107.228 20.4829 106.723C18.6031 105.99 16.7637 105.159 14.8894 104.428C13.0183 103.706 11.1236 103.056 9.23466 102.377C9.20738 102.366 9.16345 102.379 9.12944 102.385L5.757 101.001L5.76917 100.987ZM32.9004 52.7181C32.5175 53.7915 32.1516 54.808 31.7856 55.8245C31.083 57.7549 30.4186 59.701 29.6669 61.6112C28.8378 63.7256 27.9411 65.8186 27.0356 67.9016C26.8501 68.3228 26.5638 68.7409 26.2271 69.049C25.6375 69.585 25.3195 70.2514 25.1225 70.9803C24.6184 72.8774 23.9485 74.7127 23.2162 76.5289C20.9612 82.1195 18.679 87.6988 16.4677 93.3072C15.4864 95.7927 14.6307 98.3296 13.7312 100.849C13.5887 101.243 13.492 101.649 13.3748 102.029C14.2671 102.324 15.108 102.606 15.9467 102.892C17.9823 103.587 20.0067 104.309 22.0458 104.98C22.5908 105.159 23.1764 105.208 23.7319 105.314C23.892 103.665 24.0121 102.082 24.1935 100.505C24.8131 95.0474 25.9946 89.7115 27.6276 84.4715C28.5607 81.4817 29.734 78.5905 30.9858 75.7251C32.8681 71.4162 34.8945 67.1599 36.3839 62.6898C37.1466 60.3952 37.7553 58.0565 38.06 55.6506C38.1026 55.2983 38.0134 55.0959 37.759 54.8768C36.3654 53.674 34.6272 53.2798 32.9069 52.7335L32.9004 52.7181ZM11.5714 101.327C11.6135 101.147 11.6365 101.029 11.6649 100.913C11.9013 99.9323 12.0536 98.9237 12.3828 97.9813C13.1703 95.7352 13.9764 93.4902 14.8862 91.2878C16.6642 86.9998 18.4936 82.7266 20.3481 78.4699C22.2159 74.1806 24.1602 69.9225 26.0335 65.6354C27.6945 61.8349 29.2986 58.0175 30.9213 54.2014C31.1986 53.5565 31.4519 52.9081 31.7429 52.1986C31.1644 51.9614 30.6604 51.7291 30.1385 51.5405C28.8597 51.0989 27.517 51.0772 26.1928 50.9484C26.1075 50.9389 25.9831 51.009 25.9331 51.0842C25.6459 51.4891 25.3673 51.904 25.1019 52.3179C23.7547 54.4365 22.6496 56.6799 21.6569 58.9758C20.3823 61.9275 19.3142 64.9511 18.2952 67.9949C17.7328 69.6767 17.2031 71.3721 16.6702 73.0597C16.1971 74.555 15.7317 76.0472 15.2749 77.5492C14.8194 79.0327 14.4239 80.5408 13.928 82.014C12.9955 84.8 11.6095 87.3554 9.90942 89.7436C8.12289 92.2494 6.15265 94.597 3.85413 96.6569C3.70289 96.7925 3.58088 96.9655 3.47749 97.1399C3.35297 97.3502 3.40167 97.5423 3.6075 97.6777C4.11389 98.013 4.59245 98.4005 5.14011 98.6507C6.17317 99.1318 7.24302 99.5388 8.29623 99.9708C9.37127 100.412 10.4518 100.855 11.5704 101.314L11.5714 101.327ZM63.0546 24.8531C64.0933 22.3211 64.8543 19.7197 64.9803 16.9727C65.0557 15.3588 64.9317 13.7651 64.3239 12.2471C63.683 10.6391 62.6907 9.25027 61.6071 7.91324C59.401 5.17859 56.586 3.43099 53.1561 2.7317C51.6035 2.4136 50.0225 2.21135 48.4515 2.00043C46.1857 1.6958 43.9116 1.59811 41.6338 1.91333C38.4316 2.35299 35.673 3.6695 33.4256 6.02449C32.309 7.19219 31.3656 8.48189 30.6203 9.91024C30.0165 11.0715 29.4037 12.2545 29.0204 13.4999C28.3847 15.5469 27.9226 17.6525 27.4038 19.7411C27.3594 19.9269 27.3761 20.1505 27.427 20.3372C27.87 21.915 28.0203 23.5068 27.625 25.1233C27.5944 25.2446 27.5974 25.3925 27.6226 25.5176C27.7422 26.1276 27.8562 26.7355 28.0043 27.3381C29.0219 31.587 30.5416 35.653 32.5295 39.5413C32.7116 39.8902 32.7951 40.2304 32.7238 40.6219C32.6872 40.8045 32.6929 41.0237 32.7637 41.193C33.2329 42.2716 33.8996 43.1953 34.9104 43.8395C35.9768 44.5191 37.1784 44.8845 38.3666 45.2827C38.5621 45.3501 38.8316 45.3459 39.0163 45.2687C41.1281 44.3945 43.2592 43.5665 45.3269 42.5977C48.7319 41.0108 51.8832 39.0011 54.7514 36.5628C58.5123 33.3624 61.2205 29.4177 63.0633 24.863L63.0546 24.8531ZM7.21036 32.8659C7.06696 33.3553 6.9405 33.788 6.82173 34.2174C6.29111 36.1482 5.76818 38.0758 5.24302 40.0088C5.18748 40.2219 5.2345 40.356 5.41724 40.501C6.43185 41.338 7.66681 41.6533 8.88582 42.0386C10.2021 42.451 11.5037 42.9148 12.8119 43.3622C13.1406 43.4779 13.4504 43.6241 13.8542 43.7897C13.9997 43.435 14.1519 43.064 14.3019 42.6983C14.8598 41.276 15.42 39.8482 15.9616 38.4192C15.9996 38.3264 15.9455 38.1321 15.8671 38.0744C14.994 37.4676 14.1221 36.8422 13.2134 36.291C11.9146 35.5096 10.5781 34.7892 9.2604 34.0383C8.58904 33.6546 7.92538 33.2676 7.2126 32.8604L7.21036 32.8659ZM61.3196 63.3683L64.9571 54.5006C64.8477 54.4876 64.7547 54.4813 64.6639 54.4695C63.5116 54.3412 62.3504 54.2346 61.1962 54.0799C59.7772 53.8867 58.364 53.6641 56.9575 53.425C56.5529 53.3546 56.3699 53.49 56.2549 53.8636C55.9965 54.7266 55.6944 55.5717 55.4383 56.4293C55.0477 57.7545 54.6789 59.0887 54.2801 60.4807L61.3196 63.3683ZM47.5387 57.1926C48.6074 57.7266 49.5343 58.2024 50.4745 58.6455C51.0309 58.9056 51.6084 59.1297 52.1804 59.3516C52.4805 59.4747 52.6523 59.3667 52.7767 59.0479C53.396 57.4914 54.0427 55.9461 54.6806 54.3909L55.2559 52.9884C54.3719 52.6258 53.5337 52.2756 52.6911 51.9363C51.8299 51.5958 50.9661 51.2925 50.0219 51.2941C49.8368 51.2947 49.7172 51.3221 49.6344 51.524C49.1384 52.7486 48.5966 53.9608 48.1279 55.1966C47.8712 55.8691 47.7204 56.5786 47.5431 57.1817L47.5387 57.1926ZM48.2396 50.6969C46.9135 50.1529 45.6192 49.6092 44.3083 49.0906C43.9863 48.9586 43.6263 48.9193 43.2897 48.8385C42.9453 48.761 42.7023 48.8717 42.4861 49.1656C41.8309 50.0635 41.3808 51.0519 41.1031 52.1174C40.9445 52.7217 40.9203 53.3557 40.8557 53.9795C40.838 54.1316 40.9016 54.2406 41.1026 54.3103C41.6922 54.5203 42.2751 54.7466 42.8312 55.0385C43.6762 55.4807 44.4799 56.008 45.3249 56.4503C45.8091 56.6999 45.8324 56.6585 46.1408 56.2175C47.2955 54.5682 47.6881 52.6319 48.2451 50.6991L48.2396 50.6969ZM29.2749 43.7145C28.7091 43.5398 28.0913 43.4139 27.5359 43.167C26.674 42.7815 25.8501 42.3033 25.0138 41.871C24.0401 41.3696 23.84 41.4533 23.3264 42.4411C22.6246 43.7789 22.384 45.2358 22.2057 46.7118C22.1962 46.7972 22.2978 46.9536 22.3774 46.9927C23.7208 47.5565 25.0687 48.1094 26.4156 48.6491C26.5302 48.6961 26.7528 48.6663 26.8368 48.586C27.1328 48.2994 27.477 48.0198 27.6379 47.6587C28.2233 46.356 28.7399 45.0187 29.2749 43.7145ZM20.3626 46.0451L22.3907 41.101C21.5722 40.625 20.7444 40.0942 19.8654 39.6572C19.2089 39.3305 18.4945 39.1139 17.8056 38.8505C17.6146 38.7721 17.4761 38.8301 17.3923 39.0188C17.1566 39.5469 16.8749 40.0625 16.7015 40.6098C16.3475 41.7524 16.0427 42.9151 15.7324 44.0756C15.7075 44.1674 15.7639 44.3563 15.8381 44.3931C16.2818 44.6325 16.7274 44.8982 17.2025 45.0612C18.2421 45.4175 19.3041 45.7193 20.3572 46.0428L20.3626 46.0451ZM41.3041 48.1771C40.9966 48.0254 40.7034 47.8542 40.3956 47.7343C39.3967 47.3564 38.3821 47.0167 37.3899 46.6225C36.8092 46.3907 36.508 46.3946 36.054 46.8331C35.8319 47.0481 35.6019 47.298 35.4932 47.5785C35.0447 48.7652 34.6453 49.9721 34.2295 51.1722C35.7197 52.3572 37.5592 52.5508 39.2336 53.2248L41.3064 48.1716L41.3041 48.1771ZM30.4678 44.4588C30.2417 45.01 30.0477 45.5297 29.8209 46.0359C29.4344 46.8847 29.0044 47.7156 28.6266 48.5743C28.3775 49.1351 28.4292 49.2265 28.9721 49.5193C30.2214 50.2039 31.5925 50.3583 32.9855 50.3814C33.0808 50.3823 33.2212 50.2422 33.2659 50.133C33.729 49.0352 34.1757 47.9306 34.6279 46.8283C34.7421 46.55 34.8562 46.2717 35.0129 45.8897L30.4755 44.4556L30.4678 44.4588Z" fill="#95C11F"/>
<path d="M52.8336 4.43553C54.8736 5.25956 56.6481 6.49749 58.3304 7.88248C59.0775 8.50131 59.8368 9.10601 60.5838 9.72484C60.6882 9.81229 60.8055 9.93052 60.8361 10.0578C61.3608 12.3068 61.8515 14.5609 62.3993 16.8001C62.6193 17.6937 62.407 18.5374 62.2375 19.3859C61.7394 21.8592 60.8362 24.1854 59.6251 26.3917C58.1804 29.0122 56.3516 31.3413 54.229 33.4542C52.3031 35.3673 50.0577 36.8625 47.8827 38.4503C44.7651 40.7352 41.291 42.2109 37.5204 43.0103C37.2757 43.0629 37.1162 43.0166 36.9324 42.8584C35.5311 41.6588 34.6233 40.1261 33.881 38.47C33.2567 37.0856 32.6908 35.6676 31.9675 34.3381C31.5201 33.5171 31.2636 32.666 31.0632 31.7869C30.1289 27.6613 29.6276 23.4903 29.9649 19.2489C30.1936 16.391 30.7918 13.6272 32.1079 11.056C33.1232 9.06261 34.4269 7.28317 36.2978 6.01693C37.4989 5.20266 38.75 4.4217 40.0643 3.81326C41.7216 3.05228 43.5415 2.98279 45.3465 2.99641C47.9324 3.01796 50.4412 3.46054 52.8391 4.43777L52.8336 4.43553ZM37.6427 41.1734C37.9808 41.0953 38.288 41.0301 38.5998 40.954C42.7897 39.9249 46.4421 37.8593 49.7378 35.1247C53.1306 32.3088 55.967 28.9841 58.5394 25.4172C58.6137 25.3138 58.6469 25.1553 58.6371 25.0238C58.5691 23.6507 59.0447 22.507 60.0518 21.5749C60.1434 21.4914 60.1964 21.3155 60.1866 21.184C60.1424 20.4837 60.016 19.7816 60.0166 19.0805C60.0315 17.5056 60.1286 15.9325 60.1457 14.3521C60.1561 13.0367 59.8417 11.7984 59.0648 10.7083C58.0519 9.29192 56.6739 8.29953 55.1551 7.51073C52.2351 5.98784 49.1327 5.03402 45.8443 4.81354C43.7042 4.66883 41.6475 5.0046 39.8916 6.39453C39.7317 6.52019 39.4902 6.5805 39.2842 6.58527C38.8755 6.6025 38.526 6.73964 38.2019 6.97011C37.7125 7.324 37.1948 7.65354 36.7379 8.05261C33.8759 10.538 32.286 13.7301 31.5976 17.4132C30.9679 20.7824 31.1565 24.1302 31.8546 27.464C32.4433 30.2874 33.3824 32.9868 34.5775 35.6064C35.4588 37.5298 36.47 39.3854 37.646 41.1811L37.6427 41.1734Z" fill="#95C11F"/>
</svg>
