<svg width="84" height="115" viewBox="0 0 84 115" fill="none" xmlns="http://www.w3.org/2000/svg">
<g clip-path="url(#clip0_318_2)">
<path d="M31.893 92.8326C35.2179 95.3006 39.0806 96.1328 43.0832 96.5087C43.7468 96.5701 44.434 96.6032 45.0881 96.5087C47.4081 96.1777 48.2684 95.1801 47.2873 92.582C46.382 90.1802 44.5217 88.3693 42.5856 86.7429C39.5096 84.1567 36.3364 81.6839 33.2035 79.1639C30.1963 76.7455 27.7411 73.9323 26.7553 70.0884C26.1131 67.5825 26.7458 65.3674 28.2862 63.3344C31.4428 59.1666 36.0899 57.3369 40.685 55.4244C45.1924 53.5474 49.8372 51.9493 54.1929 49.7697C60.2856 46.7224 65.1319 42.2143 68.1794 35.9898C72.0944 27.99 70.9332 18.5859 65.1556 12.274C60.9823 7.71379 55.6337 5.82731 49.5504 5.92423C46.3014 5.97624 43.1022 6.48214 40.0665 7.72561C39.1588 8.09676 38.2868 8.56957 37.4336 9.05655C36.3317 9.68538 35.7345 10.5317 35.4857 11.9147C34.8505 15.4489 32.4689 17.898 29.6939 19.9689C26.4851 22.366 25.0941 22.7348 19.3994 22.9144C18.6292 27.477 18.2856 28.2453 16.1575 29.7252C16.6481 28.8623 16.9822 28.2737 17.4183 27.5053C16.3993 27.9167 15.5935 28.2429 14.7902 28.5692L14.6006 28.2453C14.9181 28.0443 15.2144 27.7961 15.5556 27.6519C17.9159 26.6472 18.3567 23.6378 17.897 21.6922C16.7808 16.9855 18.0889 12.8437 21.0583 9.12747C23.6011 5.94787 27.1274 4.63348 30.9475 3.82735C31.8267 3.64295 32.7035 3.38291 33.5306 3.0354C39.9314 0.35697 46.5811 -0.456252 53.4559 0.234041C59.6079 0.851049 65.1485 2.98339 69.6464 7.24808C75.1822 12.4986 77.9572 19.0469 77.7842 26.6992C77.5639 36.5028 72.9522 44.1197 65.5845 50.2543C60.2548 54.6939 54.0033 57.3487 47.4674 59.4905C43.8037 60.6914 40.2063 62.1122 36.6397 63.5826C35.4691 64.0649 34.3884 64.9041 33.4453 65.7717C31.6418 67.436 31.2698 69.4194 32.7201 71.3862C34.2249 73.4264 36.0663 75.2396 37.891 77.0173C41.1045 80.152 44.4767 83.1283 47.6664 86.2866C49.2637 87.8682 50.5031 89.7688 51.1003 91.9981C51.8799 94.9153 50.8301 97.0973 47.9887 98.1091C43.3818 99.7497 39.0522 98.7687 34.9335 96.4495C34.1515 96.0098 33.3836 95.4874 32.7462 94.8633C32.2485 94.3763 31.9641 93.6742 31.585 93.069L31.8907 92.8326H31.893Z" fill="#95C11F"/>
<path d="M66.0938 34.7085C64.698 37.7864 62.8377 40.1481 60.6385 42.2639C56.4084 46.3347 51.2944 48.8973 45.858 50.9351C42.6493 52.1384 39.4785 53.4481 36.2793 54.675C35.8622 54.8357 35.3551 54.8972 34.9119 54.8381C22.8378 53.2471 12.5173 48.0912 3.89832 39.5358C2.75608 38.4011 1.77261 37.1056 0.734639 35.8692C0.495289 35.5855 0.331772 35.238 0 34.7085H66.0938Z" fill="#95C11F"/>
<path d="M25.7002 115C26.7263 113.82 27.5392 112.726 28.5108 111.797C31.4683 108.974 34.9566 107.159 39.0469 106.629C40.1347 106.487 40.6205 106.09 40.4807 104.889C40.3385 103.657 40.4498 102.397 40.4498 101.218C40.6797 101.142 40.7153 101.119 40.7508 101.121C42.5503 101.208 43.4469 102.132 43.4405 103.894C43.4382 104.714 43.4405 105.535 43.4405 106.447C49.512 107.135 54.3843 109.804 58.1025 114.998H25.7002V115Z" fill="#95C11F"/>
<path d="M44.7679 62.8403C44.5902 68.4478 44.4219 73.7715 44.2442 79.4215C42.6233 77.9866 41.2085 76.7715 39.8482 75.4973C39.6397 75.3011 39.6326 74.8401 39.6207 74.4973C39.5141 71.6676 39.4548 68.8378 39.3174 66.0105C39.2795 65.2138 39.5117 64.7906 40.2819 64.5306C41.7251 64.0413 43.1351 63.4621 44.7703 62.8427L44.7679 62.8403Z" fill="#95C11F"/>
<path d="M74.7295 43.9826C75.3907 42.8407 76.1348 41.7367 76.6941 40.5476C77.4619 38.9141 78.123 37.2262 78.7558 35.5336C78.988 34.9142 79.289 34.6612 79.9478 34.6802C81.1919 34.718 82.4408 34.692 84.0025 34.692C81.2986 38.472 78.2723 41.4625 74.7295 43.9826Z" fill="#95C11F"/>
<path d="M40.1543 87.8942C42.8772 89.1424 44.3583 91.8161 43.555 94.2014C42.498 94.0997 41.415 93.9957 40.1543 93.8728V87.8942Z" fill="#95C11F"/>
</g>
<defs>
<clipPath id="clip0_318_2">
<rect width="84" height="115" fill="white"/>
</clipPath>
</defs>
</svg>
