<svg width="94" height="94" viewBox="0 0 94 94" fill="none" xmlns="http://www.w3.org/2000/svg">
<path d="M60.7484 39.496C60.08 39.8118 59.4116 40.1276 58.7431 40.4375C58.0573 40.7536 57.3657 41.064 56.4445 41.4826L56.3346 44.3892L57.6809 42.9938C57.9843 43.457 58.2014 43.7858 58.4779 44.2061L59.0602 43.6026C60.8332 45.0289 62.5649 46.4154 64.3085 47.8191C63.5172 49.1873 63.348 49.1093 62.1644 47.9559C61.3163 47.1264 60.1473 46.6295 59.1315 45.9678C58.8153 45.7594 58.5386 45.4924 58.1247 45.1556C57.1912 45.6931 56.1002 46.323 55.1323 46.8785C67.4413 52.6377 79.8028 58.4249 92.3365 64.2929C92.6122 63.5358 92.9212 62.6971 93.2328 61.8438C94.0704 62.0892 93.6762 64.1416 92.4211 65.7842C90.2671 64.7293 88.157 63.6996 86.0526 62.664C82.9616 61.1427 79.9126 59.5426 76.7827 58.1145C74.0962 56.8869 71.2791 55.9538 68.5954 54.7232C64.9025 53.0304 61.2818 51.1743 57.6165 49.4059C56.5396 48.8842 55.4432 48.4062 54.3358 47.9574C53.3566 47.5584 52.3941 47.4426 51.3744 48.0163C50.9992 48.2284 50.3672 47.9939 49.8575 47.9625C52.1525 47.039 54.4475 46.1154 56.9263 45.1192C56.3357 44.7711 55.9456 44.6392 55.695 44.3746C54.4976 43.1 53.376 43.4731 52.0121 44.2092C50.5794 44.9813 48.9582 45.4067 47.415 45.9812C47.9516 45.5781 48.4941 45.1749 49.1193 44.7095C44.2276 42.4741 39.5051 40.3167 34.7797 38.1564L34.4772 38.5524C34.5902 38.883 34.6207 39.2933 34.8362 39.5354C37.0071 42.0163 39.2093 44.4706 41.403 46.9337C42.0053 47.6115 42.6525 47.5651 43.4655 47.2468C44.7756 46.7373 46.1436 46.3916 47.493 45.9769C44.2027 47.2133 40.9154 48.4584 37.6188 49.6718C37.3831 49.7571 37.0594 49.6153 36.7781 49.577C37.3268 49.3617 37.8813 49.1464 38.881 48.7524C36.5636 46.3233 34.4819 44.1387 32.3973 41.9514C32.812 41.5215 33.2267 41.0917 33.542 40.7649C34.3125 42.1109 34.9366 43.1961 35.725 44.5707C36.1791 42.792 35.6495 41.1669 34.1887 40.0475C33.7634 39.7224 32.8208 40.0749 31.9567 40.128L32.435 41.9536C33.0899 44.7568 33.7448 47.5599 34.4248 50.4726C34.939 50.4287 35.3549 50.3923 35.7709 50.3559C33.9831 51.496 32.1953 52.6303 30.4076 53.7704L30.4863 53.9657C31.0637 53.8975 31.6383 53.8322 32.2359 53.7607C32.3662 54.4151 32.4713 54.9542 32.6401 55.8162C32.1492 55.0584 31.8546 54.6036 31.5571 54.1461L31.0445 54.4359C32.1601 56.6378 33.27 58.8397 34.3857 61.0416L34.8137 60.869C34.7686 60.4503 34.7264 60.0345 34.6641 59.4628C35.0727 60.1469 35.4007 60.6907 35.7437 61.266C35.262 61.5061 34.849 61.7102 34.3158 61.9802C33.9012 61.1255 33.5227 60.3453 33.1413 59.5682C32.9256 59.9568 32.934 60.2662 32.9943 60.5631C33.7848 64.4748 34.6069 68.3772 35.3715 72.2922C36.3529 77.3317 37.3256 82.3741 38.2234 87.4295C38.4263 88.5802 38.9867 88.2114 39.3558 88.1412C39.4189 86.9799 39.4727 85.9462 39.5294 84.9152L39.987 84.7826C40.3244 85.8528 40.6619 86.9229 40.9809 87.9356L42.0701 87.6904C41.4202 84.5226 40.7744 81.4213 40.1459 78.3138C39.5968 75.6013 39.0736 72.8855 38.5389 70.1698C39.0122 71.7178 39.5949 73.2407 39.9443 74.8169C40.8069 78.7128 41.5426 82.6341 42.3705 86.5365C42.5634 87.4501 42.9089 88.3292 43.136 89.0541C41.8644 89.129 40.4038 89.1523 38.9634 89.3315C37.8839 89.4665 37.6184 88.858 37.4562 88.0422C36.8326 84.8884 36.261 81.7278 35.5942 78.5835C34.4952 73.442 33.3473 68.3101 32.2022 63.181C31.7053 60.9565 31.1679 58.7385 30.6317 56.425C27.3666 57.2936 24.1752 58.0799 20.8188 57.087C20.827 55.6056 22.3489 55.2948 23.029 54.3366C23.2547 54.0201 23.5816 53.6931 23.6215 53.3395C23.7502 52.287 24.3797 52.2236 25.1707 52.4467C25.6708 52.5881 26.1357 52.8604 26.6385 52.9932C27.0426 53.0988 27.4763 53.0852 27.8994 53.1239C27.8026 52.7293 27.7547 52.3193 27.6006 51.9489C26.2013 48.6152 24.7878 45.2904 23.3656 41.9686C23.0727 41.2825 22.8279 40.5404 22.3694 39.9787C22.115 39.6651 21.4348 39.4863 21.0052 39.5663C17.5046 40.2077 14.0059 39.6687 10.8457 38.4842C8.38462 37.565 6.24287 35.5783 4.21718 33.7717C1.78869 31.605 0.438333 28.739 0.260593 25.4413C0.0659968 21.8487 1.72163 18.9897 4.37963 16.8532C5.8712 15.6548 6.7857 14.542 6.89768 12.5582C7.0518 9.85915 8.81199 8.15253 11.5151 7.8842C12.4132 7.79577 12.6101 7.47979 12.7906 6.73883C13.4144 4.09499 15.3071 2.35706 17.3095 0.764704C18.2764 -0.00192934 19.3244 0.361161 19.3899 1.58953C19.474 3.2168 19.2323 4.90488 18.853 6.49995C18.5624 7.72024 17.8419 8.83829 17.3325 9.95546C18.6866 11.2562 20.2407 11.6073 21.9942 11.6279C27.4025 11.6959 32.1062 13.6135 36.1345 17.227C38.7896 19.6067 39.8999 22.4798 38.9819 25.9766C38.6326 27.3108 38.9038 28.0783 40.1195 28.9158C43.0311 30.9234 45.7396 33.2182 48.5921 35.3108C50.1927 36.4856 51.9176 37.4904 53.586 38.5656C54.7772 39.3341 55.974 40.0908 57.5456 41.0955C57.2437 38.9398 57.9687 38.7185 59.3012 39.2934C59.7356 39.4795 60.2672 39.441 60.7543 39.5017L60.7455 39.4932L60.7484 39.496ZM21.1633 32.7331L22.0611 32.3033C21.587 31.9993 20.9858 31.7092 21.016 31.619C21.5145 30.0536 20.0627 30.5628 19.4998 30.1505L20.4615 29.896C19.5378 28.0726 18.6464 26.2804 17.7177 24.5034C17.3791 23.8528 16.9604 23.2498 16.5731 22.6261C16.4097 21.5817 16.3407 20.4749 15.1561 20.0767L14.7875 20.335C15.4001 21.0965 16.0097 21.8609 16.6193 22.6195C16.509 22.9223 16.2181 23.3181 16.3199 23.5072C16.9275 24.6449 17.7015 25.6985 18.2748 26.8541C18.7941 27.9008 19.1241 29.0434 19.5546 30.1408C20.1053 31.0075 20.6589 31.8713 21.2097 32.738C21.2136 34.2481 21.751 35.4998 23.0053 36.3973C22.9934 36.6984 22.8526 37.0741 22.9837 37.2859C23.7583 38.5391 24.6446 39.7239 25.3963 40.9891C25.8229 41.7076 26.0749 42.5305 26.4012 43.3058L26.1519 43.4404L25.0185 42.3469C24.9659 43.1261 24.9137 43.5986 24.9336 44.0669C24.9343 44.1074 25.3804 44.1341 25.4818 44.1468L25.5595 45.7336L26.0934 45.8224C26.3053 45.2198 26.5202 44.62 26.768 43.9154C27.2719 44.5891 27.7669 45.2543 28.2591 45.9167C28.1655 46.1845 27.917 46.5246 28.0042 46.7111C28.8436 48.5041 29.7145 50.288 30.6428 52.0419C30.8015 52.3428 31.2411 52.4941 31.8066 52.8918C31.6828 52.1187 31.7074 51.7161 31.5484 51.4037C31.0869 50.5093 30.5679 49.6391 30.0404 48.7778C29.4474 47.8135 28.8258 46.867 28.2156 45.9146C28.2893 45.6673 28.4978 45.3569 28.4166 45.1819C27.8839 44.0314 27.3053 42.9048 26.7124 41.7813C25.7299 39.9127 24.7274 38.0531 23.7785 36.2793L22.9648 36.3981C22.7982 35.8167 22.3726 35.156 22.5201 34.6673C22.9212 33.3207 22.1517 32.9989 21.1719 32.73L21.1633 32.7331ZM50.665 41.3635C51.6364 40.8456 50.7455 40.6908 50.4699 40.4875C47.6032 38.4038 44.7223 36.3407 41.8527 34.26C40.2757 33.1137 38.7185 31.941 37.1294 30.766C36.1194 32.8439 37.1125 34.9843 39.3397 35.928C40.3016 36.3331 41.2276 36.8286 42.1702 37.2833C41.2137 37.0198 40.2155 36.8525 39.3088 36.4667C36.4373 35.2481 35.7164 33.7624 36.344 30.6903C36.3894 30.4783 36.3158 30.2424 36.2972 30.0142L35.9646 30.3413C35.2545 29.787 34.5445 29.2327 33.676 28.5539C33.4641 28.8384 33.0781 29.4152 32.6304 29.9382C32.194 30.4494 31.7622 31.2151 31.2174 31.3262C29.9089 31.5984 29.4756 32.4423 29.3245 33.5357C29.0248 35.7021 31.4102 38.0432 33.5148 37.4761C34.6463 37.1694 35.4593 37.4991 36.3637 37.9168C40.6724 39.9081 44.9699 41.9227 49.2897 43.8848C50.6635 44.5111 51.9873 44.1171 53.1101 42.8472C52.2853 42.347 51.4781 41.8581 50.6679 41.3663L50.665 41.3635ZM14.7926 15.2924C15.171 14.7764 15.9828 14.0646 15.8531 13.769C15.0295 11.883 16.1896 10.5922 16.9386 9.12643C17.9197 7.20812 19.0254 5.30204 18.8601 3.0224C18.8289 2.57165 18.6703 1.79337 18.4641 1.75367C17.9272 1.65625 17.202 1.71265 16.7822 2.01816C14.5578 3.64632 13.9698 6.18826 13.3844 8.7157C14.5103 6.64724 15.6391 4.57585 16.762 2.50455L17.0898 2.71276C15.5181 5.73812 13.9437 8.76643 12.372 11.7918L12.0976 11.6521L13.1332 9.38849C12.2486 9.91063 11.6669 10.708 10.886 11.0402C9.9213 11.451 9.86918 12.0941 10.0732 12.8253C10.1133 12.9606 11.0255 12.8516 11.4739 12.8523L10.7837 13.8859C12.6428 15.4408 12.7971 15.493 14.8618 15.2795L13.1493 16.5774C13.4431 16.6676 13.8641 16.7555 14.252 16.925C14.6047 17.0778 15.0589 17.2375 15.232 17.5295C15.7093 18.3367 16.0608 19.2215 16.4694 20.0705C18.2273 23.7218 20.0656 27.337 21.7058 31.0396C22.5108 32.8564 23.5355 33.8564 25.618 33.5066C26.0997 33.4257 26.6409 33.7602 27.1587 33.7596C27.5174 33.759 27.9515 33.6037 28.2221 33.3645C29.1903 32.5081 30.1144 31.6034 31.0267 30.6931C31.8737 29.8505 32.6855 28.9796 33.5745 28.0582C32.2149 27.0989 31.1222 26.3403 30.0407 25.5583C25.864 22.5405 21.6844 19.5199 17.5246 16.4787C17.2902 16.3093 17.2054 15.9376 17.0499 15.6569L17.4026 15.4799L18.5087 16.3424L18.8216 15.8826L16.6317 14.4349L16.154 14.7414L16.485 16.9024C15.8579 16.2974 15.328 15.7861 14.7951 15.2721L14.7926 15.2924ZM12.212 9.1591L12.0061 8.64783C11.2078 8.82126 10.3287 8.84281 9.62939 9.2083C8.31663 9.89144 7.66683 11.8906 8.15267 13.6553C8.41882 14.6226 8.17375 15.1535 7.38507 15.7C6.02481 16.6386 4.58285 17.5381 3.46431 18.727C1.9739 20.313 1.00808 22.2745 1.17335 24.5541C1.45602 28.3794 3.08682 31.3966 6.17401 33.835C9.95674 36.8251 14.0374 38.5225 18.8848 38.288C19.6248 38.2516 20.3699 38.3395 21.0763 38.3674C21.2323 37.5516 21.3518 36.9506 21.5554 35.8852C20.6788 36.5287 20.1192 36.9438 19.3197 37.5309C19.0472 36.5348 18.8025 35.6337 18.5608 34.7354C18.8422 34.6204 18.8009 34.5749 18.7632 34.5727C18.5723 34.5703 18.3789 34.594 18.1879 34.5917C13.9167 34.5352 10.0123 33.9513 7.10241 30.1095C4.16882 26.2333 3.89937 20.8861 9.39254 18.4269C10.7357 17.8242 11.2624 17.1898 10.3883 15.8747L11.551 15.3765C10.2563 14.4855 9.28478 13.7074 9.2546 12.0242C9.21613 9.87821 11.2218 10.0853 12.2178 9.159L12.212 9.1591ZM18.8742 33.8214C18.7576 33.4532 18.7033 33.1677 18.5831 32.9153C16.4458 28.4318 14.3028 23.9542 12.154 19.4767C11.625 18.3753 10.6871 18.1809 9.70875 18.9593C9.1097 19.4329 8.45746 19.8438 7.90846 20.3658C6.46901 21.7281 5.33113 23.2905 5.85506 25.4046C6.13578 26.5395 6.62726 27.6502 7.18102 28.6847C9.2429 32.5099 14.4278 34.8008 18.8742 33.8214ZM38.0536 27.1273C39.4549 23.8012 38.6416 20.8736 36.0988 18.1419C32.6711 14.4597 28.2302 13.0003 23.3452 12.596C21.2534 12.4252 18.9976 12.7897 17.4065 10.8568C17.2912 10.7171 16.9847 10.7283 16.7812 10.6741C16.2547 11.8032 16.8015 13.4164 17.7318 13.5125L18.0134 12.7553C19.2756 13.6092 20.3762 14.6484 21.6813 15.1515C23.0301 15.6741 24.5736 15.7592 26.0457 15.8949C28.79 16.1494 31.1999 17.2808 33.1358 19.0803C34.5715 20.4142 35.8346 22.1216 35.2339 24.4411C35.1718 24.6881 35.8708 25.4306 36.003 25.382C37.3305 24.8779 37.6646 25.439 37.5821 26.6497C37.5731 26.7888 37.8681 26.9484 38.0448 27.1188L38.0536 27.1273ZM23.8576 34.0705C24.263 34.7402 25.1254 35.5608 24.9626 36.0006C24.5102 37.2296 24.9665 37.5107 25.9869 37.7846C27.5684 38.2134 28.8314 39.5967 28.6158 40.9632C28.0365 44.6391 30.0764 47.3972 31.6821 50.3048C31.8944 50.6916 32.6538 50.7705 33.1612 50.9929C33.3148 50.5272 33.6846 50.0143 33.5877 49.6081C32.7832 46.2059 31.7884 42.8418 31.0761 39.4205C30.7373 37.7862 29.2358 37.1391 28.6364 35.8219C27.8836 34.1748 25.8871 33.5105 23.8576 34.0705ZM34.4874 24.9202C34.9475 20.4075 27.555 15.1966 23.3062 16.7135C25.2339 18.056 27.0963 19.3072 28.9021 20.6287C30.7227 21.9645 32.4867 23.3765 34.4874 24.9202ZM45.4324 34.4793C45.2422 35.6486 46.3839 37.0399 47.4974 36.8637C48.5995 36.6935 49.0919 37.2083 49.5261 38.0309C49.7118 38.3805 49.9605 38.7 50.2491 39.1433L50.6205 38.3989L50.7462 38.469C51.1169 39.4633 52.0236 39.745 53.4663 39.3142C51.0638 37.7921 48.8634 36.4024 46.5457 34.9338C46.5283 35.2523 46.5176 35.4637 46.4956 35.846C46.1017 35.341 45.7849 34.933 45.4354 34.4821L45.4324 34.4793ZM25.309 54.8367C25.8075 54.4025 26.1236 54.122 26.4398 53.8473L26.2535 53.463C25.6757 53.6672 24.7423 53.7273 24.5928 54.1003C24.3075 54.8084 23.9201 54.8269 23.3302 55.0024C22.795 55.1624 22.4041 55.7914 21.8521 56.3047C23.9794 57.0043 24.452 56.8975 26.8137 55.3392C26.3451 55.1827 25.9056 55.0372 25.309 54.8367ZM30.5666 55.3731C30.3152 54.909 30.0728 54.4591 29.8512 54.0407C29.4162 54.144 28.7562 54.4451 28.6321 54.2969C27.7156 53.2024 27.1906 54.2533 26.3994 54.5018C28.3027 55.7734 29.6908 56.0629 30.5636 55.3703L30.5666 55.3731ZM29.0132 52.1579C29.7599 51.5312 28.8795 48.7321 27.1049 46.895C27.0854 47.7401 26.8937 48.3453 27.0922 48.7699C27.6485 49.9432 28.3653 51.0383 29.0132 52.1579ZM33.7892 27.4468L34.198 27.3353L34.0077 25.9182C35.2353 26.7786 36.3076 27.5289 37.377 28.2764L37.6861 27.7675C36.1229 27.2314 35.344 25.4169 33.3778 25.1571C33.5451 26.0972 33.6672 26.772 33.7864 27.4497L33.7892 27.4468ZM37.7081 43.3576L36.9273 43.5365C37.2378 44.558 37.5512 45.5765 37.8587 46.5951L38.5352 46.4065L37.7081 43.3576ZM27.6912 42.3221C28.0503 40.2414 27.4418 39.2224 25.7913 38.9771C26.4007 40.0482 26.9683 41.0506 27.6912 42.3221ZM32.8815 24.9056C31.7311 23.0284 31.1231 22.6748 30.1443 23.106L32.8815 24.9056ZM40.9726 30.8359L41.2453 30.3942C40.1559 29.6557 39.0694 28.9201 37.9828 28.1787L37.7071 28.6176C38.7966 29.3561 39.8831 30.0917 40.9725 30.8301L40.9726 30.8359ZM39.6913 46.1804L39.292 46.3409C39.5106 46.9156 39.635 47.5585 39.9878 48.0353C40.1301 48.2295 40.7663 48.0532 41.18 48.0486L41.2074 47.6431L39.6913 46.1804Z" fill="#95C11F"/>
<path d="M38.5274 68.7206C37.9523 66.6595 37.2937 64.6202 36.8224 62.5341C36.2286 59.9149 35.7934 57.2612 35.2985 54.6692C34.7285 54.5058 34.2662 54.3724 33.8039 54.2447L33.8044 53.9496C34.5925 53.6924 35.3987 53.4813 36.1685 53.1724C38.3861 52.2878 40.5674 51.3172 42.7972 50.4729C45.1506 49.5773 47.5434 48.788 49.921 47.9556C48.9303 48.5288 47.9517 49.1307 46.94 49.6609C46.4011 49.9425 45.7994 50.1067 44.946 50.4315C46.3524 52.0669 47.6124 53.6008 48.9463 55.0697C52.1396 58.5824 55.3727 62.0597 58.5831 65.5606C62.4426 69.7673 66.2764 73.9947 70.153 78.1838C71.3595 79.4842 72.6912 80.661 73.9206 81.9437C74.6223 82.6775 75.1845 82.572 75.8733 81.9405C76.3742 81.4802 76.9872 81.1394 77.7046 80.9732C76.7077 81.6825 75.7078 82.389 74.4166 83.309C68.4881 76.9754 62.4976 70.5764 56.5043 64.1803L56.0325 64.4925C56.2136 64.9116 56.3035 65.4076 56.59 65.7352C58.7226 68.1792 60.8667 70.6172 63.0648 73.005C65.4192 75.5608 67.8676 78.0309 70.2193 80.5896C71.1546 81.6056 71.9647 82.7396 72.7518 83.8798C72.9062 84.1027 72.7954 84.7007 72.5943 84.9386C71.7952 85.8729 70.9079 86.7278 70.2291 87.9146C70.4921 87.9012 70.7551 87.8878 71.0153 87.8773C70.965 88.1357 70.9145 88.3883 70.7761 89.0562C72.7747 87.9036 74.5437 87.0069 76.1788 85.9072C77.4509 85.0541 78.6419 84.0375 79.6924 82.9251C80.0616 82.5366 80.2037 81.4289 79.9188 81.029C79.2779 80.1379 79.6052 79.3509 79.9341 78.6564C80.0986 78.3092 81.1395 77.955 81.3538 78.1276C82.1172 78.7504 82.8197 79.5305 83.3152 80.3837C83.945 81.4631 83.4038 82.2597 82.1555 82.5049C81.7404 82.5875 81.2326 82.8252 81.007 83.1532C78.7403 86.4572 75.436 88.368 71.9088 89.9501C71.0852 90.3207 70.5854 90.6855 70.4958 91.6563C70.4497 92.1518 70.0634 92.8762 69.6666 93.0106C69.287 93.1389 68.5483 92.7616 68.2263 92.3884C67.6118 91.6761 67.0589 90.8529 66.7136 89.9854C66.3622 89.1064 66.6987 88.3511 67.8158 88.6956C68.6478 88.9526 69.0821 88.6439 69.5024 88.0491C70.2388 87.0031 70.9838 85.9598 71.8331 84.7613C69.1808 81.7249 66.474 78.5622 63.699 75.4643C61.6858 73.2207 59.5614 71.0745 57.5168 68.8575C53.4629 64.4576 49.4317 60.0341 45.3862 55.6195C44.3771 54.5209 43.3992 53.3899 42.3135 52.3765C41.9928 52.0785 41.2783 51.9178 40.8641 52.0525C39.4088 52.5299 38.0269 53.2316 36.5717 53.7148C35.6197 54.0299 35.6488 54.5183 35.8313 55.3424C36.7413 59.466 37.5879 63.6023 38.4403 67.7386C38.5068 68.0585 38.4898 68.4002 38.516 68.7324L38.5274 68.7206ZM49.9946 57.2235L49.5297 57.4344C50.0921 58.6249 50.6515 59.8126 51.2561 61.1007C52.4277 59.9688 51.9256 58.7511 49.9918 57.2265L49.9946 57.2235ZM67.9415 89.2488L67.6904 89.7682C68.2235 90.4588 68.7566 91.1436 69.2897 91.8341L69.7827 91.5765C69.7998 90.9166 69.8169 90.2566 69.8379 89.4925C69.1564 89.4035 68.5504 89.3246 67.9385 89.2459L67.9415 89.2488ZM47.3601 54.3748C47.3465 55.8795 46.9014 57.1893 48.6914 57.6317C49.3538 56.1733 48.4722 55.408 47.3601 54.3748ZM53.5546 61.0219C52.6342 62.6122 54.064 63.1334 54.5567 63.9895C54.6343 64.1212 55.1242 64.0141 55.6075 64.0199C54.838 62.8967 54.232 62.0107 53.5546 61.0219ZM82.2625 82.0169C82.7878 79.6873 82.4884 79.2847 80.547 79.441C81.0941 80.2644 81.5668 80.9705 82.2625 82.0169ZM45.9288 54.2558L46.3701 54.0223L44.9895 51.4057L44.5739 51.6243C44.2613 52.9029 44.989 53.6333 45.9288 54.2558Z" fill="#95C11F"/>
<path d="M60.7573 39.5046C61.6508 38.3545 62.6357 39.0659 63.5955 39.1904C63.5839 40.64 60.964 40.7101 62.3259 42.6038C61.3431 42.8153 60.5334 42.9947 59.4152 43.2346L62.8747 39.6489L62.7423 39.2028C62.0785 39.2957 61.4119 39.3858 60.7482 39.4845C60.7483 39.4903 60.7543 39.5017 60.7543 39.5017L60.7573 39.5046Z" fill="#95C11F"/>
<path d="M31.2627 33.5298C32.2897 33.6908 32.9264 33.7025 33.463 33.9417C33.5855 33.9974 33.5347 35.034 33.2721 35.2354C32.9325 35.4932 32.1584 35.5649 31.8304 35.3394C31.511 35.1166 31.5159 34.4221 31.2627 33.5298Z" fill="#95C11F"/>
<path d="M42.1006 37.2729C43.8714 38.0946 45.6422 38.9163 47.413 39.738C46.6592 39.4883 45.8662 39.3087 45.1542 38.9685C44.1066 38.4636 43.1176 37.8449 42.1006 37.2729Z" fill="#95C11F"/>
<path d="M17.0944 6.84393C16.0642 9.40827 15.034 11.9726 13.9261 14.7235C13.9975 11.6093 15.8605 9.34249 17.0944 6.84393Z" fill="#95C11F"/>
</svg>
