<svg width="81" height="81" viewBox="0 0 81 81" fill="none" xmlns="http://www.w3.org/2000/svg">
<g clip-path="url(#clip0_282_729)">
<path d="M17.9778 8.96391C24.7983 3.85226 32.6553 1.55591 41.1576 1.7018L41.149 2.20173L41.1576 1.7018C50.1748 1.85679 58.118 8.95521 59.3841 17.8846L59.3841 17.8848C60.8229 28.056 54.5226 37.2181 44.4896 39.4642C43.2022 39.7555 41.8683 39.8759 40.5709 39.8892C30.0749 39.9981 21.4664 47.5861 20.3476 57.9808C19.5989 64.949 21.9887 70.8221 27.2234 75.5369L27.2273 75.5404C27.3048 75.6116 27.3844 75.6819 27.4686 75.7562C27.5515 75.8294 27.639 75.9065 27.7254 75.986L28.0139 76.2514L27.825 76.5949L27.7529 76.726L27.2646 76.6006L27.1246 76.9409C26.8724 76.8372 26.6091 76.7346 26.3408 76.6301C25.7842 76.4133 25.2061 76.1881 24.6611 75.9269M17.9778 8.96391C5.34565 18.4273 -0.16986 31.2025 2.27835 46.7994L2.7723 46.7219L2.27835 46.7994C4.4101 60.3791 12.2929 70.0181 24.6611 75.9269M17.9778 8.96391L18.2776 9.36401L17.9778 8.96391ZM24.6611 75.9269C24.661 75.9268 24.6609 75.9268 24.6608 75.9268L24.8769 75.4759L24.6614 75.927C24.6613 75.927 24.6612 75.9269 24.6611 75.9269ZM46.9864 59.747C46.7458 56.3594 43.9546 53.6926 40.5153 53.6791C36.9069 53.6649 33.9913 56.5844 33.9842 60.2067C33.9771 63.7678 36.8826 66.7287 40.4327 66.7429C44.0418 66.7571 46.9955 63.8501 47.0097 60.249L47.0117 59.747H46.9864ZM40.5713 0.499964C62.6874 0.545267 80.5455 18.5044 80.5002 40.6529C80.4549 62.6302 62.4805 80.5322 40.5011 80.5C18.3119 80.4611 0.429014 62.5141 0.500212 40.3476C0.571407 18.3046 18.5261 0.454661 40.5713 0.499964Z" fill="#95C11F" stroke="#95C11F"/>
<path d="M40.3888 26.321L40.3896 26.321C43.4623 26.3691 45.9661 23.9296 45.9962 20.8725C46.0262 17.799 43.5989 15.3128 40.5267 15.2767L40.5265 15.2767C37.565 15.2407 35.0449 17.6938 34.9968 20.6559L40.3888 26.321ZM40.3888 26.321C37.3714 26.2791 34.9487 23.7438 34.9968 20.6562L40.3888 26.321Z" fill="#95C11F" stroke="#95C11F"/>
</g>
<defs>
<clipPath id="clip0_282_729">
<rect width="81" height="81" fill="white"/>
</clipPath>
</defs>
</svg>
