<svg width="116" height="111" viewBox="0 0 116 111" fill="none" xmlns="http://www.w3.org/2000/svg">
<g clip-path="url(#clip0_282_20979)">
<path d="M116 29.0491C115.687 32.2478 115.378 35.4464 115.062 38.645C114.453 44.7873 113.815 50.9296 113.232 57.0751C112.726 62.4201 112.34 67.7813 111.792 73.1199C111.173 79.1525 110.503 85.1818 109.713 91.1917C109.23 94.8874 107.319 96.3754 103.553 96.1494C94.453 95.604 85.3567 94.9552 76.2539 94.4162C73.5247 94.2548 70.7826 94.2709 68.0469 94.287C66.4132 94.2967 65.8848 95.1618 66.7161 96.5916C67.9824 98.7703 69.4421 100.833 70.7471 102.986C72.5773 105.997 72.413 106.636 69.3519 108.415C68.1983 109.086 66.9352 109.564 65.7559 110.196C63.2039 111.562 60.7099 111.103 58.7379 109.341C56.318 107.175 54.0173 104.783 52.0937 102.169C47.3216 95.6879 42.9909 88.8775 38.1189 82.477C32.8506 75.56 27.0699 69.0401 21.7049 62.1974C18.1314 57.6432 14.8996 52.821 11.5001 48.128C11.165 47.6632 10.8106 47.0854 10.3304 46.8724C5.08467 44.5646 1.44033 40.8592 0 35.1817V30.9857C0.0934444 30.8018 0.232 30.6275 0.270667 30.4338C1.59178 23.7654 7.11467 21.3608 12.818 24.9919C13.4044 25.3631 13.949 25.8085 14.4742 26.2636C18.8049 30.0142 21.3247 34.8331 22.8488 40.2847C23.2097 41.5725 23.8638 42.8701 24.6887 43.9223C28.2299 48.4411 31.8871 52.8662 35.496 57.3301C37.613 59.9477 39.7171 62.5751 41.8631 65.2411C42.2143 64.9539 42.4947 64.8312 42.6042 64.6182C43.3389 63.198 44.2927 62.0909 45.8909 61.5358C46.3001 61.3937 46.6352 60.5223 46.6964 59.951C47.5342 52.1593 48.2786 44.358 49.1453 36.5696C49.3097 35.0849 48.7361 34.5685 47.444 34.2328C45.4817 33.726 43.5709 33.0192 41.615 32.4898C40.1328 32.0864 39.7719 31.1471 40.1521 29.8141C40.9222 27.1383 41.6504 24.4465 42.5527 21.8127C44.7019 15.5381 47.3506 9.51843 51.8294 4.48647C54.0141 2.03021 56.2761 -0.248538 59.9849 0.203338C60.1686 0.225931 60.3748 0.0645474 60.5713 -0.00968933H75.3936C75.806 0.0742304 76.212 0.219476 76.6277 0.235615C86.6133 0.626164 96.4798 2.06248 106.356 3.48266C110.857 4.1282 113.461 6.67161 114.988 10.6384C115.501 11.9715 115.668 13.4368 115.994 14.8409V29.0427L116 29.0491ZM88.6627 37.1538C93.6603 25.8796 100.675 15.8737 109.523 7.05894C108.547 6.03253 107.345 6.21974 106.385 6.97179C104.49 8.45329 102.715 10.093 100.939 11.7197C100.218 12.3814 99.7052 12.5331 99.238 11.4131C100.74 9.78955 102.254 8.14989 103.984 6.27784C103.063 5.92602 102.412 5.55806 101.719 5.43864C98.2359 4.84797 94.743 4.28958 91.2469 3.77961C81.2451 2.3207 71.1918 1.80104 61.0837 1.96888C57.2202 2.03343 54.4459 3.43748 52.0776 6.53282C46.8543 13.3626 44.0993 21.293 41.3218 29.246C41.0414 30.0465 41.3798 30.437 42.1499 30.6275C50.3247 32.6448 58.5897 34.1069 66.9836 34.888C74.1788 35.5594 81.3611 36.3889 88.6627 37.1571V37.1538ZM105.028 93.535C104.809 90.6979 104.532 88.035 104.416 85.3657C104.245 81.4473 104.223 77.5192 104.049 73.6008C104.017 72.8617 103.775 71.7675 103.269 71.4835C101.845 70.683 100.276 69.9051 98.6838 69.6857C93.2737 68.9336 87.841 68.3042 82.3987 67.8459C71.0693 66.8969 59.7303 66.0836 48.3946 65.2315C45.8587 65.041 44.5343 66.6258 44.9178 69.1402C46.8028 69.1402 48.6749 68.9982 50.518 69.166C55.6929 69.6405 60.871 70.1375 66.0201 70.8153C76.1218 72.1484 86.2138 73.5524 96.4443 73.2555C97.5173 73.2232 98.5936 73.2393 99.6633 73.3007C100.723 73.362 101.329 73.8687 101.252 75.0501C101.165 76.3896 101.191 77.7387 101.129 79.0814C101.026 81.4086 99.6021 82.6706 97.2435 82.5577C95.7967 82.4866 94.3467 82.4382 92.9063 82.3091C85.0054 81.6087 77.1046 80.9083 69.2069 80.1659C64.6732 79.7399 60.146 79.2138 55.6123 78.7845C55.0098 78.7264 54.3814 78.9911 53.4921 79.1557C53.9916 79.8303 54.2268 80.1724 54.4846 80.4984C57.0301 83.6809 59.5853 86.8537 62.1244 90.0426C63.3231 91.5435 64.7119 92.3117 66.7773 92.3698C77.4977 92.6603 88.2148 93.138 98.9319 93.5221C100.943 93.5931 102.956 93.5318 105.025 93.5318L105.028 93.535ZM22.185 44.1515C19.7651 44.8615 17.5418 45.4361 15.3764 46.1784C14.0972 46.6174 13.8684 47.4276 14.761 48.6508C19.0401 54.4994 23.1001 60.5126 27.5242 66.2482C33.0632 73.433 38.9534 80.3435 44.5569 87.4799C49.6287 93.9352 54.5136 100.539 59.508 107.059C59.9172 107.595 60.4747 108.105 61.074 108.373C61.4574 108.544 62.1792 108.392 62.5014 108.108C62.6916 107.94 62.5433 107.107 62.292 106.769C54.6263 96.5464 47.096 86.2146 39.1854 76.1894C32.4027 67.5941 25.1752 59.3474 18.1508 50.9425C17.8801 50.6165 17.5386 50.2453 17.4934 49.8645C17.4354 49.3868 17.4999 48.7122 17.7996 48.4346C18.009 48.2409 18.7856 48.4411 19.1593 48.6896C19.6813 49.0382 20.097 49.5707 20.503 50.0678C29.9538 61.6229 39.4464 73.1425 48.8263 84.7557C54.5619 91.8566 60.1299 99.0931 65.7591 106.281C66.5324 107.269 67.3638 107.479 68.3691 106.694C69.2907 105.974 69.6193 105.164 68.875 104.064C64.5733 97.7149 60.5456 91.1594 55.9474 85.0333C51.1173 78.6005 45.7008 72.6099 40.6258 66.3579C35.1093 59.5636 29.7024 52.6822 24.215 45.8686C23.6801 45.2037 22.8907 44.7389 22.1914 44.1579L22.185 44.1515ZM101.829 20.6184C103.343 21.0574 104.645 21.4479 105.96 21.8094C106.243 21.8869 106.578 21.9353 106.855 21.8611C111.254 20.6862 113.67 22.9456 113.003 27.4643C112.401 31.5506 111.982 35.6627 111.492 39.765C110.593 47.334 109.791 54.9126 108.779 62.4653C107.674 70.7185 106.572 78.9556 107.287 87.3088C107.339 87.9156 107.625 88.4998 107.803 89.0937C108.273 88.5256 108.389 88.0544 108.437 87.5799C109.13 80.9051 109.849 74.2335 110.487 67.5554C111.231 59.8057 111.985 52.0528 112.584 44.2903C113.38 34.0036 114.266 23.717 113.458 13.3787C113.184 9.87993 112.481 9.50229 109.459 11.4776C108.744 11.9456 107.996 12.4427 107.458 13.0882C105.637 15.2669 103.897 17.5134 102.151 19.7566C101.941 20.0278 101.893 20.4215 101.822 20.612L101.829 20.6184ZM100.939 34.6718C98.7676 34.604 98.4582 35.0203 98.2939 37.27C97.9394 42.1858 97.5496 47.1016 97.0211 52.0012C96.5797 56.1003 95.9352 60.1769 95.3423 64.2599C95.1264 65.7479 95.874 66.3547 97.1854 66.4773C98.455 66.5968 99.3894 66.203 99.5731 64.7408C100.727 55.4903 101.909 46.2398 103.043 36.986C103.298 34.8945 103.092 34.7395 100.939 34.6718ZM96.1189 37.9995C96.1189 37.3023 96.0126 36.5858 96.1414 35.9112C96.396 34.5782 95.671 34.1295 94.5883 33.768C93.4122 33.3742 92.7452 33.9746 92.5003 34.9042C92.0267 36.6923 91.6078 38.5159 91.4241 40.3525C90.6508 48.086 89.9934 55.8324 89.233 63.5692C89.1041 64.87 89.5552 65.3767 90.7893 65.593C92.0879 65.8221 92.4488 65.2476 92.6647 64.105C94.2887 55.4645 95.6452 46.7949 96.1221 37.9995H96.1189ZM82.1925 42.6506L81.8251 42.6022C81.8896 42.0147 82.0249 41.4241 81.9991 40.8399C81.983 40.4558 81.8445 39.9587 81.5738 39.7199C80.1463 38.4611 76.9209 39.5778 76.7147 41.437C76.0219 47.6277 75.3968 53.8216 74.762 60.0187C74.6976 60.6578 74.7008 61.313 74.7588 61.9521C74.8812 63.34 76.0702 64.1244 77.9133 64.3213C79.5341 64.4923 79.315 63.2271 79.4342 62.4105C80.3944 55.8292 81.2838 49.2383 82.1957 42.6506H82.1925ZM75.226 40.5042C74.9747 40.1039 74.7427 39.2422 74.2239 39.0033C72.0102 37.9801 70.2251 38.148 69.9093 41.1336C69.1876 47.9634 68.3981 54.7899 67.4637 61.5906C67.222 63.3562 68.092 63.6338 69.3358 63.85C71.1563 64.1663 72.3131 63.6434 72.4903 62.2814C73.4151 55.1482 74.2883 48.0085 75.226 40.5074V40.5042ZM55.7444 42.9927C55.7444 41.1207 55.6123 39.6585 55.7767 38.2319C56.0119 36.2049 54.5748 36.4308 53.4244 36.3308C52.171 36.2243 51.2591 36.5761 51.2043 38.148C51.1238 40.3977 50.8596 42.6377 50.6984 44.8841C50.315 50.1259 49.938 55.3677 49.59 60.6094C49.561 61.0419 49.6351 61.6584 49.9122 61.9005C51.011 62.8591 53.7112 61.7714 53.8691 60.3286C54.5232 54.4187 55.1483 48.5088 55.7444 42.996V42.9927ZM102.344 65.2024L102.444 65.2121C102.431 65.48 102.441 65.7511 102.405 66.0158C102.157 67.904 103.826 67.7103 104.767 67.9298C105.956 68.2042 105.592 66.9809 105.673 66.3418C105.992 63.8435 106.23 61.3356 106.54 58.8374C107.426 51.6623 108.296 44.4839 109.256 37.3185C109.462 35.7853 108.715 35.2753 107.487 35.0849C106.069 34.8686 105.824 35.8918 105.682 36.9602C105.231 40.3041 104.729 43.6383 104.342 46.9886C103.64 53.0566 103.008 59.1311 102.347 65.2024H102.344ZM62.4177 40.2556L62.2147 40.2266C62.2147 39.7973 62.1631 39.3616 62.2243 38.942C62.4757 37.1926 61.2061 37.0506 60.0332 36.8634C58.6573 36.6471 58.1192 37.3927 58.0097 38.6838C57.8808 40.2298 57.6423 41.7662 57.4812 43.3123C56.8819 49.064 56.2793 54.8125 55.709 60.5642C55.5704 61.9747 56.2181 62.8042 57.6971 62.8978C59.1922 62.9914 59.856 62.2329 59.9301 60.8095C59.9559 60.3286 60.0397 59.8541 60.0977 59.3764C60.871 53.0018 61.6443 46.6271 62.4209 40.2524L62.4177 40.2556ZM88.2889 46.7046L87.957 46.6755C87.957 45.01 87.8926 43.3413 87.9796 41.6823C88.0376 40.5365 87.4801 40.1524 86.4941 40.0588C84.7896 39.8941 84.0291 40.7495 83.7939 43.0444C83.1849 49.0188 82.621 54.9997 81.9218 60.9612C81.6189 63.5434 82.563 64.7021 85.2085 64.615C86.1139 64.5859 86.5618 64.3083 86.652 63.34C87.174 57.7916 87.7411 52.2465 88.2921 46.7013L88.2889 46.7046ZM67.9019 41.3272L67.6344 41.295C67.6957 40.6527 67.7859 40.0136 67.8084 39.3713C67.86 37.9705 66.961 37.3346 65.6206 37.751C64.6184 38.0608 64.2253 38.6967 64.1061 39.7489C63.5293 44.9681 62.8462 50.1775 62.2566 55.3967C62.0342 57.3624 61.8538 59.3442 61.8441 61.3195C61.8377 62.5525 62.8752 63.1496 63.9482 63.0237C64.4606 62.9624 65.2081 62.1393 65.2854 61.5842C66.2167 54.8415 67.0448 48.0828 67.8987 41.3272H67.9019ZM14.0489 29.5171L13.1628 29.2622L10.179 38.7774L10.7944 38.9743C11.8707 35.8176 13.9458 32.9934 14.0489 29.5171ZM15.3088 32.0283C13.4624 34.2167 12.8631 36.9247 12.5602 39.7489C14.094 37.4314 14.8706 34.8202 15.3088 32.0283ZM14.5773 40.8721C15.8469 38.5902 16.9006 36.263 16.3334 33.5808C15.2153 35.8951 14.4033 38.2738 14.5773 40.8721ZM11.8642 27.6871C10.7461 30.3079 9.164 32.7739 9.38633 35.7369C10.6398 33.1644 11.7321 30.5468 11.8642 27.6871ZM10.672 26.2314C9.08344 26.0893 7.73978 30.0626 8.33589 33.258L10.672 26.2314ZM5.80644 31.089C7.41111 30.4306 8.09744 28.0356 7.50778 25.531C6.18667 27.2319 5.83222 28.9975 5.80644 31.089ZM5.278 40.5171L5.67433 40.7333C5.95789 40.5752 6.44122 40.4687 6.49278 40.2524C6.86011 38.758 7.15656 37.2442 7.42722 35.7304C7.45622 35.5691 7.14367 35.1753 7.047 35.1946C6.786 35.2463 6.39289 35.4206 6.34456 35.6175C5.95144 37.241 5.62278 38.8839 5.27478 40.5171H5.278ZM56.8368 71.7707C55.0678 73.1909 54.665 74.9629 54.056 76.7801C55.4254 76.538 57.0076 73.7299 56.8368 71.7707ZM16.0692 40.7463L16.5493 40.8915C18.0702 38.6805 18.4601 36.5115 17.2743 35.3205L16.0692 40.743V40.7463ZM2.88711 32.3898L3.89244 32.6254C4.19211 31.2472 4.50144 29.8754 4.76567 28.4907C4.785 28.3842 4.50144 28.1099 4.35322 28.1034C4.12122 28.0937 3.70556 28.2067 3.67656 28.339C3.37689 29.6818 3.13844 31.0374 2.88389 32.393L2.88711 32.3898ZM54.3879 71.2188C53.4277 73.149 52.6414 74.7241 51.7586 76.4961C53.6274 76.1442 54.9969 73.4814 54.3879 71.2188ZM61.6443 72.7746L61.0869 72.4776C59.5918 73.504 58.6767 75.4438 58.9924 77.6225C60.0171 75.7472 60.8323 74.2625 61.6443 72.7746ZM110.78 25.6504C109.865 25.0048 109.295 24.298 108.863 24.3755C108.392 24.4561 108.051 25.2695 107.654 25.7601C108.093 26.1119 108.515 26.7091 108.976 26.7413C109.42 26.7704 109.904 26.2152 110.783 25.6504H110.78ZM56.0634 76.8543C57.8002 76.4347 58.9699 73.9623 58.464 71.9386L56.0634 76.8543ZM3.46711 38.1318C4.96544 37.354 5.40689 35.6272 4.87844 33.4452C3.16422 34.6492 3.828 36.3792 3.46711 38.1318ZM68.7171 78.0389L69.0973 78.3262C70.6376 77.5386 71.7492 75.1469 70.9469 73.6331C70.1381 75.2308 69.4292 76.6349 68.7171 78.0389ZM96.8954 76.1023C95.0813 76.2572 93.6217 78.4456 93.5314 80.9664C94.743 79.2138 95.7419 77.771 96.8954 76.1023ZM61.2093 77.7387C62.0181 76.0958 62.7496 74.6176 63.5261 73.0392C61.9633 73.1845 60.4038 76.2217 61.2093 77.7387ZM97.8782 29.8625C98.4969 28.9426 99.0866 28.1551 99.5634 27.2997C99.6956 27.0641 99.5441 26.5993 99.3927 26.3088C99.3282 26.183 98.8932 26.1507 98.6806 26.2281C97.7075 26.5832 97.1661 28.5747 97.8782 29.8625ZM76.1153 74.7208C74.2207 75.0242 73.3217 76.935 73.8791 78.9911C74.6943 77.4321 75.4064 76.0765 76.1153 74.7208ZM80.2333 79.0879C81.6608 78.9136 82.7273 77.1448 82.9046 74.9274C81.0679 75.7892 80.9616 77.5063 80.2333 79.0879ZM77.3752 78.9685C78.4804 78.778 80.1818 76.1184 79.8434 75.3212C79.7629 75.1308 79.3956 74.8758 79.2763 74.9274C79.0218 75.0339 78.7576 75.2857 78.6512 75.5407C78.213 76.6187 77.8328 77.7194 77.372 78.9685H77.3752ZM88.4242 80.0013C89.1879 78.7651 89.9516 77.5289 90.8506 76.0765C88.9913 76.2992 88.0118 77.8581 88.4242 80.0013ZM62.8623 77.09C64.3832 76.6542 65.4304 74.7757 65.0083 73.1716C63.5744 74.1495 63.2844 75.5891 62.8623 77.09ZM86.5167 79.5172C87.2449 78.2326 87.9699 76.9479 88.769 75.5342C87.2739 75.5794 85.9463 77.7323 86.5167 79.5172ZM96.3155 80.3402L96.7698 80.5984C97.7075 79.2364 99.2412 78.1971 99.2541 76.3282L98.6354 75.9861C97.8621 77.4386 97.0888 78.8878 96.3155 80.3402ZM50.0766 75.3793L50.7081 75.6149C51.33 74.6402 51.9744 73.6783 52.5512 72.6777C52.6704 72.4711 52.5287 72.1129 52.5061 71.8224C52.1742 71.8902 51.6426 71.8579 51.5459 72.0451C50.9981 73.1264 50.5534 74.2625 50.0766 75.3793ZM93.8794 76.2443C92.1717 76.58 90.8344 78.8813 91.4241 80.3338C92.336 78.8135 93.1093 77.5289 93.8794 76.2443ZM19.8618 37.6574C18.1733 38.1544 17.4354 40.4009 18.2378 42.16L19.8618 37.6574ZM68.904 73.9042C67.2832 74.1463 66.0491 76.1927 66.5808 78.0098C67.3026 76.7349 68.0211 75.46 68.904 73.9042ZM86.1429 76.0668C84.4416 75.9312 83.3718 77.5741 83.6908 79.8593C84.5833 78.4779 85.3309 77.3223 86.1429 76.0668ZM50.6179 71.4383C50.3633 71.2414 50.1088 71.0413 49.851 70.8444L48.3656 72.9811L49.0841 73.5008C49.5964 72.8133 50.1056 72.1258 50.6179 71.4383Z" fill="#95C11F"/>
<path d="M94.1629 19.2338C93.9148 19.7211 93.7247 20.2505 93.4057 20.6862C91.279 23.6105 89.5261 26.7155 88.5595 30.2305C88.4757 30.5371 88.3661 31.0342 88.1825 31.0761C87.5799 31.2181 86.9355 31.1955 86.3071 31.2343C86.3522 30.7243 86.262 30.1498 86.4747 29.7205C86.9387 28.778 87.596 27.9356 88.0987 27.0092C89.2394 24.908 90.2543 22.7358 91.4885 20.6927C91.9686 19.9019 92.903 19.3887 93.6312 18.7496L94.1629 19.2305V19.2338Z" fill="#95C11F"/>
<path d="M75.877 30.2402C78.0165 30.0142 79.5986 29.8109 81.184 29.7011C81.7414 29.6624 82.3858 29.7205 82.8563 29.9755C83.2365 30.1821 83.4137 30.7566 83.6812 31.1697C83.2204 31.3602 82.7564 31.7217 82.3053 31.7088C80.7071 31.6636 79.1056 31.5506 77.5267 31.3311C77.0563 31.2666 76.6471 30.7663 75.8802 30.2402H75.877Z" fill="#95C11F"/>
<path d="M51.6941 28.7716C51.272 28.7199 50.5342 28.7716 49.9316 28.5166C49.4934 28.3294 49.2324 27.729 48.894 27.3126C49.3838 27.0189 49.8929 26.4509 50.3602 26.4831C51.5653 26.5606 52.7607 26.8801 53.9433 27.1577C54.201 27.219 54.6199 27.6322 54.5909 27.6871C54.4105 28.0324 54.1753 28.5004 53.8595 28.594C53.2602 28.7683 52.5964 28.7167 51.6909 28.7748L51.6941 28.7716Z" fill="#95C11F"/>
<path d="M55.2773 8.18863C55.3482 7.5205 55.1936 6.69099 55.5351 6.21652C56.389 5.0255 56.7982 3.19218 59.0312 3.27287C58.651 5.53548 57.2558 6.92338 55.8606 8.31128L55.2773 8.19186V8.18863Z" fill="#95C11F"/>
<path d="M67.106 28.3197C67.5216 28.3197 67.9405 28.2842 68.353 28.3261C69.9028 28.4843 71.456 28.6295 72.993 28.8716C73.4763 28.9459 73.9177 29.3041 74.3785 29.5301C74.0273 29.8302 73.7083 30.3338 73.3184 30.3919C71.05 30.7372 69.0457 29.9335 67.1317 28.8361L67.106 28.3197Z" fill="#95C11F"/>
<path d="M51.981 14.9603C51.8006 14.6408 51.3849 14.205 51.4783 14.0275C51.9198 13.1625 52.4966 12.3685 53.0282 11.5486C53.2699 11.781 53.7597 12.0974 53.7146 12.2265C53.3827 13.1722 52.9412 14.0824 52.5352 15.0023L51.9842 14.9603H51.981Z" fill="#95C11F"/>
<path d="M59.9463 27.2836C59.0022 29.0007 58.0227 28.9749 57.0399 28.3746C56.7596 28.2035 56.7789 27.5386 56.6597 27.0996C57.6586 27.1545 58.6574 27.2126 59.9463 27.2836Z" fill="#95C11F"/>
<path d="M94.8237 17.6005C94.9655 15.5703 95.5197 14.999 97.9138 15.0184C96.8634 16.2094 96.0707 17.1099 95.2781 18.0105L94.8237 17.6005Z" fill="#95C11F"/>
<path d="M50.7145 18.5398L49.1067 20.4474C48.8489 20.0052 48.2818 19.4371 48.3978 19.1434C48.6555 18.4946 49.2613 17.9847 49.7221 17.4166L50.7113 18.5398H50.7145Z" fill="#95C11F"/>
<path d="M64.1381 29.0491L61.7505 29.1169C61.7537 28.7845 61.7247 28.168 61.7666 28.1615C62.5431 28.0679 63.3261 28.0518 64.1091 28.0163L64.1381 29.0491Z" fill="#95C11F"/>
<path d="M48.3976 23.4427C47.8627 24.1979 47.4728 24.7466 47.0861 25.2954C46.8509 25.0275 46.432 24.766 46.4159 24.4852C46.3611 23.4717 46.896 23.0812 48.3976 23.4427Z" fill="#95C11F"/>
</g>
<defs>
<clipPath id="clip0_282_20979">
<rect width="116" height="111" fill="white"/>
</clipPath>
</defs>
</svg>
