<svg width="116" height="132" viewBox="0 0 116 132" fill="none" xmlns="http://www.w3.org/2000/svg">
<g clip-path="url(#clip0_282_20913)">
<path d="M28.0775 0C28.3548 0.154964 28.6256 0.326414 28.9162 0.458299C31.8682 1.81341 32.8225 3.66969 32.1654 6.82173C32.0432 7.41191 31.8682 7.9955 31.779 8.59228C31.4422 10.8508 32.2314 12.1664 34.2522 13.2379C35.9429 14.1347 37.6764 15.0381 39.1425 16.2416C41.5266 18.1968 41.8403 20.5344 40.5723 23.3502C40.1398 24.3129 39.9383 25.3779 39.585 26.5517C40.5624 26.7363 41.2459 26.9012 41.9427 26.9869C44.4819 27.31 45.6937 28.464 45.8853 30.9929C45.9975 32.4667 45.9513 33.957 45.9018 35.4407C45.8258 37.6201 45.4032 38.1278 43.1479 38.8367C44.0923 39.2027 44.8881 39.5555 45.7136 39.8259C50.234 41.3096 52.4695 44.5968 52.8294 49.1567C53.0374 51.7713 52.9021 54.4189 52.836 57.05C52.3374 77.7592 51.9082 98.4716 51.2511 119.178C51.0463 125.607 48.9594 128.264 42.9894 130.19C40.5492 130.975 37.9505 131.627 35.4113 131.68C27.4072 131.848 19.3469 132.722 11.4386 130.615C10.6428 130.404 9.8437 130.173 9.08424 129.863C4.30291 127.912 2.09386 125.805 1.77026 118.93C1.35751 110.203 1.27166 101.462 1.04051 92.7281C0.697104 79.8166 0.343788 66.9051 0.0135858 53.9969C-0.0194345 52.6813 0.0201898 51.3592 0.10274 50.0436C0.442849 44.6363 3.01182 40.9502 8.39081 39.4599C8.8531 39.3313 9.27906 39.084 9.81068 38.8532C7.24501 37.9201 6.59782 36.5419 7.0634 32.1535C7.43653 28.6453 7.26482 27.3792 13.5882 26.4857C13.2844 25.4438 13.1457 24.3657 12.6735 23.4623C11.2768 20.785 11.5013 18.3188 13.8259 16.357C15.2755 15.1338 16.9959 14.204 18.6832 13.3072C20.8229 12.1697 21.5527 10.9827 21.2423 8.54612C21.1531 7.83724 20.9913 7.14155 20.889 6.43267C20.4399 3.34327 21.3579 1.70461 24.2306 0.425328C24.5278 0.290146 24.8151 0.141776 25.1023 0H28.0742H28.0775ZM2.12688 92.0159H2.20283C2.50001 101.403 2.86653 110.786 3.04814 120.177C3.10098 122.867 4.02224 125.004 6.22799 126.28C8.23892 127.44 10.4843 128.393 12.7462 128.884C21.1102 130.698 29.5799 130.622 37.9967 129.346C40.7737 128.924 43.521 127.912 46.1098 126.781C48.233 125.854 49.785 124.014 49.9038 121.561C50.1977 115.528 50.3001 109.487 50.5279 103.45C50.9407 92.583 51.4789 81.7223 51.786 70.855C51.9808 64.0036 51.9742 57.139 51.8223 50.2843C51.7199 45.5628 49.3425 42.4009 44.7923 40.5479C40.6384 38.8565 36.4745 38.8499 32.1687 39.0609C28.444 39.2456 24.7028 39.2884 20.9715 39.2291C16.6525 39.1565 12.4259 38.6554 8.18609 40.5512C3.99252 42.4273 1.51931 45.21 1.35421 49.7139C1.16599 54.8607 1.1858 60.0207 1.30137 65.1708C1.5028 74.1224 1.84291 83.0708 2.12688 92.0192V92.0159ZM29.4511 26.677V26.5088C31.2111 26.5088 32.9777 26.4231 34.7343 26.5319C36.8278 26.6638 38.6968 26.6275 38.9675 23.8975C38.9939 23.6436 39.1954 23.4029 39.3374 23.1655C40.8002 20.6828 40.536 18.5825 38.2675 16.812C36.9401 15.7767 35.4113 14.9656 33.8956 14.2106C31.3201 12.9247 30.2865 11.0321 30.8181 8.19003C30.9898 7.27344 31.2276 6.37003 31.3762 5.45013C31.6734 3.61034 30.9304 2.21236 29.3785 1.27269C27.4699 0.115399 25.5052 0.121993 23.6197 1.32874C22.0942 2.30468 21.3777 3.70596 21.7376 5.54904C21.9159 6.46564 22.1008 7.37894 22.2725 8.29554C22.7843 11.0585 21.7706 12.9214 19.2677 14.1809C17.7058 14.9656 16.1241 15.7932 14.7571 16.8647C12.5679 18.5825 12.2971 20.8411 13.6641 23.2578C14.0109 23.8744 14.3543 24.5371 14.483 25.2229C14.7208 26.4659 15.4307 26.7165 16.5864 26.7C20.8758 26.644 25.1651 26.677 29.4544 26.677H29.4511ZM10.3324 28.2002L10.0286 27.8441C9.53992 28.6717 8.76064 29.4564 8.62196 30.3401C8.33468 32.1732 8.26864 34.0658 8.3677 35.9221C8.39742 36.509 9.16018 37.4124 9.73474 37.5443C11.1579 37.8707 12.6669 37.93 14.1396 37.9333C22.5565 37.963 30.97 37.963 39.3869 37.9333C40.6978 37.93 42.0483 37.8871 43.2998 37.5541C43.8974 37.3959 44.68 36.5485 44.7263 35.9616C44.8649 34.2208 44.7824 32.4436 44.5942 30.6994C44.3861 28.7871 43.4352 27.9694 41.8139 27.8771C41.9922 29.3048 42.1738 30.7522 42.3554 32.1996L41.9228 32.2524C41.247 29.4872 40.5712 27.9595 39.8954 27.6694C40.0242 29.5323 40.1596 31.4743 40.2916 33.4163L39.7402 33.4624C39.4265 31.4281 40.0176 29.1267 38.1552 27.3298C38.2972 29.4762 38.4227 31.3885 38.5482 33.3009L38.0694 33.3239C37.8118 31.4413 38.2279 29.4004 36.6792 27.3628V31.2204C36.1311 29.7433 35.7018 28.5827 35.2693 27.4254L34.8631 27.5771L35.0216 30.0763C34.599 29.8653 34.4008 29.5949 34.3744 29.3081C34.2324 27.732 33.4168 27.2968 31.855 27.3661C28.6685 27.5078 25.4722 27.3957 22.2791 27.4188C20.8493 27.4287 19.4163 27.5144 17.8247 27.5705V30.5709L17.445 30.5906L17.0751 27.0594C15.434 28.2827 16.2166 30.0169 15.3019 31.1775C15.3614 29.9444 15.4208 28.7113 15.4803 27.4782C13.3438 29.5685 14.6415 32.2985 13.6674 34.6461V27.1781C11.7721 29.9543 12.8816 32.8821 11.9504 35.8627V27.6958C9.98899 29.9741 11.2372 32.7239 10.3291 35.0879V28.1837L10.3324 28.2002Z" fill="#95C11F"/>
<path d="M68.6489 81.7288C70.3197 79.3746 72.6114 77.8909 75.4346 77.5085C80.0541 76.882 83.6533 79.922 84.284 84.7654C84.6901 87.8746 85.4727 89.388 87.9955 91.5707C89.3757 90.0639 90.7395 88.4945 92.1923 87.0108C93.5759 85.6029 94.6589 85.504 95.775 86.5162C96.7557 87.4064 96.6798 88.8308 95.567 90.2057C95.359 90.4628 95.1245 90.6936 94.9033 90.9409C93.2259 92.7939 93.2061 93.7797 94.8307 95.6987C95.1476 96.0745 95.5241 96.4009 95.8576 96.7669C97.3006 98.3594 98.6115 99.2826 101.167 98.399C105.701 96.8329 109.838 98.3166 113.249 101.637C116.122 104.433 116.842 109.481 114.947 113.615C113.031 117.796 110.377 121.274 106.166 123.53C102.122 125.699 98.0534 126.395 94.1669 123.78C89.8908 120.902 88.1804 116.645 88.9663 111.452C89.1248 110.404 90.1352 109.332 89.0356 108.228C87.3483 106.533 85.5586 104.99 83.1052 104.591C82.7519 104.535 82.2533 104.97 81.9165 105.28C81.19 105.946 80.5956 106.777 79.8098 107.354C78.8125 108.086 77.6535 108.277 76.6497 107.301C75.6228 106.305 75.5799 105.151 76.4615 104.05C77.9342 102.21 79.463 100.414 80.9655 98.6001L80.9225 98.6298C83.0689 96.3218 85.2185 94.0138 87.5233 91.5377C84.5019 90.4101 83.2274 88.2373 83.0986 85.2996C83.0755 84.8116 82.9632 84.3236 82.8773 83.8389C82.1938 79.9253 78.7003 77.5711 74.7808 78.3262C72.3505 78.7944 70.5212 80.2319 68.7777 81.8409C68.7348 81.8013 68.6919 81.7618 68.6489 81.7255V81.7288ZM90.8055 96.0712C90.5611 96.1207 90.2243 96.0811 90.0889 96.2295C87.8832 98.6628 85.7039 101.119 83.4882 103.602C88.4677 105.943 88.5997 106.038 90.1319 108.561C90.2838 108.811 90.5215 109.108 90.4918 109.359C90.3036 110.935 89.838 112.504 89.8776 114.067C89.9139 115.541 90.4555 117.005 90.8088 118.462C90.8154 118.485 91.2414 118.403 91.2678 118.399C91.5385 119.075 91.6706 119.777 92.0636 120.282C92.5192 120.866 93.315 121.182 93.7674 121.766C94.8075 123.111 96.3133 123.47 97.8058 123.807C99.0969 124.1 100.348 123.938 101.712 123.678C103.307 123.375 104.737 122.956 106.044 122.112C107.312 121.291 108.57 120.411 109.663 119.375C110.776 118.323 111.876 117.163 112.638 115.851C113.708 114.008 114.164 111.996 114.339 109.761C114.507 107.591 113.897 105.719 113.566 103.724C113.553 103.645 113.021 103.651 112.777 103.622C112.566 103.104 112.315 102.487 111.925 101.531L111.489 102.896C111.265 102.171 111.083 101.577 110.826 100.74C110.637 101.261 110.545 101.511 110.532 101.548C110.099 101.195 109.551 100.915 109.251 100.466C108.61 99.5101 107.705 99.4607 106.715 99.4475C104.605 99.4178 102.432 99.0222 100.401 99.3947C98.552 99.7343 97.0793 99.5958 95.9368 98.2111C94.7415 96.7636 93.7674 95.1349 92.5258 93.3346C91.9414 94.2611 91.3536 95.1909 90.7659 96.1207L90.8055 96.0679V96.0712ZM82.6957 101.643C83.1646 101.591 83.6896 101.69 83.8812 101.482C85.6114 99.6057 87.2855 97.6769 88.9729 95.758C89.9503 94.6469 90.7461 93.2588 91.9381 92.4741C93.7608 91.2772 93.8268 89.6485 93.8004 87.5515C94.1537 88.3659 94.3948 88.9264 94.6391 89.4836L95.2995 89.2924C95.1047 88.4516 94.9066 87.6141 94.7118 86.7734C93.8334 87.0569 92.9551 87.3405 92.0768 87.6306C92.0305 87.6471 91.9942 87.7032 91.9579 87.7427C87.17 93.0247 82.3754 98.2968 77.6106 103.599C77.2243 104.027 76.8512 104.644 76.8412 105.181C76.8313 105.679 77.2408 106.533 77.5974 106.609C78.1554 106.728 78.8588 106.388 79.4366 106.108C79.6975 105.979 79.8032 105.531 80.1102 104.993C80.7046 104.502 81.5631 103.786 82.4382 103.064C82.25 102.89 82.0683 102.722 81.8372 102.507C82.4018 102.415 82.8344 102.342 83.4387 102.243C83.0788 101.95 82.9269 101.828 82.6957 101.64V101.643Z" fill="#95C11F"/>
<path d="M80.9687 98.6068C78.7299 96.833 76.3129 95.7911 73.3179 95.7944C70.0753 95.7944 67.7309 94.0172 66.5884 90.9245C65.3072 87.4461 66.1889 84.4028 68.6456 81.7322C68.6885 81.7717 68.7314 81.8113 68.7743 81.8476C68.2757 82.8796 67.7573 83.9017 67.2818 84.9403C65.2841 89.3024 68.0512 94.891 73.1132 94.7921C73.9321 94.7756 74.751 94.9371 75.5732 94.9668C78.1422 95.0591 79.8757 96.345 80.9192 98.6365L80.9621 98.6068H80.9687Z" fill="#95C11F"/>
<path d="M48.378 114.779C49.2993 120.154 46.1756 124.469 41.107 125.729C34.4468 127.387 27.7635 126.827 21.0901 126.111C17.557 125.732 14.0271 125.139 10.5732 124.315C7.35703 123.546 5.53762 121.219 5.28006 117.915C4.81448 111.954 4.30927 105.986 4.09794 100.011C3.70169 88.9793 3.50688 77.9406 3.22951 66.9018C3.213 66.2589 3.22951 65.616 3.22951 64.973L3.63896 64.9631C3.67528 65.5731 3.72811 66.1831 3.74132 66.7963C3.91963 74.7589 3.98237 82.728 4.29606 90.6872C4.59654 98.3134 5.15128 105.93 5.61026 113.549C5.65319 114.258 5.80508 114.964 5.90744 115.669C6.69002 121.06 7.89196 122.712 13.2313 123.77C21.7142 125.455 30.283 126.487 38.9475 124.967C43.0948 124.239 46.0468 122.181 47.2289 117.964C47.5327 116.88 47.995 115.838 48.3879 114.776L48.378 114.779Z" fill="#95C11F"/>
<path d="M50.4448 55.0817C49.5268 51.9 50.1046 48.7974 48.5428 46.0047C47.2418 46.5949 46.063 47.1291 44.7323 47.7291C44.9667 48.2732 45.1681 48.7446 45.4554 49.4173L47.7173 47.6632L48.1432 47.9566C47.6347 48.6457 47.2385 49.4733 46.5946 49.9877C45.7922 50.6306 45.7526 51.1482 46.3502 51.933L48.7178 51.1219C48.4668 52.4374 45.8549 51.6131 46.588 53.7497C47.2583 53.6541 47.8824 53.5683 48.7376 53.4496C47.8494 53.9475 47.1824 54.3201 46.5153 54.6926L46.73 55.1707H48.2885C47.7965 55.7279 47.3409 56.2423 46.8819 56.7599C47.2814 56.9281 47.6777 57.0929 48.1234 57.2809C47.4663 57.815 45.888 58.148 47.4828 59.4471C47.605 59.546 47.0371 60.489 46.7894 61.0396L47.1625 61.3001C46.479 61.4451 45.7955 61.5902 45.0195 61.7551C45.5446 59.8988 44.1016 60.5219 43.5303 60.3703C43.9794 59.9087 44.4483 59.4273 44.9139 58.9459C44.5771 58.6887 44.2403 58.4316 44.0355 58.2733C44.2766 57.9073 44.6629 57.449 44.8676 56.9248C44.9172 56.7962 44.3822 56.4401 44.2039 56.2687C44.4087 55.9653 44.7653 55.6224 44.8577 55.2169C44.8908 55.0718 44.303 54.7784 44.1412 54.6597C44.3988 54.3102 44.7091 53.8947 45.1648 53.2815C44.4351 53.1496 44.0091 53.0738 43.8374 53.0408C44.1511 52.5627 44.5011 52.0253 45.0129 51.2406C41.4765 51.7417 38.4452 52.1671 35.414 52.5957L35.3347 52.1934C38.29 51.478 41.2453 50.7592 44.3922 49.9976C44.1478 49.2524 43.9695 48.7117 43.7714 48.105C41.4137 48.6161 39.175 49.0974 36.9395 49.5821L36.8569 49.2524C38.9933 48.6985 41.1298 48.1413 43.3124 47.5742C42.9657 46.4235 42.5067 46.0245 41.3543 46.3575C39.2608 46.9576 37.1079 47.3533 34.922 47.5907C37.2235 46.9642 39.5217 46.3345 41.8232 45.708L41.9454 45.2497C40.9911 44.6793 40.0368 44.1089 39.0165 43.4989C39.8717 43.3044 40.8557 43.0802 41.8364 42.856L41.9189 43.0209L40.9878 43.5913C43.3157 45.7344 42.2756 45.5794 46.3271 43.71C45.2044 42.1109 42.3218 41.0525 40.4594 41.458C38.4287 41.8998 36.3781 42.246 34.2715 42.3285C36.0579 41.9064 37.8475 41.4811 39.6339 41.0591L39.5811 40.5546C38.4386 40.637 37.2961 40.703 36.1569 40.8085C34.9616 40.9206 33.7662 41.0756 32.5742 41.1151C37.3555 39.1962 42.0444 39.4369 46.3139 42.3416C50.7221 45.3387 51.0556 49.9019 50.4382 55.0883L50.4448 55.0817ZM48.1201 45.5992C47.0371 43.7825 45.9672 43.9144 43.4709 46.0311C43.8011 46.4268 44.1346 46.8191 44.5077 47.2609C45.779 46.6774 46.9413 46.1432 48.1201 45.5992Z" fill="#95C11F"/>
<path d="M49.2795 70.5153C48.094 71.089 46.9647 71.9364 45.7133 72.1969C35.5232 74.3268 25.2804 75.2467 14.9715 72.9651C12.561 72.431 10.1604 71.8606 7.78626 71.1912C6.77584 70.9077 5.85127 70.3274 4.95312 69.7372C12.2011 71.7188 19.5646 72.5661 27.0205 72.4244C34.4336 72.2826 41.7971 71.544 49.0219 69.6548L49.2795 70.5153Z" fill="#95C11F"/>
<path d="M45.2739 79.9616C45.624 89.0352 45.2343 98.1089 44.5574 107.4C45.3037 107.044 45.8155 106.8 46.3273 106.556L46.4462 106.724C45.7461 107.311 45.0428 107.895 44.3428 108.482L44.673 108.97L47.0108 107.839C45.0395 110.196 42.345 111.083 39.2114 111.967C40.7238 110.519 42.9592 110.743 44.0192 108.524C43.1045 108.831 42.6323 108.989 42.1634 109.148C43.8805 108.399 43.7517 106.981 43.7715 105.478C43.8739 97.522 44.0588 89.5661 44.2338 81.6101C44.247 81.0496 44.4121 80.4957 44.5046 79.9385L45.2739 79.9649V79.9616Z" fill="#95C11F"/>
<path d="M43.9631 66.7468C44.4947 66.5423 45.0231 66.3379 45.8486 66.0214C41.764 65.2697 37.9997 64.5773 34.2354 63.8882C38.67 63.786 43.1277 65.6356 47.4963 63.2617L47.5887 63.7563C46.6675 64.0794 45.7429 64.3992 44.8216 64.7223L44.8414 64.9169H46.7104C47.8694 65.5994 48.8204 66.1599 49.9629 66.8358V59.958L50.5506 59.9778C50.6596 72.8926 50.019 85.7843 48.6817 98.6497C48.9161 92.9226 49.1374 87.1955 49.385 81.4684C49.5534 77.5745 49.7879 73.6872 49.9431 69.7933C50.0421 67.3468 48.3779 66.0643 45.9278 66.6149C45.2938 66.7567 44.6598 66.8819 44.0225 67.0138L43.9631 66.7567V66.7468Z" fill="#95C11F"/>
<path d="M8.16261 105.214C7.78948 96.2528 7.41635 87.2912 7.03662 78.1714H8.25507C8.03383 79.0451 7.62768 79.8595 7.6508 80.6607C7.89515 88.831 8.20884 97.0012 8.50272 105.171L8.15931 105.214H8.16261Z" fill="#95C11F"/>
<path d="M8.55902 53.799L6.2344 54.1189C4.88057 49.826 7.98447 44.1418 11.9502 43.634C11.0884 44.3825 10.2794 45.032 9.52981 45.7409C8.01088 47.1817 7.00707 48.916 6.68347 51.0064C6.36648 53.0473 6.48535 53.199 8.55902 53.799Z" fill="#95C11F"/>
<path d="M8.9945 79.2166C9.20583 80.0672 9.58556 80.9146 9.59547 81.7685C9.65491 86.523 9.62519 91.2807 9.62519 96.0384C9.37093 96.0384 9.11998 96.0384 8.86572 96.0384V79.3056L8.9945 79.2166Z" fill="#95C11F"/>
<path d="M46.9978 113.091C43.4316 116.326 39.0631 117.094 34.4204 118.169C38.7692 116.415 42.7778 114.792 46.9978 113.091Z" fill="#95C11F"/>
<path d="M2.98828 47.2181C3.38122 43.8781 8.14934 40.8283 12.6005 40.7327C9.01777 42.0977 4.99261 42.7736 2.98828 47.2181Z" fill="#95C11F"/>
<path d="M37.2466 119.52C40.1722 118.347 43.0978 117.173 46.0465 115.989C45.0988 117.414 40.6113 119.283 37.2466 119.52Z" fill="#95C11F"/>
<path d="M37.5405 121.772L45.4621 118.544C43.3158 120.829 40.4001 121.235 37.5405 121.772Z" fill="#95C11F"/>
<path d="M48.3612 110.134C45.5942 111.531 42.8304 112.929 40.0633 114.327L39.8486 113.909C42.5926 112.465 45.3366 111.024 48.0806 109.58L48.3612 110.134Z" fill="#95C11F"/>
<path d="M44.5771 121.561C42.5332 122.336 40.4892 123.111 38.442 123.889L38.2769 123.464C40.3076 122.649 42.3383 121.838 44.3691 121.024L44.5771 121.561Z" fill="#95C11F"/>
<path d="M11.7455 65.8895C10.1969 66.2324 8.64822 66.572 7.09957 66.9149L6.9873 66.3709C8.54916 66.0907 10.1077 65.8104 11.6696 65.5334L11.7455 65.8895Z" fill="#95C11F"/>
<path d="M33.192 23.2281C34.6713 22.8819 36.1473 22.5357 37.6266 22.1895L37.511 21.7081C36.2628 21.9653 35.0147 22.2225 33.7665 22.483L33.7005 22.2423L37.7157 20.808L37.5374 20.297L34.668 21.0883L34.6085 20.8971C35.4605 20.4684 36.3157 20.0431 37.4681 19.4661C35.7213 18.2594 34.1727 17.1911 32.624 16.1228L32.8552 15.7239C34.5062 16.6075 36.2595 17.3428 37.7752 18.411C39.3502 19.5222 39.3007 21.1707 38.0955 23.0435L33.2316 23.4886L33.192 23.2281Z" fill="#95C11F"/>
<path d="M28.4669 8.97135C27.899 6.63699 30.8081 4.42792 28.3976 1.92871C30.8675 3.17502 30.7882 5.90503 28.4669 8.97135Z" fill="#95C11F"/>
<path d="M26.3335 12.4236C27.5784 12.051 29.51 12.5258 29.3747 10.1848C29.6256 11.2234 29.8799 12.262 30.2299 13.7061L26.3401 12.8621L26.3335 12.4236Z" fill="#95C11F"/>
<path d="M97.5084 104.179C100.777 100.242 106.781 100.091 110.185 103.935C111.473 105.392 112.143 107.054 111.971 109.059C111.562 113.84 106.427 119.949 101.761 121.12C97.974 122.069 94.9395 120.724 93.054 117.259C91.2709 113.981 91.8884 109.956 94.923 107.137C94.4244 107.984 94.147 108.413 93.9092 108.861C92.3276 111.845 92.3573 114.717 94.4243 117.509C96.2239 119.943 98.6278 120.872 101.501 119.972C106.358 118.452 109.435 115.185 110.614 110.242C111.786 105.32 106.853 100.73 101.851 102.141C100.315 102.577 98.9151 103.5 97.5084 104.172V104.179Z" fill="#95C11F"/>
<path d="M90.7627 96.1242L92.2156 95.0955C93.5364 96.6451 94.7912 98.1189 96.2209 99.8004C95.7025 100.308 95.2105 100.786 94.7218 101.264L94.4312 101.027L94.9893 100.035C94.0053 99.5828 92.8661 99.3224 92.1231 98.6366C91.4594 98.0233 91.2316 96.9418 90.8089 96.0681C90.8089 96.0714 90.766 96.1242 90.766 96.1242H90.7627Z" fill="#95C11F"/>
<path d="M91.9878 107.021C92.9883 104.558 94.6459 102.616 96.7691 101.08C97.0135 100.902 97.5319 101.099 97.9215 101.126C97.8192 101.508 97.8423 102.026 97.5979 102.25C96.4158 103.315 95.1577 104.294 93.936 105.32C93.2756 105.874 92.635 106.454 91.9878 107.024V107.021Z" fill="#95C11F"/>
<path d="M80.5133 87.5812C79.9751 85.9953 79.6151 84.3138 78.8359 82.8598C78.2811 81.8212 77.1551 80.3968 76.2867 80.3968C75.3093 80.3968 74.8866 79.378 74.0083 79.7572C76.0556 79.1406 77.7858 79.5297 78.8392 80.865C80.3911 82.8334 80.9128 85.115 81.0053 87.5054L80.5133 87.5812Z" fill="#95C11F"/>
<path d="M84.6009 92.2929C82.1111 91.5016 81.5564 90.341 82.7749 88.9463C83.3989 90.0937 83.9999 91.1916 84.6009 92.2929Z" fill="#95C11F"/>
</g>
<defs>
<clipPath id="clip0_282_20913">
<rect width="116" height="132" fill="white"/>
</clipPath>
</defs>
</svg>
