<svg width="53" height="179" viewBox="0 0 53 179" fill="none" xmlns="http://www.w3.org/2000/svg">
<g clip-path="url(#clip0_282_20992)">
<path d="M27.0072 179C19.5317 178.81 12.7779 178.176 6.38288 175.562C1.72739 173.657 1.23514 171.288 0.65112 166.425C-0.233257 159.094 2.48662 152.604 3.8257 145.782C5.24821 138.555 4.79768 131.356 3.60877 124.182C2.57422 117.936 1.32275 111.728 0.213103 105.494C0.0587545 104.624 -0.166511 103.535 0.200588 102.843C1.66899 100.097 0.772096 97.3593 0.475913 94.6133C-0.429321 86.1969 1.1684 78.0291 2.65765 69.7992C4.55155 59.3492 9.56163 49.9637 12.3858 39.8451C14.0085 34.0216 15.3935 28.2271 14.3381 22.1426C14.2004 21.3432 13.8792 20.5646 13.5622 19.8108C12.3357 16.8949 12.2398 13.9417 13.0407 10.9015C13.2577 10.0732 13.3369 9.15781 13.241 8.30458C12.8864 5.09048 14.651 2.17459 17.763 1.2758C22.9274 -0.219423 28.1669 -0.414092 33.4148 0.770488C38.1704 1.84324 39.985 4.53546 39.4218 9.3152C39.3468 9.9572 39.4469 10.6986 39.7097 11.2867C40.6274 13.3577 40.7734 15.4783 39.8932 17.5203C37.5321 23.0083 37.9618 28.6868 39.2341 34.179C40.5982 40.0522 42.7424 45.7514 44.6447 51.4962C45.8377 55.0914 47.3687 58.5788 48.4784 62.1947C52.0868 73.9618 53.7054 85.9526 52.1786 98.254C52.1368 98.5936 51.9491 98.9912 52.0617 99.2687C54.3645 104.972 51.7948 110.41 51.0939 115.923C50.4348 121.109 49.1833 126.224 48.5785 131.418C47.8443 137.714 48.8955 143.918 50.3264 150.061C51.1523 153.61 52.2244 157.176 52.4288 160.776C52.6249 164.267 51.9658 167.829 51.4151 171.317C51.2733 172.22 50.2638 173.189 49.4003 173.748C44.628 176.838 39.1966 177.944 33.6442 178.549C31.2288 178.814 28.7926 178.884 27.0072 179ZM35.1877 82.4651L37.2568 78.2528C37.8784 78.4392 38.8086 78.6214 39.6596 78.9901C40.519 79.367 41.2991 79.922 42.1793 80.4397C42.659 79.7894 43.0428 79.2717 43.4349 78.7457C40.7317 77.0309 36.9272 76.5836 33.786 77.5363C29.4809 78.841 24.7587 86.4744 25.5597 90.8359C25.9309 92.8488 27.6329 93.7725 29.4225 92.7908C31.7086 91.54 32.8975 89.4856 33.1061 86.9301C33.1478 86.4123 32.8224 85.5135 32.4636 85.3934C31.9255 85.2153 30.8993 85.3561 30.624 85.7413C29.7646 86.9549 29.1597 88.3466 28.4589 89.672L29.3141 90.1483C30.2277 88.7939 31.1371 87.4395 32.0506 86.0851L32.8057 86.4537C32.3051 87.7046 32.0006 89.0921 31.2414 90.1649C30.6865 90.9436 29.5352 91.308 28.6508 91.8589C28.3713 90.8193 27.6955 89.6968 27.8874 88.7484C28.6007 85.236 30.357 82.1917 32.9225 79.6445C33.4606 79.1102 34.1323 78.7167 34.7413 78.2569C34.2157 79.3794 33.3856 80.1953 33.0268 81.1853C32.7473 81.9474 33.0643 82.9207 33.1144 83.8029L35.2586 82.3988L35.1877 82.4651ZM45.5791 79.5119L44.8491 81.3054C47.8568 81.1314 49.8425 79.7066 50.5183 77.5901C49.0165 78.1865 47.2603 78.8824 45.504 79.5823C46.0213 78.493 46.5386 77.4079 48.2698 78.0664C48.0445 76.099 46.9724 76.7659 46.1798 77.3002C42.9927 79.425 41.3283 82.6888 39.7556 86.0064C39.4552 86.636 39.1882 87.2821 38.9046 87.92C38.4999 87.2945 38.5041 86.7892 38.4999 86.2881C38.4874 84.8218 37.6531 84.6934 36.556 85.178C34.8873 85.9194 32.8766 89.5726 33.0518 91.4323C33.1811 92.8115 34.0989 93.3127 35.1501 92.4305C35.9761 91.7388 36.5518 90.753 37.2276 89.8915C37.5571 89.469 37.8533 89.0217 38.1662 88.5868C38.5249 89.3986 38.3873 90.0075 38.4624 90.5873C38.5458 91.2211 38.8253 91.8341 39.0214 92.4512C39.5804 92.2731 40.1394 92.0909 40.7025 91.9128C40.9737 91.8258 41.4409 91.6145 41.4951 91.6891C42.634 93.2713 44.3068 92.0411 45.3914 91.95C46.5636 91.8506 47.5731 89.8791 48.6536 88.7235L48.1655 88.33L46.6137 90.2684L46.2549 90.0448C47.1476 88.2637 48.0445 86.4827 48.9414 84.6893C43.5267 83.3597 43.2013 88.6158 40.277 90.9725C40.302 86.6236 44.6488 85.3976 45.5499 81.9722C44.4069 83.2355 43.2639 84.5029 42.1167 85.7662L41.566 85.3396C42.9009 83.4012 44.2359 81.4586 45.5749 79.5202L45.5791 79.5119ZM29.2181 12.1193C25.6389 12.1193 22.3142 12.0944 18.9936 12.1275C17.4126 12.1441 16.5031 12.8524 16.7493 14.5837C16.8369 15.1967 16.9495 15.8387 16.8536 16.4351C16.7326 17.1765 16.4072 17.8889 16.1736 18.6137C15.6229 17.9386 14.8178 17.338 14.5884 16.5677C14.3131 15.6357 14.5216 14.5588 14.5216 13.5441L13.8917 13.5689C13.9835 14.7204 13.9585 15.8967 14.1879 17.0233C14.58 18.9617 15.356 20.8462 15.5645 22.7971C16.2362 29.0472 15.2934 35.1813 13.5038 41.158C12.0688 45.9461 10.325 50.6388 8.67308 55.5014C9.70763 55.3896 10.6838 55.286 11.7934 55.1659C11.2845 56.7647 10.8548 58.1108 10.4251 59.4611C11.1802 59.5066 11.7392 59.3037 11.9519 58.9143C12.3107 58.264 12.5944 57.5061 12.6444 56.773C12.7529 55.2198 13.4954 54.6482 15.0347 54.6316C16.3989 54.615 17.8172 54.4204 18.3512 52.7843C18.3678 52.7346 18.5973 52.7512 18.7725 52.7305C18.8601 53.2151 18.9435 53.6997 19.1563 54.9008C20.5412 51.1317 22.6562 53.2027 24.4333 53.4677C25.2176 53.5837 25.9142 54.2588 27.0322 54.9008C27.1073 53.7287 27.1407 53.2234 27.1741 52.6808C27.7831 52.6104 28.3004 52.5524 28.9929 52.4737C28.5924 43.8337 28.217 35.3014 27.7581 26.7774C27.7289 26.2307 27.0197 25.7461 26.7652 25.1745C26.4232 24.4082 25.8976 23.5053 26.0644 22.8095C26.1896 22.3 27.27 21.8651 27.9959 21.6995C28.7843 21.5214 29.652 21.745 30.4821 21.6953C31.062 21.6622 31.6293 21.4634 32.4511 21.2853C32.0632 20.9249 32.0131 20.8462 31.9672 20.8421C30.5238 20.8255 29.0763 20.8255 27.6329 20.8007C26.5275 20.78 25.1258 20.8835 25.1842 19.3261C25.2301 17.9883 26.1353 17.0067 27.6705 17.102C29.5644 17.2138 29.9398 16.2363 29.627 14.65C29.4684 13.8464 29.36 13.0388 29.214 12.1275L29.2181 12.1193ZM42.8759 172.431C41.2615 174.643 41.0279 174.585 39.0005 172.924C38.2163 172.282 37.0524 171.839 36.0387 171.793C34.3909 171.719 32.7306 172.067 31.0703 172.199C21.1211 172.994 11.4722 171.959 2.23215 167.589C2.12786 169.482 1.69402 171.59 3.96753 172.68C6.33282 173.814 8.75234 174.916 11.2636 175.658C17.8839 177.617 24.7003 177.613 31.5042 177.082C34.5995 176.842 37.6823 176.295 40.7442 175.736C42.3378 175.442 43.3765 174.477 42.8801 172.435L42.8759 172.431ZM17.1205 88.0774C17.2624 90.811 19.8112 88.562 21.1545 89.0424C22.4685 89.5146 23.7701 87.3442 24.0704 85.5052L22.4518 87.3608L22.1431 87.1786C23.0108 85.4266 23.8785 83.6745 24.7545 81.9059C21.8469 81.0569 19.8863 81.9888 18.3887 84.4408C17.5878 85.7538 16.3571 86.8099 15.3226 87.978L14.3464 87.365C14.9555 85.8615 15.5687 84.3538 16.3905 82.3284C16.7242 83.4136 16.8452 83.7988 16.9662 84.1881L17.6628 84.2295C17.7671 83.4302 17.8756 82.6308 17.9799 81.8314C17.1581 81.877 16.207 81.674 15.5437 82.0219C14.5592 82.5355 13.7833 83.4384 12.7654 84.3041C12.4692 81.2681 11.8018 80.6385 10.1248 81.5166C8.5229 82.3533 6.95856 85.1408 7.10456 86.8886C7.23805 88.4874 8.4353 89.1128 9.67843 88.1022C10.4627 87.4644 10.9883 86.52 11.6474 85.7248C11.9478 85.3644 12.294 85.0414 12.4901 84.8384C12.7404 86.1762 12.5985 88.0318 13.2785 88.4087C14.1879 88.9057 15.7356 88.2555 17.1164 88.0815L17.1205 88.0774ZM17.5919 2.71718C15.2266 4.05086 14.0836 6.52357 14.7261 8.49511C14.8429 8.85131 15.3476 9.30692 15.7022 9.33591C19.8988 9.66726 24.0996 10.0069 28.3004 10.127C29.0054 10.1477 29.7396 9.14539 30.4571 8.61522C29.8105 7.89454 29.2473 7.06616 28.4881 6.49872C28.0543 6.17979 27.2992 6.25849 26.686 6.21293C24.4709 6.0514 22.2558 5.94371 20.0448 5.75732C18.3804 5.6165 16.9954 5.1319 17.5961 2.71718H17.5919ZM10.4085 80.0959L11.322 80.5598C11.6099 79.8391 11.8977 79.1143 12.1856 78.3936C11.3679 78.1161 10.4835 77.4824 9.74518 77.6274C6.50386 78.2528 2.82034 82.9373 2.57005 86.4744C2.2989 90.3306 4.24703 92.3228 8.13912 92.037C9.58249 91.9293 10.9967 91.4737 12.4359 91.3577C13.6498 91.2625 15.2809 90.9477 16.0401 91.5648C18.2802 93.3831 20.9834 92.1695 23.5573 93.5074C21.3589 90.5583 17.9799 89.4069 14.4048 90.111C12.5735 90.4714 10.763 90.9974 8.91503 91.1672C6.15761 91.4199 4.69756 89.9412 5.00626 87.1993C5.41507 83.5958 7.27977 80.7586 10.2041 78.6173C10.4877 78.4102 10.9257 78.4143 11.3846 78.2942C10.9967 79.0066 10.6963 79.5534 10.4001 80.1042L10.4085 80.0959ZM41.103 54.4369L42.0207 53.7867C36.9231 44.1278 36.2306 33.5867 35.5381 23.0207C35.4505 28.2229 35.755 33.363 36.0971 38.5031C36.193 39.9196 37.1358 41.3817 35.6924 42.6864C35.5131 42.8479 35.6507 43.4982 35.7967 43.8586C36.9981 46.8449 38.1912 49.8353 39.5053 52.776C39.7973 53.4346 40.5565 53.8861 41.0988 54.4328L41.103 54.4369ZM18.6348 146.109C16.1944 148.516 14.9722 153.138 15.9442 156.278C16.1402 155.54 16.2403 155.019 16.4197 154.53C16.5782 154.099 16.8244 153.697 17.0329 153.283L17.3166 153.416V157.549C18.3553 156.617 19.4358 156.12 19.5526 155.462C20.0907 152.359 21.2129 149.125 18.6348 146.113V146.109ZM18.6015 3.27633C19.1896 3.69052 19.5317 4.14199 19.903 4.16684C23.5406 4.41535 27.1866 4.71771 30.8284 4.72599C32.1633 4.72599 33.4732 3.95146 33.7443 2.15802C28.7843 3.00711 23.7367 1.2758 18.6015 3.27633ZM23.72 58.6078C23.7283 56.7854 24.5209 54.4494 21.2838 53.6086C21.0377 55.1162 20.7999 56.6031 20.6288 57.6469C21.8386 58.0238 22.8064 58.3262 23.72 58.6078ZM19.4733 56.2304L18.6015 56.1848V59.7096L19.102 59.7013C19.2272 58.5457 19.3482 57.386 19.4733 56.2304Z" fill="#95C11F"/>
<path d="M43.2761 90.3014C44.1855 88.653 45.0908 87.0086 46.0002 85.3602L46.7511 85.7661C45.8542 87.4187 44.9573 89.0713 44.0562 90.7239C43.7934 90.5831 43.5348 90.4423 43.272 90.3014H43.2761Z" fill="#95C11F"/>
<path d="M34.7993 90.8772L35.6211 87.8867C37.4274 88.8062 37.3607 89.2328 34.7993 90.8772Z" fill="#95C11F"/>
<path d="M22.4433 83.2147C21.5756 84.7223 20.7079 86.23 19.8402 87.7376L19.0435 87.2862C19.9153 85.7785 20.7872 84.275 21.659 82.7674L22.4433 83.2105V83.2147Z" fill="#95C11F"/>
<path d="M9.76998 83.7946C11.5721 84.9998 11.4636 85.4679 8.86475 87.3814C9.24019 85.8862 9.47797 84.9501 9.76998 83.7946Z" fill="#95C11F"/>
<path d="M35.2582 82.3987L33.6062 83.3596L33.0264 82.9413C33.7981 81.6242 34.5699 80.3071 35.3374 78.99L35.9882 79.284C35.7212 80.3444 35.4542 81.4047 35.1872 82.465L35.2582 82.3987Z" fill="#95C11F"/>
</g>
<defs>
<clipPath id="clip0_282_20992">
<rect width="53" height="179" fill="white"/>
</clipPath>
</defs>
</svg>
