<svg width="54" height="122" viewBox="0 0 54 122" fill="none" xmlns="http://www.w3.org/2000/svg">
<g clip-path="url(#clip0_282_17572)">
<path fill-rule="evenodd" clip-rule="evenodd" d="M24.8567 120.385C24.8658 120.21 24.9836 120.171 25.0289 120.401C25.0629 120.566 24.8431 120.612 24.8567 120.385ZM34.1845 24.9492L34.4654 25.0898C34.4836 25.0445 34.5085 24.9582 34.5039 24.9401C34.4768 24.7813 34.4473 24.7609 34.4269 24.7246L34.1845 24.9492ZM44.2259 69.0616C44.5499 68.8937 44.4208 69.0185 44.5545 68.6963C44.1081 68.6963 44.3188 68.6373 44.2259 69.0616ZM36.432 33.2534C35.9789 33.41 36.1783 33.2988 35.997 33.6777C36.4388 33.4622 36.312 33.6028 36.432 33.2534ZM39.2822 66.2277C39.7082 66.0303 39.57 66.3752 39.6198 65.7535C39.3072 65.9395 39.3661 65.8851 39.2822 66.2277ZM5.70954 97.9268C5.41726 98.0607 5.41047 98.0743 5.26999 98.4033C5.70274 98.2898 5.58719 98.3352 5.70954 97.9268C6.16947 97.684 6.60221 97.0555 6.97831 96.6834L7.15503 96.5246C7.5266 96.1661 7.65122 95.7736 8.11341 95.6352C8.2856 95.3788 8.54615 95.0475 8.79991 94.9727C8.69569 94.7004 9.0582 94.7526 8.54389 94.7526C8.31279 94.9976 8.04771 95.1905 7.7713 95.3788C7.45863 95.5921 5.77977 97.7113 5.70954 97.9245V97.9268ZM39.7286 63.564C40.0956 63.3983 40.1047 63.3167 40.184 62.9582C39.8985 63.1783 39.8419 63.2395 39.7286 63.564ZM37.9682 62.2321C38.1381 62.1731 38.2151 62.189 38.3148 62.0347C38.5686 61.6467 38.2967 61.6649 38.2899 61.6467L37.9682 62.2321ZM38.9809 63.539C39.1508 63.2713 41.0404 60.2582 41.4935 59.7998C41.2851 59.6887 38.9401 63.1057 38.9809 63.539ZM34.5289 26.5465C34.9888 26.3741 34.8098 26.4557 34.9797 25.9634C34.6671 26.1381 34.615 26.1336 34.5289 26.5465ZM34.6422 25.412C35.0613 25.2986 34.9684 25.3213 35.1406 24.8607C34.7872 25.0218 34.7486 24.9968 34.6422 25.412ZM7.4677 97.5366H7.70559C7.91403 97.2008 8.00013 97.2892 8.15419 96.9897C8.57334 96.8105 8.75006 96.7492 8.98796 96.4611L8.78632 96.486C8.40342 96.5587 8.60733 96.4475 8.3717 96.6403C8.15646 96.815 8.21537 96.8513 8.15419 96.992C7.837 97.0692 7.66028 97.1871 7.4677 97.5388C7.0848 97.6182 6.82424 97.7748 6.62033 98.0947C6.46627 98.342 6.57729 98.2308 6.34845 98.4895C6.13548 98.73 6.18079 98.5961 6.04259 98.9569C6.40056 98.789 6.51158 98.6279 6.82878 98.308C7.25472 97.8814 7.36574 97.9677 7.46543 97.5388L7.4677 97.5366ZM38.7022 65.5584C39.3344 65.0705 38.8427 64.9889 38.8427 64.9866C38.7068 65.1477 38.555 65.1499 38.7022 65.5584ZM43.3537 70.2959L43.5938 70.2505C43.6799 69.8807 43.7048 69.9669 43.8136 69.5925C43.476 69.8035 43.4035 69.9124 43.3537 70.2959C43.1271 70.4093 43.263 70.2959 43.1248 70.5137C42.5947 71.3509 42.9028 71.1694 43.0433 71.2579C43.1135 70.6407 43.2676 70.8676 43.3537 70.2959ZM40.5442 66.1982C40.295 66.3457 40.5488 66.1664 40.3041 66.3525C40.1092 66.5 40.0571 66.559 39.9619 66.7563C40.0277 66.7972 40.1772 66.8562 40.2225 66.8857L40.5442 66.1982ZM5.69141 104.164L5.89985 104.01C6.22384 103.772 6.26916 103.762 6.43228 103.318C6.03126 103.511 6.2397 103.386 6.00634 103.681C5.84094 103.89 5.79563 103.885 5.69141 104.164C5.37195 104.273 4.13036 105.77 4.16661 106.034C4.18474 106.161 4.4181 106.265 4.45888 106.29L4.60389 106.365C4.28669 106.878 4.21193 106.878 4.05333 107.581L4.13943 107.663C3.51863 108.52 2.72338 109.716 2.60557 110.007C2.93635 110.522 3.00432 110.742 3.36003 111.025L3.10175 111.565C3.3691 111.944 3.48465 111.686 3.3623 112.173C3.29886 112.43 2.57158 113.787 2.34275 114.091C1.07624 113.02 0.82928 108.085 0.885922 103.356C0.962954 96.9988 1.21218 92.6811 3.18784 86.5119C4.37505 82.809 6.25556 74.4049 7.97974 71.2534C8.10888 71.0174 8.20857 70.7882 8.30146 70.5523C9.18961 68.2833 9.7311 65.4631 10.6917 63.21C11.3488 61.5968 13.542 54.4474 13.9181 52.4894C13.9883 52.1195 17.0537 50.0389 17.3052 49.7485L18.3112 51.5387C17.9238 51.8087 17.8694 51.6294 17.6156 52.1899C17.747 52.4871 17.8309 52.4009 18.0597 52.5302C17.8195 52.8456 17.7493 52.7866 17.6881 53.1905C18.7621 53.195 18.932 52.3895 19.5732 52.8547C19.4055 53.3084 19.768 52.9114 19.1472 53.2449C18.574 53.5535 18.1594 53.6102 17.5499 53.7395L17.6474 54.2909C17.1308 54.2954 16.9495 54.4134 16.7479 54.7651C16.7569 54.7696 17.3415 55.1213 17.3438 55.1236C17.5975 55.3686 17.4956 55.2053 17.2191 55.6114C17.772 55.5955 17.8649 55.4639 18.2772 55.3006L18.7235 55.0941C18.9275 55.026 19.0045 55.0056 19.2401 54.9398C19.1518 54.5677 19.29 54.8559 18.8572 54.6675C18.8799 54.6494 18.9093 54.629 18.9252 54.6176C18.9411 54.6085 18.975 54.5813 18.9932 54.57C19.3693 54.3317 19.6751 54.3748 19.8677 54.0005C19.333 53.7441 19.0204 54.4248 17.7267 54.7356C17.9034 54.2659 18.4381 54.1389 18.9411 53.9415C19.7091 53.6397 19.6411 53.8008 19.8994 53.1179C20.5791 53.195 21.388 53.4786 22.2195 53.406C24.1974 53.2313 26.0054 51.6499 26.8618 49.93C27.9811 49.9572 27.7794 50.1093 28.4886 50.4133C28.8488 50.5676 28.9463 50.4927 29.3405 50.672L31.3932 51.7157C31.9324 52.0015 32.2587 52.1513 32.7481 52.4576C34.445 53.5217 36.4094 54.3612 38.2196 55.2733C39.3706 55.8542 40.6077 56.5054 41.8923 56.9138C42.4021 57.0749 42.8507 57.304 43.3219 57.3948C43.3401 57.397 43.3718 57.4038 43.3876 57.4061L43.6369 57.4606C43.7252 57.4674 43.689 57.5173 43.868 57.4333C43.9948 57.3744 43.9744 57.363 44.0628 57.2223L44.2191 56.9569C44.235 56.9365 44.2554 56.9092 44.2713 56.8911C44.4457 56.6823 44.3551 56.8593 44.559 56.6256C45.6307 55.4049 41.9421 54.123 41.4142 53.7418C41.7178 52.9182 40.44 49.0043 40.2882 47.7178C40.1591 46.6219 40.3698 46.032 41.3871 45.728C42.9662 45.0564 43.1905 45.7053 43.3786 43.2957C43.5598 40.9587 43.0704 42.5265 43.2857 40.6115L43.1951 39.8265C43.1724 39.6745 43.1905 39.2547 43.2064 39.0641C43.2494 38.54 43.1543 38.0182 43.1452 37.4804C43.1294 36.5683 43.0025 35.4066 43.0433 34.6148C43.1543 32.3776 42.8348 29.7162 42.5833 27.5267C42.4859 26.6736 42.5516 25.3871 42.4565 24.4455C42.4179 24.0529 42.4655 24.0121 42.4134 23.6377C42.1007 21.2985 42.6536 19.3336 40.1251 19.3994L39.7988 18.8548C40.1749 18.3784 40.6394 18.2127 40.7345 17.2031C40.7753 16.7697 40.6552 16.418 40.4491 16.1026C40.0027 15.422 39.2551 14.7935 39.4748 13.8042C39.5451 13.4888 39.7059 13.1848 39.8124 12.9035C39.9257 12.6017 39.9982 12.25 40.0979 11.9324C40.3041 11.2812 41.9852 4.66727 41.9059 3.93895C41.7428 2.41423 40.6824 2.02397 39.5224 1.49532C38.7883 1.15952 38.6411 0.943967 37.7597 0.948505L34.6807 0.428922C34.2796 0.358585 33.9375 0.394888 33.5342 0.342703C33.2533 0.3064 32.8432 0.213374 32.4943 0.156651C30.974 -0.0906616 28.6087 0.0568184 26.9094 0.0137089C23.9663 -0.0634345 18.3746 0.220181 15.6717 0.771529C12.8169 1.40002 11.5278 2.87255 12.2981 5.27307C12.8328 6.93166 13.4128 9.71336 13.5737 10.3305C13.8048 11.2222 13.9249 11.9755 14.3803 12.9148C15.3522 14.916 13.8682 14.9704 13.3199 16.2932C13.1115 16.7947 13.7459 18.1288 14.1809 18.5032C14.1899 18.5122 14.1197 18.9411 13.8773 19.1566C12.5813 19.1566 12.0013 19.4334 11.7725 20.6859C11.6932 21.126 11.7317 22.4193 11.6728 22.8799C11.6229 23.2815 11.8336 22.2446 11.4847 25.8976C11.3533 27.2794 11.1517 29.183 11.0701 30.5058C11.0271 31.2001 11.0135 32.1439 10.941 32.7633C10.8435 33.5938 10.9523 34.4174 10.941 35.089C10.9319 35.595 10.8028 35.5745 10.8639 36.2529C10.9387 37.0698 10.8164 38.3925 10.7688 39.2978C10.7121 40.3642 10.3474 42.6581 10.8254 44.0943C11.1653 45.1108 11.9741 45.281 12.8668 45.5737C13.3358 45.728 13.8388 45.7484 13.7277 47.7019C13.2134 53.701 11.8971 57.4719 10.1163 62.9786C9.37766 65.2611 8.77046 67.9067 7.74184 70.2096C5.66422 74.9835 3.77692 81.2752 2.44923 86.2441C0.754513 92.5971 -0.0475348 96.334 4.42525e-05 103.286C0.036295 108.348 0.702402 113.374 2.33369 116.026C3.19011 118.002 6.06751 119.105 8.09982 119.643C12.6153 121.088 19.3126 122.002 26.7871 122.002C39.8147 122.002 50.4747 119.223 51.3492 115.706C51.9541 114.96 52.5364 114.177 52.7788 113.782C53.0009 113.419 53.0824 113.39 53.1935 112.963C53.2909 112.589 53.3203 112.3 53.4382 111.951C54.1337 109.886 53.8686 109.625 53.9275 107.656C54.1518 100.264 53.9072 95.608 52.3008 88.3724C52.1603 87.7348 51.9496 87.0609 51.8431 86.4597C51.7842 86.1352 51.7752 85.7087 51.7004 85.416C51.6302 85.1414 51.5894 85.1936 51.5395 84.9645C51.535 84.9463 51.5327 84.9145 51.5282 84.8941L51.5237 84.7512C51.5237 84.733 51.5237 84.699 51.5237 84.6786C51.4716 84.3133 51.4829 84.4948 51.2994 84.2021C51.1951 84.0342 51.177 84.041 51.1294 83.8391L50.9187 82.8385C49.7202 78.6432 47.5905 72.3697 45.719 66.6452C44.8898 64.1062 44.1104 61.6762 43.4851 59.582C43.1294 58.3886 42.7011 57.5604 42.4972 57.4356C41.9014 57.6602 42.0146 57.7964 42.2027 58.1095C42.3182 58.3046 42.819 59.7544 42.8326 59.8112C43.5734 62.1686 44.3619 64.56 45.1639 66.9674C47.0943 72.7576 49.1062 78.6455 50.7262 84.4222C50.9074 84.8306 50.8213 84.7489 50.9346 85.1891L51.9134 89.3707C53.5175 95.2971 53.5107 101.643 53.42 107.797C53.4042 108.872 53.343 109.855 53.1708 110.513C53.1006 110.776 53.0621 110.941 52.9397 111.205C52.5228 112.103 52.9896 111.186 52.5568 112.541C52.4685 112.818 52.5523 112.8 52.3506 113.083C51.7502 113.934 51.1476 114.971 50.1529 115.071C50.7556 114.077 51.1521 113.993 51.1521 113.494C50.6831 113.46 50.5177 113.762 50.196 114.023C50.0351 114.154 49.4483 114.553 49.3146 114.594C49.5865 114.256 49.6998 114.061 50.0419 113.743C50.3433 113.464 50.699 113.285 50.5789 112.861C50.162 112.727 50.3206 112.956 49.4914 113.734C49.1787 114.029 48.9861 114.413 48.7233 114.522C48.132 114.764 48.6417 114.138 48.7709 114.016L50.2232 112.555C49.8357 112.287 49.8629 112.185 49.4551 112.654L48.3177 113.984C48.0005 114.329 47.3526 114.488 47.5293 114.027C47.6471 113.714 48.5239 112.97 48.4537 112.636C48.4537 112.625 48.2679 112.235 47.8669 112.21C48.2067 111.851 48.2974 111.996 48.499 111.37C48.1841 111.397 48.3313 111.438 48.0708 111.341C47.9167 111.608 47.2076 112.623 46.9266 112.668C46.6343 113.269 46.4372 113.213 45.9932 113.848C45.9705 113.882 45.9456 113.916 45.9229 113.95C45.4403 114.429 44.8399 115.116 44.9827 115.609C45.642 115.699 45.7281 115.148 45.9343 114.699C46.1472 114.619 46.2379 114.472 46.3738 114.209C46.4486 114.179 46.5301 114.159 46.6276 114.154C46.589 114.744 46.5301 114.551 46.2107 114.973C45.9411 115.329 45.8346 115.42 46.0385 115.779C46.4078 115.677 46.41 115.622 46.5777 115.354C46.7997 115.003 46.913 114.506 47.3005 114.504C47.8148 114.501 47.5202 114.975 47.3775 115.152C47.0603 115.545 46.9697 115.291 46.8994 115.922C47.7491 115.924 47.2483 115.683 47.8193 115.516L47.8873 116.051C48.3699 115.967 48.1614 115.888 48.6304 115.94C49.19 116.003 48.7278 115.368 49.4664 115.087C49.2761 115.727 49.224 115.05 49.0767 116.176C48.9657 117.002 48.5534 116.661 48.1478 117.024C47.5021 117.603 47.8737 117.435 46.9425 117.771C46.6411 117.308 47.0512 117.288 46.0838 117.226C44.4502 117.122 44.4004 117.142 42.6875 116.711C42.8665 116.269 42.9051 116.763 43.0206 116.124C42.7397 116.173 41.0993 116.366 40.8546 116.301C40.517 116.21 40.6484 116.119 40.3992 116.046C39.9257 116.316 40.0594 116.439 39.3774 116.453C37.9364 116.478 37.0709 116.242 35.6368 116.623C34.3929 116.954 34.1958 116.198 33.4617 116.847C33.0335 117.226 32.4354 117.61 31.903 117.73C32.1431 117.312 32.3108 117.664 32.3946 116.972C31.8916 117.008 31.255 117.585 30.965 117.666C30.3736 117.832 30.5753 117.632 30.496 117.558C30.8789 117.331 30.9265 117.426 30.9627 116.841C30.3918 117.147 30.0542 117.474 29.3858 117.68C29.2702 117.517 29.3292 117.639 29.3042 117.312C29.2748 116.931 29.3881 117.51 29.302 117.031C28.8103 117.197 28.7355 117.478 28.0694 117.558C28.3459 117.008 28.5837 117.299 28.6495 116.686C28.0672 116.82 27.4758 117.614 27.17 117.877C27.1541 117.891 27.1292 117.911 27.1111 117.925L26.0734 118.383C26.0892 117.882 26.2614 117.986 26.7304 117.646C26.386 117.446 26.5673 117.803 26.6511 117.09C26.2116 117.117 25.9964 117.344 25.7063 117.587C25.4118 117.837 25.294 118.064 24.9881 118.272L24.8567 117.812C25.6588 117.458 25.9329 117.351 26.0009 116.854C24.9156 117.111 24.8386 118.265 23.1688 118.24C23.35 117.868 23.1348 118.184 23.4452 117.939C23.5426 117.864 23.6582 117.803 23.7783 117.716L24.2994 117.374C24.3152 117.367 24.3469 117.358 24.3628 117.351L24.7004 117.197C24.723 117.181 24.7933 117.126 24.8182 117.108C24.8363 117.095 24.8635 117.074 24.8816 117.061L25.0153 116.968C25.2872 116.766 25.362 116.734 25.4617 116.4C24.893 116.423 24.9723 116.689 24.4353 116.929C23.8802 117.176 23.6378 116.779 23.6174 116.655C23.6106 116.614 23.5947 116.602 23.5789 116.577C22.7632 116.7 23.1439 116.734 22.5933 116.348C22.446 116.412 22.3939 116.432 22.1991 116.507C21.7822 116.668 21.9567 116.573 21.6055 116.605C21.3834 116.625 21.5194 116.58 21.3699 116.657C20.4387 116.133 20.5338 117.349 19.8337 116.959C19.981 116.546 19.8383 116.945 20.1555 116.521C19.8881 116.267 19.8972 116.623 20.015 116.235C19.5256 116.316 20.0898 116.214 19.7227 116.396C19.7091 116.403 19.6774 116.416 19.6638 116.423L19.4576 116.53C19.2401 116.743 19.58 116.72 19.0204 117.038L18.1594 117.512C17.5386 117.968 17.1127 117.775 17.9419 117.281C17.9646 117.267 17.9917 117.251 18.0144 117.238C18.7009 116.825 18.8753 116.8 19.4418 116.178L17.2305 116.058C16.5757 116.037 11.0044 116.831 10.2681 117.074C9.66766 117.272 9.38898 117.122 8.83163 117.267L8.3785 117.442C8.36037 117.446 8.32865 117.455 8.31279 117.46L7.53793 117.607C7.65122 116.648 8.42154 116.391 8.62772 115.534C8.2199 115.756 7.64668 116.518 7.37933 116.995C7.09159 117.508 7.09386 117.85 7.04175 118.17C6.92167 118.125 6.80385 118.082 6.6883 118.036V118.029C7.04855 116.282 7.87325 116.285 8.18365 115.143C7.5402 115.411 7.03495 116.455 6.67924 117.056C6.42549 117.485 6.5569 117.471 5.99048 117.476C6.02899 117.092 6.64073 116.076 6.87862 115.665C7.25699 115.01 7.73051 114.678 7.95028 113.925C7.92083 113.943 7.88685 113.968 7.86645 113.984L7.71012 114.104C6.98284 114.746 5.92024 117.099 5.44672 117.26C5.07968 116.534 6.6883 114.774 7.13011 114.091C7.54699 113.451 8.07489 113.033 8.97663 112.945C8.4306 112.827 8.66397 112.818 8.68209 112.743C9.24398 112.489 9.28703 112.847 9.67219 113.011C9.84665 113.083 9.77188 113.056 9.97579 113.081C10.5377 112.604 11.3669 111.019 12.0829 110.73C12.0149 111.114 11.7498 111.406 11.555 111.656C11.3239 111.951 11.1336 111.983 11.0928 112.266C11.0452 112.586 11.2174 112.55 11.4553 112.466C12.0919 112.239 11.9786 112.477 12.4023 112.319C12.8283 112.16 12.7105 111.672 13.1455 111.323C13.4468 111.724 12.8079 111.838 13.1908 112.244C13.7187 112.223 13.3426 111.999 13.8501 111.776C14.2987 111.577 14.1741 111.829 14.6997 111.887C15.325 110.98 15.7487 111.134 15.7011 110.696C15.6468 110.179 15.529 110.789 15.0509 110.562C15.3182 109.768 15.3386 110.712 15.4338 109.907C15.2299 109.762 14.9535 109.777 14.745 109.768C13.986 109.734 14.6408 109.666 14.011 109.55L12.7218 111.298C12.3321 111.94 12.3729 111.713 12.2754 111.617C12.0557 111.395 12.9574 110.821 12.9982 110.079C12.6425 110.193 12.7784 110.27 12.4272 110.513C12.2981 110.313 12.4023 110.51 12.3593 110.215L12.3434 110.009C12.3434 109.979 12.3457 109.963 12.3389 109.945C12.0511 110.213 12.1191 110.215 11.7589 110.49C11.3964 110.767 10.9999 111.22 10.7371 111.59C10.5331 111.878 10.5581 111.96 10.1638 112.071C10.3904 111.484 10.7665 111.152 11.0882 110.696C11.2582 110.456 12.0511 109.716 12.0919 109.56C11.7747 109.496 11.6909 109.523 11.4122 109.442C10.9364 109.303 11.3375 109.269 10.9727 109.346C10.7484 109.392 10.4063 109.78 10.2409 109.929L9.91235 109.582C9.62688 109.852 9.83306 109.553 9.69258 109.911C9.32101 109.748 9.59743 109.943 9.37312 109.553C8.65717 110.063 9.10124 109.394 8.50764 109.914C7.63082 110.683 6.79253 112.017 6.51838 112.194C6.25103 111.724 6.26916 111.813 6.59994 111.35C6.98511 110.81 7.29777 110.449 7.76676 110.056L7.9956 109.839C8.17459 109.639 8.2131 109.575 8.27881 109.33C7.73051 109.364 7.52434 109.848 7.1573 110.211C6.63846 110.724 6.79253 110.685 6.18079 111.13C5.55773 111.579 5.1046 112.738 4.49967 113.24C4.55631 112.657 5.11593 112.026 5.47391 111.534C5.74579 111.159 6.4051 110.558 6.80385 110.19C6.60221 110.029 6.42775 110.17 6.26462 110.068C6.52065 109.855 6.55916 109.932 6.61354 109.528C5.83641 109.537 5.87493 110.063 5.14991 110.326C5.30851 110.034 5.39687 109.882 5.64836 109.646C5.97462 109.342 5.98142 109.512 6.07657 109.069C5.38781 109.069 5.44672 109.258 5.0321 109.682C4.47021 110.258 4.72397 110.265 4.27537 110.537C4.47701 109.523 6.02899 108.768 6.11282 108.071C5.32664 108.123 4.3524 109.75 3.84489 110.374C3.83129 110.392 3.81317 110.42 3.79731 110.438C3.62512 110.628 3.76106 110.59 3.48011 110.653C3.26488 110.261 3.65457 109.621 4.02161 109.126C4.09411 109.088 4.17794 108.99 4.25951 108.815C4.3524 108.697 4.43396 108.598 4.48381 108.529C5.74125 106.805 5.85454 107.504 6.04712 106.855C5.79563 106.907 5.59172 106.984 5.42406 107.077C5.48523 107.016 5.55094 106.957 5.61664 106.898L5.97235 106.467C6.19892 106.168 7.02136 105.142 7.25472 104.985C7.51527 104.638 7.58778 104.897 7.89138 104.411C7.09159 104.579 6.26009 105.618 6.2329 105.646C6.21705 105.662 6.19439 105.687 6.18079 105.705L6.04032 105.886C5.92704 105.907 5.94063 105.929 5.72313 106.04C5.70727 106.047 5.66649 106.102 5.65742 106.081C5.64836 106.061 5.61664 106.113 5.59399 106.124C5.29945 106.51 5.16124 106.535 4.8735 106.757C4.81459 106.803 4.69905 106.939 4.54725 107.134C4.54725 107.109 4.54725 107.084 4.54725 107.055C4.56537 106.601 6.07431 105.117 6.18986 104.713C6.70416 104.597 6.76534 104.248 7.09839 103.964C7.3816 103.724 7.81661 103.576 7.92536 103.225C7.34988 103.306 7.32949 103.515 6.96245 103.835C6.80385 103.973 6.69963 104.044 6.53877 104.178C6.21931 104.445 6.2533 104.337 6.18759 104.713C5.59399 104.949 5.37648 105.594 4.90522 105.972C4.69678 105.471 4.76702 105.48 5.06382 105.031C5.28812 104.69 5.47617 104.559 5.70727 104.155L5.69141 104.164ZM39.0511 62.0461C38.922 62.1958 38.8359 62.3206 38.7566 62.4998C38.5436 62.9854 38.6048 62.6519 38.7634 62.8674C39.0466 62.6564 39.0693 62.5112 39.0511 62.0461C39.4091 61.919 39.2211 62.0824 39.4159 61.708L40.0866 60.3308C39.5858 60.6529 39.6583 60.5803 39.4771 61.1113C39.1984 61.919 39.144 61.2565 39.0511 62.0461ZM3.72707 100.282C4.19833 100.237 4.18247 100.132 4.28216 99.6943C3.85168 99.8531 3.83129 99.8395 3.72707 100.282ZM27.5574 35.6971C27.682 35.7424 27.5461 35.7856 27.7455 35.7402C28.0241 35.6789 27.8497 35.7266 28.0287 35.5791C27.8723 35.3839 27.8701 35.3272 27.5597 35.2297C27.4215 35.5382 27.3807 35.3613 27.5597 35.6948L27.5574 35.6971ZM34.7486 27.411C35.1995 27.3565 35.0047 27.4291 35.1927 27.057C35.2924 26.8619 35.3853 26.6985 35.4805 26.5556C35.0885 26.6395 34.8982 27.0797 34.7486 27.411ZM35.084 35.9194C35.3264 35.8287 35.272 35.8468 35.5212 35.5768C35.7546 35.3227 35.7274 35.3658 35.8656 35.0958C35.1111 35.4271 35.1202 35.6154 35.0862 35.9194H35.084ZM41.1061 65.2679C41.4754 65.0388 42.0713 64.2878 42.1415 63.9202C41.8107 64.172 41.2624 64.8436 41.1061 65.2679ZM4.7217 96.7447C5.35156 96.7492 5.12046 96.6313 5.27226 95.9597C4.85311 96.1775 4.8078 96.2455 4.7217 96.7447ZM48.7822 82.362C48.9838 82.1396 49.1402 81.5134 49.224 81.1504C49.1334 81.1822 48.9363 81.0732 48.7414 81.6904C48.6327 82.0398 48.6123 82.1011 48.7822 82.3597V82.362ZM35.852 28.6089C35.3717 28.7632 35.2086 29.1467 34.9775 29.6163C35.3672 29.5846 35.3876 29.5732 35.5394 29.2987C35.6413 29.1172 35.7863 28.8336 35.8498 28.6089H35.852ZM36.5113 31.8444C36.1941 31.967 36.099 32.1235 35.9087 32.4366C35.4578 33.1786 35.4465 32.5274 35.2992 33.2058C36.0831 33.0447 35.4714 33.0402 36.0084 32.5387C36.1715 32.3867 36.287 32.2937 36.3845 32.1848C37.1027 32.0917 37.4403 30.6896 39.0829 29.9295C39.5858 29.6958 39.57 29.3895 40.1591 29.4121C40.1545 29.723 40.0956 29.7842 39.7671 30.0769L39.5813 30.2267C39.2641 30.4899 39.5496 30.1995 39.2551 30.5625L38.9311 30.9142C38.6252 31.2409 38.6705 31.3294 38.2627 31.6992C37.975 31.9624 37.8957 32.0759 37.6464 32.4094L37.8277 32.2733C38.2106 31.976 38.8676 31.1819 39.3978 31.5812C39.1712 31.9465 39.3026 31.9828 39.0398 32.2982C38.8495 32.5274 37.5989 33.3828 37.3972 33.857L37.7982 33.6255C38.3873 33.1695 39.4907 32.1099 40.1002 31.9057C39.8102 32.5296 39.2437 32.8564 38.8427 33.3487C38.3261 33.984 37.0075 35.207 36.7583 35.6925C37.2205 35.4634 37.6034 35.0096 37.9206 34.6692C38.3624 34.1905 38.5232 33.9432 39.178 33.9137C39.1644 33.9818 39.0965 34.2676 39.0942 34.2767C39.0761 34.397 39.0693 34.5876 39.0693 34.5876C39.0036 34.8825 39.0625 34.7373 38.7679 34.9823C38.1743 35.4747 36.5 36.802 36.1964 37.2785C36.8217 37.7504 38.4122 34.878 39.8894 34.5739C39.4771 35.2932 38.9061 36.0578 38.2695 36.5343C38.0135 36.7249 37.5785 37.1424 37.3451 37.3919C36.9033 37.8616 36.5906 37.7414 36.5544 38.4425C36.9713 38.3381 37.0981 38.1157 37.3134 37.8208C37.8118 37.1424 38.6343 36.3755 39.4975 36.3187C38.854 38.0341 36.6246 38.776 36.5068 39.7176C37.1321 39.341 37.4244 38.6172 39.3729 37.5848C39.894 37.308 39.6855 37.1288 40.252 36.9132C40.1183 38.1498 38.3986 39.0301 37.5717 39.9173C37.2545 40.2576 36.858 40.5117 37.0188 40.9428L38.3035 39.5452C38.5799 39.2525 38.6864 39.2184 39.0353 38.9484C39.3729 38.6875 39.826 38.3131 39.7671 38.742L39.5473 39.1549C39.2029 39.7789 39.4544 39.7085 39.5156 39.8015C39.8577 39.8106 39.7059 39.6541 40.0752 39.4544C40.0277 39.7448 39.9846 39.7652 39.9393 39.9104C39.8011 40.3688 39.6855 40.6184 39.6583 41.1153C40.0616 41.1062 39.9891 41.2355 40.2202 40.7772C40.2202 40.7772 40.3494 40.43 40.372 40.371C40.585 39.8015 40.6779 39.0188 40.9543 38.4606C41.1333 38.0976 41.2443 38.1384 41.3395 37.5712L40.8999 37.2581C40.986 37.1151 41.2919 36.6818 41.3281 36.5479C41.4777 36.0238 41.2738 36.1826 41.0653 35.8037C41.6272 35.6176 41.5071 36.4118 41.6317 34.2813L41.6748 32.7815C41.6431 32.4593 41.5932 32.364 41.591 32.1031C41.5819 31.098 41.4732 31.6039 41.8153 30.7463C41.8017 30.7213 41.77 30.6986 41.7586 30.685C41.4732 30.3469 41.5683 30.5852 41.5434 30.0837C41.523 29.6663 41.4029 29.6504 41.4732 29.2533C41.5343 28.913 41.5819 28.9811 41.5615 28.4206C41.5502 28.1007 41.5796 28.2164 41.4935 27.9396C41.4392 27.7649 41.4777 28.0508 41.3576 27.6401C41.5094 27.4813 41.6295 27.3247 41.7835 27.1705C41.6 26.6486 41.5524 27.1909 41.6114 25.7705L41.634 25.6389C41.7382 25.614 41.8311 25.5913 41.8991 25.8L42.2775 29.6572C42.3658 30.4581 42.1959 30.8824 42.3069 31.5767C42.4972 32.7679 42.5267 36.3528 42.5833 37.6892C42.6128 38.3971 42.649 41.7868 42.5788 42.5265C42.3432 42.2701 42.1891 42.2565 41.9104 42.0682C41.2398 41.6144 42.2775 42.2021 41.7246 41.923C41.7043 41.9411 41.6748 41.9616 41.6635 41.9729C41.2874 42.2769 40.909 42.5537 40.6394 42.9553C40.1591 43.6701 39.5745 44.2781 39.3955 45.2265C39.5269 45.2787 39.5972 45.2787 39.7105 45.3241C39.9212 45.4058 39.7966 45.3332 39.9234 45.433L39.5858 46.0933C39.3162 46.538 39.6674 46.3111 39.178 46.3701L39.4091 46.7898C39.4635 47.0054 39.4295 47.0689 39.4544 47.2845C39.5451 48.0559 39.9008 49.1472 39.9506 49.9368C39.9665 50.1841 41.5207 54.0799 40.1228 53.17C40.1115 53.1632 40.0866 53.1405 40.0752 53.1337L39.5836 52.8728C39.0761 52.7389 38.4439 52.5279 37.9591 52.2239C37.7869 52.115 37.7189 52.0424 37.5785 51.9448L36.611 51.4638C36.1579 51.3027 35.6617 50.9646 35.161 50.7219C34.4768 50.3883 29.7846 47.9969 29.4402 47.4478C29.9273 47.4229 30.0564 47.3412 30.4257 47.2527C31.2278 47.0621 30.2218 47.4546 30.7135 47.2527C30.5639 46.8534 30.7248 47.1892 30.7361 46.5902L30.897 46.7671C31.2142 47.0031 31.2165 46.7989 31.5291 46.8397C32.1748 46.926 32.4807 46.9827 33.2827 47.2981C33.5456 47.0734 33.7676 46.926 33.976 46.656C33.9942 46.6786 34.01 46.7127 34.0191 46.7263C34.0282 46.7399 34.0531 46.7785 34.0644 46.7944L34.1596 46.9146C34.1732 46.9282 34.1958 46.9532 34.2094 46.9645C34.3657 47.0916 34.4088 47.0734 34.6376 47.1279L34.7736 47.1642C34.7917 47.1642 34.8257 47.171 34.8438 47.171C35.0522 47.1687 34.8393 47.23 35.1315 47.0871C35.988 46.6718 35.9381 46.935 36.6495 47.1052C38.1403 47.4637 38.3193 45.6803 39.1169 46.0502C39.0806 44.6933 39.3253 44.589 40.0231 43.3343C40.1205 43.1618 40.2565 42.8419 40.3834 42.6853C40.5873 42.4312 40.7074 42.4789 40.8999 42.1884C41.2285 41.6961 40.9249 41.8844 41.0449 41.5963C41.1016 41.4579 41.1899 41.687 41.3146 41.1425C40.9815 41.2718 40.7572 41.1016 40.6892 41.442C40.6462 41.6553 40.7187 41.6099 40.6145 41.8912C40.4831 42.2452 40.0526 42.6264 39.7739 43.0665C39.3298 43.7676 38.9515 45.4239 37.9795 45.3763C38.0497 45.0223 38.2015 44.9112 38.3782 44.5776C38.5572 44.2418 38.632 44.142 38.7861 43.8606C39.1327 43.2208 39.57 43.0688 39.7218 42.5492C39.4318 42.5923 39.1644 42.7602 38.8993 42.8691C39.0579 42.3609 39.4454 42.1726 39.7512 41.6643C38.9447 41.6643 38.3647 42.978 37.9885 43.5861C37.7575 43.9627 37.5717 44.3349 37.3134 44.7138C37.0551 45.0949 36.8331 45.5623 36.3097 45.2515C36.0106 44.9112 38.3103 41.7074 38.6932 41.231C39.024 40.818 39.5337 40.666 39.7105 40.1237C38.0316 40.7114 36.5748 44.3167 35.8044 44.8771C35.7478 44.2123 35.9381 44.1284 36.21 43.6564C36.4524 43.2322 36.5816 42.8941 36.8127 42.5696C37.2363 41.9706 38.0021 41.4079 38.1336 40.6274C37.7733 40.7545 37.3995 41.324 37.1412 41.6598C36.7945 42.1113 36.602 42.4471 36.3323 42.8691C35.9313 43.4976 35.3196 45.0541 34.6716 45.1902C34.4496 44.8499 34.5334 44.9588 34.6897 44.5844C35.4601 42.7625 35.7614 42.699 36.79 41.1584C35.7048 41.2355 34.8936 44.0059 34.1233 44.6616C33.865 44.5436 33.7948 44.4029 33.5954 44.2101C33.8718 43.2185 34.7804 42.7353 35.2108 41.8118C34.9933 41.8799 34.948 42.0047 34.8053 42.1703C34.3793 42.6604 33.8582 43.0756 33.5365 43.6996C32.8002 45.1199 32.8931 44.4528 32.2881 44.7183C32.0955 44.8022 32.1522 44.8817 31.9007 45.0768C31.6243 44.952 31.5563 44.8635 31.3615 44.7115L31.0012 45.0314C30.138 45.5124 30.3238 44.8113 29.9114 44.4982C29.626 44.2804 29.8253 44.4392 29.5761 44.4188C29.4628 44.4097 29.3949 44.4211 29.2793 44.353C29.6078 43.7064 29.8435 42.8782 30.0632 42.1385C30.172 42.0387 30.2626 41.9389 30.3487 41.5826C30.2989 41.6144 30.2422 41.6598 30.181 41.7165C30.2603 41.3966 30.3011 41.1039 30.3396 40.7114C30.3623 40.4754 30.3351 39.8855 30.5028 39.5746C30.6772 39.2502 31.0352 39.1844 30.9446 38.6081C30.8925 38.2746 30.8993 38.3154 30.863 38.0091C30.8245 37.6824 30.8993 37.8525 30.6523 37.612C30.3464 37.3148 30.0814 37.1628 29.6962 37.013C29.3201 36.8656 29.0686 36.6795 28.5747 36.7203C27.6752 36.7929 26.9751 37.2967 26.565 37.814C25.7947 38.7828 26.6693 39.2978 26.8301 39.9536C26.9978 40.6501 26.1617 44.1987 26.0394 45.2946C25.6406 45.2855 25.3121 45.2833 25.0448 45.0541C24.7684 44.8181 24.8522 44.7841 24.535 44.6026C24.7095 44.0399 24.612 43.5543 24.7638 42.91C24.9202 42.2452 24.893 41.9979 24.9836 41.3058C25.1082 40.3756 25.2645 38.9598 25.3121 37.9819C25.3824 36.5479 25.6565 35.9988 25.8219 34.8508L26.7621 28.7201C26.8482 28.1869 26.9253 27.5902 26.9525 27.2612C26.9887 26.8619 27.0748 26.1653 27.1994 25.7388C27.4305 24.9424 27.8429 19.9916 28.1782 19.6603C28.722 19.3654 28.5452 19.506 28.9009 19.6104L33.2193 19.6013L33.4867 19.5491C33.6362 19.5287 33.4708 19.5242 33.7359 19.5673C34.6716 19.7193 34.8936 19.4221 36.0695 19.6285C36.3913 19.6853 37.1208 19.6127 37.7461 19.5832C39.4862 19.5015 39.0534 19.8237 39.7626 20.1481C40.1228 20.3115 39.9189 20.0596 40.2859 20.6654C40.2995 20.645 40.3063 20.611 40.3131 20.5996C40.3177 20.5883 40.3335 20.5497 40.338 20.5361C40.3471 20.5157 40.3766 20.4431 40.3902 20.4227C40.4468 20.3342 40.2474 20.4681 40.508 20.2933C40.6122 20.223 40.7481 20.2049 40.9588 20.1368C41.3214 20.6269 41.6159 21.3688 41.6612 22.0495C41.7496 23.404 41.2058 22.265 40.8116 21.9792C40.4581 21.7228 40.6462 21.8158 40.4309 21.6002C40.3245 21.4936 40.3698 21.5231 40.1749 21.421C39.9416 21.2985 40.1885 21.4823 39.9461 21.3302C40.1817 21.0444 40.1795 21.1306 40.1817 20.6586C39.6108 20.6405 38.7362 20.2457 38.2219 20.527C37.6736 20.8265 36.2893 21.8226 36.1466 22.3558C37.1185 22.4012 37.1978 21.4732 38.0882 21.3802C37.8549 21.9587 37.1865 22.1788 37.0211 22.594C37.2092 22.7166 36.7538 22.746 37.3021 22.6508C37.3066 22.6508 37.5649 22.5124 37.5739 22.5033C38.0678 22.1425 38.3148 21.7523 39.0081 21.6638C38.8019 21.9497 38.2106 22.408 37.9296 22.6371C37.2749 23.1703 37.3542 23.1703 37.0868 23.9214C37.6057 23.5288 38.0565 23.0524 38.6297 22.6871C38.9764 22.4647 39.1712 22.2718 39.5564 22.1198C39.4069 22.4806 38.4258 23.0637 38.0588 23.3496C37.6963 23.6309 37.873 23.3496 37.7801 23.7194C37.7801 23.7194 37.8073 24.1482 37.8096 24.1528L38.1154 24.4319C38.8744 25.1375 37.5467 25.7433 37.3655 26.4353C37.7869 26.1041 37.4017 26.2833 37.9772 26.0201C38.6116 25.732 39.1259 25.0127 39.8283 24.8607C39.5994 25.4801 39.3955 25.3757 38.8858 25.8272C38.6207 26.0609 38.3669 26.6781 37.6532 27.3928C37.4221 27.6242 37.4471 27.6492 37.2431 27.8761C37.08 28.0576 36.9259 28.1484 36.7877 28.3276C36.7424 28.3843 36.6563 28.5227 36.6405 28.6067C36.5295 29.1558 36.5793 28.711 36.6881 28.8994C37.148 28.4229 37.4176 27.7513 37.9319 27.3497C38.2944 27.0661 39.5111 25.9588 39.8872 25.8635C39.5972 26.7666 38.7589 26.6826 38.1698 28.0644C38.9583 27.8761 39.3344 27.1296 40.0662 27.082C39.9484 28.0394 38.8427 28.2641 38.419 29.2306L38.9877 29.1739C38.8427 29.782 38.8336 29.6935 38.3918 30.0179C37.9523 30.3379 37.8232 30.6442 37.5377 30.9505L37.3043 31.1615C36.9577 31.4701 36.6926 31.6448 36.5181 31.8762L36.5113 31.8444ZM8.14287 101.625C7.70332 101.8 7.08253 102.369 6.87182 102.825C7.19582 102.664 7.14144 102.673 7.40426 102.415C7.6127 102.211 7.63989 102.161 7.93442 102.009L8.20857 101.789C8.32638 101.691 8.36717 101.652 8.43514 101.532L8.14287 101.625ZM39.9348 65.1749C40.2338 64.9889 40.9634 63.9157 41.2353 63.5935C40.8501 63.5549 40.9475 63.5776 40.7572 63.8272C40.005 64.8187 40.4672 64.2719 40.2248 64.7257C40.0911 64.9752 40.2429 64.6757 40.0775 64.914C39.9053 65.1613 40.1183 64.7279 39.9325 65.1749H39.9348ZM37.2726 28.584L35.6776 30.1042C35.4895 30.3469 35.562 30.0724 35.5733 30.4581C35.9517 30.3696 36.1624 29.8932 36.423 29.6232L37.2726 28.5863V28.584ZM48.7097 80.0749C48.1682 80.1974 47.7717 81.3523 47.9054 81.4839C48.3245 81.8923 48.03 80.9303 48.7097 80.0749ZM44.2622 71.5528C43.8816 71.7593 43.4964 72.8779 43.4783 73.2976C43.877 72.8847 44.1625 72.1201 44.2622 71.5528C44.7221 71.1512 44.5567 71.0582 44.892 70.6112C45.062 70.3844 44.9691 70.6135 45.1956 70.1325L45.4199 69.7196C45.4245 69.6833 45.4471 69.6742 45.4607 69.6538C45.0642 69.7422 44.8943 69.9873 44.7063 70.4297C44.5522 70.7973 44.3075 71.1603 44.2599 71.5528H44.2622ZM47.7876 80.0182C48.0934 79.9206 47.9552 79.9796 47.9847 79.7164C48.0798 78.8588 48.388 79.1311 48.4514 78.4912C48.1206 78.7068 47.3707 79.4056 47.7876 80.0182ZM42.6808 68.1767C43.0501 67.5074 43.587 67.0241 43.8204 66.4342C43.4148 66.6247 42.7555 67.6344 42.4995 68.1132C42.3568 68.3786 42.3182 68.3627 42.2593 68.7553L42.6808 68.179V68.1767ZM47.5474 78.8225C47.5565 78.7952 47.561 78.7635 47.5701 78.734L48.0073 77.3885C47.6086 77.6245 47.6063 77.6835 47.4183 78.1191C47.373 78.2258 47.2529 78.5706 47.2461 78.6251C47.2325 78.7158 47.228 78.8293 47.237 78.92C47.2869 79.299 47.2506 79.004 47.3458 79.156L47.5474 78.8225ZM3.72254 101.943C4.39771 101.779 3.86754 101.911 4.43849 100.997L5.13179 99.9257C4.88936 100.041 3.72934 101.287 3.72254 101.943ZM20.2619 49.6351H20.2914C21.2498 48.3758 20.5089 49.8506 21.4899 48.5528C20.9099 48.546 21.0798 48.7706 20.6041 48.9635C20.6041 48.9635 20.45 48.9544 20.2914 49.0519C20.4069 48.3917 20.8284 47.6429 21.857 47.8471C21.9544 48.0559 22.1492 48.5119 22.0926 48.6912C23.2277 48.639 22.3826 49.027 23.409 48.5596C23.8326 48.3667 23.6401 48.4008 24.0524 48.5165L24.5962 48.6662L24.2835 49.2584C24.1498 49.5579 24.1294 49.626 23.9958 49.8688C23.4883 49.7962 23.8847 49.8483 23.6786 49.7689C23.0238 49.5216 24.023 49.8393 23.4996 49.685C23.5562 49.9096 23.4792 49.9504 23.35 50.0911L23.0487 50.3634C22.693 50.6878 23.0057 50.5381 22.548 50.6447C21.687 50.8421 20.4296 51.01 20.339 49.9119C20.3027 49.8619 20.2778 49.7644 20.2642 49.6396L20.2619 49.6351ZM46.4644 78.0556C46.9742 77.9467 46.8405 77.7561 47.1577 76.9597L47.4568 76.0635C46.9855 76.1905 47.0965 76.2314 46.802 76.9801L46.4622 78.0579L46.4644 78.0556ZM45.139 76.5059C45.2206 75.3034 45.8595 74.8451 46.1404 73.9897C45.8618 74.06 46.1132 73.815 45.8074 74.1803C45.5627 74.4707 45.463 74.9041 45.3293 75.1446C45.1435 75.4758 44.8354 76.1202 44.806 76.5059H45.139ZM33.9987 21.0852C33.8854 21.4165 33.8967 21.2531 33.8741 21.6502C34.0417 21.6002 35.7682 20.3523 35.8724 20.1028C34.8597 20.1232 34.9639 20.9445 33.9987 21.0852C34.5153 20.4612 34.7668 20.5021 34.9661 20.0007C34.3748 20.1005 33.9421 20.8197 33.4096 20.9808C33.6453 20.4068 33.9534 20.5792 34.0893 20.0029C33.5161 20.1413 33.3892 20.5679 32.8817 20.6654C33.1264 20.4068 33.4459 20.3115 33.541 19.7692C33.0426 20.0982 32.3085 20.9309 31.6945 21.0693C32.1114 20.4295 32.0978 20.5951 32.4943 20.2502C32.9293 19.8713 32.7322 20.1549 32.6212 19.9848C32.3652 19.8736 32.5328 20.037 32.2202 20.0528C30.9333 20.1096 30.7588 19.717 30.3125 20.5112L30.2332 20.6518C30.2196 20.6723 30.2014 20.6995 30.1901 20.7199C30.0043 21.0149 30.1697 20.5293 30.0134 20.9944C30.1516 21.0965 30.2286 21.1941 30.3442 21.3257C30.752 21.2145 30.65 21.0988 31.0692 21.1465C31.2731 21.1691 31.4498 21.2554 31.5835 21.4051L31.6696 21.5413C33.0856 21.1487 32.0117 21.8521 33.106 21.0965L33.5206 21.4323L34.0032 21.0829L33.9987 21.0852ZM41.3825 68.3219C41.9965 68.2561 41.5094 68.458 41.7835 68.061L42.7419 66.5816C43.1633 65.9509 43.2721 66.0553 43.4873 65.5379C43.1248 65.6559 43.0365 65.7875 42.8235 66.1142C42.5856 66.4818 41.4913 67.9975 41.3825 68.3242V68.3219ZM46.7952 75.1604C46.1518 75.4191 45.8368 76.3312 45.4607 76.9393C45.3588 77.1026 45.0642 77.418 45.3973 77.5678C45.8096 77.7515 45.753 77.1299 45.7598 77.0777C45.8663 76.3811 46.6434 75.5757 46.7952 75.1604ZM44.2463 75.6278C44.6202 75.351 44.491 75.2035 44.6859 74.7225C45.2727 73.284 45.8119 72.9619 46.0339 72.4014C45.1571 72.71 44.2531 75.0107 44.2463 75.6301V75.6278ZM40.2791 68.1018C40.5805 68.0338 40.4944 68.1472 40.6643 67.8205C40.7459 67.6617 40.7459 67.5822 40.8637 67.3553C41.1265 66.8403 42.2208 65.3065 42.282 65.0047C41.6431 65.3927 40.3992 67.5527 40.2769 68.1041L40.2791 68.1018ZM42.2639 70.8654C42.615 70.6226 42.5652 70.4796 42.7736 70.0372C43.2087 69.1206 43.9858 68.2652 44.2577 67.6548C43.9586 67.7456 43.6482 68.0269 43.4715 68.3106L43.0025 69.1659C42.7147 69.6719 42.1257 70.5228 42.2639 70.8654ZM43.9246 74.5138C43.9971 74.4004 43.9699 74.4843 44.0266 74.2801C44.337 73.1683 44.482 72.9959 45.2092 71.8297C45.4766 71.4008 45.6193 71.3055 45.6465 71.0219C44.9464 71.4893 44.3573 72.744 43.9835 73.5745C43.8091 73.9624 43.5123 74.2234 43.9269 74.5138H43.9246ZM21.2951 8.06158L21.7346 7.83242L22.8516 6.7456C23.196 6.403 23.9414 5.84711 24.1136 5.31391C24.7616 4.70584 25.4141 4.06374 25.5092 3.86861C25.2011 3.56457 25.1852 3.64626 25.0221 3.97525C24.927 4.16357 24.501 4.61282 23.9958 5.1029C23.9663 5.09837 23.921 5.0961 23.8145 5.07341C23.8054 5.16416 23.7896 5.24585 23.7669 5.32299C23.085 5.96963 22.3328 6.63443 22.0654 6.83863C21.5715 7.21754 21.4401 7.66679 20.561 7.6441C20.6562 6.70249 21.9 6.17157 22.5299 5.61341C23.085 5.11879 24.3288 4.0955 24.4534 3.59407C24.211 3.67575 24.356 3.62357 24.1612 3.77105L22.591 5.21635C22.1606 5.62249 21.1909 6.50283 20.6992 6.65485C20.5769 6.20333 20.5202 6.29409 20.74 5.90383C21.9453 3.77558 23.4407 3.30138 23.7284 2.2849C23.341 2.37793 23.5222 2.30986 23.2662 2.59801L21.397 4.52433C20.8646 5.01895 21.0708 4.81702 20.3798 4.98492C20.1555 4.14088 20.1351 4.40408 19.3307 4.80341C19.7794 3.72794 22.2421 2.64566 22.6409 1.82204C22.2807 1.66322 22.2059 1.82204 21.8774 2.04213L20.8102 2.75684C20.4205 3.12667 20.7898 3.04499 20.3752 3.44205C19.1586 4.60601 19.512 3.41936 19.8904 2.92701C20.2166 2.50272 20.8352 2.38927 20.9779 1.79481C20.416 1.83112 20.8669 1.70406 20.4568 2.03078C20.2529 2.19414 20.2823 2.19641 20.0331 2.34162L19.8269 1.65868C18.105 1.62464 18.8074 1.44767 18.0167 1.41137C18.4335 1.05061 21.0391 0.787412 21.7278 0.760185C23.1824 0.701193 23.7375 0.499258 25.6089 0.624049L26.0439 0.599091C26.5446 0.481107 27.4056 0.644469 27.7794 0.571864L28.0105 0.526486C28.5815 0.487914 28.9259 0.444804 29.4855 0.544637C30.0746 0.651276 31.1281 0.503796 31.9981 0.735226L32.5124 0.746571C32.9837 0.660352 33.0109 0.889513 33.4051 0.957581L34.4269 1.00977C35.2176 1.16405 36.8421 1.28431 37.5173 1.47943C38.2151 1.68364 39.1712 1.92868 39.9461 2.27583C40.3086 2.43692 40.5193 2.64566 40.8116 2.95196C41.9082 4.09096 40.9747 5.81308 40.5148 8.12511C40.3426 8.9873 40.1885 9.97655 39.9098 10.8115C39.6719 11.5217 38.743 13.8927 38.8359 14.5325C38.9696 15.4605 39.6448 15.785 39.9959 16.5383C40.1251 16.8151 40.1364 17.2462 40.0526 17.616C39.8872 18.3443 39.6425 17.5729 39.1939 18.4283C38.9447 18.898 38.9492 19.0318 38.2854 18.991C36.9078 18.9048 37.191 18.6983 36.5657 18.4011C36.3822 18.3126 36.2349 18.3216 35.9834 18.2082C36.5612 17.4345 36.2802 18.451 37.0687 17.7975C37.3881 17.5321 37.6464 17.2757 37.6759 16.713C37.2363 16.7447 37.4063 16.7924 37.2295 16.8174C36.7288 16.8854 37.2341 16.4611 36.2916 16.6222C35.8769 16.6948 35.6685 16.6653 35.3015 16.5837C35.2811 16.5791 35.2516 16.57 35.2312 16.5632C34.59 16.3953 34.1278 16.1435 33.6339 16.5678C33.507 16.6767 33.4617 16.7606 33.3462 16.84C33.3281 16.8537 33.2986 16.8695 33.2782 16.8832L33.0517 16.9807C32.7639 17.0919 32.6914 17.1441 32.3697 17.1645L32.2859 16.6381C31.8939 16.983 32.0842 16.7447 31.5201 16.8559C31.1349 16.9308 31.2754 16.9853 30.7044 17.0261C30.2332 17.0601 30.24 17.0851 29.8503 17.1373C29.1479 17.2303 28.8964 17.5457 28.6359 17.1872C28.4319 16.9058 28.5407 15.0657 29.0754 14.9387C29.7438 14.7799 29.9953 15.0226 30.428 15.4696C30.9468 15.3607 30.7724 15.3176 31.1711 15.0952C31.7625 14.7662 31.2754 15.0317 31.7851 15.0748C32.1454 15.1066 32.0457 14.9273 32.4218 15.0952C32.8727 15.2972 32.3674 15.3131 33.0358 15.1474C33.8877 14.9364 34.547 14.882 35.3128 14.9478C35.7818 14.9886 35.3626 15.1066 36.0854 15.1315C36.3323 14.7821 36.5249 14.6415 36.5476 14.0334L35.707 13.4798C35.2833 13.6885 34.6965 14.2489 34.2071 14.0334C33.6974 13.811 34.3295 13.9925 33.8039 13.7316C33.421 13.8632 33.1559 14.047 32.9021 14.292C32.3561 14.0629 32.9837 13.9086 31.7965 14.2739C31.6809 14.0856 31.7874 14.072 31.7625 13.7725C31.6537 13.752 31.6039 13.7407 31.4974 13.6999C31.4725 13.6908 31.443 13.6772 31.4181 13.6658C31.3932 13.6567 31.366 13.6386 31.3411 13.6295C31.0397 13.5093 31.4702 13.4525 30.897 13.5501C30.3555 13.6431 31.0715 13.6545 30.4484 13.6272C30.351 13.6227 30.1267 13.5773 29.9499 13.5751C29.7166 13.895 29.3881 14.4531 28.9734 14.5008C28.9349 13.5751 29.3314 12.6221 29.4447 11.7803C29.5195 11.2199 29.3677 11.3175 29.6781 10.8796C29.8752 10.6028 30.0632 10.4825 30.2581 10.2261C31.4385 8.66965 30.3986 7.12225 29.891 6.94073L29.703 6.88401C29.2974 6.77964 28.4818 6.7093 28.0173 6.80913C27.5846 6.90216 27.1201 7.24704 26.7984 7.59645C26.198 8.2499 26.2071 8.29982 26.2433 9.07806C25.7788 9.36167 24.9315 10.0741 24.4557 10.2171C24.4919 9.46831 25.7834 9.03948 26.0507 8.29755C25.8581 8.16368 25.7154 8.2136 25.3892 8.28393C25.5545 7.97309 25.5931 8.07519 25.8604 7.73939C26.1957 7.31737 26.1028 7.33325 25.9397 7.18804C25.7131 6.98838 23.6786 8.4541 23.239 8.59478L23.1892 8.36335C22.7111 8.55167 21.9906 9.47966 21.601 9.66344C21.0481 9.9221 21.1002 9.5931 20.7264 10.1195C20.6222 10.2647 20.6403 10.2466 20.5406 10.3804C20.2483 10.7707 19.734 11.4582 19.3058 11.6011L19.1064 11.0498C18.7553 11.0634 18.7009 11.1087 18.4698 11.2562C18.5423 10.8455 18.6375 10.8955 18.7168 10.6368C18.9411 9.90848 18.4132 10.7571 18.7779 10.0378C19.1087 10.1762 18.8459 10.0333 18.9433 10.2261C18.9546 10.2488 18.9773 10.3328 18.9818 10.3509C18.9864 10.3623 18.9954 10.4326 18.9977 10.4167C19 10.4008 19 10.4666 19.0136 10.4848C19.7658 10.4349 20.1011 10.0832 20.5723 9.72697C21.721 8.8557 23.0464 7.63956 24.2541 6.73653C24.7593 6.35762 24.6347 6.41434 24.9995 6.03543C25.2532 5.76997 25.4413 5.5045 25.8128 5.42282C25.9692 4.83517 26.0507 5.19366 26.1844 4.64231C25.7698 4.73534 25.7358 4.91458 25.4503 5.24585C24.9179 5.86526 23.2549 7.17216 22.5321 7.66679L21.3676 8.50175C20.8941 8.86932 20.5678 9.221 20.2755 9.2868C20.3752 8.94419 20.6063 8.79217 20.8125 8.48587C21.0685 8.10469 21.0164 8.06385 21.3857 7.72124L22.5276 6.73653L21.6304 7.61687C21.388 7.81654 21.4038 7.68721 21.2928 8.0525L21.2951 8.06158ZM29.6962 44.3031C29.814 44.2532 30.0157 44.2237 30.0746 44.1806C30.5549 43.8221 29.8729 44.2849 30.4008 43.391C30.7882 42.7353 31.6062 41.594 31.7036 41.3081C31.2844 41.4669 31.6243 41.2537 31.3184 41.5532L29.993 43.5317C29.6282 44.0921 29.5013 43.7449 29.6962 44.3054V44.3031ZM41.9104 113.215C42.5788 113.19 42.0169 113.333 42.4202 112.827C42.6626 112.525 43.3015 112.053 43.3876 111.454C42.9028 111.54 42.6445 111.84 42.3092 112.16C42.0214 112.434 41.711 112.747 41.9104 113.215ZM41.6 111.014C42.1483 111.956 40.397 112.275 41.0517 113.097C41.566 112.924 41.4142 112.897 41.634 112.589C41.8221 112.323 41.8674 112.403 42.0282 112.099C42.1053 111.951 42.2752 111.579 42.1914 111.416C42.0237 111.084 41.9331 111.32 41.6 111.014ZM16.8657 59.6478C16.6731 59.9496 16.5802 59.945 16.2608 60.1901C16.0115 60.3807 15.9096 60.4964 15.6626 60.7006C15.3047 60.9956 14.6725 61.4493 14.4369 61.801C14.9603 61.6694 16.4647 60.1266 17.5295 59.7182C17.7538 59.2666 18.3089 59.1827 18.6352 58.7107C18.2251 58.7743 17.9668 58.9286 17.67 59.1691C17.3981 59.3892 17.192 59.5775 16.8657 59.6478ZM20.842 49.5216C21.1184 50.2817 20.7944 49.542 20.8782 50.0934C20.9734 50.7287 21.397 49.9641 21.7641 49.6691C22.2082 49.3129 22.3781 49.3673 22.3826 48.7479C21.9181 48.7797 21.9023 48.8387 21.5602 49.0247C20.996 49.3288 21.1977 49.2856 20.842 49.5216ZM31.2233 44.2146C31.5269 44.1329 31.2323 44.2713 31.443 44.0966C31.4702 44.0739 31.5586 43.965 31.6062 43.9264C31.7715 43.7926 31.6062 43.8833 31.7421 43.8516C31.7625 43.847 31.6741 43.9106 31.8871 43.8788C31.6923 43.4386 31.8101 43.8992 31.6719 43.4364C31.9392 42.944 32.0208 42.6695 32.3402 42.2293C32.5124 41.9911 32.5396 41.8663 32.7254 41.6212C32.9361 41.3421 32.9905 41.3921 33.1174 41.0154C32.4852 41.3036 32.517 41.4783 32.1114 42.0047C31.8259 42.3768 31.3094 43.4409 31.1915 43.7495C31.153 43.8493 31.0284 43.8107 31.2255 44.2123L31.2233 44.2146ZM9.21453 91.4899C9.02421 91.8211 8.65491 92.1116 8.38756 92.343C8.3649 92.3634 6.11056 94.8592 6.05392 95.0725C7.03722 94.4054 6.81292 94.1513 8.1406 93.1507C8.35357 92.5404 9.73563 91.9074 9.90782 91.322L9.21226 91.4876L9.21453 91.4899ZM10.5717 83.0245C10.8367 82.6388 10.8957 82.6456 11.3216 82.3665C11.2514 82.2486 11.4122 82.2123 11.2332 82.2803C9.84665 82.7069 10.6011 82.6161 9.97579 83.0994C9.50227 83.4647 9.32101 83.619 8.93132 84.041L7.6127 85.7064C7.33629 86.024 7.29777 85.8675 7.25925 86.3462C7.89817 86.2623 7.42918 86.1829 8.0545 85.4886C8.84749 84.6082 9.35047 83.6916 10.5694 83.0268L10.5717 83.0245ZM40.3879 112.67C41.0517 112.328 40.8478 112.421 40.909 112.205L41.0699 111.413C41.0404 111.046 40.8229 111.327 40.5533 111.388C40.0005 111.513 40.474 111.338 39.8668 111.377C39.6969 111.915 39.5677 111.788 39.502 112.248L40.3856 112.67H40.3879ZM9.4207 85.1664C9.87157 84.7739 10.1208 84.4766 10.5082 84.1726C10.9387 83.8323 11.1789 83.5101 11.6796 83.3626C11.5187 83.1992 11.9175 83.1221 11.4145 83.2492L10.7076 83.7165C9.90329 84.2611 7.17542 86.9316 6.76534 87.7893C7.16863 87.6962 7.02816 87.703 7.31136 87.3899L7.42012 87.2788C8.34904 86.2441 8.14966 86.3462 9.42297 85.1664H9.4207ZM7.9231 98.426C8.01599 98.2263 7.982 98.2966 8.17005 98.1582L7.96388 98.0062C7.4677 98.3534 7.26379 98.5008 6.83784 98.9682C6.65432 99.1679 6.52518 99.304 6.33713 99.5718C5.70274 100.473 6.01993 99.6716 5.34023 100.788C4.94147 101.444 4.05786 102.283 3.95817 102.816C4.31162 102.735 4.29122 102.712 4.48381 102.367L4.68092 102.002L6.7676 99.447C7.39519 98.7686 7.40879 98.6188 7.9231 98.4237V98.426ZM8.21084 93.8995C7.8438 94.2943 7.45184 94.4871 7.12784 94.8388C6.89448 95.0907 6.93526 95.1633 6.68151 95.3879C5.58266 96.3613 5.62797 96.6585 4.85311 97.5411C4.5835 97.8497 4.511 97.7249 4.71037 98.1787C5.36742 97.9881 4.60842 98.0471 5.90438 96.6018C6.44588 95.9982 6.09017 96.7583 6.58635 95.8462C6.95339 95.1746 7.42465 95.1633 7.82567 94.655C8.11341 94.2897 7.89817 94.3737 8.36717 94.199C8.60053 93.8904 8.52803 93.9653 8.91772 93.811C8.76139 93.6749 9.18507 93.5637 8.55748 93.7112C8.25841 93.7815 8.48951 93.752 8.21084 93.9017V93.8995ZM9.84665 85.3502L7.80301 87.4398C7.78715 87.4557 7.7645 87.4784 7.74864 87.4943C7.28644 87.9776 7.52434 87.8777 6.89901 88.5221C6.52065 88.9101 6.09017 89.1075 6.04939 89.7768C6.71323 89.6747 6.30087 89.6339 7.03948 88.7785C7.39066 88.3724 7.54246 88.0615 7.982 87.6168L8.99929 86.5368C9.5 86.0172 9.43203 86.2645 9.82626 85.8176C10.0075 85.6111 9.91689 85.745 10.0868 85.4908C10.4629 85.3229 10.4425 85.3003 10.7416 85.0529C10.404 85.028 10.046 85.2027 9.84665 85.3502ZM46.5483 113.873C46.5686 113.837 46.5868 113.802 46.6049 113.771C47.1962 113.405 47.3118 112.811 48.0141 112.625C47.7083 113.047 47.2325 113.632 47.0762 114.027L46.6276 114.154C46.6004 114.086 46.5777 113.977 46.5505 113.873H46.5483ZM16.8929 57.7306L16.8702 57.3766C17.3211 57.127 18.0756 56.2354 18.7598 55.954C18.6329 56.2875 18.5468 56.2853 18.3067 56.4872C18.1481 56.6211 18.0325 56.7527 17.8558 56.9228C17.5499 57.2133 17.303 57.4787 16.8952 57.7283L16.8929 57.7306ZM18.7575 55.954L18.6352 55.7044C17.9917 55.861 18.2568 56.0561 17.6451 56.1582C17.9192 55.7339 17.772 55.7362 17.7334 55.659L17.3936 56.0221C16.8702 56.5417 16.553 56.646 16.2109 57.152L16.3582 57.751C16.6958 57.8281 16.4941 57.776 16.8906 57.7306C16.723 57.9779 16.3673 58.3386 16.118 58.5065C15.3772 59.008 15.8008 58.654 15.8847 59.3642C15.8552 59.4731 14.8402 60.3194 14.6612 60.5781C15.3726 60.5236 15.5267 59.7182 16.7003 59.2576C16.9745 58.6926 18.1028 58.6268 18.3112 57.9302L17.5522 58.232C17.738 57.8009 18.6828 57.0953 19.1835 56.9319C19.0498 56.6052 19.2401 56.9433 18.7417 56.6007C18.9637 56.4532 18.9433 56.4645 19.1382 56.2263C19.3511 55.9676 19.3217 56.0765 19.3965 55.6749L18.7553 55.954H18.7575ZM15.5358 62.9582C15.2186 63.3643 14.5207 63.8725 14.1084 64.231C13.8478 64.4579 12.9642 65.3405 12.5632 65.4472C12.6198 65.9123 12.4001 65.7172 12.9166 65.8647C12.6402 66.7087 11.8812 66.4773 11.7906 67.3236C12.2958 67.285 12.4544 66.9379 12.7173 66.6043C13.0798 66.146 14.9535 64.5873 15.5425 64.3581C15.7057 63.9815 15.9911 63.9225 16.3265 63.6865C17.2146 63.0648 17.0266 63.2781 17.0923 62.8583C16.5508 62.9854 16.2381 63.2962 15.8711 63.5662L14.6 64.5033C14.0925 64.9367 13.6598 65.581 12.9144 65.8669C13.2429 65.3247 13.3698 65.2747 13.9203 64.8187C14.3599 64.4534 14.6182 64.231 15.0645 63.8635C15.8326 63.2259 15.8122 63.151 16.7728 62.5906C16.7932 62.577 16.8227 62.5634 16.843 62.5498C16.8634 62.5384 16.8929 62.5225 16.9133 62.5089C17.2395 62.307 17.3279 62.2094 17.4412 62.0188C17.4412 62.0188 17.414 61.6966 16.8793 62.0256L15.9934 62.6972C15.9051 62.7653 15.8416 62.822 15.7442 62.8765C15.5561 62.9831 15.717 62.906 15.5335 62.9582H15.5358ZM7.81208 100.636C7.85512 100.511 7.84153 100.518 7.92536 100.389C7.12331 100.445 7.06894 100.976 6.49572 101.28C6.57276 100.965 7.05988 100.507 7.4541 100.035C7.85286 99.5582 8.25615 99.3857 8.55975 98.9501L8.11341 98.9841C6.89448 100.016 5.38101 102.358 5.13632 102.58C4.23232 103.413 4.84858 103.576 4.32294 104.425C4.22325 104.586 4.07146 104.734 4.042 104.808C3.92645 105.103 3.98989 105.053 4.27763 105.156L4.57217 104.448C4.74889 104.069 5.52375 102.993 5.77524 102.673C6.35299 101.938 7.01003 101.047 7.80981 100.64L7.81208 100.636ZM5.59399 106.458C5.38554 106.739 4.99585 107.243 4.75116 107.359C5.35609 106.587 5.36742 106.633 5.59399 106.458ZM4.30935 107.833L4.36599 107.915C4.29576 108.019 4.09638 108.305 3.95591 108.543C3.92419 108.559 3.89247 108.575 3.85848 108.591L4.03974 108.198C4.05333 108.176 4.06919 108.148 4.08052 108.126C4.17341 107.974 4.24138 107.896 4.30708 107.833H4.30935ZM17.6723 60.1402C16.6051 61.1771 16.1679 61.2792 15.6173 61.7624C15.3613 61.9871 15.1982 62.1028 14.9512 62.3161C13.3811 63.6683 13.9974 62.6859 13.8161 63.4596C13.6643 64.1108 12.8691 63.9792 12.7852 64.7869C13.2973 64.7325 13.0639 64.6871 13.4355 64.3354C13.8093 63.9837 14.8085 63.328 15.3228 62.8515C16.374 61.9009 17.2735 61.6082 17.7402 60.6824C18.0076 60.1538 18.0438 60.4419 18.3928 59.945C17.9849 59.911 17.9328 59.9927 17.6745 60.1424L17.6723 60.1402ZM12.9166 72.5262C12.468 72.887 9.31648 75.528 9.13976 76.1747C9.39578 76.1225 9.38219 76.0884 9.58157 76.1293C9.40031 76.6398 9.02421 76.6761 8.69569 77.1707C8.85882 77.3863 8.81577 77.3318 9.06046 77.4679C9.38672 77.0051 9.32781 76.785 10.3383 75.9387C10.8821 75.4826 11.2491 74.988 11.8993 74.5705C12.1916 74.2824 12.6493 73.8921 12.9959 73.6221C13.4445 73.275 13.9135 73.216 14.2194 72.7463C13.2837 72.828 13.4309 73.039 12.9076 73.4224C12.6878 73.5835 12.4862 73.6448 12.2732 73.7877C11.6818 74.1825 10.2522 75.6959 9.80134 75.9228C9.83532 75.4214 11.5776 74.0419 12.0919 73.604C12.3094 73.4179 12.4748 73.2387 12.7422 73.0367C13.295 72.617 14.2171 72.0747 14.6453 71.5506C14.1288 71.7185 14.0631 71.6232 13.6711 71.9749C13.3018 72.3039 13.338 72.2676 12.9212 72.5262H12.9166ZM14.2171 69.3157L13.4106 69.9464C13.0322 70.2754 13.2474 70.2823 12.6923 70.6725C12.1758 71.0355 11.6229 71.5937 11.1947 72.0452C10.5898 72.6828 11.1245 72.3651 10.941 72.8983C10.8164 73.2545 9.03554 74.8564 9.01062 74.963L9.02195 75.0719C9.0582 75.0833 8.99476 75.3034 9.34367 74.9562C9.54985 74.752 9.61102 74.4548 10.4516 73.7219C10.9432 73.2908 11.555 72.5807 12.0806 72.2494C12.8759 71.2738 14.6793 70.2414 14.8832 69.8693C14.5774 69.9442 14.2307 70.1098 13.9656 70.2437C14.1695 69.4904 14.9353 69.6855 15.0962 68.9935C14.8651 69.1001 14.4664 69.2068 14.2194 69.3157H14.2171ZM44.6972 114.227C45.2953 114.211 45.2183 114.24 45.3996 113.823C45.6012 113.358 45.5015 113.498 45.8119 113.122C46.222 112.625 46.3557 112.371 46.7861 111.951C46.759 111.647 46.7839 111.776 46.6819 111.561C46.4168 111.649 46.5188 111.622 46.3375 111.77C46.3262 111.779 46.0815 112.028 46.0634 112.049C45.8731 112.271 45.7621 112.466 45.5967 112.686C45.506 112.806 45.4562 112.863 45.352 112.997C44.8626 113.625 44.883 113.669 44.4933 113.333C44.6655 112.525 45.6307 112.393 45.6873 111.674C44.6723 111.91 44.636 112.575 44.1874 112.625C44.3075 112.06 45.0484 111.903 45.0914 111.279C44.6587 111.227 44.6202 111.452 44.3891 111.701L43.254 112.888C43.0478 113.115 42.9368 113.215 42.9232 113.669C43.8091 113.648 43.2155 113.19 44.0311 112.861C43.8498 113.185 43.6459 113.455 43.7003 114.002C44.4185 113.984 43.9269 114.02 44.2645 113.807L44.4117 113.714C44.4888 113.68 44.3528 113.723 44.5839 113.687C44.7448 113.954 44.6904 113.859 44.6949 114.231L44.6972 114.227ZM9.46828 88.5743C9.76282 88.1046 9.94181 88.1909 10.2839 87.8188C10.4992 87.5851 10.3474 87.8029 10.5037 87.5215C9.09218 87.7484 7.41332 90.5392 6.50025 90.6481C6.9262 89.8268 8.00239 88.6605 8.74553 87.9481L10.6283 86.1942C9.58383 86.3326 9.6654 86.6571 9.14882 87.1335C8.90413 87.3582 8.741 87.3967 8.48498 87.6826C8.28107 87.9072 8.13607 88.0956 7.9027 88.3225C6.49572 89.6861 7.08027 89.2005 6.29408 90.251C6.08111 90.5369 5.99048 90.7094 5.83641 90.9952L6.23064 91.1609C6.11736 91.2902 5.35609 91.8847 5.75711 92.2114C5.91118 92.3362 6.95339 90.8546 7.40879 90.3713C7.85513 89.8948 8.81804 88.8988 9.46828 88.5743ZM9.64274 88.9237C9.33234 89.1574 9.33914 89.1075 9.01741 89.4365L7.31136 91.1495C6.97151 91.4785 6.59088 92.0276 6.32127 92.377C5.97235 92.8308 5.43086 93.1167 5.37648 93.7588C5.42633 93.7497 5.62117 93.6975 5.65063 93.6975C5.96329 93.6907 5.73672 93.6249 5.93157 93.7588C5.34023 94.6618 5.1114 94.1173 5.05022 94.8638C5.62797 94.8161 6.3122 93.5818 6.95565 93.0146C7.63082 92.4224 8.44193 91.5398 8.96757 91.2494C9.03554 91.0247 8.86335 91.2358 9.16015 90.9113C9.38219 90.6708 9.64047 90.6526 10.0188 90.1149C9.55891 90.1489 9.57477 90.1489 9.25984 90.3441C8.7546 90.6572 7.29097 92.1683 6.91487 92.6402C6.60674 93.0237 6.44135 93.3844 5.93157 93.5864C6.11056 92.976 6.04712 93.1938 6.39377 92.7764C6.56143 92.5767 6.6951 92.3543 6.8605 92.1433L8.55748 90.4053C9.13976 89.8608 8.49858 90.6277 9.2825 89.7065C9.49094 89.4615 9.7311 89.3707 9.90103 89.2187C10.2069 88.9419 9.98259 89.2731 10.1548 88.8897C10.1321 88.8783 10.0959 88.867 10.08 88.8647C9.86251 88.8284 9.93728 88.8125 9.64047 88.9215L9.64274 88.9237ZM21.9249 111.681C22.4596 111.697 23.1756 111.794 23.6106 111.701C24.5395 111.504 23.6015 111.559 24.2903 111.359L25.9624 111.302C29.2974 111.509 29.9953 111.007 34.0032 111.656C34.7215 111.772 34.9525 112.005 35.2947 111.416C35.0953 111.336 34.513 111.366 34.035 111.202C32.3448 110.631 26.9072 110.726 24.714 110.785C23.631 110.814 20.9167 110.944 20.1826 111.336C20.6811 111.656 21.1116 111.239 21.8139 111.366C21.5443 111.638 21.712 111.518 21.2067 111.624L21.7233 111.754C21.4129 111.788 21.354 111.81 21.132 112.01L22.437 111.892L22.2625 111.804C21.9929 111.686 22.0722 111.869 22.0088 111.706C21.9952 111.672 21.9544 111.69 21.9295 111.679L21.9249 111.681ZM11.4553 69.8693C11.5527 69.5403 11.3579 69.774 11.7249 69.4791C11.9379 69.3089 11.9424 69.3497 12.1418 69.116C12.3955 68.8165 12.5065 68.5919 13.0027 68.4036C12.937 68.9481 12.6357 68.8778 11.9379 69.5789C11.6728 69.8466 11.8336 69.7854 11.4553 69.8716V69.8693ZM13.0934 68.4172C13.1817 67.9748 13.3924 67.9521 13.6756 67.7728C13.6213 68.2538 13.5012 68.2584 13.0934 68.4172ZM13.005 67.766C13.0934 67.3508 13.0435 67.5028 13.3607 67.3508C13.227 67.7774 13.3041 67.6685 13.005 67.766ZM13.8863 67.6571C14.0653 67.3848 14.3893 67.0195 14.7042 67.0627C14.7564 67.4892 14.4278 67.6208 13.8863 67.6571ZM13.4423 67.3644C13.6235 66.8494 14.4482 66.2549 14.9897 66.0484C14.8606 66.3616 14.9512 66.2731 14.6363 66.5317C14.6182 66.5453 14.591 66.5635 14.5751 66.5771L14.2806 66.8403C14.0744 67.0082 13.6983 67.26 13.4423 67.3644ZM15.6468 64.9503C15.3862 65.4517 15.4768 65.1409 14.7156 65.7331L12.4431 67.6571C12.2369 67.8114 12.0806 67.8749 11.9401 67.9906C12.0942 68.399 12.144 68.3219 12.2256 68.6532C11.999 68.8211 11.2196 69.3656 11.1857 69.6696C11.1109 70.3072 11.2604 69.3996 11.342 70.2006C11.0792 70.3707 11.1517 70.3753 10.8503 70.5341C11.0112 71.2352 11.0497 70.8109 10.8186 71.3396C10.6215 71.7888 10.6759 71.6187 10.7846 71.8614C11.1698 71.7207 10.8639 71.9363 11.1675 71.4621C11.7136 70.6067 13.3879 69.3225 14.1038 69.0843C14.3281 68.9322 14.0948 69.0389 14.3417 68.7916C14.8175 68.3196 15.0441 68.5488 15.2231 68.0111L14.3259 68.2266C15.0328 67.3259 14.5321 67.9838 15.3182 67.5777C15.7736 67.3622 15.1778 67.7728 15.4089 67.4847C15.9934 66.7563 15.7533 67.2873 16.0931 66.7768C15.9209 66.6792 15.828 66.7632 15.4746 66.7155C15.4587 66.7132 15.4089 66.7223 15.3975 66.6928C15.3862 66.6633 15.3432 66.6815 15.3228 66.6656C15.6332 66.0961 15.964 66.121 16.1384 66.0076C16.365 65.8601 16.2698 65.8306 16.6142 65.6378C16.8113 65.5289 16.9314 65.5221 17.1127 65.3383C16.8952 65.2135 17.1127 65.2521 16.7841 65.2611C16.2132 65.2747 15.7714 65.8874 15.1325 65.969C15.2435 65.7104 15.5358 65.5538 15.794 65.3655C16.2177 65.0547 16.297 65.2248 16.4647 64.7824C16.0682 64.8278 15.9911 64.9231 15.649 64.9503H15.6468ZM12.2052 75.5235C11.8133 75.8615 11.274 76.3788 10.9228 76.751L9.71071 78.0329C9.71071 77.6063 9.91689 77.4815 10.148 77.1911C10.8979 76.2563 10.728 76.633 11.4326 75.9409C11.6615 75.7186 11.854 75.5893 12.2029 75.5257L12.2052 75.5235ZM12.3933 74.8473C11.3964 75.5825 10.7099 76.0499 9.83985 76.9915L9.1375 77.7878C9.45922 78.3528 9.35953 77.781 9.55211 78.2757C9.31422 78.6342 8.58467 79.2513 9.13296 79.4169C9.44563 79.51 9.1964 79.0584 10.046 78.3052C10.3428 78.042 10.3066 77.8786 10.5264 77.6767C10.6895 77.5269 10.9432 77.4974 11.1222 77.6131C11.0271 77.8537 9.7379 79.2263 9.39805 79.6438C9.16468 79.9297 7.96161 81.797 8.02958 81.8855C8.2856 82.2236 8.6028 81.7766 8.83616 81.518L10.3338 80.1362C10.6487 79.8367 10.7099 79.6007 11.1245 79.4918C11.0746 80.0908 9.97126 81.4068 9.61329 81.8515L8.72061 82.9519C8.11115 83.6712 8.02958 83.3898 7.79622 84.0183C7.58324 84.5946 7.53567 85.1618 8.08169 84.4199C8.77046 83.4874 9.72657 82.6479 10.4856 81.8424C10.7801 81.5293 10.6985 81.4998 11.0678 81.3773C11.2219 80.953 11.521 80.919 11.8563 80.6512C11.4643 80.5809 11.3646 80.6966 11.0814 80.8078C11.1562 80.4153 11.3556 80.3086 11.6071 79.9774L11.9107 79.6166C12.1554 79.3035 12.0647 79.7096 12.1191 79.1606C11.5686 79.1288 11.8722 79.0607 11.3828 79.2536C11.7068 78.9359 12.7376 78.2394 12.86 77.8718C11.9469 77.8718 10.1661 80.1453 9.26211 80.4833C9.4207 79.8412 11.5074 77.7742 12.2369 77.2932C12.6244 77.0391 13.0344 76.7918 13.2905 76.4378C12.7558 76.3516 12.8713 76.3902 12.5745 76.6307C11.7272 77.3182 11.4847 77.6926 11.018 77.2819C11.1721 76.8916 11.8359 76.3607 12.101 76.1588C13.0231 75.4509 13.2066 75.6392 13.3335 75.1377C12.8079 75.2444 12.6244 75.4055 12.2075 75.5257C12.5428 74.7838 13.2202 75.0629 13.4423 74.4049C12.8645 74.634 12.9189 74.5433 12.3933 74.8519V74.8473ZM15.7487 48.3259C15.615 48.5324 15.5539 48.5301 15.3318 48.7003C15.1596 48.8319 15.0894 48.9113 14.9195 49.0519C14.6725 49.2539 14.2375 49.5693 14.0744 49.8098C14.4369 49.719 15.4723 48.6549 16.2087 48.3735C16.3605 48.0627 16.7456 48.0037 16.9722 47.6792C16.689 47.7224 16.5123 47.829 16.3061 47.9946C16.118 48.1466 15.9753 48.276 15.751 48.3259H15.7487ZM15.6921 47.4887C15.5788 47.6656 15.5244 47.6634 15.3364 47.8063C15.1914 47.9175 15.1302 47.9855 14.9852 48.1058C14.7745 48.2782 14.4052 48.546 14.267 48.7502C14.5751 48.673 15.4565 47.7677 16.0818 47.5295C16.2132 47.264 16.5372 47.2164 16.7298 46.9373C16.4873 46.9759 16.3378 47.0644 16.1633 47.205C16.0047 47.3344 15.8824 47.4455 15.6921 47.4864V47.4887ZM3.54808 116.382C3.78598 116.568 4.0556 116.752 4.35013 116.931C4.38185 116.893 4.41131 116.836 4.42037 116.759C4.44529 116.584 4.48154 116.659 4.20286 116.4L3.75426 116.074L4.43396 114.581C3.89926 114.903 3.69082 115.436 3.38043 115.999C3.43707 116.137 3.48465 116.264 3.54808 116.385V116.382ZM23.4407 120.5C22.8335 120.657 21.9657 120.494 21.3563 120.405C21.499 120.26 21.7142 120.248 21.934 120.258C22.1855 120.269 22.3078 120.276 22.5185 120.278L23.7669 120.362L23.4384 120.503L23.4407 120.5ZM39.493 119.003C39.7467 118.381 39.2755 119.282 39.5655 118.839L39.783 118.624C39.9846 118.533 40.0911 118.569 40.3177 118.572C40.252 118.833 40.4105 119.01 39.493 119.001V119.003ZM23.9278 118.928C24.0955 118.481 24.3968 118.37 24.8567 118.281C24.7253 118.524 24.7072 118.538 24.4738 118.701C24.2427 118.862 24.2314 118.869 23.9301 118.928H23.9278ZM34.3182 118.678C34.5085 118.413 34.6218 118.331 35.0001 118.245C34.8121 118.624 34.8143 118.672 34.3182 118.678ZM30.104 119.155C30.2309 118.744 30.3396 118.728 30.7384 118.567L31.4136 118.218C31.4294 118.177 31.4793 118.195 31.511 118.186C31.3977 118.567 31.4679 118.431 30.6093 119.007C30.5911 119.021 30.5662 119.041 30.5458 119.053C30.2875 119.198 30.4778 119.144 30.1017 119.153L30.104 119.155ZM26.5809 118.869C26.7916 118.42 27.1586 118.374 27.5755 118.252C26.8754 118.88 27.7069 118.56 26.5809 118.869ZM15.3658 118.47C15.7011 118 15.4768 118.234 15.7374 118.064C16.0047 117.891 16.1815 117.848 16.4624 117.791C16.3219 118.252 15.6989 118.52 15.2163 118.672L15.3681 118.47H15.3658ZM39.1962 118.111C39.067 118.513 38.9922 118.422 38.7136 118.628C38.41 118.855 38.5187 118.942 38.1675 119.089C38.0973 118.973 38.12 119.066 38.0678 118.858C38.0678 118.853 38.0475 118.551 38.0452 118.533L39.1984 118.113L39.1962 118.111ZM33.9942 118.49C33.9511 118.377 33.7132 118.672 34.0055 118.252C34.3204 117.8 34.5561 117.964 34.6648 118.25C34.3635 118.32 34.1754 118.495 33.9942 118.49ZM31.8962 118.631C31.9755 118.368 31.9347 118.397 32.1454 118.227L32.5713 117.986C33.2669 118.254 32.4875 118.082 33.5161 118.159C33.1581 118.724 31.8803 119.547 31.3411 119.182C31.6152 118.992 31.7761 118.88 32.0072 118.762C32.3833 118.569 32.3787 118.658 32.6461 118.347C32.2904 118.399 32.168 118.467 31.8962 118.631ZM37.2839 118.005C37.1525 118.481 36.9509 118.424 36.5068 118.597C35.7659 118.885 35.8316 118.218 35.6662 118.29L36.3255 118.068C36.3777 118.175 36.355 118.138 36.3822 118.2L36.4275 118.302L37.2839 118.005ZM38.0814 118.313C38.1607 117.866 38.0769 118.061 38.4847 117.921C38.8993 117.775 38.6615 117.741 38.9786 117.889C38.8518 117.984 39.0421 117.884 38.7815 118.025C38.6479 118.095 38.6932 118.066 38.555 118.122C38.3714 118.197 38.2514 118.234 38.0814 118.313ZM21.8502 118.338C21.9181 117.712 22.5095 117.63 22.8765 117.403C22.8879 117.396 22.9128 117.381 22.9218 117.371C22.9966 117.312 23.2481 116.856 23.6219 117.079C24.1793 117.412 22.7995 118.39 21.8502 118.338ZM18.7009 117.589C18.9592 117.335 19.2922 117.111 19.6797 117.065C19.5211 117.537 19.2152 117.664 18.7009 117.589ZM34.8574 117.769L34.7781 117.358L36.1352 117.276C35.7863 117.948 35.2607 117.678 34.8574 117.769ZM33.5909 117.231L34.146 117.24C34.0372 117.48 33.6906 117.655 33.4595 117.784L33.5886 117.231H33.5909ZM20.8714 117.635C21.7573 117.528 22.1923 116.997 22.2127 116.986C22.6545 116.766 22.5503 117.018 22.5616 117.024C22.4325 117.299 22.5616 117.097 22.3373 117.256C21.7618 117.669 22.2149 117.337 21.7595 117.787C21.5217 118.02 21.1659 118.204 20.7898 118.166C20.7604 117.871 20.7898 117.825 20.8691 117.632L20.8714 117.635ZM13.2202 117.292C13.9022 117.326 13.7527 117.428 13.9679 117.474C14.5321 117.589 14.9195 116.8 15.3636 117.129C14.9875 117.306 15.0328 117.122 14.7768 117.403C14.7609 117.421 14.7473 117.453 14.7337 117.471C14.7178 117.489 14.7042 117.521 14.6907 117.539C14.5162 117.753 14.6589 117.637 14.3848 117.787C14.2715 117.848 14.1514 117.896 14.02 117.973C13.8048 117.839 13.8161 117.782 13.7006 117.626C12.9144 118.077 13.0843 118.243 12.3955 118.127C12.6855 117.721 12.9733 117.644 13.2202 117.292ZM20.8714 117.635C20.4387 117.771 20.3005 117.88 19.9787 118.088L19.7771 117.741C20.4296 117.215 21.2452 116.811 21.3563 116.673L21.6961 116.9C21.3925 117.281 21.1727 117.31 20.8737 117.635H20.8714ZM16.4851 116.974C16.0251 116.863 16.4624 116.757 16.4941 116.72C16.7411 117.136 16.5825 116.82 16.4851 116.974ZM17.849 116.507C18.2183 116.382 18.2092 116.341 18.4857 116.618C18.3135 116.775 18.3452 116.922 17.6972 116.938C17.6111 116.62 17.7357 116.841 17.5273 116.593C17.7131 116.516 17.593 116.589 17.7085 116.555C17.7244 116.55 17.7561 116.541 17.7742 116.537C17.7946 116.53 17.8263 116.516 17.849 116.509V116.507ZM4.09185 113.723C4.30482 113.328 4.14169 113.467 4.47928 113.251C4.41357 113.555 4.4181 113.671 4.09185 113.723ZM4.89389 116.698C4.95507 116.232 5.10007 115.992 5.30625 115.636C5.81376 114.762 5.83415 114.878 6.12642 114.442L6.46853 113.886C6.75627 113.519 6.85823 113.537 7.223 113.319C7.13917 113.768 6.93526 113.875 6.63619 114.172C6.22158 114.583 5.83868 115.472 5.52828 115.985C5.27906 116.396 5.33343 116.586 4.89616 116.7L4.89389 116.698ZM4.09185 113.723C3.53223 113.961 3.10401 114.47 2.97034 115.048L3.40761 115.175C3.2966 115.527 3.38722 115.388 3.14933 115.638C2.30876 114.733 2.42884 113.97 3.38269 113.251C3.95137 112.822 3.6727 112.825 4.04653 112.695C4.21872 113.092 4.01028 113.197 3.77692 113.625L4.09185 113.721V113.723ZM8.17685 112.412C8.21537 112.194 8.56881 111.47 9.0514 111.366C8.78632 111.765 8.57334 112.285 8.17685 112.412ZM6.89901 112.53C6.97605 112.035 6.92847 112.353 7.15277 111.962C7.24113 111.808 7.29777 111.686 7.40199 111.54C7.61043 111.25 7.81661 111.089 8.04318 110.935C7.99333 111.402 7.55153 111.958 7.223 112.273C6.95792 112.53 7.19128 112.387 6.89901 112.53ZM9.42523 110.585C9.43203 110.361 9.40938 110.535 9.54532 110.556C9.81946 110.596 9.53399 110.304 9.59516 110.594C9.63368 110.776 9.41844 110.819 9.42523 110.585ZM8.80897 112.346C8.95624 111.897 9.30969 111.581 9.63594 111.275L9.84665 111.041C10.1978 110.526 10.5445 109.8 11.2355 109.743C11.0135 110.279 10.4538 110.805 10.1299 111.338C9.80134 111.876 9.47961 112.573 8.80897 112.348V112.346ZM18.1367 54.8649L18.4381 54.8241C18.4494 54.7969 18.4811 54.8558 18.5038 54.8717C18.3271 54.9761 18.352 54.992 18.1367 54.8649ZM22.5367 52.6028C21.8887 52.7798 21.2951 52.5847 20.8012 52.5869C21.1161 52.2988 21.0073 52.5461 20.9598 52.301C20.8827 51.8926 20.8374 52.2715 20.7332 52.2443L20.5361 52.1173C20.2959 51.8314 20.4613 52.2625 20.3412 51.6952C21.8388 52.0719 21.3449 51.752 22.4868 51.7361C22.8561 52.4009 23.0623 52.4599 22.5367 52.6051V52.6028ZM24.0252 51.5455C23.8961 51.9017 24.1113 51.5614 23.7465 51.7134C23.9301 51.9471 23.8598 51.7747 23.9165 52.1082C23.4928 52.0265 23.7783 52.3646 23.3025 51.9131C23.3478 52.2784 23.2979 52.2262 22.9989 52.4213C22.9513 52.1309 22.9286 52.149 22.7995 51.9562C23.0147 51.9085 23.1665 51.7996 23.3659 51.6408C23.6695 51.4003 23.3229 51.5205 23.8644 51.3141L24.023 51.5455H24.0252ZM20.1441 51.6748C19.7386 51.6521 19.8111 51.7089 19.7544 51.2596C20.0286 51.4094 20.0422 51.3209 20.1441 51.6748ZM24.0252 51.5455L23.9255 51.1983C24.2835 51.0736 24.0411 51.1257 24.4172 50.9737C24.4512 51.3095 24.6256 51.7565 24.0252 51.5455ZM25.6384 50.3475C25.5047 50.681 25.6293 50.5177 25.3529 50.7536L25.0629 50.4655L25.1739 50.4201C25.6724 50.2386 25.217 50.1932 25.6384 50.3475ZM18.5582 49.39C18.565 49.3424 18.5831 49.3333 18.5967 49.3038C19.2243 49.9845 18.8187 50.0072 19.1699 50.613C19.6933 51.516 19.3557 51.0804 19.4961 51.9426C19.0951 51.5773 18.8278 51.4275 18.565 50.858C18.4721 50.6561 18.3746 50.3293 18.3746 50.0979C18.3746 49.7667 18.4992 49.5193 18.5151 49.4762C18.5219 49.4558 18.5468 49.4377 18.5536 49.39H18.5582ZM17.6995 49.5988C17.4865 49.5443 17.6292 49.6283 17.5273 49.3968C17.3845 49.0746 17.2463 49.0724 17.2622 49.027C17.2667 49.0134 17.2871 48.9839 17.2939 48.9703L17.3438 48.8591C17.2033 48.5074 18.1956 46.8647 18.429 46.9033C18.5491 47.0984 17.7357 48.9135 17.7017 49.5988H17.6995ZM35.1293 52.1286C33.933 51.5546 33.9715 51.8654 32.9406 51.5341C32.1522 51.28 32.3289 50.4859 30.7044 50.4541C30.6886 50.4337 30.6682 50.4042 30.6568 50.3929L30.5617 50.2681C30.1629 49.753 30.2558 49.8824 29.8752 49.7462C28.7967 49.356 29.311 49.4082 28.9055 49.1722C28.3776 48.8636 28.4116 49.331 28.0219 48.2828C28.0105 48.2533 27.9743 48.1693 27.9698 48.1398C27.9516 48.0241 27.938 48.0672 27.9833 47.9288C28.0332 47.7745 28.1737 47.6384 28.2688 47.5182L28.3821 47.6316C28.7627 47.9969 28.6562 47.8812 29.2023 48.1398C29.5603 48.31 29.891 48.5006 30.2014 48.6866C31.5722 49.5057 33.4957 50.436 35.0817 51.3231C36.5816 52.1626 35.9404 51.7565 37.0709 52.3169C38.4258 52.9885 40.6575 54.3408 41.9897 54.7969C42.5947 55.0033 43.5825 55.4911 43.8838 55.9109L43.7162 56.3193C42.5856 56.1514 43.109 55.8655 42.3228 55.659C42.0079 55.5751 41.8085 55.5932 41.5457 55.439L40.3448 54.7583C39.7195 54.4837 38.5527 54.039 37.8617 54.0163C37.5218 53.1088 37.2771 53.8099 37.1389 53.0089C36.4139 52.9999 36.568 53.1383 36.1987 52.714C35.707 52.1513 35.6821 52.3986 35.1247 52.1309L35.1293 52.1286ZM22.591 48.0082C22.2376 47.112 22.224 46.7694 22.6137 46.7989C23.1144 46.8375 22.9309 46.9418 22.9921 46.9895C22.838 47.0848 23.2277 47.1097 22.6228 47.0961C22.625 47.6384 22.5616 47.7882 22.9128 48.074L22.591 48.0105V48.0082ZM19.6774 46.715C19.7612 47.2141 19.768 46.808 19.5256 47.3344C19.3829 47.6429 19.3761 47.6861 19.2333 47.947C19.0204 48.3372 19.0543 48.2533 18.9501 48.6889C18.8436 49.1404 18.864 48.9635 18.5989 49.2675C18.395 48.8523 18.4675 48.968 18.6465 48.4756C18.7598 48.1648 18.7462 48.0196 18.8527 47.7791C19.0543 47.3208 19.3942 47.0099 19.6751 46.7172L19.6774 46.715ZM21.6395 46.9918L21.3472 46.6265C21.5466 46.4971 21.3336 46.5924 21.5942 46.5539C21.7663 46.5289 21.5896 46.6015 21.7799 46.5357L21.712 46.9033C21.712 46.8897 21.6803 46.9464 21.6395 46.994V46.9918ZM19.6774 46.715C19.7816 46.4472 19.5868 46.5448 19.8745 46.5266C19.8451 46.8057 19.9583 46.6446 19.6774 46.715ZM23.3387 46.4359C23.0714 46.1091 23.0986 46.0865 23.3704 45.6803C23.554 46.007 23.4248 46.1318 23.3387 46.4359ZM25.4775 46.2249C25.4888 46.2044 25.5206 46.2498 25.5387 46.2634C25.3053 46.3406 25.652 46.2203 25.2306 46.2589C24.825 46.2952 24.2767 46.7876 24.2971 45.9526C24.3107 45.3786 24.5916 45.8051 24.757 45.9481C25.1241 46.2657 24.8952 46.0615 25.405 46.1954C25.4231 46.1999 25.4617 46.2498 25.4752 46.2271L25.4775 46.2249ZM20.0172 46.0728C20.0105 46.0502 20.0037 46.0161 20.0037 46.0048C20.0195 45.6644 20.1668 45.6191 20.6267 45.2901C21.0912 44.9565 21.0164 44.8771 21.6259 44.9724C21.9181 45.6236 21.7981 45.7688 21.4106 46.4086C21.2611 46.2839 21.3427 46.3565 21.2158 46.2249C21.1795 46.1886 21.0798 46.0728 21.0549 46.0456C20.9167 45.8777 20.9348 45.9072 20.8261 45.728C20.7921 45.7643 20.706 45.8323 20.6358 45.8755C20.518 45.9458 20.5587 45.9231 20.4024 45.9866C20.3798 45.9957 20.3458 46.007 20.3254 46.0161C19.6661 46.2498 20.5814 46.2067 20.0172 46.0751V46.0728ZM19.0861 44.9066C19.6094 45.1403 19.188 44.8045 19.6389 45.045C19.3625 45.5964 19.4599 44.9906 19.3942 45.5918C19.3829 45.5691 19.3738 45.5351 19.367 45.5238C19.3602 45.5124 19.3443 45.4739 19.333 45.458C19.0317 45.0042 18.9161 45.3241 19.0861 44.9066ZM37.4425 45.4489C37.2817 45.2265 37.2635 45.3332 37.506 44.9202C38.1834 43.7654 38.0361 43.543 38.521 43.5702L37.8707 44.8431C37.6849 45.2356 37.805 45.1766 37.4403 45.4489H37.4425ZM19.0861 44.9066C18.7235 44.7591 18.8867 44.8771 18.6714 44.6797C19.2673 44.2373 19.3919 43.3706 20.0648 43.0847C19.9266 43.4341 19.7431 43.7336 19.5301 44.0104C19.1472 44.5028 19.3307 44.5186 19.0861 44.9066ZM41.156 44.2327C41.3281 43.5521 41.7496 43.2208 42.2435 42.8805C42.1619 43.2231 42.0192 43.5022 41.8311 43.7563C41.6997 43.9333 41.7156 43.9128 41.557 44.0308C41.5366 44.0444 41.5117 44.0671 41.4935 44.0807L41.1582 44.2327H41.156ZM27.7794 42.6536C27.784 42.3291 27.9108 42.4902 27.9516 42.6717C28.0219 42.9917 27.7794 42.7716 27.7794 42.6536ZM13.6915 44.4869C13.8093 44.0331 14.9331 42.6037 15.7578 42.3064C16.0818 42.1885 15.8439 42.4857 16.041 42.1544C16.075 42.5946 15.9322 42.6195 15.683 42.9236C15.2752 43.4205 14.5932 44.5527 13.9996 44.7365L13.6915 44.4891V44.4869ZM40.1772 44.986C40.073 44.8204 39.9098 44.657 40.2406 44.142L41.1922 42.8487C41.3984 42.5537 41.4641 42.5061 41.7541 42.3632C41.6544 42.7262 40.3471 44.8408 40.1772 44.9883V44.986ZM13.1545 44.0399C13.6734 43.2117 13.5691 43.5407 14.1174 42.7557C14.3281 42.4539 14.9172 41.8345 15.2276 41.7233C15.171 42.193 14.6612 42.7103 14.3191 43.0869C14.0042 43.4364 13.585 43.8992 13.1523 44.0399H13.1545ZM16.3469 41.6371L16.5485 41.889L16.2041 42.1068C16.2698 41.6938 16.1543 42.109 16.3469 41.6371ZM23.384 41.8958C23.5426 41.4737 23.6967 41.0631 24.0932 40.9201C24.0841 41.2741 24.0864 41.5373 24.023 41.8844C24.0139 41.9434 23.9391 42.3541 23.9323 42.3722C23.8032 42.7262 23.9776 42.5038 23.6944 42.6309C23.7307 42.193 23.9867 41.6575 23.384 41.898V41.8958ZM28.0423 41.2196C28.0581 41.0131 28.0649 41.1788 28.1737 41.1879C28.5928 41.2287 28.1737 40.961 28.2258 41.2219C28.2643 41.4079 28.0241 41.4216 28.04 41.2196H28.0423ZM25.6384 50.3475C25.6837 50.1229 25.7245 50.0503 25.8106 49.8597L26.0213 49.4014C26.1844 49.0928 26.2229 49.0247 26.4314 48.8432C26.3566 48.6935 26.2728 48.5029 26.1799 48.3781C26.3589 48.3282 26.0779 48.5528 26.42 48.3917C26.5582 48.3259 26.377 48.4688 26.5175 48.3259C26.8143 48.0241 26.5514 48.2896 26.6058 48.124C26.7236 47.7519 26.4382 48.2714 26.6534 48.0037C26.7644 47.8676 26.701 47.9946 26.7803 47.6407L26.9185 47.3729C26.9185 47.3729 26.9502 47.3412 26.957 47.3321C26.9661 47.3208 26.9865 47.2981 26.9955 47.2867C27.0771 47.1687 27.972 44.4551 28.0785 43.8833C28.1782 43.3343 27.7636 43.7086 27.9698 43.2617L28.1351 43.0302C28.8058 42.0977 28.5724 41.3603 28.5883 41.2105C28.62 40.9224 28.6608 41.0812 28.842 40.7908C28.6925 40.3098 28.8148 40.784 28.6653 40.4255C28.5611 40.1759 28.5905 40.2667 28.5407 40.0103L29.089 39.9127L29.1094 39.4045C29.1094 39.3931 29.1207 39.3591 29.123 39.3478C29.1411 39.2411 29.2363 39.1209 29.0867 39.1436L28.7605 39.1594C28.4025 39.0868 28.7537 39.1889 28.4637 39.0437C28.2394 38.9325 28.3504 38.9802 28.2598 38.9189C28.7061 38.6603 29.4855 38.3948 29.7256 39.0936C29.8321 39.3999 29.6645 40.4686 29.6192 40.9201C29.4764 42.4131 29.0573 42.7784 28.6041 44.4438C28.3527 45.3649 28.1827 45.3332 28.0808 45.6054C27.9788 45.8709 28.0468 45.9254 28.0287 46.0751C27.9969 46.3065 26.6421 49.213 26.1753 49.7962C25.9329 50.0979 25.8446 50.1274 25.6361 50.3475H25.6384ZM11.6252 35.1071C11.3556 35.0028 11.4734 35.1775 11.4054 34.8757C11.743 34.9892 11.5346 34.7691 11.6252 35.1071ZM25.2736 32.634C25.3053 32.693 25.5863 32.4843 25.2623 32.9607C25.1399 32.8473 25.2124 32.9086 25.2238 32.7044C25.2238 32.6658 25.26 32.659 25.2759 32.634H25.2736ZM25.5455 29.6095C25.7449 29.1807 25.5613 29.2647 25.9578 28.8971C25.9578 29.7162 25.8355 29.6867 25.5455 29.6095ZM26.3996 25.9089C26.2592 25.8068 25.8627 25.6707 26.5605 25.2577C26.5243 25.6435 26.5605 25.6707 26.3996 25.9089ZM26.7146 23.935C26.4563 23.5787 26.5718 23.6831 26.4064 23.2838C26.5175 23.1318 26.6013 23.1113 26.8188 23.0614C26.846 24.4273 26.8641 24.2526 26.565 24.3842C26.4472 24.18 26.3135 24.6724 26.5288 24.1165C26.6693 23.7557 26.5243 24.1097 26.7168 23.935H26.7146ZM38.8676 23.9077C38.9447 23.5084 39.178 23.4698 39.5496 23.2815C39.3706 23.7466 39.2528 23.6967 38.8676 23.9077ZM41.8787 25.319C41.4142 25.2078 41.591 25.2033 41.0767 25.3077C41.1446 24.838 41.165 24.9469 41.2964 24.534C41.2806 24.5067 41.2534 24.4772 41.2398 24.4591L41.1378 24.3093C41.0223 24.087 41.097 24.4614 41.0495 24.0688C40.9928 23.606 41.1288 23.935 41.1106 23.5447C41.0903 23.1045 40.8501 23.3314 41.2058 22.7687C41.6023 22.9797 41.5524 22.7665 41.7246 23.2225C41.8855 23.6468 41.9082 24.3615 41.8198 24.804C41.8175 24.8176 41.8039 24.8471 41.8017 24.8607C41.8017 24.872 41.7881 24.9015 41.7881 24.9129C41.7677 25.1057 41.8085 25.0104 41.8787 25.319ZM27.2357 19.7942C27.1972 19.894 27.0567 19.8986 26.9729 19.919C27.0952 19.6127 26.9661 19.8373 27.0182 19.5015C27.2176 19.6149 27.3535 19.4856 27.2334 19.7942H27.2357ZM20.0603 43.0824C20.2076 42.2452 20.4455 43.1868 21.0232 41.3535C21.2611 40.5979 21.9453 39.7357 20.8034 40.1056C20.8895 39.7221 21.0164 39.4703 21.0595 39.0936C20.7762 38.9053 20.4659 39.0369 20.4387 39.0415C20.5248 38.3903 21.0323 38.2541 20.8623 37.7414C20.5497 36.7839 20.919 37.6506 20.8805 36.8996C20.8601 36.5116 20.7808 36.8043 20.7921 36.4662C20.8057 36.0578 20.9643 36.0578 20.953 35.4566C20.3639 35.4452 20.9213 35.359 20.4092 35.6585C20.5157 35.0663 20.7966 35.1412 20.8941 34.4401C20.7037 34.2359 20.8306 34.3629 20.6652 34.279L20.5021 34.2223C20.4976 34.2018 20.4659 34.2177 20.45 34.2086C20.6041 33.7344 20.7015 33.8184 20.8329 33.5575C21.073 33.0787 20.8465 33.2534 20.8873 32.8927C20.9416 32.4117 21.0209 32.7338 21.1478 32.3254C21.2248 32.0759 21.073 32.0055 21.064 31.8558C21.0277 31.3044 21.6236 31.5654 21.4786 30.6011L21.4605 30.4604C21.4695 29.158 21.746 30.6192 21.2906 29.6867C21.4537 29.5732 21.823 29.1694 21.8479 28.8994C21.9249 28.1166 21.3834 28.9742 21.8547 28.1143C22.3373 27.2362 21.9748 27.7876 22.0088 27.2839C22.036 26.9186 22.2784 26.9027 22.3962 26.4988C22.3735 26.483 22.3373 26.4739 22.3192 26.4648C22.301 26.458 22.2625 26.4399 22.2421 26.4331L21.8479 26.2674C22.2195 25.6934 22.002 25.8182 21.8887 25.2351C21.7754 24.6383 21.9272 24.99 21.8932 24.6066C21.857 24.1914 21.6916 24.3593 21.6621 24.2095C21.6553 24.1732 21.6168 24.1777 21.5964 24.1596C21.1025 24.509 21.4718 24.6179 20.6448 25.2146C20.2212 25.5209 19.4599 27.1296 19.1563 27.656C19.4078 28.2368 19.5505 27.5834 19.4304 28.289C19.3421 28.8109 19.2469 28.2505 19.3285 28.9606C19.3919 29.5188 19.0725 29.8024 18.8618 30.2335C18.6782 30.6079 18.7009 30.5307 18.8708 30.8892C19.3421 31.8762 18.8663 31.6175 18.6375 32.7384C18.8912 33.0901 18.6488 32.8541 19.0679 33.0538C18.9365 34.1134 19.12 33.7095 19.4893 33.8615C19.3919 34.2813 19.2605 35.4838 19.4418 35.8241C19.9266 36.7476 19.111 36.6387 19.4712 37.1719L19.725 37.367C19.7363 37.3466 19.7771 37.3919 19.7997 37.4078C19.6366 37.8866 19.589 37.6914 19.58 38.2428C19.555 40.2485 20.1668 40.0625 20.2348 40.2939C20.203 40.6569 20.0784 40.7477 20.1373 41.0358C20.2121 41.3875 20.3299 41.2514 20.4183 41.5146C20.2687 41.8027 20.3118 41.7301 20.2619 42.1521C19.7929 42.429 19.8745 42.1204 19.5936 42.7058C19.3104 43.298 18.4562 44.4801 17.9827 44.7864C18.0393 44.4392 19.4418 42.4562 19.8541 41.8345C19.3965 41.9048 19.2356 42.2066 18.9954 42.5356L18.3746 43.3706C17.3823 44.7523 17.5726 44.8794 16.9382 44.8749C17.0877 44.1443 17.3347 44.2554 17.7334 43.7245L18.1979 43.1822C18.4154 42.944 18.4245 42.9349 18.5174 42.5855C17.8671 42.8396 17.6292 43.248 17.3098 43.7313C16.5394 44.8975 16.5462 44.5322 16.1158 44.8839C15.5765 45.3241 16.544 44.8295 15.2072 45.3808C15.2435 45.07 15.2843 45.1199 15.4565 44.9883C15.7804 44.7365 15.5561 45.0609 15.6989 44.7296C15.8552 44.3598 15.5471 44.7659 15.9141 44.328C16.2562 43.9219 17.2962 42.9009 17.3981 42.5628C16.6029 42.7602 16.3378 43.4999 15.7329 44.1284C15.2729 44.6071 15.4202 44.5504 14.9557 44.775C14.5366 44.977 15.2367 45.1358 14.6544 45.1403C14.2239 45.1426 14.5774 45.1585 14.4256 45.0518C14.5479 44.7047 14.489 44.8522 14.7428 44.5686C15.2186 44.0331 15.0622 44.0331 15.6717 43.3751L16.9654 41.9116C16.8566 41.8209 16.9926 41.9094 16.7728 41.7642C16.3582 41.4919 16.6844 41.5214 16.3423 41.6303C16.0772 41.4125 16.2358 41.1924 16.0002 40.4368L15.9028 40.1305C15.896 40.1124 15.8779 40.0852 15.8688 40.067C15.7283 39.7357 15.5833 39.2593 15.674 38.8917C15.9028 37.9819 15.6513 38.6739 15.6173 38.1021C15.5992 37.7618 15.7691 37.814 15.6649 37.2672C15.4904 36.3482 16.0319 36.5139 15.3296 35.9943C15.6377 35.3567 15.606 35.4929 15.2525 34.996C15.2797 34.971 15.3364 34.9029 15.3522 34.8802C15.6989 34.3584 15.5448 34.0317 15.5063 33.7322C15.4157 33.0651 15.8983 33.4508 15.3318 32.5614C15.5199 32.2415 15.615 32.4003 15.5403 31.9465C15.504 31.7196 15.3704 31.579 15.2616 31.4542C15.4247 31.1138 15.7238 30.7599 15.6966 30.381C15.6536 29.7979 15.5222 30.5806 15.7963 29.3872C15.9368 28.7837 15.5879 29.1535 15.8665 28.4206C16.0501 27.9373 16.0183 27.7853 15.7578 27.4813C15.9685 27.3701 15.9436 27.5017 16.0206 27.2884C16.1951 26.8052 16.3287 26.1585 16.3831 25.7025C16.4919 24.8153 16.8884 24.3683 16.8 24.1006C16.732 23.9009 16.6799 23.9282 16.5349 23.733C16.9745 23.1635 16.7434 23.8374 16.8294 23.0955C16.9699 21.8748 16.6097 22.0926 15.5199 22.8913L14.8923 23.2611C15.3137 23.4721 15.325 23.2906 15.3092 23.9304C14.9286 24.1074 15.0849 24.1029 14.7564 23.9191C14.8538 24.1709 14.847 24.1006 14.881 24.2163L14.9082 24.3593C14.9965 24.754 14.8357 24.4568 15.1664 24.8108L14.8787 25.0898C14.8696 25.0694 14.8243 25.1171 14.8017 25.1352C15.0078 25.5527 15.1279 25.4256 14.9059 25.893C14.3236 27.1228 14.9603 26.6826 14.8946 27.3338C14.8946 27.3565 14.8696 27.6583 14.8606 27.7513C14.8289 28.0984 14.8946 27.7921 14.7768 28.0939C14.6929 28.3117 14.702 28.2391 14.6952 28.3911L14.6861 28.6725C14.6657 28.8926 14.7156 28.7927 14.8923 29.3395C14.1356 30.0361 14.6703 29.8909 14.5706 30.6238C14.4369 31.6175 14.4437 30.8915 14.5457 31.3838C14.6317 31.8104 14.3078 32.1598 14.4142 32.5591L14.4845 32.7565C14.4935 32.7815 14.5162 32.8496 14.523 32.8768C14.6182 33.2353 14.523 33.0969 14.5411 33.351C14.5864 33.9318 14.9104 33.3578 14.6 34.0816C14.4505 34.431 14.5117 34.1746 14.5819 34.6239C14.6589 35.1162 14.5366 34.4991 14.5615 35.0391C14.5615 35.0527 14.5683 35.0845 14.5706 35.0981C14.5706 35.1117 14.5796 35.1457 14.5819 35.1616L14.6182 36.11C14.711 37.3239 14.8357 38.2791 14.8538 39.5247C14.8674 40.3529 15.0804 40.7681 15.1189 41.299C14.634 41.417 14.2647 42.0115 13.9634 42.3677C13.6439 42.7443 12.9302 43.6111 12.4046 43.7472C10.9002 43.4749 11.5844 40.185 11.5097 38.8282L11.4666 38.5378C11.3941 37.8367 11.6909 38.2632 11.8336 38.1997C11.7566 37.8321 11.6048 37.6756 11.3125 37.519C11.5414 37.2059 11.4961 37.2604 11.5572 36.9245L11.7294 35.3635C11.7158 35.2546 11.7022 35.2773 11.6139 35.0981C11.7249 34.9551 11.6818 35.1366 11.6728 34.8893L11.6433 34.7532C11.6229 34.6942 11.4825 34.5376 11.4145 34.4287C11.4304 34.4219 11.4598 34.4242 11.4666 34.4242C12.2483 34.397 11.2989 34.5717 11.7408 34.4355C11.4757 33.9318 11.3329 34.1633 11.845 33.925C11.6501 33.7776 11.6796 33.807 11.4372 33.6936L11.5051 32.5478C11.6252 32.5001 11.5776 32.5319 11.6501 32.5092L11.8404 32.4434C11.8291 32.4185 11.8042 32.3844 11.7951 32.3708C11.7883 32.3572 11.7634 32.3186 11.7543 32.3028C11.6297 32.0622 11.6864 32.2869 11.7974 31.368C11.8495 30.9346 11.8903 31.2908 11.8563 30.8348C11.8563 30.8211 11.8495 30.7871 11.8495 30.7712C11.8495 30.7553 11.8472 30.7213 11.845 30.7032C11.5708 29.8069 12.5587 30.052 12.391 28.8744C12.3751 28.8699 12.348 28.8699 12.3412 28.8676C12.3344 28.8676 12.2981 28.8585 12.289 28.8563L12.0647 28.7224C12.3321 28.3526 11.9492 27.6673 12.1282 27.2181C12.2754 26.8483 12.0965 27.0547 12.4454 26.88C12.3298 26.4671 12.2913 26.6962 12.3253 26.272C12.4159 25.1239 11.9718 22.231 12.4431 21.6887C12.7966 21.4573 12.5609 20.7358 12.8396 20.6496C13.2452 20.5202 13.1772 20.2729 13.6303 20.0075L14.0857 19.7987C14.7632 19.5242 14.6952 19.7375 15.137 19.8827C15.4089 19.2746 15.7419 19.3359 16.4012 19.2701L17.8082 19.1317C18.0642 19.1112 17.7063 19.1362 17.9487 19.1362H18.0438C18.0642 19.1362 18.2251 19.1203 18.2659 19.118L18.7711 19.0999C20.8895 19.1634 22.5163 19.2156 25.0788 19.2428L23.9572 25.7478C23.7737 26.5306 23.4293 28.3344 23.3999 29.0491C23.3682 29.7979 23.0714 33.6959 22.9422 34.3107C22.8131 34.9234 22.6953 35.2251 22.6703 35.8241C22.591 37.6846 22.0654 41.0472 22.0269 42.5288C22.0156 42.9576 21.9499 44.0717 21.8978 44.1465C21.6825 44.4619 21.934 44.1125 20.638 44.3825C20.7355 44.0717 21.0844 43.7222 21.3132 43.3774C21.4446 43.18 21.5443 43.0325 21.6848 42.8328C22.181 42.1408 21.5738 42.3382 21.1999 42.7897C20.7423 43.3411 21.0685 43.3728 20.0354 44.437C19.6955 44.7864 19.8201 44.7365 19.5573 44.775C19.7816 44.0013 20.9258 42.8964 21.0391 42.5106C20.4998 42.5855 20.3254 42.8147 20.049 43.0688L20.0603 43.0824ZM16.6301 18.0993C16.9745 18.2173 15.3568 17.9359 15.427 18.2445C15.3114 18.1651 16.8952 18.6098 16.7819 18.485C16.5712 18.2513 16.6641 18.544 16.6301 18.1016V18.0993ZM31.9233 18.1084C32.1884 17.7726 32.594 17.2825 33.0086 17.1849C32.8953 17.5706 32.5963 17.7499 32.159 18.0085C32.0049 18.0993 32.1159 18.0675 31.9233 18.1061V18.1084ZM23.8054 15.1293C24.2359 15.1384 24.1702 14.6573 24.7797 14.7549C25.2215 14.8252 24.859 14.9183 25.3076 14.8638C25.5138 14.8389 25.5024 14.7731 25.8264 14.7254L25.5251 16.9353C25.183 16.8105 25.3642 17.0488 25.0131 16.1503C24.5735 16.1707 24.3968 16.3976 23.2866 16.5133C22.9807 16.5451 21.7142 16.4044 21.4333 16.5156C20.7966 16.7674 20.6584 16.8968 19.9221 16.6835C19.8994 16.6767 19.8677 16.6653 19.8451 16.6585C19.4667 16.5542 18.2953 16.2456 18.0665 16.2887C17.6745 16.359 15.7465 16.5723 15.2616 16.62C14.5479 16.6903 14.9875 16.4475 14.3417 16.9285C14.3825 16.6381 14.3871 16.5837 14.5819 16.3795C15.1551 15.7805 16.3808 16.7266 17.5069 15.1225C18.3882 15.701 18.2976 15.2336 19 15.0884C19.478 14.9909 19.3307 15.2064 19.9334 15.1588C20.45 15.1179 20.348 14.9205 21.4378 15.1588C21.9725 15.2768 22.3939 15.4923 23.0986 15.1656C23.8054 14.8389 23.3546 15.1179 23.8122 15.127L23.8054 15.1293ZM27.9698 13.7702C27.9765 13.5864 27.9108 13.7203 28.0853 13.7362C28.4319 13.7679 28.0558 13.4299 28.1329 13.7702C28.2144 14.1355 27.9675 13.836 27.9698 13.7702ZM19.12 13.3822C19.1993 13.0305 19.3987 12.8354 19.589 12.6198C19.8473 12.8014 20.1351 12.9715 20.2257 13.2937C19.9878 13.4026 19.5868 13.6136 19.3217 13.5251C19.0747 13.4435 19.2718 13.507 19.12 13.3822ZM28.0196 12.8195C28.0989 12.8331 28.4501 12.79 28.2009 13.0101C27.9765 13.2075 28.083 13.119 28.0196 12.8195ZM24.8567 13.4911C25.0629 13.2347 25.2419 13.06 25.4911 12.7809C25.7471 12.4951 25.8423 12.368 26.1821 12.3385C26.241 12.9466 25.8831 13.0328 25.2419 13.3278C24.8454 13.5093 25.2985 13.3709 24.8567 13.4911ZM14.9467 12.5177C14.6136 12.343 14.847 12.6516 14.6929 12.1116C14.6499 11.9596 14.5978 11.7826 14.5525 11.6533L15.1325 11.5171L14.9444 12.5177H14.9467ZM24.4353 12.9284C24.5123 12.7469 26.42 9.89033 26.377 11.1927C26.3475 12.1025 24.7004 12.8649 24.4353 12.9284ZM23.989 12.2568C24.1068 11.6056 25.2079 11.0339 25.5002 10.9567C25.3008 11.6238 24.6437 12.1683 23.989 12.2568ZM23.3727 11.803C23.1937 11.2358 23.6469 11.2426 24.0388 10.9023C24.4262 10.5665 24.6098 10.385 25.1037 10.2034C25.0357 10.5551 25.0131 10.5438 24.7593 10.7412C24.1362 11.2245 23.9165 11.676 23.3727 11.8008V11.803ZM22.8221 10.9408C22.7836 10.6028 23.3636 10.208 23.7126 10.1989C23.0261 11.0611 23.1235 11.0066 22.8221 10.9408ZM25.8627 10.0423C26.3928 9.64302 26.9751 9.6589 26.4019 10.4485C25.9624 10.2851 26.0439 10.3645 25.8627 10.0423ZM28.4954 10.5733C28.5112 10.326 28.6653 9.31856 28.7695 9.14159C29.2612 9.2868 29.1683 9.51369 28.9689 9.91983C28.7084 10.4485 28.722 10.4213 28.4954 10.5733ZM23.3772 41.8935C23.2798 42.1499 23.2368 42.1862 23.1144 42.4176C22.5978 43.4023 22.9377 42.9894 22.983 44.108C23.0147 44.9044 23.1076 44.5595 22.8765 45.2606C22.4982 46.4132 22.6885 46.0751 22.3486 46.1976L22.4755 42.5537C22.5072 42.0296 22.6273 41.8912 22.6364 41.3331C22.6522 40.4255 22.505 41.1198 22.727 40.1873L23.0397 36.2484C23.1416 34.7509 23.6854 32.6227 23.6831 31.2545C23.6831 29.4439 24.4625 25.6798 24.7027 23.6672C24.7616 23.1862 24.8363 22.9071 24.97 22.4579C25.5183 20.5883 25.1014 21.4573 25.4209 20.2888C25.6361 19.497 25.3552 20.0665 25.7313 19.4221C25.8514 19.2156 25.7879 19.0296 25.8491 18.6688L25.8763 18.5508C25.9261 18.1379 25.729 18.2581 25.874 17.6818C26.2569 16.1639 26.2932 14.2762 26.6103 12.579C26.7825 11.6487 26.9525 10.1286 27.2968 9.18243C27.4373 8.79671 27.5279 8.67192 28.0037 8.67873C28.1555 8.83301 28.228 8.84663 28.3119 9.06217V9.34579L28.0966 9.37755C28.0672 9.37302 28.0105 9.3594 27.9901 9.31402C27.9652 9.2573 27.9222 9.24142 27.8859 9.20739C27.7726 9.07579 27.904 9.14612 27.7681 9.22554C28.1805 10.0696 27.614 9.80865 27.7251 10.6436L27.5733 12.1388C27.2968 13.4957 26.8347 12.5813 27.2697 13.9812C27.4962 14.7095 27.0408 14.6823 27.0091 14.9659C27.1088 15.3811 27.1609 15.1701 27.1813 15.4424C27.2289 16.0323 27.204 15.4628 27.0476 15.9189C26.8958 16.359 26.9797 16.6109 26.9321 17.0692C26.8664 17.6818 26.6896 17.5071 26.7191 18.122C26.744 18.6098 26.7191 18.6892 26.6262 19.1634C26.5424 19.6036 26.4132 19.767 26.4948 20.1527C26.6149 20.7176 26.5741 20.4862 26.2841 20.9695C26.1935 21.117 26.2546 22.3013 26.2569 22.3127C26.3022 22.5781 26.3135 22.3172 26.3974 22.7007L25.6769 23.5719C25.8967 24.2549 26.0598 23.6173 25.7675 24.4296C25.5545 25.0195 25.7902 25.8953 25.4911 26.9004C25.3665 27.3225 25.4435 27.4768 25.2895 28.2822L25.1649 29.0854C24.8091 30.3311 25.2872 29.6753 25.2464 30.2017C25.0402 30.7009 25.0334 30.3719 24.927 30.7758C24.8454 31.098 24.9315 31.1388 24.8454 31.4927C24.757 31.8535 24.7117 31.6743 24.6483 32.0872C24.5803 32.5228 24.7208 32.3277 24.5509 32.7883C24.4602 33.0265 24.3991 32.8791 24.3062 33.326C24.0977 34.3357 24.4738 34.4151 24.3877 34.7986C24.2495 35.4157 24.5463 35.1956 24.3651 35.6108C23.8712 36.734 24.7457 35.8468 24.1362 36.8361C23.5404 37.8026 24.2133 36.9631 24.0184 37.8571C23.9097 38.3517 23.6854 38.6104 23.3818 38.8009C23.6627 39.5066 23.6922 39.5429 23.2277 40.2417C22.8811 40.7636 23.0555 41.0313 23.0555 41.7823C23.1982 41.8708 23.1756 41.8413 23.3727 41.889L23.3772 41.8935ZM21.6667 10.5392C21.9544 9.93344 21.9136 10.0378 22.437 9.66798C23.0261 9.25276 22.9717 9.09394 23.5449 8.76948C24.0343 8.49041 24.6891 7.77796 25.2464 7.7825C25.1898 8.09334 24.8975 8.37015 24.6143 8.64469C23.9958 9.24369 22.8176 10.4031 22.0767 10.7934L21.6644 10.5415L21.6667 10.5392ZM17.4231 8.37015C17.5454 8.09561 18.1594 7.62821 18.216 7.60326C18.9909 7.25157 17.9963 7.68948 18.3067 8.3883L17.4253 8.37015H17.4231ZM13.6643 8.2862C14.0132 7.98897 13.9838 8.20679 14.276 7.78704C15.3545 6.24417 17.0311 6.61628 17.8988 6.58678C17.7878 6.83636 17.6632 6.943 17.6542 7.16082C17.6542 7.17897 17.6587 7.21073 17.6609 7.22888C17.6836 7.56695 17.9056 7.31964 17.4389 7.92771C16.8702 7.87099 15.3794 7.78704 14.8062 7.77569C14.6453 8.01166 14.6793 8.06385 14.5094 8.3815C14.0676 9.21419 14.4142 8.99411 14.4913 9.74739C14.4913 9.76781 14.4913 10.1558 14.489 10.1762C14.4505 10.5302 14.6385 10.0537 14.3939 10.5551C14.0653 10.5687 14.1877 10.5597 14.0472 10.1694C13.9067 9.77915 13.6711 8.63789 13.6643 8.2862ZM18.4653 6.95208C18.6261 6.62762 18.5695 6.78191 18.8096 6.51644C19.0226 6.28274 18.898 6.38031 19.154 6.18745C19.4304 5.98098 19.6797 5.78131 20.0558 5.6066C19.8201 6.1035 18.9365 6.75468 18.4653 6.95208ZM18.8776 5.70644C18.9275 5.34114 18.9411 5.39106 19.3013 5.30484C19.1722 5.71324 19.2854 5.57257 18.8776 5.70644ZM13.1205 6.26232C13.0322 5.51812 17.2916 3.82323 17.5975 4.14769C17.8173 4.38139 15.7034 4.57878 15.4429 4.77164L13.6462 6.2714C14.412 6.3077 16.7728 5.00534 17.6632 4.78072C17.4434 5.72913 15.5584 4.80794 15.6173 6.11257C15.0804 6.39165 14.1242 7.58964 13.5782 7.73259L13.1205 6.26232ZM13.0027 5.62929C12.7444 5.30938 12.8305 4.94862 13.0503 4.68315C13.1953 4.50845 13.8977 4.05466 14.1038 3.93668C14.4346 3.74609 14.4686 3.71205 14.779 3.50331C14.9603 3.38079 15.1551 3.19928 15.3658 3.14936L15.6105 3.31499C15.4406 3.58499 15.3998 3.74155 15.1914 3.94122C14.8832 4.23844 13.4355 5.52039 13.0027 5.62929ZM18.0121 1.41137C17.9102 1.52935 17.8037 1.70406 17.67 1.83792C16.9835 2.51406 14.6748 3.46247 13.7731 3.9276C13.7595 3.93441 13.0979 4.30878 13.0934 4.31105C12.5405 4.39727 12.8328 3.36718 12.903 3.06995C12.9846 2.7228 14.0087 2.2123 14.2579 1.95364C14.6023 1.68137 17.4525 1.3796 18.0121 1.41137ZM16.4669 48.6277C16.3854 48.8387 16.3333 48.8387 16.1792 48.9657C16.0795 49.0497 16.007 49.1336 15.8937 49.2425C15.7011 49.4263 15.5448 49.5965 15.2843 49.7553C15.1778 49.9119 14.9512 50.141 14.7926 50.2477C14.3236 50.5653 14.591 50.3407 14.6453 50.7922C14.625 50.8603 13.9838 51.398 13.8682 51.5614C14.3191 51.5273 14.4188 51.0146 15.1619 50.7241C15.3341 50.3657 16.0501 50.3225 16.1837 49.8824L15.7034 50.073C15.8212 49.8007 16.4216 49.3514 16.7388 49.2493C16.655 49.0429 16.7751 49.2561 16.4579 49.0383C16.5984 48.9453 16.587 48.9521 16.7094 48.8001C16.8453 48.6367 16.8249 48.7048 16.8725 48.4507L16.4647 48.6277H16.4669Z" fill="#95C11F"/>
</g>
<defs>
<clipPath id="clip0_282_17572">
<rect width="54" height="122" fill="white"/>
</clipPath>
</defs>
</svg>
