<svg width="106" height="63" viewBox="0 0 106 63" fill="none" xmlns="http://www.w3.org/2000/svg">
<g clip-path="url(#clip0_282_20940)">
<path d="M24.7462 60.524C21.013 62.3512 17.0454 62.6917 12.9935 62.277C10.467 62.018 8.01658 61.3886 5.76658 60.1422C3.22671 58.7359 1.53381 56.6269 0.660124 53.8534C-0.282432 50.8602 -0.139558 47.8598 0.61387 44.8583C1.58418 40.9912 3.55049 37.6956 6.28359 34.8252C8.49865 32.4985 11.058 30.6351 13.8446 29.0781C16.7031 27.4809 19.7322 26.2593 22.8611 25.3286C24.9836 24.6971 27.1627 24.2617 29.4076 23.7169C29.3264 23.1278 29.2071 22.4251 29.1362 21.7184C28.8566 18.9367 29.1115 16.2231 30.345 13.6776C31.2906 11.7265 32.779 10.2377 34.6415 9.1811C36.212 8.29067 37.8998 7.60866 39.4694 6.71822C40.7408 5.997 41.9321 5.12617 43.1286 4.27804C45.2378 2.78298 47.4436 1.47467 49.9166 0.688449C52.0834 0.000246192 54.3077 -0.11841 56.5669 0.0992979C59.1685 0.350023 61.6919 0.962905 64.166 1.75532C66.6812 2.56115 69.1696 3.46293 71.6314 4.42249C73.7128 5.23451 75.711 6.26527 77.7986 7.06181C79.9335 7.87589 82.1239 8.55068 84.306 9.23269C85.706 9.67017 87.1337 10.0199 88.5532 10.3904C89.9675 10.7597 91.3973 11.0755 92.8045 11.4717C94.7625 12.0237 96.5541 12.9317 98.1864 14.1574C101.249 16.4583 103.425 19.4309 104.812 22.9895C105.966 25.9508 106.29 29.0183 105.737 32.1498C105.265 34.8252 104.116 37.2375 102.556 39.429C101.087 41.4905 99.28 43.2343 97.287 44.8077C95.59 46.148 93.8334 47.379 91.9287 48.3891C88.9006 49.9945 85.7101 51.1006 82.2935 51.5464C79.5583 51.9034 76.8262 51.9178 74.0952 51.6392C71.8441 51.4102 69.6486 50.8974 67.5549 49.9997C67.1817 49.8398 66.7798 49.749 66.3255 49.6056C65.4488 53.1075 63.5122 55.8634 60.7175 58.0363C60.5325 57.9032 60.3464 57.7691 60.1614 57.636C60.0936 57.6308 60.0216 57.6071 59.9599 57.6226C58.708 57.9342 57.4776 57.6824 56.2473 57.4771C56.0129 57.4379 55.7868 57.3491 55.5576 57.2821C55.3551 57.2233 55.1536 57.1634 54.9522 57.1046C56.6872 57.3295 58.3935 57.8083 60.1408 57.2418C60.0288 57.2078 59.9178 57.1727 59.8058 57.1387C59.7616 57.0943 59.7184 57.0509 59.6742 57.0066C59.8438 56.9498 60.0113 56.89 60.1819 56.8374C60.6157 56.7012 61.0515 56.5681 61.4853 56.4339C61.4709 56.3865 61.4565 56.339 61.4431 56.2926C61.2766 56.3143 61.1101 56.3504 60.9426 56.3555C60.3228 56.3772 59.7019 56.3885 59.0811 56.404L58.9701 56.2946C59.1325 56.2688 59.2939 56.2348 59.4573 56.2204C60.1727 56.1564 60.8932 56.1296 61.6014 56.0212C61.8923 55.9769 62.1565 55.7612 62.433 55.624L62.3713 55.4692C60.9405 55.8087 59.5529 55.6684 58.3143 55.2463C59.3514 55.2577 60.5088 55.3258 61.6569 55.2577C62.1904 55.2267 62.8647 55.2474 63.1844 54.5189C62.1565 54.6562 61.1985 54.6139 60.4358 54.2765C61.2047 54.2888 62.1205 54.326 63.0343 54.3105C63.5112 54.3023 63.6716 54.1196 63.762 53.7131C63.1936 53.7544 62.6139 53.7967 62.0342 53.839C62.4371 53.6512 62.8534 53.5893 63.2656 53.5088C64.1475 53.3365 64.1464 53.3324 64.277 52.9259C63.9152 52.9475 63.5472 52.9702 63.1782 52.9919C63.172 52.9506 63.1669 52.9083 63.1607 52.867C63.688 52.6803 64.4055 52.9238 64.7961 52.1768C64.4425 52.2211 64.1824 52.2542 63.9224 52.2872C64.2965 52.0499 64.8238 52.086 65.1096 51.5154C64.8135 51.5773 64.645 51.6124 64.4764 51.6475L64.4661 51.601C64.7416 51.4535 65.0171 51.307 65.2915 51.1594L65.2391 51.0212H64.7087C65.3902 50.6621 65.384 50.6611 65.5402 49.9811C66.1035 47.543 65.6564 45.2081 64.6059 43.0217C62.5851 38.8141 59.6423 35.3297 55.9297 32.5171C52.9807 30.2833 49.745 28.5736 46.2667 27.3158C43.5685 26.3408 40.8035 25.6608 37.9605 25.3131C35.2345 24.9788 32.4953 24.8447 29.7611 25.1749C28.0312 25.3833 26.2859 25.5783 24.5982 25.99C22.5805 26.4811 20.5648 27.0661 18.6458 27.8524C16.6168 28.684 14.6371 29.6869 12.7571 30.8188C10.2275 32.3417 8.03405 34.2959 6.21473 36.6597C4.78188 38.5211 3.59675 40.5186 2.88443 42.7565C2.01074 45.5052 1.73939 48.3272 2.14848 51.2017C2.37153 52.769 2.81865 54.2692 3.72934 55.559C4.92372 57.249 6.43983 58.4728 8.52743 59.0547C11.3757 59.8492 14.227 60.3351 17.1831 60.1319C17.6354 60.1009 18.0918 60.1277 18.5471 60.1277C16.1953 60.9274 13.8456 60.4744 11.4887 60.1628C11.943 60.3073 12.3994 60.4332 12.864 60.4827C14.7512 60.6808 16.6383 60.949 18.5307 61.0058C19.8299 61.045 21.1527 60.9656 22.4252 60.4951C23.0409 60.2681 23.7502 60.2949 24.4162 60.2072C24.5262 60.3124 24.6362 60.4187 24.7472 60.524H24.7462ZM79.1297 44.6303C79.5994 45.3886 80.0692 46.147 80.5389 46.9054L80.6869 46.8063C80.1647 46.0841 79.6426 45.3618 79.1194 44.6396C78.808 44.0731 78.4965 43.5067 78.1851 42.9402C78.4585 43.1517 78.6291 43.4231 78.8141 43.6852C80.2007 45.6466 81.4208 47.7545 83.5177 49.0917C83.6914 49.2021 83.8949 49.264 84.1734 49.3889C83.3594 48.5253 82.6111 47.7855 81.9265 46.99C81.2471 46.2007 80.6098 45.3732 79.9952 44.5323C79.3856 43.6986 78.8285 42.8277 78.2478 41.9724C78.292 41.9425 78.3362 41.9125 78.3814 41.8826C78.7257 42.3273 79.0855 42.7607 79.4113 43.2188C80.8719 45.2669 82.3829 47.2686 84.3657 48.8524C84.5928 49.034 84.7963 49.3579 85.1366 49.0278C82.5535 47.7298 80.5759 43.8956 79.2078 41.5772C79.8338 42.3738 80.4361 43.1889 81.0025 44.0287C82.2297 45.8488 83.4745 47.6503 85.4398 48.7677C85.6412 48.8823 85.9116 48.8751 86.149 48.9246C86.1881 48.8451 86.2281 48.7667 86.2672 48.6873C83.3111 47.4522 81.8063 44.9161 80.3888 42.3005C81.98 44.363 83.1528 46.827 85.855 47.9826C83.2186 45.2359 81.4157 42.9794 81.1135 41.9806C81.6757 42.707 82.1496 43.3292 82.6337 43.9421C83.9072 45.5527 85.2013 47.1406 87.0258 48.1807C87.3619 48.3726 87.6641 48.5645 88.0208 48.2095C87.7874 48.0785 87.5654 47.9537 87.3434 47.8299C87.3434 47.7679 87.3434 47.7071 87.3434 47.6452C87.5418 47.7267 87.735 47.8257 87.9406 47.8866C88.2027 47.965 88.4751 48.0135 88.7423 48.0754C88.7526 48.0259 88.7639 47.9753 88.7742 47.9258C86.7739 46.9147 85.226 45.4072 83.9884 43.5634C84.0871 43.5923 84.1539 43.6573 84.2125 43.7275C85.1807 44.8893 86.26 45.9324 87.4842 46.8228C88.1174 47.283 88.8153 47.5606 89.7157 47.6493C89.064 47.284 88.5008 47.0065 87.9796 46.6639C87.4534 46.3173 86.9487 45.9293 86.4728 45.5166C86.0164 45.1193 85.6083 44.6664 85.1787 44.2382C85.2147 44.2021 85.2506 44.166 85.2866 44.1299C85.5826 44.3796 85.8612 44.655 86.1778 44.8748C87.3125 45.66 88.4525 46.4369 89.6088 47.1891C89.8719 47.3604 90.2081 47.5296 90.5401 47.1767C88.6868 46.4287 87.181 45.27 85.9393 43.7594C86.1089 43.8141 86.2538 43.9039 86.3854 44.0091C87.7062 45.0678 89.026 46.1264 90.5853 46.8311C91.0828 47.056 91.1229 47.0746 91.4991 46.6433C90.2348 46.0438 88.9613 45.4609 87.9252 44.4776C88.0629 44.4972 88.1821 44.5488 88.2962 44.6107C89.2963 45.1606 90.2872 45.7291 91.2997 46.2543C91.8023 46.5143 92.0479 46.4679 92.4046 46.2099C90.4979 45.3185 88.363 43.907 87.8604 43.1569C88.4946 43.5686 89.0517 43.9235 89.6006 44.2888C90.5514 44.9223 91.4764 45.6094 92.6256 45.8426C92.8312 45.8839 93.0604 45.8106 93.2783 45.79C93.2804 45.7343 93.2834 45.6786 93.2855 45.6229C91.5679 45.2638 90.1854 44.3321 88.9571 43.1373C89.2953 43.2931 89.6129 43.485 89.9182 43.6934C90.9666 44.4095 92.0592 45.0347 93.3071 45.335C93.6288 45.4124 93.9505 45.4753 94.1571 45.1224C92.4961 44.6261 90.9152 43.9988 89.615 42.8102C91.275 43.6346 92.8497 44.6829 94.7903 44.72C92.9843 44.3765 91.4425 43.5252 90.0837 42.3098C90.1443 42.2933 90.1885 42.3098 90.2276 42.3345C91.6779 43.2518 93.1806 44.0514 94.889 44.3723C95.0637 44.4053 95.2549 44.3476 95.4389 44.3321L95.4337 44.1763C93.6041 43.9741 92.1312 42.9959 90.6675 41.9899C92.3882 42.7535 94.0184 43.7832 95.9806 43.8172C94.1458 43.4489 92.4951 42.6946 91.053 41.4885C91.9709 41.8888 92.8507 42.3779 93.7778 42.7473C94.6957 43.1125 95.6619 43.3467 96.6641 43.2828C95.7688 43.0042 94.8427 42.8412 93.967 42.5347C93.1056 42.2334 92.2957 41.7856 91.4631 41.4018L91.5402 41.2347C92.1456 41.4988 92.7459 41.7743 93.3574 42.025C94.5015 42.4934 95.6619 42.9103 96.9272 42.7896C97.177 42.7658 97.4144 42.6152 97.6581 42.5234C95.924 42.3665 94.2424 42.3222 92.7171 41.4214C93.6586 41.5896 94.5714 41.7949 95.4954 41.9033C96.2406 41.991 97.0002 41.9745 97.7526 41.9755C97.9798 41.9755 98.2059 41.8785 98.4331 41.8269C98.4248 41.7567 98.4166 41.6876 98.4084 41.6175C96.4739 41.9817 94.6166 41.765 92.8301 40.9973C93.267 41.051 93.6977 41.147 94.1294 41.2398C95.663 41.5679 97.1976 41.3451 98.7311 41.2398C98.8761 41.2295 99.0128 41.0892 99.1536 41.0087C97.0054 41.0211 94.8828 41.3337 92.789 40.3752C93.7789 40.5361 94.6803 40.7765 95.5889 40.8034C96.4883 40.8302 97.3939 40.6404 98.2964 40.5465L98.282 40.5165C97.0444 40.4546 95.8079 40.3927 94.5703 40.3298C96.5521 40.0512 98.6027 40.3535 100.477 39.4342C98.6386 39.7778 96.7936 39.9037 94.9311 39.6798C95.1418 39.6137 95.3556 39.6282 95.5674 39.6117C96.9303 39.5054 98.2943 39.4187 99.6531 39.2732C100.696 39.1618 101.019 38.9059 101.318 38.1486C98.6664 38.9658 97.8503 39.0896 97.067 38.7656C97.2089 38.7511 97.3106 38.748 97.4093 38.7295C98.579 38.5014 99.757 38.3033 100.916 38.0289C101.668 37.8514 102.019 37.415 102.162 36.7577C100.966 37.2055 99.7436 37.6636 98.5204 38.1207C98.5009 38.0702 98.4814 38.0206 98.4618 37.9701C98.5944 37.9082 98.7239 37.839 98.8607 37.7864C99.7837 37.4284 100.706 37.0673 101.632 36.7185C102.474 36.4018 102.897 35.7703 103.073 34.9191C102.153 35.566 101.255 36.1975 100.356 36.8289C100.326 36.7856 100.296 36.7422 100.266 36.6989C100.567 36.4915 100.872 36.2914 101.168 36.0767C102.339 35.2276 103.513 34.4703 103.841 32.8215C104.315 30.4349 104.402 28.0845 103.872 25.7217C103.367 23.4776 102.449 21.4037 101.153 19.5C99.5699 17.1754 97.6478 15.2274 95.1254 13.9294C93.5826 13.1349 91.9297 12.6799 90.2605 12.2486C88.0454 11.6749 85.8489 11.0311 83.641 10.4306C83.4478 10.378 83.2278 10.4234 83.0212 10.4234C82.7591 9.88272 82.3449 10.1004 81.8792 10.3037C81.9851 10.1417 82.0427 10.053 82.1002 9.96526L82.0365 9.80121C81.6675 9.89923 81.2975 9.99622 80.8801 10.1066C81.0662 9.96836 81.2183 9.85383 81.3992 9.71867C80.6355 9.37095 79.9181 8.99848 79.0978 9.63509L79.0906 9.4504C79.2941 9.33794 79.4966 9.2265 79.7916 9.06348C78.9704 8.86228 78.4215 9.49167 77.7277 9.43802C78.1676 9.25539 78.6086 9.0738 79.1215 8.86125C78.3557 8.3794 77.7863 9.08515 77.0133 9.0026C77.5108 8.82307 77.8839 8.68894 78.257 8.55481C78.2416 8.48465 78.2262 8.41345 78.2118 8.34329C77.6557 8.42996 77.1007 8.51766 76.5446 8.60433L76.5302 8.55274C76.853 8.43306 77.1747 8.31234 77.4974 8.19265L77.4717 8.00486C77.0441 8.03272 76.6176 8.06161 76.0502 8.09876C76.3555 7.99042 76.5333 7.92645 76.7111 7.86351C76.706 7.80779 76.7019 7.75104 76.6967 7.69533C76.3133 7.72628 75.9299 7.7562 75.416 7.79747C75.6874 7.66025 75.8374 7.58389 76.0605 7.4704C74.3686 6.69037 72.7548 5.9516 71.1462 5.20356C68.7246 4.07788 66.2186 3.17506 63.651 2.46829C61.66 1.92041 59.6475 1.42721 57.6184 1.05577C55.2245 0.617256 52.7988 0.612097 50.4419 1.3034C47.7468 2.09375 45.2624 3.35975 43.1142 5.18086C41.0215 6.95553 38.8372 8.56822 36.4392 9.90645C35.0814 10.6638 33.8387 11.6141 32.8684 12.8594C31.6236 14.4566 30.9134 16.285 30.5475 18.2763C30.2175 20.0675 30.2843 21.8618 30.3008 23.7077C30.529 23.6881 30.7058 23.6736 30.8969 23.6571C30.7068 21.447 30.937 19.3989 32.4172 17.6799C31.2536 19.3845 31.2032 21.3077 31.3297 23.2671C31.3554 23.6633 31.5527 23.653 31.8446 23.5312C31.4623 21.9516 31.8107 20.4874 32.3997 19.0543C32.081 20.4183 32.0183 21.7978 32.1499 23.1907C32.1725 23.4301 32.1859 23.6561 32.5271 23.5065C32.4192 22.7615 32.4007 22.0444 32.8139 21.2489C32.7707 22.0867 32.7348 22.7842 32.6988 23.4858H33.4872V21.7194L33.6845 21.7163C33.6845 22.1858 33.6825 22.6552 33.6845 23.1247C33.6866 23.4714 33.8572 23.5756 34.2334 23.4425V22.3405L34.366 22.3385C34.3866 22.7171 34.4081 23.0958 34.4287 23.4796H35.0238C35.0454 23.3197 35.0629 23.1876 35.0752 23.0979C35.2253 23.2465 35.3538 23.4786 35.5028 23.493C35.6498 23.5075 35.8184 23.3011 35.8687 23.2661C36.0784 23.3796 36.2562 23.556 36.4402 23.5632C38.5474 23.6488 40.6154 23.9966 42.6773 24.4237C45.7938 25.0696 48.751 26.1685 51.5838 27.5923C54.6202 29.1194 57.4211 31.0076 59.8931 33.3683C62.3374 35.7032 64.24 38.4076 65.5279 41.5442C65.8003 42.2066 66.0562 42.8824 66.4036 43.5056C66.9196 44.4301 67.5076 45.3144 68.0719 46.211C68.5539 46.9766 69.034 47.7452 69.5438 48.4923C69.664 48.6687 69.9015 48.7657 70.0844 48.8988C70.1245 48.8524 70.1646 48.8059 70.2037 48.7595C69.4893 47.6988 68.7359 46.6629 68.0708 45.5723C67.3945 44.4652 66.7521 43.3292 66.1929 42.1591C65.6512 41.0252 65.235 39.8314 64.7632 38.6634L64.8855 38.617C65.3706 39.6911 65.8229 40.7817 66.3512 41.8341C66.8806 42.8876 67.4521 43.9235 68.0678 44.9295C68.6732 45.919 69.3557 46.86 70.0053 47.8216C68.5611 44.9367 67.19 42.0302 66.012 39.0318C66.9011 40.6909 67.6854 42.4016 68.5529 44.068C69.3875 45.6724 70.3013 47.2366 71.2038 48.8049C71.3076 48.9844 71.5594 49.0783 71.7434 49.2124C69.3012 45.5733 67.3997 41.1108 67.0522 39.6901C67.1355 39.8263 67.1941 39.9088 67.2393 39.9986C68.2189 41.9734 69.1614 43.9689 70.1913 45.9179C70.7484 46.9714 71.4402 47.9547 72.1052 48.9463C72.2389 49.1454 72.5297 49.2372 72.7487 49.3786C72.0497 47.9733 71.286 46.6804 70.5891 45.3536C69.8871 44.0174 69.2508 42.6461 68.5858 41.2893L68.7009 41.2305C68.7523 41.2976 68.813 41.3585 68.8531 41.4317C69.7041 43.0145 70.5326 44.6107 71.4094 46.179C71.9747 47.1912 72.5976 48.1724 73.2256 49.1474C73.3469 49.3363 73.6069 49.4353 73.8033 49.5756C72.0148 46.7785 70.5901 43.8657 69.3793 40.8354C69.4626 40.8415 69.4934 40.8797 69.516 40.9241C70.3979 42.642 71.2356 44.3847 72.1741 46.0707C72.8032 47.2015 73.5669 48.258 74.2853 49.3363C74.3758 49.4714 74.5649 49.5395 74.7078 49.6396C72.3838 46.9064 71.2932 43.5407 69.735 40.4391C70.4637 41.6412 71.1246 42.8793 71.7537 44.135C72.7055 46.0366 73.6953 47.9114 75.2145 49.4363C75.3554 49.5777 75.5692 49.6468 75.749 49.749C75.7747 49.7118 75.8004 49.6747 75.8261 49.6375C74.2309 47.5822 73.1773 45.2349 72.1905 42.8525C72.614 43.5624 72.9656 44.3125 73.3798 45.0255C74.2196 46.472 75.0737 47.9103 75.9608 49.328C76.3102 49.8872 76.6165 49.9347 77.2312 49.7253C74.5855 47.1891 73.3202 43.8162 71.7475 40.629C71.914 40.7982 72.0261 41.0004 72.1361 41.2037C73.719 44.134 75.1662 47.153 77.5262 49.5777C77.6629 49.718 77.8767 49.782 78.0545 49.8811C76.8673 48.4788 74.346 44.7654 73.9965 43.6305C74.5577 44.4693 75.0244 45.1957 75.5219 45.9014C76.0245 46.6134 76.5364 47.3212 77.0811 48.0001C77.6043 48.6522 78.1152 49.3249 78.8203 49.8037C76.6361 47.3655 75.1004 44.5354 73.72 41.6071C74.2925 42.4553 74.8065 43.3385 75.3194 44.2238C76.4171 46.1212 77.5663 47.9826 79.1276 49.5447C79.2592 49.6757 79.4422 49.7552 79.6025 49.8583C79.6426 49.8109 79.6816 49.7624 79.7217 49.7149C78.3022 48.6016 77.3124 47.1468 76.4469 45.6074C75.5948 44.0917 74.7982 42.545 73.977 41.0128C74.0222 40.9881 74.0685 40.9623 74.1137 40.9375C74.8239 42.1818 75.5383 43.4251 76.2445 44.6726C77.2507 46.4524 78.365 48.1507 79.9078 49.5199C80.0548 49.6499 80.249 49.7253 80.4217 49.8264C78.183 47.412 76.6906 44.59 75.3656 41.6608C75.4838 41.734 75.5589 41.8362 75.6216 41.9466C76.3709 43.2518 77.0832 44.5818 77.8777 45.8591C78.6805 47.1489 79.5049 48.4376 80.6848 49.4312C80.8668 49.5839 81.1248 49.6468 81.4321 49.7903C80.7887 48.84 80.2274 48.0104 79.6652 47.1829C79.1071 46.3627 78.5325 45.5537 77.9918 44.7221C77.4573 43.8977 76.9568 43.0506 76.4408 42.2138C76.632 42.252 76.7306 42.3469 76.8067 42.4573C77.7965 43.8905 78.772 45.3329 79.7762 46.7568C80.4053 47.6493 81.0631 48.5212 81.7394 49.3775C81.8597 49.5292 82.1321 49.5602 82.3336 49.6468C82.3623 49.5963 82.3921 49.5457 82.4209 49.4952C80.4597 47.9103 79.4483 45.6652 78.2632 43.5407C78.553 43.906 78.8439 44.2712 79.1338 44.6365L79.1297 44.6303ZM69.1768 48.647C68.7328 47.9114 68.299 47.1809 67.8519 46.4576C67.412 45.7467 66.9577 45.043 66.5105 44.3372C66.4581 44.363 66.4067 44.3888 66.3543 44.4157C66.5321 44.8263 66.6719 45.2597 66.897 45.6425C67.4048 46.5081 67.9794 47.3346 68.4738 48.2075C68.6506 48.5191 68.8243 48.6852 69.1768 48.6481V48.647ZM68.4347 48.5098C67.8663 47.6214 67.3205 46.7681 66.7747 45.9149C66.7295 45.9365 66.6832 45.9582 66.638 45.9799C66.6925 46.1676 66.7202 46.3699 66.8076 46.5422C67.0543 47.0292 67.3544 47.4904 67.5775 47.9867C67.7388 48.3457 67.9537 48.5377 68.4347 48.5108V48.5098ZM83.3326 49.4137C82.533 48.7327 81.7518 48.0682 81.0425 47.4656C81.2903 48.1776 82.8249 49.5344 83.3326 49.4137ZM66.7511 46.959C66.6493 47.6111 67.0594 48.2807 67.5538 48.3251C67.2907 47.8773 67.0399 47.4491 66.7511 46.959Z" fill="#95C11F"/>
<path d="M60.16 57.6357C60.3451 57.7688 60.5311 57.903 60.7161 58.0361C58.9821 59.5807 57.2686 61.1624 55.0299 61.9651C51.9761 63.0609 48.8823 63.4344 45.7411 62.3531C44.7163 62.0002 43.7203 61.5607 42.7109 61.1614C42.859 61.0107 43.008 60.8591 43.156 60.7084C43.489 60.8013 43.8416 60.8518 44.15 60.9963C45.2117 61.4926 46.2581 62.0219 47.4484 62.1416C47.1606 61.9982 46.8584 61.8908 46.5685 61.7577C45.552 61.2903 44.5395 60.8126 43.526 60.3401C43.5764 60.2864 43.6268 60.2328 43.6771 60.1791C44.1088 60.3132 44.5508 60.4226 44.9712 60.5856C45.9878 60.9798 46.9673 61.5142 48.0158 61.7732C49.0128 62.0198 50.0777 61.9889 51.1127 62.0797C51.3337 62.0993 51.5557 62.1395 51.7767 62.1323C51.9926 62.1261 52.2084 62.0735 52.4233 62.0404C49.464 62.0363 46.7741 61.1562 44.2455 59.6921C46.8738 60.6702 49.5165 61.5648 52.378 61.4162C50.3871 61.1469 48.4588 60.7084 46.8615 59.5477C48.3406 59.9521 49.87 60.4298 51.4283 60.7775C52.9321 61.1129 55.5459 60.988 56.1277 60.5217C53.6639 60.8126 51.3224 60.4814 49.1022 59.3857C51.6729 60.1636 54.2693 60.6021 56.9469 60.0553C54.4338 60.1378 52.1098 59.4022 49.8351 58.4509C51.5681 58.8161 53.2836 59.2598 55.0125 59.6436C56.0085 59.8644 56.9993 59.7385 58.0601 59.3361C55.8759 59.397 53.9116 58.9668 51.9227 58.1042C53.5714 58.4333 55.1039 58.7645 56.6458 59.0379C57.5194 59.1927 58.3602 59.0307 59.1157 58.5427C57.207 58.7656 55.3887 58.4044 53.6053 57.775C53.778 57.7554 53.9455 57.7771 54.1121 57.7998C55.4308 57.9824 56.7444 58.2084 58.0683 58.3322C58.83 58.4034 59.5505 58.1403 60.158 57.6357H60.16Z" fill="#95C11F"/>
<path d="M43.1562 60.7095C43.0082 60.8601 42.8592 61.0118 42.7112 61.1624C42.5128 61.1686 42.3134 61.1841 42.115 61.18C41.3903 61.1666 40.7068 61.3523 40.1456 61.7898C38.9461 62.7276 37.5328 62.836 36.1184 62.8855C34.186 62.9526 32.3235 62.5223 30.499 61.9094C28.6222 61.279 26.7401 60.6641 24.745 60.5237C24.6351 60.4185 24.5251 60.3122 24.4141 60.207C25.0184 60.1936 25.6331 60.0987 26.2241 60.1812C28.4217 60.4887 30.609 60.8673 32.8046 61.1944C34.9734 61.5174 37.1216 61.4255 39.2709 60.9416C40.346 60.6992 41.4643 60.6383 42.5662 60.5268C42.7543 60.5072 42.9589 60.6455 43.1552 60.7105L43.1562 60.7095Z" fill="#95C11F"/>
<path d="M87.3453 47.8276C86.7656 47.453 86.157 47.1156 85.6123 46.6947C84.5258 45.8558 82.9162 43.8892 82.4824 42.9028C83.9697 44.6218 85.4118 46.3882 87.3442 47.6429V47.8276H87.3453Z" fill="#95C11F"/>
<path d="M59.8036 57.1374C59.3349 57.1374 58.8579 57.1972 58.4005 57.1291C57.1753 56.9465 55.9593 56.7102 54.7393 56.4946L54.7495 56.345C55.0312 56.3625 55.3149 56.3635 55.5944 56.3997C56.9122 56.5689 58.2278 56.7463 59.5435 56.9248C59.5887 56.931 59.6288 56.9785 59.672 57.0063C59.7162 57.0507 59.7594 57.094 59.8036 57.1384V57.1374Z" fill="#95C11F"/>
<path d="M59.08 56.4027C58.1108 56.51 57.1908 56.3068 56.2832 56.022L56.3027 55.8868C57.1918 56.022 58.0809 56.1572 58.9701 56.2923L59.0811 56.4017L59.08 56.4027Z" fill="#95C11F"/>
<path d="M43.5273 60.3401C43.1861 60.2678 42.8469 60.1842 42.5036 60.1254C41.3924 59.9356 40.2926 59.9614 39.2175 60.3421C39.126 60.3741 39.0283 60.3896 38.9009 60.3112C39.2421 60.1935 39.5762 60.0336 39.9277 59.9645C41.193 59.7168 42.4573 59.6064 43.6784 60.1781C43.628 60.2317 43.5777 60.2854 43.5273 60.339V60.3401Z" fill="#95C11F"/>
<path d="M66.2739 8.83831C64.7886 9.93613 63.7361 11.3507 63.2078 13.1594C62.8974 12.8478 62.7617 12.4919 62.9529 11.9729C63.2047 11.2909 63.4925 10.5882 63.9232 10.0135C65.134 8.39773 66.6923 7.18744 68.5753 6.4394C69.264 6.16597 69.9979 6.03906 70.7328 6.24852C71.0011 6.32487 71.2488 6.49718 71.4842 6.65814C71.811 6.881 71.8234 7.22768 71.661 7.52897C71.4832 7.85914 71.145 7.89422 70.8048 7.78279C70.5128 7.68786 70.2261 7.57849 69.9372 7.47531C69.007 7.14514 67.1353 7.75905 66.5442 8.58861L66.2739 8.83831Z" fill="#95C11F"/>
<path d="M84.428 41.2932C84.1526 41.0322 83.8483 40.7959 83.6078 40.506C83.1946 40.0066 82.8194 39.4742 82.4309 38.9542C81.623 37.8718 81.5428 36.3396 82.2685 35.3491C82.4463 35.1066 82.6858 34.9013 82.9263 34.7176C83.2871 34.4422 83.6818 34.3844 84.0426 34.7218C84.3468 35.0065 84.3849 35.6297 84.0734 35.9465C83.5749 36.4552 83.1915 36.97 83.3333 37.7501C83.4567 38.429 83.5934 39.0759 84.0189 39.6568C84.3386 40.0943 84.685 40.57 84.5781 41.1777C84.5277 41.2159 84.4784 41.2551 84.428 41.2932Z" fill="#95C11F"/>
<path d="M101.266 35.1097C101.66 34.3813 102.092 33.6704 102.438 32.9192C103.188 31.2869 103.334 29.5412 102.915 27.8315C102.51 26.1786 101.964 24.538 101.265 22.9893C100.693 21.7243 99.794 20.611 99.0632 19.4162C98.6839 18.7951 98.3549 18.143 98.0034 17.5053C98.0538 17.4713 98.1031 17.4362 98.1535 17.4022C98.4845 17.8273 98.838 18.2369 99.1443 18.6795C100.253 20.2819 101.37 21.8812 102.167 23.6734C103.198 25.9887 103.77 28.3907 103.352 30.932C103.091 32.5189 102.321 33.8932 101.267 35.1108L101.266 35.1097Z" fill="#95C11F"/>
<path d="M47.8543 12.0018C47.9222 12.5362 47.7115 13.0191 47.4093 13.438C47.1636 13.7795 46.81 14.0426 46.512 14.3481C46.181 14.6875 45.8346 15.0167 45.5396 15.3871C45.3093 15.676 45.1325 15.7018 44.8817 15.4335C44.4367 14.9589 44.4017 14.2851 44.8119 13.6898C45.2405 13.0686 45.8819 12.7539 46.5541 12.4888C46.956 12.3299 47.363 12.1854 47.8543 12.0018Z" fill="#95C11F"/>
<path d="M88.7636 17.8314C88.9167 18.5495 88.5118 19.085 87.8961 19.3925C85.9226 20.3747 85.0653 22.0916 84.7652 24.1407C84.6768 24.7454 84.9029 25.3954 84.9975 26.1228C84.8341 25.869 84.6603 25.6709 84.5668 25.4398C84.2266 24.5978 84.4044 23.7404 84.5915 22.9067C84.8556 21.7264 85.0849 20.5109 86.0521 19.6483C86.3543 19.379 86.7048 19.1624 87.044 18.9374C87.6052 18.566 88.1757 18.208 88.7646 17.8303L88.7636 17.8314Z" fill="#95C11F"/>
<path d="M44.8015 5.24768C44.2238 5.86469 43.6575 6.49305 43.0644 7.09561C41.9502 8.22645 40.7856 9.29848 39.3517 10.0207C38.3547 10.5232 37.3073 10.7358 36.1787 10.4489C36.409 10.4149 36.6392 10.3829 36.8694 10.3468C38.736 10.0527 40.1802 8.99307 41.5298 7.76008C42.461 6.90989 43.3964 6.06486 44.3369 5.22601C44.4161 5.15482 44.5486 5.1445 44.6566 5.10632C44.7049 5.15379 44.7522 5.20125 44.8005 5.24768H44.8015Z" fill="#95C11F"/>
<path d="M87.3255 21.1527C87.8219 21.0082 88.3132 20.8411 88.8179 20.739C88.9186 20.7183 89.1417 20.9205 89.1849 21.0578C89.337 21.5458 89.0523 22.1442 88.5496 22.2361C87.8517 22.364 87.6174 22.8355 87.4149 23.4082C87.271 23.8137 87.124 24.2574 86.4302 24.2584C86.646 23.2637 86.8485 22.3258 87.052 21.389C87.1435 21.3106 87.235 21.2311 87.3255 21.1527Z" fill="#95C11F"/>
<path d="M87.3256 21.1527C87.2341 21.2311 87.1426 21.3105 87.0521 21.389C86.7551 21.8316 86.458 22.2753 86.2227 22.6261C86.3059 21.8852 86.5341 21.066 87.2012 20.3891L86.7859 20.5728C87.4982 19.8598 88.2578 19.2026 89.3268 19.1696C90.0474 19.1469 90.3578 19.6401 90.1142 20.5109C89.8274 19.7257 89.3546 19.4275 88.5857 19.7381C89.1511 19.7804 89.6362 19.9537 89.8459 20.4634C90.0114 20.8658 89.9672 21.3033 89.6321 21.7429C89.6403 21.5953 89.6352 21.52 89.6496 21.4488C89.8089 20.6698 89.2785 20.1137 88.5436 20.3757C88.1016 20.5336 87.7295 20.8875 87.3266 21.1527H87.3256Z" fill="#95C11F"/>
<path d="M66.0826 10.7007C66.2779 10.3643 66.4383 10.0001 66.6767 9.69779C67.0992 9.16126 67.5689 8.65053 68.2761 8.50504C68.5331 8.45242 68.8178 8.47099 69.0778 8.52155C69.5167 8.60719 69.6915 8.92498 69.5959 9.35524C69.4982 9.79994 69.1899 9.97225 68.7972 9.84534C68.0212 9.59461 67.4476 9.86597 66.9224 10.4169C66.7466 10.6016 66.4989 10.7182 66.2841 10.8658C66.2162 10.8101 66.1484 10.7543 66.0806 10.6997L66.0826 10.7007Z" fill="#95C11F"/>
<path d="M43.1573 15.1064L43.0216 16.0062C42.7194 15.5161 42.7554 14.7082 43.1213 13.8353C43.8748 12.042 46.1556 10.3148 48.16 10.1301C47.5823 10.4531 47.0087 10.7822 46.4259 11.0959C45.2038 11.7542 44.105 12.5424 43.5119 13.8621C43.4235 14.0581 43.3948 14.282 43.3382 14.4936C43.2776 14.6979 43.2169 14.9022 43.1563 15.1075L43.1573 15.1064Z" fill="#95C11F"/>
<path d="M85.0509 37.1898C84.8422 38.0256 85.572 38.3052 85.9349 38.8788C85.3079 38.7643 84.7929 38.658 84.5 38.1102C84.245 37.6355 84.3067 37.1795 84.6048 36.7637C84.6942 36.6378 84.945 36.4913 85.0416 36.5346C85.2894 36.6461 85.6635 36.8442 85.6789 37.033C85.719 37.5293 85.3356 37.2424 85.0519 37.1898H85.0509Z" fill="#95C11F"/>
<path d="M68.1075 11.8037C67.3489 11.9553 66.8154 12.4238 66.2984 12.9665C65.9705 13.3111 65.5327 13.5763 65.1009 13.7867C64.6672 13.9983 64.2406 13.7383 64.1409 13.2636C63.996 12.5682 64.1697 11.9543 64.733 11.457C64.6991 11.588 64.662 11.719 64.6322 11.8511C64.5808 12.0833 64.474 12.3247 64.5007 12.5486C64.5377 12.853 64.5983 13.2853 64.7988 13.4009C64.991 13.5123 65.4196 13.3575 65.6642 13.1966C66.1011 12.9097 66.4536 12.4949 66.8864 12.1999C67.2358 11.9615 67.6511 11.8191 68.0376 11.6344C68.0612 11.6912 68.0838 11.7479 68.1075 11.8047V11.8037Z" fill="#95C11F"/>
<path d="M48.8917 11.7366C48.6419 10.8895 48.4517 10.7843 47.5955 11.0123C46.4042 11.329 45.4432 12.0214 44.5921 12.8881C44.44 13.0428 44.293 13.2048 44.1439 13.3627L44.0483 13.2719C44.3958 12.9252 44.7278 12.561 45.0937 12.236C45.8944 11.5261 46.7722 10.9205 47.8227 10.6718C48.1907 10.5851 48.6511 10.6171 48.9944 10.7667C49.4817 10.9793 49.4231 11.4271 48.8917 11.7366Z" fill="#95C11F"/>
<path d="M66.2739 8.83828L66.5443 8.58859C67.2021 8.3131 67.8445 7.98499 68.5229 7.7776C69.1078 7.5991 69.7348 7.53617 70.3114 7.88594C70.8315 8.2027 70.9425 8.74955 70.6259 9.14679C70.4255 8.84551 70.2734 8.44827 69.9876 8.22746C69.5312 7.87562 68.9443 7.89213 68.4119 8.06238C67.8147 8.25223 67.2432 8.52462 66.6583 8.75265C66.5371 8.80011 66.4024 8.81043 66.2739 8.83828Z" fill="#95C11F"/>
<path d="M44.8016 5.2477C44.7533 5.20023 44.706 5.15277 44.6577 5.10634C44.7533 4.97634 44.8232 4.81331 44.9465 4.72045C46.218 3.76502 47.6406 3.15213 49.2235 2.90863C48.8792 3.04689 48.5389 3.20166 48.1884 3.32135C47.0105 3.72478 45.9816 4.38306 45.0195 5.15896C44.9609 5.20539 44.8756 5.21777 44.8026 5.24666L44.8016 5.2477Z" fill="#95C11F"/>
<path d="M43.1573 15.1064C43.2179 14.9021 43.2786 14.6978 43.3392 14.4925C43.4328 14.3511 43.5273 14.2098 43.6209 14.0684L43.7473 14.0942C43.6938 14.2934 43.661 14.5018 43.5818 14.6906C43.3999 15.126 43.3701 15.5449 43.59 15.9783C43.8532 16.4983 44.2468 16.6355 44.7711 16.3569C45.0085 16.231 45.2367 16.0887 45.5152 15.9277C45.0568 16.5684 44.4113 16.8604 43.9303 16.6757C43.3721 16.4611 43.0761 15.8606 43.1573 15.1033V15.1064Z" fill="#95C11F"/>
<path d="M36.2744 37.8759C36.073 37.8017 35.964 37.779 35.8756 37.7243C35.2558 37.3466 34.8981 37.4054 34.4407 37.9946C33.491 39.2193 32.9205 40.6298 32.57 42.1187C32.3716 42.9596 32.2894 43.8376 32.2483 44.7033C32.2174 45.375 32.6471 45.5721 33.233 45.2295C33.4745 45.0881 33.7078 44.9344 33.9443 44.7858L34.0399 44.9158C33.6595 45.1955 33.3101 45.539 32.8917 45.7382C32.3377 46.0023 31.8423 45.7939 31.6768 45.1944C31.5041 44.564 31.3551 43.8768 31.4239 43.2392C31.6418 41.2045 32.2812 39.2947 33.5167 37.6366C33.7705 37.2961 34.1457 36.9793 34.5343 36.8246C35.1962 36.5614 35.9126 37.0061 36.2744 37.8749V37.8759Z" fill="#95C11F"/>
<path d="M11.4887 47.2177C11.2687 47.8399 10.9182 48.4507 10.8658 49.0873C10.8195 49.6445 11.0241 50.2687 11.2708 50.7898C11.5606 51.4016 12.2031 51.5409 12.8629 51.2964C13.0418 51.2304 13.2258 51.1757 13.4704 51.0952C13.0243 52.0785 11.5134 52.3199 10.6438 51.576C9.53676 50.6288 9.42164 48.9088 10.3776 47.6758C10.6006 47.388 10.8935 47.1538 11.1546 46.8948C11.2656 47.0021 11.3777 47.1094 11.4887 47.2167V47.2177Z" fill="#95C11F"/>
<path d="M62.1709 41.6285C62.5594 42.2817 62.9962 42.9121 63.3262 43.5941C63.9933 44.9736 64.5123 46.4037 64.4106 47.9813C64.3366 49.1296 63.8895 50.1037 63.0723 50.9095C64.2615 48.9635 64.1269 46.9567 63.3139 44.9488C62.9243 43.9872 62.4073 43.0772 61.955 42.1393C61.918 42.0629 61.9386 41.9577 61.9324 41.8669C62.0115 41.7874 62.0907 41.709 62.1709 41.6296V41.6285Z" fill="#95C11F"/>
<path d="M51.6081 39.4298C51.3974 39.47 51.1805 39.4525 51.0356 39.5474C49.6367 40.4544 48.9655 43.2423 49.7785 44.6981C50.0992 45.2728 50.4209 45.41 51.1404 45.278C50.6954 45.6484 50.4466 45.6535 49.9861 45.2831C49.3129 44.7414 49.0765 43.9686 48.9531 43.1669C48.7003 41.5181 49.2142 40.1108 50.6131 39.1409C51.1353 38.7787 51.4241 38.8984 51.6091 39.4298H51.6081Z" fill="#95C11F"/>
<path d="M62.1705 41.6285C62.0913 41.708 62.0122 41.7864 61.932 41.8659C61.7161 41.5976 61.4787 41.3438 61.2885 41.059C60.1055 39.2874 59.02 37.4385 57.4649 35.9527C56.9448 35.4564 56.3383 35.053 55.772 34.5402C56.1286 34.6898 56.5511 34.763 56.8297 35.0034C57.6499 35.7133 58.503 36.416 59.1773 37.2558C60.2113 38.5435 61.1087 39.9416 62.0584 41.2973C62.1232 41.3892 62.1355 41.5171 62.1725 41.6285H62.1705Z" fill="#95C11F"/>
<path d="M33.1685 42.1805C33.2292 41.319 33.4759 40.5317 34.1902 39.9869C34.3578 39.859 34.6415 39.7765 34.8388 39.8208C35.1102 39.8817 35.2715 40.0912 34.9961 40.3862C34.4832 40.9372 34.2982 41.5831 34.4626 42.3312C34.5397 42.6809 34.182 43.1091 33.7863 43.1576C33.3299 43.2133 33.1911 42.9275 33.1685 42.5386C33.1613 42.4199 33.1675 42.2992 33.1675 42.1795L33.1685 42.1805Z" fill="#95C11F"/>
<path d="M23.1827 58.9678C23.8652 58.8718 24.5559 58.6551 25.2271 58.7046C27.0475 58.8388 28.7496 59.4692 30.4158 60.1853C30.4703 60.209 30.5124 60.2606 30.5597 60.2988C30.5463 60.3462 30.533 60.3937 30.5196 60.4401C29.8566 60.2998 29.1844 60.1915 28.5307 60.013C26.8881 59.5641 25.2662 59.0101 23.5198 59.2432C23.489 59.2474 23.4551 59.2236 23.4232 59.2133C23.343 59.1308 23.2618 59.0493 23.1816 58.9667L23.1827 58.9678Z" fill="#95C11F"/>
<path d="M50.7859 43.6426C50.7047 42.9761 50.5701 42.3106 50.5588 41.643C50.5495 41.0786 50.938 40.7825 51.3985 40.8671C51.7737 40.9362 51.9885 41.4181 51.6915 41.6213C51.0943 42.031 51.1097 42.6418 51.0049 43.2268C50.9812 43.3599 50.9699 43.4951 50.9524 43.6302L50.7849 43.6426H50.7859Z" fill="#95C11F"/>
<path d="M12.7002 48.4466C12.7002 47.6676 13.0928 47.097 13.6613 47.0248C14.0508 47.7914 14.13 48.5126 13.3488 49.0956C13.1329 48.8799 12.9171 48.6633 12.7012 48.4476L12.7002 48.4466Z" fill="#95C11F"/>
<path d="M22.5176 58.1619C24.2978 57.3107 25.9465 57.9689 27.5963 58.7593C27.401 58.751 27.1964 58.7758 27.0124 58.7263C26.5211 58.5942 26.038 58.4291 25.5508 58.2795C24.674 58.0113 23.7983 58.1062 22.9205 58.2775C22.7889 58.3032 22.6522 58.2991 22.5186 58.3094V58.1629L22.5176 58.1619Z" fill="#95C11F"/>
<path d="M11.4884 47.2177C11.3773 47.1104 11.2653 47.0031 11.1543 46.8958C11.3743 46.642 11.5685 46.3593 11.8183 46.1405C12.7146 45.3584 13.4485 44.4845 13.6109 43.2484C13.6171 43.1999 13.6438 43.1504 13.6715 43.1091C13.688 43.0844 13.726 43.073 13.8401 43.0039C13.8596 43.1865 13.9038 43.332 13.8864 43.4692C13.7949 44.1894 13.4495 44.792 12.9983 45.345C12.4905 45.9651 11.992 46.5935 11.4894 47.2177H11.4884Z" fill="#95C11F"/>
<path d="M23.1823 58.9678C23.2625 59.0503 23.3437 59.1318 23.4239 59.2144C22.5636 59.5126 21.7032 59.8118 20.8429 60.1079C20.5263 60.2173 20.2056 60.3173 19.887 60.4216L19.8325 60.2781C20.9488 59.8417 22.0651 59.4042 23.1823 58.9678Z" fill="#95C11F"/>
<path d="M25.7503 57.4283H22.7119C23.2999 57.0105 25.2209 57.0022 25.7503 57.4283Z" fill="#95C11F"/>
<path d="M23.1753 56.6813C23.7982 56.1902 24.3543 56.4471 25.009 56.6813H23.1753Z" fill="#95C11F"/>
<path d="M12.7002 48.4466C12.916 48.6622 13.1319 48.8789 13.3478 49.0946C13.1555 49.0863 12.8739 49.1503 12.7937 49.0512C12.6827 48.915 12.7238 48.654 12.7002 48.4466Z" fill="#95C11F"/>
</g>
<defs>
<clipPath id="clip0_282_20940">
<rect width="106" height="63" fill="white"/>
</clipPath>
</defs>
</svg>
