<svg width="112" height="97" viewBox="0 0 112 97" fill="none" xmlns="http://www.w3.org/2000/svg">
<g clip-path="url(#clip0_282_17574)">
<path d="M111.886 35.8081C111.862 34.8407 111.537 34.5988 110.563 34.5867C107.408 34.5444 104.252 34.5081 101.102 34.4779C100.483 34.4718 100.393 34.3811 100.399 33.7402C100.399 33.6495 100.393 33.5588 100.399 33.4741C100.471 32.8815 100.201 32.4764 99.7198 32.1801C99.3892 31.9806 99.3952 31.7992 99.7318 31.6178C100.627 31.1401 100.633 31.122 100.489 30.1364C100.417 29.6647 100.357 29.2052 99.9122 28.8908C99.4794 28.5824 99.4974 28.2135 99.9122 27.8689C100.916 27.0224 100.946 25.8735 99.9663 25.033C99.7378 24.8395 99.804 24.7307 99.9422 24.5251C100.135 24.253 100.333 23.9446 100.381 23.6302C100.501 22.826 99.6837 21.913 98.7941 21.8948C98.2411 21.8767 97.9106 21.6771 97.622 21.2055C97.1111 20.359 96.2936 19.8087 95.4521 19.3492C95.1155 19.1617 94.9773 19.0529 94.9773 18.6599C94.9352 13.2965 94.8751 7.93316 94.821 2.5698C94.821 2.45491 94.827 2.32793 94.8631 2.2191C95.1095 1.40885 94.857 0.979537 94.0215 0.90093C92.9636 0.798138 91.8997 0.689298 90.8358 0.671159C87.65 0.628832 84.4643 0.646972 81.2846 0.598599C80.1966 0.580459 79.4813 0.858604 78.9463 1.97118C77.636 4.68612 76.1273 7.30431 75.0273 10.1281C74.9311 10.376 74.8169 10.6118 74.6786 10.9323C74.5765 10.6481 74.4983 10.4546 74.4382 10.2611C73.9333 8.58015 73.4825 6.88709 72.9115 5.23032C72.3765 3.67633 71.7634 2.14049 71.0902 0.634879C70.7115 -0.211649 70.1525 -0.187463 69.6536 0.580459C69.5875 0.677205 69.5274 0.779998 69.4733 0.888837C68.3432 3.23493 67.2072 5.56893 66.1012 7.92107C65.6744 8.82806 65.3438 9.77738 64.9471 10.769C64.8629 10.5755 64.7968 10.4304 64.7367 10.2793C63.7269 7.84851 62.7351 5.41171 61.7073 2.99306C61.4608 2.41259 61.1122 1.86839 60.7756 1.32419C60.6073 1.0521 60.3428 0.870697 59.9821 0.95535C59.6395 1.03396 59.4171 1.23954 59.2969 1.5842C58.3532 4.24472 57.3915 6.90523 56.4357 9.5597C56.3816 9.70482 56.3215 9.84389 56.2194 10.0858C56.1232 9.84994 56.0631 9.71691 56.015 9.58389C55.0533 6.91128 54.0975 4.23867 53.1358 1.56606C52.8773 0.846511 52.162 0.707438 51.6872 1.30605C51.4467 1.60234 51.2364 1.94095 51.0861 2.29165C49.9741 4.88566 48.8861 7.49176 47.7861 10.0918C47.696 10.3034 47.5998 10.5151 47.4976 10.7569C47.4495 10.6904 47.4195 10.6662 47.4135 10.642C46.2955 7.21966 44.4742 4.11774 42.9655 0.870697C42.8873 0.713485 42.7851 0.568366 42.6889 0.4172C42.3403 -0.0967632 41.8534 -0.133043 41.5108 0.386967C41.2223 0.834418 40.9578 1.3121 40.7835 1.81397C40.0442 3.93029 39.3349 6.0587 38.6316 8.18712C38.3431 9.06388 38.0967 9.95878 37.7961 10.9746C37.6639 10.6904 37.6038 10.5453 37.5316 10.4002C36.4677 8.14479 35.4038 5.8894 34.3219 3.63401C34.0153 2.99306 33.5945 2.39445 33.3541 1.72932C33.0415 0.870697 32.4405 0.610692 31.635 0.616739C28.1247 0.634879 24.6143 0.640925 21.104 0.689298C20.1303 0.701392 19.1565 0.834418 18.1888 0.961397C17.6718 1.02791 17.4314 1.40885 17.4614 1.86234C17.5095 2.49119 17.5636 3.12609 17.5576 3.75494C17.5276 8.71922 17.4915 13.6775 17.4554 18.6417V19.1678C17.3112 19.2162 17.197 19.2585 17.0888 19.2948C15.7844 19.7483 14.6063 20.359 14.0232 21.7376C13.9812 21.8464 13.7648 21.9492 13.6386 21.9371C13.0976 21.8948 12.7249 22.1548 12.4604 22.572C12.3102 22.8139 12.244 23.1102 12.1659 23.3883C12.0096 23.9567 12.1539 24.3316 12.6528 24.646C12.8872 24.7912 13.1517 24.9 13.4402 25.0451C13.2659 25.1419 13.1096 25.1963 12.9834 25.293C12.232 25.8675 11.9615 26.2665 12.25 26.9498C12.4785 27.5 12.8632 27.887 13.4162 28.1168C13.5243 28.1591 13.6325 28.3103 13.6506 28.4191C13.6626 28.5038 13.5243 28.6187 13.4342 28.6912C13.356 28.7577 13.2478 28.7819 13.1577 28.8363C12.7489 29.0601 12.3162 29.2959 12.3402 29.8461C12.3643 30.481 12.4484 31.0978 13.1397 31.4122C13.2659 31.4666 13.3921 31.6601 13.4101 31.8052C13.4222 31.908 13.2659 32.0653 13.1517 32.1318C12.7069 32.3857 12.4664 32.7425 12.4965 33.2564C12.5145 33.5346 12.5326 33.8127 12.5566 34.1695C12.2621 34.1876 11.9856 34.2239 11.7031 34.2239C9.2266 34.2239 6.75614 34.2178 4.27967 34.242C3.15565 34.2541 2.03162 34.3267 0.913602 34.3992C0.384648 34.4355 0.10815 34.7379 0.0540521 35.276C0.00596539 35.7476 -0.0421213 36.2253 -0.0361105 36.703C0.00596538 39.3212 0.0660738 41.9394 0.132193 44.5636C0.144215 45.0957 0.150226 45.6339 0.228366 46.166C0.312518 46.7646 0.504865 47.3451 0.589017 47.9497C0.709234 48.8084 1.38245 49.5098 2.25402 49.5823C2.84308 49.6307 3.43214 49.6549 4.02722 49.6851C4.64633 49.7093 4.65235 49.7033 4.63431 50.3079C4.56819 52.1824 4.44197 54.0629 4.42994 55.9373C4.39989 65.6966 4.38787 75.4558 4.38787 85.2212C4.38787 86.9203 4.44798 88.6133 4.5141 90.3124C4.53213 90.7296 4.62229 91.165 4.77857 91.558C4.94087 91.9752 5.19933 92.3622 5.45179 92.7371C5.93265 93.4627 6.4015 94.2064 6.94248 94.8897C7.36323 95.4158 7.90421 95.8511 8.36705 96.353C8.64956 96.6674 8.97414 96.8065 9.38288 96.8186C10.3146 96.8367 11.2462 96.8791 12.1779 96.8912C15.2434 96.9274 18.309 96.9758 21.3805 96.9758C38.3431 96.9939 55.2997 96.9939 72.2623 97C82.7632 97 93.2702 97.006 103.771 97.0181C104.438 97.0181 104.973 96.867 105.202 96.1595C105.226 96.0809 105.304 96.0144 105.37 95.9539C106.212 95.2465 106.813 94.3455 107.402 93.4325C108.003 92.5073 108.213 91.5157 108.213 90.4273C108.201 79.9787 108.213 69.5362 108.201 59.0876C108.201 56.675 108.147 54.2624 108.123 51.8498C108.117 51.1726 108.123 50.4893 108.123 49.7879H111.032C111.255 49.0563 111.543 48.3609 111.663 47.6353C111.832 46.5772 111.964 45.5069 111.964 44.4427C111.976 41.5645 111.928 38.6924 111.856 35.8202L111.886 35.8081ZM92.9035 19.071C92.2604 19.3371 91.6953 19.5608 91.1423 19.7966C90.3189 20.1534 89.7298 20.7762 89.3511 21.5804C89.2249 21.8525 89.0686 21.9432 88.7861 21.9674C87.8184 22.0399 87.067 23.1223 87.3856 24.0474C87.4757 24.3014 87.7342 24.5191 87.9506 24.6944C88.1429 24.8456 88.3954 24.9181 88.6118 25.0209C88.3052 25.2628 87.9987 25.4805 87.7282 25.7405C87.3194 26.1275 87.2714 26.4782 87.4938 26.9921C87.7102 27.488 88.0528 27.8568 88.5577 28.0805C88.6959 28.141 88.8402 28.2861 88.8763 28.4191C88.8943 28.4977 88.7019 28.6368 88.5877 28.7336C88.5216 28.788 88.4315 28.8122 88.3533 28.8605C87.9626 29.0843 87.5479 29.3201 87.5719 29.8461C87.5959 30.475 87.6741 31.0978 88.3653 31.4183C88.4916 31.4787 88.6178 31.6601 88.6358 31.8052C88.6478 31.908 88.4976 32.0773 88.3834 32.1318C87.7582 32.4522 87.6801 33.0025 87.7222 33.6132C87.7342 33.7583 87.7582 33.9034 87.7883 34.0848H25.2876C25.2876 33.849 25.2876 33.6857 25.2876 33.5225C25.2635 32.9541 25.0411 32.4946 24.5362 32.1862C24.1816 31.9746 24.1996 31.8052 24.5663 31.6118C24.6444 31.5694 24.7225 31.5271 24.8007 31.4848C25.2214 31.255 25.4559 31.001 25.3356 30.4206C25.1974 29.7675 25.1493 29.1568 24.5242 28.7336C24.3258 28.6005 24.3198 28.2135 24.6023 27.9656C24.8307 27.7601 25.0592 27.5363 25.2214 27.2763C25.7384 26.454 25.6121 25.7223 24.8548 25.1116C24.6083 24.9121 24.5182 24.7851 24.7766 24.5191C25.1974 24.1018 25.3777 23.5576 25.1373 23.0074C24.8668 22.3846 24.3138 21.9795 23.6646 21.9251C23.0636 21.8767 22.7149 21.653 22.3963 21.1632C21.8253 20.2925 20.9898 19.718 20.0161 19.3734C19.7155 19.2706 19.6013 19.1436 19.6073 18.811C19.6253 15.4431 19.6314 12.0751 19.6133 8.70713C19.6133 6.84477 19.5592 4.9824 19.5292 3.12004C19.5292 2.99306 19.5292 2.86004 19.5292 2.67259C19.9559 2.69678 20.3466 2.72097 20.7434 2.72701C24.2838 2.77539 27.8181 2.82376 31.3645 2.84794C31.7492 2.84794 31.9295 2.96283 32.0798 3.31958C33.4503 6.56662 34.7967 9.82575 36.4737 12.9277C36.7262 13.3933 37.0327 13.8468 37.3874 14.2398C37.8382 14.7417 38.4633 14.6812 38.7278 14.0826C38.9502 13.5807 39.2688 13.1212 39.4311 12.6072C40.3207 9.84994 41.1742 7.07454 42.0458 4.30518C42.0939 4.15402 42.148 4.00285 42.2381 3.74285C42.4665 4.23262 42.6589 4.61961 42.8332 5.02473C43.7829 7.20152 44.7146 9.3904 45.6763 11.5672C46.025 12.3532 46.4397 13.1091 46.8485 13.8709C46.9687 14.1007 47.1791 14.2882 47.3834 14.4635C47.8823 14.8928 48.3572 14.6933 48.5195 14.0523C48.6096 13.7016 48.82 13.3812 48.9522 13.0365C49.6976 11.0895 50.4369 9.14853 51.1642 7.19547C51.4588 6.4215 51.7232 5.62939 52.0358 4.74054C52.138 5.05496 52.2041 5.28474 52.2883 5.50846C53.226 8.10851 54.1697 10.7086 55.1134 13.3026C55.2636 13.7198 55.3838 14.143 55.5762 14.5361C55.7625 14.9291 56.2795 14.9714 56.562 14.6389C56.9046 14.2337 57.2172 13.8407 57.3975 13.3026C58.3412 10.5634 59.345 7.84246 60.3248 5.11543C60.3548 5.01868 60.3969 4.92194 60.463 4.74659C60.5351 4.95217 60.5832 5.07915 60.6313 5.21218C61.5209 7.63083 62.4045 10.0434 63.2941 12.456C63.5285 13.0788 63.793 13.6895 64.0455 14.3003C64.2078 14.6812 64.6586 14.8142 65.0072 14.524C65.2837 14.2942 65.5722 14.0161 65.7225 13.6956C66.7263 11.5611 67.7001 9.40854 68.6738 7.25594C69.1908 6.12522 69.6896 4.9824 70.2547 3.71261C70.3508 4.0089 70.4109 4.1782 70.4711 4.34751C71.3607 7.17128 72.2322 10.0011 73.1459 12.8128C73.3142 13.3268 73.6207 13.7984 73.9032 14.264C74.1317 14.6389 74.5945 14.7114 74.9431 14.3668C75.3398 13.9798 75.7185 13.5323 75.959 13.0365C77.0289 10.8658 78.0567 8.6648 79.0726 6.46987C79.5775 5.37543 80.0403 4.26286 80.4911 3.15028C80.6114 2.84794 80.8037 2.85399 81.0501 2.85399C83.3583 2.85399 85.6725 2.86608 87.9866 2.83585C89.4653 2.81771 90.944 2.73306 92.4226 2.67864C92.597 2.67864 92.7713 2.67864 92.9095 2.67864V19.071H92.9035Z" fill="#95C11F"/>
<path d="M57.5599 49.7395H105.677V50.2837C105.677 54.5949 105.514 58.9122 105.713 63.2114C106.049 70.5399 105.899 77.8684 105.947 85.1969C105.959 86.6542 105.899 88.1174 105.875 89.5807C105.875 89.7077 105.857 89.8407 105.845 90.0524H57.632C57.2232 76.6409 57.7282 63.1993 57.5538 49.7455L57.5599 49.7395ZM85.7868 59.8313C85.5043 59.9039 85.2218 59.8918 84.9453 59.9039C84.4464 59.9341 84.0977 60.2909 84.0797 60.7988C84.0737 61.0165 84.0977 61.2402 84.1097 61.4639C84.1638 62.5463 84.248 63.6347 84.254 64.723C84.254 65.3035 84.3382 65.4547 84.9092 65.3942C85.0414 65.3761 85.1737 65.3882 85.3059 65.3882C89.2731 65.4365 93.2402 65.4728 97.2134 65.5272C97.8145 65.5272 98.4155 65.5635 99.0166 65.5998C99.4855 65.624 99.6237 65.5031 99.6538 65.0254C99.6778 64.5779 99.7439 64.1365 99.7319 63.6891C99.7079 62.5584 99.6658 61.4276 99.6057 60.2969C99.6057 60.2123 99.4194 60.0913 99.3112 60.0792C98.5478 59.9825 97.7844 59.8555 97.015 59.8495C93.2703 59.8253 89.5315 59.8374 85.7868 59.8374V59.8313Z" fill="white"/>
<path d="M6.93058 49.8605C23.1298 49.8121 39.2689 49.7698 55.3539 49.7214C55.3539 56.4453 55.3239 63.1752 55.3599 69.9051C55.402 76.6289 55.5162 83.3528 55.6004 90.131H55.2097C48.8562 90.131 42.5027 90.1552 36.1493 90.131C34.6105 90.131 33.0717 89.9617 31.533 89.9315C28.9603 89.8771 26.3817 89.8771 23.803 89.8348C18.8741 89.7562 13.9392 89.6594 9.01033 89.5627C8.86006 89.5627 8.69175 89.4659 8.55952 89.3813C8.42127 89.2966 8.30706 89.1696 8.18083 89.0608C8.07865 89.212 7.97045 89.351 7.83822 89.5385C7.20107 89.6534 7.20107 89.6534 7.15899 88.9338C7.03877 86.8538 6.8885 84.7737 6.81036 82.6937C6.78632 82.1495 7.01473 81.5993 7.05681 81.043C7.165 79.4829 7.32128 77.9169 7.29724 76.3629C7.26118 73.1037 7.13495 69.8446 7.02074 66.5855C6.91856 63.6105 6.91255 60.6356 7.00872 57.6486C7.09888 55.1936 6.97265 52.7327 6.9426 50.2777C6.9426 50.1326 6.92457 49.9875 6.91856 49.8726L6.93058 49.8605ZM23.6167 59.8253V59.0937C23.6167 57.9569 23.6167 56.8262 23.6047 55.6955C23.6047 55.4476 23.6167 55.1513 23.262 55.1211C22.8533 55.0848 22.4385 55.0485 22.0238 55.0606C20.8998 55.0727 19.7757 55.1332 18.6517 55.1211C18.2189 55.1211 18.0566 55.2904 18.0266 55.6774C17.9965 56.1974 17.9485 56.7174 17.9424 57.2374C17.9304 58.1262 17.9424 59.0091 17.9424 59.9402H17.3955C16.1632 59.9281 14.937 59.904 13.7108 59.916C12.9354 59.9281 12.8332 59.9463 12.7851 60.6295C12.683 62.111 12.683 63.5924 12.6589 65.0799C12.6589 65.4366 12.8633 65.5817 13.242 65.5757C14.6605 65.5394 16.0851 65.5515 17.5036 65.5092C17.9004 65.4971 18.0506 65.5878 18.0326 66.0231C17.9845 67.3594 17.9725 68.7018 17.9545 70.0381C17.9424 70.933 17.9905 70.9753 18.8621 70.9693C20.1484 70.9572 21.4347 70.9209 22.7211 70.9149C23.0396 70.9149 23.1899 70.7637 23.232 70.4856C23.3161 69.9716 23.4303 69.4576 23.4484 68.9437C23.4844 68.0971 23.4484 67.2446 23.4664 66.398C23.4844 65.4729 23.2921 65.5455 24.3139 65.5515C25.4259 65.5576 26.5319 65.5515 27.6439 65.5092C27.9986 65.4971 28.4855 65.4245 28.5035 64.9952C28.5456 63.5863 28.5215 62.1654 28.4794 60.7565C28.4734 60.5389 28.3051 60.2244 28.1248 60.1458C27.7281 59.9765 27.2833 59.8556 26.8565 59.8374C25.7986 59.7951 24.7287 59.8253 23.6167 59.8253Z" fill="white"/>
<path d="M92.9637 39.7747C91.8456 40.4882 90.7637 41.1413 89.7298 41.8548C88.6899 42.5683 87.7102 43.3543 86.6823 44.092C86.508 44.219 86.2616 44.3157 86.0512 44.3157C76.4819 44.3278 66.9187 44.3278 57.3494 44.3218C57.2172 44.3218 57.091 44.3097 56.9888 44.3036V39.7022H87.9386C87.7462 39.8956 87.5118 39.9803 87.3135 40.1133C85.7446 41.1715 84.1758 42.2417 82.607 43.312C82.5228 43.3725 82.4146 43.4329 82.3846 43.5236C82.3365 43.6506 82.2884 43.838 82.3425 43.9227C82.3966 44.0013 82.5889 43.9953 82.7272 44.0074C82.7753 44.0134 82.8294 43.959 82.8775 43.9287C84.3561 42.9311 85.8408 41.9515 87.3014 40.9357C87.7523 40.6212 88.1369 40.2282 88.5637 39.8775C88.6779 39.7808 88.8462 39.6961 88.9905 39.6961C90.2468 39.6901 91.509 39.6961 92.7653 39.7022C92.8074 39.7022 92.8434 39.7263 92.9637 39.7687V39.7747Z" fill="white"/>
<path d="M55.913 44.3097H26.2495C26.6162 42.8888 26.7364 41.4678 26.7123 40.0348C26.7123 39.6236 26.9468 39.6659 27.2052 39.6659C30.391 39.672 33.5707 39.678 36.7565 39.684C42.9476 39.684 49.1388 39.684 55.33 39.678C55.913 39.678 55.913 39.678 55.913 40.2524V44.3037V44.3097Z" fill="white"/>
<path d="M25.8524 44.3158H12.0996V39.678C12.2799 39.6719 12.4362 39.6538 12.5925 39.6538C16.8542 39.6538 21.1219 39.6599 25.3836 39.6659C25.9606 39.6659 25.9726 39.6659 25.9546 40.2524C25.9306 41.099 25.8825 41.9455 25.8584 42.7981C25.8464 43.2818 25.8584 43.7716 25.8584 44.3097L25.8524 44.3158Z" fill="white"/>
<path d="M3.17969 37.9788V37.1867C3.77476 37.1867 4.37585 37.1867 4.97092 37.1867C7.59165 37.2109 10.2064 37.2411 12.8271 37.2532C13.8008 37.2532 14.7806 37.217 15.7544 37.1686C18.8439 37.0235 21.9275 36.83 25.0171 36.7211C27.175 36.6425 29.3389 36.6667 31.5028 36.6425C35.0852 36.6002 38.6677 36.5276 42.2562 36.5095C46.7102 36.4914 51.1702 36.5095 55.6303 36.5216C55.7205 36.5216 55.8046 36.5397 55.9188 36.5458C55.9188 36.9328 55.9429 37.3137 55.9008 37.6886C55.8888 37.7672 55.6243 37.8639 55.48 37.8639C53.7309 37.876 51.9877 37.87 50.2386 37.876C37.5316 37.8821 24.8247 37.8942 12.1178 37.9063C10.4588 37.9063 8.79982 37.9607 7.14083 37.9788C5.83648 37.9909 4.53213 37.9788 3.17969 37.9788Z" fill="white"/>
<path d="M103.699 37.1143C103.753 37.8338 103.753 37.8399 103.182 37.8399C90.1926 37.852 77.2092 37.864 64.2198 37.8701C62.0018 37.8701 59.7778 37.864 57.5598 37.8822C57.139 37.8822 56.9587 37.7794 57.0128 37.344C57.0368 37.0961 57.0128 36.8422 57.0128 36.5701C72.5869 36.5519 88.1369 36.6547 103.699 37.1203V37.1143Z" fill="white"/>
<path d="M57.3193 93.2329V92.1204H94.6947C94.4002 92.3139 94.1838 92.5618 93.9374 92.598C93.4144 92.6827 92.8614 92.846 92.3445 92.5073C92.2724 92.459 92.1461 92.4832 92.05 92.5013C91.7254 92.5618 91.4068 92.6766 91.0762 92.6887C87.5719 92.8097 84.0616 92.9185 80.5572 93.0274C80.0403 93.0455 79.5234 93.0334 79.0004 93.0455C76.3376 93.0818 73.6688 93.1241 71.006 93.1664C70.7716 93.1664 70.5372 93.1664 70.3088 93.1664C70.3208 92.985 70.3328 92.8339 70.3388 92.6706C70.1465 92.7129 69.888 92.6887 69.7738 92.8097C69.353 93.2571 68.8301 93.2208 68.2951 93.2208C64.8329 93.2208 61.3646 93.2269 57.8964 93.239H57.3193V93.2329Z" fill="white"/>
<path d="M97.7122 40.1375C97.4297 40.1859 97.1713 40.1677 96.9729 40.2645C95.8789 40.8147 94.7669 41.3468 93.715 41.9757C92.579 42.6468 91.503 43.4087 90.3971 44.1343C90.2768 44.219 90.1326 44.3157 90.0064 44.3157C89.2129 44.3339 88.4195 44.3278 87.584 44.2311C87.7403 44.1162 87.8965 43.9832 88.0588 43.8804C89.7479 42.7738 91.4369 41.6794 93.126 40.5789C93.1981 40.5305 93.2883 40.4942 93.3484 40.4277C94.0396 39.7203 94.9052 39.6477 95.8369 39.6719C97.5379 39.7142 99.245 39.684 100.946 39.684H101.373C101.331 39.7566 101.319 39.8049 101.289 39.8231C99.1849 41.1533 97.0691 42.4655 94.9833 43.8259C94.4784 44.1525 93.9976 44.3762 93.3784 44.3339C92.8074 44.2915 92.2304 44.3278 91.6293 44.2432C91.7435 44.1706 91.8577 44.092 91.9719 44.0194C93.6129 43.0338 95.2598 42.0664 96.8948 41.0687C97.2194 40.8691 97.6221 40.7119 97.7062 40.1315L97.7122 40.1375Z" fill="white"/>
<path d="M3.16162 44.479V39.5269H5.7583C5.71623 41.0808 5.54792 42.5864 5.83645 44.08C6.50365 42.6469 6.17906 41.0869 6.46157 39.6115H7.98232C7.95226 40.0711 7.92822 40.5004 7.89215 40.9236C7.808 41.9636 7.72986 43.0037 7.62167 44.0376C7.60964 44.1465 7.46538 44.3339 7.37522 44.34C6.02879 44.4125 4.68837 44.4609 3.34195 44.5093C3.28785 44.5093 3.23375 44.4911 3.16763 44.479H3.16162Z" fill="white"/>
<path d="M55.7988 93.8618V94.8293C55.6425 94.8353 55.4802 94.8474 55.3299 94.8474C52.2524 94.8474 49.1748 94.8535 46.0973 94.8414C45.8749 94.8414 45.6284 94.7144 45.4361 94.5874C45.0394 94.3092 44.6787 93.9888 44.3301 93.7106C45.1776 93.7106 46.0191 93.7046 46.8667 93.7288C46.9809 93.7288 47.0951 93.892 47.1972 93.9888C47.4196 94.2065 47.618 94.4544 47.8705 94.6297C47.9967 94.7204 48.2792 94.7567 48.3814 94.6721C48.4776 94.5934 48.4655 94.3334 48.4535 94.152C48.4475 94.0493 48.3573 93.9525 48.3153 93.8618H55.7988Z" fill="white"/>
<path d="M95.8667 44.219C96.9186 43.5297 97.9645 42.8343 99.0164 42.1571C100.074 41.4799 101.15 40.8208 102.202 40.1315C102.491 39.944 102.719 39.6236 103.128 39.7203C103.302 39.7626 103.603 39.8412 103.609 39.9138C103.627 40.2161 103.777 40.5668 103.374 40.7845C102.929 41.0203 102.497 41.2743 102.082 41.5585C100.874 42.3869 99.6896 43.2455 98.4754 44.0799C98.271 44.219 98.0005 44.3037 97.7541 44.3158C97.141 44.352 96.5159 44.3278 95.9028 44.3278C95.8907 44.2855 95.8787 44.2492 95.8667 44.213V44.219Z" fill="white"/>
<path d="M47.083 92.0538H55.7807V93.1664C55.6545 93.1785 55.5282 93.2027 55.402 93.2027C53.1059 93.1664 50.8097 93.0818 48.5196 93.112C47.7081 93.118 47.3896 92.7311 47.083 92.0538Z" fill="white"/>
<path d="M57.3255 94.8474C57.3134 94.7023 57.3014 94.6116 57.2954 94.527C57.2954 94.3516 57.2954 94.1763 57.2954 93.9949H66.7685C66.5601 94.5592 66.1935 94.8414 65.6685 94.8414C63.0658 94.8414 60.4631 94.8414 57.8544 94.8474H57.3255Z" fill="white"/>
<path d="M88.9844 33.329C89.345 33.2988 89.7177 33.2202 90.0784 33.2504C92.8373 33.4621 95.5783 33.196 98.3192 32.9904C98.728 32.9602 99.1006 33.3774 99.1788 34.0486H98.6618C96.1313 34.0546 93.6007 34.0607 91.0701 34.0728C90.6253 34.0728 90.1865 34.1212 89.7417 34.1332C89.0625 34.1574 89.0265 34.1151 88.9904 33.329H88.9844Z" fill="white"/>
<path d="M13.7707 33.323C14.1974 33.2988 14.5881 33.2565 14.9848 33.2504C16.8783 33.2141 18.7657 33.196 20.6591 33.1416C21.5006 33.1174 22.3361 33.0327 23.1776 32.9844C23.5503 32.9602 23.929 33.462 23.9711 34.0486H23.4421C20.9296 34.0486 18.411 34.0607 15.8925 34.0667C15.4477 34.0667 15.0089 34.1151 14.5641 34.1332C13.8728 34.1574 13.8668 34.1453 13.7646 33.323H13.7707Z" fill="white"/>
<path d="M14.0352 29.822C14.9548 29.822 15.8384 29.8341 16.722 29.822C19.0181 29.7857 21.3083 29.7313 23.6044 29.701C23.7306 29.701 23.917 29.8704 23.9711 30.0094C24.0372 30.1727 23.9891 30.3843 23.9891 30.5657C23.5804 30.5657 23.2017 30.5597 22.823 30.5657C20.1903 30.6262 17.5575 30.6867 14.9248 30.7411C14.4078 30.7532 14.0712 30.4508 14.0352 29.822Z" fill="white"/>
<path d="M99.1789 30.6564C97.4537 30.6564 95.7707 30.6443 94.0937 30.6564C92.7473 30.6685 91.4008 30.7169 90.0544 30.735C89.5795 30.7411 89.249 30.4025 89.255 29.9429C90.0183 29.9006 90.7877 29.8462 91.5511 29.822C93.9795 29.7676 96.4018 29.7192 98.8302 29.689C98.9444 29.689 99.1308 29.8522 99.1668 29.9792C99.2269 30.1667 99.1789 30.3843 99.1789 30.6504V30.6564Z" fill="white"/>
<path d="M13.2959 23.1162C13.9451 23.1525 14.5642 23.213 15.1833 23.213C17.1488 23.213 19.1204 23.1767 21.0859 23.1585C21.8433 23.1525 22.5947 23.1404 23.352 23.1283C23.6045 23.1283 23.7307 23.1948 23.7367 23.479C23.7367 23.7692 23.5684 23.7813 23.3641 23.7874C20.3646 23.872 17.3592 23.9567 14.3538 24.0353C13.8549 24.0474 13.4822 23.7269 13.3019 23.1223L13.2959 23.1162Z" fill="white"/>
<path d="M88.4977 23.1162C89.1529 23.1525 89.766 23.213 90.3851 23.213C92.3687 23.2069 94.3523 23.1767 96.3298 23.1525C97.0692 23.1464 97.8085 23.1404 98.5539 23.1223C98.8063 23.1223 98.9325 23.1948 98.9325 23.479C98.9325 23.7692 98.7582 23.7753 98.5539 23.7813C95.5484 23.866 92.549 23.9506 89.5436 24.0293C89.0447 24.0413 88.672 23.7148 88.4917 23.1162H88.4977Z" fill="white"/>
<path d="M13.6084 26.3391C14.3237 26.3391 15.0209 26.3451 15.7122 26.3391C17.8881 26.3089 20.064 26.2726 22.24 26.2363C22.5766 26.2363 22.9132 26.1698 23.2558 26.1517C23.4301 26.1396 23.6345 26.1214 23.7727 26.194C23.8929 26.2605 23.9771 26.4479 24.0132 26.5931C24.0252 26.6354 23.8208 26.7926 23.7126 26.8047C22.9012 26.8772 22.0897 26.9196 21.2782 26.98C20.9837 27.0042 20.6771 26.9921 20.4006 27.0707C19.3968 27.361 18.405 27.0889 17.4072 27.0526C16.3734 27.0163 15.3395 26.9438 14.3057 26.8772C13.9931 26.8591 13.6324 26.8591 13.6084 26.333V26.3391Z" fill="white"/>
<path d="M88.804 26.3512C89.4291 26.3512 90.0002 26.3572 90.5772 26.3512C92.663 26.3149 94.7487 26.2786 96.8345 26.2423C97.3514 26.2302 97.8684 26.1819 98.3793 26.1637C98.5836 26.1577 98.806 26.1395 98.9864 26.2121C99.0946 26.2544 99.1968 26.4479 99.2088 26.5749C99.2088 26.6475 99.0345 26.7986 98.9263 26.8107C98.1028 26.8833 97.2793 26.9316 96.4498 26.9921C96.1673 27.0163 95.8788 27.0103 95.6143 27.0828C94.6165 27.361 93.6187 27.107 92.6209 27.0647C91.575 27.0223 90.5231 26.9558 89.4772 26.8893C89.1767 26.8712 88.8341 26.8591 88.792 26.3572L88.804 26.3512Z" fill="white"/>
<path d="M9.98983 39.6296C9.91168 41.1534 9.83955 42.6046 9.74939 44.0557C9.74338 44.1525 9.59311 44.3157 9.50295 44.3157C9.04612 44.3399 8.5893 44.3339 8.12646 44.3339C8.23466 43.1004 8.34887 41.9092 8.45706 40.718C8.51116 40.325 8.47509 39.7385 8.63138 39.678C9.01607 39.5329 9.49093 39.6296 9.99584 39.6296H9.98983Z" fill="white"/>
<path d="M39.7676 92.0417C40.5189 92.0417 41.12 92.0357 41.7211 92.0538C41.8053 92.0538 41.9435 92.1627 41.9615 92.2413C42.1839 93.239 42.9052 93.8678 43.6085 94.5088C43.6987 94.5874 43.7768 94.666 43.873 94.7567C42.9714 95.1316 41.691 94.7567 41.2402 93.898C41.084 93.6078 40.8676 93.4748 40.6752 93.2692C40.3687 92.9366 40.1282 92.5376 39.7736 92.0417H39.7676Z" fill="white"/>
<path d="M95.9691 21.8284H90.7036C91.2746 21.0726 92.1162 20.873 92.9036 20.7279C94.0697 20.5163 95.1576 20.7702 95.9631 21.8284H95.9691Z" fill="white"/>
<path d="M20.8939 21.8163H15.5142C16.0792 21.0786 16.9207 20.879 17.7141 20.7339C18.8742 20.5223 19.9682 20.7763 20.8939 21.8163Z" fill="white"/>
<path d="M11.3422 44.3157H10.2783C10.3565 42.7677 10.4286 41.238 10.5067 39.6719H11.3422V44.3157Z" fill="white"/>
<path d="M103.567 41.5403C103.699 42.2175 103.669 42.6771 103.092 42.9794C102.81 43.1245 102.533 43.324 102.305 43.5538C101.535 44.3338 100.61 44.491 99.4556 44.2552C100.844 43.3361 102.166 42.4594 103.567 41.5403Z" fill="white"/>
<path d="M19.1628 93.7167C19.8961 93.8316 20.6655 93.5534 21.3628 94.0613C21.7234 94.3213 21.8316 94.2427 21.9458 93.8134C22.4447 93.7167 22.8655 93.8074 23.2141 94.2246C23.4004 94.4423 23.6649 94.5995 23.9474 94.8232C23.7911 94.8474 23.683 94.8716 23.5748 94.8716C22.5229 94.8716 21.477 94.8897 20.4251 94.8655C20.2508 94.8655 20.0584 94.7385 19.9202 94.6176C19.6316 94.3758 19.3672 94.0976 19.0967 93.8436C19.1207 93.8013 19.1388 93.759 19.1628 93.7227V93.7167Z" fill="white"/>
<path d="M33.7928 94.8534C33.39 95.0046 33.0354 94.7325 32.6507 94.5088C31.6108 93.9162 30.9076 92.985 30.042 92.0297C30.6611 92.0297 31.154 92.0236 31.6529 92.0297C31.725 92.0297 31.8152 92.1022 31.8573 92.1687C32.5064 93.0636 33.1496 93.9585 33.7928 94.8474V94.8534Z" fill="white"/>
<path d="M31.5869 94.8414C31.064 94.92 30.523 94.9139 30.0662 94.3879C29.3629 93.5716 28.5995 92.8097 27.8662 92.0297C28.2629 92.0297 28.7318 92.0297 29.2066 92.0297C29.2607 92.0297 29.3329 92.1022 29.3749 92.1566C30.1143 93.0515 30.8536 93.9525 31.5869 94.8414Z" fill="white"/>
<path d="M42.9593 92.0358C43.9451 92.0358 44.9369 92.0358 45.9227 92.0479C46.0189 92.0479 46.1391 92.1809 46.1992 92.2776C46.3254 92.4953 46.4156 92.7311 46.5418 93.0214C45.9407 93.0576 45.3877 93.0939 44.8407 93.1242C44.7806 93.1242 44.7205 93.1242 44.6604 93.1362C44.3719 93.1604 43.9932 93.3116 43.8069 93.1786C43.4462 92.9307 43.1877 92.5255 42.8872 92.1809C42.9113 92.1325 42.9293 92.0902 42.9533 92.0418L42.9593 92.0358Z" fill="white"/>
<path d="M76.6982 46.9218C77.3294 46.825 77.9605 46.686 78.6037 46.6437C79.4272 46.5953 80.2627 46.6195 81.0922 46.6437C81.2364 46.6437 81.3747 46.7888 81.531 46.8371C81.7293 46.8976 81.9938 47.0306 82.126 46.9581C83.1839 46.3836 84.308 46.7404 85.3959 46.6195C85.414 46.6678 85.432 46.7162 85.444 46.7646C85.2096 46.8492 84.9752 46.9883 84.7347 47.0064C83.6588 47.0669 82.5768 47.1032 81.5009 47.1092C80.0162 47.1274 78.5376 47.1274 77.0589 47.1274C76.9447 47.1274 76.8365 47.1092 76.7223 47.1032C76.7223 47.0427 76.7223 46.9823 76.7103 46.9218H76.6982Z" fill="white"/>
<path d="M46.0733 46.8372C45.7667 46.9279 45.4662 47.1033 45.1656 47.1033C43.1821 47.1154 41.1985 47.0972 39.2149 47.0851C39.0706 47.0851 38.9264 47.067 38.7821 47.061C38.7641 47.0186 38.7461 46.9763 38.728 46.934C38.9384 46.8372 39.1548 46.6558 39.3712 46.6498C41.5171 46.6316 43.6629 46.6377 45.8088 46.6377C45.8809 46.6377 45.947 46.6498 46.0252 46.6558C46.0432 46.7163 46.0552 46.7768 46.0733 46.8372Z" fill="white"/>
<path d="M9.19075 93.6804C9.90604 93.6804 10.6334 93.6018 11.3306 93.7106C11.6492 93.759 11.9197 94.1702 12.2022 94.4241C12.3464 94.5572 12.4667 94.7023 12.671 94.9321C11.9137 94.9744 11.2945 95.0046 10.6814 95.0167C10.5492 95.0167 10.3869 94.9562 10.2847 94.8655C9.882 94.5088 9.4973 94.1339 9.10059 93.7711C9.13064 93.7348 9.15468 93.7046 9.18474 93.6744L9.19075 93.6804Z" fill="white"/>
<path d="M34.8571 92.0357C35.4161 92.0357 35.8669 92.0236 36.3237 92.0417C36.4079 92.0417 36.5461 92.1566 36.5642 92.2352C36.8046 93.1785 37.3997 93.898 38.0248 94.5995C38.0609 94.6418 38.1029 94.6841 38.133 94.7385C38.145 94.7567 38.133 94.7869 38.139 94.8655C36.7565 94.2911 35.6866 93.4022 34.8511 92.0357H34.8571Z" fill="white"/>
<path d="M40.429 94.8716C40.1946 94.8414 39.9481 94.8898 39.8159 94.787C38.8602 94.0553 38.0547 93.1846 37.3755 92.0418C37.8443 92.0418 38.217 92.0357 38.5897 92.0478C38.6678 92.0478 38.794 92.1385 38.8121 92.2111C39.1006 93.1786 39.7197 93.9344 40.3569 94.6781C40.3809 94.7084 40.3869 94.7567 40.429 94.8716Z" fill="white"/>
<path d="M36.0111 94.92C35.7346 94.8293 35.422 94.793 35.1816 94.6419C34.1778 93.9888 33.3904 93.1181 32.645 92.0418C33.1139 92.0418 33.4865 92.0237 33.8592 92.0479C33.9434 92.0539 34.0516 92.1688 34.0936 92.2534C34.2679 92.5981 34.4242 92.9488 34.5985 93.3358C34.5625 93.36 34.4843 93.3963 34.4302 93.4507C34.3761 93.5111 34.292 93.6079 34.31 93.6563C34.3401 93.7349 34.4483 93.8497 34.5144 93.8437C35.2537 93.7711 35.5543 94.4302 36.0532 94.7507C36.0351 94.8051 36.0171 94.8656 35.9991 94.92H36.0111Z" fill="white"/>
<path d="M96.6906 94.8051C97.1955 94.4907 97.7244 94.1581 98.2594 93.8376C98.3315 93.7893 98.4277 93.7711 98.5119 93.7711C99.2151 93.7711 99.9244 93.7711 100.658 93.7711C99.6659 94.666 98.1031 95.0651 96.6846 94.8111L96.6906 94.8051Z" fill="white"/>
<path d="M104.637 92.2292C104.493 92.3017 104.354 92.4348 104.204 92.4408C102.731 92.5073 101.253 92.5557 99.78 92.6041C99.7259 92.6041 99.6778 92.5799 99.5576 92.4469C99.762 92.3199 99.9603 92.078 100.165 92.078C101.583 92.0478 103.002 92.0659 104.42 92.072C104.474 92.072 104.529 92.0962 104.589 92.1082C104.607 92.1506 104.619 92.1929 104.637 92.2352V92.2292Z" fill="white"/>
<path d="M18.9944 94.8172C17.7442 95.2344 16.9508 94.6177 16.2114 93.7046C16.7644 93.7046 17.3355 93.5656 17.7803 93.747C18.2371 93.9344 18.5737 94.4302 18.9944 94.8172Z" fill="white"/>
<path d="M22.5827 91.9753C23.1657 91.9753 23.6947 91.9692 24.2176 91.9813C24.3138 91.9813 24.434 92.072 24.4881 92.1567C24.6504 92.4167 24.7947 92.6888 24.9449 92.9669C23.7187 93.3055 23.1657 93.0818 22.5767 91.9753H22.5827Z" fill="white"/>
<path d="M7.89229 91.8907C8.46332 91.8907 9.0644 91.7939 9.60538 91.9269C9.96603 92.0176 10.2425 92.4288 10.5551 92.7009C10.5371 92.7432 10.519 92.7856 10.495 92.8279C9.85784 92.8279 9.19664 92.9125 8.58354 92.7856C8.28901 92.7311 8.07262 92.2776 7.82617 92.0056C7.85022 91.9632 7.87426 91.9269 7.8983 91.8907H7.89229Z" fill="white"/>
<path d="M98.8364 92.0539C98.6441 92.4651 98.4157 92.6223 98.037 92.6162C97.1714 92.592 96.3119 92.6102 95.3682 92.6102C95.6687 92.2534 95.9151 92.0357 96.3419 92.0478C97.1534 92.0781 97.9588 92.0539 98.8364 92.0539Z" fill="white"/>
<path d="M17.5397 91.9692C18.1047 91.9692 18.6217 91.9389 19.1266 91.9873C19.2949 92.0054 19.4632 92.211 19.6074 92.3622C19.7337 92.4892 19.8298 92.6585 19.944 92.8157C18.5976 93.1059 17.9905 92.9003 17.5337 91.9631L17.5397 91.9692Z" fill="white"/>
<path d="M14.7925 91.9692C15.3515 91.9692 15.8684 91.8846 16.3313 92.0055C16.6078 92.072 16.8061 92.4651 17.0586 92.7372C16.0608 93.1181 15.3034 92.8702 14.7925 91.9753V91.9692Z" fill="white"/>
<path d="M91.1064 93.8678C90.2288 94.279 89.5436 95.1255 88.3955 94.7748C89.1889 94.1338 89.9163 93.4203 91.1064 93.8678Z" fill="white"/>
<path d="M91.2866 94.7567C91.4669 94.6721 91.5992 94.5572 91.6833 94.5814C92.3806 94.8111 92.8975 94.4241 93.3844 94.0493C93.8112 93.7227 94.244 93.7046 94.7308 93.7651C94.0456 94.7144 92.8074 95.0832 91.2866 94.7567Z" fill="white"/>
<path d="M34.0876 46.94C34.322 46.8372 34.5444 46.6558 34.7788 46.6498C35.7526 46.6195 36.7203 46.6377 37.6941 46.68C36.552 47.3572 35.3078 46.9461 34.1176 47.0851C34.1056 47.0368 34.0936 46.9884 34.0815 46.94H34.0876Z" fill="white"/>
<path d="M109.68 42.8524V44.2975H108.321C108.345 43.4147 109.253 43.3603 109.572 42.798C109.608 42.8161 109.644 42.8343 109.68 42.8584V42.8524Z" fill="white"/>
<path d="M83.0578 94.0311C82.8835 94.3092 82.7272 94.5511 82.5529 94.8232H80.8218C81.3928 93.9948 82.1922 93.9283 83.0578 94.0311Z" fill="white"/>
<path d="M26.2495 94.8353C25.7265 94.8836 25.2637 94.9743 24.9091 94.4664C24.7287 94.2185 24.4342 94.0553 24.1577 93.8315C25.2697 93.5715 25.5402 93.6985 26.2495 94.8353Z" fill="white"/>
<path d="M20.2266 92.0297C21.3867 91.806 21.5489 91.8846 22.0238 92.8823C21.2244 93.1363 20.8397 92.9549 20.2266 92.0297Z" fill="white"/>
<path d="M50.4549 46.6739C49.4691 47.4478 48.3571 46.9822 47.3052 47.079C48.2789 46.3232 49.403 46.7706 50.4549 46.6739Z" fill="white"/>
<path d="M77.9967 94.0976C77.3655 94.7869 76.6022 95.0167 75.7065 94.805C76.1814 94.1339 76.9808 93.886 77.9967 94.0976Z" fill="white"/>
<path d="M66.0892 46.6255C65.398 47.2241 64.4302 47.3813 63.168 47.1334C64.0335 46.4139 65.0373 46.6799 66.0892 46.6255Z" fill="white"/>
<path d="M72.8815 94.1037C72.4968 95.0349 71.7094 94.8716 70.958 94.8293C71.1804 94.14 71.8596 93.88 72.8815 94.1037Z" fill="white"/>
<path d="M71.8418 47.1577C72.6352 46.3353 73.621 46.7344 74.5948 46.6195C73.7412 47.5084 72.7374 47.0246 71.8418 47.1577Z" fill="white"/>
<path d="M78.4297 94.8051C79.0007 94.0432 79.7521 93.9223 80.6237 94.0856C80.0466 94.8051 79.3133 94.9865 78.4297 94.8051Z" fill="white"/>
<path d="M12.647 92.7975C11.7574 92.9487 11.4448 92.7794 11 91.9571C11.9798 91.7454 12.1901 91.8543 12.647 92.7975Z" fill="white"/>
<path d="M67.3994 47.1576C68.2469 46.3655 69.2027 46.7102 70.1824 46.6316C69.4792 47.206 68.9322 47.3088 67.3994 47.1576Z" fill="white"/>
<path d="M97.1652 93.759C96.5942 94.4967 96.0833 95.1437 95.0254 94.7567C95.7166 94.3636 96.2155 93.6985 97.1652 93.759Z" fill="white"/>
<path d="M67.2495 94.8112C67.538 93.88 67.4839 93.9707 68.626 94.0493C68.638 94.2851 68.65 94.533 68.6621 94.8112H67.2495Z" fill="white"/>
<path d="M73.332 94.799C73.7708 94.0674 74.3238 93.8618 75.2615 94.0795C74.5763 94.8535 74.2457 94.9804 73.332 94.799Z" fill="white"/>
<path d="M85.9429 94.7688C86.6882 94.2609 87.3013 93.6502 88.3773 93.8981C87.5418 94.2306 87.0248 95.1074 85.9429 94.7688Z" fill="white"/>
<path d="M109.746 39.7748C109.854 40.8329 108.796 40.579 108.436 41.1594C108.273 40.5366 109.079 39.7385 109.746 39.7748Z" fill="white"/>
<path d="M53.8812 46.6557C53.1479 47.1455 52.3665 47.3269 51.4648 47.1032C52.1922 46.3111 53.0818 46.7706 53.8812 46.6557Z" fill="white"/>
<path d="M70.5074 94.0735C70.297 94.9019 69.7199 94.9623 69.0527 94.8051C69.2992 93.9042 69.2992 93.9404 70.5074 94.0735Z" fill="white"/>
<path d="M107.498 39.7687C107.264 40.4036 106.651 40.4519 106.2 40.8873C106.17 40.4519 106.146 40.1315 106.122 39.7687H107.498Z" fill="white"/>
<path d="M14.3357 92.7795C13.5723 92.9609 13.3198 92.8218 12.8931 91.9995C13.6444 91.7637 13.8548 91.8725 14.3357 92.7795Z" fill="white"/>
<path d="M83.6167 94.7748C84.2058 94.3032 84.6866 93.753 85.5462 94.0009C85.0052 94.5088 84.5484 95.0832 83.6167 94.7748Z" fill="white"/>
<path d="M62.0618 46.6437C61.3706 47.3874 60.5652 47.1819 59.7236 47.1879C60.4149 46.4563 61.2263 46.6558 62.0618 46.6437Z" fill="white"/>
<path d="M4.80859 47.1274C5.41569 46.3958 6.12497 46.5288 6.90037 46.6195C6.30529 47.3632 5.54793 47.0307 4.80859 47.1274Z" fill="white"/>
<path d="M107.402 41.1715C107.48 41.758 107.179 42.0906 106.26 42.4594C106.115 41.8487 106.326 41.6008 107.402 41.1715Z" fill="white"/>
<path d="M108.352 37.7793V37.2775H109.836V37.7793H108.352Z" fill="white"/>
<path d="M14.6002 94.9744C13.8608 94.7627 13.3078 94.2306 12.6406 93.7287C13.0854 93.6259 13.386 93.6139 13.6685 93.9222C13.975 94.2548 14.3297 94.5571 14.6663 94.8595C14.6422 94.8957 14.6242 94.932 14.6002 94.9744Z" fill="white"/>
<path d="M104.619 41.8306C104.433 41.0868 104.517 40.9538 105.31 40.585C105.563 41.4013 105.37 41.4738 104.619 41.8306Z" fill="white"/>
<path d="M4.09952 46.5046C3.66674 47.0488 3.21593 47.333 2.56676 47.2363C2.68698 47.0549 2.80719 46.8795 2.95746 46.6618C2.75911 46.6195 2.62687 46.5953 2.49463 46.5711C3.00555 46.5107 3.51647 46.5107 4.09952 46.5107V46.5046Z" fill="white"/>
<path d="M106.073 37.2472C106.428 37.2472 106.722 37.2714 107.011 37.2472C107.438 37.2109 107.528 37.3923 107.402 37.7975H106.097C106.091 37.6281 106.079 37.4528 106.073 37.2533V37.2472Z" fill="white"/>
<path d="M102.533 93.892C101.854 94.1218 101.397 94.799 100.736 94.8474C101.042 94.5934 101.391 94.2972 101.746 94.0069C101.674 93.9344 101.601 93.8618 101.535 93.7832H102.503C102.515 93.8195 102.527 93.8558 102.533 93.892Z" fill="white"/>
<path d="M22.7268 46.68C22.0656 47.3149 21.2602 46.8977 20.5269 46.9823C21.182 46.3475 21.9935 46.7768 22.7268 46.68Z" fill="white"/>
<path d="M54.5605 47.1879C54.6447 46.9944 54.7108 46.8432 54.801 46.6376C55.0775 46.6376 55.4021 46.6195 55.7267 46.6437C55.8348 46.6558 55.937 46.7828 56.0452 46.8614C55.9491 46.9642 55.8589 47.1637 55.7447 47.1758C55.366 47.2181 54.9813 47.1939 54.5666 47.1939L54.5605 47.1879Z" fill="white"/>
<path d="M24.3799 46.9944C25.0291 46.4139 25.8045 46.7163 26.5258 46.674C25.8886 47.2907 25.1012 46.9219 24.3799 46.9944Z" fill="white"/>
<path d="M27.8785 94.8293C26.9047 95.0651 26.8747 94.1339 26.3638 93.759C26.8266 93.632 27.1031 93.8316 27.8785 94.8293Z" fill="white"/>
<path d="M27.6621 46.9823C28.3714 46.3897 29.1408 46.7464 29.8861 46.6013C29.5736 47.0911 28.9725 47.1818 27.6621 46.9823Z" fill="white"/>
<path d="M14.3359 93.6985C15.4179 93.5292 15.5441 94.5208 16.1212 94.8776C15.4179 94.7143 14.943 94.2245 14.3359 93.6985Z" fill="white"/>
<path d="M32.8434 46.6679C32.2483 47.2847 31.509 46.9582 30.8237 47.0005C31.4188 46.3958 32.1641 46.7405 32.8434 46.6679Z" fill="white"/>
<path d="M104.613 43.6324C104.505 42.9008 104.541 42.8343 105.34 42.4775C105.581 43.1003 105.394 43.2092 104.613 43.6324Z" fill="white"/>
<path d="M28.1127 93.505C28.6958 93.8073 29.0685 94.3636 29.6335 94.8171C29.2247 94.8957 28.9543 94.932 28.7439 94.545C28.5575 94.2125 28.251 93.9343 27.9985 93.638C28.0406 93.5897 28.0767 93.5473 28.1127 93.505Z" fill="white"/>
<path d="M104.48 37.7914C104.468 37.61 104.456 37.4467 104.444 37.2714H105.376C105.448 37.876 105.418 37.8942 104.48 37.7914Z" fill="white"/>
<path d="M19.1868 46.6861C18.736 47.2605 18.1289 46.9461 17.5879 46.9884C18.0267 46.4019 18.6458 46.7284 19.1868 46.6861Z" fill="white"/>
<path d="M11.4747 46.692C11.084 47.2302 10.537 46.9762 9.95996 47.085C10.4108 46.438 10.9758 46.6981 11.4747 46.692Z" fill="white"/>
<path d="M12.8813 46.9883C13.2961 46.432 13.8671 46.7041 14.4862 46.6134C13.9813 47.2604 13.3923 46.9399 12.8813 46.9883Z" fill="white"/>
<path d="M58.9603 46.6921C58.3472 47.2302 58.227 47.2725 57.5898 47.1516C57.9445 46.7223 58.3592 46.5046 58.9603 46.6921Z" fill="white"/>
<path d="M108.321 42.3144C108.754 42.012 109.181 41.7036 109.626 41.3832C109.728 41.8971 109.463 42.1027 108.393 42.4111C108.369 42.3809 108.345 42.3446 108.321 42.3144Z" fill="white"/>
<path d="M103.597 43.5901V44.3096H102.677C102.936 44.0315 103.236 43.832 103.597 43.5901Z" fill="white"/>
<path d="M26.7363 91.9209C27.121 92.326 27.4997 92.7311 27.9205 93.1725C27.4757 93.1725 26.7544 92.4409 26.7363 91.9209Z" fill="white"/>
<path d="M25.2397 92.0358C25.7687 92.1869 25.925 92.6948 26.2255 93.0697C25.5884 93.0335 25.5703 92.3865 25.2397 92.0358Z" fill="white"/>
<path d="M9.02204 46.6619C8.67942 47.1335 8.25265 47.1275 7.75977 47.073C8.08435 46.6195 8.4991 46.5772 9.02204 46.6619Z" fill="white"/>
<path d="M107.48 43.0822C107.095 43.3725 106.704 43.6506 106.296 43.9529C106.272 43.5962 106.789 43.1669 107.402 42.9734C107.432 43.0097 107.456 43.0459 107.486 43.0762L107.48 43.0822Z" fill="white"/>
<path d="M87.0488 46.7222C87.6319 46.6799 88.2149 46.6436 88.798 46.6013C88.798 46.6557 88.81 46.7162 88.816 46.7646C88.2269 46.819 87.6439 46.8734 87.0548 46.9218C87.0548 46.8553 87.0548 46.7827 87.0548 46.7222H87.0488Z" fill="white"/>
<path d="M16.3013 46.819C16.0067 46.9097 15.7122 46.9944 15.4177 47.0851C15.3936 47.0125 15.3756 46.946 15.3516 46.8855C15.6401 46.7827 15.9226 46.6739 16.2111 46.5651C16.2412 46.6497 16.2712 46.7344 16.3013 46.819Z" fill="white"/>
<path d="M90.373 46.692H91.8697C91.3769 46.7767 90.878 46.8069 90.3791 46.8432C90.3791 46.7948 90.3791 46.7404 90.3791 46.692H90.373Z" fill="white"/>
<path d="M105.322 39.8594C105.088 39.944 104.853 40.0347 104.619 40.1254C104.529 39.6961 104.619 39.6538 105.322 39.8594Z" fill="white"/>
</g>
<defs>
<clipPath id="clip0_282_17574">
<rect width="112" height="97" fill="white"/>
</clipPath>
</defs>
</svg>
