<svg width="100" height="159" viewBox="0 0 100 159" fill="none" xmlns="http://www.w3.org/2000/svg">
<g clip-path="url(#clip0_282_20196)">
<path d="M25.6328 101.992C27.6159 102.727 29.4322 103.4 31.3724 104.12C33.2412 100.943 35.3196 97.7081 37.1121 94.3207C41.822 85.4039 46.6844 76.5444 50.9606 67.4176C54.1784 60.5427 56.4809 53.2432 59.4079 46.2252C60.9048 42.6328 62.8879 39.2406 64.6422 35.7531C65.3382 34.3743 65.9675 32.9621 66.7064 31.6072C66.9543 31.1539 67.4501 30.8343 67.8314 30.4479C67.9077 31.0442 68.2319 31.7455 68.0269 32.2179C67.226 34.0642 66.4251 35.9535 65.3191 37.6233C61.5579 43.2864 60.0991 49.8607 57.6393 56.0438C54.6408 63.577 51.075 70.9099 47.3661 78.1331C42.7563 87.1167 37.7461 95.8951 32.9265 104.774C32.2782 105.967 31.73 107.217 31.0483 108.619C32.1638 109.044 33.1744 109.435 34.2804 109.855C35.5532 104.115 38.6566 99.4876 41.2261 94.5736C45.4212 86.5394 49.3683 78.3668 53.1296 70.1227C56.9576 61.7259 60.4519 53.1812 64.0559 44.6842C65.5766 41.0965 66.9972 37.4706 68.4797 33.8638C68.6371 33.4822 68.8087 33.0719 69.0899 32.7904C69.4141 32.466 69.867 32.2656 70.2674 32.0079C70.3056 32.5137 70.5296 33.0957 70.358 33.5155C69.2616 36.192 68.0221 38.8113 66.9304 41.4925C59.9132 58.7727 52.7959 76.0148 44.2389 92.608C42.1461 96.668 39.8532 100.628 37.5935 104.597C36.6783 106.205 37.2122 107.03 38.7758 107.679C40.9591 108.586 43.1043 109.583 45.2305 110.618C47.2803 111.62 47.7141 112.584 46.98 114.783C45.1065 120.427 43.009 126.004 41.269 131.686C39.3574 137.917 37.7652 144.248 35.987 150.522C35.3911 152.612 34.7428 154.701 33.9181 156.71C33.2936 158.237 32.0923 159.11 30.2665 158.976C22.6581 158.404 15.045 157.845 8.01353 154.501C5.52985 153.323 3.01758 151.844 2.76969 148.738C2.66004 147.345 3.29407 145.823 3.85183 144.468C4.32377 143.313 5.17232 142.311 5.98273 141.037C5.2772 140.956 4.93396 140.947 4.60503 140.87C0.457632 139.869 -0.724615 137.65 0.42903 133.394C1.59698 129.086 2.77922 124.773 3.69451 120.403C4.28563 117.574 4.49062 114.654 4.73851 111.763C5.26766 105.604 5.75868 99.4447 6.16865 93.2759C6.43561 89.2922 6.58816 85.3037 6.69303 81.3105C6.89325 73.6246 6.89325 65.9291 7.22695 58.2479C7.48914 52.1316 8.14701 46.0344 8.58081 39.9276C8.8287 36.4258 8.96218 32.9144 9.18147 29.4078C9.21008 28.9593 9.31018 28.2246 9.56761 28.1292C11.0502 27.5805 10.8929 26.2542 10.9262 25.1855C10.9787 23.5205 12.4946 22.2133 11.8892 20.3192C11.7557 19.8994 13.2907 18.9452 14.0582 18.2391L14.5874 18.5922C14.5874 18.0769 14.4777 17.5235 14.6208 17.0512C14.7495 16.617 15.107 15.9491 15.4264 15.9109C18.7872 15.534 22.1576 15.1953 25.5375 15.0378C26.038 15.014 26.7579 15.8966 27.0582 16.5168C27.3156 17.0464 27.1106 17.8002 27.1106 18.4347C29.1557 19.2315 29.1796 20.4623 29.6801 22.5186C30.1139 24.3029 28.9793 27.0367 31.8206 28.0004C32.1543 28.1149 32.5118 28.7399 32.5166 29.1311C32.5738 33.9497 32.0732 38.7015 31.2294 43.4677C30.3809 48.2386 30.1282 53.1192 29.6515 57.9521C29.0127 64.4501 28.3596 70.9481 27.8066 77.4556C27.5015 81.0719 27.5015 84.7169 27.1726 88.3285C26.8484 91.9162 26.2716 95.4801 25.833 99.0535C25.7186 99.9934 25.7139 100.948 25.6567 101.973L25.6328 101.992ZM14.6684 32.6472C14.6351 32.8095 14.5588 33.0337 14.5493 33.2627C14.3538 37.3036 14.1774 41.3494 13.9724 45.3903C13.8104 48.6012 13.6197 51.8072 13.4194 55.0133C12.9809 62.0217 12.5185 69.0302 12.0799 76.0339C11.8701 79.4212 11.7033 82.8085 11.484 86.1959C11.3219 88.6863 11.1408 91.1767 10.8929 93.6624C10.4972 97.6079 10.03 101.544 9.62005 105.489C9.32449 108.323 9.12427 111.172 8.7858 114.001C8.28525 118.171 7.72273 122.336 7.14591 126.501C6.78837 129.077 6.3212 131.644 5.98273 134.22C5.90646 134.792 6.17342 135.413 6.28306 136.009C6.7407 135.56 7.37473 135.198 7.63216 134.654C9.02416 131.725 10.2922 128.738 11.6604 125.794C13.081 122.741 15.1213 119.855 15.9031 116.649C17.0282 112.021 17.3809 107.188 17.8529 102.422C18.4583 96.3341 18.8826 90.2273 19.3354 84.1253C19.8598 77.0692 20.3175 70.0082 20.8371 62.952C21.3329 56.2585 21.8525 49.5696 22.4007 42.8808C22.6295 40.0994 22.9728 37.3323 23.235 34.5556C23.2969 33.8781 23.2445 33.1911 23.2445 32.6377H14.6684V32.6472ZM45.6786 116.257C42.375 115.804 39.6339 115.384 36.8832 115.089C36.4542 115.041 35.7725 115.465 35.5389 115.866C34.7714 117.197 34.1135 118.595 33.4843 119.998C30.0615 127.669 26.6959 135.37 23.2302 143.022C22.0479 145.632 20.6416 148.137 19.0542 151.247C24.2504 151.91 28.9984 152.512 33.6607 153.103C37.5268 140.47 39.6005 127.827 45.6786 116.253V116.257ZM24.6031 32.0318C24.1455 36.0441 23.6545 39.7988 23.3017 43.5678C22.6152 50.896 21.9621 58.2241 21.3853 65.5617C20.8371 72.5511 20.4605 79.5548 19.8932 86.5442C19.3021 93.8103 18.5727 101.067 17.9196 108.333C17.8529 109.087 17.9101 109.85 17.9101 111.1C18.2914 110.461 18.4011 110.327 18.4583 110.174C19.6882 107.064 20.3175 103.591 23.6306 101.74C23.9214 101.577 24.093 101.038 24.1502 100.647C24.6889 97.0211 25.3849 93.4095 25.6614 89.7645C26.2907 81.5299 26.6911 73.2763 27.2203 65.0369C27.3442 63.0856 27.5969 61.1391 27.8209 59.1973C28.2595 55.4379 28.679 51.6784 29.1796 47.9237C29.5466 45.1756 30.0901 42.4467 30.4476 39.6986C30.7384 37.4706 30.8957 35.2235 31.053 32.9812C31.1293 31.903 30.6621 31.2828 29.4513 31.4497C27.8162 31.674 26.1763 31.8505 24.5936 32.0413L24.6031 32.0318ZM25.69 111.725C20.327 122.846 14.9211 134.062 9.36739 145.579C11.7271 146.939 14.2871 148.409 16.8327 149.897C17.8576 150.493 18.4726 150.379 19.0208 149.177C20.0744 146.848 21.3996 144.649 22.4675 142.326C26.6768 133.146 30.829 123.943 34.9383 114.898C31.8492 113.839 28.9269 112.832 25.6948 111.725H25.69ZM10.6593 31.4307C10.5782 31.9078 10.4877 32.2513 10.4638 32.5948C9.85364 41.6165 9.10997 50.6288 8.69046 59.6601C8.31386 67.7563 8.29955 75.8669 8.12317 83.9726C8.11364 84.507 8.07073 85.0461 8.03736 85.5805C7.59402 92.4028 7.18881 99.23 6.69303 106.052C6.41177 109.898 6.11621 113.753 5.58229 117.574C4.99117 121.777 4.09495 125.938 3.37511 130.126C2.99374 132.35 3.46092 134.086 4.81955 135.475C5.17709 132.941 5.49648 130.561 5.84448 128.175C6.45944 123.962 7.13638 119.759 7.70366 115.542C8.0612 112.894 8.22328 110.222 8.53791 107.57C8.84777 104.988 9.35786 102.431 9.57714 99.8455C9.88224 96.2339 9.98235 92.6032 10.1921 88.9821C10.3685 85.9526 10.5401 82.9231 10.7642 79.8983C11.1741 74.4499 11.7224 69.0063 12.0274 63.5532C12.3373 57.9617 12.3611 52.3559 12.6329 46.7596C12.8188 42.9619 13.2145 39.1738 13.5148 35.381C13.6705 33.444 12.7203 32.1272 10.664 31.4307H10.6593ZM8.4378 144.234C15.3644 133.833 18.9159 121.887 24.8844 111.071C23.5639 110.07 22.2291 109.049 20.8037 107.961C20.6083 108.376 20.4605 108.624 20.3651 108.891C19.1686 112.212 18.239 115.656 16.7374 118.834C13.305 126.085 9.32449 133.075 7.39857 140.98C7.02673 142.497 7.00766 143.428 8.4378 144.234ZM44.9444 115.103C45.1065 114.869 45.2638 114.635 45.4259 114.401C44.9683 114.12 44.5392 113.681 44.0482 113.586C42.599 113.304 41.0926 113.29 39.6672 112.932C33.9753 111.506 28.4836 109.559 23.5401 106.3C22.5771 105.666 21.8144 105.613 21.3853 107.035C28.0593 113.304 36.4876 114.254 44.9492 115.108L44.9444 115.103ZM28.0068 27.7094L27.9544 27.5137C25.2372 27.5137 22.5247 27.4994 19.8074 27.5328C19.4975 27.5328 19.202 27.8239 18.8826 27.9002C18.2104 28.0624 17.3285 28.4775 16.9042 28.2055C16.4895 27.9384 16.5419 26.9508 16.2893 25.8439H28.4311L28.6218 25.0186C27.9973 24.7657 27.3776 24.3029 26.7531 24.2934C22.8584 24.2361 18.8873 25.5529 15.1308 23.2724C14.2918 22.7619 13.0381 23.0863 12.6472 24.6226C13.4767 24.6226 14.2013 24.5367 14.8877 24.6512C15.4216 24.7418 15.9127 25.0758 16.4275 25.3048C15.9413 25.5672 15.4788 25.9727 14.964 26.0539C14.1679 26.1827 13.3384 26.0872 11.8463 26.0872C12.5375 27.1941 12.7997 28.1387 13.3908 28.4441C14.2394 28.883 15.3501 29.0691 16.3131 28.988C20.2221 28.6445 24.1121 28.153 28.0116 27.7141L28.0068 27.7094ZM11.279 29.5557C14.6398 31.7312 28.2547 31.3209 30.7908 28.9021C24.0644 29.007 17.7385 31.9507 11.279 29.5557ZM25.6805 21.3593L25.6948 20.844C22.0575 20.6532 18.4249 20.4433 14.7876 20.3001C14.5254 20.2906 14.2442 20.7343 13.9677 20.9681C14.2108 21.2209 14.4062 21.5597 14.7018 21.7076C15.6171 22.1656 16.5419 22.6665 17.5192 22.9051C18.0388 23.0291 19.1829 22.6808 19.1972 22.4852C19.2973 21.1541 20.1983 21.3688 21.0039 21.364C22.5628 21.3497 24.1216 21.364 25.6805 21.364V21.3593ZM12.4946 152.612C13.6721 153.962 13.6864 153.957 15.8888 151.324C13.9438 149.73 13.4624 151.772 12.4946 152.612ZM17.4858 154.706L17.8767 155.398C18.9302 154.673 19.9838 153.943 21.2614 153.065C18.7729 151.877 18.5298 153.986 17.481 154.706H17.4858ZM14.9163 153.785C16.2559 154.816 16.7231 154.573 18.1627 152.182C16.2177 151.214 16.0843 153.399 14.9163 153.785ZM11.5889 149.014L11.2742 148.471C10.2684 149.091 9.26251 149.716 8.22328 150.36C9.4961 151.581 9.86794 151.419 11.5936 149.014H11.5889ZM9.8155 147.807C8.34246 147.035 7.6846 148.366 6.38317 149.205C8.29479 150.093 8.81917 148.366 9.8155 147.807ZM10.2493 151.805C11.5841 152.655 12.447 152.006 12.8379 149.506C12.0179 150.236 11.1932 150.966 10.2493 151.805ZM23.1396 153.556L22.6248 152.946C21.7333 153.728 20.8419 154.511 19.9504 155.293L20.3413 155.775C21.2757 155.035 22.2053 154.296 23.1396 153.556Z" fill="#95C11F"/>
<path d="M76.007 25.1093C76.7554 25.1809 77.5372 25.1427 78.238 25.3622C78.8863 25.5673 79.4393 26.0539 80.0352 26.4165C79.3868 26.6169 78.7385 26.9843 78.0902 26.9795C77.1987 26.9747 76.3073 26.6837 75.3348 26.8936C76.4741 27.2371 77.6325 27.5282 78.7385 27.9575C79.0531 28.0816 79.2105 28.6112 79.4393 28.9594C79.0579 29.1455 78.6289 29.5415 78.2999 29.4747C77.2702 29.2648 76.2787 28.8831 75.3396 28.5873C75.1536 29.2171 74.9725 29.8134 74.7961 30.4146C74.3337 30.0567 73.9142 29.5844 73.3946 29.3745C72.5842 29.0453 72.1551 27.5091 70.8489 28.5014C70.8013 28.5396 69.8288 27.7476 69.7859 27.2944C69.7096 26.5644 70.048 25.7915 70.3245 24.5416C69.6714 25.095 69.4569 25.3574 69.1852 25.491C68.8277 25.6675 68.4177 25.7486 68.0316 25.8679C68.003 25.4337 67.8981 24.99 67.9553 24.5702C68.1364 23.2105 68.7228 21.8031 68.513 20.5197C68.2556 18.9262 68.5464 18.5016 69.9146 18.9835L70.7488 15.3862L71.4305 15.1667C71.7022 15.6009 71.974 16.0303 72.2552 16.474C72.5985 15.7297 72.9322 15.0093 73.2611 14.2889L73.7902 14.3271C74 14.9902 74.2097 15.6581 74.4195 16.3213L74.8295 16.5074C75.3253 15.348 75.821 14.1935 76.3454 12.9769H78.0568C77.399 12.2374 76.8936 11.6744 76.374 11.0972C77.5372 9.351 78.1522 11.4454 79.3439 11.2641C79.3439 10.5485 79.3249 9.76607 79.3535 8.98364C79.3678 8.55903 79.4631 8.13442 79.5251 7.70981C79.9398 7.81954 80.3879 7.86725 80.7693 8.04854C81.2746 8.29663 81.7323 8.65445 82.4187 9.09814C82.1947 7.1039 82.6714 5.91595 84.7451 5.51996C85.5174 5.37206 86.0656 4.0219 86.6949 3.2013C86.9666 2.84825 87.1811 2.45227 87.4195 2.07537C87.6769 2.53337 87.9581 2.98184 88.1822 3.45416C88.2918 3.68316 88.2823 3.96465 88.4158 4.72322C88.7495 3.17745 88.6541 1.75095 89.2929 1.22138C89.8698 0.744285 91.257 1.25477 92.4154 1.34065C92.7348 0.338758 93.2211 -0.710842 94.6893 0.634554C94.9801 0.901725 95.6857 0.815848 96.1767 0.739514C97.1444 0.586845 98.0835 0.267194 99.0512 0.147921C99.3563 0.109754 99.9236 0.429405 99.9856 0.677492C100.057 0.958975 99.7806 1.52671 99.5041 1.66507C98.074 2.38548 97.8213 3.20607 99.0322 4.37972C99.2133 4.55624 99.2848 5.17169 99.1561 5.28619C98.3219 5.99228 97.4161 6.61727 96.558 7.24703C97.3255 7.59054 98.0501 7.91496 98.7747 8.23938C98.1932 8.60674 97.6116 8.9741 96.8345 9.47027C97.4161 9.65634 98.0644 9.77084 98.6031 10.0762C98.9511 10.2766 99.3516 10.787 99.3182 11.121C99.2896 11.4216 98.7271 11.8605 98.3648 11.9034C97.0729 12.0561 95.7667 12.0656 94.4319 12.1324C94.8705 13.3109 94.5606 13.8977 93.2401 13.9502C92.0054 14.0026 90.7707 14.1792 89.5599 14.4225C89.0736 14.5179 88.6541 14.9425 88.4158 15.5436C89.1642 15.4673 89.927 15.2622 90.6516 15.3623C91.0139 15.4101 91.2999 16.0064 91.6193 16.3547C91.2332 16.5455 90.8136 16.9415 90.4609 16.889C88.1536 16.5312 88.4968 18.077 88.6494 19.6418L85.1312 19.8899C85.3315 20.41 85.5364 20.93 85.7414 21.45C85.2599 21.5454 84.7642 21.5884 84.3018 21.7458C83.4961 22.0225 82.7095 22.366 81.8228 22.7143C82.0088 22.9481 82.4378 23.2582 82.5093 23.6351C82.5713 23.9691 82.2662 24.699 82.0898 24.7086C81.0744 24.7753 80.0495 24.699 79.0293 24.6274C78.033 24.5607 77.0367 24.4462 76.0451 24.3507L76.0117 25.1141L76.007 25.1093Z" fill="#95C11F"/>
</g>
<defs>
<clipPath id="clip0_282_20196">
<rect width="100" height="159" fill="white"/>
</clipPath>
</defs>
</svg>
