<svg width="180" height="238" viewBox="0 0 180 238" fill="none" xmlns="http://www.w3.org/2000/svg">
<mask id="mask0_2033_15" style="mask-type:alpha" maskUnits="userSpaceOnUse" x="0" y="0" width="180" height="234">
<g clip-path="url(#clip0_2033_15)">
<path d="M0 159.499L0.87748 160.202C0.586066 160.317 0.291414 160.433 0 160.548V159.499Z" fill="#95C11F"/>
<path d="M0 166.843C0.352935 167.193 0.70587 167.543 1.0588 167.893H0V166.843Z" fill="#95C11F"/>
<path d="M51.8652 232.95C52.2182 233.3 52.5711 233.65 52.924 234H51.8652V232.95Z" fill="#95C11F"/>
<path d="M79.3877 234C79.6241 233.711 79.8604 233.419 80.0968 233.13C80.2134 233.419 80.3299 233.711 80.4465 234H79.3877Z" fill="#95C11F"/>
<path d="M113.26 177.336C116.747 175.458 117.974 171.947 119.632 168.734C119.82 168.371 120.315 168.169 120.668 167.893C120.51 169.026 120.704 170.085 120.024 171.285C118.113 174.659 116.569 178.209 114.364 181.464C109.753 188.269 105.139 194.984 97.4522 198.833C96.9374 199.089 96.6913 199.879 96.3222 200.421C95.2796 200.82 93.6444 199.449 93.1458 201.471H89.9693C88.6288 200.052 87.0746 200.052 85.7341 201.471C84.3839 201.417 83.1923 201.526 81.8972 200.45C79.9123 198.804 77.581 197.423 74.5406 197.199C72.7306 195.404 70.6907 193.495 68.7965 191.453C67.7863 190.365 67.0351 189.042 66.1576 187.836C64.2958 185.28 62.4178 182.738 60.5592 180.18C57.7551 176.328 55.9516 171.966 54.2711 167.572C53.8049 166.352 54.1157 164.856 53.9635 163.501C53.821 162.221 53.5393 160.953 53.2285 159.149C56.1815 156.809 51.7779 154.154 52.2409 151.22C52.1147 151.882 51.9787 152.54 51.8653 153.201C51.48 155.496 52.3575 157.807 50.9393 160.179C49.9096 161.903 50.8324 164.291 49.9744 166.56C48.99 169.164 49.8157 172.415 49.7218 175.381C49.6603 177.365 50.2302 179.394 48.7958 181.313C48.3522 181.907 49.1843 183.435 49.5534 185.062C49.4628 185.229 48.8184 185.913 48.7375 186.654C48.5076 188.808 49.0645 191.007 47.7078 193.074C47.2254 193.809 47.261 195.308 47.6949 196.136C49.6797 199.924 48.4137 203.911 48.6404 207.785C48.8702 211.788 49.4757 216.021 48.4687 219.771C47.4747 223.484 48.4137 227.266 47.0797 230.816C47.0538 230.883 47.3096 231.057 47.4779 231.22C45.9367 232.456 44.2562 232.992 42.226 232.982C29.8959 232.912 17.5659 232.963 5.23584 232.925C3.918 232.921 2.29903 233.589 1.53164 231.471C1.68059 230.777 2.08857 229.763 2.08857 228.745C2.12742 210.061 2.14361 191.379 2.06914 172.695C2.06266 171.093 1.4086 169.491 1.05566 167.889C3.34488 168.262 5.35564 167.196 7.2725 166.361C13.9718 163.444 20.5577 160.276 27.1858 157.2C29.8377 155.971 32.3794 154.254 35.1673 153.634C38.7744 152.832 41.2579 150.341 44.104 148.543C46.1601 147.247 47.2545 144.396 48.6404 142.156C48.9544 141.649 48.9674 140.378 48.6436 140.159C46.5778 138.782 48.1352 136.365 46.7688 134.542C45.7651 133.2 46.5713 130.526 46.5713 128.231H44.363C42.4883 127.005 41.6853 125.012 39.5579 124.659C38.9751 122.367 37.6832 120.117 38.1041 117.52C40.2314 118.589 39.5547 121.754 42.3393 122.73V119.619C43.1488 118.907 43.9551 118.197 44.8099 117.446C43.083 115.976 41.5536 115.652 40.2217 116.474C39.6195 116.172 39.0204 115.87 38.1041 115.408V117.52C36.3135 116.798 36.6244 114.824 35.7178 113.572C35.4296 113.174 34.9245 112.712 34.9698 112.333C35.394 108.866 32.6061 106.199 32.7162 102.726C32.8004 100.11 32.0556 97.4615 31.5959 94.8454C31.5182 94.4089 30.8997 94.0911 30.7184 93.6449C30.482 93.0543 32.1916 83.6173 32.3179 82.818C32.6968 80.4459 34.7464 79.8553 36.4819 78.9533C37.9973 79.5375 39.6357 80.1667 41.3226 80.7412C41.3032 80.7541 41.232 80.8215 41.164 80.8921L41.9022 81.7491L42.2357 81.4185C41.9475 81.1746 41.6594 80.9306 41.3226 80.7412C41.6626 78.5072 40.7657 76.196 42.2033 73.8304C43.2459 72.1131 41.546 69.5195 43.2945 67.462C43.7414 66.9356 42.9545 65.382 42.6178 63.7257C44.2562 60.4131 42.9934 56.2338 43.5309 51.7239C44.0231 51.3773 44.8779 50.7802 45.7424 50.1736C43.4338 48.0486 44.9426 45.6541 44.5994 44.46C45.5708 41.7316 46.2767 39.7543 46.9793 37.777L46.5875 37.6454C47.9798 35.7741 48.9998 33.1837 50.8681 32.224C52.9889 31.1358 53.0537 27.9805 55.8642 28.0158C55.9387 28.0158 56.0455 27.7558 56.0941 27.6049C57.4378 23.2844 61.6083 21.8207 64.7361 19.3459C65.8176 18.4921 67.4528 18.3252 68.8289 17.8341C72.7144 16.4506 76.8136 15.7412 80.8125 15.0511C84.7919 14.3642 89.0239 15.0993 93.1425 15.2341C93.149 15.2341 93.1425 15.5615 93.1976 15.783C93.1846 15.7637 93.1166 15.6931 93.0454 15.6257L92.1808 16.3575L92.5144 16.6881C92.7604 16.4025 93.0065 16.1168 93.1976 15.783C94.8327 15.7348 96.5294 15.6642 98.2099 15.783C98.66 15.8151 99.0679 16.4346 99.4921 16.7844H96.5391C96.4258 17.4746 96.3707 17.802 96.2768 18.3765C98.3588 19.0314 100.493 19.7022 102.698 20.3923L102.487 21.8207C99.2266 22.3728 96.7787 17.7635 93.0486 20.5432C93.3562 19.7375 93.6638 18.9319 94.0265 17.9817H88.2532C87.9489 18.5884 87.6024 19.2849 87.0099 20.4662C86.2975 19.4904 85.7924 18.8002 85.0962 17.8501L83.4579 18.1519C83.9759 18.7296 84.303 19.0923 84.7368 19.5738C81.078 20.7647 77.2896 21.4901 74.0258 23.201C70.6777 24.9568 67.3103 26.4911 63.7129 27.5953C65.8014 28.3753 65.7723 28.2084 70.4705 27.3449C72.763 26.9244 75.0878 27.024 77.4547 26.4173C79.8217 25.8106 82.467 26.2022 84.7919 24.5684C84.0957 24.3341 83.487 24.1319 82.6063 23.8365C82.6354 23.3165 82.6678 22.7195 82.7034 22.0454C84.7692 21.8207 86.6343 24.9921 88.2791 21.9363C89.0012 22.6521 89.6229 23.2684 90.6266 24.2635L92.074 21.5126C95.2213 23.9425 97.7987 25.9294 100.408 27.942L100.936 27.4188C101.059 27.4477 101.266 27.4412 101.296 27.5119C101.626 28.2469 101.927 28.9916 102.338 29.9706C102.112 30.5163 101.765 31.3541 101.39 32.256C101.156 32.2111 100.907 32.1854 100.671 32.118C99.1651 31.6847 98.5401 30.4425 97.6918 29.2709C96.5812 27.7333 95.0432 26.5007 93.3433 24.7899C92.061 25.9005 90.8015 26.9886 89.5516 28.0672C88.8231 27.7847 88.0136 27.4701 86.3299 26.8185C86.984 28.4877 87.2948 29.2901 87.7416 30.4264C87.0325 30.4264 86.3817 30.4264 85.3164 30.4393C85.2096 30.4393 85.5139 30.4232 85.8215 30.4072C85.6855 29.7235 85.5528 29.0398 85.4168 28.356L84.7336 28.4427C84.7919 29.1136 84.8502 29.7844 85.3197 30.4393C85.7309 30.9464 85.7309 31.4696 85.7309 32.0474L87.855 33.0328C87.8355 33.463 87.8194 33.8064 87.7999 34.1691C86.4303 35.1257 85.216 34.8914 84.2026 33.6235C83.1891 32.3523 81.9943 32.179 80.3073 32.9815C81.1589 33.3795 81.8065 33.6844 83.0952 34.2879L77.0597 34.8978C78.0052 35.6425 78.6916 36.1817 79.3813 36.7242H76.3797C76.3312 36.936 76.2826 37.1479 76.234 37.3598C78.452 38.4832 80.6247 39.7158 82.9139 40.6756C83.8205 41.0543 85.2808 41.7798 85.7309 39.8731C87.1297 40.3064 88.5252 40.743 89.8301 41.1474V44.2867C87.5279 43.9753 85.4233 43.6928 82.7455 43.3333C82.5383 43.6351 81.9522 44.4921 81.4503 45.2239H76.5287C75.6998 47.1338 76.7359 47.4869 78.2124 47.9202C77.3803 48.0711 76.5481 48.2252 75.5379 48.4081C74.777 49.1625 73.906 50.0259 73.0252 50.899C73.0026 52.9116 73.5563 55.1521 70.7554 55.8711C71.3318 56.5837 71.6167 56.9336 72.138 57.5756C68.1521 57.5049 65.1991 59.1965 61.5597 61.9859C64.7653 61.5173 66.9897 61.0615 69.2369 60.8978C71.4775 60.7341 73.7376 60.8625 76.9431 60.8625C74.2686 62.4802 72.2546 61.5975 70.4155 61.9217C68.6216 62.2363 66.7048 62.3422 65.1052 63.0933C63.9882 63.6165 63.3147 65.0706 62.4437 66.1074C61.6407 66.2647 60.4167 65.5874 60.3261 67.157C59.8857 66.8072 59.4486 66.4605 58.6877 65.857L61.8673 64.3709C60.9995 63.761 60.2192 63.3694 59.6688 62.7723C59.2575 62.3262 59.1442 61.6136 58.5776 60.2398C58.3315 62.6439 58.1599 64.3291 57.9883 65.9726L56.4729 66.1491C56.2463 65.1188 56.0131 64.0595 55.7541 62.8847C54.8345 64.2328 54.0186 65.4301 53.0472 66.8521C53.6591 67.2919 54.4719 67.8793 55.0288 68.2773V71.6573C53.7725 73.9844 50.4342 74.6938 50.7774 77.9101C51.9787 79.3225 53.1605 80.7123 55.181 83.0909C53.0375 82.6094 52.2021 82.4232 51.0008 82.1536C50.1298 82.5548 49.5632 84.5417 47.5751 84.0025C47.5945 83.9896 47.6657 83.9222 47.7337 83.8516C47.4876 83.5659 47.2416 83.2802 46.9955 82.9946L46.662 83.3252C46.9501 83.5691 47.2383 83.8131 47.5751 84.0025C47.6236 84.4647 47.6236 84.9815 47.6236 85.5689C48.3198 85.8834 49.0419 86.2109 49.7412 86.5254V88.1464C48.8346 87.9121 47.928 87.6778 46.8919 87.4114C46.5875 88.4321 46.1989 89.7449 45.8039 91.0674C46.2864 91.1894 46.7623 91.3114 47.6366 91.5361C47.329 94.2099 48.4493 97.0699 46.5001 99.4741C45.587 100.216 44.8941 100.999 43.8094 102.219C44.9588 102.552 45.5805 102.735 46.4353 102.982C46.4353 101.625 46.4353 100.659 46.5001 99.4741C48.0187 100.119 48.9253 100.944 48.7375 102.639C48.4234 104.453 45.3636 105.29 46.9599 108.083H48.6824C50.5216 110.519 49.4207 113.357 49.8254 116.214C50.7159 116.364 51.6808 116.525 52.8043 116.714C52.8691 117.892 52.9371 119.067 53.031 120.791C53.5523 121.138 54.4201 121.715 55.3753 122.351C53.2447 126.63 54.1869 130.886 53.9668 134.796C55.9678 137.1 58.6197 136.609 61.1647 137.203C61.2618 135.964 62.3498 134.439 60.3261 133.268C61.3849 132.167 63.2305 131.13 63.3211 129.952C63.4701 128.061 65.5488 127.528 65.5165 126.142C65.4711 124.309 68.7155 125.429 67.8899 122.877C67.5046 121.683 69.9427 121.009 70.6389 119.52C71.2638 118.188 72.7371 117.225 73.9027 116.169C74.3625 115.751 74.9971 115.53 76.587 114.638C75.2335 117.571 74.3463 119.5 73.2163 121.95V124.826C73.8865 124.797 74.3625 124.774 74.9162 124.752C75.0748 123.709 75.2206 122.746 75.3695 121.783L75.9264 121.77C76.0657 122.665 76.2049 123.558 76.3409 124.418C77.6943 124.919 79.064 125.423 80.4822 125.872C80.4628 125.885 80.3915 125.952 80.3235 126.023C80.5696 126.309 80.8157 126.594 81.0618 126.88L81.3953 126.549C81.1071 126.305 80.8189 126.061 80.4822 125.872C80.7121 125.577 81.0845 124.883 81.2561 124.928C83.6262 125.551 86.1518 125.943 88.2629 127.076C90.128 128.077 91.4361 128.251 93.4145 127.355C95.9822 126.193 98.4819 127.159 101.36 129.092C99.0906 130.289 97.4328 131.162 95.4738 132.196H89.1145L87.3434 135.704C88.5544 136.417 89.4739 136.956 89.7913 137.142V141.443C89.2958 141.539 88.9721 141.6 88.2597 141.739C87.6218 139.312 86.9743 136.84 86.2522 134.102C85.488 134.491 84.7822 134.85 84.0277 135.235C83.7849 135.017 83.4125 134.683 83.0725 134.375C82.1756 135.242 81.2917 136.092 80.6247 136.734V140.317C81.6381 138.846 82.208 138.021 83.2474 136.513C83.487 138.74 83.6295 140.037 83.7881 141.514H86.3461C86.6116 142.271 86.8253 142.878 87.107 143.671C87.6283 143.334 88.1561 142.705 88.5965 142.756C92.142 143.173 95.8915 141.552 99.259 143.754C101.61 141.941 104.767 145.911 106.797 142.082C108.319 143.587 109.462 144.72 110.961 146.207C111.411 142.22 110.268 139.373 108.649 136.304C107.441 134.019 106.175 132.013 104.394 130.199C103.727 129.519 103.102 128.591 102.924 127.686C102.348 124.784 101.985 121.84 102.222 118.554C103.582 120.287 104.831 122.123 106.334 123.725C108.024 125.525 108.639 127.56 109.18 129.936C109.662 132.051 111.566 133.845 113.247 136.4C113.247 138.416 113.454 141.199 113.195 143.94C112.868 147.404 112.104 150.826 111.657 154.283C111.479 155.666 112.538 157.2 111.129 158.443C108.895 156.286 108.973 153.503 109.018 150.415C107.172 149.002 105.175 147.471 103.167 145.934C100.868 145.382 99.0938 146.691 97.0993 147.58C95.3637 148.357 93.3238 148.466 91.3584 148.884C91.1318 148.29 90.9051 147.69 90.6396 146.993H83.9986C83.7266 147.67 83.487 148.267 83.2539 148.855C81.596 148.983 79.9706 149.112 78.3419 149.237L78.3549 150.049C81.2852 150.049 84.5847 149.211 87.052 150.274C89.8042 151.455 92.4885 150.434 95.1241 151.346C95.15 151.869 95.1727 152.341 95.1954 152.841C93.5408 153.169 91.9542 153.483 90.6979 153.731C89.3153 153.544 88.1108 153.384 85.7892 153.069C87.5895 154.106 88.3407 154.536 89.9855 155.48C82.6516 157.891 75.907 158.257 68.7155 160.109C68.8451 159.971 68.3691 160.478 67.8543 161.03V166.493C70.9886 168.092 72.3906 163.142 75.4148 164.744C76.7359 165.79 78.057 166.84 79.3781 167.886V169.504C80.8869 170.512 82.2242 170.245 83.1632 168.817C87.9683 171.35 94.1268 168.262 97.8343 173.131H101.098C103.028 171.911 104.89 170.544 106.926 169.514C108.137 168.9 108.863 168.188 109.53 167.007C109.986 166.198 111.388 165.915 112.405 165.379C113.078 166.541 113.519 167.302 114.157 168.409C115.251 166.923 116.067 165.819 116.938 164.641C117.948 166.169 117.783 167.395 116.459 168.355C115.494 169.051 115.203 169.931 115.364 171.038C113.03 171.716 115.235 173.847 113.817 175.031C113.525 174.852 113.072 174.569 111.939 173.869C112.522 175.417 112.884 176.376 113.247 177.333C110.922 179.227 107.937 180.462 106.952 183.676C106.939 183.656 106.871 183.586 106.8 183.518C106.512 183.762 106.224 184.006 105.936 184.25L106.269 184.581C106.515 184.295 106.761 184.009 106.952 183.676C108.859 184.102 109.656 182.485 110.65 181.422C111.751 180.244 113.713 179.516 113.247 177.333L113.26 177.336ZM64.4577 137.367L64.6649 137.572C64.9531 137.328 65.2412 137.084 65.5294 136.84L65.1959 136.51C64.9498 136.795 64.7037 137.081 64.6811 137.556L64.4738 137.351C64.1857 137.595 63.8975 137.839 63.6093 138.082L63.9428 138.413C64.1889 138.127 64.435 137.842 64.4577 137.367ZM44.185 108.077C43.1941 109.816 43.2039 111.54 44.185 113.238C44.185 111.518 44.185 109.797 43.22 109.287V98.983C42.2519 100.976 41.6658 102.19 41.1769 103.191C41.7954 105.037 42.3069 106.568 44.1817 108.073L44.185 108.077ZM66.6854 133.264C66.2515 133.605 65.8144 133.945 65.0405 134.552C66.5235 135.537 67.5855 136.24 68.7253 136.994C68.7868 137.665 68.8613 138.484 68.9292 139.238C70.6 139.713 72.1283 140.146 73.6599 140.583C73.4105 140.297 73.158 140.015 72.9087 139.729C74.3722 138.58 75.839 137.431 77.3317 136.259C76.4898 134.869 75.648 133.486 74.8288 132.131C72.3064 132.446 69.8294 131.582 67.7474 133.268C67.6308 132.979 67.5143 132.687 67.3977 132.398C67.1613 132.687 66.925 132.979 66.6886 133.268L66.6854 133.264ZM68.4209 22.1802C69.6707 21.6859 70.5385 21.259 71.4548 21.0086C72.2708 20.7872 73.1418 20.7583 73.9869 20.6459C71.5423 20.2415 69.1365 19.4968 66.5429 20.3185C67.2876 21.0568 67.7765 21.5415 68.4177 22.177L68.4209 22.1802ZM74.2945 29.5565C76.9885 30.2467 79.7278 30.8212 82.3926 29.5565H74.2945ZM74.369 128.196H69.7711C69.933 128.995 70.0496 129.573 70.192 130.282C70.7554 129.759 71.1181 129.425 71.348 129.207C72.1089 129.596 72.8018 129.945 73.634 130.369C73.8768 129.647 74.029 129.198 74.3657 128.193L74.369 128.196ZM78.5362 157.207C77.1925 155.371 75.9491 154.8 74.1974 155.669V157.207H78.5362ZM65.1959 34.7084C67.1451 34.5768 68.4468 34.4901 69.1915 34.442C68.8904 33.662 68.5763 32.8499 67.8931 31.0844C66.6918 32.699 66.1673 33.4084 65.1959 34.7116V34.7084ZM66.7793 151.972H69.7646V150.238H66.7793V151.972ZM40.1667 90.5185C39.6777 90.4254 39.0884 90.3131 37.994 90.1044C38.1721 91.4076 38.2984 92.3417 38.4894 93.7444C39.1888 92.3963 39.6324 91.5457 40.1667 90.5153V90.5185ZM39.885 109.03C39.6065 109.222 39.3248 109.415 39.0463 109.611C39.2633 110.15 39.409 110.734 39.7134 111.219C39.9756 111.636 40.4225 111.941 40.7884 112.294L41.4489 111.726C40.9276 110.827 40.4063 109.929 39.885 109.03ZM69.7355 32.3909C71.5487 32.7696 72.2546 31.8805 73.1645 30.5677C71.3512 30.1889 70.6454 31.078 69.7355 32.3909ZM60.0703 143.27V141.559C59.3385 141.684 58.8722 141.764 57.3633 142.024C58.7751 142.673 59.5004 143.006 60.0703 143.266V143.27ZM93.3497 146.04C93.3562 146.348 93.3627 146.659 93.3692 146.967C94.3146 146.842 95.2569 146.714 96.2024 146.589L96.1603 146.04H93.3497ZM50.9911 135.2L51.9042 135.088C51.7682 134.52 51.629 133.948 51.493 133.38C51.3246 133.409 51.1562 133.435 50.9911 133.463V135.203V135.2ZM58.0401 147.077L57.127 147.189C57.263 147.757 57.4022 148.328 57.5382 148.897C57.7066 148.868 57.8749 148.842 58.0401 148.813V147.073V147.077ZM47.8179 115.263C48.1223 115.225 48.4266 115.186 48.731 115.151C48.595 114.583 48.4558 114.012 48.3198 113.443C48.1514 113.469 47.983 113.498 47.8179 113.524V115.263ZM36.2585 104.937H36.7863V102.838H36.2585V104.937ZM78.4973 19.0667C78.5362 19.3684 78.5751 19.6701 78.6107 19.9719C79.1838 19.837 79.7601 19.699 80.3333 19.5642C80.3074 19.3973 80.2782 19.2304 80.2523 19.0667H78.4973ZM37.8418 107.03H37.3141V109.129H37.8418V107.03ZM78.6819 134.314H79.0348V133.264H78.6819V134.314ZM59.277 139.912V140.262H60.3358V139.912H59.277ZM53.2803 142.711H53.6332V141.661H53.2803V142.711ZM51.8686 36.3807V36.0309H50.8098V36.3807H51.8686ZM52.5744 146.91H52.2215V147.959H52.5744V146.91ZM68.8062 148.659V148.309H67.7474V148.659H68.8062ZM75.1558 149.359V149.709H76.2146V149.359H75.1558ZM92.4431 193.081H92.7961V192.031H92.4431V193.081ZM40.2217 92.6916V93.0415H41.2805V92.6916H40.2217ZM35.9865 100.386V100.036H34.9277V100.386H35.9865ZM48.336 133.264H47.9831V134.314H48.336V133.264ZM76.9172 16.7877H76.5643V17.8373H76.9172V16.7877Z" fill="#95C11F"/>
<path d="M63.5575 224.502C64.6486 223.022 66.8051 222.123 66.5687 219.408C61.6082 222.759 57.4475 226.935 51.8135 229.458C52.1923 228.691 52.3607 227.606 52.9791 227.208C58.6228 223.584 63.4441 219.039 68.0323 214.234C68.5342 213.707 68.5568 212.731 68.8029 211.961C71.3123 213.402 70.3733 208.921 72.5622 209.81C73.2616 207.092 75.69 206.113 77.6975 204.665C78.8211 203.853 79.7115 202.723 80.7509 201.693C82.412 202.152 84.1896 203.891 85.7405 201.468H89.9758C91.0411 202.906 92.0869 202.906 93.1522 201.468C94.1948 201.07 95.83 202.44 96.3286 200.418C100.496 199.857 103.944 202.094 106.807 204.264C110.676 207.198 114.888 209.595 118.742 212.536C122.553 215.444 126.83 217.752 131.055 220.416C131.528 217.424 130.835 215.059 130.346 212.577C129.747 209.554 130.343 206.318 130.165 203.188C129.993 200.184 129.2 197.192 129.232 194.204C129.265 191.28 128.391 188.58 127.594 185.929C127.021 184.022 127.024 182.424 127.413 180.584C128.057 177.522 129.194 174.55 129.161 171.346C129.113 166.288 129.148 161.229 129.148 156.17V152.177C128.183 153.195 128.157 154.511 127.49 155.265C124.894 158.208 123.916 161.842 122.863 165.418C122.475 166.734 121.928 167.507 120.681 167.886V166.265C119.975 165.938 119.253 165.598 118.437 165.219C120.458 160.016 122.494 154.912 125.37 150.097C125.742 150.412 126.105 150.72 126.471 151.031C126.998 150.087 127.539 149.121 128.125 148.068C127.72 147.266 127.286 146.406 126.639 145.115C127.915 144.968 128.847 144.859 129.579 144.775C130.188 145.693 130.657 146.406 131.444 147.593C134.002 141.899 133.85 135.961 137.078 130.729C137.486 131.839 137.709 132.443 137.981 133.184C138.6 133.216 139.273 133.255 140.177 133.303C141.087 132.208 142.081 131.014 142.816 130.132H150.943C152.173 131.794 153.465 133.54 154.663 135.158C158.5 135.701 161.962 135.377 165.238 133.704C165.666 133.486 166.181 133.252 166.637 133.287C170.429 133.582 173.819 131.968 177.381 131.175C177.711 131.101 178.07 131.165 178.368 131.165C178.912 131.704 179.411 132.199 179.955 132.738C179.955 162.872 179.926 193.055 180.01 223.237C180.016 225.603 179.035 227.365 178.031 229.323C178.342 229.862 178.731 230.546 179.246 231.442C175.367 232.684 171.358 230.771 168.007 232.941C167.029 232.228 166.083 231.538 164.872 231.111C164.798 231.198 164.983 231.021 165.17 230.848C165.125 230.228 165.08 229.612 165.018 228.771C164.277 228.819 163.707 228.858 162.998 228.906C163.639 229.888 164.124 230.633 164.872 231.114C165.135 231.378 165.135 231.901 165.135 232.642C164.092 232.389 163.108 232.052 162.098 231.93C161.094 231.808 160.064 231.904 159.138 231.904C158.83 231.031 158.617 230.424 158.371 229.728C157.717 230.809 157.134 231.769 156.619 232.62C152.465 232 148.566 233.278 144.577 233.018C140.235 232.735 135.857 232.954 131.318 232.954V226.951C130.246 226.303 129.258 225.709 128.154 225.041C128.102 224.033 128.044 222.855 127.986 221.729C125.088 220.608 123.077 222.332 120.694 223.632C120.247 223.356 119.694 223.009 119.046 222.605C118.793 222.82 118.431 223.128 118.01 223.484C117.437 221.844 116.86 220.201 116.297 218.583C115.002 218.233 113.781 217.902 112.165 217.466C108.814 221.729 105.233 226.29 101.632 230.841C101.564 230.925 101.276 230.899 101.124 230.841C100.975 230.784 100.865 230.617 100.473 230.244C101.098 228.938 101.778 227.522 102.688 225.619C102.688 224.791 102.552 223.385 102.727 222.021C102.892 220.746 103.394 219.514 103.747 218.262C106.797 217.225 105.702 214.086 107.347 212.054C104.828 209.342 102.759 206.533 98.3491 205.448C98.8736 206.305 99.1909 206.665 99.3204 207.079C99.4564 207.512 99.4111 208.003 99.4726 208.815H96.3383C96.5844 207.917 96.8305 207.018 97.1316 205.92C96.9179 205.718 96.429 205.252 95.7587 204.617C92.9126 204.617 89.8624 204.617 86.7637 204.671C86.7832 204.659 86.8544 204.591 86.9224 204.52C86.6763 204.235 86.4302 203.949 86.1842 203.663C86.0741 203.773 85.9607 203.885 85.8506 203.994C86.1388 204.238 86.427 204.482 86.7637 204.671C87.9132 205.41 89.0173 206.199 90.0923 206.973C90.7302 206.434 91.1123 206.109 91.4879 205.788C92.3524 206.286 93.2364 206.793 94.1041 207.294C93.7771 207.705 93.5051 208.045 92.8932 208.812H96.3383C96.0955 209.579 95.9174 210.372 95.5936 211.104C94.9913 212.465 95.0334 213.659 96.5488 214.699C95.3799 215.421 94.4053 216.025 93.272 216.724C93.2105 217.312 93.123 218.13 93 219.305C92.3459 219.305 91.6951 219.305 89.7362 218.692C89.1922 218.904 89.4059 219.292 89.5613 219.27C90.0664 219.199 90.5521 218.978 91.0443 218.817C90.4064 218.638 89.7685 218.458 89.7362 218.692C91.0443 220.005 91.0443 220.705 91.1026 221.453C91.0896 221.433 91.0216 221.363 90.9504 221.295L90.0859 222.027L90.4194 222.358C90.6655 222.072 90.9115 221.786 91.1026 221.453C91.8635 222.123 92.6794 222.842 93.6994 223.738C92.5046 224.316 91.7987 224.659 91.054 225.019C91.4166 225.41 91.7534 225.776 92.1225 226.174C91.4167 226.499 90.7108 226.823 89.5386 227.365C90.9763 227.6 91.9444 227.754 93.1295 227.946C92.4042 229.32 91.5008 230.033 89.9401 229.856C89.9596 229.843 90.0308 229.776 90.0988 229.705L89.3606 228.848L89.0271 229.179C89.3152 229.423 89.6034 229.667 89.9401 229.856C90.3125 230.35 90.6363 230.899 90.999 231.516C89.2796 231.991 87.557 232.771 85.8053 232.838C84.7044 232.88 83.5614 231.853 82.2015 231.191C82.7487 230.376 83.1114 229.837 83.6229 229.079C83.0693 228.951 82.5123 228.822 81.7644 228.646C81.5928 229.821 81.4503 230.784 81.3078 231.743L80.8221 231.814C80.5955 230.829 80.3688 229.843 80.1227 228.781C79.569 228.822 79.0898 228.858 78.1832 228.925C78.4876 229.827 78.7272 230.53 79.0898 231.609C77.7979 232.109 76.2696 232.703 74.0225 233.576C74.3333 229.124 73.3878 225.343 74.5535 221.42C72.1348 225.192 69.7193 228.96 67.1289 232.999C66.9087 232.385 66.7242 231.872 66.5105 231.275C65.6168 231.464 64.5968 231.666 63.5834 231.904C62.6444 232.125 61.7151 232.385 60.6012 232.674C60.5073 232.591 60.1414 232.267 59.8015 231.965C59.4032 232.296 59.0438 232.588 58.6941 232.88C58.2505 232.44 57.8749 232.068 57.3471 231.544C57.6223 231.118 58.0756 230.681 58.1987 230.167C58.3509 229.519 58.2343 228.81 58.2343 227.757H61.8964C63.0264 226.598 61.4981 224.791 63.5737 224.499C63.5542 224.512 63.483 224.579 63.415 224.65C63.6611 224.935 63.9072 225.221 64.1532 225.507L64.4868 225.176C64.1986 224.932 63.9104 224.688 63.5737 224.499L63.5575 224.502ZM78.1638 223.95C78.9733 223.237 79.3715 223.029 79.3521 222.878C79.2809 222.377 79.0575 221.896 78.8956 221.408C78.7142 222.04 78.5329 222.672 79.2776 221.311L79.4849 221.517C79.773 221.273 80.0612 221.029 80.3494 220.785L80.0159 220.454C79.7698 220.74 79.5237 221.026 78.167 223.95H78.1638ZM160.783 217.036C161.842 217.52 162.755 217.935 164.228 218.609C163.441 216.994 162.988 216.07 162.476 215.023C162.017 215.572 161.592 216.07 160.783 217.036ZM81.6608 224.043C80.3202 224.457 78.4163 224.993 80.0677 226.868C80.6376 225.86 81.1492 224.951 81.6608 224.043ZM82.7293 204.797C82.7681 205.098 82.807 205.4 82.8426 205.702C83.4157 205.567 83.9921 205.429 84.5652 205.294C84.536 205.127 84.5101 204.96 84.481 204.797H82.726H82.7293ZM157.908 214.24L157.966 215.139L159.734 214.757C159.711 214.583 159.685 214.413 159.663 214.24H157.908ZM167.239 220.095V219.572H165.122V220.095H167.239ZM128.779 150.052H128.426V151.102H128.779V150.052ZM80.4401 204.967V205.317H81.4989V204.967H80.4401ZM165.119 213.36V213.71H166.177V213.36H165.119ZM155.24 215.11H154.887V216.159H155.24V215.11ZM167.236 217.909V217.559H166.177V217.909H167.236ZM163.354 221.408H163.707V220.358H163.354V221.408ZM158.766 222.107V221.758H157.707V222.107H158.766ZM160.177 222.457H160.53V221.408H160.177V222.457ZM159.824 227.006V227.356H160.883V227.006H159.824ZM59.6201 229.805H59.9731V228.755H59.6201V229.805Z" fill="#95C11F"/>
<path d="M59.2769 100.736H61.2229L61.5467 100.058C60.6983 99.5479 59.85 99.0375 58.9855 98.5175C59.6428 97.7921 59.9698 97.4326 60.3001 97.0699C59.3837 96.0395 58.8883 96.2835 58.1015 98.402C56.6412 98.8738 55.0028 99.4003 52.1534 100.318C53.7724 98.3603 54.5398 97.4294 55.5662 96.184C54.4621 95.7121 53.7691 95.4136 53.073 95.1151C53.4454 94.4571 53.8177 93.7958 54.2645 93.003C52.2473 92.2679 50.4567 91.6163 48.9673 91.0738C49.2619 89.9664 49.5015 89.0548 49.7444 88.1432C50.7061 86.6956 52.5841 86.0343 53.1475 84.2432C55.631 84.0635 55.7216 81.4603 57.1852 80.3336C59.7464 78.3627 62.1327 75.9585 65.6232 75.5509C64.5644 76.9504 63.5056 78.3499 62.3173 79.5472C61.2229 79.9677 60.258 80.5872 58.9272 81.4442C61.3751 82.3205 61.8348 80.9146 62.3173 79.5472C63.7452 79.5857 65.2962 80.3496 66.1834 78.3724C66.5104 79.3129 66.7241 79.9163 66.9929 80.6867H76.4412C77.9306 82.1632 79.1643 83.3862 80.4724 84.683V86.6121C81.3628 87.0647 82.2241 87.5012 83.1437 87.9667C83.5873 87.4114 84.1345 86.7277 84.6785 86.044V87.6264C86.5176 88.477 88.6903 89.1062 87.6703 91.979C86.1388 93.1988 84.9569 91.7479 83.5711 91.3435C83.5905 91.3306 83.6618 91.2632 83.7297 91.1926L82.9915 90.3356L82.658 90.6662C82.9462 90.9101 83.2343 91.1541 83.5711 91.3435C83.2862 91.8538 82.9494 92.4188 82.3731 93.3978C83.4416 94.8551 84.6558 96.5178 86.3201 98.7872C84.6947 98.1035 83.8981 97.7696 83.134 97.4487C81.923 99.2911 82.8555 99.7148 84.4907 99.8496V104.587C82.5447 106.552 82.2921 106.574 79.1189 105.072C76.5707 105.769 75.214 108.272 72.3581 108.359C71.5001 108.385 70.6226 109.938 69.8746 110.885C68.9745 112.028 68.2071 113.267 66.6723 114.14C67.0382 113.017 67.4041 111.89 67.9416 110.25C66.206 111.161 64.7457 111.925 63.1721 112.75C62.6217 111.588 62.2817 110.869 61.8219 109.903C61.0642 110.346 60.3875 110.741 59.4938 111.264V108.837C57.1657 106.6 55.0222 104.536 52.9791 102.572C53.6137 101.837 54.1512 101.217 54.9283 100.315C56.3174 101.58 57.564 102.719 58.6163 103.679H62.4209C62.3723 102.999 62.3367 102.523 62.2687 101.58C61.2326 101.978 60.4199 102.286 59.2704 102.726V100.729L59.2769 100.736ZM63.865 95.4874H64.218V94.4378H63.865V95.4874ZM78.685 98.6363H79.038V97.5867H78.685V98.6363Z" fill="#95C11F"/>
<path d="M114.322 101.124C114.846 100.736 115.377 100.736 115.905 100.732C117.777 102.947 115.105 102.53 114.374 103.303C114.691 103.663 115.008 104.026 115.701 104.812C113.804 105.39 112.117 105.903 109.85 106.59C112.602 107.284 114.982 107.884 117.395 108.491V110.384C116.29 109.938 115.465 109.601 114.775 109.322C112.777 109.707 110.812 110.089 109.19 110.404C100.292 105.313 102.358 107.335 99.4953 100.196C98.4947 99.6249 97.491 99.0536 96.3836 98.4245V92.9163C95.5774 92.117 94.9524 91.4975 94.334 90.8812C94.334 89.0099 94.334 87.1385 94.334 85.2672L94.8521 85.1709C94.9913 85.7807 95.0496 86.4227 95.2924 86.9909C95.545 87.5847 95.8526 88.3005 96.3545 88.6151C97.0279 89.0324 97.9119 89.1126 98.9901 89.4175C99.1197 87.36 101.134 87.2733 102.29 85.8642C107.072 86.3521 112.01 86.8561 116.744 87.3375C118.722 89.2956 120.7 91.2536 122.753 93.2919C122.821 93.9082 122.909 94.7138 122.996 95.5163C123.203 95.5163 123.414 95.5131 123.621 95.5099C123.744 94.2035 123.867 92.8938 123.99 91.5874C124.168 91.4333 124.35 91.2793 124.528 91.1252C124.793 91.902 125.059 92.6756 125.324 93.4524L125.823 92.8136C125.418 94.9257 125.017 97.0378 124.554 99.4452C123.375 98.8835 122.022 98.2383 120.668 97.5931L119.609 96.5435C119.256 96.1936 118.903 95.8437 118.502 95.5484C118.521 95.5356 118.593 95.4682 118.661 95.3975L117.922 94.5405L117.589 94.8711C117.877 95.1151 118.165 95.359 118.502 95.5484C118.903 95.8437 119.256 96.1936 119.609 96.5435L120.668 97.5931V99.2109C121.361 99.519 122.08 99.84 123.618 100.527C121.516 100.633 120.231 100.7 118.939 100.764C118.661 100.02 118.44 99.4291 118.22 98.8353C116.336 98.2961 114.914 98.6812 114.322 101.127C114.351 101.256 114.377 100.999 114.406 100.739C113.347 100.739 112.288 100.703 111.233 100.748C110.158 100.793 109.089 100.915 108.017 101.002L108.056 101.519C110.145 101.519 112.233 101.519 114.322 101.13V101.124Z" fill="#95C11F"/>
<path d="M125.823 24.6358C126.804 24.8733 127.053 24.6262 127.571 24.1126C129.015 26.1926 131.703 26.9437 132.953 29.6143C133.668 29.2131 134.361 28.8247 135.255 28.3239V31.5178C137.395 33.3731 139.228 34.9652 141.553 36.9842C140.254 37.517 139.571 37.7963 138.69 38.1558C139.681 39.6516 140.653 41.1121 141.672 42.6464V46.4116C140.665 46.0072 139.956 45.7215 139.004 45.3363C138.052 47.121 138.846 48.8447 139.888 50.7353C139.066 51.1943 138.292 51.6277 137.376 52.138C137.939 54.0704 140.986 55.0173 139.396 57.5049C136.359 56.4232 135.938 53.4156 135.66 51.1044C135.248 47.6795 134.109 44.8099 132.389 41.9049C131.172 39.8474 130.641 37.3854 129.682 34.7694L126.946 34.3714C127.377 33.8385 127.659 33.4886 127.992 33.0778C127.099 32.6027 126.185 32.118 125.276 31.6333C124.654 32.2496 124.029 32.8691 123.164 33.7262C122.918 32.5 122.708 31.4536 122.365 29.7523C121.944 30.9978 121.743 31.5948 121.335 32.8017C120.166 30.5709 119.175 28.5069 116.659 28.0896V23.8365C118 24.4368 119.013 24.8894 120.062 25.358C120.506 24.4817 120.843 23.7467 121.248 23.0533C121.419 22.7612 121.733 22.5526 122.167 22.1225C123.621 23.0694 125.12 24.0484 125.829 24.6294C124.952 24.1543 124.884 24.0837 124.813 24.0163C124.524 24.2602 124.236 24.5042 123.948 24.7481L124.282 25.0788C124.528 24.7931 124.774 24.5074 125.829 24.6294L125.823 24.6358Z" fill="#95C11F"/>
<path d="M151.429 96.4568C150.299 97.0217 149.285 97.5289 148.265 98.0361C148.204 98.861 148.142 99.6859 148.071 100.62C147.64 100.44 147.378 100.373 147.161 100.235C145.487 99.1563 146.193 97.4743 146.086 95.9978C147.682 95.1857 149.275 94.3768 151.182 93.4074H155.126C155.881 94.2195 156.706 95.1086 157.506 95.9689C158.779 100.103 155.962 103.605 155.457 107.727C152.941 109.72 151.548 112.663 150.224 115.755C149.463 117.533 147.941 119.006 146.666 120.537C146.475 120.768 145.756 120.569 144.914 120.569C145.837 119.131 146.374 117.719 147.384 116.84C149.803 114.731 150.412 111.755 151.254 109.023C152.06 106.407 152.364 103.65 153.378 101.021C153.957 99.5222 153.847 97.5289 151.425 96.46L151.429 96.4568Z" fill="#95C11F"/>
<path d="M142.654 96.8131C143.92 98.0778 144.415 98.5721 144.93 99.0857C144.198 99.9363 143.463 100.797 142.482 101.942C143.651 102.623 144.577 103.159 145.542 103.724C145.963 103.438 146.478 103.085 147.29 102.53C147.922 103.13 148.518 103.692 149.178 104.318V110.548C148.08 111.845 146.908 113.228 145.263 115.174C144.435 115.43 143.091 117.064 140.853 116.255C140.339 113.148 143.055 110.802 142.884 107.422C142.288 107.017 141.426 106.433 140.827 106.029V101.336C141.485 100.139 143.499 99.5768 142.657 96.8195L142.654 96.8131Z" fill="#95C11F"/>
<path d="M148.602 69.0509C145.581 65.8153 143.894 62.721 142.592 59.3153C143.356 59.0039 143.651 58.882 143.949 58.76C144.247 58.6412 144.545 58.5225 144.609 58.5C144.444 57.5274 144.289 56.6094 144.133 55.6881C144.389 55.5469 144.645 55.4057 144.901 55.2612C145.998 56.2531 147.685 57.0588 148.074 58.2753C149.071 61.3953 149.971 64.6597 148.602 69.0476V69.0509Z" fill="#95C11F"/>
<path d="M88.4248 11.0612L91.1932 10.3358C97.2093 8.73729 103.112 11.4625 108.96 14.2326C108.769 14.422 108.519 14.6691 108.102 15.0832C109.096 15.799 110.112 16.5277 111.874 17.7924C107.797 17.6222 105.994 15.3111 103.627 13.0064C103.096 14.0625 102.779 14.6948 102.403 15.4395C101.652 15.2084 100.816 14.8553 99.9486 14.7173C99.1456 14.5889 98.3037 14.6884 97.4263 13.9116L101.636 13.4044L101.642 12.9005C98.4721 12.1719 95.2989 11.4432 91.8084 10.6407C91.122 10.9104 90.06 11.3245 88.9979 11.7417C88.8069 11.5138 88.6191 11.2891 88.428 11.0612H88.4248Z" fill="#95C11F"/>
<path d="M62.45 66.1074C63.7937 66.0528 65.2929 66.5375 66.1412 65.1894C68.479 65.6516 70.7424 66.101 73.0057 66.5504L73.0186 66.8746H66.4586L66.6399 67.5519C63.9394 68.823 61.2358 70.0941 58.5353 71.3652L58.0205 70.7521C58.7911 69.5548 59.5618 68.3575 60.3324 67.157C61.1354 66.9998 62.3593 67.677 62.45 66.1074Z" fill="#95C11F"/>
<path d="M145.675 89.0901H143.745C144.195 87.9988 144.535 87.177 144.988 86.076C143.89 84.2817 142.624 82.2081 141.281 80.0062C141.028 80.1378 140.552 80.3817 139.348 81.0044C140.076 79.4765 140.52 78.5393 141.08 77.3676C142.479 78.9052 143.638 80.1731 144.94 81.6015C144.784 83.8997 147.216 86.2783 145.671 89.0901H145.675Z" fill="#95C11F"/>
<path d="M140.957 95.3879H139.085C137.447 93.5487 139.879 92.3738 139.752 90.7689C139.616 89.0612 139.723 87.3311 139.723 86.1082C140.329 85.1324 140.746 84.4647 141.29 83.5884C143.178 88.0341 139.788 91.4719 140.96 95.3847L140.957 95.3879Z" fill="#95C11F"/>
<path d="M81.8875 110.279C82.7725 111.47 82.1044 112.994 79.8832 114.849C79.323 114.146 78.7208 113.395 77.4839 111.848C79.0543 111.29 80.4369 110.795 81.8875 110.282V110.279Z" fill="#95C11F"/>
<path d="M94.0297 13.4077H82.8005C85.6467 11.6005 86.1971 11.2603 87.8485 11.5845C89.6358 11.9343 91.3584 12.602 94.0297 13.4077Z" fill="#95C11F"/>
<path d="M62.5214 71.1951C64.966 71.6188 65.8467 73.1595 66.8699 74.4723C66.5073 75.0148 66.326 75.2844 66.1479 75.5509C65.1506 74.1032 62.2332 74.4916 62.5214 71.1951Z" fill="#95C11F"/>
<path d="M75.0068 111.601C74.084 112.445 73.1644 113.283 72.2481 114.121C71.947 113.822 71.5714 113.45 71.199 113.081C70.7133 112.102 72.4068 111.444 75.0068 111.601Z" fill="#95C11F"/>
<path d="M70.6194 71.5835L68.5244 69.5067C70.2081 69.3943 71.5098 69.3077 73.9739 69.1407C72.2092 70.4247 71.3932 71.0185 70.6194 71.5835Z" fill="#95C11F"/>
<path d="M151.403 55.1007C150.687 55.7556 150.211 56.1921 149.813 56.5548C149.201 56.022 148.679 55.5694 148.161 55.1168C148.722 54.5615 149.22 54.0672 149.754 53.5375C150.24 53.9998 150.729 54.462 151.403 55.1007Z" fill="#95C11F"/>
<path d="M99.0613 16.916H102.821C102.568 17.7635 102.387 18.3798 102.05 19.5193C100.819 18.4472 100.029 17.7602 99.0645 16.916H99.0613Z" fill="#95C11F"/>
<path d="M79.5916 36.8494H84.7204C82.6352 37.6583 80.9256 37.6583 79.5916 36.8494Z" fill="#95C11F"/>
<path d="M146.338 79.4445C147.216 79.8008 147.757 80.0222 148.705 80.4042C147.85 81.4571 147.248 82.1921 146.338 83.3092V79.4445Z" fill="#95C11F"/>
<path d="M80.4464 24.9215H75.1523V24.3983H80.4464V24.9215Z" fill="#95C11F"/>
<path d="M94.3923 82.6896V77.8074C95.5904 79.3963 95.1338 81.0751 94.3923 82.6896Z" fill="#95C11F"/>
<path d="M98.4526 211.451C98.472 211.47 98.9707 211.964 99.5308 212.52C99.0128 212.972 98.4915 213.425 97.8795 213.958C97.4812 213.595 97.0052 213.158 96.1731 212.394C96.9534 212.073 97.6982 211.765 98.4558 211.454L98.4526 211.451Z" fill="#95C11F"/>
<path d="M142.922 97.3363C142.275 97.821 141.767 98.203 141.255 98.5817C139.795 96.797 141.867 96.5242 142.657 94.4185C142.825 96.2802 142.887 96.9319 142.922 97.3363Z" fill="#95C11F"/>
<path d="M92.605 41.08C91.6887 40.5728 90.7723 40.0625 89.7556 39.5007C91.6466 37.8669 92.1873 39.7543 92.605 41.08Z" fill="#95C11F"/>
<path d="M84.8081 86.3104V82.0156C85.1869 82.1375 85.6305 82.2435 85.6241 82.282C85.4363 83.5659 86.4983 85.1709 84.8081 86.3104Z" fill="#95C11F"/>
<path d="M149.262 57.8035H151.15C151.254 58.3363 151.344 58.8049 151.448 59.3474C150.043 60.1595 149.168 60.1435 149.262 57.8035Z" fill="#95C11F"/>
<path d="M89.9724 20.7101V19.1887C90.5067 19.0795 91.0927 18.9575 91.831 18.8035C91.9702 19.484 92.0641 19.9526 92.2195 20.7101H89.9724Z" fill="#95C11F"/>
<path d="M112.463 19.5385L115.724 21.6378C113.276 22.5141 112.816 21.1081 112.463 19.5385Z" fill="#95C11F"/>
<path d="M93.6088 28.2854C94.3211 29.258 95.9498 29.5758 94.8036 31.5242C94.0912 30.5516 92.4625 30.2338 93.6088 28.2854Z" fill="#95C11F"/>
<path d="M112.016 28.5358V32.3684L111.369 32.4037C111.278 31.1101 111.191 29.8166 111.1 28.5262L112.013 28.5358H112.016Z" fill="#95C11F"/>
<path d="M151.361 46.2062C150.736 46.1612 150.114 46.1163 149.266 46.0553C149.314 45.3202 149.353 44.7553 149.402 44.0523C150.392 44.6879 151.144 45.1694 151.892 45.6476C151.714 45.8338 151.539 46.02 151.361 46.2062Z" fill="#95C11F"/>
<path d="M144.483 76.0805C144.969 76.8252 145.454 77.5667 146.092 78.5489C145.386 78.597 144.817 78.6324 144.072 78.6837C144.01 77.8427 143.965 77.2232 143.92 76.6069C144.107 76.4304 144.295 76.257 144.483 76.0805Z" fill="#95C11F"/>
<path d="M114.053 29.38V32.5289H113.525V29.38H114.053Z" fill="#95C11F"/>
<path d="M81.6866 62.0822H84.4971L84.5457 62.6311C83.6099 62.7595 82.6774 62.8911 81.7416 63.0195C81.7222 62.7081 81.7028 62.3936 81.6833 62.0822H81.6866Z" fill="#95C11F"/>
<path d="M152.215 46.1548L152.361 49.2138L151.655 49.278C151.519 48.2477 151.383 47.2173 151.247 46.1869C151.571 46.1773 151.891 46.1644 152.215 46.1548Z" fill="#95C11F"/>
<path d="M97.4683 218.528V217.395H99.2912C99.4013 217.546 99.5146 217.7 99.6247 217.851C98.825 218.101 98.0252 218.355 97.4683 218.528Z" fill="#95C11F"/>
<path d="M143.955 76.6005C143.24 76.0837 142.527 75.5701 141.051 74.5012H143.955V76.6005Z" fill="#95C11F"/>
<path d="M138.483 104.077V105.82C138.308 105.842 138.137 105.865 137.962 105.891L137.577 104.138L138.483 104.08V104.077Z" fill="#95C11F"/>
<path d="M131.434 139.395V137.656C131.603 137.63 131.771 137.601 131.936 137.575C132.072 138.143 132.211 138.715 132.347 139.283C132.043 139.321 131.739 139.36 131.434 139.395Z" fill="#95C11F"/>
<path d="M118.816 75.5509V73.4516H119.344V75.5509H118.816Z" fill="#95C11F"/>
<path d="M88.8845 34.8625C89.5612 34.8047 90.238 34.7469 90.9147 34.6891L91.0021 35.3664L88.9331 35.7677C88.9169 35.4659 88.9007 35.1642 88.8845 34.8625Z" fill="#95C11F"/>
<path d="M88.9428 36.4931C88.2661 36.5509 87.5894 36.6086 86.9126 36.6664L86.8252 35.9891C87.5149 35.8543 88.2046 35.7227 88.8942 35.5879C88.9104 35.8896 88.9266 36.1913 88.9428 36.4931Z" fill="#95C11F"/>
<path d="M83.1729 38.663C84.4615 39.0257 85.0994 39.2054 85.7373 39.3852C85.2451 39.5489 84.7594 39.7672 84.2543 39.8378C84.1021 39.8603 83.8917 39.4654 83.1729 38.6598V38.663Z" fill="#95C11F"/>
<path d="M113.707 159.659C112.418 159.297 111.78 159.117 111.142 158.937C111.634 158.773 112.12 158.555 112.625 158.484C112.777 158.462 112.988 158.857 113.707 159.662V159.659Z" fill="#95C11F"/>
<path d="M79.3586 167.077C80.0321 167.02 80.7056 166.962 81.3824 166.904C81.4147 167.129 81.4439 167.357 81.4763 167.581C80.7866 167.716 80.0969 167.848 79.4072 167.982C79.391 167.681 79.3748 167.379 79.3619 167.077H79.3586Z" fill="#95C11F"/>
<path d="M147.579 75.7146C146.29 75.3519 145.652 75.1721 145.014 74.9924C145.506 74.8286 145.992 74.6104 146.497 74.5398C146.649 74.5173 146.86 74.9121 147.579 75.7178V75.7146Z" fill="#95C11F"/>
<path d="M86.6146 78.8923V80.6353L86.0933 80.7059L85.708 78.9533L86.6146 78.8955V78.8923Z" fill="#95C11F"/>
<path d="M49.9128 105.538L49.1843 108.08C49.0191 107.592 48.799 107.11 48.7277 106.61C48.7051 106.459 49.1033 106.25 49.916 105.538H49.9128Z" fill="#95C11F"/>
<path d="M71.1568 204.646C71.0985 203.978 71.0402 203.31 70.9819 202.639C71.2086 202.607 71.4385 202.579 71.6651 202.546L72.0699 204.598L71.1568 204.642V204.646Z" fill="#95C11F"/>
<path d="M87.6736 74.6682V76.4079L87.1717 76.4914C87.0357 75.9232 86.8965 75.3519 86.7605 74.7837C87.0649 74.7452 87.3692 74.7067 87.6736 74.6714V74.6682Z" fill="#95C11F"/>
<path d="M90.8369 63.8284H89.082L89.0107 63.3116L90.7787 62.9296C90.7981 63.2281 90.8175 63.5299 90.8369 63.8284Z" fill="#95C11F"/>
<path d="M104.611 212.131V213.871L104.109 213.951C103.973 213.383 103.834 212.812 103.698 212.243C104.002 212.205 104.307 212.166 104.611 212.131Z" fill="#95C11F"/>
<path d="M60.1543 182.748V184.488C59.9859 184.517 59.8176 184.542 59.6524 184.571C59.5164 184.003 59.3772 183.432 59.2412 182.863L60.1543 182.751V182.748Z" fill="#95C11F"/>
<path d="M109.636 18.7264C110.925 19.0891 111.563 19.2689 112.201 19.4486C111.709 19.6123 111.223 19.8306 110.718 19.9012C110.566 19.9237 110.355 19.5289 109.636 18.7232V18.7264Z" fill="#95C11F"/>
<path d="M144.833 68.3736V70.1133L144.331 70.1968L143.92 68.4892L144.833 68.3768V68.3736Z" fill="#95C11F"/>
<path d="M97.5623 224.364V222.624L98.0836 222.554C98.2131 223.144 98.3426 223.735 98.4721 224.325L97.5623 224.367V224.364Z" fill="#95C11F"/>
<path d="M97.5623 229.609V227.869L98.0836 227.799C98.2131 228.389 98.3426 228.98 98.4721 229.57L97.5623 229.612V229.609Z" fill="#95C11F"/>
<path d="M51.0459 232.979L50.8711 230.973C51.0977 230.941 51.3276 230.912 51.5543 230.88C51.6903 231.564 51.823 232.247 51.959 232.931C51.6547 232.947 51.3503 232.963 51.0459 232.976V232.979Z" fill="#95C11F"/>
<path d="M90.3254 134.314V133.264H90.6784V134.314H90.3254Z" fill="#95C11F"/>
<path d="M111.142 22.7356H110.083V22.3857H111.142V22.7356Z" fill="#95C11F"/>
<path d="M93.0518 36.8365C92.7636 36.5926 92.4754 36.3486 92.1873 36.1047L92.5208 35.7741C92.7668 36.0598 93.0129 36.3454 93.259 36.6311L93.0518 36.8365Z" fill="#95C11F"/>
<path d="M93.2429 36.6151L94.1074 37.3469L93.7739 37.6775L93.0356 36.8205L93.2429 36.6151Z" fill="#95C11F"/>
<path d="M76.9171 68.2067V69.2563H76.5642V68.2067H76.9171Z" fill="#95C11F"/>
<path d="M105.498 31.4792V32.5289H105.146V31.4792H105.498Z" fill="#95C11F"/>
<path d="M143.955 74.5012L144.664 73.6313C144.781 73.9202 144.898 74.2123 145.014 74.5012H143.955Z" fill="#95C11F"/>
<path d="M62.0971 74.5012V75.5508H61.7441V74.5012H62.0971Z" fill="#95C11F"/>
<path d="M59.2769 75.9008H60.3357V76.2506H59.2769V75.9008Z" fill="#95C11F"/>
<path d="M115.471 170.929L116.336 171.661C116.226 171.77 116.112 171.882 116.002 171.992C115.756 171.706 115.51 171.42 115.264 171.135L115.471 170.929Z" fill="#95C11F"/>
<path d="M56.1005 174.887H55.0417V174.537H56.1005V174.887Z" fill="#95C11F"/>
<path d="M51.8652 175.937H50.8064V175.587H51.8652V175.937Z" fill="#95C11F"/>
<path d="M139.723 77.3003H138.665V76.9504H139.723V77.3003Z" fill="#95C11F"/>
<path d="M57.5122 180.485V179.435H57.8651V180.485H57.5122Z" fill="#95C11F"/>
<path d="M52.9241 182.934H53.9829V183.284H52.9241V182.934Z" fill="#95C11F"/>
<path d="M138.665 80.4491H137.606V80.0992H138.665V80.4491Z" fill="#95C11F"/>
<path d="M62.4502 187.479H61.3914V187.129H62.4502V187.479Z" fill="#95C11F"/>
<path d="M63.1559 188.879V189.928H62.803V188.879H63.1559Z" fill="#95C11F"/>
<path d="M64.4737 192.137C64.1855 191.893 63.8973 191.649 63.6091 191.405C63.7192 191.296 63.8325 191.183 63.9426 191.074C64.1887 191.36 64.4348 191.646 64.6809 191.931L64.4737 192.137Z" fill="#95C11F"/>
<path d="M64.6647 191.919L65.5293 192.65L65.1958 192.981C64.9497 192.695 64.7036 192.41 64.4575 192.124L64.6647 191.919Z" fill="#95C11F"/>
<path d="M69.7644 200.531C69.4763 200.287 69.1881 200.043 68.8999 199.799C69.01 199.69 69.1233 199.577 69.2334 199.468C69.4795 199.754 69.7256 200.04 69.9717 200.325L69.7644 200.531Z" fill="#95C11F"/>
<path d="M69.9555 200.312C70.2437 200.556 70.5319 200.8 70.82 201.044L70.4865 201.375L69.7483 200.518C69.8163 200.45 69.8875 200.38 69.9555 200.312Z" fill="#95C11F"/>
<path d="M72.0732 204.508C72.3614 204.752 72.6495 204.996 72.9377 205.24L72.6042 205.57C72.3581 205.284 72.112 204.999 71.866 204.713L72.0732 204.508Z" fill="#95C11F"/>
<path d="M53.9829 208.116H55.0417V208.465H53.9829V208.116Z" fill="#95C11F"/>
<path d="M68.7058 212.073C68.4177 211.829 68.1295 211.585 67.8413 211.341L68.1748 211.011L68.9131 211.868L68.7058 212.073Z" fill="#95C11F"/>
<path d="M59.1797 100.845C58.8915 100.601 58.6034 100.357 58.3152 100.113L58.6487 99.7822C58.8948 100.068 59.1409 100.354 59.3869 100.639L59.1797 100.845Z" fill="#95C11F"/>
<path d="M57.1591 217.909H56.1003V217.559H57.1591V217.909Z" fill="#95C11F"/>
<path d="M103.637 218.371C103.348 218.127 103.06 217.883 102.772 217.639L103.105 217.309C103.352 217.594 103.598 217.88 103.844 218.166C103.776 218.233 103.705 218.304 103.637 218.371Z" fill="#95C11F"/>
<path d="M51.1594 220.358V219.308H51.5124V220.358H51.1594Z" fill="#95C11F"/>
<path d="M58.218 220.008H57.1592V219.658H58.218V220.008Z" fill="#95C11F"/>
<path d="M1.41162 1.04963V0H1.76456V1.04963H1.41162Z" fill="#95C11F"/>
<path d="M51.1594 223.507V222.457H51.5124V223.507H51.1594Z" fill="#95C11F"/>
<path d="M50.4567 228.752V229.801H50.1038V228.752H50.4567Z" fill="#95C11F"/>
<path d="M60.4458 133.361C60.1997 133.646 59.9536 133.932 59.7075 134.218L59.374 133.887C59.6622 133.643 59.9504 133.399 60.2386 133.155L60.4458 133.361Z" fill="#95C11F"/>
<path d="M117.848 22.0358V20.9862H118.201V22.0358H117.848Z" fill="#95C11F"/>
<path d="M92.796 230.851V231.901H92.4431V230.851H92.796Z" fill="#95C11F"/>
<path d="M66.6853 133.264H67.7441L67.035 134.134C66.9184 133.845 66.8019 133.553 66.6853 133.264Z" fill="#95C11F"/>
<path d="M40.2216 116.477C41.805 116.567 41.1218 117.78 41.2804 118.576C39.6971 118.486 40.3803 117.273 40.2216 116.477Z" fill="#95C11F"/>
</g>
</mask>
<g mask="url(#mask0_2033_15)">
<g filter="url(#filter0_d_2033_15)">
<rect x="11" y="1" width="162" height="229" fill="#95C11F"/>
</g>
</g>
<defs>
<filter id="filter0_d_2033_15" x="7" y="1" width="170" height="237" filterUnits="userSpaceOnUse" color-interpolation-filters="sRGB">
<feFlood flood-opacity="0" result="BackgroundImageFix"/>
<feColorMatrix in="SourceAlpha" type="matrix" values="0 0 0 0 0 0 0 0 0 0 0 0 0 0 0 0 0 0 127 0" result="hardAlpha"/>
<feOffset dy="4"/>
<feGaussianBlur stdDeviation="2"/>
<feComposite in2="hardAlpha" operator="out"/>
<feColorMatrix type="matrix" values="0 0 0 0 0 0 0 0 0 0 0 0 0 0 0 0 0 0 0.25 0"/>
<feBlend mode="normal" in2="BackgroundImageFix" result="effect1_dropShadow_2033_15"/>
<feBlend mode="normal" in="SourceGraphic" in2="effect1_dropShadow_2033_15" result="shape"/>
</filter>
<clipPath id="clip0_2033_15">
<rect width="180" height="234" fill="white"/>
</clipPath>
</defs>
</svg>
