<svg width="190" height="227" viewBox="0 0 190 227" fill="none" xmlns="http://www.w3.org/2000/svg">
<mask id="mask0_2033_16" style="mask-type:alpha" maskUnits="userSpaceOnUse" x="0" y="0" width="190" height="227">
<g clip-path="url(#clip0_2033_16)">
<path d="M71.3725 209.227C72.8149 207.598 74.2721 205.989 75.6948 204.341C76.4973 203.408 77.2505 202.436 77.984 201.449C78.496 200.758 78.9981 199.983 77.4031 200.422C77.2997 200.452 76.9748 200.057 76.9797 200.047C77.6542 199.223 78.3434 198.408 79.0523 197.619C79.131 197.53 79.3526 197.515 79.4855 197.55C80.7507 197.88 80.7556 197.885 81.2381 197.254C86.5597 190.304 91.6796 183.177 97.2621 176.445C103.061 169.457 109.377 162.897 115.344 156.042C119.853 150.864 124.176 145.524 128.552 140.228C129.01 139.676 129.246 138.93 129.581 138.279L129.517 137.909L129.625 138.323C128.454 139.261 127.366 140.332 126.101 141.107C119.647 145.06 113.143 148.94 106.66 152.853C105.99 153.258 105.375 153.747 104.735 154.191H104.745C105.188 153.618 105.528 152.903 106.089 152.508C108.742 150.647 111.46 148.871 114.158 147.069L114.128 147H114.739L114.709 147.074C117.328 145.421 119.947 143.772 122.566 142.119L122.522 142.05C122.556 142.188 122.536 142.316 122.472 142.44L122.502 142.573V142.375C122.861 142.272 123.226 142.168 123.59 142.064L123.506 142.129C123.856 141.778 124.21 141.423 124.56 141.072L124.491 141.137C125.254 140.258 126.017 139.375 126.78 138.496L127.435 138.215C127.238 138.323 127.041 138.432 126.839 138.535C126.224 138.886 125.608 139.236 124.993 139.582L125.067 139.616C125.574 138.624 126.081 137.632 126.588 136.64L126.534 136.68C126.992 136.522 127.691 136.497 127.863 136.186C129.763 132.746 132.697 129.75 132.604 125.427C132.599 125.106 132.619 124.751 132.751 124.469C133.756 122.347 134.026 120.022 134.578 117.777C134.681 117.347 134.578 116.864 134.578 116.405C134.258 116.691 133.938 116.977 133.613 117.263C133.313 117.525 133.003 117.782 132.697 118.038C132.427 118.137 132.151 118.241 131.88 118.339C131.944 118.364 132.033 118.423 132.072 118.403C132.289 118.295 132.5 118.162 132.707 118.043L129.832 124.356L129.891 124.311C127.922 127.302 126.189 130.486 123.93 133.235C121.291 136.448 118.381 139.498 115.246 142.222C112.528 144.586 109.328 146.403 106.345 148.456L106.419 148.397C105.405 148.698 104.4 149.048 103.376 149.285C102.914 149.394 102.397 149.27 101.904 149.251C102.244 148.989 102.564 148.683 102.933 148.476C103.711 148.031 104.558 147.701 105.296 147.197C105.616 146.98 105.73 146.462 105.931 146.077C105.552 146.077 105.065 145.914 104.809 146.087C101.85 148.086 98.1483 147.291 95.0518 148.747C94.9139 148.811 94.7268 148.806 94.5693 148.787C90.7442 148.229 89.8187 148.362 86.545 149.705C86.092 149.892 85.4521 149.779 84.9598 149.621C84.8416 149.581 84.9352 148.806 84.9745 148.367C84.9992 148.061 85.0927 147.76 85.1518 147.459C84.7776 147.479 84.3789 147.419 84.0343 147.528C83.1777 147.79 82.3605 148.313 81.499 148.377C80.6719 148.441 79.6086 148.313 78.9981 147.824C77.3932 146.541 75.9754 145.021 74.6266 143.733C75.301 143.841 76.4677 143.792 77.4031 144.236C80.1304 145.534 82.7149 144.739 85.4078 144.157C87.8495 143.624 90.3258 142.785 92.802 144.552C93.3533 144.942 94.8696 144.172 95.8443 143.718C97.1981 143.086 98.547 142.365 99.7285 141.462C100.846 140.603 101.865 139.547 102.682 138.402C103.243 137.617 103.519 136.956 104.489 137.815C104.671 137.973 105.69 140.381 105.72 140.668C105.749 140.954 105.887 141.23 105.981 141.512C106.31 141.329 106.694 141.201 106.96 140.949C107.384 140.544 107.733 140.061 108.112 139.611C108.142 140.154 108.181 140.692 108.191 141.235C108.216 142.168 108.427 142.43 109.368 141.847C110.2 141.329 111.278 141.211 112.134 140.722C113.518 139.932 115.054 139.202 116.082 138.047C117.303 136.675 117.973 134.834 119.017 133.284C120.567 130.974 122.463 128.872 123.787 126.448C124.968 124.277 125.909 121.853 126.357 119.43C126.918 116.375 126.883 113.206 127.061 110.087C127.08 109.776 126.834 109.238 126.603 109.164C124.698 108.557 125.83 107.609 126.337 106.805C126.76 106.134 127.843 105.413 127.725 104.939C126.952 101.8 128.828 99.1055 128.941 96.159C128.971 95.3891 128.523 94.6142 128.385 93.8245C128.316 93.4198 128.365 92.9509 128.493 92.5561C128.843 91.4653 129.281 90.3992 129.635 89.3036C129.68 89.1654 129.438 88.7656 129.36 88.7754C128.902 88.8248 128.454 88.9531 128.001 89.0568C128.926 87.5662 127.41 86.6877 127.144 85.4983C127.11 85.3551 127.464 85.0294 127.701 84.9307C130.019 83.9386 130.423 83.1292 128.661 81.693C127.105 80.4295 127.385 78.2529 125.771 77.2115L125.761 77.251C126.844 76.3083 127.878 75.8592 125.899 74.2551C124.289 72.9521 122.664 72.5721 120.932 71.9354C118.15 70.9088 115.472 69.6157 112.74 68.4509C112.39 68.3029 111.982 68.2782 111.42 68.4509C115.477 69.4282 117.412 72.8238 119.927 75.5433L119.996 75.4989C120.036 76.0072 119.917 76.6044 120.144 77.0091C120.646 77.8975 121.32 78.6922 121.926 79.5213L121.985 79.467C121.128 78.7859 120.282 78.0851 119.41 77.4287C118.805 76.9746 118.16 76.5748 117.535 76.1454C117.431 75.795 117.328 75.4446 117.22 75.0991C117.22 75.0942 117.102 75.1238 117.037 75.1386L117.584 76.0862C118.903 77.6902 120.223 79.2943 121.542 80.9033L121.596 80.849C118.706 80.9477 115.836 79.5559 112.922 80.7207C112.686 80.8144 112.341 80.622 112.046 80.5627C112.169 80.2666 112.223 79.9014 112.435 79.6891C112.986 79.1364 113.611 78.6477 114.625 77.7643C112.484 78.0111 110.904 78.1789 109.323 78.3862C107.246 78.6576 106.069 77.7199 105.572 75.7358C105.454 75.2718 105.124 74.8573 104.893 74.418C104.435 74.7191 103.819 74.9214 103.544 75.3459C102.899 76.3527 102.466 77.3003 101.048 77.7149C99.6547 78.1246 99.3642 80.1531 100.324 81.5054C101.363 82.9713 102.613 84.2891 103.726 85.7055C104.041 86.1103 104.366 86.6236 104.395 87.1072C104.425 87.6353 104.125 88.1832 103.967 88.7212C103.544 88.425 103.155 88.0351 102.687 87.8624C102.131 87.6551 101.511 87.6304 100.92 87.5317C100.595 87.4774 100.236 87.4972 99.9501 87.3639C99.5415 87.1714 99.187 86.8703 98.8079 86.6137C98.867 87.1221 98.9212 87.6304 98.9852 88.1388C99.251 90.3647 101.24 89.955 102.594 90.5128L102.569 90.4683C103.209 90.7497 104.135 90.8731 104.395 91.3617C104.612 91.7713 104.223 92.9164 103.79 93.1533C103.303 93.4198 102.387 93.1878 101.786 92.9016C99.3445 91.7417 96.9668 90.4486 94.525 89.2937C94.1213 89.1012 93.501 89.3677 92.9841 89.422C93.053 90.0192 92.8906 90.9076 93.2253 91.1692C94.653 92.2945 96.2726 93.173 97.7298 94.2687C99.0787 95.2805 100.329 96.4354 101.58 97.5755C101.717 97.7038 101.565 98.1431 101.55 98.4392C101.338 98.3997 101.092 98.4145 100.92 98.306C100.098 97.7927 99.2953 97.2498 98.4879 96.7167L98.5421 96.6624C99.0295 99.8755 98.3107 102.56 95.1699 104.09C94.7367 104.303 94.1312 104.155 93.6044 104.174C93.8703 103.799 94.1361 103.419 94.4069 103.049C94.4561 102.985 94.5299 102.94 94.5939 102.891C95.7902 101.983 97.5871 101.386 96.7699 99.3227C96.184 97.8371 92.9497 96.006 91.4482 96.3762C90.8131 96.5341 90.3454 97.3583 89.8039 97.8766C90.311 98.2566 90.7737 98.7206 91.33 99.0068C92.2555 99.4856 93.2795 99.7718 94.1705 100.3C94.4708 100.478 94.6924 101.233 94.5595 101.558C94.4315 101.864 93.7816 102.111 93.3681 102.111C92.226 102.101 91.0839 101.86 89.9418 101.874C88.9523 101.889 87.8495 101.924 88.4797 103.582C88.6323 103.987 87.9529 104.707 87.6575 105.28C87.0274 104.806 85.4324 105.68 85.7376 103.824C85.8164 103.355 85.2748 102.807 85.1124 102.269C85.0287 101.978 85.0336 101.539 85.201 101.322C85.8164 100.527 86.4908 99.7768 87.1849 99.0463C88.1695 98.0098 88.0415 97.2596 87.3622 95.8876C86.6385 94.4316 86.9929 92.4228 86.9339 90.651C86.8846 89.19 86.8846 87.7242 86.9437 86.2633C86.9831 85.2959 86.8305 84.0966 87.3277 83.4204C88.6273 81.6732 88.588 79.778 88.6372 77.8038C88.6569 77.0536 89.1393 76.3182 89.4101 75.5729C89.9516 75.9974 90.498 76.4119 91.0248 76.8512C91.6451 77.3744 92.354 78.7514 92.5804 76.6094C92.61 76.3428 92.8512 76.0516 93.0678 75.8542C95.2733 73.8603 97.4935 71.8861 99.7138 69.9118C99.7728 69.8575 99.8614 69.8329 99.9057 69.7687C100.88 68.3275 100.88 68.3917 102.495 68.3127C103.347 68.2683 104.189 67.9426 105.031 67.7402C104.13 67.5132 103.229 67.296 102.328 67.064C101.338 66.8074 100.354 66.5359 99.3692 66.2694C99.8713 64.8776 101.013 64.5469 102.308 64.5568C103.78 64.5667 105.252 64.6604 106.724 64.7049C107.866 64.7394 109.151 65.0997 110.121 64.695C112.262 63.8066 113.926 64.4285 115.57 65.692C115.748 65.8598 115.895 66.0868 116.102 66.1855C116.358 66.304 116.658 66.3237 116.944 66.3681C116.954 66.3681 117.023 66.1806 117.008 66.1658C116.757 65.993 116.516 65.7808 116.235 65.6969C116.018 65.6278 115.753 65.7216 115.511 65.7413C115.758 65.4008 115.969 64.8184 116.265 64.769C117.446 64.5765 120.976 66.8617 121.606 68.1054C121.375 68.0314 121.148 67.9179 120.907 67.8833C120.429 67.8142 119.942 67.7846 119.46 67.7353C119.696 68.1301 119.863 68.5941 120.178 68.905C120.996 69.7045 121.887 70.4301 122.743 71.1852L122.271 71.2889L122.694 71.1359C123.403 71.205 124.107 71.2839 124.816 71.3481C125.18 71.3777 125.549 71.3826 125.918 71.4024C125.584 71.0322 125.308 70.5831 124.909 70.3018C123.807 69.5121 122.655 68.7865 121.522 68.0363C121.99 67.7155 122.517 67.4539 122.92 67.0591C123.644 66.3434 123.688 65.7759 122.615 65.1984C121.739 64.7246 119.981 64.6209 120.941 62.7751C120.991 62.6763 120.897 62.3753 120.838 62.3654C118.372 61.9459 119.12 58.9895 117.402 57.9678C117.229 57.8642 117.249 57.4249 117.18 57.1436C119.903 57.0992 118.263 54.8387 118.667 53.7381C119.12 52.5091 118.406 50.8459 118.194 49.3701L118.135 49.3899V48.7779L118.194 48.7976C118.037 48.3584 117.879 47.9191 117.717 47.4798C117.362 47.7513 116.924 47.9586 116.663 48.2991C116.122 49.0049 115.743 49.8489 115.147 50.5004C114.935 50.7324 114.286 50.5547 113.838 50.5645C113.921 50.2191 113.931 49.8292 114.108 49.538C115.354 47.5144 115.506 45.4711 114.305 43.3735L114.251 43.4327C114.783 43.2451 116.398 43.7979 115.009 42.2877C114.591 41.8336 113.877 40.96 114 40.7971C115.669 38.512 113.247 37.441 112.513 35.9603C112.321 35.5704 110.913 35.7826 110.062 35.7234V35.7579C108.811 35.3434 107.689 34.9584 107.192 33.4037C106.99 32.7719 105.73 32.308 104.873 32.1007C102.943 31.6269 102.229 30.3881 102.855 28.5274C103.179 27.565 103.303 26.5038 103.332 25.4822C103.347 24.9837 102.953 24.4654 102.741 23.9571C102.392 24.2828 102.092 24.7468 101.678 24.9047C101.289 25.0528 100.442 25.0182 100.369 24.8356C99.8122 23.4389 99.3888 21.9829 98.9359 20.5466C98.739 19.9149 98.7489 19.0265 98.3304 18.7205C98.0104 18.4885 97.1538 18.9673 96.5434 19.1597C96.2677 19.2436 95.8148 19.5447 95.7853 19.5003C94.4462 17.6593 92.7035 18.8192 91.1233 18.8389C90.9067 15.3396 87.9381 17.2151 86.4465 16.7907C84.1278 16.1343 83.99 16.6722 85.0533 14.5006C85.1665 14.2686 85.0976 13.9478 85.1075 13.6714C84.881 13.7307 84.6349 13.7455 84.4379 13.854C81.2528 15.5716 77.984 17.1609 74.9072 19.0561C69.0932 22.6442 63.8946 26.9727 59.8874 32.5992C59.3803 33.3099 59.2228 34.2822 58.6812 34.9485C57.6524 36.212 57.3127 38.1369 55.3386 38.5811C55.1811 38.6156 55.2204 39.5139 55.1663 40.0124L55.1072 39.9531C54.5411 40.6343 53.9552 41.3005 53.4137 42.0014C52.882 42.6924 52.9116 42.6973 51.8778 42.1495C51.7202 42.0656 51.351 42.0508 51.3215 42.1149C51.1196 42.5394 50.8637 42.9934 50.8489 43.4426C50.716 47.5539 50.5732 51.6652 50.5634 55.7765C50.5634 56.9659 51.1443 58.1505 51.1689 59.3449C51.2476 63.624 51.1984 67.9031 51.1984 72.3993L50.396 70.203L50.3123 69.8279L50.4354 70.2475C49.7462 70.5041 48.8157 71.3333 48.7222 69.7736C48.5105 66.146 48.4268 62.5135 48.2151 58.8859C48.161 57.9333 47.8213 56.9955 47.6145 56.0529L47.6638 56.1022C46.8712 54.1527 46.0884 52.2031 45.2811 50.2635C45.03 49.6613 44.6165 49.1184 44.4392 48.4966C44.3162 48.0672 43.9716 46.8333 45.1285 48.0079C45.2761 47.8056 45.5617 47.5934 45.5469 47.4009C45.3894 45.0861 45.0054 42.7664 45.0694 40.4615C45.1038 39.2029 45.862 37.9592 46.3346 36.7253C46.5069 36.2762 47.073 35.8024 46.9795 35.4667C46.1967 32.5449 47.6884 29.8057 47.6244 26.8987C47.5801 24.9047 49.0569 22.8713 49.8643 20.8576C50.1154 20.2308 50.3911 19.6138 50.6569 18.9969C49.9431 18.9919 49.2194 18.9327 48.5105 19.0018C48.22 19.0314 47.9591 19.3374 47.6884 19.5151L47.6785 19.5793C47.5801 18.301 48.5351 18.0344 49.4065 18.069C52.1978 18.1776 54.1571 16.5439 56.0623 14.9201C57.293 13.8738 58.3957 13.6813 59.8529 14.2785C63.0922 15.6012 64.446 16.1096 67.0896 12.171C67.385 11.7268 68.4582 11.5788 69.1277 11.6627C70.4618 11.8305 71.3971 11.7367 71.5448 10.103C71.5842 9.67365 71.8697 9.12087 72.2143 8.89383C73.7749 7.88205 75.2912 6.59387 77.0191 6.09538C80.9919 4.94541 85.0779 4.1952 89.1196 3.27719C91.3497 2.77377 93.6536 2.47764 95.7902 1.70769C104.386 -1.37208 112.686 0.0641618 120.991 2.93171C127.041 5.02437 132.781 7.64021 137.773 11.7318L137.807 11.8107L137.743 11.6725C142.627 16.1343 147.697 20.4084 152.315 25.1268C154.929 27.7969 155.643 31.6022 155.978 35.3286C156.012 35.7283 155.83 36.2268 156.007 36.523C158.36 40.4418 157.391 45.0812 158.774 49.1727C159.552 51.4677 160.807 53.5999 160.394 56.1368C160.211 57.2423 159.995 58.3775 159.552 59.3893C158.434 61.9508 157.228 64.4778 155.978 66.9752C154.417 70.0796 152.935 73.2433 151.104 76.1849C150.129 77.7495 150.193 79.161 150.804 80.5578C152.089 83.5043 151.596 86.283 150.74 88.8149C150.228 85.212 149.706 81.3968 149.14 77.5866C148.943 76.2737 148.254 75.7753 147.368 77.0388C146.324 78.5243 144.778 77.3398 143.557 77.9814C142.42 78.5786 141.45 78.8945 141.967 80.5529C142.213 81.3425 141.829 82.3198 141.81 83.2131C141.8 83.5882 142.007 83.9682 142.11 84.3483C142.459 84.215 142.922 84.1854 143.139 83.9337C144.512 82.379 145.103 83.1835 145.689 84.6345C145.979 85.3551 146.619 85.9326 146.998 86.6285C147.348 87.2701 147.633 87.966 147.82 88.6718C148.524 91.3321 147.712 93.1335 145.069 94.323C144.251 94.6882 144.054 96.2923 143.39 97.1955C143.001 97.7236 142.248 97.9802 141.657 98.3553C141.76 97.694 141.746 96.9832 141.997 96.3811C142.952 94.0713 144.296 91.8651 144.867 89.4714C145.133 88.351 143.976 86.8901 143.464 85.5822L142.971 86.589L143.001 86.5495C141.559 86.6285 140.909 87.2652 140.845 88.8396C140.697 92.4179 140.485 96.0109 140.008 99.5596C139.57 102.857 138.698 106.089 138.147 109.371C137.994 110.26 138.3 111.227 138.393 112.155L138.349 112.081C135.937 116.508 135.439 121.468 134.804 126.305C134.553 128.225 135.69 130.431 136.503 132.376C137.768 135.397 139.225 138.343 140.741 141.245C141.253 142.217 142.071 143.135 142.962 143.787C150.597 149.408 158.242 155.02 165.961 160.523C173.498 165.893 181.124 171.135 188.72 176.426C189.109 176.697 189.572 176.87 190 177.092C190 193.206 189.985 209.326 190.03 225.44C190.03 226.674 189.749 226.951 188.523 226.951C126.189 226.916 63.8602 226.911 1.52618 226.975C-0.167304 226.975 0.0394584 226.27 0.0394584 225.194C0.0542271 199.292 0.0493042 173.39 0.0493042 147.489C5.18883 146.141 10.2742 144.522 15.4777 143.506C27.5241 141.151 39.6197 139.069 51.7055 136.927C53.714 136.571 55.7718 136.413 57.8099 136.295C61.4676 136.087 62.6885 137.617 61.9648 141.339C61.2609 144.966 60.6947 148.624 59.8627 152.222C57.9723 160.37 55.949 168.489 53.9946 176.628C53.1774 180.029 51.7449 183.4 53.3793 186.963C53.4728 187.17 53.266 187.521 53.1971 187.807C52.9067 187.703 52.4833 187.684 52.3504 187.476C51.6513 186.39 51.0261 185.26 50.3664 184.135C49.2834 187.97 48.1068 191.928 47.0779 195.926C46.8466 196.814 46.0884 198.167 48.2053 198.394C48.7714 198.453 49.1652 200.136 49.6428 201.069C49.7806 201.34 49.9431 201.602 50.0957 201.863C50.396 201.636 50.7997 201.473 50.9769 201.172C51.5922 200.106 52.1584 199.011 52.6654 197.89C52.8131 197.564 52.8574 196.908 52.6654 196.765C50.5732 195.161 52.7934 194.347 53.2414 192.723C53.394 193.409 53.463 193.611 53.4826 193.818C53.5319 194.43 53.5614 195.047 53.6008 195.659C54.0537 195.25 54.5361 194.87 54.9546 194.43C57.3914 191.898 59.6461 189.149 62.2996 186.869C64.446 185.028 64.638 182.684 64.9678 180.29C65.017 179.95 64.2048 179.115 63.8897 179.16C62.0781 179.436 62.1617 178.306 62.0682 177.097C61.9648 175.725 61.6202 174.372 61.507 173C61.4529 172.383 61.5168 171.604 61.8467 171.13C63.7272 168.42 66.1788 166.426 69.487 165.765C70.1713 165.627 70.9393 165.864 71.663 165.957C72.2636 166.031 72.8592 166.145 73.4598 166.244C73.2285 165.651 73.0266 165.044 72.7559 164.472C70.5553 159.793 68.3203 155.129 66.1493 150.43C65.6816 149.423 65.4306 148.313 65.0761 147.252L65.6521 146.98C66.0262 147.706 66.3955 148.426 66.7696 149.152C68.916 153.293 71.0722 157.429 73.2137 161.57C73.9275 162.947 74.4838 164.427 75.3404 165.701C76.5268 167.468 77.2013 167.364 78.3384 165.651C79.515 163.884 81.0116 162.581 83.3204 162.685L83.3894 163.544L83.793 163.401C83.6158 163.184 83.4337 162.961 83.2564 162.744C83.793 162.804 84.3296 162.848 84.8662 162.922C85.4521 163.001 86.033 163.11 87.0422 163.277C84.4379 164.699 82.1045 165.957 79.7956 167.255C79.3329 167.517 78.9587 167.932 78.5403 168.277C79.0178 168.445 79.5643 168.854 79.9581 168.741C81.302 168.346 81.9568 169.101 82.5377 170.044C84.0786 172.546 85.5702 175.083 87.1308 177.571C87.8298 178.686 87.1209 179.382 86.3185 179.155C85.1961 178.839 83.9703 178.109 83.3008 177.181C82.6411 176.273 82.2128 176.273 81.6171 176.875C79.2246 179.308 76.8173 181.736 74.5773 184.308C74.0358 184.93 73.9226 186.084 73.9275 186.998C73.9374 188.547 74.0407 190.127 74.3755 191.637C75.109 194.963 74.346 198.014 72.8346 200.896C71.0476 204.302 69.0637 207.598 67.188 210.96C66.489 212.213 65.8687 213.506 65.5093 214.938C67.316 213.028 69.1227 211.122 70.9295 209.212L70.8704 209.148C71.0673 209.148 71.2691 209.138 71.4661 209.133L71.407 209.212L71.3725 209.227ZM50.204 51.2555L50.3123 51.2012L50.2581 51.3147L50.1991 51.2555H50.204ZM130.827 133.985L130.817 134.049L130.886 134.163L130.832 133.985H130.827ZM117.963 68.2634L118.076 68.1499L117.899 68.2091L117.963 68.2584V68.2634ZM122.477 131.695L122.403 132.327L122.423 131.645L122.536 131.695H122.477ZM109.742 75.0251L109.688 74.9115L109.806 74.9609L110.086 75.7555L110.268 75.6025L109.747 75.0201L109.742 75.0251ZM53.7042 36.5081C54.0192 36.444 54.3688 36.444 54.6494 36.3058C54.9152 36.1775 55.1072 35.906 55.3337 35.6987C54.9841 35.7283 54.5903 35.6642 54.3048 35.8122C54.0586 35.9406 53.9306 36.3058 53.7534 36.5723L53.7042 36.5081ZM135.306 114.381C135.602 114.124 135.897 113.873 136.188 113.616C136.05 113.478 135.912 113.345 135.774 113.206C135.641 113.616 135.508 114.031 135.37 114.44L135.267 114.544L135.302 114.381H135.306ZM86.3874 15.5025C86.604 15.4038 86.924 15.3693 87.0225 15.1965C87.3474 14.6388 87.6132 14.0416 87.8397 13.4395C87.8544 13.4049 87.3572 13.1729 87.0963 13.0298C86.8797 13.6171 86.6434 14.1995 86.4514 14.7967C86.3825 15.0139 86.4317 15.2705 86.4268 15.5124L85.4816 15.5914L86.3874 15.4976V15.5025ZM41.7563 214.395C43.5679 212.065 43.9716 209.311 44.1143 206.478C45.0349 205.002 46.0047 203.556 46.8219 202.026C46.9844 201.725 46.5413 201.103 46.3789 200.629C46.049 200.931 45.5371 201.177 45.4288 201.547C44.9365 203.186 44.5623 204.864 44.1439 206.527C43.3414 209.168 42.5341 211.808 41.7316 214.449L41.8055 214.572L41.7513 214.39L41.7563 214.395ZM114.113 74.6006C111.238 70.6028 106.414 71.4468 103.598 72.7448C103.288 72.888 103.115 73.3223 102.874 73.6234C103.298 73.6777 103.775 73.8849 104.139 73.7616C107.394 72.6905 110.549 72.9225 114.108 74.6006H114.113ZM137.842 101.016C137.266 100.547 136.833 100.083 136.754 100.137C135.932 100.705 135.164 101.356 134.381 101.988C134.804 102.279 135.41 102.916 135.617 102.802C136.37 102.393 136.985 101.741 137.842 101.016ZM90.3504 88.0499C89.9368 89.1012 89.5775 89.575 89.6316 89.9995C89.6858 90.4091 90.1633 90.7595 90.4538 91.1396C90.7639 90.8286 91.3448 90.493 91.3202 90.2117C91.266 89.6639 90.8771 89.1506 90.3504 88.0499ZM137.448 98.8489C137.788 98.4688 138.177 98.1974 138.285 97.842C138.329 97.694 137.635 97.1066 137.546 97.1609C137.118 97.4225 136.783 97.8371 136.414 98.1924C136.709 98.38 137.01 98.5676 137.448 98.8489ZM97.6412 84.4815C97.1932 83.8597 96.7945 83.3069 96.3908 82.7492C96.2333 82.8972 95.9133 83.1292 95.9379 83.1786C96.2628 83.7807 96.6369 84.3582 96.9963 84.9405L97.6412 84.4815ZM131.186 74.9905C130.699 74.6203 130.28 74.2847 129.832 73.9935C129.793 73.9689 129.571 74.2206 129.433 74.344C129.832 74.7536 130.236 75.1682 130.635 75.5778L131.186 74.9856V74.9905ZM115.152 22.7281L115.541 22.7775C115.674 21.9878 115.802 21.2031 115.935 20.4134L115.438 20.3443L115.152 22.7232V22.7281ZM91.01 83.9386L90.4538 84.7283C90.7984 84.8862 91.1331 85.1281 91.4974 85.1725C91.6648 85.1923 91.8814 84.8468 92.0783 84.6691L91.015 83.9436L91.01 83.9386ZM105.656 15.463L105.365 14.7424C105.045 15.004 104.691 15.236 104.43 15.542C104.341 15.6456 104.494 15.9516 104.538 16.1688L105.656 15.4581V15.463ZM135.134 106.371C135.346 105.956 135.548 105.704 135.587 105.423C135.607 105.3 135.297 105.132 135.134 104.979C134.957 105.221 134.721 105.443 134.627 105.714C134.588 105.823 134.868 106.04 135.134 106.371ZM125.214 129.716C124.604 129.143 124.471 129.02 124.338 128.896C124.097 129.202 123.811 129.484 123.629 129.824C123.565 129.948 123.757 130.204 123.831 130.402C124.25 130.194 124.668 129.987 125.214 129.716ZM108.762 77.1671L109.264 77.0042C108.959 76.8167 108.669 76.5946 108.344 76.4613C108.211 76.407 107.999 76.5501 107.827 76.6044L108.767 77.1671H108.762ZM54.1866 33.305C54.5165 33.5123 54.7675 33.7442 54.8315 33.6998C55.2155 33.4382 55.5503 33.1125 55.9047 32.8114C55.7472 32.688 55.5158 32.4215 55.442 32.461C55.0481 32.6683 54.6937 32.9496 54.1817 33.305H54.1866ZM92.5903 12.7732C92.2555 12.4573 92.0832 12.2105 91.8519 12.1266C91.7583 12.0921 91.4039 12.403 91.3989 12.5609C91.3989 12.8077 91.586 13.0594 91.6992 13.3111L92.5903 12.7732ZM110.992 70.6423L111.027 70.3659C110.426 70.282 109.83 70.1981 109.23 70.1142L109.2 70.3708L110.992 70.6423ZM58.504 30.546C58.3022 30.4078 58.1643 30.2499 58.1003 30.2795C57.741 30.4276 57.4013 30.625 57.0518 30.8027C57.1798 30.9261 57.3619 31.1778 57.4259 31.1482C57.7804 30.9952 58.1102 30.778 58.504 30.551V30.546ZM129.68 62.242C129.507 62.8688 129.389 63.16 129.364 63.4562C129.35 63.6388 129.478 63.8313 129.542 64.0238C129.655 63.7523 129.812 63.4907 129.867 63.2045C129.901 63.012 129.793 62.7948 129.675 62.242H129.68ZM113.788 21.0945C113.449 20.9563 113.262 20.828 113.065 20.8181C112.951 20.8131 112.823 20.9908 112.705 21.0895C112.838 21.2425 112.971 21.5189 113.109 21.5239C113.286 21.5239 113.468 21.3116 113.788 21.0994V21.0945ZM135.558 108.256C135.474 108.192 135.375 108.108 135.262 108.044C135.252 108.039 135.124 108.157 135.134 108.197C135.169 108.32 135.242 108.429 135.302 108.547L135.558 108.261V108.256ZM107.822 67.8389C107.59 67.7698 107.384 67.681 107.172 67.6662C107.103 67.6662 107.024 67.8636 106.95 67.9722C107.152 68.061 107.349 68.1745 107.561 68.2239C107.605 68.2338 107.704 68.0166 107.822 67.8389ZM95.4899 13.9281C95.4505 13.8096 95.4357 13.6171 95.3668 13.5875C95.2634 13.553 95.1207 13.6418 94.9927 13.6764C95.0321 13.7948 95.0419 13.9922 95.1158 14.0169C95.2191 14.0515 95.3619 13.9676 95.4948 13.9281H95.4899ZM48.8453 52.4647L48.5893 51.9169C48.476 51.9761 48.2594 52.0353 48.2594 52.0946C48.2594 52.2772 48.3431 52.4598 48.3973 52.6424L48.8453 52.4647ZM47.5161 49.5133C47.2502 49.4392 47.0435 49.38 46.8318 49.3405C46.8219 49.3405 46.7727 49.5429 46.7432 49.6515C46.8859 49.686 47.0336 49.7601 47.1715 49.7502C47.2699 49.7452 47.3585 49.6268 47.5111 49.5133H47.5161ZM97.4541 88.4102L97.5132 88.198C97.3852 88.1634 97.2523 88.1289 97.1243 88.1092C97.1144 88.1092 97.0898 88.2424 97.0701 88.3115C97.1981 88.3461 97.3261 88.3806 97.4541 88.4102ZM117.377 43.6351C117.348 43.7486 117.308 43.867 117.303 43.9805C117.303 44.0151 117.451 44.099 117.476 44.0842C117.574 44.0102 117.648 43.9065 117.737 43.8127C117.618 43.7535 117.5 43.6943 117.377 43.6351ZM129.045 71.0421L128.729 70.7262C128.675 70.8644 128.562 71.0174 128.582 71.1457C128.601 71.2592 128.769 71.3481 128.872 71.4468C128.931 71.3135 128.99 71.1803 129.049 71.0421H129.045ZM135.38 78.2677L135.277 78.5786L135.474 78.5046L135.385 78.2677H135.38ZM130.674 79.1462C130.704 79.1956 130.733 79.2894 130.758 79.2894C130.886 79.2795 131.009 79.2449 131.132 79.2203C131.102 79.1709 131.073 79.0722 131.048 79.0771C130.92 79.087 130.797 79.1215 130.674 79.1462ZM111.657 14.0959L111.406 13.6517C111.224 13.78 111.027 13.8985 110.874 14.0564C110.849 14.0811 111.051 14.4068 111.076 14.397C111.278 14.3229 111.465 14.2045 111.657 14.0959ZM88.3812 89.0321C88.4107 88.9087 88.4452 88.7853 88.455 88.657C88.455 88.6323 88.3566 88.6027 88.3024 88.578C88.2729 88.7014 88.2384 88.8248 88.2286 88.9531C88.2286 88.9778 88.327 89.0074 88.3812 89.037V89.0321ZM93.3878 14.8609C93.442 14.8856 93.506 14.9399 93.5453 14.93C93.5847 14.9152 93.5995 14.8313 93.6241 14.7819C93.5699 14.7572 93.506 14.703 93.4666 14.7128C93.4272 14.7276 93.4124 14.8115 93.3878 14.8609ZM113.035 76.3626V76.5649L113.34 76.4514C113.301 76.3971 113.271 76.3132 113.222 76.3034C113.168 76.2886 113.094 76.3428 113.04 76.3675L113.035 76.3626ZM150.07 72.1723C150.129 72.1427 150.213 72.1279 150.238 72.0785C150.257 72.0341 150.218 71.9552 150.203 71.8959L149.932 72.0489L150.07 72.1723ZM46.3346 40.3727L46.305 40.5948C46.433 40.575 46.561 40.5701 46.6792 40.5257C46.7136 40.5158 46.7038 40.3875 46.7087 40.3134C46.5807 40.3332 46.4576 40.3529 46.3296 40.3776L46.3346 40.3727ZM70.1713 196.883C70.0483 196.834 69.9006 196.721 69.8021 196.75C69.7135 196.775 69.6741 196.962 69.6101 197.081C69.7381 197.125 69.8809 197.224 69.9941 197.199C70.0729 197.184 70.1123 196.997 70.1713 196.883ZM106.832 30.931L106.744 31.1926L106.911 31.1333L106.837 30.931H106.832ZM134.371 113.024L134.174 113.335C134.233 113.359 134.332 113.419 134.342 113.404C134.42 113.31 134.479 113.201 134.543 113.103C134.484 113.078 134.425 113.048 134.371 113.024ZM133.702 63.9892C133.702 63.925 133.726 63.8559 133.702 63.8017C133.692 63.777 133.598 63.7868 133.544 63.7819C133.544 63.8461 133.519 63.9152 133.544 63.9695C133.554 63.9941 133.647 63.9843 133.702 63.9892ZM94.7662 16.4008L94.6579 16.5785L94.8351 16.6031L94.7662 16.4008ZM60.5569 214.069L60.3501 214.079L60.4732 214.39C60.5273 214.35 60.6209 214.316 60.6307 214.266C60.6406 214.207 60.5815 214.133 60.552 214.069H60.5569ZM110.923 16.9832L111.017 16.7759L110.731 16.8943L110.923 16.9782V16.9832ZM114.31 22.3678L114.34 22.1951L114.182 22.2593L114.31 22.3678ZM112.42 19.2634L112.228 19.3522L112.489 19.4608L112.415 19.2634H112.42ZM129.763 69.7342L129.601 69.7687L129.699 69.9217L129.763 69.7342ZM48.0182 199.687C48.0674 199.628 48.1511 199.568 48.1511 199.509C48.1511 199.45 48.0674 199.391 48.0182 199.331C47.969 199.391 47.8902 199.45 47.8902 199.504C47.8902 199.563 47.9739 199.623 48.0182 199.682V199.687ZM130.723 71.3728L130.684 71.2099L130.536 71.3135L130.723 71.3777V71.3728ZM48.9733 221.63L49.0668 221.482L48.924 221.457L48.9733 221.63Z" fill="#95C11F"/>
<path d="M67.8131 114.045C68.458 114.016 69.1177 113.882 69.7429 113.971C74.4837 114.662 79.2097 115.506 83.9652 116.079C86.0526 116.331 88.2236 115.867 90.3256 116.054C95.3667 116.503 100.393 117.12 105.419 117.717C106.433 117.836 107.876 117.925 107.452 119.455C107.132 120.624 106.128 121.143 104.705 120.639C103.736 120.299 102.603 120.333 101.545 120.363C98.1875 120.447 95.027 119.642 91.9207 118.463C91.1773 118.181 90.3306 118.167 89.5281 118.043C86.5448 117.574 83.5616 117.096 80.5783 116.651C79.5346 116.493 78.4663 116.488 77.4227 116.316C74.1883 115.768 70.9638 115.171 67.7344 114.598L67.8131 114.055V114.045ZM100.698 119.233L100.669 119.114L100.541 119.183L100.693 119.233H100.698Z" fill="#95C11F"/>
<path d="M62.4719 73.4013C65.5044 71.3382 68.8028 70.9384 72.3079 71.812C73.002 71.9848 72.9627 71.9601 72.8396 71.047C72.8051 70.7904 73.0267 70.356 73.2531 70.2376C73.6863 70.0105 74.2672 69.744 74.6709 69.8674C76.2955 70.3708 78.5305 73.5 78.4172 75.2422C78.3926 75.5877 77.3637 76.1454 76.8222 76.1158C76.1232 76.0813 75.3601 75.6716 74.7989 75.2077C74.4198 74.8918 74.3411 74.2107 74.1245 73.6925C73.7848 74.0972 73.519 74.65 73.0857 74.877C72.0125 75.4396 70.8458 76.2688 69.7529 76.2096C68.6354 76.1504 66.8976 75.3853 66.617 74.5364C65.9672 72.577 65.1401 72.6313 63.6731 73.3914C63.3679 73.5493 62.8805 73.3519 62.4768 73.3223V73.3963L62.4719 73.4013ZM70.9886 72.4092C70.836 72.888 70.7129 73.0706 70.7424 73.2186C70.7867 73.4407 70.9443 73.6431 71.0526 73.8553C71.215 73.7418 71.5301 73.5888 71.5153 73.5197C71.4464 73.2384 71.2741 72.9768 70.9886 72.4092ZM69.4772 74.7881L69.1671 74.9066C69.236 74.9313 69.3197 74.9954 69.3689 74.9757C69.4231 74.956 69.4428 74.8523 69.4772 74.7832V74.7881Z" fill="#95C11F"/>
<path d="M58.824 71.7429C59.5083 70.6916 60.1926 69.6404 60.8769 68.5842C61.3003 67.9327 61.7187 67.2763 62.1421 66.6198L60.0055 66.8962L59.9957 66.9653C59.405 65.1787 60.7588 65.3267 61.7926 65.1638C62.5409 65.0454 63.5402 65.2181 63.998 64.7937C66.6761 62.321 69.7431 63.239 72.7411 63.6042C73.7257 63.7227 74.6808 64.0287 74.2623 65.5143C74.1639 65.8696 74.73 66.605 75.1731 66.8765C75.8278 67.2861 76.6401 67.4391 77.2801 68.1548C75.946 67.9722 74.5774 67.9228 73.2827 67.5872C70.1123 66.7728 66.8533 66.5557 63.875 67.7649C61.9599 68.5398 60.4683 70.361 58.7847 71.7133L58.829 71.733L58.824 71.7429ZM66.2183 65.9387L66.4053 65.8548C66.3512 65.8104 66.302 65.7413 66.2478 65.7364C66.1937 65.7314 66.1297 65.7857 66.0657 65.8153L66.2183 65.9387ZM71.0723 65.6969L71.1313 65.9535L71.279 65.8499L71.0673 65.6969H71.0723Z" fill="#95C11F"/>
<path d="M146.855 99.8804C145.349 103.419 143.917 107.012 140.889 109.579C142.435 106.8 143.951 104.006 145.541 101.257C145.846 100.729 146.432 100.369 146.885 99.9297L146.855 99.8804Z" fill="#95C11F"/>
<path d="M77.3586 102.378C76.4331 101.524 75.7291 100.877 75.0251 100.231L76.7039 98.7156C77.3438 99.5053 78.0134 100.275 78.5697 101.119C78.6238 101.198 77.974 101.746 77.3586 102.373V102.378Z" fill="#95C11F"/>
<path d="M60.2662 175.942C59.3949 177.581 58.5481 179.234 57.6423 180.853C57.4405 181.208 57.022 181.44 56.707 181.731C56.6873 181.272 56.4854 180.715 56.6774 180.379C57.6226 178.721 57.6275 176.263 60.2465 175.967L60.2712 175.947L60.2662 175.942Z" fill="#95C11F"/>
<path d="M103.288 99.9001C103.923 101.075 104.499 102.111 105.04 103.167C105.173 103.424 105.188 103.745 105.252 104.036C105.031 104.076 104.784 104.194 104.587 104.14C103.583 103.873 102.264 101.415 102.633 100.512C102.707 100.334 102.928 100.226 103.283 99.9001H103.288Z" fill="#95C11F"/>
<path d="M102.333 108.567C101.378 109.199 100.787 109.885 100.349 109.801C99.8614 109.702 99.2904 108.932 99.2018 108.384C99.1476 108.059 99.9697 107.259 100.373 107.274C100.9 107.294 101.402 107.911 102.338 108.572L102.333 108.567ZM100.556 108.621L100.546 108.429L100.25 108.532C100.29 108.582 100.319 108.666 100.369 108.68C100.423 108.695 100.492 108.641 100.556 108.621Z" fill="#95C11F"/>
<path d="M93.6633 106.415C94.0325 106.445 94.5052 106.637 94.7464 106.474C95.726 105.828 95.9673 105.946 95.5045 107.071C95.2239 107.753 94.9581 108.439 94.6873 109.125C94.3624 108.207 94.0375 107.284 93.7126 106.366L93.6633 106.42V106.415Z" fill="#95C11F"/>
<path d="M146.885 99.9248C146.585 98.0641 146.083 96.1393 148.805 94.9054C148.071 96.7759 147.461 98.3306 146.855 99.8804L146.885 99.9297V99.9248Z" fill="#95C11F"/>
<path d="M119.43 84.7678C118.741 85.4982 118.322 85.9375 117.909 86.3817C117.732 86.0905 117.382 85.7697 117.416 85.5081C117.51 84.832 117.781 84.1755 117.978 83.5142L119.43 84.7727V84.7678Z" fill="#95C11F"/>
<path d="M83.5024 104.071C82.7443 103.483 82.0896 102.98 81.4348 102.476C81.7253 102.373 82.0994 102.096 82.2865 102.19C82.9708 102.531 83.5911 102.995 84.2409 103.409L83.5024 104.071Z" fill="#95C11F"/>
<path d="M59.9167 74.3193C59.9561 74.1761 59.9611 74.0034 60.0447 73.8948C60.5321 73.2631 61.0392 72.6461 61.5413 72.0242C61.6398 72.2019 61.8711 72.4684 61.8219 72.5425C61.3444 73.2581 60.8226 73.9442 60.3106 74.6401L59.9167 74.3193Z" fill="#95C11F"/>
<path d="M79.9826 17.0473C79.9826 17.1263 79.9974 17.2102 79.9826 17.2892C79.8398 17.8716 79.6971 18.449 79.5494 19.0265L78.8208 18.5231C79.2245 18.0394 79.6282 17.5606 80.0269 17.0769L79.9826 17.0473Z" fill="#95C11F"/>
<path d="M87.3472 153.781L86.6235 151.866L86.9878 151.639C87.2241 151.945 87.5293 152.222 87.682 152.562C87.8346 152.893 87.8296 153.298 87.8986 153.668L87.3472 153.786V153.781Z" fill="#95C11F"/>
<path d="M93.7126 106.361C93.4911 106.464 93.2745 106.652 93.048 106.657C92.6345 106.662 92.2013 106.612 91.8222 106.464C91.7336 106.43 91.8419 105.897 91.8616 105.591C92.2751 105.709 92.6985 105.803 93.0973 105.966C93.3139 106.055 93.4763 106.262 93.6634 106.42L93.7126 106.366V106.361Z" fill="#95C11F"/>
<path d="M106.34 148.466C106.724 148.856 107.113 149.246 107.497 149.636C107.147 149.754 106.798 149.877 106.453 149.996C106.438 149.468 106.424 148.935 106.414 148.407L106.34 148.466Z" fill="#95C11F"/>
<path d="M109.983 109.86L111.524 111.257C111.401 111.321 111.199 111.464 111.169 111.434C110.702 110.975 110.259 110.492 109.811 110.013L109.983 109.86Z" fill="#95C11F"/>
<path d="M145.807 81.3327C145.635 80.9082 145.448 80.6466 145.457 80.3949C145.457 80.232 145.753 80.079 145.915 79.9211C146.083 80.1629 146.314 80.39 146.383 80.6614C146.412 80.7799 146.117 80.9872 145.807 81.3376V81.3327Z" fill="#95C11F"/>
<path d="M80.027 17.0769C80.4553 16.8746 80.8639 16.5834 81.3119 16.5094C81.5777 16.4649 81.9469 16.7068 82.1783 16.9141C82.2965 17.0227 82.2276 17.3435 82.2423 17.5705C81.942 17.531 81.6417 17.5162 81.3513 17.4422C80.8885 17.3287 80.4356 17.1806 79.9778 17.0473L80.0221 17.0769H80.027Z" fill="#95C11F"/>
<path d="M112.026 38.0678L111.376 38.8772C111.209 38.6502 110.913 38.4231 110.913 38.201C110.913 37.9592 111.199 37.7223 111.361 37.4804L112.026 38.0678Z" fill="#95C11F"/>
<path d="M98.0351 110.398C97.848 110.27 97.6265 110.171 97.6363 110.117C97.6708 109.914 97.784 109.727 97.8726 109.529C97.9858 109.608 98.2024 109.687 98.2024 109.766C98.2024 109.969 98.104 110.166 98.0351 110.398Z" fill="#95C11F"/>
<path d="M53.4384 47.3861C53.2562 47.1886 53.0741 47.0258 53.0938 47.0011C53.3153 46.6803 53.5614 46.3792 53.8027 46.0732C53.8814 46.1719 54.0537 46.315 54.0291 46.3595C53.8617 46.7 53.655 47.0208 53.4384 47.3811V47.3861Z" fill="#95C11F"/>
<path d="M104.558 150.904L105.035 151.096C104.942 151.294 104.873 151.501 104.745 151.674C104.72 151.708 104.361 151.565 104.366 151.536C104.4 151.323 104.484 151.116 104.558 150.904Z" fill="#95C11F"/>
<path d="M121.911 79.5361C122.147 79.5213 122.418 79.4325 122.615 79.5164C122.891 79.6348 123.112 79.8865 123.358 80.079C123.073 80.0395 122.763 80.0544 122.502 79.9507C122.295 79.8717 122.147 79.6447 121.975 79.4818L121.916 79.5361H121.911Z" fill="#95C11F"/>
<path d="M113.227 114.43L113.045 114.875C112.853 114.662 112.617 114.47 112.484 114.218C112.435 114.124 112.612 113.907 112.686 113.744L113.227 114.43Z" fill="#95C11F"/>
<path d="M149.834 91.9885C149.627 92.4968 149.42 93.0052 149.218 93.5136L148.923 93.326C149.238 92.8917 149.548 92.4623 149.863 92.028L149.839 91.9885H149.834Z" fill="#95C11F"/>
<path d="M101.255 110.561L101.703 110.778C101.545 110.906 101.407 111.074 101.225 111.148C101.146 111.183 100.989 111.04 100.871 110.975L101.255 110.561Z" fill="#95C11F"/>
<path d="M106.852 105.64L106.68 106.099C106.507 106.005 106.31 105.926 106.172 105.798C106.133 105.764 106.256 105.556 106.305 105.428L106.857 105.64H106.852Z" fill="#95C11F"/>
<path d="M113.473 52.9978C113.414 53.1212 113.355 53.2396 113.296 53.3581C113.203 53.2742 113.099 53.1952 113.02 53.0965C113.006 53.0767 113.084 52.9237 113.124 52.9237C113.242 52.9237 113.36 52.9681 113.473 52.9978Z" fill="#95C11F"/>
<path d="M100.939 105.971C100.88 105.852 100.826 105.729 100.767 105.611C100.831 105.581 100.954 105.517 100.959 105.527C101.028 105.64 101.082 105.764 101.141 105.882L100.939 105.966V105.971Z" fill="#95C11F"/>
<path d="M121.059 84.2644C120.961 84.3631 120.872 84.5259 120.764 84.5408C120.68 84.5506 120.567 84.3828 120.469 84.289C120.567 84.1903 120.656 84.0324 120.764 84.0176C120.848 84.0077 120.961 84.1755 121.059 84.2644Z" fill="#95C11F"/>
<path d="M105.966 109.391C106.025 109.524 106.084 109.658 106.143 109.791C106.015 109.821 105.887 109.865 105.759 109.865C105.72 109.865 105.636 109.697 105.656 109.673C105.744 109.564 105.857 109.485 105.966 109.396V109.391Z" fill="#95C11F"/>
<path d="M54.8611 43.3488L54.423 43.8473C54.3885 43.7042 54.2999 43.5462 54.3294 43.4179C54.359 43.2748 54.5017 43.1612 54.5953 43.0329L54.8611 43.3488Z" fill="#95C11F"/>
<path d="M103.411 111.128C103.357 111.104 103.273 111.089 103.263 111.05C103.248 111.01 103.302 110.946 103.332 110.892C103.386 110.916 103.47 110.931 103.48 110.971C103.494 111.01 103.435 111.074 103.411 111.128Z" fill="#95C11F"/>
<path d="M98.0694 29.1591C98.0153 29.1789 97.9464 29.2282 97.9119 29.2085C97.8725 29.1887 97.8676 29.1098 97.8479 29.0555C97.9021 29.0357 97.971 28.9864 98.0054 29.0061C98.0448 29.0259 98.0497 29.1098 98.0694 29.1641V29.1591Z" fill="#95C11F"/>
<path d="M119.917 75.5581C120.227 75.9134 120.538 76.2688 120.848 76.6242H120.897L119.981 75.5137L119.912 75.5581H119.917Z" fill="#95C11F"/>
<path d="M123.575 141.102C123.89 140.791 124.205 140.475 124.52 140.164L124.486 140.095C124.486 140.446 124.491 140.791 124.496 141.141L124.565 141.077C124.21 141.077 123.856 141.072 123.506 141.067L123.575 141.107V141.102Z" fill="#95C11F"/>
<path d="M112.115 87.1566C111.977 87.1566 111.908 87.1665 111.849 87.1517C111.829 87.1467 111.844 87.0529 111.839 86.9987L112.115 87.1566Z" fill="#95C11F"/>
<path d="M142.942 86.6087C142.966 86.8506 143.001 87.0924 143.011 87.3343C143.011 87.3738 142.922 87.4182 142.873 87.4626L142.971 86.5693L142.942 86.6087Z" fill="#95C11F"/>
<path d="M111.666 60.7071L111.519 60.5886L111.696 60.5096L111.666 60.7071Z" fill="#95C11F"/>
<path d="M118.933 106.909L118.736 106.844L118.893 106.736L118.933 106.909Z" fill="#95C11F"/>
<path d="M93.9096 19.4855C93.8604 19.52 93.8112 19.5891 93.7619 19.5891C93.7127 19.5891 93.6635 19.52 93.6143 19.4806C93.6635 19.446 93.7127 19.3769 93.7619 19.3769C93.8112 19.3769 93.8604 19.446 93.9096 19.4855Z" fill="#95C11F"/>
<path d="M103.283 121.626C103.229 121.661 103.17 121.73 103.115 121.725C103.066 121.725 103.022 121.646 102.978 121.597C103.081 121.607 103.179 121.616 103.283 121.626Z" fill="#95C11F"/>
<path d="M122.054 125.92L122.182 125.787L122.226 125.95L122.054 125.92Z" fill="#95C11F"/>
<path d="M122.566 142.124C122.905 141.783 123.24 141.447 123.58 141.107L123.511 141.067C123.511 141.423 123.511 141.778 123.511 142.134L123.595 142.069L122.521 142.055L122.566 142.124Z" fill="#95C11F"/>
<path d="M77.3291 19.0364C77.2799 18.9969 77.1912 18.9623 77.1863 18.9179C77.1765 18.8636 77.2405 18.7994 77.27 18.7402L77.5162 18.9524L77.3291 19.0413V19.0364Z" fill="#95C11F"/>
<path d="M116.038 52.0353L115.915 52.1883C115.876 52.134 115.802 52.0847 115.802 52.0304C115.802 51.981 115.876 51.9268 115.92 51.8774L116.043 52.0353H116.038Z" fill="#95C11F"/>
<path d="M82.6064 153.293L83.0495 152.898C83.0298 152.957 83.0298 153.046 82.9904 153.061C82.8575 153.125 82.7147 153.164 82.5769 153.214L82.6064 153.293Z" fill="#95C11F"/>
<path d="M104.735 154.196L103.15 154.66H103.184C103.706 154.507 104.223 154.349 104.745 154.191H104.735V154.196Z" fill="#95C11F"/>
<path d="M96.8584 22.1852L96.9864 22.3037L96.8289 22.3481L96.8584 22.1852Z" fill="#95C11F"/>
<path d="M110.037 35.7283L110.081 36.1478L110.037 35.7629V35.7283Z" fill="#95C11F"/>
<path d="M58.7796 71.7232L58.4153 71.6294L58.8239 71.7429L58.7796 71.7232Z" fill="#95C11F"/>
<path d="M125.761 77.2214L125.781 76.7426C125.771 76.9154 125.761 77.0881 125.751 77.2559L125.761 77.2164V77.2214Z" fill="#95C11F"/>
<path d="M98.6356 112.728L98.4189 113.873L98.478 113.932L98.6405 112.688V112.733L98.6356 112.728Z" fill="#95C11F"/>
<path d="M47.5898 56.0677L47.6735 56.4971L47.644 56.117L47.5948 56.0677H47.5898Z" fill="#95C11F"/>
<path d="M102.574 90.5226L102.466 90.1327C102.485 90.1821 102.51 90.2265 102.52 90.2758C102.534 90.34 102.539 90.4091 102.549 90.4782L102.574 90.5226Z" fill="#95C11F"/>
<path d="M102.18 128.551L102.461 128.378C102.421 128.408 102.387 128.452 102.347 128.472C102.288 128.497 102.224 128.497 102.16 128.506L102.18 128.551Z" fill="#95C11F"/>
<path d="M149.863 92.0329C149.829 91.8404 149.79 91.6479 149.755 91.4505C149.77 91.5591 149.78 91.6627 149.795 91.7713C149.804 91.8453 149.824 91.9144 149.834 91.9885L149.859 92.028L149.863 92.0329Z" fill="#95C11F"/>
<path d="M102.16 128.507L102.283 128.931C102.264 128.877 102.234 128.822 102.219 128.768C102.2 128.699 102.195 128.62 102.18 128.551L102.16 128.507Z" fill="#95C11F"/>
<path d="M90.8378 104.011L90.8968 104.174L90.7344 104.15L90.8378 104.011Z" fill="#95C11F"/>
<path d="M103.15 154.665C102.973 154.63 102.8 154.591 102.623 154.556L103.184 154.665H103.15Z" fill="#95C11F"/>
<path d="M98.0154 106.879L97.8923 106.8L98.0252 106.746L98.0154 106.879Z" fill="#95C11F"/>
<path d="M71.21 207.978L71.3676 207.919L71.1707 207.904L71.215 207.978H71.21Z" fill="#95C11F"/>
<path d="M70.895 209.232L71.2052 207.983L71.1609 207.909L71.3677 209.232L71.4267 209.153C71.2298 209.153 71.028 209.163 70.8311 209.168L70.8901 209.232H70.895Z" fill="#95C11F"/>
<path d="M62.4768 73.3272L62.4818 73.5148L62.4719 73.4013L62.4768 73.3272Z" fill="#95C11F"/>
<path d="M138.925 111.523L139.486 111.227L139.452 111.178L138.866 111.479L138.925 111.523Z" fill="#95C11F"/>
<path d="M138.866 111.474C138.683 111.681 138.496 111.889 138.314 112.096L138.359 112.17C138.546 111.953 138.738 111.736 138.925 111.518L138.866 111.474Z" fill="#95C11F"/>
<path d="M47.6686 19.5299L47.7178 19.7076L47.6538 19.5941L47.6686 19.5299Z" fill="#95C11F"/>
<path d="M120.848 76.6242L121.045 76.5057L120.902 76.6291L120.848 76.6242Z" fill="#95C11F"/>
<path d="M118.17 49.3701V48.7976L118.111 48.7779V49.3899L118.17 49.3701Z" fill="#95C11F"/>
<path d="M139.486 111.227L139.378 111.05L139.452 111.178L139.486 111.227Z" fill="#95C11F"/>
<path d="M114.153 147.074H114.704L114.733 147.005H114.123L114.153 147.074Z" fill="#95C11F"/>
<path d="M82.5818 154.018L82.6114 153.293L82.5818 153.214L82.5178 154.023H82.5818V154.018Z" fill="#95C11F"/>
<path d="M82.5129 154.023L82.6754 153.954L82.5819 154.018L82.5129 154.023Z" fill="#95C11F"/>
<path d="M60.0055 66.9012L60.0203 67.0887L59.9907 66.9703L60.0055 66.9012Z" fill="#95C11F"/>
<path d="M124.52 140.164C124.702 139.982 124.885 139.804 125.067 139.621L124.993 139.587C124.826 139.755 124.653 139.922 124.486 140.095L124.52 140.164Z" fill="#95C11F"/>
</g>
</mask>
<g mask="url(#mask0_2033_16)">
<rect x="18" y="-16.6092" width="162" height="225.114" fill="#95C11F"/>
</g>
<defs>
<clipPath id="clip0_2033_16">
<rect width="190" height="227" fill="white"/>
</clipPath>
</defs>
</svg>
