<svg width="238" height="226" viewBox="0 0 238 226" fill="none" xmlns="http://www.w3.org/2000/svg">
<mask id="mask0_2033_17" style="mask-type:alpha" maskUnits="userSpaceOnUse" x="-3" y="0" width="241" height="226">
<g clip-path="url(#clip0_2033_17)">
<path d="M85.4053 100.89V98.0373C86.7966 98.6506 87.6039 99.0089 88.741 99.512C88.8543 98.1751 88.978 96.7383 89.1051 95.2464C87.4184 95.5427 85.9206 95.8046 84.2785 96.094C84.8144 94.6847 85.1682 93.751 85.6835 92.3969C82.4096 92.3245 81.7432 94.9914 79.0945 96.2146H73.4846C75.3191 97.045 76.0542 97.3792 77.1158 97.8581C76.7276 98.6816 76.3462 99.4948 75.8447 100.559C76.8512 101.218 78.0639 102.003 79.2697 102.789C78.6994 103.361 78.1292 103.933 77.8234 104.239C73.0243 105.559 68.8434 103.326 64.1885 102.499C60.2379 93.8612 57.311 89.251 60.1177 81.1194C56.2598 77.8151 55.607 72.7845 54.549 68.0296C53.484 63.2471 53.6764 58.4956 54.9097 53.5546C55.7719 50.0987 57.2526 47.2354 58.8638 44.2309C60.8975 40.4442 62.7869 36.561 64.4118 32.5813C65.7241 29.37 67.83 26.7066 69.6061 23.8157C70.3997 22.5202 72.0177 21.2074 71.9318 19.998C71.7085 16.9108 73.859 15.4739 75.6489 14.2473C82.9318 9.24775 90.3212 4.28609 98.9165 1.80182C101.809 0.964538 104.719 -0.117378 107.893 0.023891C111.919 0.203062 115.966 0.227181 119.992 0.0204454C123.565 -0.165617 126.98 0.664772 130.096 1.97754C132.473 2.97677 135.008 1.71912 137.372 3.55218C138.976 4.79604 141.876 4.19995 143.978 5.00278C147.279 6.26386 151.216 7.29754 153.353 9.76114C155.318 12.0283 157.606 13.5444 159.921 14.4851C168.699 18.0409 173.948 24.9734 178.654 32.6054C181.035 36.4679 183.423 40.327 185.948 44.4169C185.367 50.1849 187.483 56.4593 183.484 61.9585C187.226 67.1027 181.1 71.2822 182.454 76.3748H178.263C176.061 78.5938 174.068 80.5991 172.052 82.6286H168.159C167.417 84.6305 166.651 86.6978 165.731 89.1924C165.085 88.5826 164.229 88.1656 164.185 87.6729C163.889 84.4892 162.78 81.7293 160.176 79.1692C161.914 77.9874 160.918 75.3894 162.9 74.1628C163.46 76.554 164.033 78.9418 164.652 81.5157C165.655 81.3847 166.672 81.2538 168.723 80.9885C166.971 80.3648 166.273 80.1133 165.469 79.8273C165.36 77.9632 165.25 76.0441 165.136 74.1628H162.896C162.91 72.5433 162.91 70.9239 162.91 69.3045H166.534C165.724 67.3439 164.6 66.6376 162.91 66.8753C162.776 66.5411 162.646 66.2034 162.512 65.8692C162.24 66.2034 161.969 66.5411 161.701 66.8753C159.471 66.5824 160.949 64.7322 160.389 63.7398C159.626 62.3065 157.108 64.5048 156.857 62.017H159.389C158.832 61.2245 158.454 60.8007 158.204 60.3115C157.867 59.6534 157.788 58.7885 157.314 58.2855C155.84 56.7177 155.194 54.7778 154.277 52.8965C152.226 48.6895 150.584 44.1861 147.207 40.7129C146.905 40.4028 147.166 39.5449 147.104 38.8868C147.118 38.9109 147.197 38.9901 147.276 39.0694C147.606 38.7868 147.935 38.5043 148.265 38.2218L147.884 37.8393C147.602 38.1701 147.321 38.5008 147.104 38.8868C144.682 36.6506 142.13 34.4316 139.728 32.0541C136.966 29.3149 132.033 27.8367 127.426 30.1556C124.658 29.6905 122.401 29.308 120.051 28.9152C119.319 29.8559 118.704 30.6449 118.254 31.2203C109.484 32.4297 101.064 33.5874 91.771 34.8692C87.597 32.9707 78.7922 33.8527 74.4637 37.1605C75.3156 37.5636 76.1436 37.9599 77.3219 38.5181C76.6657 39.4139 76.1607 40.2064 75.5527 40.9059C74.8931 41.6674 74.1373 42.3496 73.1754 43.3143C75.3534 46.7806 69.8637 48.2794 70.8566 51.7147C67.8781 54.0164 71.4577 58.1373 68.256 60.4769C69.211 62.3444 70.142 64.174 71.1589 66.1621C69.3003 67.4852 67.6101 68.6912 65.7001 70.0556C66.2085 70.9756 66.6345 71.7508 67.0433 72.4882C66.7273 72.8982 66.4215 73.291 65.7825 74.1145C68.0705 73.7183 70.4271 72.5502 71.4955 73.2807C73.677 74.7761 75.7828 73.7114 77.8337 74.18C79.6785 74.6003 81.513 75.0758 83.1448 75.4755C86.1851 77.7221 89.1086 79.8824 92.5302 82.4081C91.85 84.1653 93.6741 86.3188 92.8393 89.0787C92.0561 91.6733 92.671 94.6951 92.671 96.9347C90.6682 102.365 87.7756 106.827 86.3912 111.492C88.3116 116.023 93.3546 115.706 95.4846 119.011C96.948 119.093 98.305 119.169 99.7925 119.255C99.5898 119.745 99.4936 120.258 99.3596 120.265C96.0892 120.499 92.6641 120.385 91.4583 124.493C87.8821 125.096 88.1226 128.548 86.7863 130.822C88.5864 132.738 90.7644 133.534 93.444 133.806C95.5876 134.027 97.5664 135.915 99.7753 133.751C100.188 133.348 101.411 133.475 102.125 133.737C103.747 134.326 105.238 135.16 107.093 134.943C108.642 134.764 110.226 134.905 111.713 134.905C111.82 135.394 111.916 135.574 111.864 135.674C111.775 135.846 111.593 136.094 111.452 136.094C105.399 136.115 99.3459 136.111 93.2722 136.111C92.7157 136.687 92.1523 137.265 91.5889 137.844C95.0002 140.938 99.3081 139.247 103.18 139.936C102.85 141.741 101.775 142.234 100.04 142.262C98.7791 142.282 97.5252 142.926 95.9518 143.385C95.7388 143.223 95.3128 142.851 94.8318 142.561C94.5192 142.372 94.131 142.31 94.1516 142.317C92.2141 144.26 90.3865 146.093 87.9646 148.522C87.7447 149.48 87.2775 151.509 86.7347 153.883C90.4999 157.312 93.6192 162.056 98.4458 163.386C100.916 163.297 102.757 162.932 104.475 163.249C106.076 163.545 107.629 164.427 109.051 165.306C111.476 166.801 114.269 166.305 118.137 166.794C114.242 168.889 111.462 170.381 107.945 172.269C110.325 172.435 112.108 172.559 114.424 172.721C114.901 173.806 115.502 175.177 116.337 177.083C117.21 177.372 118.783 177.896 120.624 178.509C121.432 178.196 122.572 177.751 124.706 176.921C122.005 179.705 117.639 181.024 111.744 181.224C112.441 182.017 112.833 182.461 113.513 183.237C110.765 183.671 108.556 183.343 106.055 182.389C100.119 180.122 94.2685 177.689 88.5314 174.971C88.0161 174.726 87.6382 174.195 86.6145 173.268V179.608C86.6145 181.631 87.3634 184.153 86.4359 185.562C85.1373 187.537 87.6039 189.315 85.845 191.072C84.5052 192.412 86.0064 194.769 84.3128 196.537C83.1826 197.718 83.1963 199.999 82.6364 202.012C80.7572 199.879 82.5986 198.538 82.9146 196.96C83.2169 195.448 82.9799 193.825 82.2001 191.809C81.9665 192.547 81.7329 193.284 81.4993 194.018C81.2347 193.821 80.9737 193.625 80.7091 193.429V198.628C78.38 199.779 76.8169 201.226 76.9268 203.824C77.1948 210.109 74.7213 216.025 74.4499 222.248C74.395 223.512 73.6942 224.749 73.2888 226H-3V221.141C-0.633045 218.461 0.555586 214.867 3.589 212.696C5.31354 211.463 6.94877 210.102 8.66301 208.848C14.5478 204.541 20.3707 200.147 26.3619 196.002C31.776 192.257 37.7673 189.556 43.8719 187.137C46.9946 185.9 50.0796 184.546 53.271 183.529C57.5618 182.158 61.8869 180.783 66.2978 179.949C69.0186 179.436 70.7707 177.937 72.6807 176.266C75.4187 173.871 78.3319 171.673 81.3103 169.282C79.0327 165.43 76.6245 161.012 73.8831 156.812C70.4684 151.582 67.7991 146.059 65.6245 140.194C65.0336 138.602 64.8172 137.176 64.8619 135.684C64.9752 131.932 62.8007 128.462 63.6045 124.651C60.9868 121.416 63.0789 117.829 63.2473 114.356C63.3675 115.376 63.529 116.392 63.5908 117.415C63.6492 118.425 63.6045 119.438 63.6045 120.63C64.9649 122.287 66.4146 124.052 68.4484 126.529C69.4893 126.822 71.4818 127.383 73.6838 128.004C76.2672 124.065 80.874 123.586 84.1788 120.751C84.5189 118.987 83.9658 117.467 81.8359 116.619C81.1626 116.964 80.3999 117.357 79.2732 117.936C79.5514 114.08 83.0108 112.771 84.1651 110.038C85.3846 107.154 86.6866 104.305 88.1982 100.887H85.4053V100.89ZM166.435 64.5771C166.514 64.4979 166.593 64.4186 166.672 64.3394L165.827 63.347L165.445 63.7295C165.775 64.012 166.105 64.2946 166.545 64.4496C166.95 64.8562 167.352 65.2593 167.864 65.5384L167.627 65.7762C167.909 66.1069 168.19 66.4377 168.472 66.7685L168.853 66.386C168.523 66.1035 168.194 65.821 167.754 65.6659C167.349 65.2593 166.947 64.8562 166.435 64.5771ZM71.9765 141.1L72.2135 140.863C71.9318 140.532 71.6501 140.201 71.3684 139.87L70.9871 140.253C71.3169 140.535 71.6467 140.818 72.0589 141.262C72.1002 141.731 72.1689 142.485 72.2891 143.829C73.5018 142.303 75.4943 141.824 73.9862 139.805C73.3815 140.263 72.801 140.704 71.9765 141.1ZM91.1835 86.5187C89.7441 88.9271 88.8475 90.4363 87.8031 92.1832H91.1835V86.5187ZM171.639 70.7206H166.5C166.586 72.0093 166.655 73.0843 166.73 74.2248C168.379 73.0464 169.729 72.0851 171.639 70.7206ZM169.077 79.8997C170.444 78.835 171.059 78.3595 171.918 77.691C170.86 76.6849 170.169 76.0268 169.077 74.9897V79.8962V79.8997ZM76.8169 92.39C76.2329 91.0841 75.7073 89.9126 74.8278 87.9451V92.39H76.8169ZM158.98 55.846C158.482 54.9226 158.059 54.1335 157.056 52.266V55.846H158.98ZM73.6495 130.691C70.4237 129.31 70.7981 130.76 71.0695 132.307L73.6495 130.691ZM172.807 72.7294L173.845 72.6605C173.697 71.9851 173.549 71.3064 173.405 70.631C173.206 70.6586 173.007 70.6827 172.807 70.7103V72.7259V72.7294ZM88.0505 137.538C88.0745 137.886 88.0951 138.23 88.1192 138.578C88.7925 138.43 89.4693 138.282 90.1426 138.137L90.0636 137.538H88.0539H88.0505ZM80.2591 154.335H79.6545V156.764H80.2591V154.335ZM63.2026 93.6028H62.7972V94.8191H63.2026V93.6028ZM170.987 72.9534H170.581V74.1696H170.987V72.9534ZM78.9468 87.5282H78.5414V88.7445H78.9468V87.5282ZM86.6179 84.2894V84.6959H87.8306V84.2894H86.6179ZM74.5083 83.0731V83.4796H75.721V83.0731H74.5083ZM83.3887 140.973H83.7941V139.757H83.3887V140.973Z" fill="#95C11F"/>
<path d="M133.847 226C134.301 220.873 137.664 217.307 140.745 213.723C143.535 210.481 146.314 207.301 148.437 203.552C149.11 202.367 150.433 201.567 151.371 200.513C154.652 196.823 158.936 194.032 161.241 189.453C161.498 188.939 162 188.443 162.512 188.174C167.617 185.49 171.684 181.552 175.642 177.455C175.978 177.107 177.15 177.21 177.184 176.99C177.562 174.55 180.393 173.779 180.925 171.873C181.547 169.63 183.505 168.92 184.484 167.194C182.787 162.801 178.843 159.069 180.022 153.367C180.798 153.701 181.516 154.084 182.282 154.321C183.004 154.545 183.842 154.469 184.512 154.783C188.521 156.644 191.887 158.78 193.578 163.542C194.718 166.76 196.518 170.013 198.768 172.952C200.97 175.832 203.822 178.227 205.454 181.641C206.106 183.002 208.013 183.981 209.555 184.656C218.687 188.657 226.595 194.921 235.764 198.832C236.447 199.124 237.251 199.135 238 199.279V226.003H133.847V226Z" fill="#95C11F"/>
<path d="M92.6746 226C94.9694 222.882 97.2642 219.764 100.067 215.96C100.311 214.654 100.724 212.404 101.156 210.157C101.552 208.104 102.881 205.602 102.153 204.107C101.016 201.781 101.517 199.524 101.249 198.349C99.8957 196.01 99.054 194.559 98.1917 193.071C100.555 190.955 102.496 189.222 104.289 187.613C105.495 187.034 106.612 186.286 107.842 185.955C110.817 185.156 113.517 186.796 116.33 187.32C117.069 187.458 117.663 189.074 118.082 190.107C119.687 194.08 121.195 198.094 122.724 202.098C122.858 202.449 122.878 202.842 123.022 203.573C122.456 203.81 121.823 204.079 120.728 204.537C120.226 206.022 119.57 207.962 118.883 210.002C118.392 209.754 117.842 209.478 116.897 208.999V225.997H92.6746V226Z" fill="#95C11F"/>
<path d="M107.206 82.6701C109.467 82.3842 107.9 80.4477 108.539 79.5312C110.112 78.9902 111.645 78.4631 113.96 77.6671C112.448 76.5611 111.645 75.9719 110.841 75.3861C112.002 72.4746 113.163 75.3138 114.853 75.4206C118.12 71.8648 122.816 73.2154 126.698 72.9432C127.945 73.5669 128.749 73.97 129.69 74.4421C130.065 73.4015 130.319 72.702 130.618 71.8716H134.256C136.307 73.6117 138.519 75.4826 140.68 77.3157C138.942 78.7766 142.851 80.7992 140.388 82.7322C140.137 82.0189 139.928 81.4194 139.605 80.496C138.76 80.3581 137.65 80.1824 136.575 80.0067C136.41 79.3761 136.269 78.8283 136.077 78.0875C126.705 76.9057 117.852 78.5044 109.628 83.3799C109.649 83.7727 109.669 84.169 109.693 84.5652C109.982 84.641 110.343 84.865 110.538 84.7651C113.665 83.1904 116.495 80.5856 120.731 81.7502C120.099 82.4462 119.714 82.87 118.742 83.945C120.391 83.5591 121.349 83.3351 122.353 83.0974C125.695 84.7203 130.302 82.9251 132.968 87.4526L133.583 86.1226C133.267 85.3784 132.951 84.6341 132.635 83.8899C135.414 83.2766 136.125 86.8703 139.313 86.8462L134.318 88.345C132.641 87.7455 130.601 87.015 128.605 86.3018C126.046 87.2356 126.884 92.0766 122.277 90.9775C120.398 89.992 119.086 88.028 118.368 85.0614C117.65 86.6464 116.932 88.2313 116.21 89.8301C115.887 89.1375 115.516 88.3416 115.011 87.2597C114.149 87.7386 113.355 88.1796 112.545 88.6276C112.201 88.3106 111.768 87.9109 111.109 87.3045C110.398 87.7179 109.635 88.1624 108.518 88.8102C108.312 86.6291 108.711 84.3826 107.199 82.677L107.206 82.6701ZM125.774 86.3156H126.18V85.0993H125.774V86.3156ZM122.947 85.909V85.5024H121.734V85.909H122.947Z" fill="#95C11F"/>
<path d="M178.204 104.412H175.992C176.511 103.147 176.899 102.2 177.589 100.508C175.841 98.2201 173.756 95.4947 171.505 92.5556C172.326 92.4901 173.264 92.4143 174.676 92.3006C176.411 94.5402 178.28 96.9521 179.953 99.1125C179.276 101.163 178.751 102.761 178.204 104.415V104.412Z" fill="#95C11F"/>
<path d="M108.717 118.398C104.829 117.626 101.764 117.019 98.7 116.413C98.7171 116.192 98.7343 115.972 98.7515 115.751H108.199C108.281 116.179 108.391 116.726 108.717 118.401V118.398Z" fill="#95C11F"/>
<path d="M186.951 83.2284V86.226C186.219 86.1881 185.395 86.3776 185.182 86.0985C183.838 84.3172 182.629 82.4359 181.241 80.3892C181.994 80.3203 182.746 80.2548 184.233 80.1204C184.759 81.1644 185.494 82.6185 186.226 84.0725C186.466 83.79 186.707 83.5109 186.951 83.2284Z" fill="#95C11F"/>
<path d="M123.634 136.339L116.863 134.475V133.896C118.735 133.81 120.607 133.724 122.301 133.644L124.159 135.508C123.984 135.784 123.809 136.063 123.63 136.339H123.634Z" fill="#95C11F"/>
<path d="M110.895 75.238C110.827 76.1132 110.772 76.8402 110.703 77.7395C109.411 77.1158 108.353 76.6059 106.66 75.7859C108.443 75.555 109.631 75.3999 110.895 75.2346V75.238Z" fill="#95C11F"/>
<path d="M84.457 102.879C83.6119 103.092 82.9661 103.254 82.0213 103.492C81.9217 102.589 81.8461 101.934 81.6641 100.298C82.9489 101.487 83.581 102.069 84.457 102.882V102.879Z" fill="#95C11F"/>
<path d="M129.704 82.4807L132.638 83.3179C132.074 83.5074 131.518 83.7624 130.941 83.8417C130.769 83.8658 130.529 83.4075 129.704 82.4807Z" fill="#95C11F"/>
<path d="M94.107 200.699H96.1166C96.1441 200.899 96.1682 201.099 96.1956 201.299L94.1722 201.74L94.1035 200.699H94.107Z" fill="#95C11F"/>
<path d="M153.923 60.6183C155.397 61.0387 156.129 61.2489 156.857 61.4556C156.294 61.6451 155.737 61.9001 155.16 61.9794C154.988 62.0035 154.748 61.5452 153.923 60.6183Z" fill="#95C11F"/>
<path d="M162.914 69.3081C161.103 69.2048 161.887 67.799 161.701 66.879H162.914V69.3081Z" fill="#95C11F"/>
<path d="M155.868 64.6566H157.877L157.96 65.2561C157.28 65.4043 156.596 65.5524 155.916 65.704L155.868 64.66V64.6566Z" fill="#95C11F"/>
<path d="M173.007 109.394V108.178H173.412V109.394H173.007Z" fill="#95C11F"/>
<path d="M170.987 120.324V121.54H170.581V120.324H170.987Z" fill="#95C11F"/>
<path d="M107.096 82.7976L106.107 81.95L106.488 81.5676L107.333 82.5599L107.096 82.7976Z" fill="#95C11F"/>
</g>
</mask>
<g mask="url(#mask0_2033_17)">
<rect x="43" y="-24.3623" width="162" height="225.114" fill="#95C11F"/>
</g>
<defs>
<clipPath id="clip0_2033_17">
<rect width="241" height="226" fill="white" transform="translate(-3)"/>
</clipPath>
</defs>
</svg>
