<svg width="1183" height="869" viewBox="0 0 1183 869" fill="none" xmlns="http://www.w3.org/2000/svg">
<g clip-path="url(#clip0_282_21244)">
<path d="M390.59 274.78H462.2C468.53 263.72 475.02 252.34 481.55 240.98C482.87 238.69 484.27 236.43 485.81 234.3C486.03 233.99 487.28 234.42 488.82 234.6C481.81 246.85 475.07 258.64 468.21 270.64C477.14 286.36 486.18 302.25 495.94 319.43C493.63 318.64 492.14 318.59 491.54 317.83C489.72 315.56 488.09 313.1 486.65 310.56C480.94 300.51 475.36 290.38 469.64 280.34C468.52 278.37 466.96 276.65 465.12 274.16C464.75 275.94 464.59 276.71 464.35 277.87C463.01 278.1 461.46 278.36 459.89 278.63C468.37 293.42 476.81 308.14 485.87 323.93C483.73 323.58 482 323.78 481.65 323.17C477.31 315.67 473.27 308 468.95 300.49C464.73 293.17 460.28 285.99 455.65 278.28H422.14C416.49 278.28 410.84 278.08 405.2 278.34C399.79 278.58 394.2 277.2 389.32 279.18C387.36 275.41 385.48 271.06 382.94 267.13C380.06 262.68 377.62 257.95 374.98 253.42C368.64 242.52 362.81 231.28 355.92 220.73C351.85 214.49 353.22 208.59 354.76 202.55C357.37 192.36 360.65 182.35 362.94 172.05C364.53 164.89 367.03 157.94 369.01 150.86C369.71 148.37 370.07 145.8 370.67 142.83C354.45 126.61 337.68 109.84 320.22 92.38C320.81 88.48 320.93 83.84 322.26 79.58C326.28 66.73 329.31 53.65 332.63 40.63C334.31 34.06 336.29 27.48 338.1 20.3C342.19 18.77 346.48 16.26 351.01 15.7C356.64 15 361.93 13.14 367.3 11.8C372.29 10.56 377.35 8.61 382.32 7.38C389.75 5.55 397.27 3.93 404.67 1.89C406.69 1.33 408.63 0.52 410.11 0C427.68 17.57 444.83 34.72 462.91 52.8C461.59 64.16 457.41 76.18 454.2 88.33C450.98 100.51 448.59 112.96 443.84 125.25C420.74 131.52 397.15 137.92 373.79 144.27C372.08 150.72 370.29 156.79 368.89 162.95C366.61 172.98 363.13 182.69 361.08 192.79C360.03 197.95 359.3 203.55 357.11 208.04C354.88 212.63 356.71 215.62 358.41 218.51C364.68 229.17 371.28 239.63 376.93 250.67C380.64 257.93 385.24 264.74 389.4 271.78C389.92 272.67 390.19 273.71 390.61 274.77L390.59 274.78ZM459.48 55.33C441.59 37.44 424.88 20.73 408.04 3.89C398.08 7.75 386.98 10.12 376.1 12.87C364.86 15.72 353.89 19.68 342.32 21C338.08 29.75 336.33 38.88 334.24 47.73C331.57 59.03 328.24 70.14 325.36 81.36C324.47 84.82 323.39 87.96 324.23 91.31C326.99 94.07 329.59 96.67 332.18 99.26C334.57 101.65 336.97 104.05 339.36 106.44C341.95 109.03 345.44 111.21 346.9 114.33C348.46 117.66 351.66 118.31 353.8 120.52C356.11 122.91 357.13 126.35 360.62 127.94C363.28 129.15 364.93 132.27 366.93 134.48C369.23 137.01 372.41 138.27 373.82 140.92C397.16 134.58 419.94 128.39 441.81 122.46C448.01 98.91 453.91 76.49 459.47 55.33H459.48Z" fill="#95C11F"/>
<path d="M712.16 597.78C711.59 596.45 710.96 594.1 709.7 592.16C703.67 582.86 697.66 573.56 692.92 563.5C692.02 561.59 690.59 559.94 689.36 558.19C687.98 556.23 687.78 554.45 690.16 551.99C698.36 566.24 706.18 579.82 714.51 594.29C715.15 592.79 715.46 592.06 716.04 590.7C716.98 590.53 718.52 590.24 720.58 589.86C712.66 575.98 704.83 562.24 696.26 547.2C698.52 548.19 699.99 548.35 700.58 549.17C702.76 552.17 704.8 555.29 706.62 558.52C712.29 568.59 717.83 578.74 723.45 588.84C723.71 589.32 724.23 589.65 724.46 589.88C746.31 589.88 767.98 589.88 789.66 589.83C790.06 589.83 790.46 589.08 790.93 588.61C791.71 589.35 792.49 590.1 793.41 590.97C792.94 591.54 792.48 592.11 792.28 592.36C804.46 613.4 816.59 634.36 828.59 655.09C822.32 678.25 816.07 701.31 809.99 723.74C812.18 726.94 813.35 730.57 815.62 731.49C818.46 732.64 818.8 735.8 821.82 736.71C824.24 737.44 826.04 740.49 827.58 742.53C837.45 755.61 850.57 765.48 861.13 777.76C857.88 779.67 861.41 784.39 857.94 786.42C856.25 801.24 849.54 814.88 847.77 829.68C844.79 834.49 844.33 840.14 842.82 845.41C842.11 847.91 841.02 849.01 838.75 849.73C828.44 852.96 817.86 855.21 807.54 858.33C798.23 861.15 788.47 862.28 779.44 866.18C776.33 867.52 772.71 867.67 768.67 868.51C766.9 866.18 764.77 863.73 763.05 861.01C761.37 858.35 758.53 856.96 756.46 854.7C754.63 852.71 753.16 849.74 750.76 848.74C747.41 847.35 746.86 843.94 744.4 842C741.75 839.92 739.51 837.31 737.16 834.87C735.04 832.66 732.28 831.26 730.53 828.47C728.93 825.9 726.26 823.99 724.06 821.8C721.69 819.44 719.31 817.09 717.1 814.9C723.61 790.82 730.01 767.18 736.47 743.31C759.49 737.07 782.85 730.73 806.54 724.31C812.71 701.51 818.88 678.68 825.15 655.5C813.44 635.26 801.48 614.6 789.47 593.86H718.43C709.84 608.61 701.51 622.94 693.09 637.22C692.8 637.7 691.65 637.68 689.94 638.16C691.51 632.74 694.54 628.85 696.94 624.75C699.48 620.41 701.75 615.94 704.77 611.82C707.68 607.85 709.47 603.05 712.17 597.81L712.16 597.78ZM720.43 814.32C737.47 831.36 754.21 848.1 770.73 864.62C792.87 858.76 815 852.9 837.97 846.82C840.49 844.54 840.29 840.31 841.54 836.56C844.72 827.07 846.96 817.35 849.48 807.69C852.12 797.57 854.98 787.51 857.46 778.42L806.58 727.54C785.37 733.3 763.53 739.23 741.56 745.19C740.33 746.25 738.85 747.54 738.57 747.79C732.31 770.75 726.42 792.33 720.42 814.32H720.43Z" fill="#95C11F"/>
<path d="M990.01 332.54V335.73H935.98C936.69 337.24 937.16 338.24 937.8 339.59C937.27 340.29 936.64 341.11 935.57 342.51H989.85C990 343.85 990.08 344.62 990.21 345.75H934.87C925.67 358.14 919.56 372.33 911.1 385.22C910.39 385.02 909.63 384.8 908.22 384.4C916.9 369.29 925.4 354.49 934.13 339.3C922.44 319.3 910.46 298.82 898.33 278.08C894.64 278.96 890.96 276.8 887.75 279.73C887.27 280.17 886.16 279.93 885.34 279.98C875.4 280.55 865.46 280.98 855.54 281.74C851.54 282.05 847.6 283.09 843.1 283.9V269.66C848.37 270.7 853.94 268.04 859.09 271.47C859.48 271.73 860.2 271.47 860.76 271.51C869.57 272.07 878.38 272.52 887.17 273.26C890.83 273.57 894.43 274.5 898.22 275.18C910.5 253.92 922.49 233.14 934.57 212.22H1007.06C1019.52 190.79 1031.99 169.34 1044.43 147.94H1099.95C1100.12 148.63 1100.31 149.39 1100.49 150.1C1099.96 150.5 1099.55 151.09 1099.13 151.09C1081.65 151.14 1064.17 151.13 1046.22 151.13C1033.79 172.59 1021.36 194.06 1008.96 215.48H936.32C933.88 219.72 931.59 223.89 929.12 227.95C922.95 238.1 917.26 248.52 910.92 258.59C907.73 263.67 906.12 269.7 902.1 274.44C901.4 275.26 902 277.18 902 277.71C912.63 296.17 922.87 313.96 933.58 332.55H990L990.01 332.54Z" fill="#95C11F"/>
<path d="M570.86 211.76C578.2 189.48 585.56 167.17 592.98 144.64C574.22 130.99 555.15 117.11 535.79 103.02C517.1 116.63 498.7 130.02 479.98 143.64C479.91 146.4 480.15 149.3 481.31 152.6C484.98 162.95 487.07 173.82 491.39 184.03C492.78 187.32 492.84 191.17 493.55 195.03H490.59C485.41 177.7 480.25 160.44 475.11 143.25C494.64 129 514.17 114.74 534.02 100.25H537.47C557.42 114.74 577.18 129.1 596.81 143.35C593.94 151.75 591.06 159.88 588.37 168.08C584.7 179.28 581.16 190.52 577.58 201.74C576.62 204.74 575.56 207.71 574.83 210.76C573.85 214.84 576.33 218.51 578.42 221.01C582.44 225.83 583.26 232.47 588.17 236.56C593.28 248.45 600.81 258.99 607 270.28C607.75 271.66 608.49 273.04 609.41 274.77H664.11C664.37 275.76 664.57 276.52 664.76 277.23C664.24 277.64 663.83 278.25 663.42 278.25C647.64 278.3 631.85 278.29 615.88 278.29C606.69 293.49 598.84 309.34 589.04 324.04C588.87 324.3 587.98 324.07 586.65 324.07C588.57 315.18 594.87 308.87 598.62 301.33C602.47 293.58 607.18 286.26 611.6 278.6C610.43 278.42 608.87 278.18 607.39 277.95C607.15 277.03 606.95 276.26 606.72 275.39C606.34 275.42 605.81 275.3 605.57 275.52C604.32 276.66 602.68 277.68 602.03 279.12C596.5 291.41 588.98 302.55 582.2 314.12C581.27 315.7 580.44 317.34 578.37 318.76C578.56 317.16 578.29 315.31 579.02 314.01C584.27 304.59 589.72 295.27 595.13 285.93C596.19 284.1 597.47 282.39 598.5 280.54C600.17 277.57 601.73 274.53 603.64 270.94C595.15 257.37 588.08 242.31 578.65 228.58C576.02 224.76 574.56 220.13 572.36 215.44C566.65 216.54 560.46 213.66 554.74 217.21C554.33 217.46 553.63 217.21 553.07 217.25C543.98 217.81 534.89 218.25 525.82 219.01C522.66 219.27 519.57 220.32 515.73 221.17C515.18 216.35 515.57 211.98 515.39 206.88C522.52 207.81 529.42 205.49 536.02 208.74C536.47 208.96 537.14 208.81 537.7 208.76C547.71 207.93 557.46 211.68 567.51 210.53C568.43 210.42 569.45 211.22 570.86 211.77V211.76Z" fill="#95C11F"/>
<path d="M276.37 444.41C272.74 446.64 269.11 448.87 265.01 451.4C256 436.33 251.36 419.14 242.25 403.97H170.69C165.42 395.24 160.38 386.89 155.35 378.52C154.68 377.4 154.17 376.18 153.54 375.04C148.99 366.71 144.86 358.16 139.26 350.42C137.31 347.73 136.43 344.27 134.96 340.91H63.02L62.73 337.98H132.94C138.55 332.13 141.5 324.88 145.52 318.34C148.4 313.66 150.64 308.59 153.4 303.82C156.97 297.65 160.77 291.61 164.47 285.52C165.97 283.04 167.32 280.44 169.02 278.11C169.65 277.24 171.09 276.94 173.02 277.28C167.17 287.12 161.28 296.93 155.5 306.81C152.72 311.57 150.24 316.5 147.5 321.29C144.1 327.22 140.56 333.08 136.93 339.22C148.63 359.63 160.26 379.94 171.86 400.18H243.68C254.46 381.81 265.14 363.62 275.92 345.26C267.64 330.82 259.18 316.06 250.06 300.15C252.27 300.75 253.75 300.7 254.4 301.41C256.21 303.38 258.35 305.45 259.14 307.88C261.3 314.53 266.02 319.67 268.93 325.87C271.37 331.08 274.45 335.99 277.09 340.75C279.06 339.42 281.06 338.07 283.55 336.4C275.99 323.15 268.33 309.74 260.51 296.03C261.92 295.6 262.67 295.37 263.54 295.11C271.54 309.08 279.49 322.96 287.78 337.45H336.74C337.06 338.43 337.3 339.18 337.52 339.85C337.04 340.33 336.68 341.02 336.31 341.02C318.25 341.07 300.2 341.07 281.84 341.07C278.75 346.58 275.89 352.24 272.51 357.57C265.29 368.95 259.36 381.09 251.66 392.19C249.45 395.38 248.15 399.21 246.33 402.98C255.99 416.32 265.87 429.96 276.37 444.46V444.41Z" fill="#95C11F"/>
<path d="M269.74 487.78C261.74 501.56 253.71 515.4 245.91 528.85C257.88 549.51 269.65 569.83 281.63 590.5C284.77 589.56 287.77 591.43 290.57 588.95C291.39 588.23 293.23 588.64 294.6 588.56C300.04 588.21 305.46 589.11 310.93 587.08C314.16 585.89 318.21 587.08 321.86 586.8C325.32 586.53 328.73 585.65 332.19 585.2C333.79 584.99 335.44 585.16 337.24 585.16V598.96C332.39 597.74 327.38 600.68 322.83 597.07C322.48 596.79 321.73 597.07 321.16 597.03C312.35 596.47 303.53 596.04 294.74 595.28C290.51 594.92 286.32 593.95 281.84 593.22C269.58 614.48 257.59 635.26 245.54 656.16H174.3C168.58 660.29 166.62 667.05 163.03 672.53C158.87 678.88 155.52 685.8 151.65 692.39C148.59 697.59 145.24 702.73 142.7 708.16C140.63 712.57 137.59 716.19 135.46 720.58H80.1901L79.5901 718.57C80.0901 718.12 80.4701 717.48 80.8601 717.47C98.3501 717.42 115.84 717.43 133.81 717.43C146.22 696.02 158.67 674.55 171.08 653.13H243.65C246.46 648.44 249.34 643.99 251.86 639.34C259.38 625.42 267.23 611.7 275.79 598.38C277.31 596.02 277.79 592.99 278.4 591.26C267.49 572.45 257.19 554.69 246.38 536.05H190.09V532.86H244.2C243.45 531.32 242.97 530.34 242.31 528.98C242.83 528.29 243.47 527.45 244.38 526.25H192.7C191.91 524.92 191.24 523.78 190.64 522.76H245.35C247.05 520.27 249.14 518.02 250.32 515.36C254.37 506.18 261.34 498.65 264.91 489.19C265.4 487.88 267.01 485.43 269.77 487.79L269.74 487.78Z" fill="#95C11F"/>
<path d="M587.8 724.12C607.33 738.31 625.54 751.55 644.4 765.25C664.07 752.45 682.47 737.2 701.79 724.09C696.81 708.07 692.01 692.65 687.19 677.14C689.5 675.47 691.12 677.96 691.49 679.21C692.53 682.74 694.28 686.29 694.83 689.63C696.06 697.06 699.22 703.72 701.23 710.79C702.52 715.32 703.66 719.9 705.11 725.35C685.88 739.43 666.02 753.97 646.46 768.29C645.15 768.29 644.23 768.5 643.47 768.24C642.24 767.82 640.97 767.28 639.98 766.46C622.26 751.9 602.7 739.79 584.25 724.98C585.87 719.63 587.16 714.24 589.13 709.11C592.5 700.32 594.34 690.99 598.52 682.49C598.01 677.73 600.19 673.6 602.01 669.53C603.86 665.37 604.12 660.84 605.86 656.71C606.06 656.24 606.59 655.9 606.81 655.67C594.93 635.07 583.08 614.53 571.14 593.82H516.05C515.76 592.83 515.54 592.08 515.33 591.39C515.83 590.95 516.22 590.3 516.6 590.3C532.39 590.25 548.18 590.26 564.01 590.26C573.7 576.64 579.76 560.98 589.99 547.89C590.1 547.75 590.56 547.8 590.81 547.89C591.05 547.98 591.23 548.23 592.03 548.93C585.01 562.43 577.05 575.64 569.34 588.91C571.66 590.49 573.62 591.83 575.87 593.36C578.25 588.85 580.64 584.02 583.3 579.35C585.92 574.76 588.35 569.94 591.72 565.94C595.19 561.82 594.9 555.04 600.8 552.69C601.28 553.17 601.52 553.34 601.67 553.58C601.81 553.79 601.99 554.16 601.9 554.31C593.49 568.89 585.06 583.45 576.84 597.65C587.48 616.05 598.04 634.31 608.95 653.17C614.56 652.27 620.34 654.55 625.77 651.31C633.3 652.54 640.48 649.48 647.95 649.53C653.33 649.57 658.71 648.83 664.37 648.42V661.3C658.45 660.9 652.49 662.15 646.08 660.09C640.54 658.31 634.25 659.99 628.16 658.35C622.21 656.75 615.53 659.24 609.51 656.54C602.23 679.21 594.93 701.92 587.8 724.13V724.12Z" fill="#95C11F"/>
<path d="M1043.04 528.39C1030.52 506.81 1019.17 486.21 1007.18 466.51H937.93C935.13 470.65 931.93 474.96 929.21 479.55C925.6 485.65 922.41 491.98 918.97 498.18C915.53 504.39 912.08 510.59 908.53 516.74C907.2 519.03 905.11 521.05 905.47 523.92C905.79 526.54 906 529.41 907.21 531.65C912.33 541.13 915.52 551.39 919.62 561.27C920.9 564.36 921.77 567.62 923.22 571.98C918.28 567.82 916.79 564.24 912.11 550.89C909.53 543.52 906.03 536.46 902.81 528.92C900.92 529.81 899.07 530.67 896.75 531.76C902.42 545.71 908.09 559.7 914.03 574.31C913.2 574.78 912 575.45 911.08 575.97C905.29 561.58 899.25 546.56 893.07 531.21H845.53C844.44 530.12 843.64 529.32 842.84 528.52C842.94 528.32 843.04 527.95 843.14 527.95C861.42 527.92 879.71 527.93 898.09 527.93C910.2 507 922.07 486.48 934.08 465.72C924.8 453.35 915.46 440.9 905.85 428.09C908.42 423.93 913.65 423.09 917.85 420.15C924.87 435.26 930 450.69 937.94 464.92H1010.3C1022.33 485.86 1034.27 506.67 1046.23 527.5H1116.97C1117.17 528.52 1117.32 529.29 1117.59 530.68H1046.12C1038.53 551.37 1031.07 571.72 1023.59 592.13C1022.48 591.92 1021.71 591.77 1020.67 591.57C1027.48 569.62 1037.46 549.04 1043.05 528.4L1043.04 528.39Z" fill="#95C11F"/>
<path d="M679.77 151.08H609.03C608.88 150.05 608.76 149.28 608.58 148.11H680.65C687.83 135.32 694.71 122.64 702.01 110.21C706.14 103.17 710.96 96.55 714.21 88.98C714.85 87.48 716.49 85.6 719.3 87.55C707.18 108.33 695.13 128.99 682.75 150.21C694.76 170.82 706.83 191.52 718.77 212H782.76C791.26 197.29 799.68 182.72 808.11 168.14C810.49 169.36 811.43 171.07 810.02 172.64C807.82 175.09 806.68 178 805.14 180.8C800.17 189.82 794.48 198.43 789.17 207.26C788.52 208.35 788.53 209.84 788.22 211.21C790.23 212.21 792.08 213.14 794.34 214.27C799.22 205.66 804.03 197.25 808.76 188.8C810.55 185.6 811.86 182.07 814.01 179.15C815.36 177.32 816.74 174.76 820.75 174.8C812.02 189.82 803.55 204.4 795.15 218.84C799.05 225.35 803.05 231.58 806.59 238.06C809.63 243.62 812.46 249.28 816.24 254.39C817.67 256.33 817.82 258.12 815.66 260.44C806.85 245.12 798.38 230.41 789.93 215.72H718.1C711.36 230.93 704.71 245.97 698.05 261C688.49 258.39 687.87 257.92 686.75 252.67C696.33 239.73 705.8 226.95 715.73 213.54C703.94 193.06 691.86 172.08 679.77 151.08Z" fill="#95C11F"/>
<path d="M390.52 652.93H462.06C468.06 638.99 474.13 624.89 480.48 610.14C484.39 612.13 488.05 613.99 491.57 615.79C491.82 622.59 486.01 625.24 483.29 629.66C478.37 637.67 471.99 644.79 466.3 652.33C465.71 653.11 465.64 654.28 465 656.31C476.41 676.07 488.33 696.72 500.26 717.39H570.98C571.19 718.4 571.34 719.17 571.49 719.9C570.94 720.25 570.49 720.78 570.04 720.78C546.36 720.82 522.68 720.82 499.51 720.82C487.59 741.28 475.94 761.29 464.22 781.26C463.92 781.77 462.79 781.78 460.98 782.37C462.92 775.82 466.99 771.35 469.69 766.21C472.62 760.63 475.82 755.19 478.93 749.7C481.91 744.44 484.85 739.15 487.93 733.94C491.01 728.73 494.24 723.62 497.28 718.67C485.06 697.52 473.2 676.99 461.41 656.6H397.06C387.88 672.31 379.38 688.71 369.17 704.53C366.27 700.58 368.89 697.89 370.28 695.81C374.7 689.21 378.57 682.36 382.18 675.29C385.16 669.45 388.71 663.91 392.34 657.68C390.01 656.44 388.04 655.4 386.11 654.37C376.79 668.53 370.15 683.88 359.96 697.04C359.79 697.26 358.93 696.94 357.62 696.78C366.63 681.18 375.49 665.84 384.61 650.03C378.2 638.7 371.51 626.86 364.69 614.82C365.29 614.17 365.99 613.41 366.73 612.6C367.13 612.79 367.72 612.86 367.88 613.16C371.71 620.32 375.39 627.57 379.33 634.68C382.14 639.75 385.27 644.65 388.28 649.61C388.98 650.76 389.78 651.85 390.51 652.93H390.52Z" fill="#95C11F"/>
<path d="M839.03 259.83V293.26C837.81 293.35 836.28 293.47 834.78 293.59C829.66 286.04 824.74 278.78 819.46 270.98C818.55 274.96 819.05 278.55 818.96 282.08C818.88 285.7 818.94 289.33 818.94 293.24H814.39C814.49 293.35 814.26 293.17 814.12 292.94C813.98 292.73 813.86 292.45 813.86 292.21C813.85 282.11 813.85 272.02 813.85 261.62H818.04C823.1 269.25 828.29 277.07 833.88 285.49V264.02C835.29 262.87 836.51 261.88 839.03 259.82V259.83Z" fill="#95C11F"/>
<path d="M511.75 230.64H507.52C502.05 222.6 496.68 214.7 491.31 206.81L490.01 207.33C490.57 210.93 491.37 214.5 491.64 218.12C491.92 222.05 491.7 226.02 491.7 230.53C490.2 230.64 488.67 230.75 486.86 230.88V198.76C487.99 198.7 489.31 198.62 490.56 198.55C495.66 206.02 500.71 213.43 506.88 222.46V198.76H511.76V230.63L511.75 230.64Z" fill="#95C11F"/>
<path d="M833.87 538.09V516.7C835.28 515.53 836.48 514.54 837.58 513.63C838.45 514.27 839.23 514.58 839.23 514.89C839.29 525.02 839.28 535.15 839.28 545.84C837.81 545.97 836.29 546.1 834.78 546.23C829.74 538.67 824.88 531.36 819.56 523.36C818.5 527.59 819.05 531.16 818.96 534.66C818.86 538.29 818.94 541.92 818.94 545.85H814.41C814.55 545.98 814.17 545.79 814.17 545.6C814.14 535.26 814.14 524.92 814.14 514.26H818.04C823.09 521.86 828.3 529.69 833.86 538.07L833.87 538.09Z" fill="#95C11F"/>
<path d="M673.22 269.92V293.23H668.6C668.75 293.37 668.37 293.18 668.37 293C668.34 283.2 668.34 273.39 668.34 263.56C669.13 262.81 669.94 262.04 671.06 260.97C671.91 261.54 673.05 261.92 673.59 262.71C677.46 268.43 681.18 274.25 685.03 279.99C686.24 281.8 687.7 283.45 689.56 285.83C690.51 281.31 689.98 277.43 690.08 273.61C690.18 269.7 690.1 265.78 690.1 261.7C691.14 261.53 691.91 261.4 693.1 261.21V293.33H688.81C684.06 286.19 679.18 278.86 673.23 269.93L673.22 269.92Z" fill="#95C11F"/>
<path d="M890.06 395.88V421.3C888.59 419.93 887.83 419.22 886.92 418.37V388.79H891.43C896.13 395.78 901.11 403.17 906.84 411.71V388.77C908.62 388.65 910.16 388.55 911.95 388.43V415.94C910.74 418.8 910.18 420.13 909.6 421.53C908.08 420.46 907.23 420.14 906.84 419.53C902.93 413.54 899.16 407.46 895.2 401.51C894.06 399.81 892.43 398.43 890.07 395.87L890.06 395.88Z" fill="#95C11F"/>
<path d="M292.95 451.11V483.24H288.75C283.39 475.35 277.98 467.38 271.53 457.87V483.07C270.19 483.25 269.43 483.36 268.27 483.52V451.43H272.47C277.51 459.11 282.6 466.86 288.03 475.13C288.1 472 288.2 469.06 288.23 466.13C288.26 463.02 288.34 459.91 288.21 456.81C288.08 453.63 289.01 451.48 292.95 451.11Z" fill="#95C11F"/>
<path d="M54.4999 712.46V735.79C52.7499 735.91 51.2299 736.01 49.4199 736.14V704.12C50.6799 704.03 52.2099 703.92 53.5799 703.83C59.1799 712.09 64.5499 719.99 71.0299 729.55V704.22C72.3299 704.05 73.0999 703.96 74.2499 703.81V735.84H70.3999C65.2299 728.23 60.0399 720.6 54.5199 712.46H54.4999Z" fill="#95C11F"/>
<path d="M693.18 673.21H689.39C684.28 665.51 679.05 657.62 673.13 648.69C673.13 655.7 673.23 661.81 673.07 667.92C673.02 669.68 672.19 671.41 671.65 673.39C668.63 672.2 667.97 670.56 668 668.17C668.11 659.43 668.04 650.68 668.04 641.39C669.34 641.28 670.65 641.17 672.8 640.99C678.11 648.76 683.62 656.83 690.01 666.19V641.3H693.18V673.21Z" fill="#95C11F"/>
<path d="M1127.92 170.04C1121.36 160.45 1115.83 152.35 1109.55 143.16C1108.21 152.07 1109.37 159.78 1108.7 167.61C1108.01 167.79 1107.25 168 1105.89 168.36C1104.97 157.56 1105.82 147 1105.38 136.16H1109.88C1114.63 143.3 1118.84 151.25 1125.59 158.63V136.1C1127.38 136 1128.92 135.91 1130.69 135.81V165.68C1130.43 165.4 1130.17 165.11 1129.91 164.83C1129.39 166.19 1128.87 167.55 1127.91 170.04H1127.92Z" fill="#95C11F"/>
<path d="M454.4 578.57H459.29V589.89H474.65V578.72H479.29C479.13 578.58 479.52 578.76 479.52 578.94C479.55 588.75 479.55 598.55 479.55 608.64H474.96V595.58H459.6V608.55C454.48 608.67 454.43 608.67 454.42 605.52C454.39 596.76 454.42 588 454.42 578.56L454.4 578.57Z" fill="#95C11F"/>
<path d="M393.31 355.98V342.96H378.25V356.08H373.34V325.91H377.85V337.23H393.21V326.11H398.09C398.92 335.7 398.19 345.7 398.5 355.98H393.31Z" fill="#95C11F"/>
<path d="M362.82 325.91H365.95V356.14C364.62 356.21 363.53 356.26 361.94 356.34C356.08 349.78 351.67 341.89 346.31 333.74C345.34 341.36 346.28 348.53 345.73 355.95H341.12C340.4 346.35 341.01 336.37 340.77 326.48C344.68 324.27 346.84 326.98 348.47 329.33C352.36 334.96 355.79 340.91 359.48 346.69C360.15 347.75 361.15 348.59 362.82 350.46V325.92V325.91Z" fill="#95C11F"/>
<path d="M490.22 584.73V608.22C489.28 608.55 488.54 608.8 487.88 609.03C487.38 608.57 486.67 608.22 486.67 607.87C486.61 598.31 486.62 588.75 486.62 578.64C488.16 578.55 489.68 578.45 491.16 578.36C496.22 585.98 501.06 593.28 506.71 601.79V578.67H511.65V608.73C510.73 608.81 509.68 608.9 507.94 609.04C506.49 607.59 504.17 606.14 503.11 604.05C499.74 597.4 495.05 591.65 490.23 584.73H490.22Z" fill="#95C11F"/>
<path d="M343.81 608.76H341.07V578.68C342.28 578.58 343.79 578.46 345.31 578.34C350.36 585.93 355.22 593.23 361.11 602.08C361.12 596.92 361.14 593.38 361.14 589.84C361.14 586.22 361.14 582.59 361.14 578.68H365.81V608.42C362.19 610.38 360.14 607.57 358.46 605.24C355.69 601.41 353.52 597.16 350.94 593.18C349.41 590.82 347.58 588.66 345.16 585.44C343.12 593.96 345.07 601.44 343.81 608.75V608.76Z" fill="#95C11F"/>
<path d="M854.84 388.66H859.4V401.66H874.71V390.87C876.18 389.87 877.48 388.99 879.58 387.57C880.39 399.23 879.73 409.96 880.04 420.71C878.58 420.71 877.84 420.94 877.49 420.67C876.6 420 875.89 419.1 874.77 417.95V405.67H859.76V421.33C857.58 420.27 856.27 419.64 854.84 418.94V388.66Z" fill="#95C11F"/>
<path d="M705.34 293.38H700.56V260.74C702.46 261.79 703.77 262.52 705.24 263.33V274.56H720.55V264.41C721.7 262.95 722.38 262.09 723.06 261.24C724.03 262.21 724.83 263.01 725.45 263.63V293.35H720.92V278.49C715.76 278.06 710.84 278.38 705.35 278.24V293.37L705.34 293.38Z" fill="#95C11F"/>
<path d="M995.84 350.77C993.18 344.22 992.57 338.23 996.36 330.96C997.23 330.29 999.43 328.6 1001.64 326.9C1001.39 326.68 1001.13 326.46 1000.88 326.23C1003.44 325.7 1005.99 325.17 1009.4 324.47C1013.27 326.77 1019.96 326.29 1022.5 333.04C1024.71 338.91 1024.39 344.5 1021.77 350.97C1020.46 352.21 1018.43 354.13 1016.24 356.21C1002.14 356.88 1001.9 356.81 995.84 350.75V350.77ZM1000.62 350.6C1006.72 353.97 1012.07 353.72 1016.01 351.2C1020.8 345.6 1018.26 340.14 1019.02 335.7C1018.02 333.76 1017.3 332.35 1016.78 331.34C1013.89 329.94 1011.3 328.69 1008.98 327.57C1006.26 328.52 1003.83 329.37 1001.45 330.19C997.55 337.07 997.7 343.77 1000.62 350.6Z" fill="#95C11F"/>
<path d="M165.79 546.18C163.61 544.56 161.91 543.3 159.46 541.49C156.89 535.85 153.69 529.28 157.38 521.58C160.47 518.98 163.57 516.39 166.18 514.19C172.51 513.49 177.48 514.2 181.92 518.5C186.97 523.38 186.66 529.19 186.44 535.22C182.067 542.527 175.18 546.18 165.78 546.18H165.79ZM181.42 536.75C181.42 533.76 181.51 530.67 181.4 527.58C181.22 522.68 177.49 518.25 172.97 517.37C169.16 516.63 165.25 518.88 162.75 523.15C162.34 523.85 161.66 524.4 161.21 524.9C160.62 531.74 160.76 538.28 167.22 542.8H175.51C177.44 540.83 179.4 538.82 181.42 536.76V536.75Z" fill="#95C11F"/>
<path d="M973.23 123.17V137.53C971.77 139.95 970.83 142.26 969.22 143.94C967.81 145.41 965.64 146.16 963.04 147.68C946.91 148.97 945.97 145 941.02 133.21C942.03 129.4 943.08 125.61 944.05 121.79C944.85 118.66 946.98 117.02 949.69 115.4C954.17 112.73 958.92 113.58 963.4 114C968.31 114.47 969.74 119.96 973.23 123.16V123.17ZM953 117.21C950.82 119.4 948.27 121.95 946.1 124.12V137.44C948.28 139.62 950.83 142.17 953.02 144.35C958.08 144.28 962.56 145.08 965.82 142.32C967.22 139.5 968.38 137.17 969.84 134.25V127.19C968.27 124.1 966.97 121.54 965.76 119.15C963.9 118.47 962.24 117.57 960.48 117.28C958.56 116.96 956.55 117.21 953.01 117.21H953Z" fill="#95C11F"/>
<path d="M614.65 546.09H603.89C592.68 542.23 592.9 533.93 593.59 525.15C595.75 520.43 599.04 516.32 606.12 513.84C608.35 514.24 612.27 514.95 616.2 515.65C626.52 525.56 626.91 536.03 614.65 546.08V546.09ZM618.87 525.08C612.81 515.19 606.98 514.82 598.6 523.48V536.3C600.83 538.79 602.69 540.87 604.33 542.71H612.36C614.87 540.47 616.96 538.62 618.87 536.92V525.09V525.08Z" fill="#95C11F"/>
<path d="M325.25 483.28H320.69V468.58H305.38V478.18C304.14 480.59 303.42 481.99 302.69 483.42H301.01C300.72 483.02 300.15 482.6 300.15 482.18C300.1 472.07 300.11 461.96 300.11 451.64C301.07 451.44 301.83 451.27 302.78 451.07C303.5 455.58 304.21 460 304.94 464.57H320.32V450.61C322.5 451.67 323.81 452.31 325.24 453.01V483.28H325.25Z" fill="#95C11F"/>
<path d="M178.65 714.19C187.04 713.4 194.94 713.66 200.07 722.3C200.07 723.09 199.5 724.91 200.17 725.83C203.04 729.75 201.29 733.38 200.09 737.16C197.63 744.88 193.56 747.89 185.3 747.95C183.89 747.95 182.49 747.95 181.08 747.95C176.02 745.65 171.99 742.28 169.62 735.97C169.08 727.97 169.19 719.16 178.65 714.19ZM173.32 736.23C175.32 738.63 177.91 741.74 180.19 744.48H188.21C199.21 740.78 196.15 732.2 196.72 725.06C194.71 722.33 192.81 719.74 191.09 717.41C185.7 717.55 180.66 716.56 177.05 719.49C173.91 724.74 171.86 729.67 173.31 736.23H173.32Z" fill="#95C11F"/>
<path d="M812.16 146.16C815.82 136.01 823.32 134.97 831.97 136.06C845.46 142.75 845.66 161.03 831.66 168.04H821.81C820.02 166.69 818.33 165.42 815.75 163.47C815.02 162.01 813.74 159.44 812.17 156.3V146.17L812.16 146.16ZM837.59 148.64C836.29 143.06 833.33 140.46 829.88 139.43C826.31 138.37 822.36 139.14 819.07 141.65C818.47 143.87 818.56 146.88 817.11 148.27C813.62 151.62 817.11 154.23 817.28 157.12C817.55 161.47 821.47 162.42 824.38 164.08C827.95 166.11 831.01 163.79 832.95 162.82C834.91 160.23 836.18 158.54 837.59 156.68V148.63V148.64Z" fill="#95C11F"/>
<path d="M675.71 546.18C666.35 540.22 666.29 540.06 666.39 524.94C673.43 514.01 677.68 511.97 687.98 515.68C692.87 517.44 693.29 522.28 695.52 526.09C698.38 530.97 694.82 534.36 695.13 538.59C692.62 540.99 689.99 543.51 687.2 546.18H675.71ZM685.11 543.14C692.13 538.2 692.33 531.71 691.61 524.88C691.16 524.36 690.54 523.79 690.09 523.1C687.49 519.1 682.08 515.99 679.09 517.51C676.27 518.94 672.42 520.99 671.82 523.46C671.07 526.53 667.45 529.99 671.28 533.9C672.87 535.52 672.83 538.74 673.61 541.52C677.9 542.13 681.87 542.68 685.11 543.14Z" fill="#95C11F"/>
<path d="M349.91 736.08C341.29 733.78 339.77 727.26 337.61 720.81C339.73 714.79 339.54 706.63 351.31 703.69C356.64 703.07 364.2 703.87 367.87 714.1C367.96 722.06 369.9 731.74 357.56 736.08H349.92H349.91ZM342.51 714.86C342.54 721.82 340.85 729.52 350.97 732.45H357.59C359.97 729.45 362.32 726.48 364.23 724.07C365.93 716.14 361.77 711.52 356.76 707.26C347.67 707.31 347.12 707.6 342.51 714.87V714.86Z" fill="#95C11F"/>
<path d="M515.28 341.24C513.95 345.31 512.57 349.51 511.28 353.47C505.96 355.26 502.12 359.58 496.35 357.74C491.35 355.69 487.38 352.24 485.02 346.11C484.51 338.93 484.15 330.84 493.69 325.79H505.75C511.08 329.36 513.63 334.61 515.29 341.25L515.28 341.24ZM510.36 345.31V336.75C508.51 334.18 506.62 331.55 504.9 329.15H494.44C490.32 332.1 488.5 336.39 488.47 341C488.44 345.63 490.3 349.92 494.44 352.89H504.87C506.6 350.49 508.5 347.88 510.36 345.31Z" fill="#95C11F"/>
<path d="M500.17 58.04V71.16H495.5V38.03C511.33 36.73 514.33 37.39 520.5 43.53V51.31C519.65 53.05 519.07 54.22 518.32 55.74C513.24 59.45 506.97 57.3 500.17 58.03V58.04ZM516.84 50.54V44.49C514.8 43.28 512.98 42.2 511.27 41.19H500.14C500.31 45.82 499.91 50.19 500.41 54.46H512.92L516.84 50.54Z" fill="#95C11F"/>
<path d="M586.65 348.65C583.81 351.49 581.63 353.67 579.48 355.82C577.45 356.39 575.46 356.94 573.06 357.61C571.1 357.13 568.55 356.51 564.58 355.54L558.05 347.81C557.75 338.35 560.16 331.057 565.28 325.93C565.82 325.87 566.37 325.89 566.89 325.74C570.87 324.62 574.61 324.62 578.11 325.74C582.39 327.1 585.66 329.79 586.52 334.17C587.17 337.5 590.37 340.95 586.75 344.62C586.05 345.33 586.65 347.31 586.65 348.64V348.65ZM567.59 352.89H577.77C579.49 350.51 581.38 347.91 583.01 345.65V334.1C579.63 331.69 576.18 329.23 572.85 326.85C568.55 328.49 564.95 330.16 563.08 333.46C561.72 335.86 560.9 339.25 561.42 341.87C562.22 345.9 562.85 350.5 567.58 352.88L567.59 352.89Z" fill="#95C11F"/>
<path d="M259.42 284.21C253.41 293.61 253.14 293.73 238.08 293.4C235.68 291 233.29 288.61 230.59 285.91C230.59 281.17 230.2 276.09 230.7 271.09C231.22 265.88 236.93 264.88 239.65 261.61C245.41 260.3 250.39 262.2 255.45 265.36C256.45 266.84 257.81 268.84 259.42 271.22V284.21ZM254.32 285.94C255.04 281.97 255.76 278.03 256.22 275.49C253.78 269.11 250.28 265.75 245.13 264.59C234.97 269.04 233.88 270.86 234.14 282.77C235.97 285.26 237.87 287.84 239.53 290.1H250.12C251.57 288.66 252.96 287.28 254.33 285.93L254.32 285.94Z" fill="#95C11F"/>
<path d="M910.5 601.05V586.01C912.87 583.69 915.27 581.34 917.89 578.78C920.37 578.14 923.23 576.66 925.93 576.91C928.6 577.16 931.44 578.75 933.6 580.5C935.83 582.31 937.34 585.01 939.19 587.34V599.81C937.14 602.51 934.71 605.73 932.94 608.07C929.61 609.16 927.39 610.43 925.15 610.46C922.91 610.49 920.65 609.26 917.58 608.34C915.67 606.37 913.14 603.77 910.51 601.06L910.5 601.05ZM925.89 606.68C935.26 602.51 936.11 601.07 935.72 589.04C933.9 586.6 932 584.04 930.38 581.86H919.98C914.17 586.01 913.2 591.69 914.11 598.24C915.84 600.6 917.74 603.19 919.1 605.06C921.57 605.65 923.09 606.01 925.89 606.68Z" fill="#95C11F"/>
<path d="M393.36 578.56H396.22C397.83 588.81 400.83 598.9 395.9 608.91H393.64V595.61H376.62V608.58C375.29 608.73 374.52 608.82 373.38 608.95V578.63C374.22 578.57 374.98 578.51 376.35 578.4V590.1H393.37V578.56H393.36Z" fill="#95C11F"/>
<path d="M610.67 788.79H627.96C637.04 794.04 637.9 797.12 632.61 806.25C626.88 809.5 620.59 809.07 613.81 808.96V822.41H610.67V788.8V788.79ZM630.61 794.49C625.35 790.61 619.62 792.46 614.17 791.96V805.38H626.92L626.23 804.48C627.88 803.43 629.53 802.39 630.61 801.71V794.49Z" fill="#95C11F"/>
<path d="M217.32 37.43C226.07 38.06 235.21 35.4 242.29 43.24V52.07C239.84 54.47 237.42 57.84 232.78 57.87C228.87 57.89 224.96 57.87 220.47 57.87V71.27H217.31V37.43H217.32ZM220.6 54.55C226.66 54.14 232.35 55.76 236.9 52.33C237.75 50.56 238.43 49.16 239.08 47.8C238.1 44.67 236.47 42.14 232.39 41.16H220.61V54.55H220.6Z" fill="#95C11F"/>
<path d="M931.12 785.4H948.41C951.85 787.387 954.417 790.47 956.11 794.65C954.61 797.58 952.97 800.76 951.37 803.87H934.26V819.01H931.12V785.4ZM934.41 800.22H948.94C949.82 799.34 950.42 798.74 951.01 798.15V791.01C950.24 790.24 949.65 789.65 948.98 788.98H934.4V800.22H934.41Z" fill="#95C11F"/>
<path d="M1158.1 149.13V136.19C1159.14 136.05 1159.91 135.94 1161.07 135.78V167.84L1158.38 168.03V153.12C1155.41 153.01 1152.7 152.87 1150 152.82C1147.22 152.77 1144.43 152.81 1141.35 152.81V167.36C1140.37 167.7 1139.63 167.95 1138.96 168.18C1138.46 167.71 1137.76 167.36 1137.76 167C1137.7 156.85 1137.71 146.7 1137.71 136.37C1138.56 136.14 1139.32 135.93 1140.73 135.54V149.11H1158.11L1158.1 149.13Z" fill="#95C11F"/>
<path d="M786.69 278.58V293.2C785.66 293.36 784.9 293.47 783.72 293.65V261.8L784.44 261.05C784.89 262.3 785.33 263.54 785.78 264.79L786.72 263.86V274.82C792.17 275 797.65 274.84 803.42 274.92V262.07L805.79 261.23C806.3 261.69 807.02 262.03 807.03 262.37C807.09 272.51 807.08 282.65 807.08 292.97C806.31 293.22 805.56 293.45 804.15 293.9V281.29C802.93 280.07 802.33 279.47 801.44 278.58H786.7H786.69Z" fill="#95C11F"/>
<path d="M20.3999 717.13V704.2C21.4399 704.06 22.2099 703.95 23.3699 703.79V735.85C22.5399 735.91 21.7799 735.96 20.6799 736.04V721.13C17.7099 721.02 15.0099 720.88 12.2999 720.83C9.5199 720.78 6.7299 720.82 3.6499 720.82V735.37C2.6699 735.71 1.9299 735.96 1.2599 736.19C0.759902 735.72 0.0599023 735.37 0.0599023 735.01C-9.76548e-05 724.86 0.00990234 714.71 0.00990234 704.38C0.859902 704.15 1.6199 703.94 3.0299 703.55V717.12H20.3999V717.13Z" fill="#95C11F"/>
<path d="M783.63 512.09C784.83 514.72 785.28 515.7 785.72 516.67L786.6 516.07V527.19H803.64V514.36C804.66 514.16 805.43 514 806.65 513.76V545.89C806 545.99 805.23 546.1 803.85 546.31V531.13H786.82V546H783.63V512.08V512.09Z" fill="#95C11F"/>
<path d="M478.35 807.59C477.27 809.32 476.31 810.86 475.28 812.51C474.54 812.26 473.8 812.01 472.69 811.64C473.53 809.82 474.28 808.2 475.22 806.17C476.5 805.75 478.2 805.04 479.98 804.65C481.82 804.24 483.78 803.75 485.58 804.01C487.29 804.25 488.86 805.43 491.32 806.58C494.63 813.07 493.11 821.04 493.43 828.65C489.92 830.64 490.27 827.74 489.47 826.2C487.69 827.12 485.91 828.03 483.78 829.13H475.03C473.77 826.99 472.56 824.94 471.29 822.78C471.95 821.45 472.64 820.07 473.89 817.57C477.9 816.52 482.92 815.21 488.32 813.8C488.32 812.61 488.56 811.47 488.25 810.5C487.94 809.52 487.1 808.7 486.36 807.6H478.35V807.59ZM488.02 824.35V817.39C485.83 817.54 483.89 817.48 482.05 817.87C480.28 818.24 478.61 819.08 476.85 819.73V825.28L480.55 827.31C483.04 826.33 485.46 825.37 488.03 824.36L488.02 824.35Z" fill="#95C11F"/>
<path d="M989.45 807.29C991.14 810.66 992.39 813.17 993.61 815.61H1001.52C1002.06 814.8 1002.99 813.4 1003.53 812.6H1007.81C1006.18 814.23 1004.31 816.1 1001.43 818.98H995.27C985.56 816.62 986.7 809.03 986.83 801.82C988.29 797.69 990.85 794.37 995.56 793.79C1001.53 793.06 1004.92 797.4 1008.67 801.25V807.3H989.44L989.45 807.29ZM993.81 797.27C992.71 799.22 991.52 801.32 990.28 803.51H1004.49C1003.54 801 1002.83 799.1 1002.14 797.27H993.8H993.81Z" fill="#95C11F"/>
<path d="M1083.59 456.02C1083.5 457.97 1083.45 459.05 1083.38 460.67C1084.67 461.65 1086.23 462.82 1088.59 464.62H1094.89C1095.98 462.93 1097.1 461.21 1098.35 459.28C1099.22 459.92 1100.15 460.25 1100.34 460.82C1101.2 463.38 1099.82 465.52 1097.78 466.36C1095.13 467.45 1092.09 468.12 1089.24 468.04C1086.31 467.96 1083.73 466.2 1081.71 463.91C1081.16 463.29 1080.58 462.7 1080.11 462.19V448.63C1081.96 446.78 1083.75 444.99 1085.77 442.97H1094.7C1096.4 444.67 1098.19 446.46 1099.95 448.22C1100.65 450.74 1101.34 453.21 1102.12 456.01H1083.6L1083.59 456.02ZM1095.69 446.42H1085.54C1084.7 448.53 1083.97 450.37 1083.06 452.66H1097.44C1096.78 450.3 1096.24 448.39 1095.68 446.42H1095.69Z" fill="#95C11F"/>
<path d="M765.21 52.17C764.46 49.97 763.8 48.05 763.16 46.17H755.57C754.17 47.24 752.5 48.51 750.49 50.05C749.98 48.82 749.28 47.98 749.48 47.5C750.88 44.13 754.04 43.28 757.18 42.67C758.8 42.36 760.53 42.61 761.73 42.61C763.94 43.92 765.76 44.99 767.35 45.93C767.68 46.73 768.04 47.21 768.04 47.7C768.08 52.48 768.07 57.27 768.07 62.05C768.07 63.18 767.86 64.36 768.14 65.41C768.33 66.14 769.2 66.69 768.74 68.41C767.05 67.25 765.37 66.09 763.57 64.85C760.117 66.9567 756.29 67.9767 752.09 67.91C750.51 66.45 749.07 65.12 747.73 63.88V58.4L752.53 56.25C752.14 55.82 751.75 55.39 751.36 54.96C755.52 54.12 759.69 53.29 765.21 52.17ZM759.17 64.58C761.94 62.6 763.52 61.48 764.88 60.51C764.67 58.1 764.5 56.29 764.29 53.86C761.44 57.6 758.03 55.43 756.16 57.2C754.33 58.43 752.5 59.66 749.43 61.72C751.67 62.62 753 63.16 754.34 63.7L753.53 64.58H759.18H759.17Z" fill="#95C11F"/>
<path d="M715.92 33.86C719.33 34.63 720 36.21 720.75 38.61C723.33 46.82 726.51 54.84 729.88 64.1C732.13 57.65 734.37 52.42 735.73 46.96C736.63 43.34 739.88 40.71 739.54 36.56C739.47 35.72 741.85 34.68 744.54 32.62C741.55 45.93 735.07 56.17 731.96 67.82H728.03C723.88 57.49 719.68 47.09 715.56 36.66C715.31 36.03 715.74 35.13 715.91 33.87L715.92 33.86Z" fill="#95C11F"/>
<path d="M438.86 795.81C444.56 794.48 443.48 800 445.93 801.5C446.28 809.64 451.44 816.22 453.04 824.97C458.87 814.95 460.66 804.16 467.42 795.32C467.6 796.53 468.29 797.94 467.9 798.92C463.85 809.1 459.62 819.21 455.46 829.3H451.7C447.48 818.29 443.23 807.18 438.87 795.8L438.86 795.81Z" fill="#95C11F"/>
<path d="M885.36 792.18H900.79C902.54 794.11 904.4 796.17 906.88 798.92C907.227 806.58 906.123 812.603 903.57 816.99C900.95 817.64 897.93 818.69 894.83 819.08C891.82 819.46 888.72 819.16 885.37 819.16V792.18H885.36ZM899.71 815.53C902.117 813.043 903.843 810.187 904.89 806.96C905.73 804.38 903.94 796.86 901.75 796.17C898.11 795.03 894.55 792.44 890.71 794.01C889.78 794.94 889.19 795.53 888.64 796.08V815.53H899.71Z" fill="#95C11F"/>
<path d="M975.1 793.05C977.32 795.27 978.51 796.46 979.71 797.66C981.05 804.61 978.38 811.86 981.38 818.92H976.98V799.08C974.46 798.21 972.03 797.38 969.32 796.44C967.9 798.33 966.72 799.89 964.8 802.45V818.74C963.79 818.95 963.02 819.11 962.29 819.26C961.93 818.71 961.4 818.27 961.4 817.82C961.35 807.14 961.36 796.46 961.36 785.6C962.4 785.43 963.17 785.3 964.56 785.08V796.78C968.46 795.4 971.81 794.21 975.1 793.05Z" fill="#95C11F"/>
<path d="M173.22 44.45H185.49C189.32 46.35 193.22 48.63 195.49 53.52C194.74 58.24 193.99 62.95 193.32 67.17C187.26 73.45 180.11 70.79 173.22 71.6V44.46V44.45ZM176.62 47.86V69.43C183.21 70.77 188 68.46 191.61 63.48C191.47 57.91 192.72 52.16 187.4 47.86H176.62Z" fill="#95C11F"/>
<path d="M562.37 51.33C563.89 56.79 566.69 61.87 563.03 67.17L558.44 71.35H546.95C542.47 68.54 541 63.71 541.07 58.96C541.14 54.24 542.61 49.38 548.6 48.02C553.29 47.32 558.12 47.31 562.36 51.33H562.37ZM545.96 65.37L546.8 64.54C547.96 66.44 549.12 68.34 549.84 69.53C552.42 69.53 554.04 69.53 553.75 69.53C556.66 67.61 558.29 66.54 559.42 65.8V53.08C557.24 51.78 555 50.45 552.77 49.13C550.28 50.62 548.03 51.97 545.96 53.2V65.37Z" fill="#95C11F"/>
<path d="M672.8 822.55H662.73C655.33 815.99 654.24 810.92 657.93 801.61C660.06 800.17 661.82 798.98 664.27 797.32H670.39C672.31 798.74 674.02 800.01 677.02 802.23C677.45 805.5 678.07 810.24 678.61 814.31C676.37 817.49 674.67 819.9 672.8 822.55ZM659.19 813.56C661.4 816.34 662.61 817.86 663.59 819.1H670.47C672.04 817.61 673.45 816.26 674.83 814.95C674.76 810.59 675.56 806.14 673.82 804.03C668.79 799.46 665.18 800.25 660.86 803.22C660.33 806.52 659.69 810.44 659.19 813.56Z" fill="#95C11F"/>
<path d="M32.2199 410.48H48.7299L49.2799 412.96C48.7399 413.33 48.3099 413.89 47.8799 413.89C41.1599 413.94 34.4399 413.93 27.4199 413.93V380.36C32.1399 380.26 32.1899 380.26 32.1999 383.4C32.2299 392.34 32.2099 401.28 32.2099 410.48H32.2199Z" fill="#95C11F"/>
<path d="M252.63 71.26H249.5V38.07L251.92 37.21C253.39 41.07 252.21 44.96 252.77 48.89C254.14 48.49 255.49 48.13 256.81 47.69C258.03 47.28 259.21 46.78 260.64 46.23L267.87 51.51V70.83L264.84 71.84C264.08 65.52 264.84 59.46 264.41 53.77C262.93 52.17 261.59 50.73 260 49.01C257.68 50.27 255.38 51.52 252.64 53.01V71.26H252.63Z" fill="#95C11F"/>
<path d="M57.69 390.74C60.33 390.05 61.84 389.65 63.99 389.08C65.57 389.75 68.15 390.36 70.1299 391.79C73.2799 394.06 74.02 396.47 74.29 401.79H58.76C57.7 402.85 56.91 403.64 55.87 404.68C57.9 407.31 59.95 409.97 62.12 412.79C64.85 411.75 67.03 410.91 69.16 410.1L70.16 407.14H74.3799C73.6999 408.82 73.1 410.31 72.16 412.64C68.11 413.18 63.62 413.79 59.54 414.34C53.38 410.23 51.61 404.9 53.02 397.26C54.31 395.45 56.31 392.66 57.69 390.73V390.74ZM68.92 393.72C66.52 392.93 64.29 392.2 62.24 391.52C59.93 393.86 57.96 395.85 55.98 397.85C56.75 398.6 57.54 399.39 58.55 400.38C62.64 400.11 66.9999 400.83 71.7699 399.89C70.7099 397.59 69.96 395.95 68.93 393.71L68.92 393.72Z" fill="#95C11F"/>
<path d="M296.69 59.59H278.34V66.24C280.67 67.44 283.45 68.87 286.62 70.5C288.84 68.29 290.77 66.37 292.73 64.42L295.83 65.66C294.04 67.82 292.51 69.66 291.05 71.42H278.86L275.25 67.59C274.55 64.67 273.94 62.11 273.34 59.59C273.92 57.12 274.52 54.55 275.31 51.2C276.62 50.37 278.65 49.08 281.4 47.34C284.67 47.81 288.65 48.37 292.61 48.94C294 52.56 295.22 55.73 296.7 59.6L296.69 59.59ZM278.24 57.57H291.46V53.05C289.15 51.73 286.86 50.42 284.73 49.2L278.24 53.11V57.56V57.57Z" fill="#95C11F"/>
<path d="M995.57 123.56C997.2 124.26 998.33 124.74 999.05 125.04C1002.6 123.84 1006.02 122.69 1008.91 121.72C1013.89 125.88 1016.3 130.12 1015.71 135.92C1015.34 139.54 1015.64 143.24 1015.64 147.3L1012.45 147.82V132.1C1010.82 129.56 1009.53 127.55 1008.01 125.2C1005.59 126 1003.35 126.75 1001.11 127.49C1000.4 128.87 999.69 130.26 998.44 132.69V147.56H995.58V123.55L995.57 123.56Z" fill="#95C11F"/>
<path d="M239.36 730.41C236.85 728.22 235.39 724.92 231.31 725.98C230.1 727.27 228.75 728.7 227.01 730.54V747.73C225.96 747.79 225.2 747.83 224.11 747.89V724.26C225.22 724.93 226.05 725.42 226.97 725.97C229.5 724.72 232.07 723.45 234.83 722.1C237.3 723.39 239.61 724.61 242.11 725.92V747.8H239.34V730.43L239.36 730.41Z" fill="#95C11F"/>
<path d="M99.7499 413.77H97.2399L95.8799 410.02L93.7399 413.63H83.4099C82.3999 412.05 81.1099 410.03 79.9399 408.21V390.36H82.7499C84.0699 396.78 81.3699 403.64 84.8699 409.77C86.4699 410.58 88.0999 411.41 90.4099 412.59C91.9099 410.17 93.5299 407.54 95.1499 404.91C95.7299 405.39 96.3099 405.86 96.8899 406.34V390.35H99.7599V413.76L99.7499 413.77Z" fill="#95C11F"/>
<path d="M1106.87 442.92H1110.13C1111.88 449.99 1108.39 457.49 1112.9 464.46H1118.56C1119.55 463.42 1120.9 461.99 1122.64 460.16V442.92H1125.53V466.71C1124.55 465.91 1123.98 465.45 1122.86 464.53C1120.92 465.64 1118.79 467.58 1116.41 467.98C1114.28 468.33 1111.86 466.98 1109.6 466.38C1105.04 458.86 1108.28 450.79 1106.88 442.92H1106.87Z" fill="#95C11F"/>
<path d="M1176.78 164.84C1177.17 163.83 1177.92 161.88 1178.51 160.38C1177.86 156.65 1175.67 156 1172.29 156.25C1171.35 157.64 1170.19 159.36 1168.99 161.13C1168.33 160.51 1167.55 159.77 1166.29 158.57C1169.11 156.52 1171.82 154.56 1174.69 152.48C1177.09 153.86 1179.36 155.18 1181.63 156.48V164.32C1178.7 167.25 1175.23 170.72 1171.36 174.59H1181.05C1181.39 175.56 1181.66 176.3 1182.15 177.68C1176.78 178.71 1171.72 178 1166.22 178.33C1167.72 172.17 1171.13 168.73 1176.78 164.83V164.84Z" fill="#95C11F"/>
<path d="M1074.65 466.23H1055.04V434.61C1055.56 434.5 1056.32 434.33 1057.04 434.17C1057.41 434.71 1057.97 435.13 1057.97 435.57C1058.02 444.53 1058.01 453.5 1058.01 462.43C1061.06 463.05 1063.89 463.72 1066.76 464.2C1069.4 464.64 1072.07 464.87 1074.73 465.19C1074.7 465.54 1074.68 465.89 1074.65 466.25V466.23Z" fill="#95C11F"/>
<path d="M41.8199 722.79C42.7299 723.7 43.3299 724.3 44.0099 724.98V731.86C40.7399 734.91 37.2699 738.14 33.2099 741.93C37.0399 743.54 40.2699 742.33 43.5799 743.21L44.1999 744.97C43.7499 745.48 43.4199 746.2 43.0699 746.21C38.3799 746.28 33.6899 746.26 28.1499 746.26C31.2499 739.73 36.7899 736.64 40.5399 731.79C40.8699 729 41.3999 725.91 37.2699 723.95C35.4399 725.53 33.4099 727.3 31.2999 729.13C29.4399 726.75 30.4699 724.83 32.8499 722.8H41.8299L41.8199 722.79Z" fill="#95C11F"/>
<path d="M645.84 800.33C646.58 799.59 647.76 798.41 649.47 796.7C650.95 797.4 652.83 798.28 656.4 799.95C651.94 801.26 649.21 802.07 646.01 803.01C645.27 808.99 644.49 815.41 643.65 822.23L641.95 822.66C641.55 822.14 640.95 821.73 640.95 821.32C640.89 814.04 640.91 806.76 640.91 798.62C642.64 799.22 643.96 799.67 645.84 800.32V800.33Z" fill="#95C11F"/>
<path d="M207.14 723.84C208.71 724.46 209.84 724.9 211.6 725.6C212.16 724.76 213.04 723.42 213.99 721.99C216.44 723.12 218.3 723.98 220.17 724.84C218.81 728.79 215.32 727.3 212.7 727.65C208.18 733.9 211.36 741.12 209.86 747.8H207.13V723.85L207.14 723.84Z" fill="#95C11F"/>
<path d="M980.3 123.59C981.9 124.25 983.03 124.71 984.46 125.3C985.5 124.4 986.86 123.22 988.75 121.58C990.09 123.23 991.19 124.58 992.99 126.79C989.91 127.13 987.86 127.36 985.74 127.6C985.01 128.33 984.22 129.12 983.15 130.19V147.58H980.3V123.6V123.59Z" fill="#95C11F"/>
<path d="M500.47 795.58H503.29V829.17H500.47V795.58Z" fill="#95C11F"/>
<path d="M527.61 47.23L530.66 48.58C533.79 48.18 536.29 47.85 539.02 47.5V50.84H533.4C528.66 57.26 531.78 64.53 530.32 71.26H527.59V47.24L527.61 47.23Z" fill="#95C11F"/>
<path d="M775.14 34.31H777.94V67.63L777.15 68.31L776.32 65.18L775.14 66.07V34.31Z" fill="#95C11F"/>
<path d="M212.2 61.12H198.74L198.18 58.29H211.64C211.75 58.85 211.9 59.62 212.2 61.12Z" fill="#95C11F"/>
<path d="M820.85 553.59L818.44 556C814.67 553.7 810.91 551.41 806.94 548.99C807.83 548.03 808.53 547.27 809.23 546.51C813.03 548.83 816.79 551.12 820.85 553.59Z" fill="#95C11F"/>
<path d="M372.25 323.36C364.85 325.51 362.54 319.13 357.43 318.46C358.48 317.41 359.07 316.82 360.17 315.72C363.83 318.04 367.64 320.44 372.25 323.36Z" fill="#95C11F"/>
<path d="M923.9 805.89V808.69H912.36V805.89H923.9Z" fill="#95C11F"/>
<path d="M374.74 314.9C374.65 315.46 374.53 316.22 374.29 317.78C370.28 315.8 366.66 314.01 362.94 312.18C365.25 309.17 365.18 309.28 367.18 310.55C369.58 312.08 372.1 313.4 374.74 314.9Z" fill="#95C11F"/>
<path d="M367.1 305.39C368.86 303.63 369.45 303.04 370.23 302.26C372.84 304.1 375.49 305.97 378.3 307.96C373.55 310.45 371.37 306.14 367.1 305.4V305.39Z" fill="#95C11F"/>
<path d="M813.53 563.14C810.02 561.18 806.79 559.38 802.73 557.11C810.03 556.5 812.4 557.91 813.53 563.14Z" fill="#95C11F"/>
<path d="M808.27 570.44C805.1 568.37 800.81 568.6 800.12 563.02C803.43 564.67 806.11 566 808.89 567.38L808.27 570.43V570.44Z" fill="#95C11F"/>
<path d="M381.86 299.34C381.37 300.64 381.1 301.35 380.64 302.56C377.93 300.99 375.44 299.55 372.63 297.91C376.51 295.47 378.59 298.56 381.86 299.34Z" fill="#95C11F"/>
<path d="M797.75 571.61C799.44 573.86 803.95 573.25 803.7 577.48C799.46 576.293 797.477 574.337 797.75 571.61Z" fill="#95C11F"/>
<path d="M382.6 295.01C381.23 293.52 379.87 292.05 378.55 290.62C381.14 289.26 383.12 290.39 384.83 292.67C384.1 293.43 383.35 294.22 382.6 295.01Z" fill="#95C11F"/>
<path d="M799.35 582.81C798.36 584.16 797.94 584.73 797.11 585.87L792.97 581.5C793.21 581.12 793.45 580.74 793.7 580.36C795.35 581.08 797 581.79 799.35 582.82V582.81Z" fill="#95C11F"/>
<path d="M383.81 282.56C385.65 283.91 386.95 284.87 389.14 286.48H383.06C383.31 285.19 383.49 284.24 383.81 282.56Z" fill="#95C11F"/>
<path d="M406.83 14.62L408.48 13.82C422.58 27.92 436.46 41.8 450.46 55.8C450.24 56.03 449.52 56.8 448.8 57.57C435.16 45.64 409.93 19.85 406.83 14.62Z" fill="#95C11F"/>
<path d="M433.62 113.82C433.84 114.85 433.95 115.37 434.22 116.65C415.02 121.77 395.78 126.89 374.47 132.57C377.1 129.87 378.26 127.62 379.54 127.55C389.75 126.98 398.62 120.89 408.85 120.61C415.5 116.47 423.87 117.89 430.6 113.89C431.38 113.43 432.68 113.83 433.62 113.83V113.82Z" fill="#95C11F"/>
<path d="M348.11 27.53C350.71 34.36 347.94 39.14 346.92 43.96C345.24 51.92 342.39 59.6 340.65 67.6C339.65 72.17 338.18 76.76 336.62 81.15C335.78 83.53 336.75 86.1 335.12 88.13C334.59 88.21 334.06 88.3 333.53 88.38C333.13 88.05 332.35 87.68 332.38 87.4C332.61 85.29 332.66 83.29 333.38 81.08C336.33 72.1 338.35 62.81 340.82 53.67C343.05 45.39 345.42 37.15 348.11 27.52V27.53Z" fill="#95C11F"/>
<path d="M846.8 780.32C847.79 784 847.05 786.98 846.32 790.17C843.74 801.49 839.59 812.38 837.52 823.83C836.59 828.99 834.79 833.99 833.32 839.33H830.74C830.97 837.13 830.88 834.96 831.46 832.99C836.62 815.38 840.34 797.35 846.81 780.32H846.8Z" fill="#95C11F"/>
<path d="M745.45 752.05C765.04 746.83 784.02 741.78 803.38 736.62L805.23 738.5C803.98 739.27 802.78 740.6 801.45 740.75C791.14 741.89 781.7 746.42 771.5 748.13C764.36 749.32 757.53 752.36 750.51 754.42C748.88 754.9 746.75 755.65 745.45 752.05Z" fill="#95C11F"/>
<path d="M731.5 810.26C745.57 824.66 759.37 838.78 773.12 852.94C773.29 853.12 772.85 853.9 772.44 855.19C758.37 840.79 744.57 826.67 730.82 812.51C730.65 812.33 731.09 811.55 731.5 810.26Z" fill="#95C11F"/>
</g>
<defs>
<clipPath id="clip0_282_21244">
<rect width="1182.16" height="868.48" fill="white"/>
</clipPath>
</defs>
</svg>
