<svg width="125" height="127" viewBox="0 0 125 127" fill="none" xmlns="http://www.w3.org/2000/svg">
<g clip-path="url(#clip0_282_12703)">
<path d="M65.364 84.5567C76.1567 84.5567 84.9058 75.8613 84.9058 65.1349C84.9058 54.4086 76.1567 45.7132 65.364 45.7132C54.5714 45.7132 45.8223 54.4086 45.8223 65.1349C45.8223 75.8613 54.5714 84.5567 65.364 84.5567Z" stroke="#95C11F" stroke-width="1.5" stroke-linecap="round" stroke-linejoin="round"/>
<path d="M76.8613 91.3795L85.3687 106.448" stroke="#95C11F" stroke-width="1.5" stroke-linecap="round" stroke-linejoin="round"/>
<path d="M88.275 94.1839L83.3643 88.93" stroke="#95C11F" stroke-width="1.5" stroke-linecap="round" stroke-linejoin="round"/>
<path d="M87.3057 82.0034L119.903 100.337" stroke="#95C11F" stroke-width="1.5" stroke-linecap="round" stroke-linejoin="round"/>
<path d="M91.7949 73.4905L118.935 81.0407" stroke="#95C11F" stroke-width="1.5" stroke-linecap="round" stroke-linejoin="round"/>
<path d="M94.7656 63.0061L112.053 61.1811" stroke="#95C11F" stroke-width="1.5" stroke-linecap="round" stroke-linejoin="round"/>
<path d="M101.861 53.6887L95.0664 56.1005" stroke="#95C11F" stroke-width="1.5" stroke-linecap="round" stroke-linejoin="round"/>
<path d="M90.2168 49.7683C101.53 43.2821 112.844 36.7959 124.157 30.3097" stroke="#95C11F" stroke-width="1.5" stroke-linecap="round" stroke-linejoin="round"/>
<path d="M85.0186 44.6977C90.3437 39.2881 95.6688 33.8776 100.994 28.468" stroke="#95C11F" stroke-width="1.5" stroke-linecap="round" stroke-linejoin="round"/>
<path d="M76.46 37.8951L81.5021 21.3589" stroke="#95C11F" stroke-width="1.5" stroke-linecap="round" stroke-linejoin="round"/>
<path d="M70.5896 27.7715L70.1777 34.9308" stroke="#95C11F" stroke-width="1.5" stroke-linecap="round" stroke-linejoin="round"/>
<path d="M62.4203 36.9031L53.1455 0.837158" stroke="#95C11F" stroke-width="1.5" stroke-linecap="round" stroke-linejoin="round"/>
<path d="M53.1339 39.5828L39.8135 14.8979" stroke="#95C11F" stroke-width="1.5" stroke-linecap="round" stroke-linejoin="round"/>
<path d="M43.4673 44.7153L30.168 33.5871" stroke="#95C11F" stroke-width="1.5" stroke-linecap="round" stroke-linejoin="round"/>
<path d="M31.791 46.0832L38.2474 49.2828" stroke="#95C11F" stroke-width="1.5" stroke-linecap="round" stroke-linejoin="round"/>
<path d="M37.0111 57.1452C24.955 54.3115 12.8989 51.4769 0.842773 48.6432" stroke="#95C11F" stroke-width="1.5" stroke-linecap="round" stroke-linejoin="round"/>
<path d="M35.0556 64.7088L17.8066 66.8636" stroke="#95C11F" stroke-width="1.5" stroke-linecap="round" stroke-linejoin="round"/>
<path d="M28.1416 74.1602L34.8886 71.6186" stroke="#95C11F" stroke-width="1.5" stroke-linecap="round" stroke-linejoin="round"/>
<path d="M39.8595 77.8571L10.4912 100.961" stroke="#95C11F" stroke-width="1.5" stroke-linecap="round" stroke-linejoin="round"/>
<path d="M46.1032 85.1963L28.8398 107.338" stroke="#95C11F" stroke-width="1.5" stroke-linecap="round" stroke-linejoin="round"/>
<path d="M54.7554 91.8817L49.9424 108.485" stroke="#95C11F" stroke-width="1.5" stroke-linecap="round" stroke-linejoin="round"/>
<path d="M60.7666 101.924L61.0783 94.7607" stroke="#95C11F" stroke-width="1.5" stroke-linecap="round" stroke-linejoin="round"/>
<path d="M68.8076 92.6821C69.9338 103.842 71.0608 115.003 72.187 126.163" stroke="#95C11F" stroke-width="1.5" stroke-linecap="round" stroke-linejoin="round"/>
</g>
<defs>
<clipPath id="clip0_282_12703">
<rect width="125" height="127" fill="white"/>
</clipPath>
</defs>
</svg>
