<svg width="51" height="118" viewBox="0 0 51 118" fill="none" xmlns="http://www.w3.org/2000/svg">
<path d="M39.8689 50.2973C43.3134 54.2143 43.3888 58.9787 42.8818 63.7788C42.5724 66.7108 42.0282 69.6636 41.1946 72.4908C37.3251 85.6122 33.3497 98.7027 29.3438 111.783C27.5506 117.639 26.7042 118.393 20.9896 117.109C15.188 115.805 9.54819 113.785 3.84418 112.053C0.641332 111.081 -0.225115 108.814 0.612484 105.717C1.83749 101.189 3.14281 96.6835 4.35004 92.1517C6.54377 83.9206 8.43479 75.597 10.9473 67.4661C12.6069 62.0968 14.883 56.8709 17.3838 51.8324C18.4699 49.644 20.8151 48.088 22.5888 46.2443C28.9479 45.0521 34.7803 46.0962 39.8675 50.2969L39.8689 50.2973ZM11.1916 77.1949C10.108 80.995 9.16964 84.845 7.89694 88.5804C6.77538 91.8738 7.82091 94.0039 10.5828 95.6933C15.413 98.6471 20.6563 99.7927 26.2746 99.7061C29.1348 99.6623 30.7673 98.4706 31.5406 95.6363C33.6206 88.0119 35.8987 80.4418 37.9977 72.8228C39.9652 65.6808 36.4537 58.8461 29.9262 56.8684C23.4658 54.9113 16.6697 58.7897 14.4637 65.8006C13.2775 69.5684 12.2788 73.3958 11.1916 77.1949ZM26.6955 103.427C26.7092 103.325 26.7235 103.225 26.7373 103.123L8.59356 97.9491C12.0672 99.7144 15.6696 101.092 19.3648 102.144C21.7378 102.82 24.247 103.016 26.6946 103.427L26.6955 103.427ZM7.21296 102.524L6.95073 102.985L25.7509 108.346C25.8029 108.183 25.8543 108.019 25.9063 107.855L7.21296 102.524ZM6.83042 109.478C6.77458 109.674 6.71852 109.87 6.66338 110.066L20.8185 114.103C20.8743 113.907 20.9304 113.711 20.9855 113.515L6.83042 109.478Z" fill="#95C11F"/>
<path d="M39.8689 50.2973C34.7817 46.0966 28.9493 45.0525 22.5902 46.2447C27.7086 33.1145 32.8263 19.984 38.0115 6.68099L49.1071 9.84513C46.5644 23.7669 44.05 37.5304 41.5377 51.2837C41.063 51.0028 40.466 50.65 39.8689 50.2973Z" fill="#95C11F"/>
<path d="M49.8366 8.96888L37.6417 5.49127C37.6989 5.18109 37.7555 4.87072 37.813 4.55983L47.7286 7.38745L48.0158 6.44976L39.03 3.8873L39.2625 2.8855C42.3359 3.53861 45.41 4.19191 48.4833 4.84502C48.5155 4.72944 48.5479 4.61316 48.5801 4.49759L38.1093 1.51163C39.1596 0.858571 39.8435 0.0833057 40.3163 0.195024C43.7112 0.999881 47.0893 1.90622 50.3926 3.02149C50.7746 3.15045 50.8284 4.7714 50.7332 5.66991C50.6201 6.73576 50.1792 7.76746 49.8366 8.96888Z" fill="#95C11F"/>
<path d="M12.3475 77.1818C13.431 73.3824 14.457 69.5659 15.6094 65.7885C18.0109 57.9162 27.6852 54.8262 33.5169 60.4698C36.0179 62.8903 38.352 66.4475 37.3561 70.4382C35.2063 79.0561 32.758 87.6042 30.1959 96.1091C29.8745 97.1749 28.1868 98.424 27.0333 98.5432C21.0428 99.1652 15.3281 97.9829 10.5072 94.2556C9.40941 93.4066 8.63597 91.0844 8.91077 89.6704C9.73353 85.4447 11.1505 81.3339 12.3355 77.1784L12.3475 77.1818Z" fill="#95C11F"/>
</svg>
