<svg width="88" height="92" viewBox="0 0 88 92" fill="none" xmlns="http://www.w3.org/2000/svg">
<g clip-path="url(#clip0_282_12673)">
<path d="M36.6905 42.2072C34.1266 41.6161 32.6822 40.6073 32.3144 38.4998C31.9787 36.5775 32.923 34.9131 34.7288 33.927C35.3939 33.5638 35.883 32.8792 36.7279 32.0792C35.6868 31.687 35.1841 31.5344 34.7133 31.3138C33.1594 30.5837 32.309 29.3261 32.2588 27.639C32.2086 25.9656 32.8409 24.431 34.4651 23.8681C35.8319 23.3941 36.0746 22.4679 36.3465 21.3529C36.9551 18.8504 37.311 18.5852 39.9142 18.5807C42.6771 18.5752 45.4409 18.6397 48.201 18.5589C50.0533 18.5044 51.2003 19.1591 51.4941 21.0568C51.6985 22.3744 52.0488 23.4077 53.5991 23.9906C55.1685 24.5808 55.7096 26.1735 55.5764 27.876C55.4477 29.5241 54.5654 30.6491 53.0981 31.3365C52.6729 31.5353 52.1976 31.6261 51.4202 31.8668C51.8435 32.5714 52.0698 33.5057 52.5899 33.7146C54.8108 34.6053 55.8318 36.148 55.5371 38.4589C55.267 40.5773 53.798 41.6152 51.4019 42.1082C51.87 42.8528 52.1118 43.71 52.6675 44.0369C54.9878 45.3998 55.7935 46.5493 55.5672 48.6623C55.3683 50.5246 54.2378 51.6351 51.3034 52.5431C51.8873 53.2641 52.2523 54.0968 52.881 54.4191C54.6721 55.3362 55.6712 56.6238 55.5809 58.6632C55.4961 60.5636 54.4814 61.7804 52.3755 62.505C52.1556 62.5803 51.9302 62.6375 51.0935 62.8827C51.9904 63.739 52.5388 64.479 53.2697 64.9167C54.8719 65.8764 55.7023 67.1767 55.5754 69.0409C55.4532 70.8405 54.4887 72.0237 52.8199 72.6611C52.485 72.7891 52.1337 72.8709 51.7167 72.9962C51.6693 74.1021 51.9804 74.7958 53.1666 75.2535C55.0271 75.9708 55.8656 77.8032 55.5462 79.8017C55.2597 81.5969 53.7934 83.0098 51.8408 83.1305C49.1482 83.2976 47.7357 85.6566 45.534 86.6536C45.3259 86.748 45.3414 87.42 45.3241 87.8268C45.284 88.7811 45.4482 89.7799 45.21 90.677C45.0695 91.2046 44.3651 91.8093 43.8213 91.9183C43.5038 91.9818 43.001 91.1365 42.5886 90.6943C42.5567 90.6607 42.5612 90.5744 42.5758 90.519C43.6917 86.3558 40.1697 85.2989 37.7818 83.5237C37.3557 83.2068 36.6513 83.2304 36.0673 83.1614C34.0627 82.9262 32.726 81.7503 32.3409 79.8426C31.9531 77.9258 32.8783 76.186 34.6193 75.1999C35.3146 74.8058 35.8328 74.1021 36.7097 73.2767C35.7443 72.9244 35.3629 72.7928 34.987 72.6466C33.2287 71.9638 32.3017 70.639 32.257 68.8039C32.2141 67.0459 33.0782 65.7765 34.6366 64.8822C35.3401 64.4781 35.8648 63.7653 36.4077 63.2523C35.0381 62.288 33.8373 61.7504 33.0782 60.846C31.4093 58.8557 32.2734 55.881 34.6083 54.6089C35.3164 54.223 35.8438 53.5065 36.7398 52.6766C35.7963 52.3352 35.4268 52.2072 35.0627 52.0683C33.3117 51.4 32.3263 50.1115 32.2606 48.27C32.1949 46.4395 33.0718 45.1319 34.7315 44.2357C35.4131 43.868 35.8666 43.0835 36.6896 42.2054L36.6905 42.2072ZM45.2858 31.9267C47.6709 30.5574 49.2093 28.5189 51.8773 28.7958C52.1574 28.8249 52.8308 27.9314 52.7852 27.5246C52.7277 27.0089 52.1647 26.1835 51.7459 26.1354C49.9867 25.9347 49.4958 24.7851 49.202 23.3496C49.0715 22.7122 48.8708 22.0893 48.6983 21.4491H39.1386C39.0237 21.8922 38.9215 22.2327 38.8485 22.5796C38.4871 24.3103 38.155 26.0046 35.8465 26.2362C35.5262 26.2679 35.0153 27.3149 35.1147 27.7816C35.2115 28.2329 35.9341 28.6497 36.4688 28.8876C37.6842 29.4287 38.9881 29.7774 40.1879 30.3476C40.9553 30.7127 41.5995 31.3328 42.5776 32.0393C42.5776 30.7935 42.4107 29.92 42.6342 29.1609C42.7939 28.6179 43.4773 28.2274 43.9262 27.768C44.3788 28.2247 45.0668 28.6124 45.2283 29.1554C45.4537 29.91 45.2849 30.7799 45.2849 31.9267H45.2858ZM45.2931 52.6031C46.6034 51.6824 47.4966 50.8588 48.5469 50.3712C49.5852 49.889 50.8106 49.8209 51.8937 49.4123C52.3016 49.2579 52.7469 48.6786 52.7943 48.2519C52.8417 47.8224 52.4631 46.9779 52.1866 46.9416C50.004 46.6501 49.2723 45.1519 49.067 43.5474C47.2713 44.2112 45.575 45.329 43.8815 45.3244C42.2072 45.3199 40.5365 44.1822 38.7645 43.503C38.4333 44.7696 38.343 46.345 36.4013 46.7137C35.8629 46.8163 35.4724 47.6907 35.0144 48.211C35.6029 48.6677 36.1358 49.2362 36.7918 49.5567C37.8265 50.0634 38.9844 50.3221 40.0118 50.8397C40.8358 51.2547 41.5438 51.8975 42.5758 52.6349C42.5758 51.4717 42.4189 50.6154 42.6269 49.8582C42.7839 49.2852 43.4061 48.8384 43.8213 48.3354C44.3122 48.8285 45.0339 49.2434 45.2356 49.8345C45.4829 50.5573 45.294 51.4272 45.294 52.6049L45.2931 52.6031ZM42.5694 83.5682C42.5694 82.4395 42.3906 81.6604 42.6187 81.0266C42.855 80.3711 43.4855 79.8553 43.9436 79.2787C44.3989 79.8698 45.0193 80.4019 45.2621 81.0693C45.4874 81.6904 45.3104 82.4568 45.3104 83.3784C45.7995 83.1205 46.0632 83.0097 46.2968 82.8536C47.9583 81.7458 49.3617 80.1441 51.7012 80.3892C52.0379 80.4246 52.7651 79.5339 52.7788 79.0563C52.7925 78.595 52.1802 78.0402 51.7304 77.6579C51.0451 77.0768 50.1446 76.7145 49.5633 76.0589C49.1591 75.6031 49.1372 74.8113 48.8708 73.9242C45.5203 77.242 42.2546 77.1413 39.4781 74.4417C38.3548 75.6103 37.3968 76.5901 36.4606 77.5907C35.9597 78.1264 35.4961 78.6976 35.0153 79.2524C35.6421 79.6701 36.2297 80.1731 36.9059 80.4855C37.7964 80.8968 38.8129 81.0539 39.6715 81.5133C40.5976 82.0091 41.4042 82.7264 42.5703 83.5691L42.5694 83.5682ZM42.5722 73.2595C42.5722 72.0809 42.4134 71.2283 42.6242 70.4791C42.782 69.918 43.4153 69.4894 43.8377 69.0018C44.3231 69.4894 45.0376 69.8998 45.2365 70.4846C45.481 71.2037 45.2949 72.0682 45.2949 73.1405C47.6572 71.843 49.2139 69.6828 51.9448 70.0242C52.1966 70.056 52.7587 69.2897 52.8007 68.8583C52.8427 68.4225 52.4594 67.5717 52.1866 67.5399C49.9612 67.2784 49.2741 65.7502 48.9821 63.5065C45.6161 66.9107 42.2957 66.937 39.5173 64.1648C38.3375 65.3452 37.3694 66.3005 36.4177 67.2711C35.9332 67.7651 35.4788 68.2881 35.0107 68.7984C35.5929 69.2515 36.1212 69.8163 36.7717 70.1314C37.7052 70.5827 38.7837 70.7479 39.698 71.2264C40.6214 71.7104 41.4216 72.4287 42.574 73.2595H42.5722ZM45.2922 42.2553C47.6454 40.8543 49.3234 38.8112 52.0634 39.041C52.2925 39.06 52.8007 38.2337 52.8025 37.7988C52.8034 37.3648 52.3609 36.5766 52.0607 36.5512C49.7942 36.3596 49.3361 34.7088 48.9675 32.6367C45.6279 35.9483 42.3048 36.0354 38.8558 32.5777C38.5337 34.8214 37.9415 36.3678 35.7425 36.5884C35.456 36.6175 34.9414 37.6817 35.0928 38.0104C35.3365 38.5397 35.9952 38.9692 36.5728 39.2371C37.7763 39.7955 39.0729 40.1569 40.2719 40.7235C41.0228 41.0786 41.6661 41.6615 42.5712 42.2908C42.5712 41.1212 42.3906 40.2859 42.6269 39.5894C42.8267 38.9983 43.5074 38.5679 43.9755 38.0667C44.4144 38.5461 45.0741 38.9611 45.2374 39.5195C45.4564 40.2686 45.2913 41.1294 45.2913 42.2563L45.2922 42.2553ZM38.8685 53.1624C38.5455 55.4679 37.9096 56.9761 35.7471 57.2167C35.456 57.2494 34.9742 58.2473 35.0965 58.6377C35.2489 59.1208 35.8839 59.5557 36.4095 59.7991C37.7252 60.4056 39.1204 60.8415 40.4352 61.448C41.1113 61.7604 41.6853 62.2925 42.5712 62.9109C42.5712 61.7867 42.4143 60.9305 42.6223 60.175C42.7793 59.6066 43.4061 59.1662 43.824 58.6695C44.314 59.158 45.0166 59.5666 45.2383 60.155C45.5066 60.8696 45.3679 61.7359 45.4099 62.6366C45.7794 62.5013 45.9583 62.4723 46.0942 62.3806C47.8543 61.1947 49.3589 59.5212 51.8134 59.711C52.13 59.7355 52.8664 58.8311 52.7879 58.5052C52.6483 57.9286 52.0917 57.3983 51.6008 56.9734C50.9658 56.424 50.0962 56.1053 49.5706 55.4833C49.1701 55.0084 49.1473 54.2175 48.8854 53.324C45.5823 56.5221 42.3678 56.6374 38.8685 53.1633V53.1624Z" fill="#95C11F"/>
<path d="M2.1252 58.7104C2.1252 57.993 2.07867 57.273 2.1325 56.5602C2.49383 51.8095 1.41715 47.2885 0.446302 42.6603C-1.5702 33.0508 3.40628 23.4576 12.1484 19.0147C14.1732 17.9859 16.2791 17.0879 18.4188 16.3261C18.9872 16.1236 19.8166 16.6484 20.5265 16.8391C20.1634 17.4865 19.9608 18.4191 19.4069 18.726C17.8439 19.5913 16.1249 20.1743 14.4879 20.9152C4.55961 25.408 0.176218 36.3868 4.25029 46.4322C4.57695 47.2367 4.77039 48.1538 4.77677 49.0201C4.82057 55.2935 4.8005 61.5679 4.79959 67.8414C4.79959 68.0802 4.88992 68.3853 4.77586 68.546C4.37895 69.1062 3.90995 69.6165 3.46833 70.1459C3.02305 69.6202 2.21189 69.1081 2.19273 68.5669C2.07228 65.2853 2.1325 61.9965 2.1325 58.7104H2.1252Z" fill="#95C11F"/>
<path d="M68.2119 65.0874C68.0239 66.5538 67.6142 68.0321 67.6863 69.4858C68.0248 76.2905 68.4956 83.0878 68.9217 89.888C68.9801 90.8278 68.9801 91.8193 67.7848 91.9691C66.5786 92.1208 66.3085 91.2209 66.2437 90.2348C65.9317 85.4641 65.6141 80.6934 65.2993 75.9218C65.2163 74.6696 65.1579 73.4148 65.0484 72.1653C64.7765 69.059 64.8011 66.1152 66.3669 63.1515C67.3761 61.2419 67.6507 58.7966 67.7191 56.5747C67.8971 50.7807 67.7775 44.9785 67.7821 39.1799C67.7821 38.7032 67.6662 38.1221 67.8934 37.7779C68.1772 37.3475 68.7748 36.8454 69.2082 36.8708C69.6298 36.8953 70.159 37.4801 70.3744 37.9414C70.5842 38.3908 70.4738 38.9965 70.4738 39.5331C70.4784 46.1689 70.4045 52.8065 70.5295 59.4395C70.5596 61.0512 71.1581 62.6766 71.6573 64.2447C71.9584 65.1909 72.8653 66.1534 71.6463 66.9197C70.2512 67.7969 69.8123 66.4712 69.232 65.6013C69.107 65.4143 68.9245 65.2644 68.7684 65.0974C68.5832 65.0937 68.398 65.0892 68.2119 65.0856V65.0874Z" fill="#95C11F"/>
<path d="M19.12 65.1627C18.8362 65.6104 18.6465 66.1879 18.245 66.4712C17.7787 66.7999 16.8644 67.1885 16.6163 66.9833C16.1883 66.6301 15.7494 65.5949 15.9648 65.2699C18.1592 61.9475 17.5223 58.24 17.5616 54.6398C17.6181 49.3851 17.5533 44.1295 17.6072 38.8757C17.6136 38.2365 17.8554 37.3884 18.3043 37.0116C19.1821 36.2752 20.2405 37.1196 20.2505 38.5824C20.2806 43.0608 20.3263 47.5409 20.246 52.0183C20.1584 56.888 20.1785 61.695 22.9204 66.0417C23.2881 66.6237 23.205 67.549 23.1722 68.3081C23.0499 71.1711 22.8647 74.0313 22.6986 76.8916C22.6375 77.9439 22.5335 79.1225 21.131 79.0236C19.8691 78.9346 19.8317 77.8468 19.9047 76.8307C20.0799 74.3891 20.3381 71.9483 20.3664 69.5039C20.3828 68.0366 20.0297 66.5647 19.8418 65.0946C19.6009 65.1182 19.36 65.1409 19.1182 65.1645L19.12 65.1627Z" fill="#95C11F"/>
<path d="M58.1843 -7.51321e-06C58.5246 0.634694 59.0538 1.23762 59.1679 1.90955C59.4371 3.48858 59.3039 5.15297 59.6999 6.68933C60.6953 10.5502 63.106 13.346 66.7722 14.9949C69.2276 16.0991 71.7213 17.1197 74.1941 18.1848C79.5958 20.512 83.5731 24.3021 86.044 29.633C86.4564 30.5229 86.92 31.519 85.6945 32.0883C84.4992 32.6431 84.0065 31.7542 83.5731 30.8107C81.3495 25.9746 77.7325 22.5832 72.7925 20.5611C70.5215 19.6313 68.2677 18.657 66.0204 17.6709C59.6205 14.8642 55.9479 8.76142 56.5665 1.86505C56.6231 1.23308 57.1359 0.641051 57.437 0.029957L58.1834 -0.000915527L58.1843 -7.51321e-06Z" fill="#95C11F"/>
<path d="M83.2451 58.2219C83.2451 56.4286 83.2743 54.6352 83.2378 52.8419C83.1794 49.9735 83.3765 47.2131 84.3711 44.4182C85.1275 42.2935 85.0518 39.8564 85.2115 37.5491C85.2817 36.5276 85.2306 35.477 86.5135 35.4144C87.801 35.3517 88.1012 36.4123 87.9734 37.4202C87.5866 40.4775 87.1084 43.5248 86.6431 46.5721C86.4296 47.9686 85.9743 49.3542 85.9551 50.7498C85.8757 56.4867 85.9223 62.2262 85.9204 67.9649C85.9204 68.9337 85.998 70.076 84.643 70.1087C83.1512 70.145 83.247 68.9355 83.2461 67.9058C83.2433 64.6779 83.2451 61.4499 83.2451 58.2228V58.2219Z" fill="#95C11F"/>
<path d="M31.5203 3.51946C31.4117 8.31287 29.5612 12.28 25.8512 15.3681C25.0976 15.9956 24.2855 16.4233 23.5108 15.5116C22.7042 14.5627 23.3812 13.8944 24.1158 13.2788C27.3987 10.5248 28.8888 6.97082 28.8349 2.73494C28.8322 2.49704 28.7455 2.20375 28.8523 2.03032C29.2401 1.40106 29.6196 0.384087 30.137 0.29601C31.304 0.0953389 31.5221 1.11867 31.5194 2.09115C31.5175 2.56786 31.5194 3.04366 31.5194 3.52037L31.5203 3.51946Z" fill="#95C11F"/>
<path d="M22.0875 86.6563C21.9816 87.9639 22.0099 89.3023 21.7079 90.5635C21.5738 91.1238 20.7754 91.526 20.2781 92C19.8876 91.4851 19.1622 90.9685 19.1631 90.4545C19.1686 88.1328 19.3045 85.8028 19.5773 83.4983C19.6348 83.0097 20.4651 82.612 20.9387 82.1725C21.3721 82.6547 22.0939 83.0933 22.176 83.629C22.3256 84.606 22.0975 85.6412 22.0263 86.6518L22.0866 86.6563H22.0875Z" fill="#95C11F"/>
<path d="M42.5478 3.18532C42.7348 2.07482 42.0259 0.299649 43.9128 0.280581C45.7861 0.262421 45.2797 2.02034 45.287 3.16171C45.2943 4.31216 45.7778 6.06191 43.9393 6.08098C42.0423 6.10095 42.7212 4.32306 42.5469 3.18441L42.5478 3.18532Z" fill="#95C11F"/>
<path d="M42.542 12.7458C42.7272 11.6389 42.052 9.95274 43.8632 9.90825C45.8305 9.86013 45.2821 11.6262 45.2802 12.7576C45.2784 13.8899 45.8405 15.6732 43.9079 15.6533C41.948 15.6333 42.7829 13.8227 42.542 12.7458Z" fill="#95C11F"/>
</g>
<defs>
<clipPath id="clip0_282_12673">
<rect width="88" height="92" fill="white"/>
</clipPath>
</defs>
</svg>
