<svg width="81" height="74" viewBox="0 0 81 74" fill="none" xmlns="http://www.w3.org/2000/svg">
<g clip-path="url(#clip0_282_12686)">
<path d="M25.5059 57.2678V36.7119H28.1757V45.1532H38.663V36.7119H41.3329V57.2678H38.663V47.579H28.1757V57.2678H25.5059Z" fill="#95C11F"/>
<path d="M45.0077 58.5022L47.4159 58.8671C47.5164 59.6245 47.7964 60.1755 48.2559 60.5217C48.8709 60.989 49.7101 61.2231 50.7742 61.2231C51.9213 61.2231 52.8067 60.989 53.4305 60.5217C54.0543 60.0545 54.4763 59.4002 54.6965 58.5583C54.8249 58.0439 54.8847 56.9647 54.8751 55.319C53.7927 56.6185 52.4438 57.2678 50.8285 57.2678C48.8191 57.2678 47.2636 56.5291 46.1628 55.0524C45.0619 53.5758 44.5107 51.8042 44.5107 49.7383C44.5107 48.3178 44.7628 47.0069 45.2678 45.805C45.7719 44.6038 46.5042 43.6757 47.463 43.0215C48.4218 42.3673 49.5482 42.0398 50.842 42.0398C52.5666 42.0398 53.9889 42.7501 55.1089 44.1715V42.3771H57.3935V55.2491C57.3935 57.5677 57.1613 59.2101 56.6987 60.178C56.2352 61.1459 55.5013 61.9098 54.4962 62.4705C53.492 63.0313 52.2547 63.3117 50.787 63.3117C49.0432 63.3117 47.6353 62.9118 46.5616 62.113C45.4879 61.3141 44.9694 60.1097 45.0061 58.5022H45.0077ZM47.0586 49.5563C47.0586 51.51 47.4391 52.9354 48.2009 53.8326C48.9627 54.7298 49.9167 55.1784 51.0638 55.1784C52.2109 55.1784 53.1561 54.7322 53.9267 53.8391C54.6973 52.9468 55.0826 51.5465 55.0826 49.64C55.0826 47.7334 54.6853 46.4429 53.8924 45.5173C53.0987 44.5916 52.1423 44.1292 51.0231 44.1292C49.9039 44.1292 48.9858 44.5851 48.2152 45.4961C47.4447 46.4072 47.0594 47.7603 47.0594 49.5555L47.0586 49.5563Z" fill="#95C11F"/>
<path d="M48.583 4.79478L79.6962 59.6969C83.2882 66.0357 78.798 73.9593 71.614 73.9593H9.38687C2.20207 73.9593 -2.28814 66.0357 1.30466 59.6969L32.4178 4.79478C36.0098 -1.5441 44.991 -1.5441 48.583 4.79478Z" stroke="#95C11F" stroke-width="1.5" stroke-miterlimit="10"/>
</g>
<defs>
<clipPath id="clip0_282_12686">
<rect width="81" height="74" fill="white"/>
</clipPath>
</defs>
</svg>
