<svg width="65" height="116" viewBox="0 0 65 116" fill="none" xmlns="http://www.w3.org/2000/svg">
<path d="M3.76394 105.613C0.553024 103.127 0.0546871 100.063 1.17657 96.228C3.53141 88.1802 5.67817 80.0677 7.71846 71.9335C10.3003 61.6412 14.9035 52.4213 21.6293 44.2177C28.7566 35.5244 32.0314 25.1304 34.5627 14.4286C34.6526 14.0485 34.7481 13.4154 34.5541 13.2617C31.33 10.6972 34.4481 8.15177 34.5991 5.63466C34.7825 2.57458 36.6989 0.805198 39.6855 0.195312L62.1242 6.20774C64.4511 8.33119 64.9292 10.8283 63.8105 13.7568C63.2856 15.1318 63.0637 16.6194 62.6112 18.0259C62.4211 18.6179 62.0302 19.5767 61.6619 19.6098C59.142 19.8358 59.2888 21.893 58.7767 23.505C55.2115 34.7284 54.319 46.0773 56.2571 57.779C57.6246 66.0345 56.5947 74.3137 54.4226 82.4089C52.0802 91.1396 49.6197 99.8417 47.4599 108.618C46.5048 112.498 44.5166 114.879 40.5236 115.463L3.76394 105.613ZM26.1357 95.1898C28.5183 95.8283 30.9334 96.3676 33.2723 97.138C34.9527 97.6916 35.8152 97.2925 36.437 95.626C39.3059 87.9376 42.2424 80.2732 45.203 72.6199C45.7128 71.3014 45.403 70.535 44.2231 69.7818C37.8586 65.7179 30.9423 63.8392 23.3909 64.202C21.986 64.2694 21.3488 64.7918 21.1324 66.1806C19.8686 74.2902 18.5809 82.3963 17.2188 90.49C16.9211 92.2605 17.5013 93.0155 19.2189 93.3717C21.5491 93.8561 23.8328 94.5728 26.1357 95.1898ZM51.8703 37.0471C52.486 34.0115 53.1279 31.2135 53.5568 28.3832C53.6322 27.8839 52.9186 26.8828 52.3942 26.7356C47.5601 25.3752 42.6962 24.1176 37.8144 22.9412C37.3291 22.8239 36.3234 23.3014 36.1452 23.7402C35.2516 25.9461 34.4526 28.2042 33.859 30.5062C33.7196 31.0459 34.38 32.276 34.8937 32.4241C40.4177 34.024 45.9857 35.4711 51.8694 37.0476L51.8703 37.0471ZM59.4473 15.9857C59.8771 14.3816 60.1689 13.1163 60.5589 11.8818C61.0455 10.3423 60.4117 9.52725 58.9598 9.16364C52.8947 7.64331 46.8274 6.13136 40.765 4.60124C38.3093 3.98142 38.4228 5.9504 37.9349 7.34359C37.4343 8.77305 37.4453 9.80815 39.2842 10.3039C44.0486 11.5887 48.7699 13.0319 53.5156 14.3896C55.3928 14.927 57.2866 15.4053 59.4476 15.9843L59.4473 15.9857ZM51.5655 66.0794C51.5482 65.0066 51.5751 64.4337 51.5235 63.869C51.0631 58.8184 50.6774 53.757 50.0373 48.7286C49.9197 47.8064 48.8309 46.3949 48.0513 46.2945C46.3211 46.072 45.9928 47.6913 46.105 49.0417C46.5607 54.5042 47.0725 59.9639 47.7131 65.4071C47.7906 66.0678 48.7357 67.0598 49.3486 67.1148C50.0947 67.1807 50.9135 66.4166 51.5659 66.0809L51.5655 66.0794ZM44.0745 100.853C44.6894 98.558 45.4858 96.2902 45.8283 93.9554C45.9633 93.035 45.0853 91.9659 44.6683 90.965C43.8133 91.5622 42.4321 91.9967 42.19 92.7829C40.7416 97.4755 39.4674 102.228 38.3719 107.015C38.1985 107.774 39.2266 108.809 39.6988 109.715C40.5202 109.135 41.7832 108.722 42.0806 107.942C42.9505 105.657 43.4364 103.226 44.0745 100.853ZM50.6636 43.6413C49.6399 42.4059 49.1462 41.2774 48.4116 41.0903C47.8158 40.9381 46.3514 41.8728 46.3119 42.4034C46.2543 43.1799 46.9512 44.3606 47.6597 44.7293C48.1664 44.9931 49.2194 44.2071 50.6636 43.6413ZM51.419 22.7341C52.6741 21.8481 53.8411 21.4445 53.9903 20.8041C54.1453 20.1361 53.3998 18.6452 52.9054 18.5786C52.1017 18.4703 50.8715 19.0231 50.4207 19.6964C50.1285 20.1331 50.9016 21.2834 51.419 22.7341Z" fill="#95C11F"/>
</svg>
